<svg xmlns="http://www.w3.org/2000/svg" viewBox="0 0 585 415" width="585" height="415" preserveAspectRatio="xMidYMid meet" style="width: 100%;height: 100%;transform: translate3d(0px, 0px, 0px);"><defs><clipPath id="__lottie_element_253"><rect width="585" height="415" x="0" y="0"></rect></clipPath><clipPath id="__lottie_element_270"><path d="M0,0 L585,0 L585,415 L0,415z"></path></clipPath><clipPath id="__lottie_element_1037"><path d="M0,0 L585,0 L585,415 L0,415z"></path></clipPath><mask id="__lottie_element_1055" mask-type="alpha"><g style="display: block;" transform="matrix(1,0,0,1,292.5,207.5)" opacity="1"><g opacity="1" transform="matrix(1,0,0,1,0,0)"><path fill="rgb(250,250,250)" fill-opacity="1" d=" M-236,21.5 C-236,12.9399995803833 -229.05999755859375,6 -220.5,6 C-220.5,6 -21.5,6 -21.5,6 C-12.9399995803833,6 -6,12.9399995803833 -6,21.5 C-6,21.5 -6,191 -6,191 C-6,191 -236,191 -236,191 C-236,191 -236,21.5 -236,21.5z"></path><path stroke-linecap="butt" stroke-linejoin="miter" fill-opacity="0" stroke-miterlimit="4" stroke="rgb(207,217,240)" stroke-opacity="1" stroke-width="1" d=" M-236,21.5 C-236,12.9399995803833 -229.05999755859375,6 -220.5,6 C-220.5,6 -21.5,6 -21.5,6 C-12.9399995803833,6 -6,12.9399995803833 -6,21.5 C-6,21.5 -6,191 -6,191 C-6,191 -236,191 -236,191 C-236,191 -236,21.5 -236,21.5z"></path></g></g></mask><mask id="__lottie_element_1061" mask-type="alpha"><g style="display: block;" transform="matrix(1,0,0,1,292.5,207.5)" opacity="1"><g opacity="1" transform="matrix(1,0,0,1,0,0)"><path fill="rgb(250,250,250)" fill-opacity="1" d=" M-236,21.5 C-236,12.9399995803833 -229.05999755859375,6 -220.5,6 C-220.5,6 -21.5,6 -21.5,6 C-12.9399995803833,6 -6,12.9399995803833 -6,21.5 C-6,21.5 -6,191 -6,191 C-6,191 -236,191 -236,191 C-236,191 -236,21.5 -236,21.5z"></path><path stroke-linecap="butt" stroke-linejoin="miter" fill-opacity="0" stroke-miterlimit="4" stroke="rgb(207,217,240)" stroke-opacity="1" stroke-width="1" d=" M-236,21.5 C-236,12.9399995803833 -229.05999755859375,6 -220.5,6 C-220.5,6 -21.5,6 -21.5,6 C-12.9399995803833,6 -6,12.9399995803833 -6,21.5 C-6,21.5 -6,191 -6,191 C-6,191 -236,191 -236,191 C-236,191 -236,21.5 -236,21.5z"></path></g></g></mask></defs><g clip-path="url(#__lottie_element_253)"><g transform="matrix(1,0,0,1,292.5,207.5)" opacity="1" style="display: block;"><g opacity="1" transform="matrix(1,0,0,1,0,0)"><path fill="rgb(255,255,255)" fill-opacity="1" d=" M-268.5,-207.25 C-268.5,-207.25 268.5,-207.25 268.5,-207.25 C281.61700439453125,-207.25 292.25,-196.61700439453125 292.25,-183.5 C292.25,-183.5 292.25,183.5 292.25,183.5 C292.25,196.61700439453125 281.61700439453125,207.25 268.5,207.25 C268.5,207.25 -268.5,207.25 -268.5,207.25 C-281.61700439453125,207.25 -292.25,196.61700439453125 -292.25,183.5 C-292.25,183.5 -292.25,-183.5 -292.25,-183.5 C-292.25,-196.61700439453125 -281.61700439453125,-207.25 -268.5,-207.25z"></path></g><g opacity="1" transform="matrix(1,0,0,1,0,0)"><path stroke-linecap="butt" stroke-linejoin="miter" fill-opacity="0" stroke-miterlimit="4" stroke="rgb(207,217,240)" stroke-opacity="1" stroke-width="0.5" d=" M-268.5,-207.25 C-268.5,-207.25 268.5,-207.25 268.5,-207.25 C281.61700439453125,-207.25 292.25,-196.61700439453125 292.25,-183.5 C292.25,-183.5 292.25,183.5 292.25,183.5 C292.25,196.61700439453125 281.61700439453125,207.25 268.5,207.25 C268.5,207.25 -268.5,207.25 -268.5,207.25 C-281.61700439453125,207.25 -292.25,196.61700439453125 -292.25,183.5 C-292.25,183.5 -292.25,-183.5 -292.25,-183.5 C-292.25,-196.61700439453125 -281.61700439453125,-207.25 -268.5,-207.25z"></path></g></g><g transform="matrix(1,0,0,1,292.5,207.5)" opacity="1" style="display: block;"><g opacity="1" transform="matrix(1,0,0,1,0,0)"><g opacity="1" transform="matrix(1,0,0,1,0,0)"><path fill="rgb(207,217,240)" fill-opacity="1" d=" M248.5,-179.5 C248.5,-179.5 264.5,-179.5 264.5,-179.5 C264.5,-179.5 264.5,-177.5 264.5,-177.5 C264.5,-177.5 248.5,-177.5 248.5,-177.5 C248.5,-177.5 248.5,-179.5 248.5,-179.5z"></path></g><g opacity="1" transform="matrix(1,0,0,1,0,0)"><path fill="rgb(207,217,240)" fill-opacity="1" d=" M248.5,-173.5 C248.5,-173.5 264.5,-173.5 264.5,-173.5 C264.5,-173.5 264.5,-171.5 264.5,-171.5 C264.5,-171.5 248.5,-171.5 248.5,-171.5 C248.5,-171.5 248.5,-173.5 248.5,-173.5z"></path></g><g opacity="1" transform="matrix(1,0,0,1,0,0)"><path fill="rgb(207,217,240)" fill-opacity="1" d=" M248.5,-167.5 C248.5,-167.5 264.5,-167.5 264.5,-167.5 C264.5,-167.5 264.5,-165.5 264.5,-165.5 C264.5,-165.5 248.5,-165.5 248.5,-165.5 C248.5,-165.5 248.5,-167.5 248.5,-167.5z"></path></g></g></g><g transform="matrix(1,0,0,1,292.5,207.5)" opacity="1" style="display: block;"><g opacity="1" transform="matrix(1,0,0,1,0,0)"><path stroke-linecap="butt" stroke-linejoin="miter" fill-opacity="0" stroke-miterlimit="4" stroke="rgb(207,217,240)" stroke-opacity="1" stroke-width="1" d=" M-260.5,-191 C-260.5,-191 260.5,-191 260.5,-191 C269.05999755859375,-191 276,-184.05999755859375 276,-175.5 C276,-175.5 276,175.5 276,175.5 C276,184.05999755859375 269.05999755859375,191 260.5,191 C260.5,191 -260.5,191 -260.5,191 C-269.05999755859375,191 -276,184.05999755859375 -276,175.5 C-276,175.5 -276,-175.5 -276,-175.5 C-276,-184.05999755859375 -269.05999755859375,-191 -260.5,-191z"></path></g><g opacity="1" transform="matrix(1,0,0,1,0,0)"><path stroke-linecap="butt" stroke-linejoin="miter" fill-opacity="0" stroke-miterlimit="4" stroke="rgb(207,217,240)" stroke-opacity="1" stroke-width="1" d=" M-276.5,-154 C-276.5,-154 276.5,-154 276.5,-154"></path></g></g><g fill="rgb(148,150,152)" font-size="10" font-family="Roboto Mono" font-style="normal" font-weight="500" aria-label="ANALYSIS" transform="matrix(1,0,0,1,461,39.38399887084961)" opacity="1" style="display: block;"><path stroke-linecap="butt" stroke-linejoin="round" stroke-miterlimit="4" d=" M4.65,0 C4.65,0 5.86,0 5.86,0 C5.86,0 3.59,-7.11 3.59,-7.11 C3.59,-7.11 2.56,-7.11 2.56,-7.11 C2.56,-7.11 0.25,0 0.25,0 C0.25,0 1.46,0 1.46,0 C1.46,0 1.95,-1.65 1.95,-1.65 C1.95,-1.65 4.17,-1.65 4.17,-1.65 C4.17,-1.65 4.65,0 4.65,0z M3.08,-5.44 C3.08,-5.44 3.88,-2.65 3.88,-2.65 C3.88,-2.65 2.25,-2.65 2.25,-2.65 C2.25,-2.65 3.08,-5.44 3.08,-5.44z M12.33,-7.11 C12.33,-7.11 11.14,-7.11 11.14,-7.11 C11.14,-7.11 11.13,-2.23 11.13,-2.23 C11.13,-2.23 8.83,-7.11 8.83,-7.11 C8.83,-7.11 7.64,-7.11 7.64,-7.11 C7.64,-7.11 7.64,0 7.64,0 C7.64,0 8.83,0 8.83,0 C8.83,0 8.83,-4.89 8.83,-4.89 C8.83,-4.89 11.15,0 11.15,0 C11.15,0 12.33,0 12.33,0 C12.33,0 12.33,-7.11 12.33,-7.11z M18.66,0 C18.66,0 19.86,0 19.86,0 C19.86,0 17.6,-7.11 17.6,-7.11 C17.6,-7.11 16.57,-7.11 16.57,-7.11 C16.57,-7.11 14.26,0 14.26,0 C14.26,0 15.47,0 15.47,0 C15.47,0 15.96,-1.65 15.96,-1.65 C15.96,-1.65 18.18,-1.65 18.18,-1.65 C18.18,-1.65 18.66,0 18.66,0z M17.08,-5.44 C17.08,-5.44 17.88,-2.65 17.88,-2.65 C17.88,-2.65 16.25,-2.65 16.25,-2.65 C16.25,-2.65 17.08,-5.44 17.08,-5.44z M23.01,-7.11 C23.01,-7.11 21.84,-7.11 21.84,-7.11 C21.84,-7.11 21.84,0 21.84,0 C21.84,0 26.4,0 26.4,0 C26.4,0 26.4,-0.96 26.4,-0.96 C26.4,-0.96 23.01,-0.96 23.01,-0.96 C23.01,-0.96 23.01,-7.11 23.01,-7.11z M29.53,-7.11 C29.53,-7.11 28.22,-7.11 28.22,-7.11 C28.22,-7.11 30.43,-2.58 30.43,-2.58 C30.43,-2.58 30.44,0 30.44,0 C30.44,0 31.57,0 31.57,0 C31.57,0 31.58,-2.55 31.58,-2.55 C31.58,-2.55 33.8,-7.11 33.8,-7.11 C33.8,-7.11 32.49,-7.11 32.49,-7.11 C32.49,-7.11 31.01,-3.71 31.01,-3.71 C31.01,-3.71 29.53,-7.11 29.53,-7.11z M39.33,-1.41 C39.26,-1.29 39.17,-1.19 39.06,-1.11 C38.94,-1.02 38.81,-0.96 38.66,-0.92 C38.5,-0.88 38.34,-0.85 38.16,-0.85 C37.95,-0.85 37.76,-0.88 37.59,-0.94 C37.41,-0.99 37.26,-1.07 37.13,-1.17 C37,-1.28 36.89,-1.41 36.82,-1.57 C36.74,-1.73 36.69,-1.92 36.67,-2.13 C36.67,-2.13 35.5,-2.13 35.5,-2.13 C35.5,-1.89 35.54,-1.67 35.61,-1.46 C35.68,-1.26 35.78,-1.07 35.91,-0.91 C36.03,-0.75 36.18,-0.6 36.35,-0.48 C36.52,-0.35 36.7,-0.25 36.9,-0.16 C37.09,-0.08 37.3,-0.01 37.51,0.03 C37.73,0.07 37.95,0.09 38.16,0.09 C38.49,0.09 38.8,0.05 39.09,-0.03 C39.39,-0.11 39.65,-0.24 39.87,-0.4 C40.1,-0.56 40.28,-0.77 40.41,-1.01 C40.54,-1.25 40.61,-1.53 40.61,-1.84 C40.61,-2.15 40.55,-2.42 40.43,-2.66 C40.31,-2.89 40.15,-3.1 39.94,-3.28 C39.74,-3.46 39.5,-3.62 39.23,-3.75 C38.96,-3.88 38.68,-3.98 38.38,-4.07 C38.19,-4.13 38,-4.19 37.82,-4.26 C37.65,-4.32 37.49,-4.4 37.35,-4.49 C37.22,-4.58 37.11,-4.69 37.02,-4.81 C36.94,-4.93 36.89,-5.08 36.89,-5.24 C36.89,-5.4 36.93,-5.54 36.99,-5.66 C37.05,-5.79 37.13,-5.89 37.24,-5.98 C37.35,-6.07 37.48,-6.14 37.63,-6.18 C37.78,-6.23 37.94,-6.25 38.12,-6.25 C38.33,-6.25 38.51,-6.22 38.66,-6.16 C38.82,-6.1 38.95,-6.02 39.06,-5.91 C39.17,-5.81 39.25,-5.68 39.31,-5.53 C39.37,-5.38 39.41,-5.22 39.43,-5.04 C39.43,-5.04 40.6,-5.04 40.6,-5.04 C40.6,-5.36 40.53,-5.66 40.4,-5.92 C40.27,-6.19 40.09,-6.41 39.87,-6.6 C39.65,-6.79 39.39,-6.94 39.09,-7.05 C38.79,-7.15 38.47,-7.21 38.13,-7.21 C37.81,-7.21 37.51,-7.16 37.21,-7.07 C36.92,-6.98 36.66,-6.85 36.44,-6.68 C36.22,-6.51 36.04,-6.3 35.91,-6.06 C35.78,-5.82 35.71,-5.55 35.71,-5.24 C35.71,-4.93 35.78,-4.66 35.91,-4.43 C36.04,-4.2 36.22,-3.99 36.43,-3.82 C36.64,-3.65 36.88,-3.5 37.16,-3.38 C37.43,-3.26 37.7,-3.16 37.98,-3.08 C38.19,-3.01 38.38,-2.95 38.56,-2.87 C38.74,-2.8 38.89,-2.71 39.02,-2.62 C39.15,-2.52 39.25,-2.41 39.32,-2.28 C39.39,-2.15 39.42,-2 39.42,-1.83 C39.42,-1.67 39.39,-1.54 39.33,-1.41z M42.89,-6.14 C42.89,-6.14 44.39,-6.14 44.39,-6.14 C44.39,-6.14 44.39,-0.97 44.39,-0.97 C44.39,-0.97 42.89,-0.97 42.89,-0.97 C42.89,-0.97 42.89,0 42.89,0 C42.89,0 47.12,0 47.12,0 C47.12,0 47.12,-0.97 47.12,-0.97 C47.12,-0.97 45.58,-0.97 45.58,-0.97 C45.58,-0.97 45.58,-6.14 45.58,-6.14 C45.58,-6.14 47.12,-6.14 47.12,-6.14 C47.12,-6.14 47.12,-7.11 47.12,-7.11 C47.12,-7.11 42.89,-7.11 42.89,-7.11 C42.89,-7.11 42.89,-6.14 42.89,-6.14z M53.33,-1.41 C53.26,-1.29 53.17,-1.19 53.06,-1.11 C52.95,-1.02 52.81,-0.96 52.66,-0.92 C52.51,-0.88 52.34,-0.85 52.17,-0.85 C51.95,-0.85 51.76,-0.88 51.59,-0.94 C51.41,-0.99 51.26,-1.07 51.13,-1.17 C51,-1.28 50.9,-1.41 50.82,-1.57 C50.74,-1.73 50.69,-1.92 50.68,-2.13 C50.68,-2.13 49.5,-2.13 49.5,-2.13 C49.5,-1.89 49.54,-1.67 49.61,-1.46 C49.68,-1.26 49.78,-1.07 49.91,-0.91 C50.03,-0.75 50.18,-0.6 50.35,-0.48 C50.52,-0.35 50.7,-0.25 50.9,-0.16 C51.1,-0.08 51.3,-0.01 51.52,0.03 C51.73,0.07 51.95,0.09 52.17,0.09 C52.49,0.09 52.8,0.05 53.09,-0.03 C53.39,-0.11 53.65,-0.24 53.88,-0.4 C54.1,-0.56 54.28,-0.77 54.41,-1.01 C54.55,-1.25 54.61,-1.53 54.61,-1.84 C54.61,-2.15 54.55,-2.42 54.43,-2.66 C54.31,-2.89 54.15,-3.1 53.94,-3.28 C53.74,-3.46 53.5,-3.62 53.23,-3.75 C52.96,-3.88 52.68,-3.98 52.38,-4.07 C52.19,-4.13 52,-4.19 51.83,-4.26 C51.65,-4.32 51.49,-4.4 51.36,-4.49 C51.22,-4.58 51.11,-4.69 51.02,-4.81 C50.94,-4.93 50.9,-5.08 50.9,-5.24 C50.9,-5.4 50.93,-5.54 50.99,-5.66 C51.05,-5.79 51.14,-5.89 51.25,-5.98 C51.35,-6.07 51.48,-6.14 51.63,-6.18 C51.78,-6.23 51.95,-6.25 52.12,-6.25 C52.33,-6.25 52.51,-6.22 52.66,-6.16 C52.82,-6.1 52.95,-6.02 53.06,-5.91 C53.17,-5.81 53.26,-5.68 53.32,-5.53 C53.38,-5.38 53.41,-5.22 53.43,-5.04 C53.43,-5.04 54.6,-5.04 54.6,-5.04 C54.6,-5.36 54.53,-5.66 54.4,-5.92 C54.27,-6.19 54.1,-6.41 53.87,-6.6 C53.65,-6.79 53.39,-6.94 53.09,-7.05 C52.79,-7.15 52.47,-7.21 52.13,-7.21 C51.81,-7.21 51.51,-7.16 51.21,-7.07 C50.92,-6.98 50.66,-6.85 50.44,-6.68 C50.22,-6.51 50.04,-6.3 49.91,-6.06 C49.78,-5.82 49.71,-5.55 49.71,-5.24 C49.71,-4.93 49.78,-4.66 49.91,-4.43 C50.04,-4.2 50.22,-3.99 50.43,-3.82 C50.64,-3.65 50.89,-3.5 51.16,-3.38 C51.43,-3.26 51.71,-3.16 51.99,-3.08 C52.19,-3.01 52.39,-2.95 52.56,-2.87 C52.74,-2.8 52.89,-2.71 53.02,-2.62 C53.15,-2.52 53.25,-2.41 53.32,-2.28 C53.39,-2.15 53.43,-2 53.43,-1.83 C53.43,-1.67 53.39,-1.54 53.33,-1.41z" style="display: inherit;"></path></g><g fill="rgb(78,78,78)" font-size="10" font-family="Roboto Mono" font-style="normal" font-weight="500" aria-label="OVERVIEW" transform="matrix(1,0,0,1,389,39.38399887084961)" opacity="1" style="display: block;"><path stroke-linecap="butt" stroke-linejoin="round" stroke-miterlimit="4" d=" M5.55,-4 C5.55,-4.42 5.49,-4.83 5.39,-5.21 C5.28,-5.6 5.12,-5.94 4.9,-6.24 C4.69,-6.53 4.42,-6.77 4.1,-6.94 C3.78,-7.12 3.4,-7.21 2.97,-7.21 C2.69,-7.21 2.43,-7.17 2.19,-7.09 C1.96,-7 1.75,-6.89 1.56,-6.75 C1.37,-6.6 1.21,-6.43 1.07,-6.23 C0.93,-6.03 0.82,-5.81 0.73,-5.58 C0.63,-5.34 0.56,-5.09 0.52,-4.82 C0.47,-4.56 0.44,-4.28 0.44,-4 C0.44,-4 0.44,-3.1 0.44,-3.1 C0.44,-2.68 0.5,-2.27 0.6,-1.89 C0.71,-1.51 0.87,-1.17 1.08,-0.87 C1.29,-0.58 1.55,-0.34 1.87,-0.17 C2.18,0.01 2.55,0.1 2.98,0.1 C3.41,0.1 3.78,0.01 4.1,-0.16 C4.42,-0.34 4.69,-0.57 4.9,-0.87 C5.12,-1.16 5.28,-1.5 5.39,-1.89 C5.49,-2.27 5.55,-2.68 5.55,-3.1 C5.55,-3.1 5.55,-4 5.55,-4z M4.37,-3.1 C4.37,-2.83 4.34,-2.56 4.3,-2.3 C4.26,-2.04 4.18,-1.8 4.07,-1.59 C3.96,-1.38 3.82,-1.21 3.65,-1.08 C3.47,-0.95 3.25,-0.89 2.98,-0.89 C2.71,-0.89 2.5,-0.95 2.32,-1.08 C2.15,-1.21 2.01,-1.38 1.91,-1.59 C1.8,-1.8 1.73,-2.04 1.69,-2.3 C1.65,-2.56 1.62,-2.83 1.62,-3.1 C1.62,-3.1 1.62,-4.01 1.62,-4.01 C1.62,-4.28 1.65,-4.55 1.69,-4.81 C1.73,-5.07 1.8,-5.3 1.9,-5.51 C2,-5.72 2.14,-5.89 2.32,-6.02 C2.49,-6.15 2.71,-6.21 2.97,-6.21 C3.24,-6.21 3.46,-6.15 3.64,-6.02 C3.82,-5.89 3.96,-5.72 4.07,-5.52 C4.17,-5.31 4.25,-5.07 4.3,-4.81 C4.34,-4.55 4.37,-4.28 4.37,-4.01 C4.37,-4.01 4.37,-3.1 4.37,-3.1z M8.52,-7.11 C8.52,-7.11 7.24,-7.11 7.24,-7.11 C7.24,-7.11 9.43,0 9.43,0 C9.43,0 10.55,0 10.55,0 C10.55,0 12.75,-7.11 12.75,-7.11 C12.75,-7.11 11.47,-7.11 11.47,-7.11 C11.47,-7.11 9.99,-1.78 9.99,-1.78 C9.99,-1.78 8.52,-7.11 8.52,-7.11z M18.89,-4.14 C18.89,-4.14 15.97,-4.14 15.97,-4.14 C15.97,-4.14 15.97,-6.14 15.97,-6.14 C15.97,-6.14 19.36,-6.14 19.36,-6.14 C19.36,-6.14 19.36,-7.11 19.36,-7.11 C19.36,-7.11 14.79,-7.11 14.79,-7.11 C14.79,-7.11 14.79,0 14.79,0 C14.79,0 19.39,0 19.39,0 C19.39,0 19.39,-0.96 19.39,-0.96 C19.39,-0.96 15.97,-0.96 15.97,-0.96 C15.97,-0.96 15.97,-3.19 15.97,-3.19 C15.97,-3.19 18.89,-3.19 18.89,-3.19 C18.89,-3.19 18.89,-4.14 18.89,-4.14z M25.47,0 C25.47,0 26.72,0 26.72,0 C26.72,0 26.72,-0.06 26.72,-0.06 C26.72,-0.06 25.21,-3.05 25.21,-3.05 C25.4,-3.13 25.58,-3.23 25.74,-3.35 C25.9,-3.47 26.04,-3.61 26.15,-3.77 C26.26,-3.93 26.35,-4.11 26.42,-4.31 C26.48,-4.51 26.51,-4.72 26.51,-4.97 C26.51,-5.32 26.45,-5.64 26.33,-5.9 C26.2,-6.17 26.03,-6.39 25.8,-6.57 C25.58,-6.75 25.31,-6.88 25,-6.97 C24.7,-7.06 24.36,-7.11 24,-7.11 C24,-7.11 21.75,-7.11 21.75,-7.11 C21.75,-7.11 21.75,0 21.75,0 C21.75,0 22.92,0 22.92,0 C22.92,0 22.92,-2.77 22.92,-2.77 C22.92,-2.77 24.11,-2.77 24.11,-2.77 C24.11,-2.77 25.47,0 25.47,0z M22.92,-6.16 C22.92,-6.16 24,-6.16 24,-6.16 C24.2,-6.16 24.39,-6.13 24.55,-6.08 C24.72,-6.02 24.86,-5.94 24.98,-5.84 C25.09,-5.74 25.18,-5.61 25.24,-5.45 C25.3,-5.3 25.33,-5.13 25.33,-4.93 C25.33,-4.73 25.3,-4.56 25.24,-4.42 C25.17,-4.27 25.08,-4.14 24.96,-4.04 C24.84,-3.94 24.7,-3.86 24.54,-3.8 C24.38,-3.75 24.2,-3.72 24,-3.72 C24,-3.72 22.92,-3.72 22.92,-3.72 C22.92,-3.72 22.92,-6.16 22.92,-6.16z M29.52,-7.11 C29.52,-7.11 28.24,-7.11 28.24,-7.11 C28.24,-7.11 30.44,0 30.44,0 C30.44,0 31.55,0 31.55,0 C31.55,0 33.75,-7.11 33.75,-7.11 C33.75,-7.11 32.47,-7.11 32.47,-7.11 C32.47,-7.11 30.99,-1.78 30.99,-1.78 C30.99,-1.78 29.52,-7.11 29.52,-7.11z M35.89,-6.14 C35.89,-6.14 37.39,-6.14 37.39,-6.14 C37.39,-6.14 37.39,-0.97 37.39,-0.97 C37.39,-0.97 35.89,-0.97 35.89,-0.97 C35.89,-0.97 35.89,0 35.89,0 C35.89,0 40.12,0 40.12,0 C40.12,0 40.12,-0.97 40.12,-0.97 C40.12,-0.97 38.58,-0.97 38.58,-0.97 C38.58,-0.97 38.58,-6.14 38.58,-6.14 C38.58,-6.14 40.12,-6.14 40.12,-6.14 C40.12,-6.14 40.12,-7.11 40.12,-7.11 C40.12,-7.11 35.89,-7.11 35.89,-7.11 C35.89,-7.11 35.89,-6.14 35.89,-6.14z M46.9,-4.14 C46.9,-4.14 43.97,-4.14 43.97,-4.14 C43.97,-4.14 43.97,-6.14 43.97,-6.14 C43.97,-6.14 47.36,-6.14 47.36,-6.14 C47.36,-6.14 47.36,-7.11 47.36,-7.11 C47.36,-7.11 42.8,-7.11 42.8,-7.11 C42.8,-7.11 42.8,0 42.8,0 C42.8,0 47.4,0 47.4,0 C47.4,0 47.4,-0.96 47.4,-0.96 C47.4,-0.96 43.97,-0.96 43.97,-0.96 C43.97,-0.96 43.97,-3.19 43.97,-3.19 C43.97,-3.19 46.9,-3.19 46.9,-3.19 C46.9,-3.19 46.9,-4.14 46.9,-4.14z M52.49,-7.11 C52.49,-7.11 51.57,-7.11 51.57,-7.11 C51.57,-7.11 50.84,-2.47 50.84,-2.47 C50.84,-2.47 50.34,-7.11 50.34,-7.11 C50.34,-7.11 49.24,-7.11 49.24,-7.11 C49.24,-7.11 50.15,0 50.15,0 C50.15,0 51.27,0 51.27,0 C51.27,0 52.03,-4.73 52.03,-4.73 C52.03,-4.73 52.81,0 52.81,0 C52.81,0 53.93,0 53.93,0 C53.93,0 54.84,-7.11 54.84,-7.11 C54.84,-7.11 53.75,-7.11 53.75,-7.11 C53.75,-7.11 53.24,-2.45 53.24,-2.45 C53.24,-2.45 52.49,-7.11 52.49,-7.11z" style="display: inherit;"></path></g><g clip-path="url(#__lottie_element_270)" transform="matrix(1,0,0,1,0,0)" opacity="0.9999988444541837" style="display: block;"><g transform="matrix(1,0,0,1,292.5,207.5)" opacity="1" style="display: block;"><g opacity="1" transform="matrix(1,0,0,1,0,0)"><path fill="rgb(250,250,250)" fill-opacity="1" d=" M-220.5,-129 C-220.5,-129 -21.5,-129 -21.5,-129 C-12.9399995803833,-129 -6,-122.05999755859375 -6,-113.5 C-6,-113.5 -6,-23.5 -6,-23.5 C-6,-14.9399995803833 -12.9399995803833,-8 -21.5,-8 C-21.5,-8 -220.5,-8 -220.5,-8 C-229.05999755859375,-8 -236,-14.9399995803833 -236,-23.5 C-236,-23.5 -236,-113.5 -236,-113.5 C-236,-122.05999755859375 -229.05999755859375,-129 -220.5,-129z"></path><path stroke-linecap="butt" stroke-linejoin="miter" fill-opacity="0" stroke-miterlimit="4" stroke="rgb(207,217,240)" stroke-opacity="1" stroke-width="1" d=" M-220.5,-129 C-220.5,-129 -21.5,-129 -21.5,-129 C-12.9399995803833,-129 -6,-122.05999755859375 -6,-113.5 C-6,-113.5 -6,-23.5 -6,-23.5 C-6,-14.9399995803833 -12.9399995803833,-8 -21.5,-8 C-21.5,-8 -220.5,-8 -220.5,-8 C-229.05999755859375,-8 -236,-14.9399995803833 -236,-23.5 C-236,-23.5 -236,-113.5 -236,-113.5 C-236,-122.05999755859375 -229.05999755859375,-129 -220.5,-129z"></path></g><g opacity="1" transform="matrix(1,0,0,1,0,0)"><path fill="rgb(250,250,250)" fill-opacity="1" d=" M21.5,-129 C21.5,-129 220.5,-129 220.5,-129 C229.05999755859375,-129 236,-122.05999755859375 236,-113.5 C236,-113.5 236,-23.5 236,-23.5 C236,-14.9399995803833 229.05999755859375,-8 220.5,-8 C220.5,-8 21.5,-8 21.5,-8 C12.9399995803833,-8 6,-14.9399995803833 6,-23.5 C6,-23.5 6,-113.5 6,-113.5 C6,-122.05999755859375 12.9399995803833,-129 21.5,-129z"></path><path stroke-linecap="butt" stroke-linejoin="miter" fill-opacity="0" stroke-miterlimit="4" stroke="rgb(207,217,240)" stroke-opacity="1" stroke-width="1" d=" M21.5,-129 C21.5,-129 220.5,-129 220.5,-129 C229.05999755859375,-129 236,-122.05999755859375 236,-113.5 C236,-113.5 236,-23.5 236,-23.5 C236,-14.9399995803833 229.05999755859375,-8 220.5,-8 C220.5,-8 21.5,-8 21.5,-8 C12.9399995803833,-8 6,-14.9399995803833 6,-23.5 C6,-23.5 6,-113.5 6,-113.5 C6,-122.05999755859375 12.9399995803833,-129 21.5,-129z"></path></g></g><g fill="rgb(78,78,78)" font-size="14" font-family="Public Sans" font-style="normal" font-weight="500" aria-label="Contracts Deployed" transform="matrix(1,0,0,1,318,111.07499694824219)" opacity="0.9999989332247115" style="display: block;"><path stroke-linecap="butt" stroke-linejoin="round" stroke-miterlimit="4" d=" M6.76,-0.14 C7.23,-0.32 7.62,-0.57 7.93,-0.9 C8.25,-1.22 8.5,-1.58 8.67,-1.99 C8.85,-2.4 8.97,-2.83 9.02,-3.27 C9.02,-3.27 7.43,-3.27 7.43,-3.27 C7.36,-2.89 7.22,-2.53 7.02,-2.21 C6.83,-1.88 6.56,-1.63 6.24,-1.43 C5.91,-1.24 5.52,-1.14 5.08,-1.14 C4.21,-1.14 3.54,-1.46 3.08,-2.09 C2.62,-2.72 2.39,-3.72 2.39,-5.09 C2.39,-5.99 2.49,-6.73 2.7,-7.31 C2.91,-7.88 3.21,-8.3 3.61,-8.58 C4.01,-8.85 4.5,-8.98 5.08,-8.98 C5.52,-8.98 5.91,-8.89 6.24,-8.71 C6.56,-8.53 6.83,-8.29 7.02,-7.98 C7.22,-7.67 7.36,-7.32 7.43,-6.94 C7.43,-6.94 9.02,-6.94 9.02,-6.94 C8.96,-7.55 8.75,-8.11 8.41,-8.61 C8.07,-9.11 7.61,-9.52 7.05,-9.81 C6.48,-10.11 5.84,-10.26 5.11,-10.26 C4.19,-10.26 3.4,-10.06 2.75,-9.65 C2.1,-9.25 1.6,-8.66 1.25,-7.89 C0.91,-7.12 0.74,-6.2 0.74,-5.11 C0.74,-4.02 0.91,-3.08 1.26,-2.3 C1.6,-1.52 2.1,-0.92 2.76,-0.49 C3.41,-0.07 4.2,0.14 5.11,0.14 C5.74,0.14 6.3,0.05 6.76,-0.14z M15.71,-0.33 C16.21,-0.65 16.59,-1.09 16.84,-1.65 C17.1,-2.21 17.23,-2.85 17.23,-3.58 C17.23,-4.39 17.09,-5.07 16.81,-5.64 C16.54,-6.21 16.15,-6.64 15.65,-6.93 C15.15,-7.23 14.56,-7.38 13.88,-7.38 C13.17,-7.38 12.56,-7.22 12.06,-6.91 C11.56,-6.59 11.17,-6.15 10.91,-5.58 C10.64,-5.01 10.51,-4.34 10.51,-3.58 C10.51,-2.8 10.65,-2.12 10.93,-1.57 C11.21,-1.01 11.6,-0.59 12.1,-0.3 C12.61,-0.01 13.2,0.14 13.87,0.14 C14.6,0.14 15.21,-0.02 15.71,-0.33z M12.79,-1.37 C12.51,-1.61 12.31,-1.93 12.18,-2.32 C12.05,-2.72 11.99,-3.15 11.99,-3.63 C11.99,-4.16 12.06,-4.62 12.2,-5.01 C12.34,-5.4 12.55,-5.7 12.83,-5.91 C13.12,-6.12 13.47,-6.23 13.88,-6.23 C14.33,-6.23 14.7,-6.11 14.97,-5.88 C15.24,-5.65 15.44,-5.33 15.56,-4.94 C15.69,-4.54 15.75,-4.11 15.75,-3.63 C15.75,-3.11 15.68,-2.65 15.54,-2.26 C15.4,-1.86 15.19,-1.56 14.92,-1.34 C14.64,-1.12 14.3,-1.02 13.88,-1.02 C13.43,-1.02 13.06,-1.13 12.79,-1.37z M20.5,0 C20.5,0 20.5,-4.78 20.5,-4.78 C20.5,-5.08 20.58,-5.33 20.74,-5.53 C20.9,-5.72 21.12,-5.87 21.38,-5.97 C21.65,-6.07 21.93,-6.12 22.22,-6.12 C22.66,-6.12 23.02,-5.99 23.3,-5.74 C23.58,-5.49 23.72,-5.1 23.72,-4.59 C23.72,-4.59 23.72,0 23.72,0 C23.72,0 25.21,0 25.21,0 C25.21,0 25.21,-4.75 25.21,-4.75 C25.21,-5.35 25.1,-5.84 24.86,-6.22 C24.63,-6.6 24.32,-6.88 23.94,-7.06 C23.55,-7.24 23.13,-7.33 22.68,-7.33 C22.3,-7.33 21.96,-7.28 21.67,-7.17 C21.38,-7.06 21.13,-6.92 20.93,-6.75 C20.74,-6.58 20.58,-6.39 20.46,-6.2 C20.46,-6.2 20.46,-7.24 20.46,-7.24 C20.46,-7.24 19,-7.24 19,-7.24 C19,-7.24 19,0 19,0 C19,0 20.5,0 20.5,0z M30.78,0.01 C30.96,-0.02 31.1,-0.05 31.18,-0.09 C31.18,-0.09 31.18,-1.06 31.18,-1.06 C31.18,-1.06 30.34,-1.06 30.34,-1.06 C30.14,-1.06 29.98,-1.08 29.86,-1.11 C29.74,-1.14 29.66,-1.21 29.61,-1.32 C29.56,-1.43 29.53,-1.6 29.53,-1.84 C29.53,-1.84 29.53,-6.16 29.53,-6.16 C29.53,-6.16 31.15,-6.16 31.15,-6.16 C31.15,-6.16 31.15,-7.25 31.15,-7.25 C31.15,-7.25 29.53,-7.25 29.53,-7.25 C29.53,-7.25 29.53,-9.37 29.53,-9.37 C29.53,-9.37 28.43,-9.37 28.43,-9.37 C28.43,-9.37 28.07,-7.24 28.07,-7.24 C28.07,-7.24 26.84,-7.24 26.84,-7.24 C26.84,-7.24 26.84,-6.16 26.84,-6.16 C26.84,-6.16 28.02,-6.16 28.02,-6.16 C28.02,-6.16 28.02,-1.79 28.02,-1.79 C28.02,-1.4 28.08,-1.07 28.2,-0.79 C28.31,-0.52 28.52,-0.31 28.81,-0.17 C29.11,-0.02 29.52,0.05 30.06,0.05 C30.35,0.05 30.59,0.04 30.78,0.01z M33.83,0 C33.83,0 33.83,-4.35 33.83,-4.35 C33.83,-4.64 33.88,-4.89 33.98,-5.1 C34.08,-5.31 34.23,-5.48 34.42,-5.61 C34.6,-5.74 34.83,-5.83 35.09,-5.89 C35.35,-5.94 35.64,-5.96 35.96,-5.94 C36.03,-5.93 36.11,-5.92 36.21,-5.92 C36.3,-5.91 36.38,-5.89 36.44,-5.86 C36.44,-5.86 36.44,-7.3 36.44,-7.3 C36.39,-7.33 36.32,-7.35 36.23,-7.36 C36.14,-7.37 36.05,-7.38 35.95,-7.38 C35.63,-7.38 35.32,-7.32 35.04,-7.19 C34.75,-7.07 34.49,-6.89 34.28,-6.65 C34.06,-6.41 33.89,-6.11 33.77,-5.75 C33.77,-5.75 33.77,-7.24 33.77,-7.24 C33.77,-7.24 32.33,-7.24 32.33,-7.24 C32.33,-7.24 32.33,0 32.33,0 C32.33,0 33.83,0 33.83,0z M41.48,-0.18 C41.9,-0.39 42.24,-0.77 42.51,-1.33 C42.51,-1.33 42.62,0 42.62,0 C42.62,0 43.9,0 43.9,0 C43.9,0 43.9,-5.06 43.9,-5.06 C43.9,-5.56 43.79,-5.98 43.59,-6.32 C43.38,-6.67 43.06,-6.93 42.64,-7.11 C42.21,-7.29 41.67,-7.38 41.01,-7.38 C40.42,-7.38 39.9,-7.29 39.47,-7.13 C39.03,-6.96 38.68,-6.71 38.43,-6.38 C38.18,-6.05 38.04,-5.65 38.02,-5.17 C38.02,-5.17 39.31,-5.17 39.31,-5.17 C39.41,-5.57 39.6,-5.86 39.91,-6.04 C40.21,-6.22 40.55,-6.31 40.94,-6.31 C41.45,-6.31 41.84,-6.2 42.08,-5.96 C42.33,-5.72 42.45,-5.39 42.45,-4.98 C42.45,-4.98 42.45,-4.45 42.45,-4.45 C42.45,-4.45 41.26,-4.42 41.26,-4.42 C40.01,-4.39 39.11,-4.18 38.54,-3.79 C37.97,-3.39 37.69,-2.79 37.69,-1.99 C37.69,-1.54 37.79,-1.16 38,-0.84 C38.2,-0.52 38.48,-0.28 38.85,-0.11 C39.21,0.06 39.62,0.14 40.09,0.14 C40.6,0.14 41.07,0.03 41.48,-0.18z M39.53,-1.23 C39.26,-1.45 39.13,-1.75 39.13,-2.14 C39.13,-2.48 39.22,-2.75 39.41,-2.95 C39.59,-3.16 39.86,-3.31 40.2,-3.41 C40.55,-3.51 40.98,-3.56 41.47,-3.56 C41.47,-3.56 42.45,-3.58 42.45,-3.58 C42.45,-3.58 42.45,-2.39 42.45,-2.39 C42.45,-2.2 42.39,-2.02 42.28,-1.84 C42.17,-1.66 42.03,-1.5 41.85,-1.36 C41.66,-1.22 41.46,-1.11 41.24,-1.03 C41.01,-0.94 40.79,-0.9 40.56,-0.9 C40.14,-0.9 39.8,-1.01 39.53,-1.23z M50.34,-0.17 C50.76,-0.37 51.1,-0.66 51.36,-1.03 C51.63,-1.4 51.79,-1.82 51.84,-2.31 C51.84,-2.31 50.57,-2.31 50.57,-2.31 C50.53,-2.09 50.44,-1.88 50.31,-1.67 C50.17,-1.47 49.98,-1.3 49.76,-1.17 C49.53,-1.04 49.25,-0.97 48.94,-0.97 C48.29,-0.97 47.8,-1.21 47.46,-1.69 C47.12,-2.16 46.95,-2.8 46.95,-3.61 C46.95,-4.48 47.13,-5.13 47.49,-5.56 C47.86,-5.98 48.33,-6.2 48.92,-6.2 C49.23,-6.2 49.51,-6.13 49.73,-6.01 C49.96,-5.89 50.15,-5.72 50.29,-5.52 C50.43,-5.31 50.52,-5.09 50.55,-4.85 C50.55,-4.85 51.86,-4.85 51.86,-4.85 C51.8,-5.36 51.64,-5.8 51.38,-6.17 C51.11,-6.55 50.77,-6.85 50.35,-7.06 C49.93,-7.27 49.45,-7.38 48.9,-7.38 C48.2,-7.38 47.59,-7.22 47.09,-6.9 C46.58,-6.58 46.2,-6.14 45.93,-5.57 C45.66,-5 45.53,-4.34 45.53,-3.59 C45.53,-2.79 45.67,-2.12 45.96,-1.56 C46.25,-1 46.65,-0.58 47.16,-0.29 C47.67,0 48.25,0.14 48.9,0.14 C49.44,0.14 49.92,0.04 50.34,-0.17z M57.14,0.01 C57.33,-0.02 57.47,-0.05 57.55,-0.09 C57.55,-0.09 57.55,-1.06 57.55,-1.06 C57.55,-1.06 56.71,-1.06 56.71,-1.06 C56.51,-1.06 56.35,-1.08 56.23,-1.11 C56.11,-1.14 56.02,-1.21 55.98,-1.32 C55.93,-1.43 55.9,-1.6 55.9,-1.84 C55.9,-1.84 55.89,-6.16 55.89,-6.16 C55.89,-6.16 57.52,-6.16 57.52,-6.16 C57.52,-6.16 57.52,-7.25 57.52,-7.25 C57.52,-7.25 55.89,-7.25 55.89,-7.25 C55.89,-7.25 55.89,-9.37 55.89,-9.37 C55.89,-9.37 54.8,-9.37 54.8,-9.37 C54.8,-9.37 54.44,-7.24 54.44,-7.24 C54.44,-7.24 53.21,-7.24 53.21,-7.24 C53.21,-7.24 53.21,-6.16 53.21,-6.16 C53.21,-6.16 54.39,-6.16 54.39,-6.16 C54.39,-6.16 54.39,-1.79 54.39,-1.79 C54.39,-1.4 54.45,-1.07 54.56,-0.79 C54.68,-0.52 54.89,-0.31 55.18,-0.17 C55.47,-0.02 55.89,0.05 56.43,0.05 C56.72,0.05 56.96,0.04 57.14,0.01z M62.92,-0.12 C63.35,-0.3 63.68,-0.55 63.91,-0.87 C64.14,-1.2 64.25,-1.59 64.25,-2.04 C64.25,-2.22 64.23,-2.4 64.17,-2.6 C64.12,-2.79 64.03,-2.98 63.9,-3.16 C63.77,-3.35 63.59,-3.51 63.36,-3.66 C63.13,-3.82 62.84,-3.94 62.48,-4.03 C62.48,-4.03 61.11,-4.38 61.11,-4.38 C60.71,-4.46 60.41,-4.58 60.21,-4.71 C60.01,-4.85 59.91,-5.04 59.91,-5.28 C59.91,-5.63 60.04,-5.89 60.32,-6.06 C60.59,-6.23 60.95,-6.31 61.38,-6.31 C61.79,-6.31 62.13,-6.22 62.38,-6.03 C62.63,-5.84 62.79,-5.58 62.83,-5.25 C62.83,-5.25 64.13,-5.25 64.13,-5.25 C64.11,-5.94 63.86,-6.47 63.36,-6.83 C62.86,-7.2 62.21,-7.38 61.39,-7.38 C60.77,-7.38 60.25,-7.28 59.83,-7.09 C59.4,-6.91 59.09,-6.65 58.87,-6.31 C58.66,-5.98 58.56,-5.6 58.56,-5.18 C58.56,-4.63 58.74,-4.2 59.1,-3.9 C59.46,-3.59 59.94,-3.37 60.54,-3.23 C60.54,-3.23 61.98,-2.88 61.98,-2.88 C62.3,-2.81 62.55,-2.7 62.7,-2.56 C62.85,-2.41 62.93,-2.21 62.93,-1.96 C62.93,-1.61 62.79,-1.36 62.5,-1.19 C62.22,-1.03 61.85,-0.95 61.39,-0.95 C61.11,-0.95 60.86,-0.99 60.62,-1.07 C60.38,-1.16 60.17,-1.29 60,-1.47 C59.83,-1.65 59.71,-1.88 59.65,-2.16 C59.65,-2.16 58.32,-2.16 58.32,-2.16 C58.39,-1.62 58.58,-1.19 58.87,-0.85 C59.17,-0.51 59.54,-0.26 59.98,-0.1 C60.42,0.06 60.89,0.14 61.4,0.14 C61.99,0.14 62.5,0.05 62.92,-0.12z M72.06,0 C73.28,0 74.28,-0.2 75.08,-0.59 C75.87,-0.99 76.47,-1.56 76.85,-2.33 C77.24,-3.09 77.43,-4.02 77.43,-5.12 C77.43,-6.17 77.25,-7.07 76.89,-7.8 C76.53,-8.54 75.96,-9.1 75.19,-9.49 C74.41,-9.88 73.41,-10.09 72.17,-10.11 C71.96,-10.11 71.71,-10.12 71.44,-10.12 C71.17,-10.12 70.9,-10.12 70.64,-10.12 C70.38,-10.12 70.15,-10.12 69.97,-10.12 C69.78,-10.12 69.67,-10.12 69.64,-10.12 C69.64,-10.12 69.64,0 69.64,0 C69.64,0 72.06,0 72.06,0z M71.16,-8.86 C71.16,-8.86 72.11,-8.86 72.11,-8.86 C72.9,-8.86 73.57,-8.74 74.13,-8.5 C74.68,-8.26 75.11,-7.87 75.41,-7.32 C75.71,-6.77 75.86,-6.03 75.86,-5.11 C75.86,-4.17 75.7,-3.41 75.39,-2.85 C75.08,-2.29 74.64,-1.88 74.07,-1.63 C73.5,-1.38 72.84,-1.26 72.07,-1.26 C72.07,-1.26 71.16,-1.26 71.16,-1.26 C71.16,-1.26 71.16,-8.86 71.16,-8.86z M83.83,-0.12 C84.26,-0.3 84.64,-0.56 84.95,-0.9 C85.26,-1.25 85.46,-1.67 85.55,-2.16 C85.55,-2.16 84.16,-2.16 84.16,-2.16 C84.06,-1.78 83.86,-1.48 83.54,-1.29 C83.23,-1.09 82.85,-0.99 82.42,-0.99 C81.99,-0.99 81.63,-1.09 81.34,-1.29 C81.06,-1.49 80.84,-1.76 80.7,-2.1 C80.55,-2.45 80.48,-2.84 80.49,-3.27 C80.49,-3.27 85.58,-3.27 85.58,-3.27 C85.58,-3.27 85.58,-3.77 85.58,-3.77 C85.58,-4.5 85.46,-5.13 85.21,-5.67 C84.96,-6.21 84.6,-6.63 84.12,-6.93 C83.64,-7.23 83.05,-7.38 82.36,-7.38 C81.65,-7.38 81.04,-7.21 80.54,-6.89 C80.03,-6.56 79.65,-6.11 79.38,-5.53 C79.11,-4.96 78.98,-4.29 78.98,-3.54 C78.98,-2.78 79.13,-2.13 79.42,-1.58 C79.71,-1.02 80.12,-0.6 80.64,-0.3 C81.16,-0.01 81.77,0.14 82.45,0.14 C82.93,0.14 83.39,0.05 83.83,-0.12z M80.69,-5.21 C80.83,-5.52 81.04,-5.78 81.31,-5.98 C81.59,-6.18 81.93,-6.28 82.35,-6.28 C82.75,-6.28 83.09,-6.19 83.36,-6.01 C83.63,-5.83 83.83,-5.58 83.96,-5.27 C84.09,-4.96 84.15,-4.62 84.15,-4.24 C84.15,-4.24 80.49,-4.24 80.49,-4.24 C80.49,-4.57 80.55,-4.9 80.69,-5.21z M88.94,2.25 C88.94,2.25 88.94,-1.25 88.94,-1.25 C89.02,-1.09 89.13,-0.93 89.25,-0.77 C89.38,-0.61 89.54,-0.46 89.72,-0.32 C89.9,-0.18 90.11,-0.07 90.35,0.01 C90.59,0.1 90.86,0.14 91.15,0.14 C91.77,0.14 92.31,-0.01 92.76,-0.3 C93.22,-0.59 93.57,-1.02 93.81,-1.59 C94.06,-2.16 94.18,-2.86 94.18,-3.7 C94.18,-4.54 94.06,-5.23 93.81,-5.77 C93.57,-6.32 93.22,-6.72 92.79,-6.98 C92.35,-7.25 91.85,-7.38 91.28,-7.38 C90.98,-7.38 90.7,-7.34 90.45,-7.26 C90.2,-7.18 89.98,-7.07 89.79,-6.94 C89.59,-6.81 89.43,-6.66 89.29,-6.51 C89.15,-6.35 89.03,-6.19 88.94,-6.03 C88.94,-6.03 88.93,-7.24 88.93,-7.24 C88.93,-7.24 87.43,-7.24 87.43,-7.24 C87.43,-7.24 87.43,2.25 87.43,2.25 C87.43,2.25 88.94,2.25 88.94,2.25z M89.78,-1.37 C89.5,-1.61 89.28,-1.93 89.14,-2.33 C89,-2.74 88.93,-3.19 88.93,-3.68 C88.93,-4.43 89.09,-5.04 89.41,-5.52 C89.73,-6 90.21,-6.24 90.84,-6.24 C91.45,-6.24 91.92,-6.01 92.25,-5.55 C92.58,-5.09 92.74,-4.46 92.74,-3.68 C92.74,-2.76 92.56,-2.08 92.21,-1.65 C91.85,-1.22 91.39,-1 90.84,-1 C90.42,-1 90.07,-1.12 89.78,-1.37z M98.26,0.06 C98.38,0.04 98.5,0.01 98.62,-0.03 C98.62,-0.03 98.62,-0.98 98.62,-0.98 C98.62,-0.98 98.24,-0.99 98.24,-0.99 C97.96,-1.02 97.76,-1.12 97.63,-1.3 C97.49,-1.47 97.43,-1.73 97.43,-2.07 C97.43,-2.07 97.43,-10.4 97.43,-10.4 C97.43,-10.4 95.95,-10.4 95.95,-10.4 C95.95,-10.4 95.95,-1.91 95.95,-1.91 C95.95,-1.65 95.97,-1.41 96.02,-1.17 C96.06,-0.93 96.15,-0.71 96.28,-0.52 C96.42,-0.33 96.62,-0.18 96.88,-0.07 C97.14,0.04 97.48,0.1 97.91,0.1 C98.02,0.1 98.13,0.09 98.26,0.06z M105.02,-0.33 C105.52,-0.65 105.9,-1.09 106.16,-1.65 C106.41,-2.21 106.54,-2.85 106.54,-3.58 C106.54,-4.39 106.4,-5.07 106.13,-5.64 C105.85,-6.21 105.46,-6.64 104.97,-6.93 C104.47,-7.23 103.88,-7.38 103.19,-7.38 C102.48,-7.38 101.87,-7.22 101.37,-6.91 C100.87,-6.59 100.49,-6.15 100.22,-5.58 C99.95,-5.01 99.82,-4.34 99.82,-3.58 C99.82,-2.8 99.96,-2.12 100.24,-1.57 C100.52,-1.01 100.91,-0.59 101.42,-0.3 C101.92,-0.01 102.51,0.14 103.19,0.14 C103.92,0.14 104.53,-0.02 105.02,-0.33z M102.1,-1.37 C101.82,-1.61 101.62,-1.93 101.49,-2.32 C101.37,-2.72 101.3,-3.15 101.3,-3.63 C101.3,-4.16 101.37,-4.62 101.51,-5.01 C101.65,-5.4 101.87,-5.7 102.15,-5.91 C102.43,-6.12 102.78,-6.23 103.19,-6.23 C103.65,-6.23 104.01,-6.11 104.28,-5.88 C104.56,-5.65 104.75,-5.33 104.88,-4.94 C105,-4.54 105.06,-4.11 105.06,-3.63 C105.06,-3.11 104.99,-2.65 104.85,-2.26 C104.71,-1.86 104.51,-1.56 104.23,-1.34 C103.95,-1.12 103.61,-1.02 103.19,-1.02 C102.74,-1.02 102.38,-1.13 102.1,-1.37z M110.1,2.15 C110.4,2.04 110.67,1.85 110.91,1.58 C111.16,1.3 111.38,0.91 111.59,0.41 C111.59,0.41 114.6,-7.24 114.6,-7.24 C114.6,-7.24 113.14,-7.24 113.14,-7.24 C113.14,-7.24 111.12,-1.89 111.12,-1.89 C111.12,-1.89 109.09,-7.24 109.09,-7.24 C109.09,-7.24 107.59,-7.24 107.59,-7.24 C107.59,-7.24 110.41,-0.21 110.41,-0.21 C110.41,-0.21 110.19,0.4 110.19,0.4 C110.16,0.48 110.12,0.56 110.06,0.66 C110.01,0.75 109.93,0.84 109.83,0.92 C109.72,1 109.58,1.07 109.4,1.11 C109.21,1.16 108.98,1.18 108.7,1.16 C108.7,1.16 107.97,1.15 107.97,1.15 C107.97,1.15 107.97,2.11 107.97,2.11 C108.31,2.24 108.7,2.31 109.14,2.31 C109.49,2.31 109.81,2.26 110.1,2.15z M120.74,-0.12 C121.17,-0.3 121.55,-0.56 121.86,-0.9 C122.18,-1.25 122.37,-1.67 122.46,-2.16 C122.46,-2.16 121.07,-2.16 121.07,-2.16 C120.97,-1.78 120.77,-1.48 120.45,-1.29 C120.14,-1.09 119.76,-0.99 119.33,-0.99 C118.9,-0.99 118.54,-1.09 118.25,-1.29 C117.97,-1.49 117.75,-1.76 117.61,-2.1 C117.46,-2.45 117.39,-2.84 117.4,-3.27 C117.4,-3.27 122.49,-3.27 122.49,-3.27 C122.49,-3.27 122.49,-3.77 122.49,-3.77 C122.49,-4.5 122.37,-5.13 122.12,-5.67 C121.87,-6.21 121.51,-6.63 121.03,-6.93 C120.55,-7.23 119.96,-7.38 119.27,-7.38 C118.56,-7.38 117.95,-7.21 117.45,-6.89 C116.94,-6.56 116.56,-6.11 116.29,-5.53 C116.02,-4.96 115.89,-4.29 115.89,-3.54 C115.89,-2.78 116.04,-2.13 116.33,-1.58 C116.62,-1.02 117.03,-0.6 117.55,-0.3 C118.07,-0.01 118.68,0.14 119.36,0.14 C119.84,0.14 120.3,0.05 120.74,-0.12z M117.6,-5.21 C117.74,-5.52 117.95,-5.78 118.22,-5.98 C118.5,-6.18 118.84,-6.28 119.26,-6.28 C119.66,-6.28 120,-6.19 120.27,-6.01 C120.54,-5.83 120.74,-5.58 120.87,-5.27 C121,-4.96 121.06,-4.62 121.06,-4.24 C121.06,-4.24 117.4,-4.24 117.4,-4.24 C117.4,-4.57 117.47,-4.9 117.6,-5.21z M128.04,-0.02 C128.33,-0.13 128.56,-0.27 128.75,-0.43 C128.93,-0.6 129.08,-0.78 129.18,-0.97 C129.29,-1.15 129.36,-1.33 129.42,-1.48 C129.42,-1.48 129.58,0 129.58,0 C129.58,0 130.71,0 130.71,0 C130.71,0 130.71,-10.4 130.71,-10.4 C130.71,-10.4 129.2,-10.4 129.2,-10.4 C129.2,-10.4 129.2,-6.14 129.2,-6.14 C129.13,-6.27 129.04,-6.4 128.9,-6.55 C128.77,-6.69 128.61,-6.83 128.42,-6.95 C128.23,-7.08 128.01,-7.18 127.75,-7.26 C127.49,-7.34 127.2,-7.38 126.88,-7.38 C126.23,-7.38 125.69,-7.22 125.26,-6.92 C124.82,-6.61 124.5,-6.18 124.27,-5.62 C124.05,-5.06 123.94,-4.41 123.94,-3.65 C123.94,-2.43 124.22,-1.49 124.76,-0.84 C125.31,-0.19 126.06,0.14 127.01,0.14 C127.41,0.14 127.76,0.09 128.04,-0.02z M125.91,-1.69 C125.59,-2.15 125.43,-2.83 125.43,-3.7 C125.43,-4.59 125.61,-5.24 125.96,-5.64 C126.31,-6.04 126.77,-6.24 127.32,-6.24 C127.77,-6.24 128.12,-6.14 128.4,-5.95 C128.67,-5.75 128.87,-5.47 129,-5.09 C129.13,-4.71 129.19,-4.25 129.2,-3.7 C129.2,-2.74 129.05,-2.04 128.75,-1.62 C128.45,-1.2 127.97,-0.99 127.29,-0.99 C126.69,-0.99 126.23,-1.22 125.91,-1.69z" style="display: inherit;"></path></g><g fill="rgb(78,78,78)" font-size="14" font-family="Public Sans" font-style="normal" font-weight="500" aria-label="Unique Wallets" transform="matrix(1,0,0,1,76,111.07499694824219)" opacity="0.9999989332247115" style="display: block;"><path stroke-linecap="butt" stroke-linejoin="round" stroke-miterlimit="4" d=" M7.26,-0.3 C7.81,-0.6 8.22,-1.02 8.48,-1.58 C8.75,-2.14 8.88,-2.81 8.88,-3.6 C8.88,-3.6 8.88,-10.12 8.88,-10.12 C8.88,-10.12 7.36,-10.12 7.36,-10.12 C7.36,-10.12 7.36,-3.53 7.36,-3.53 C7.36,-2.99 7.27,-2.55 7.08,-2.19 C6.9,-1.84 6.64,-1.58 6.3,-1.41 C5.95,-1.24 5.55,-1.16 5.08,-1.16 C4.37,-1.16 3.81,-1.35 3.42,-1.74 C3.03,-2.13 2.83,-2.73 2.83,-3.53 C2.83,-3.53 2.83,-10.12 2.83,-10.12 C2.83,-10.12 1.28,-10.12 1.28,-10.12 C1.28,-10.12 1.28,-3.72 1.28,-3.72 C1.28,-2.89 1.41,-2.19 1.66,-1.62 C1.92,-1.04 2.32,-0.61 2.88,-0.31 C3.44,-0.01 4.17,0.14 5.08,0.14 C5.97,0.14 6.7,-0.01 7.26,-0.3z M12.55,0 C12.55,0 12.55,-4.78 12.55,-4.78 C12.55,-5.08 12.63,-5.33 12.8,-5.53 C12.96,-5.72 13.17,-5.87 13.44,-5.97 C13.71,-6.07 13.99,-6.12 14.28,-6.12 C14.72,-6.12 15.08,-5.99 15.35,-5.74 C15.63,-5.49 15.77,-5.1 15.77,-4.59 C15.77,-4.59 15.77,0 15.77,0 C15.77,0 17.27,0 17.27,0 C17.27,0 17.27,-4.75 17.27,-4.75 C17.27,-5.35 17.15,-5.84 16.92,-6.22 C16.69,-6.6 16.38,-6.88 15.99,-7.06 C15.61,-7.24 15.19,-7.33 14.74,-7.33 C14.35,-7.33 14.02,-7.28 13.72,-7.17 C13.43,-7.06 13.19,-6.92 12.99,-6.75 C12.79,-6.58 12.63,-6.39 12.52,-6.2 C12.52,-6.2 12.52,-7.24 12.52,-7.24 C12.52,-7.24 11.05,-7.24 11.05,-7.24 C11.05,-7.24 11.05,0 11.05,0 C11.05,0 12.55,0 12.55,0z M20.81,0 C20.81,0 20.81,-7.24 20.81,-7.24 C20.81,-7.24 19.37,-7.24 19.37,-7.24 C19.37,-7.24 19.37,0 19.37,0 C19.37,0 20.81,0 20.81,0z M20.84,-8.64 C20.84,-8.64 20.84,-10.12 20.84,-10.12 C20.84,-10.12 19.33,-10.12 19.33,-10.12 C19.33,-10.12 19.33,-8.64 19.33,-8.64 C19.33,-8.64 20.84,-8.64 20.84,-8.64z M29.43,2.25 C29.43,2.25 29.43,-7.24 29.43,-7.24 C29.43,-7.24 27.94,-7.24 27.94,-7.24 C27.94,-7.24 27.92,-6.03 27.92,-6.03 C27.83,-6.19 27.72,-6.35 27.58,-6.51 C27.45,-6.66 27.28,-6.81 27.08,-6.94 C26.89,-7.07 26.67,-7.18 26.42,-7.26 C26.17,-7.34 25.89,-7.38 25.58,-7.38 C24.97,-7.38 24.45,-7.24 24.02,-6.95 C23.58,-6.67 23.25,-6.25 23.03,-5.7 C22.8,-5.15 22.69,-4.49 22.69,-3.7 C22.69,-2.81 22.82,-2.08 23.09,-1.51 C23.35,-0.94 23.71,-0.53 24.17,-0.26 C24.63,0.01 25.14,0.14 25.71,0.14 C26.01,0.14 26.28,0.1 26.52,0.01 C26.75,-0.07 26.96,-0.18 27.15,-0.32 C27.33,-0.46 27.48,-0.61 27.61,-0.77 C27.74,-0.93 27.85,-1.09 27.93,-1.25 C27.93,-1.25 27.93,2.25 27.93,2.25 C27.93,2.25 29.43,2.25 29.43,2.25z M24.62,-1.7 C24.29,-2.17 24.12,-2.83 24.12,-3.68 C24.12,-4.53 24.3,-5.18 24.66,-5.6 C25.02,-6.02 25.48,-6.24 26.03,-6.24 C26.67,-6.24 27.14,-6 27.46,-5.52 C27.78,-5.04 27.94,-4.43 27.94,-3.68 C27.94,-3.19 27.87,-2.74 27.73,-2.33 C27.59,-1.93 27.37,-1.61 27.09,-1.37 C26.81,-1.12 26.45,-1 26.03,-1 C25.42,-1 24.95,-1.24 24.62,-1.7z M35.21,0 C35.5,-0.1 35.76,-0.27 35.98,-0.49 C36.19,-0.72 36.34,-1.02 36.43,-1.4 C36.43,-1.4 36.6,0 36.6,0 C36.6,0 37.76,0 37.76,0 C37.76,0 37.76,-7.24 37.76,-7.24 C37.76,-7.24 36.27,-7.24 36.27,-7.24 C36.27,-7.24 36.27,-2.53 36.27,-2.53 C36.27,-2.03 36.12,-1.65 35.82,-1.39 C35.52,-1.13 35.12,-1 34.63,-1 C34.08,-1 33.67,-1.14 33.4,-1.41 C33.13,-1.68 33,-2.03 33,-2.46 C33,-2.46 33,-7.24 33,-7.24 C33,-7.24 31.49,-7.24 31.49,-7.24 C31.49,-7.24 31.49,-2.3 31.49,-2.3 C31.49,-1.9 31.57,-1.55 31.72,-1.25 C31.87,-0.94 32.08,-0.69 32.34,-0.48 C32.6,-0.28 32.89,-0.12 33.22,-0.02 C33.55,0.08 33.9,0.14 34.27,0.14 C34.6,0.14 34.91,0.1 35.21,0z M44.44,-0.12 C44.87,-0.3 45.25,-0.56 45.56,-0.9 C45.88,-1.25 46.07,-1.67 46.16,-2.16 C46.16,-2.16 44.77,-2.16 44.77,-2.16 C44.67,-1.78 44.47,-1.48 44.15,-1.29 C43.84,-1.09 43.46,-0.99 43.03,-0.99 C42.6,-0.99 42.24,-1.09 41.95,-1.29 C41.67,-1.49 41.45,-1.76 41.31,-2.1 C41.16,-2.45 41.09,-2.84 41.1,-3.27 C41.1,-3.27 46.19,-3.27 46.19,-3.27 C46.19,-3.27 46.19,-3.77 46.19,-3.77 C46.19,-4.5 46.07,-5.13 45.82,-5.67 C45.57,-6.21 45.21,-6.63 44.73,-6.93 C44.25,-7.23 43.66,-7.38 42.97,-7.38 C42.26,-7.38 41.65,-7.21 41.15,-6.89 C40.64,-6.56 40.26,-6.11 39.99,-5.53 C39.72,-4.96 39.59,-4.29 39.59,-3.54 C39.59,-2.78 39.74,-2.13 40.03,-1.58 C40.32,-1.02 40.73,-0.6 41.25,-0.3 C41.77,-0.01 42.38,0.14 43.06,0.14 C43.54,0.14 44,0.05 44.44,-0.12z M41.3,-5.21 C41.44,-5.52 41.65,-5.78 41.92,-5.98 C42.2,-6.18 42.54,-6.28 42.96,-6.28 C43.36,-6.28 43.7,-6.19 43.97,-6.01 C44.24,-5.83 44.44,-5.58 44.57,-5.27 C44.7,-4.96 44.76,-4.62 44.76,-4.24 C44.76,-4.24 41.1,-4.24 41.1,-4.24 C41.1,-4.57 41.17,-4.9 41.3,-5.21z M54.94,0 C54.94,0 57.11,-7.51 57.11,-7.51 C57.11,-7.51 59.24,0 59.24,0 C59.24,0 60.56,0 60.56,0 C60.56,0 63.52,-10.12 63.52,-10.12 C63.52,-10.12 62.03,-10.12 62.03,-10.12 C62.03,-10.12 59.86,-2.44 59.86,-2.44 C59.86,-2.44 57.69,-10.12 57.69,-10.12 C57.69,-10.12 56.54,-10.12 56.54,-10.12 C56.54,-10.12 54.37,-2.44 54.37,-2.44 C54.37,-2.44 52.23,-10.12 52.23,-10.12 C52.23,-10.12 50.73,-10.12 50.73,-10.12 C50.73,-10.12 53.66,0 53.66,0 C53.66,0 54.94,0 54.94,0z M68.62,-0.18 C69.04,-0.39 69.38,-0.77 69.65,-1.33 C69.65,-1.33 69.76,0 69.76,0 C69.76,0 71.04,0 71.04,0 C71.04,0 71.04,-5.06 71.04,-5.06 C71.04,-5.56 70.93,-5.98 70.72,-6.32 C70.52,-6.67 70.2,-6.93 69.78,-7.11 C69.35,-7.29 68.81,-7.38 68.15,-7.38 C67.56,-7.38 67.04,-7.29 66.61,-7.13 C66.17,-6.96 65.82,-6.71 65.57,-6.38 C65.32,-6.05 65.18,-5.65 65.16,-5.17 C65.16,-5.17 66.45,-5.17 66.45,-5.17 C66.54,-5.57 66.74,-5.86 67.05,-6.04 C67.35,-6.22 67.69,-6.31 68.08,-6.31 C68.59,-6.31 68.98,-6.2 69.22,-5.96 C69.47,-5.72 69.59,-5.39 69.59,-4.98 C69.59,-4.98 69.59,-4.45 69.59,-4.45 C69.59,-4.45 68.4,-4.42 68.4,-4.42 C67.15,-4.39 66.24,-4.18 65.68,-3.79 C65.11,-3.39 64.83,-2.79 64.83,-1.99 C64.83,-1.54 64.93,-1.16 65.14,-0.84 C65.34,-0.52 65.62,-0.28 65.99,-0.11 C66.35,0.06 66.76,0.14 67.23,0.14 C67.74,0.14 68.21,0.03 68.62,-0.18z M66.67,-1.23 C66.4,-1.45 66.27,-1.75 66.27,-2.14 C66.27,-2.48 66.36,-2.75 66.55,-2.95 C66.73,-3.16 67,-3.31 67.34,-3.41 C67.69,-3.51 68.11,-3.56 68.61,-3.56 C68.61,-3.56 69.59,-3.58 69.59,-3.58 C69.59,-3.58 69.59,-2.39 69.59,-2.39 C69.59,-2.2 69.53,-2.02 69.42,-1.84 C69.31,-1.66 69.17,-1.5 68.99,-1.36 C68.8,-1.22 68.6,-1.11 68.38,-1.03 C68.15,-0.94 67.93,-0.9 67.7,-0.9 C67.28,-0.9 66.94,-1.01 66.67,-1.23z M75.37,0.06 C75.5,0.04 75.62,0.01 75.73,-0.03 C75.73,-0.03 75.73,-0.98 75.73,-0.98 C75.73,-0.98 75.36,-0.99 75.36,-0.99 C75.08,-1.02 74.88,-1.12 74.74,-1.3 C74.61,-1.47 74.54,-1.73 74.54,-2.07 C74.54,-2.07 74.54,-10.4 74.54,-10.4 C74.54,-10.4 73.07,-10.4 73.07,-10.4 C73.07,-10.4 73.07,-1.91 73.07,-1.91 C73.07,-1.65 73.09,-1.41 73.13,-1.17 C73.18,-0.93 73.27,-0.71 73.4,-0.52 C73.54,-0.33 73.73,-0.18 73.99,-0.07 C74.25,0.04 74.6,0.1 75.03,0.1 C75.13,0.1 75.25,0.09 75.37,0.06z M79.64,0.06 C79.77,0.04 79.89,0.01 80,-0.03 C80,-0.03 80,-0.98 80,-0.98 C80,-0.98 79.62,-0.99 79.62,-0.99 C79.35,-1.02 79.15,-1.12 79.01,-1.3 C78.88,-1.47 78.81,-1.73 78.81,-2.07 C78.81,-2.07 78.81,-10.4 78.81,-10.4 C78.81,-10.4 77.34,-10.4 77.34,-10.4 C77.34,-10.4 77.34,-1.91 77.34,-1.91 C77.34,-1.65 77.36,-1.41 77.4,-1.17 C77.45,-0.93 77.54,-0.71 77.67,-0.52 C77.81,-0.33 78,-0.18 78.26,-0.07 C78.52,0.04 78.87,0.1 79.3,0.1 C79.4,0.1 79.52,0.09 79.64,0.06z M86.11,-0.12 C86.55,-0.3 86.93,-0.56 87.24,-0.9 C87.55,-1.25 87.75,-1.67 87.84,-2.16 C87.84,-2.16 86.45,-2.16 86.45,-2.16 C86.35,-1.78 86.15,-1.48 85.83,-1.29 C85.52,-1.09 85.14,-0.99 84.71,-0.99 C84.28,-0.99 83.92,-1.09 83.63,-1.29 C83.35,-1.49 83.13,-1.76 82.99,-2.1 C82.84,-2.45 82.77,-2.84 82.78,-3.27 C82.78,-3.27 87.87,-3.27 87.87,-3.27 C87.87,-3.27 87.87,-3.77 87.87,-3.77 C87.87,-4.5 87.75,-5.13 87.5,-5.67 C87.25,-6.21 86.89,-6.63 86.41,-6.93 C85.93,-7.23 85.34,-7.38 84.64,-7.38 C83.93,-7.38 83.33,-7.21 82.82,-6.89 C82.32,-6.56 81.94,-6.11 81.67,-5.53 C81.4,-4.96 81.27,-4.29 81.27,-3.54 C81.27,-2.78 81.42,-2.13 81.71,-1.58 C82,-1.02 82.41,-0.6 82.93,-0.3 C83.45,-0.01 84.06,0.14 84.74,0.14 C85.22,0.14 85.68,0.05 86.11,-0.12z M82.98,-5.21 C83.12,-5.52 83.33,-5.78 83.6,-5.98 C83.88,-6.18 84.22,-6.28 84.64,-6.28 C85.04,-6.28 85.38,-6.19 85.65,-6.01 C85.92,-5.83 86.12,-5.58 86.25,-5.27 C86.38,-4.96 86.44,-4.62 86.44,-4.24 C86.44,-4.24 82.78,-4.24 82.78,-4.24 C82.78,-4.57 82.84,-4.9 82.98,-5.21z M93.22,0.01 C93.4,-0.02 93.54,-0.05 93.63,-0.09 C93.63,-0.09 93.63,-1.06 93.63,-1.06 C93.63,-1.06 92.79,-1.06 92.79,-1.06 C92.58,-1.06 92.42,-1.08 92.3,-1.11 C92.18,-1.14 92.1,-1.21 92.05,-1.32 C92,-1.43 91.97,-1.6 91.97,-1.84 C91.97,-1.84 91.97,-6.16 91.97,-6.16 C91.97,-6.16 93.59,-6.16 93.59,-6.16 C93.59,-6.16 93.59,-7.25 93.59,-7.25 C93.59,-7.25 91.97,-7.25 91.97,-7.25 C91.97,-7.25 91.97,-9.37 91.97,-9.37 C91.97,-9.37 90.87,-9.37 90.87,-9.37 C90.87,-9.37 90.51,-7.24 90.51,-7.24 C90.51,-7.24 89.29,-7.24 89.29,-7.24 C89.29,-7.24 89.29,-6.16 89.29,-6.16 C89.29,-6.16 90.46,-6.16 90.46,-6.16 C90.46,-6.16 90.46,-1.79 90.46,-1.79 C90.46,-1.4 90.52,-1.07 90.64,-0.79 C90.75,-0.52 90.96,-0.31 91.25,-0.17 C91.55,-0.02 91.96,0.05 92.5,0.05 C92.79,0.05 93.03,0.04 93.22,0.01z M98.99,-0.12 C99.42,-0.3 99.75,-0.55 99.98,-0.87 C100.21,-1.2 100.32,-1.59 100.32,-2.04 C100.32,-2.22 100.3,-2.4 100.24,-2.6 C100.19,-2.79 100.1,-2.98 99.97,-3.16 C99.84,-3.35 99.66,-3.51 99.43,-3.66 C99.2,-3.82 98.91,-3.94 98.55,-4.03 C98.55,-4.03 97.18,-4.38 97.18,-4.38 C96.78,-4.46 96.48,-4.58 96.28,-4.71 C96.08,-4.85 95.98,-5.04 95.98,-5.28 C95.98,-5.63 96.11,-5.89 96.39,-6.06 C96.67,-6.23 97.02,-6.31 97.45,-6.31 C97.86,-6.31 98.2,-6.22 98.45,-6.03 C98.71,-5.84 98.86,-5.58 98.9,-5.25 C98.9,-5.25 100.2,-5.25 100.2,-5.25 C100.18,-5.94 99.93,-6.47 99.43,-6.83 C98.93,-7.2 98.28,-7.38 97.46,-7.38 C96.84,-7.38 96.32,-7.28 95.9,-7.09 C95.47,-6.91 95.16,-6.65 94.94,-6.31 C94.73,-5.98 94.63,-5.6 94.63,-5.18 C94.63,-4.63 94.81,-4.2 95.17,-3.9 C95.53,-3.59 96.01,-3.37 96.61,-3.23 C96.61,-3.23 98.05,-2.88 98.05,-2.88 C98.38,-2.81 98.62,-2.7 98.77,-2.56 C98.92,-2.41 99,-2.21 99,-1.96 C99,-1.61 98.86,-1.36 98.57,-1.19 C98.29,-1.03 97.92,-0.95 97.46,-0.95 C97.19,-0.95 96.93,-0.99 96.69,-1.07 C96.45,-1.16 96.24,-1.29 96.07,-1.47 C95.9,-1.65 95.79,-1.88 95.73,-2.16 C95.73,-2.16 94.39,-2.16 94.39,-2.16 C94.46,-1.62 94.65,-1.19 94.94,-0.85 C95.24,-0.51 95.61,-0.26 96.05,-0.1 C96.49,0.06 96.96,0.14 97.47,0.14 C98.06,0.14 98.57,0.05 98.99,-0.12z" style="display: inherit;"></path></g><g style="display: block;" transform="matrix(1,0,0,1,292.5,207.5)" opacity="0.9999984005528354"><g opacity="1" transform="matrix(1,0,0,1,0,0)"><path fill="rgb(231,238,255)" fill-opacity="1" d=" M-213.50100708007812,-33.5 C-213.50100708007812,-33.5 -127.4990005493164,-33.5 -127.4990005493164,-33.5 C-125.84300231933594,-33.5 -124.5,-32.15700149536133 -124.5,-30.500999450683594 C-124.5,-30.500999450683594 -124.5,-30.500999450683594 -124.5,-30.500999450683594 C-124.5,-28.844999313354492 -125.84300231933594,-27.50200080871582 -127.4990005493164,-27.50200080871582 C-127.4990005493164,-27.50200080871582 -213.50100708007812,-27.50200080871582 -213.50100708007812,-27.50200080871582 C-215.15699768066406,-27.50200080871582 -216.5,-28.844999313354492 -216.5,-30.500999450683594 C-216.5,-30.500999450683594 -216.5,-30.500999450683594 -216.5,-30.500999450683594 C-216.5,-32.15700149536133 -215.15699768066406,-33.5 -213.50100708007812,-33.5z"></path></g><g opacity="1" transform="matrix(1,0,0,1,0,0)"><path fill="rgb(231,238,255)" fill-opacity="1" d=" M28.499000549316406,-33.5 C28.499000549316406,-33.5 114.5009994506836,-33.5 114.5009994506836,-33.5 C116.15699768066406,-33.5 117.5,-32.15700149536133 117.5,-30.500999450683594 C117.5,-30.500999450683594 117.5,-30.500999450683594 117.5,-30.500999450683594 C117.5,-28.844999313354492 116.15699768066406,-27.50200080871582 114.5009994506836,-27.50200080871582 C114.5009994506836,-27.50200080871582 28.499000549316406,-27.50200080871582 28.499000549316406,-27.50200080871582 C26.843000411987305,-27.50200080871582 25.5,-28.844999313354492 25.5,-30.500999450683594 C25.5,-30.500999450683594 25.5,-30.500999450683594 25.5,-30.500999450683594 C25.5,-32.15700149536133 26.843000411987305,-33.5 28.499000549316406,-33.5z"></path></g></g><g style="display: block;" fill="rgb(2,2,2)" font-size="32" font-family="Neue Montreal" font-style="normal" font-weight="400" aria-label="680" transform="matrix(1,0,0,1,318,159.5)" opacity="0.9999984005528354"><path stroke-linecap="butt" stroke-linejoin="round" stroke-miterlimit="4" d=" M4.32,-11.21 C4.32,-11.21 4.32,-11.28 4.32,-11.28 C4.38,-15.76 5.25,-20.14 9.86,-20.14 C12.38,-20.14 13.73,-18.79 14.02,-16.63 C14.02,-16.63 16.92,-16.63 16.92,-16.63 C16.6,-19.88 14.02,-22.72 9.86,-22.72 C4.32,-22.72 1.42,-18.56 1.42,-11.15 C1.42,-4.06 3.67,0.45 9.76,0.45 C14.6,0.45 17.5,-3.06 17.5,-7.19 C17.5,-11.6 14.53,-14.53 10.28,-14.53 C7.67,-14.53 5.41,-13.31 4.32,-11.21z M9.76,-2.13 C6.54,-2.13 4.64,-4.06 4.64,-6.93 C4.64,-9.93 6.8,-11.96 10.02,-11.96 C12.66,-11.96 14.6,-10.18 14.6,-6.99 C14.6,-4.03 12.83,-2.13 9.76,-2.13z M20.01,-6.25 C20.01,-1.77 23.58,0.45 28.35,0.45 C33.12,0.45 36.7,-1.77 36.7,-6.25 C36.7,-9.35 34.67,-10.86 32.58,-11.79 C32.58,-11.79 32.58,-11.86 32.58,-11.86 C34.12,-12.7 35.57,-14.12 35.57,-16.63 C35.57,-20.46 32.61,-22.72 28.35,-22.72 C24.1,-22.72 21.14,-20.46 21.14,-16.63 C21.14,-14.12 22.55,-12.7 24.13,-11.86 C24.13,-11.86 24.13,-11.79 24.13,-11.79 C22.01,-10.86 20.01,-9.35 20.01,-6.25z M28.35,-13.12 C25.78,-13.12 24.04,-14.15 24.04,-16.63 C24.04,-19.05 25.78,-20.14 28.35,-20.14 C30.93,-20.14 32.67,-19.05 32.67,-16.63 C32.67,-14.15 30.93,-13.12 28.35,-13.12z M28.35,-2.13 C25.03,-2.13 22.91,-3.58 22.91,-6.35 C22.91,-9.06 25.03,-10.54 28.35,-10.54 C31.67,-10.54 33.8,-9.06 33.8,-6.35 C33.8,-3.58 31.67,-2.13 28.35,-2.13z M47.94,0.45 C54.03,0.45 56.51,-4.8 56.51,-11.12 C56.51,-17.43 54.03,-22.72 47.94,-22.72 C41.85,-22.72 39.37,-17.43 39.37,-11.12 C39.37,-4.8 41.85,0.45 47.94,0.45z M47.94,-2.13 C43.69,-2.13 42.27,-6.38 42.27,-11.12 C42.27,-15.86 43.69,-20.14 47.94,-20.14 C52.2,-20.14 53.61,-15.86 53.61,-11.12 C53.61,-6.38 52.2,-2.13 47.94,-2.13z" style="display: inherit;"></path></g><g style="display: block;" fill="rgb(2,2,2)" font-size="32" font-family="Neue Montreal" font-style="normal" font-weight="400" aria-label="12,657" transform="matrix(1,0,0,1,76,159.5)" opacity="0.9999984005528354"><path stroke-linecap="butt" stroke-linejoin="round" stroke-miterlimit="4" d=" M6.38,-22.27 C6.06,-19.37 5,-17.47 1.1,-17.47 C1.1,-17.47 1.1,-15.37 1.1,-15.37 C3.09,-15.37 4.38,-15.37 5.74,-16.66 C5.74,-16.66 5.74,0 5.74,0 C5.74,0 8.64,0 8.64,0 C8.64,0 8.64,-22.27 8.64,-22.27 C8.64,-22.27 6.38,-22.27 6.38,-22.27z M15.94,-14.47 C15.94,-17.53 17.1,-20.14 21,-20.14 C24.41,-20.14 25.25,-17.89 25.25,-16.02 C25.25,-12.76 23.19,-11.99 19.03,-9.57 C14.94,-7.19 12.39,-4.03 12.39,0 C12.39,0 27.83,0 27.83,0 C27.83,0 27.83,-2.58 27.83,-2.58 C27.83,-2.58 15.9,-2.58 15.9,-2.58 C15.9,-2.58 15.9,-2.64 15.9,-2.64 C17.29,-7.96 28.15,-8.41 28.15,-16.05 C28.15,-20.3 24.86,-22.72 21.06,-22.72 C15.55,-22.72 13.04,-19.08 13.04,-14.47 C13.04,-14.47 15.94,-14.47 15.94,-14.47z M32.86,0.19 C32.86,1.39 32.24,2.26 31.24,2.48 C31.24,2.48 31.24,4.09 31.24,4.09 C33.76,3.64 34.47,0.9 34.47,-0.81 C34.47,-2.32 33.85,-3.32 32.66,-3.32 C31.7,-3.32 30.92,-2.67 30.92,-1.45 C30.92,-0.03 31.86,0.52 32.86,0.19z M40.48,-11.21 C40.48,-11.21 40.48,-11.28 40.48,-11.28 C40.54,-15.76 41.41,-20.14 46.02,-20.14 C48.54,-20.14 49.89,-18.79 50.18,-16.63 C50.18,-16.63 53.08,-16.63 53.08,-16.63 C52.76,-19.88 50.18,-22.72 46.02,-22.72 C40.48,-22.72 37.58,-18.56 37.58,-11.15 C37.58,-4.06 39.83,0.45 45.92,0.45 C50.76,0.45 53.66,-3.06 53.66,-7.19 C53.66,-11.6 50.69,-14.53 46.44,-14.53 C43.83,-14.53 41.57,-13.31 40.48,-11.21z M45.92,-2.13 C42.7,-2.13 40.8,-4.06 40.8,-6.93 C40.8,-9.93 42.96,-11.96 46.18,-11.96 C48.82,-11.96 50.76,-10.18 50.76,-6.99 C50.76,-4.03 48.99,-2.13 45.92,-2.13z M64.77,-14.95 C62.29,-14.95 60.61,-14.18 59.49,-12.89 C59.49,-12.89 59.49,-12.96 59.49,-12.96 C59.49,-12.96 60.81,-19.69 60.81,-19.69 C60.81,-19.69 70.7,-19.69 70.7,-19.69 C70.7,-19.69 70.7,-22.27 70.7,-22.27 C70.7,-22.27 58.46,-22.27 58.46,-22.27 C58.46,-22.27 56.14,-10.28 56.14,-10.28 C56.14,-10.28 59.23,-10.28 59.23,-10.28 C60.36,-11.73 62.1,-12.38 64.1,-12.38 C66.96,-12.38 68.99,-10.96 68.99,-7.61 C68.99,-4.03 66.83,-2.13 63.77,-2.13 C60.29,-2.13 59,-4.25 58.75,-6.41 C58.75,-6.41 55.85,-6.41 55.85,-6.41 C55.97,-2.84 58.81,0.45 63.9,0.45 C68.38,0.45 71.89,-2.8 71.89,-7.61 C71.89,-11.73 68.96,-14.95 64.77,-14.95z M73.86,-22.27 C73.86,-22.27 73.86,-19.69 73.86,-19.69 C73.86,-19.69 86.08,-19.69 86.08,-19.69 C86.08,-19.69 86.08,-19.63 86.08,-19.63 C82.11,-16.08 77.08,-7.44 77.08,0 C77.08,0 80.15,0 80.15,0 C80.15,-7.19 84.24,-15.76 89.3,-20.01 C89.3,-20.01 89.3,-22.27 89.3,-22.27 C89.3,-22.27 73.86,-22.27 73.86,-22.27z" style="display: inherit;"></path></g></g><g clip-path="url(#__lottie_element_1037)" style="display: block;" transform="matrix(1,0,0,1,0,0)" opacity="1"><g style="display: block;" transform="matrix(1,0,0,1,292.5,207.5)" opacity="1"><g opacity="1" transform="matrix(1,0,0,1,0,0)"><path fill="rgb(250,250,250)" fill-opacity="1" d=" M6,21.5 C6,12.9399995803833 12.9399995803833,6 21.5,6 C21.5,6 220.5,6 220.5,6 C229.05999755859375,6 236,12.9399995803833 236,21.5 C236,21.5 236,191 236,191 C236,191 6,191 6,191 C6,191 6,21.5 6,21.5z"></path><path stroke-linecap="butt" stroke-linejoin="miter" fill-opacity="0" stroke-miterlimit="4" stroke="rgb(207,217,240)" stroke-opacity="1" stroke-width="1" d=" M6,21.5 C6,12.9399995803833 12.9399995803833,6 21.5,6 C21.5,6 220.5,6 220.5,6 C229.05999755859375,6 236,12.9399995803833 236,21.5 C236,21.5 236,191 236,191 C236,191 6,191 6,191 C6,191 6,21.5 6,21.5z"></path></g><g opacity="1" transform="matrix(1,0,0,1,0,0)"><path stroke-linecap="butt" stroke-linejoin="miter" fill-opacity="0" stroke-miterlimit="4" stroke="rgb(236,240,249)" stroke-opacity="1" stroke-width="1" d=" M6.5,165 C6.5,165 235.5,165 235.5,165"></path></g><g opacity="1" transform="matrix(1,0,0,1,0,0)"><path stroke-linecap="butt" stroke-linejoin="miter" fill-opacity="0" stroke-miterlimit="4" stroke="rgb(236,240,249)" stroke-opacity="1" stroke-width="1" d=" M6.5,145 C6.5,145 235.5,145 235.5,145"></path></g><g opacity="1" transform="matrix(1,0,0,1,0,0)"><path stroke-linecap="butt" stroke-linejoin="miter" fill-opacity="0" stroke-miterlimit="4" stroke="rgb(236,240,249)" stroke-opacity="1" stroke-width="1" d=" M6.5,125 C6.5,125 235.5,125 235.5,125"></path></g><g opacity="1" transform="matrix(1,0,0,1,0,0)"><path stroke-linecap="butt" stroke-linejoin="miter" fill-opacity="0" stroke-miterlimit="4" stroke="rgb(236,240,249)" stroke-opacity="1" stroke-width="1" d=" M6.5,105 C6.5,105 235.5,105 235.5,105"></path></g><g opacity="1" transform="matrix(1,0,0,1,0,0)"><path stroke-linecap="butt" stroke-linejoin="miter" fill-opacity="0" stroke-miterlimit="4" stroke="rgb(236,240,249)" stroke-opacity="1" stroke-width="1" d=" M6.5,85 C6.5,85 235.5,85 235.5,85"></path></g><g opacity="1" transform="matrix(1,0,0,1,0,0)"><path stroke-linecap="butt" stroke-linejoin="miter" fill-opacity="0" stroke-miterlimit="4" stroke="rgb(236,240,249)" stroke-opacity="1" stroke-width="1" d=" M6.5,65 C6.5,65 235.5,65 235.5,65"></path></g><g opacity="1" transform="matrix(1,0,0,1,0,0)"><path stroke-linecap="butt" stroke-linejoin="miter" fill-opacity="0" stroke-miterlimit="4" stroke="rgb(236,240,249)" stroke-opacity="1" stroke-width="1" d=" M6.5,45 C6.5,45 235.5,45 235.5,45"></path></g><g opacity="1" transform="matrix(1,0,0,1,0,0)"><path fill="rgb(231,238,255)" fill-opacity="1" d=" M28.5,173.5 C28.5,173.5 57.5,173.5 57.5,173.5 C59.15700149536133,173.5 60.5,174.84300231933594 60.5,176.5 C60.5,176.5 60.5,176.5 60.5,176.5 C60.5,178.15699768066406 59.15700149536133,179.5 57.5,179.5 C57.5,179.5 28.5,179.5 28.5,179.5 C26.843000411987305,179.5 25.5,178.15699768066406 25.5,176.5 C25.5,176.5 25.5,176.5 25.5,176.5 C25.5,174.84300231933594 26.843000411987305,173.5 28.5,173.5z"></path></g><g opacity="1" transform="matrix(1,0,0,1,0,0)"><path fill="rgb(231,238,255)" fill-opacity="1" d=" M79.5,173.5 C79.5,173.5 108.5,173.5 108.5,173.5 C110.15699768066406,173.5 111.5,174.84300231933594 111.5,176.5 C111.5,176.5 111.5,176.5 111.5,176.5 C111.5,178.15699768066406 110.15699768066406,179.5 108.5,179.5 C108.5,179.5 79.5,179.5 79.5,179.5 C77.84300231933594,179.5 76.5,178.15699768066406 76.5,176.5 C76.5,176.5 76.5,176.5 76.5,176.5 C76.5,174.84300231933594 77.84300231933594,173.5 79.5,173.5z"></path></g><g opacity="1" transform="matrix(1,0,0,1,0,0)"><path fill="rgb(231,238,255)" fill-opacity="1" d=" M130.5,173.5 C130.5,173.5 159.5,173.5 159.5,173.5 C161.15699768066406,173.5 162.5,174.84300231933594 162.5,176.5 C162.5,176.5 162.5,176.5 162.5,176.5 C162.5,178.15699768066406 161.15699768066406,179.5 159.5,179.5 C159.5,179.5 130.5,179.5 130.5,179.5 C128.84300231933594,179.5 127.5,178.15699768066406 127.5,176.5 C127.5,176.5 127.5,176.5 127.5,176.5 C127.5,174.84300231933594 128.84300231933594,173.5 130.5,173.5z"></path></g><g opacity="1" transform="matrix(1,0,0,1,0,0)"><path fill="rgb(231,238,255)" fill-opacity="1" d=" M181.5,173.5 C181.5,173.5 210.5,173.5 210.5,173.5 C212.15699768066406,173.5 213.5,174.84300231933594 213.5,176.5 C213.5,176.5 213.5,176.5 213.5,176.5 C213.5,178.15699768066406 212.15699768066406,179.5 210.5,179.5 C210.5,179.5 181.5,179.5 181.5,179.5 C179.84300231933594,179.5 178.5,178.15699768066406 178.5,176.5 C178.5,176.5 178.5,176.5 178.5,176.5 C178.5,174.84300231933594 179.84300231933594,173.5 181.5,173.5z"></path></g></g><g style="display: block;" fill="rgb(78,78,78)" font-size="14" font-family="Public Sans" font-style="normal" font-weight="500" aria-label="Conversion Flow" transform="matrix(1,0,0,1,318,238.0749969482422)" opacity="1"><path stroke-linecap="butt" stroke-linejoin="round" stroke-miterlimit="4" d=" M6.76,-0.14 C7.23,-0.32 7.62,-0.57 7.93,-0.9 C8.25,-1.22 8.5,-1.58 8.67,-1.99 C8.85,-2.4 8.97,-2.83 9.02,-3.27 C9.02,-3.27 7.43,-3.27 7.43,-3.27 C7.36,-2.89 7.22,-2.53 7.02,-2.21 C6.83,-1.88 6.56,-1.63 6.24,-1.43 C5.91,-1.24 5.52,-1.14 5.08,-1.14 C4.21,-1.14 3.54,-1.46 3.08,-2.09 C2.62,-2.72 2.39,-3.72 2.39,-5.09 C2.39,-5.99 2.49,-6.73 2.7,-7.31 C2.91,-7.88 3.21,-8.3 3.61,-8.58 C4.01,-8.85 4.5,-8.98 5.08,-8.98 C5.52,-8.98 5.91,-8.89 6.24,-8.71 C6.56,-8.53 6.83,-8.29 7.02,-7.98 C7.22,-7.67 7.36,-7.32 7.43,-6.94 C7.43,-6.94 9.02,-6.94 9.02,-6.94 C8.96,-7.55 8.75,-8.11 8.41,-8.61 C8.07,-9.11 7.61,-9.52 7.05,-9.81 C6.48,-10.11 5.84,-10.26 5.11,-10.26 C4.19,-10.26 3.4,-10.06 2.75,-9.65 C2.1,-9.25 1.6,-8.66 1.25,-7.89 C0.91,-7.12 0.74,-6.2 0.74,-5.11 C0.74,-4.02 0.91,-3.08 1.26,-2.3 C1.6,-1.52 2.1,-0.92 2.76,-0.49 C3.41,-0.07 4.2,0.14 5.11,0.14 C5.74,0.14 6.3,0.05 6.76,-0.14z M15.71,-0.33 C16.21,-0.65 16.59,-1.09 16.84,-1.65 C17.1,-2.21 17.23,-2.85 17.23,-3.58 C17.23,-4.39 17.09,-5.07 16.81,-5.64 C16.54,-6.21 16.15,-6.64 15.65,-6.93 C15.15,-7.23 14.56,-7.38 13.88,-7.38 C13.17,-7.38 12.56,-7.22 12.06,-6.91 C11.56,-6.59 11.17,-6.15 10.91,-5.58 C10.64,-5.01 10.51,-4.34 10.51,-3.58 C10.51,-2.8 10.65,-2.12 10.93,-1.57 C11.21,-1.01 11.6,-0.59 12.1,-0.3 C12.61,-0.01 13.2,0.14 13.87,0.14 C14.6,0.14 15.21,-0.02 15.71,-0.33z M12.79,-1.37 C12.51,-1.61 12.31,-1.93 12.18,-2.32 C12.05,-2.72 11.99,-3.15 11.99,-3.63 C11.99,-4.16 12.06,-4.62 12.2,-5.01 C12.34,-5.4 12.55,-5.7 12.83,-5.91 C13.12,-6.12 13.47,-6.23 13.88,-6.23 C14.33,-6.23 14.7,-6.11 14.97,-5.88 C15.24,-5.65 15.44,-5.33 15.56,-4.94 C15.69,-4.54 15.75,-4.11 15.75,-3.63 C15.75,-3.11 15.68,-2.65 15.54,-2.26 C15.4,-1.86 15.19,-1.56 14.92,-1.34 C14.64,-1.12 14.3,-1.02 13.88,-1.02 C13.43,-1.02 13.06,-1.13 12.79,-1.37z M20.5,0 C20.5,0 20.5,-4.78 20.5,-4.78 C20.5,-5.08 20.58,-5.33 20.74,-5.53 C20.9,-5.72 21.12,-5.87 21.38,-5.97 C21.65,-6.07 21.93,-6.12 22.22,-6.12 C22.66,-6.12 23.02,-5.99 23.3,-5.74 C23.58,-5.49 23.72,-5.1 23.72,-4.59 C23.72,-4.59 23.72,0 23.72,0 C23.72,0 25.21,0 25.21,0 C25.21,0 25.21,-4.75 25.21,-4.75 C25.21,-5.35 25.1,-5.84 24.86,-6.22 C24.63,-6.6 24.32,-6.88 23.94,-7.06 C23.55,-7.24 23.13,-7.33 22.68,-7.33 C22.3,-7.33 21.96,-7.28 21.67,-7.17 C21.38,-7.06 21.13,-6.92 20.93,-6.75 C20.74,-6.58 20.58,-6.39 20.46,-6.2 C20.46,-6.2 20.46,-7.24 20.46,-7.24 C20.46,-7.24 19,-7.24 19,-7.24 C19,-7.24 19,0 19,0 C19,0 20.5,0 20.5,0z M30.46,0 C30.46,0 33.1,-7.24 33.1,-7.24 C33.1,-7.24 31.71,-7.24 31.71,-7.24 C31.71,-7.24 29.88,-1.9 29.88,-1.9 C29.88,-1.9 29.78,-1.9 29.78,-1.9 C29.78,-1.9 27.94,-7.24 27.94,-7.24 C27.94,-7.24 26.56,-7.24 26.56,-7.24 C26.56,-7.24 29.2,0 29.2,0 C29.2,0 30.46,0 30.46,0z M39.24,-0.12 C39.67,-0.3 40.05,-0.56 40.36,-0.9 C40.67,-1.25 40.87,-1.67 40.96,-2.16 C40.96,-2.16 39.57,-2.16 39.57,-2.16 C39.47,-1.78 39.27,-1.48 38.95,-1.29 C38.64,-1.09 38.26,-0.99 37.83,-0.99 C37.4,-0.99 37.04,-1.09 36.75,-1.29 C36.47,-1.49 36.25,-1.76 36.11,-2.1 C35.96,-2.45 35.89,-2.84 35.9,-3.27 C35.9,-3.27 40.99,-3.27 40.99,-3.27 C40.99,-3.27 40.99,-3.77 40.99,-3.77 C40.99,-4.5 40.87,-5.13 40.62,-5.67 C40.37,-6.21 40.01,-6.63 39.53,-6.93 C39.05,-7.23 38.46,-7.38 37.77,-7.38 C37.06,-7.38 36.45,-7.21 35.95,-6.89 C35.44,-6.56 35.06,-6.11 34.79,-5.53 C34.52,-4.96 34.39,-4.29 34.39,-3.54 C34.39,-2.78 34.54,-2.13 34.83,-1.58 C35.12,-1.02 35.53,-0.6 36.05,-0.3 C36.57,-0.01 37.18,0.14 37.86,0.14 C38.34,0.14 38.8,0.05 39.24,-0.12z M36.1,-5.21 C36.24,-5.52 36.45,-5.78 36.72,-5.98 C37,-6.18 37.34,-6.28 37.76,-6.28 C38.16,-6.28 38.5,-6.19 38.77,-6.01 C39.04,-5.83 39.24,-5.58 39.37,-5.27 C39.5,-4.96 39.56,-4.62 39.56,-4.24 C39.56,-4.24 35.9,-4.24 35.9,-4.24 C35.9,-4.57 35.96,-4.9 36.1,-5.21z M44.34,0 C44.34,0 44.34,-4.35 44.34,-4.35 C44.34,-4.64 44.39,-4.89 44.49,-5.1 C44.59,-5.31 44.73,-5.48 44.92,-5.61 C45.11,-5.74 45.34,-5.83 45.6,-5.89 C45.86,-5.94 46.15,-5.96 46.47,-5.94 C46.54,-5.93 46.62,-5.92 46.71,-5.92 C46.81,-5.91 46.89,-5.89 46.95,-5.86 C46.95,-5.86 46.95,-7.3 46.95,-7.3 C46.9,-7.33 46.83,-7.35 46.74,-7.36 C46.65,-7.37 46.56,-7.38 46.46,-7.38 C46.14,-7.38 45.83,-7.32 45.54,-7.19 C45.25,-7.07 45,-6.89 44.78,-6.65 C44.57,-6.41 44.4,-6.11 44.28,-5.75 C44.28,-5.75 44.28,-7.24 44.28,-7.24 C44.28,-7.24 42.84,-7.24 42.84,-7.24 C42.84,-7.24 42.84,0 42.84,0 C42.84,0 44.34,0 44.34,0z M52.75,-0.12 C53.18,-0.3 53.5,-0.55 53.74,-0.87 C53.97,-1.2 54.08,-1.59 54.08,-2.04 C54.08,-2.22 54.06,-2.4 54,-2.6 C53.95,-2.79 53.86,-2.98 53.72,-3.16 C53.59,-3.35 53.41,-3.51 53.19,-3.66 C52.96,-3.82 52.67,-3.94 52.31,-4.03 C52.31,-4.03 50.94,-4.38 50.94,-4.38 C50.54,-4.46 50.24,-4.58 50.04,-4.71 C49.84,-4.85 49.73,-5.04 49.73,-5.28 C49.73,-5.63 49.87,-5.89 50.15,-6.06 C50.42,-6.23 50.78,-6.31 51.2,-6.31 C51.62,-6.31 51.96,-6.22 52.21,-6.03 C52.46,-5.84 52.61,-5.58 52.66,-5.25 C52.66,-5.25 53.96,-5.25 53.96,-5.25 C53.94,-5.94 53.69,-6.47 53.19,-6.83 C52.69,-7.2 52.04,-7.38 51.22,-7.38 C50.6,-7.38 50.08,-7.28 49.65,-7.09 C49.23,-6.91 48.91,-6.65 48.7,-6.31 C48.49,-5.98 48.38,-5.6 48.38,-5.18 C48.39,-4.63 48.57,-4.2 48.93,-3.9 C49.29,-3.59 49.77,-3.37 50.36,-3.23 C50.36,-3.23 51.81,-2.88 51.81,-2.88 C52.13,-2.81 52.37,-2.7 52.53,-2.56 C52.68,-2.41 52.76,-2.21 52.76,-1.96 C52.76,-1.61 52.62,-1.36 52.33,-1.19 C52.05,-1.03 51.68,-0.95 51.22,-0.95 C50.94,-0.95 50.69,-0.99 50.45,-1.07 C50.21,-1.16 50,-1.29 49.83,-1.47 C49.66,-1.65 49.54,-1.88 49.48,-2.16 C49.48,-2.16 48.15,-2.16 48.15,-2.16 C48.22,-1.62 48.41,-1.19 48.7,-0.85 C49,-0.51 49.37,-0.26 49.81,-0.1 C50.25,0.06 50.72,0.14 51.23,0.14 C51.82,0.14 52.33,0.05 52.75,-0.12z M57.28,0 C57.28,0 57.28,-7.24 57.28,-7.24 C57.28,-7.24 55.84,-7.24 55.84,-7.24 C55.84,-7.24 55.84,0 55.84,0 C55.84,0 57.28,0 57.28,0z M57.31,-8.64 C57.31,-8.64 57.31,-10.12 57.31,-10.12 C57.31,-10.12 55.8,-10.12 55.8,-10.12 C55.8,-10.12 55.8,-8.64 55.8,-8.64 C55.8,-8.64 57.31,-8.64 57.31,-8.64z M64.36,-0.33 C64.86,-0.65 65.24,-1.09 65.49,-1.65 C65.75,-2.21 65.88,-2.85 65.88,-3.58 C65.88,-4.39 65.74,-5.07 65.46,-5.64 C65.19,-6.21 64.8,-6.64 64.3,-6.93 C63.8,-7.23 63.21,-7.38 62.53,-7.38 C61.82,-7.38 61.21,-7.22 60.71,-6.91 C60.21,-6.59 59.82,-6.15 59.56,-5.58 C59.29,-5.01 59.16,-4.34 59.16,-3.58 C59.16,-2.8 59.3,-2.12 59.58,-1.57 C59.86,-1.01 60.25,-0.59 60.75,-0.3 C61.26,-0.01 61.85,0.14 62.52,0.14 C63.25,0.14 63.86,-0.02 64.36,-0.33z M61.44,-1.37 C61.16,-1.61 60.96,-1.93 60.83,-2.32 C60.7,-2.72 60.64,-3.15 60.64,-3.63 C60.64,-4.16 60.71,-4.62 60.85,-5.01 C60.99,-5.4 61.2,-5.7 61.48,-5.91 C61.77,-6.12 62.12,-6.23 62.53,-6.23 C62.98,-6.23 63.35,-6.11 63.62,-5.88 C63.89,-5.65 64.09,-5.33 64.21,-4.94 C64.34,-4.54 64.4,-4.11 64.4,-3.63 C64.4,-3.11 64.33,-2.65 64.19,-2.26 C64.05,-1.86 63.84,-1.56 63.57,-1.34 C63.29,-1.12 62.95,-1.02 62.53,-1.02 C62.08,-1.02 61.71,-1.13 61.44,-1.37z M69.15,0 C69.15,0 69.15,-4.78 69.15,-4.78 C69.15,-5.08 69.23,-5.33 69.39,-5.53 C69.55,-5.72 69.77,-5.87 70.04,-5.97 C70.3,-6.07 70.58,-6.12 70.88,-6.12 C71.31,-6.12 71.67,-5.99 71.95,-5.74 C72.23,-5.49 72.37,-5.1 72.37,-4.59 C72.37,-4.59 72.37,0 72.37,0 C72.37,0 73.86,0 73.86,0 C73.86,0 73.86,-4.75 73.86,-4.75 C73.86,-5.35 73.75,-5.84 73.51,-6.22 C73.28,-6.6 72.97,-6.88 72.59,-7.06 C72.2,-7.24 71.78,-7.33 71.33,-7.33 C70.95,-7.33 70.61,-7.28 70.32,-7.17 C70.03,-7.06 69.78,-6.92 69.58,-6.75 C69.39,-6.58 69.23,-6.39 69.11,-6.2 C69.11,-6.2 69.11,-7.24 69.11,-7.24 C69.11,-7.24 67.65,-7.24 67.65,-7.24 C67.65,-7.24 67.65,0 67.65,0 C67.65,0 69.15,0 69.15,0z M81.12,0 C81.12,0 81.12,-4.43 81.12,-4.43 C81.12,-4.43 85.5,-4.43 85.5,-4.43 C85.5,-4.43 85.5,-5.71 85.5,-5.71 C85.5,-5.71 81.12,-5.71 81.12,-5.71 C81.12,-5.71 81.12,-8.83 81.12,-8.83 C81.12,-8.83 86.05,-8.83 86.05,-8.83 C86.05,-8.83 86.06,-10.12 86.06,-10.12 C86.06,-10.12 79.59,-10.12 79.59,-10.12 C79.59,-10.12 79.59,0 79.59,0 C79.59,0 81.12,0 81.12,0z M90.16,0.06 C90.28,0.04 90.4,0.01 90.52,-0.03 C90.52,-0.03 90.52,-0.98 90.52,-0.98 C90.52,-0.98 90.14,-0.99 90.14,-0.99 C89.86,-1.02 89.66,-1.12 89.53,-1.3 C89.39,-1.47 89.33,-1.73 89.33,-2.07 C89.33,-2.07 89.33,-10.4 89.33,-10.4 C89.33,-10.4 87.85,-10.4 87.85,-10.4 C87.85,-10.4 87.85,-1.91 87.85,-1.91 C87.85,-1.65 87.87,-1.41 87.92,-1.17 C87.96,-0.93 88.05,-0.71 88.19,-0.52 C88.32,-0.33 88.52,-0.18 88.78,-0.07 C89.04,0.04 89.38,0.1 89.81,0.1 C89.92,0.1 90.03,0.09 90.16,0.06z M96.93,-0.33 C97.42,-0.65 97.8,-1.09 98.06,-1.65 C98.31,-2.21 98.44,-2.85 98.44,-3.58 C98.44,-4.39 98.3,-5.07 98.03,-5.64 C97.75,-6.21 97.37,-6.64 96.87,-6.93 C96.37,-7.23 95.78,-7.38 95.1,-7.38 C94.38,-7.38 93.77,-7.22 93.27,-6.91 C92.77,-6.59 92.39,-6.15 92.12,-5.58 C91.85,-5.01 91.72,-4.34 91.72,-3.58 C91.72,-2.8 91.86,-2.12 92.14,-1.57 C92.42,-1.01 92.81,-0.59 93.32,-0.3 C93.82,-0.01 94.41,0.14 95.09,0.14 C95.82,0.14 96.43,-0.02 96.93,-0.33z M94,-1.37 C93.72,-1.61 93.52,-1.93 93.39,-2.32 C93.27,-2.72 93.21,-3.15 93.21,-3.63 C93.21,-4.16 93.28,-4.62 93.42,-5.01 C93.56,-5.4 93.77,-5.7 94.05,-5.91 C94.33,-6.12 94.68,-6.23 95.1,-6.23 C95.55,-6.23 95.91,-6.11 96.18,-5.88 C96.46,-5.65 96.65,-5.33 96.78,-4.94 C96.9,-4.54 96.96,-4.11 96.96,-3.63 C96.96,-3.11 96.89,-2.65 96.75,-2.26 C96.61,-1.86 96.41,-1.56 96.13,-1.34 C95.86,-1.12 95.51,-1.02 95.1,-1.02 C94.64,-1.02 94.28,-1.13 94,-1.37z M103.14,0 C103.14,0 104.64,-5.08 104.64,-5.08 C104.64,-5.08 106.21,0 106.21,0 C106.21,0 107.58,0 107.58,0 C107.58,0 109.83,-7.24 109.83,-7.24 C109.83,-7.24 108.44,-7.24 108.44,-7.24 C108.44,-7.24 106.92,-1.98 106.92,-1.98 C106.92,-1.98 106.82,-1.98 106.82,-1.98 C106.82,-1.98 105.22,-7.24 105.22,-7.24 C105.22,-7.24 104.11,-7.24 104.11,-7.24 C104.11,-7.24 102.56,-1.97 102.56,-1.97 C102.56,-1.97 102.47,-1.97 102.47,-1.97 C102.47,-1.97 100.88,-7.24 100.88,-7.24 C100.88,-7.24 99.52,-7.24 99.52,-7.24 C99.52,-7.24 101.79,0 101.79,0 C101.79,0 103.14,0 103.14,0z" style="display: inherit;"></path></g><g style="display: block;" transform="matrix(1,0,0,1,292.5,207.5)" opacity="1"><g opacity="1" transform="matrix(1,0,0,1,0,0)"><g opacity="1" transform="matrix(1,0,0,1,0,0)"><path fill="rgb(250,250,250)" fill-opacity="1" d=" M-236,21.5 C-236,12.9399995803833 -229.05999755859375,6 -220.5,6 C-220.5,6 -21.5,6 -21.5,6 C-12.9399995803833,6 -6,12.9399995803833 -6,21.5 C-6,21.5 -6,191 -6,191 C-6,191 -236,191 -236,191 C-236,191 -236,21.5 -236,21.5z"></path><path stroke-linecap="butt" stroke-linejoin="miter" fill-opacity="0" stroke-miterlimit="4" stroke="rgb(207,217,240)" stroke-opacity="1" stroke-width="1" d=" M-236,21.5 C-236,12.9399995803833 -229.05999755859375,6 -220.5,6 C-220.5,6 -21.5,6 -21.5,6 C-12.9399995803833,6 -6,12.9399995803833 -6,21.5 C-6,21.5 -6,191 -6,191 C-6,191 -236,191 -236,191 C-236,191 -236,21.5 -236,21.5z"></path></g></g><g opacity="1" transform="matrix(1,0,0,1,0,0)"><path fill="rgb(250,250,250)" fill-opacity="1" d=" M-236,21.5 C-236,12.9399995803833 -229.05999755859375,6 -220.5,6 C-220.5,6 -21.5,6 -21.5,6 C-12.9399995803833,6 -6,12.9399995803833 -6,21.5 C-6,21.5 -6,191 -6,191 C-6,191 -236,191 -236,191 C-236,191 -236,21.5 -236,21.5z"></path><path stroke-linecap="butt" stroke-linejoin="miter" fill-opacity="0" stroke-miterlimit="4" stroke="rgb(207,217,240)" stroke-opacity="1" stroke-width="1" d=" M-236,21.5 C-236,12.9399995803833 -229.05999755859375,6 -220.5,6 C-220.5,6 -21.5,6 -21.5,6 C-12.9399995803833,6 -6,12.9399995803833 -6,21.5 C-6,21.5 -6,191 -6,191 C-6,191 -236,191 -236,191 C-236,191 -236,21.5 -236,21.5z"></path></g><g opacity="1" transform="matrix(1,0,0,1,0,0)"><path stroke-linecap="butt" stroke-linejoin="miter" fill-opacity="0" stroke-miterlimit="4" stroke="rgb(236,240,249)" stroke-opacity="1" stroke-width="1" d=" M-235.5,165 C-235.5,165 -6.5,165 -6.5,165"></path></g><g opacity="1" transform="matrix(1,0,0,1,0,0)"><path stroke-linecap="butt" stroke-linejoin="miter" fill-opacity="0" stroke-miterlimit="4" stroke="rgb(236,240,249)" stroke-opacity="1" stroke-width="1" d=" M-235.5,145 C-235.5,145 -6.5,145 -6.5,145"></path></g><g opacity="1" transform="matrix(1,0,0,1,0,0)"><path stroke-linecap="butt" stroke-linejoin="miter" fill-opacity="0" stroke-miterlimit="4" stroke="rgb(236,240,249)" stroke-opacity="1" stroke-width="1" d=" M-235.5,125 C-235.5,125 -6.5,125 -6.5,125"></path></g><g opacity="1" transform="matrix(1,0,0,1,0,0)"><path stroke-linecap="butt" stroke-linejoin="miter" fill-opacity="0" stroke-miterlimit="4" stroke="rgb(236,240,249)" stroke-opacity="1" stroke-width="1" d=" M-235.5,105 C-235.5,105 -6.5,105 -6.5,105"></path></g><g opacity="1" transform="matrix(1,0,0,1,0,0)"><path stroke-linecap="butt" stroke-linejoin="miter" fill-opacity="0" stroke-miterlimit="4" stroke="rgb(236,240,249)" stroke-opacity="1" stroke-width="1" d=" M-235.5,85 C-235.5,85 -6.5,85 -6.5,85"></path></g><g opacity="1" transform="matrix(1,0,0,1,0,0)"><path stroke-linecap="butt" stroke-linejoin="miter" fill-opacity="0" stroke-miterlimit="4" stroke="rgb(236,240,249)" stroke-opacity="1" stroke-width="1" d=" M-235.5,65 C-235.5,65 -6.5,65 -6.5,65"></path></g><g opacity="1" transform="matrix(1,0,0,1,0,0)"><path stroke-linecap="butt" stroke-linejoin="miter" fill-opacity="0" stroke-miterlimit="4" stroke="rgb(236,240,249)" stroke-opacity="1" stroke-width="1" d=" M-235.5,45 C-235.5,45 -6.5,45 -6.5,45"></path></g><g opacity="1" transform="matrix(1,0,0,1,0,0)"><path fill="rgb(231,238,255)" fill-opacity="1" d=" M-211.5,173.5 C-211.5,173.5 -182.5,173.5 -182.5,173.5 C-180.84300231933594,173.5 -179.5,174.84300231933594 -179.5,176.5 C-179.5,176.5 -179.5,176.5 -179.5,176.5 C-179.5,178.15699768066406 -180.84300231933594,179.5 -182.5,179.5 C-182.5,179.5 -211.5,179.5 -211.5,179.5 C-213.15699768066406,179.5 -214.5,178.15699768066406 -214.5,176.5 C-214.5,176.5 -214.5,176.5 -214.5,176.5 C-214.5,174.84300231933594 -213.15699768066406,173.5 -211.5,173.5z"></path></g><g opacity="1" transform="matrix(1,0,0,1,0,0)"><path fill="rgb(231,238,255)" fill-opacity="1" d=" M-160.5,173.5 C-160.5,173.5 -131.5,173.5 -131.5,173.5 C-129.84300231933594,173.5 -128.5,174.84300231933594 -128.5,176.5 C-128.5,176.5 -128.5,176.5 -128.5,176.5 C-128.5,178.15699768066406 -129.84300231933594,179.5 -131.5,179.5 C-131.5,179.5 -160.5,179.5 -160.5,179.5 C-162.15699768066406,179.5 -163.5,178.15699768066406 -163.5,176.5 C-163.5,176.5 -163.5,176.5 -163.5,176.5 C-163.5,174.84300231933594 -162.15699768066406,173.5 -160.5,173.5z"></path></g><g opacity="1" transform="matrix(1,0,0,1,0,0)"><path fill="rgb(231,238,255)" fill-opacity="1" d=" M-109.5,173.5 C-109.5,173.5 -80.5,173.5 -80.5,173.5 C-78.84300231933594,173.5 -77.5,174.84300231933594 -77.5,176.5 C-77.5,176.5 -77.5,176.5 -77.5,176.5 C-77.5,178.15699768066406 -78.84300231933594,179.5 -80.5,179.5 C-80.5,179.5 -109.5,179.5 -109.5,179.5 C-111.15699768066406,179.5 -112.5,178.15699768066406 -112.5,176.5 C-112.5,176.5 -112.5,176.5 -112.5,176.5 C-112.5,174.84300231933594 -111.15699768066406,173.5 -109.5,173.5z"></path></g><g opacity="1" transform="matrix(1,0,0,1,0,0)"><path fill="rgb(231,238,255)" fill-opacity="1" d=" M-58.5,173.5 C-58.5,173.5 -29.5,173.5 -29.5,173.5 C-27.843000411987305,173.5 -26.5,174.84300231933594 -26.5,176.5 C-26.5,176.5 -26.5,176.5 -26.5,176.5 C-26.5,178.15699768066406 -27.843000411987305,179.5 -29.5,179.5 C-29.5,179.5 -58.5,179.5 -58.5,179.5 C-60.15700149536133,179.5 -61.5,178.15699768066406 -61.5,176.5 C-61.5,176.5 -61.5,176.5 -61.5,176.5 C-61.5,174.84300231933594 -60.15700149536133,173.5 -58.5,173.5z"></path></g></g><g style="display: block;" fill="rgb(78,78,78)" font-size="14" font-family="Public Sans" font-style="normal" font-weight="500" aria-label="Active Users" transform="matrix(1,0,0,1,76,238.0749969482422)" opacity="1"><path stroke-linecap="butt" stroke-linejoin="round" stroke-miterlimit="4" d=" M2.04,0 C2.04,0 3,-2.65 3,-2.65 C3,-2.65 7.01,-2.65 7.01,-2.65 C7.01,-2.65 7.97,0 7.97,0 C7.97,0 9.48,0 9.48,0 C9.48,0 5.83,-10.12 5.83,-10.12 C5.83,-10.12 4.18,-10.12 4.18,-10.12 C4.18,-10.12 0.53,0 0.53,0 C0.53,0 2.04,0 2.04,0z M5,-8.67 C5,-8.67 6.62,-4.01 6.62,-4.01 C6.62,-4.01 3.37,-4.01 3.37,-4.01 C3.37,-4.01 5,-8.67 5,-8.67z M15.72,-0.17 C16.14,-0.37 16.48,-0.66 16.75,-1.03 C17.01,-1.4 17.17,-1.82 17.23,-2.31 C17.23,-2.31 15.95,-2.31 15.95,-2.31 C15.92,-2.09 15.83,-1.88 15.69,-1.67 C15.55,-1.47 15.37,-1.3 15.14,-1.17 C14.91,-1.04 14.64,-0.97 14.32,-0.97 C13.68,-0.97 13.19,-1.21 12.84,-1.69 C12.5,-2.16 12.33,-2.8 12.33,-3.61 C12.33,-4.48 12.52,-5.13 12.88,-5.56 C13.24,-5.98 13.72,-6.2 14.3,-6.2 C14.62,-6.2 14.89,-6.13 15.12,-6.01 C15.35,-5.89 15.53,-5.72 15.67,-5.52 C15.81,-5.31 15.9,-5.09 15.94,-4.85 C15.94,-4.85 17.24,-4.85 17.24,-4.85 C17.18,-5.36 17.03,-5.8 16.76,-6.17 C16.5,-6.55 16.16,-6.85 15.74,-7.06 C15.32,-7.27 14.83,-7.38 14.29,-7.38 C13.58,-7.38 12.98,-7.22 12.47,-6.9 C11.97,-6.58 11.58,-6.14 11.32,-5.57 C11.05,-5 10.91,-4.34 10.91,-3.59 C10.91,-2.79 11.06,-2.12 11.35,-1.56 C11.64,-1 12.04,-0.58 12.54,-0.29 C13.05,0 13.63,0.14 14.29,0.14 C14.82,0.14 15.3,0.04 15.72,-0.17z M22.53,0.01 C22.71,-0.02 22.85,-0.05 22.94,-0.09 C22.94,-0.09 22.94,-1.06 22.94,-1.06 C22.94,-1.06 22.1,-1.06 22.1,-1.06 C21.89,-1.06 21.73,-1.08 21.61,-1.11 C21.49,-1.14 21.41,-1.21 21.36,-1.32 C21.31,-1.43 21.29,-1.6 21.29,-1.84 C21.29,-1.84 21.28,-6.16 21.28,-6.16 C21.28,-6.16 22.9,-6.16 22.9,-6.16 C22.9,-6.16 22.9,-7.25 22.9,-7.25 C22.9,-7.25 21.28,-7.25 21.28,-7.25 C21.28,-7.25 21.28,-9.37 21.28,-9.37 C21.28,-9.37 20.19,-9.37 20.19,-9.37 C20.19,-9.37 19.82,-7.24 19.82,-7.24 C19.82,-7.24 18.6,-7.24 18.6,-7.24 C18.6,-7.24 18.6,-6.16 18.6,-6.16 C18.6,-6.16 19.77,-6.16 19.77,-6.16 C19.77,-6.16 19.77,-1.79 19.77,-1.79 C19.77,-1.4 19.83,-1.07 19.95,-0.79 C20.07,-0.52 20.27,-0.31 20.57,-0.17 C20.86,-0.02 21.28,0.05 21.81,0.05 C22.11,0.05 22.35,0.04 22.53,0.01z M25.56,0 C25.56,0 25.56,-7.24 25.56,-7.24 C25.56,-7.24 24.12,-7.24 24.12,-7.24 C24.12,-7.24 24.12,0 24.12,0 C24.12,0 25.56,0 25.56,0z M25.59,-8.64 C25.59,-8.64 25.59,-10.12 25.59,-10.12 C25.59,-10.12 24.09,-10.12 24.09,-10.12 C24.09,-10.12 24.09,-8.64 24.09,-8.64 C24.09,-8.64 25.59,-8.64 25.59,-8.64z M31.02,0 C31.02,0 33.66,-7.24 33.66,-7.24 C33.66,-7.24 32.27,-7.24 32.27,-7.24 C32.27,-7.24 30.44,-1.9 30.44,-1.9 C30.44,-1.9 30.34,-1.9 30.34,-1.9 C30.34,-1.9 28.5,-7.24 28.5,-7.24 C28.5,-7.24 27.12,-7.24 27.12,-7.24 C27.12,-7.24 29.76,0 29.76,0 C29.76,0 31.02,0 31.02,0z M39.79,-0.12 C40.23,-0.3 40.61,-0.56 40.92,-0.9 C41.23,-1.25 41.43,-1.67 41.52,-2.16 C41.52,-2.16 40.13,-2.16 40.13,-2.16 C40.03,-1.78 39.83,-1.48 39.51,-1.29 C39.2,-1.09 38.82,-0.99 38.39,-0.99 C37.96,-0.99 37.6,-1.09 37.31,-1.29 C37.03,-1.49 36.81,-1.76 36.67,-2.1 C36.52,-2.45 36.45,-2.84 36.46,-3.27 C36.46,-3.27 41.55,-3.27 41.55,-3.27 C41.55,-3.27 41.55,-3.77 41.55,-3.77 C41.55,-4.5 41.43,-5.13 41.18,-5.67 C40.93,-6.21 40.57,-6.63 40.09,-6.93 C39.61,-7.23 39.02,-7.38 38.32,-7.38 C37.62,-7.38 37.01,-7.21 36.5,-6.89 C36,-6.56 35.62,-6.11 35.35,-5.53 C35.08,-4.96 34.95,-4.29 34.95,-3.54 C34.95,-2.78 35.1,-2.13 35.39,-1.58 C35.68,-1.02 36.09,-0.6 36.61,-0.3 C37.13,-0.01 37.74,0.14 38.42,0.14 C38.9,0.14 39.36,0.05 39.79,-0.12z M36.66,-5.21 C36.8,-5.52 37.01,-5.78 37.28,-5.98 C37.56,-6.18 37.9,-6.28 38.32,-6.28 C38.72,-6.28 39.06,-6.19 39.33,-6.01 C39.6,-5.83 39.8,-5.58 39.93,-5.27 C40.06,-4.96 40.12,-4.62 40.12,-4.24 C40.12,-4.24 36.46,-4.24 36.46,-4.24 C36.46,-4.57 36.52,-4.9 36.66,-5.21z M53.04,-0.3 C53.59,-0.6 54,-1.02 54.26,-1.58 C54.53,-2.14 54.66,-2.81 54.66,-3.6 C54.66,-3.6 54.66,-10.12 54.66,-10.12 C54.66,-10.12 53.14,-10.12 53.14,-10.12 C53.14,-10.12 53.14,-3.53 53.14,-3.53 C53.14,-2.99 53.05,-2.55 52.86,-2.19 C52.68,-1.84 52.42,-1.58 52.08,-1.41 C51.73,-1.24 51.33,-1.16 50.85,-1.16 C50.15,-1.16 49.59,-1.35 49.2,-1.74 C48.81,-2.13 48.61,-2.73 48.61,-3.53 C48.61,-3.53 48.61,-10.12 48.61,-10.12 C48.61,-10.12 47.06,-10.12 47.06,-10.12 C47.06,-10.12 47.06,-3.72 47.06,-3.72 C47.06,-2.89 47.19,-2.19 47.44,-1.62 C47.7,-1.04 48.1,-0.61 48.66,-0.31 C49.22,-0.01 49.95,0.14 50.85,0.14 C51.75,0.14 52.48,-0.01 53.04,-0.3z M61.05,-0.12 C61.48,-0.3 61.81,-0.55 62.04,-0.87 C62.27,-1.2 62.38,-1.59 62.38,-2.04 C62.38,-2.22 62.36,-2.4 62.3,-2.6 C62.25,-2.79 62.16,-2.98 62.03,-3.16 C61.9,-3.35 61.72,-3.51 61.49,-3.66 C61.26,-3.82 60.97,-3.94 60.61,-4.03 C60.61,-4.03 59.24,-4.38 59.24,-4.38 C58.84,-4.46 58.54,-4.58 58.34,-4.71 C58.14,-4.85 58.04,-5.04 58.04,-5.28 C58.04,-5.63 58.17,-5.89 58.45,-6.06 C58.73,-6.23 59.08,-6.31 59.51,-6.31 C59.92,-6.31 60.26,-6.22 60.51,-6.03 C60.77,-5.84 60.92,-5.58 60.96,-5.25 C60.96,-5.25 62.26,-5.25 62.26,-5.25 C62.24,-5.94 61.99,-6.47 61.49,-6.83 C60.99,-7.2 60.34,-7.38 59.52,-7.38 C58.9,-7.38 58.38,-7.28 57.96,-7.09 C57.53,-6.91 57.22,-6.65 57,-6.31 C56.79,-5.98 56.69,-5.6 56.69,-5.18 C56.69,-4.63 56.87,-4.2 57.23,-3.9 C57.59,-3.59 58.07,-3.37 58.67,-3.23 C58.67,-3.23 60.11,-2.88 60.11,-2.88 C60.44,-2.81 60.68,-2.7 60.83,-2.56 C60.98,-2.41 61.06,-2.21 61.06,-1.96 C61.06,-1.61 60.92,-1.36 60.63,-1.19 C60.35,-1.03 59.98,-0.95 59.52,-0.95 C59.25,-0.95 58.99,-0.99 58.75,-1.07 C58.51,-1.16 58.3,-1.29 58.13,-1.47 C57.96,-1.65 57.85,-1.88 57.79,-2.16 C57.79,-2.16 56.45,-2.16 56.45,-2.16 C56.52,-1.62 56.71,-1.19 57,-0.85 C57.3,-0.51 57.67,-0.26 58.11,-0.1 C58.55,0.06 59.02,0.14 59.53,0.14 C60.12,0.14 60.63,0.05 61.05,-0.12z M68.61,-0.12 C69.05,-0.3 69.43,-0.56 69.74,-0.9 C70.05,-1.25 70.25,-1.67 70.34,-2.16 C70.34,-2.16 68.95,-2.16 68.95,-2.16 C68.85,-1.78 68.65,-1.48 68.33,-1.29 C68.02,-1.09 67.64,-0.99 67.21,-0.99 C66.78,-0.99 66.42,-1.09 66.13,-1.29 C65.85,-1.49 65.63,-1.76 65.48,-2.1 C65.34,-2.45 65.27,-2.84 65.27,-3.27 C65.27,-3.27 70.37,-3.27 70.37,-3.27 C70.37,-3.27 70.37,-3.77 70.37,-3.77 C70.37,-4.5 70.25,-5.13 70,-5.67 C69.75,-6.21 69.39,-6.63 68.91,-6.93 C68.43,-7.23 67.84,-7.38 67.14,-7.38 C66.43,-7.38 65.83,-7.21 65.32,-6.89 C64.82,-6.56 64.43,-6.11 64.17,-5.53 C63.9,-4.96 63.77,-4.29 63.77,-3.54 C63.77,-2.78 63.92,-2.13 64.21,-1.58 C64.5,-1.02 64.91,-0.6 65.43,-0.3 C65.95,-0.01 66.56,0.14 67.24,0.14 C67.72,0.14 68.18,0.05 68.61,-0.12z M65.48,-5.21 C65.62,-5.52 65.83,-5.78 66.1,-5.98 C66.38,-6.18 66.72,-6.28 67.14,-6.28 C67.54,-6.28 67.88,-6.19 68.15,-6.01 C68.42,-5.83 68.62,-5.58 68.75,-5.27 C68.88,-4.96 68.94,-4.62 68.94,-4.24 C68.94,-4.24 65.27,-4.24 65.27,-4.24 C65.27,-4.57 65.34,-4.9 65.48,-5.21z M73.72,0 C73.72,0 73.72,-4.35 73.72,-4.35 C73.72,-4.64 73.77,-4.89 73.87,-5.1 C73.97,-5.31 74.11,-5.48 74.3,-5.61 C74.49,-5.74 74.72,-5.83 74.98,-5.89 C75.24,-5.94 75.53,-5.96 75.85,-5.94 C75.92,-5.93 76,-5.92 76.09,-5.92 C76.19,-5.91 76.27,-5.89 76.33,-5.86 C76.33,-5.86 76.33,-7.3 76.33,-7.3 C76.28,-7.33 76.21,-7.35 76.12,-7.36 C76.03,-7.37 75.94,-7.38 75.84,-7.38 C75.52,-7.38 75.21,-7.32 74.92,-7.19 C74.63,-7.07 74.38,-6.89 74.16,-6.65 C73.94,-6.41 73.78,-6.11 73.65,-5.75 C73.65,-5.75 73.65,-7.24 73.65,-7.24 C73.65,-7.24 72.22,-7.24 72.22,-7.24 C72.22,-7.24 72.22,0 72.22,0 C72.22,0 73.72,0 73.72,0z M82.13,-0.12 C82.56,-0.3 82.88,-0.55 83.11,-0.87 C83.35,-1.2 83.46,-1.59 83.46,-2.04 C83.46,-2.22 83.43,-2.4 83.38,-2.6 C83.33,-2.79 83.23,-2.98 83.1,-3.16 C82.97,-3.35 82.79,-3.51 82.56,-3.66 C82.34,-3.82 82.04,-3.94 81.69,-4.03 C81.69,-4.03 80.32,-4.38 80.32,-4.38 C79.92,-4.46 79.62,-4.58 79.42,-4.71 C79.22,-4.85 79.11,-5.04 79.11,-5.28 C79.11,-5.63 79.25,-5.89 79.53,-6.06 C79.8,-6.23 80.15,-6.31 80.58,-6.31 C81,-6.31 81.33,-6.22 81.59,-6.03 C81.84,-5.84 81.99,-5.58 82.04,-5.25 C82.04,-5.25 83.33,-5.25 83.33,-5.25 C83.32,-5.94 83.07,-6.47 82.57,-6.83 C82.07,-7.2 81.41,-7.38 80.6,-7.38 C79.98,-7.38 79.46,-7.28 79.03,-7.09 C78.61,-6.91 78.29,-6.65 78.08,-6.31 C77.87,-5.98 77.76,-5.6 77.76,-5.18 C77.77,-4.63 77.95,-4.2 78.31,-3.9 C78.67,-3.59 79.15,-3.37 79.74,-3.23 C79.74,-3.23 81.19,-2.88 81.19,-2.88 C81.51,-2.81 81.75,-2.7 81.91,-2.56 C82.06,-2.41 82.14,-2.21 82.14,-1.96 C82.14,-1.61 82,-1.36 81.71,-1.19 C81.43,-1.03 81.06,-0.95 80.6,-0.95 C80.32,-0.95 80.06,-0.99 79.82,-1.07 C79.58,-1.16 79.38,-1.29 79.21,-1.47 C79.04,-1.65 78.92,-1.88 78.86,-2.16 C78.86,-2.16 77.52,-2.16 77.52,-2.16 C77.6,-1.62 77.79,-1.19 78.08,-0.85 C78.38,-0.51 78.75,-0.26 79.19,-0.1 C79.63,0.06 80.1,0.14 80.6,0.14 C81.2,0.14 81.71,0.05 82.13,-0.12z" style="display: inherit;"></path></g><g mask="url(#__lottie_element_1055)" style="display: block;"><g transform="matrix(1,0,0,1,292.5,207.5)" opacity="0.2"><g opacity="1" transform="matrix(1,0,0,1,0,0)"><path fill="rgb(54,190,255)" fill-opacity="1" d=" M-240.5,138.27999877929688 C-236.41000366210938,142.60000610351562 -232.94000244140625,144.3300018310547 -230.0399932861328,144.3300018310547 C-217.88999938964844,144.3300018310547 -216.77000427246094,113.0999984741211 -202.67999267578125,113.0999984741211 C-190.3699951171875,113.0999984741211 -191.16000366210938,135.17999267578125 -181.3699951171875,135.17999267578125 C-165.94000244140625,135.17999267578125 -169.1699981689453,81.2300033569336 -153.02999877929688,81.2300033569336 C-142.86000061035156,81.2300033569336 -143.13999938964844,99.19000244140625 -134.8000030517578,99.19000244140625 C-128.52000427246094,99.19000244140625 -127.37000274658203,82.93000030517578 -119.6500015258789,82.93000030517578 C-109.72000122070312,82.93000030517578 -105.97000122070312,115.33000183105469 -94.9000015258789,115.33000183105469 C-80.30999755859375,115.33000183105469 -76.33999633789062,41.5 -56.790000915527344,41.5 C-43.59000015258789,41.5 -45.47999954223633,76.9800033569336 -30.809999465942383,76.9800033569336 C-19.3700008392334,76.9800033569336 -18.450000762939453,50.150001525878906 -1.9800000190734863,49.279998779296875 C-1.9800000190734863,49.279998779296875 -1.9800000190734863,165.1199951171875 -1.9800000190734863,165.1199951171875 C-1.9800000190734863,165.1199951171875 -240.5,165.1199951171875 -240.5,165.1199951171875 C-240.5,165.1199951171875 -240.5,138.27999877929688 -240.5,138.27999877929688z"></path></g></g></g><g mask="url(#__lottie_element_1061)" style="display: block;"><g transform="matrix(1,0,0,1,292.5,207.5)" opacity="1"><g opacity="1" transform="matrix(1,0,0,1,0,0)"><path stroke-linecap="butt" stroke-linejoin="miter" fill-opacity="0" stroke-miterlimit="4" stroke="rgb(54,190,255)" stroke-opacity="1" stroke-width="1" d=" M-240.5,138.27999877929688 C-236.41000366210938,142.60000610351562 -232.94000244140625,144.3300018310547 -230.0399932861328,144.3300018310547 C-217.88999938964844,144.3300018310547 -216.77000427246094,113.0999984741211 -202.67999267578125,113.0999984741211 C-190.3699951171875,113.0999984741211 -191.16000366210938,135.17999267578125 -181.3699951171875,135.17999267578125 C-165.94000244140625,135.17999267578125 -169.1699981689453,81.2300033569336 -153.02999877929688,81.2300033569336 C-142.86000061035156,81.2300033569336 -143.13999938964844,99.19000244140625 -134.8000030517578,99.19000244140625 C-128.52000427246094,99.19000244140625 -127.37000274658203,82.93000030517578 -119.6500015258789,82.93000030517578 C-109.72000122070312,82.93000030517578 -105.97000122070312,115.33000183105469 -94.9000015258789,115.33000183105469 C-80.30999755859375,115.33000183105469 -76.33999633789062,41.5 -56.790000915527344,41.5 C-43.59000015258789,41.5 -45.47999954223633,76.9800033569336 -30.809999465942383,76.9800033569336 C-19.3700008392334,76.9800033569336 -18.450000762939453,50.150001525878906 -1.9800000190734863,49.279998779296875"></path></g></g></g><g style="display: block;" transform="matrix(1,0,0,1,292.5,207.5)" opacity="0.2"><g opacity="1" transform="matrix(1,0,0,1,0,0)"><path fill="rgb(255,170,143)" fill-opacity="1" d=" M78.5,65.5 C78.5,65.5 110.5,65.5 110.5,65.5 C114.91799926757812,65.5 118.5,69.08200073242188 118.5,73.5 C118.5,73.5 118.5,156.5 118.5,156.5 C118.5,160.91799926757812 114.91799926757812,164.5 110.5,164.5 C110.5,164.5 78.5,164.5 78.5,164.5 C74.08200073242188,164.5 70.5,160.91799926757812 70.5,156.5 C70.5,156.5 70.5,73.5 70.5,73.5 C70.5,69.08200073242188 74.08200073242188,65.5 78.5,65.5z"></path></g><g opacity="1" transform="matrix(1,0,0,1,0,0)"><path fill="rgb(255,170,143)" fill-opacity="1" d=" M27.5,90.5 C27.5,90.5 59.5,90.5 59.5,90.5 C63.917999267578125,90.5 67.5,94.08200073242188 67.5,98.5 C67.5,98.5 67.5,156.5 67.5,156.5 C67.5,160.91799926757812 63.917999267578125,164.5 59.5,164.5 C59.5,164.5 27.5,164.5 27.5,164.5 C23.082000732421875,164.5 19.5,160.91799926757812 19.5,156.5 C19.5,156.5 19.5,98.5 19.5,98.5 C19.5,94.08200073242188 23.082000732421875,90.5 27.5,90.5z"></path></g><g opacity="1" transform="matrix(1,0,0,1,0,0)"><path fill="rgb(255,170,143)" fill-opacity="1" d=" M129.5,56.5 C129.5,56.5 161.5,56.5 161.5,56.5 C165.91799926757812,56.5 169.5,60.082000732421875 169.5,64.5 C169.5,64.5 169.5,156.5 169.5,156.5 C169.5,160.91799926757812 165.91799926757812,164.5 161.5,164.5 C161.5,164.5 129.5,164.5 129.5,164.5 C125.08200073242188,164.5 121.5,160.91799926757812 121.5,156.5 C121.5,156.5 121.5,64.5 121.5,64.5 C121.5,60.082000732421875 125.08200073242188,56.5 129.5,56.5z"></path></g><g opacity="1" transform="matrix(1,0,0,1,0,0)"><path fill="rgb(255,170,143)" fill-opacity="1" d=" M180.5,45.5 C180.5,45.5 212.5,45.5 212.5,45.5 C216.91799926757812,45.5 220.5,49.082000732421875 220.5,53.5 C220.5,53.5 220.5,156.5 220.5,156.5 C220.5,160.91799926757812 216.91799926757812,164.5 212.5,164.5 C212.5,164.5 180.5,164.5 180.5,164.5 C176.08200073242188,164.5 172.5,160.91799926757812 172.5,156.5 C172.5,156.5 172.5,53.5 172.5,53.5 C172.5,49.082000732421875 176.08200073242188,45.5 180.5,45.5z"></path></g></g><g style="display: block;" transform="matrix(1,0,0,0.9999975562095642,292.5,207.50039672851562)" opacity="1"><g opacity="1" transform="matrix(1,0,0,1,0,0)"><path fill="rgb(255,170,143)" fill-opacity="0.2" d=" M27.5,106 C27.5,106 59.5,106 59.5,106 C63.641998291015625,106 67,109.35800170898438 67,113.5 C67,113.5 67,156.5 67,156.5 C67,160.64199829101562 63.641998291015625,164 59.5,164 C59.5,164 27.5,164 27.5,164 C23.357999801635742,164 20,160.64199829101562 20,156.5 C20,156.5 20,113.5 20,113.5 C20,109.35800170898438 23.357999801635742,106 27.5,106z"></path><path stroke-linecap="butt" stroke-linejoin="miter" fill-opacity="0" stroke-miterlimit="4" stroke="rgb(255,170,143)" stroke-opacity="1" stroke-width="1" d=" M27.5,106 C27.5,106 59.5,106 59.5,106 C63.641998291015625,106 67,109.35800170898438 67,113.5 C67,113.5 67,156.5 67,156.5 C67,160.64199829101562 63.641998291015625,164 59.5,164 C59.5,164 27.5,164 27.5,164 C23.357999801635742,164 20,160.64199829101562 20,156.5 C20,156.5 20,113.5 20,113.5 C20,109.35800170898438 23.357999801635742,106 27.5,106z"></path></g><g opacity="1" transform="matrix(1,0,0,1,0,0)"><path fill="rgb(255,170,143)" fill-opacity="0.2" d=" M78.5,130 C78.5,130 110.5,130 110.5,130 C114.64199829101562,130 118,133.35800170898438 118,137.5 C118,137.5 118,156.5 118,156.5 C118,160.64199829101562 114.64199829101562,164 110.5,164 C110.5,164 78.5,164 78.5,164 C74.35800170898438,164 71,160.64199829101562 71,156.5 C71,156.5 71,137.5 71,137.5 C71,133.35800170898438 74.35800170898438,130 78.5,130z"></path><path stroke-linecap="butt" stroke-linejoin="miter" fill-opacity="0" stroke-miterlimit="4" stroke="rgb(255,170,143)" stroke-opacity="1" stroke-width="1" d=" M78.5,130 C78.5,130 110.5,130 110.5,130 C114.64199829101562,130 118,133.35800170898438 118,137.5 C118,137.5 118,156.5 118,156.5 C118,160.64199829101562 114.64199829101562,164 110.5,164 C110.5,164 78.5,164 78.5,164 C74.35800170898438,164 71,160.64199829101562 71,156.5 C71,156.5 71,137.5 71,137.5 C71,133.35800170898438 74.35800170898438,130 78.5,130z"></path></g><g opacity="1" transform="matrix(1,0,0,1,0,0)"><path fill="rgb(255,170,143)" fill-opacity="0.2" d=" M129.5,86 C129.5,86 161.5,86 161.5,86 C165.64199829101562,86 169,89.35800170898438 169,93.5 C169,93.5 169,156.5 169,156.5 C169,160.64199829101562 165.64199829101562,164 161.5,164 C161.5,164 129.5,164 129.5,164 C125.35800170898438,164 122,160.64199829101562 122,156.5 C122,156.5 122,93.5 122,93.5 C122,89.35800170898438 125.35800170898438,86 129.5,86z"></path><path stroke-linecap="butt" stroke-linejoin="miter" fill-opacity="0" stroke-miterlimit="4" stroke="rgb(255,170,143)" stroke-opacity="1" stroke-width="1" d=" M129.5,86 C129.5,86 161.5,86 161.5,86 C165.64199829101562,86 169,89.35800170898438 169,93.5 C169,93.5 169,156.5 169,156.5 C169,160.64199829101562 165.64199829101562,164 161.5,164 C161.5,164 129.5,164 129.5,164 C125.35800170898438,164 122,160.64199829101562 122,156.5 C122,156.5 122,93.5 122,93.5 C122,89.35800170898438 125.35800170898438,86 129.5,86z"></path></g><g opacity="1" transform="matrix(1,0,0,1,0,0)"><path fill="rgb(255,170,143)" fill-opacity="0.2" d=" M180.5,66 C180.5,66 212.5,66 212.5,66 C216.64199829101562,66 220,69.35800170898438 220,73.5 C220,73.5 220,156.5 220,156.5 C220,160.64199829101562 216.64199829101562,164 212.5,164 C212.5,164 180.5,164 180.5,164 C176.35800170898438,164 173,160.64199829101562 173,156.5 C173,156.5 173,73.5 173,73.5 C173,69.35800170898438 176.35800170898438,66 180.5,66z"></path><path stroke-linecap="butt" stroke-linejoin="miter" fill-opacity="0" stroke-miterlimit="4" stroke="rgb(255,170,143)" stroke-opacity="1" stroke-width="1" d=" M180.5,66 C180.5,66 212.5,66 212.5,66 C216.64199829101562,66 220,69.35800170898438 220,73.5 C220,73.5 220,156.5 220,156.5 C220,160.64199829101562 216.64199829101562,164 212.5,164 C212.5,164 180.5,164 180.5,164 C176.35800170898438,164 173,160.64199829101562 173,156.5 C173,156.5 173,73.5 173,73.5 C173,69.35800170898438 176.35800170898438,66 180.5,66z"></path></g></g></g></g></svg>