<svg width="16" height="24" viewBox="0 0 16 24" fill="none" xmlns="http://www.w3.org/2000/svg">
<path d="M6 13.0001L6.44999 13.6001C6.63885 13.4585 6.75 13.2362 6.75 13.0001C6.75 12.7641 6.63886 12.5418 6.45001 12.4001L6 13.0001ZM2.45001 9.40001C2.11864 9.15147 1.64854 9.21862 1.40001 9.54999C1.15147 9.88136 1.21862 10.3515 1.54999 10.6L2.45001 9.40001ZM1.55002 15.4C1.21864 15.6485 1.15147 16.1186 1.4 16.45C1.64852 16.7814 2.11862 16.8485 2.44999 16.6L1.55002 15.4ZM1.54999 10.6L5.54999 13.6001L6.45001 12.4001L2.45001 9.40001L1.54999 10.6ZM5.55001 12.4001L1.55002 15.4L2.44999 16.6L6.44999 13.6001L5.55001 12.4001Z" fill="#0057DA"/>
<path opacity="0.01" d="M3 13L2 13" stroke="#0057DA" stroke-width="1.5" stroke-linecap="round"/>
</svg>
