<svg width="48" height="48" viewBox="0 0 48 48" fill="none" xmlns="http://www.w3.org/2000/svg">
<path d="M48 24C48 37.2548 37.2548 48 24 48C10.7452 48 0 37.2548 0 24C0 10.7452 10.7452 0 24 0C37.2548 0 48 10.7452 48 24Z" fill="url(#paint0_linear_644_3820)"/>
<path opacity="0.4" d="M10.8281 28.1201C10.8281 27.197 11.4598 26.3938 12.3569 26.1764L24.525 23.2265C24.8346 23.1515 25.1577 23.1515 25.4674 23.2265L37.6354 26.1764C38.5325 26.3938 39.1642 27.197 39.1642 28.1201V39.3071C39.1642 40.6492 37.8685 41.6104 36.5842 41.2212L25.5762 37.8854C25.198 37.7708 24.7943 37.7708 24.4161 37.8854L13.4081 41.2212C12.1238 41.6104 10.8281 40.6492 10.8281 39.3071V28.1201Z" fill="white"/>
<path opacity="0.7" d="M10.8281 20.5644C10.8281 19.6413 11.4598 18.8382 12.3569 18.6207L24.525 15.6709C24.8346 15.5958 25.1577 15.5958 25.4674 15.6709L37.6354 18.6207C38.5325 18.8382 39.1642 19.6413 39.1642 20.5644V31.7515C39.1642 33.0935 37.8685 34.0547 36.5842 33.6655L25.5762 30.3298C25.198 30.2152 24.7943 30.2152 24.4161 30.3298L13.4081 33.6655C12.1238 34.0547 10.8281 33.0935 10.8281 31.7515V20.5644Z" fill="white"/>
<path d="M10.8281 13.0078C10.8281 12.0847 11.4598 11.2815 12.3569 11.0641L24.525 8.11423C24.8346 8.03916 25.1577 8.03916 25.4674 8.11423L37.6354 11.0641C38.5325 11.2815 39.1642 12.0847 39.1642 13.0078V24.1948C39.1642 25.5369 37.8685 26.4981 36.5842 26.1089L25.5762 22.7731C25.198 22.6585 24.7943 22.6585 24.4161 22.7731L13.4081 26.1089C12.1238 26.4981 10.8281 25.5369 10.8281 24.1948V13.0078Z" fill="white"/>
<defs>
<linearGradient id="paint0_linear_644_3820" x1="-3.50177e-07" y1="1" x2="60" y2="55" gradientUnits="userSpaceOnUse">
<stop stop-color="#FF9776"/>
<stop offset="1" stop-color="#F9C05E"/>
</linearGradient>
</defs>
</svg>
