<svg width="126" height="42" viewBox="0 0 126 42" fill="none" xmlns="http://www.w3.org/2000/svg">
<g clip-path="url(#clip0_1136_12132)">
<path d="M6.90283 24.8274C6.90283 26.2071 7.20565 27.2664 7.60147 27.9072C8.12042 28.7466 8.89445 29.1022 9.68356 29.1022C10.7014 29.1022 11.6325 28.8496 13.4268 26.368C14.8643 24.3788 16.5581 21.5868 17.6978 19.8364L19.6279 16.871C20.9686 14.8115 22.5204 12.5221 24.2997 10.9703C25.7523 9.70366 27.3192 9 28.8961 9C31.5437 9 34.0656 10.5342 35.9956 13.4117C38.1079 16.5631 39.1332 20.5326 39.1332 24.6289C39.1332 27.0641 38.6532 28.8534 37.8364 30.267C37.0473 31.6341 35.5093 33 32.9221 33V29.1022C35.1374 29.1022 35.6903 27.0666 35.6903 24.737C35.6903 21.4172 34.9162 17.733 33.2111 15.1005C32.001 13.2333 30.4329 12.0924 28.7076 12.0924C26.8417 12.0924 25.3401 13.4997 23.6526 16.009C22.7554 17.3422 21.8343 18.9669 20.8002 20.8002L19.6618 22.817C17.3749 26.8718 16.7956 27.7954 15.6521 29.3196C13.648 31.9885 11.9365 33 9.68356 33C7.01089 33 5.32084 31.8427 4.27414 30.0986C3.41969 28.6775 3 26.8128 3 24.688L6.90283 24.8274Z" fill="#020202"/>
<path d="M6.07727 13.6869C7.86659 10.9288 10.4488 9 13.4105 9C15.1256 9 16.8308 9.50764 18.6113 10.9615C20.5589 12.551 22.6348 15.1684 25.2245 19.4821L26.1531 21.0302C28.3948 24.7646 29.6701 26.6859 30.4165 27.5918C31.3765 28.7554 32.0488 29.1022 32.9221 29.1022C35.1374 29.1022 35.6903 27.0666 35.6903 24.737L39.1332 24.6289C39.1332 27.0641 38.6532 28.8534 37.8364 30.267C37.0473 31.6341 35.5093 33 32.9221 33C31.3137 33 29.8888 32.6507 28.3131 31.1642C27.1018 30.0232 25.6856 27.9964 24.5962 26.1744L21.3556 20.7613C19.7296 18.0446 18.2381 16.0191 17.3749 15.1018C16.4463 14.1154 15.2526 12.9242 13.3476 12.9242C11.8059 12.9242 10.4965 14.0061 9.40083 15.6609L6.07727 13.6869Z" fill="#020202"/>
<path d="M13.3476 12.9242C11.8059 12.9242 10.4965 14.0061 9.40084 15.6609C7.85152 17.9994 6.90283 21.4825 6.90283 24.8274C6.90283 26.2071 7.20565 27.2664 7.60147 27.9072L4.27414 30.0986C3.41969 28.6775 3 26.8128 3 24.688C3 20.8241 4.06052 16.7969 6.07728 13.6869C7.8666 10.9288 10.4488 9 13.4105 9L13.3476 12.9242Z" fill="#020202"/>
<path d="M46.7202 9.75879H51.235L58.9112 23.6461L66.5887 9.75879H71.0055V32.5776H67.3225V15.0891L60.59 27.1996H57.1345L50.4031 15.0891V32.5776H46.7202V9.75879ZM82.5456 18.2669C79.9043 18.2669 78.3135 20.2547 77.9328 22.7163H86.897C86.7123 20.1806 85.2496 18.2669 82.5456 18.2669ZM74.2813 24.1186C74.2813 18.9391 77.6287 15.1695 82.6096 15.1695C87.5089 15.1695 90.4341 18.8914 90.4341 24.395V25.4065H77.9328C78.3763 28.0842 80.1531 29.8886 83.018 29.8886C85.3037 29.8886 86.7324 29.1912 88.0869 27.9159L90.0434 30.3121C88.2 32.0072 85.8553 32.9848 82.8873 32.9848C77.4955 32.9848 74.2813 29.053 74.2813 24.1186ZM94.8999 18.5936H91.5097V15.5778H94.8999V10.5906H98.4534V15.5778H103.604V18.5936H98.4534V26.2371C98.4534 28.847 99.2878 29.7743 101.338 29.7743C102.275 29.7743 102.811 29.6939 103.604 29.5619V32.545C102.616 32.8239 101.674 32.9521 100.654 32.9521C96.8174 32.9521 94.8999 30.8562 94.8999 26.6606V18.5936ZM118.567 21.5263C117.853 19.7244 116.261 18.3975 113.921 18.3975C110.881 18.3975 108.934 20.555 108.934 24.0696C108.934 27.4962 110.726 29.758 113.776 29.758C116.173 29.758 117.885 28.3632 118.567 26.6279V21.5263ZM122.12 32.5776H118.632V30.1977C117.657 31.5988 115.883 32.9848 113.009 32.9848C108.388 32.9848 105.299 29.1159 105.299 24.0696C105.299 18.9755 108.462 15.1695 113.205 15.1695C115.55 15.1695 117.39 16.1069 118.632 17.7617V15.5778H122.12V32.5776Z" fill="#020202"/>
</g>
<defs>
<clipPath id="clip0_1136_12132">
<rect width="119.12" height="24" fill="white" transform="translate(3 9)"/>
</clipPath>
</defs>
</svg>
