<svg width="92" height="42" viewBox="0 0 92 42" fill="none" xmlns="http://www.w3.org/2000/svg">
<path d="M34.5056 27.9548C36.0022 29.9418 37.5457 31.975 39.0891 34.0082C36.0022 37.6125 32.1671 39.923 27.5368 40.8934C22.392 41.9562 17.5279 41.1706 12.804 38.5829C17.0134 35.4869 21.1292 32.4371 25.2918 29.3873C26.2272 30.2652 27.1158 31.1432 28.0045 31.975C28.9867 32.8992 28.6125 32.9454 29.8753 32.2522C31.6058 31.2818 33.0557 29.9418 34.1782 28.3244C34.225 28.232 34.3185 28.1396 34.3653 28.0472C34.3185 28.0472 34.3653 28.0472 34.5056 27.9548ZM16.1247 32.0212C14.9555 32.8992 13.8797 33.6847 12.804 34.5165C12.0089 35.1172 11.2138 35.6717 10.4187 36.2725C10.0913 36.5497 9.85748 36.5497 9.48331 36.2262C5.92875 33.084 3.68376 29.2024 2.84189 24.5815C2.00002 19.9143 2.74835 15.4782 4.99334 11.2732C5.04011 11.1808 5.13365 11.0421 5.18042 10.9497C5.18042 10.9035 5.22719 10.9035 5.32073 10.8573C8.40759 14.8775 11.5412 18.8977 14.6281 22.9179C14.5345 23.0566 14.4878 23.149 14.3942 23.2414C13.4588 24.2118 12.5234 25.1822 11.5412 26.1064C11.2606 26.3837 11.2138 26.6147 11.4009 26.9382C12.3831 28.7865 13.7394 30.3114 15.4232 31.5591C15.657 31.6977 15.8441 31.8364 16.1247 32.0212ZM33.5702 3.32518C32.0735 4.388 30.5769 5.45081 29.0802 6.46742C26.5078 8.26958 23.9354 10.118 21.4098 11.9201C21.0824 12.1512 20.8486 12.1974 20.5679 11.8739C19.7261 10.9959 18.8374 10.2104 17.9956 9.3324C17.7617 9.10135 17.5279 9.05514 17.2005 9.19377C15.1893 10.2104 13.5991 11.6429 12.2895 13.445C12.196 13.5374 12.1025 13.6761 12.0089 13.8147C11.2606 12.8443 10.559 11.9663 9.85748 11.0421C9.10915 10.0717 8.40759 9.10135 7.70603 8.17717C7.47218 7.8537 7.42541 7.62265 7.7528 7.29919C11.3541 3.37139 15.7973 1.06092 21.1292 0.506412C25.3385 0.0443183 29.3608 0.876087 33.1025 2.86309C33.2428 2.95551 33.3831 3.00172 33.5234 3.09414C33.5234 3.23276 33.5234 3.27897 33.5702 3.32518ZM41.1938 31.0508C40.2116 29.8031 39.323 28.6479 38.4343 27.4927C36.3764 24.8125 34.3185 22.0862 32.2138 19.406C31.9332 19.0364 31.9332 18.8053 32.2606 18.4819C33.1492 17.6039 33.9911 16.7259 34.8797 15.8479C35.1136 15.6169 35.2071 15.3858 35.0201 15.0624C33.9911 13.1216 32.588 11.5042 30.7639 10.2104C30.6236 10.118 30.4833 9.97933 30.2962 9.88691C30.4365 9.74828 30.5769 9.65586 30.6704 9.56345C32.4477 8.22337 34.225 6.92951 36.0022 5.58944C36.2829 5.35839 36.5167 5.26597 36.8441 5.58944C41.2873 9.56345 43.6726 14.5078 43.9065 20.4689C44 23.9346 43.2049 27.2154 41.6147 30.3114C41.4744 30.4963 41.3341 30.7273 41.1938 31.0508Z" fill="#020202"/>
<path d="M73.0534 21.37C73.0494 23.1952 72.8797 24.999 72.351 26.755C72.0447 27.7717 71.6241 28.7362 71.0164 29.6121C69.7953 31.3726 68.1256 32.3899 65.992 32.634C64.8589 32.7635 63.7414 32.6931 62.6492 32.3542C60.962 31.8307 59.704 30.761 58.7867 29.2713C58.0645 28.0984 57.6348 26.8135 57.3663 25.4708C56.9875 23.5764 56.9256 21.6635 57.0435 19.7405C57.1304 18.3265 57.3483 16.9365 57.7902 15.5877C58.1925 14.3601 58.7657 13.2249 59.6394 12.2588C60.8005 10.9743 62.2548 10.267 63.9651 10.0646C65.0351 9.93784 66.0941 9.99178 67.1345 10.2783C68.7351 10.7189 69.994 11.6469 70.9479 12.9966C71.7814 14.1757 72.2784 15.499 72.5987 16.896C72.9364 18.3682 73.0516 19.8636 73.0534 21.37ZM67.7547 13.4315C67.7144 13.3834 67.6986 13.3566 67.6757 13.3383C67.6121 13.288 67.5468 13.2395 67.4798 13.1941C66.8343 12.7553 66.1166 12.5228 65.3419 12.474C63.9885 12.3887 62.7924 12.7522 61.8248 13.743C61.2769 14.304 60.8953 14.9699 60.6024 15.691C60.1474 16.8112 59.9225 17.9864 59.8153 19.1828C59.6571 20.9479 59.6659 22.7128 59.9283 24.4694C60.0743 25.4461 60.312 26.3997 60.7185 27.3045C60.749 27.3727 60.7944 27.4343 60.8566 27.5388C63.1715 22.8048 65.4654 18.1137 67.7547 13.4315ZM62.2545 29.3756C62.3761 29.4594 62.4657 29.5237 62.558 29.584C63.2669 30.0466 64.051 30.2575 64.8909 30.2731C66.4153 30.3014 67.6562 29.733 68.5845 28.5098C68.9057 28.0868 69.1587 27.6245 69.3662 27.1375C69.8566 25.9861 70.0967 24.7729 70.2088 23.5353C70.3667 21.7906 70.3567 20.0462 70.0964 18.3094C69.9516 17.3421 69.7106 16.4001 69.3098 15.5041C69.2787 15.435 69.237 15.3704 69.1715 15.2518C66.8547 19.9822 64.5627 24.6626 62.2548 29.3756H62.2545Z" fill="black"/>
<path d="M86.0478 24.1467C87.6679 26.858 89.2794 29.5548 90.9147 32.2918H87.926C86.639 30.1229 85.335 27.9256 84.0267 25.7201H82.9034C81.5777 27.9088 80.2481 30.104 78.9178 32.3003H76.0818C76.0742 32.2814 76.0693 32.2723 76.0672 32.2625C76.065 32.2531 76.062 32.2406 76.0662 32.2336C77.6732 29.5761 79.2805 26.919 80.8993 24.243C79.445 21.7044 77.9892 19.163 76.5115 16.5833H79.3371C80.5309 18.6517 81.7276 20.7249 82.9256 22.8009H84.0663C85.2847 20.7371 86.5116 18.6587 87.737 16.583H90.5011C89.0066 19.1213 87.5356 21.6197 86.0481 24.1464L86.0478 24.1467Z" fill="black"/>
</svg>
