<svg width="96" height="42" viewBox="0 0 96 42" fill="none" xmlns="http://www.w3.org/2000/svg">
<g clip-path="url(#clip0_1882_16246)">
<path fill-rule="evenodd" clip-rule="evenodd" d="M91.4979 21.5039C91.4979 15.3176 88.5014 10.4361 82.7742 10.4361C77.0469 10.4361 73.5429 15.3176 73.5429 21.4556C73.5429 28.7294 77.6511 32.4026 83.5475 32.4026C86.4232 32.4026 88.5981 31.7501 90.2413 30.8318V25.9987C88.5981 26.8204 86.7132 27.3278 84.3208 27.3278C81.9284 27.3278 79.8985 26.5062 79.6326 23.6547H91.4496C91.4496 23.3405 91.4979 22.0839 91.4979 21.5039ZM79.5602 19.2082C79.5602 16.4775 81.2276 15.3417 82.75 15.3417C84.2724 15.3417 85.7949 16.4775 85.7949 19.2082H79.5602ZM64.215 10.4361C61.8468 10.4361 60.3244 11.5477 59.4786 12.321L59.1644 10.8228H53.848V38.9998L59.8894 37.719L59.9136 30.8802C60.7835 31.5085 62.0643 32.4026 64.1909 32.4026C68.5165 32.4026 72.4555 28.9228 72.4555 21.2623C72.4313 14.2543 68.444 10.4361 64.215 10.4361ZM62.7651 27.0862C61.3393 27.0862 60.4935 26.5787 59.9136 25.9504L59.8894 16.985C60.5177 16.2842 61.3877 15.8009 62.7651 15.8009C64.9642 15.8009 66.4866 18.2658 66.4866 21.4314C66.4866 24.5971 64.9883 27.0862 62.7651 27.0862ZM45.5351 9.01035L51.6006 7.70541V2.7998L45.5351 4.08058V9.01035ZM45.5351 10.8469H51.6006V31.9918H45.5351V10.8469ZM39.0345 12.6352L38.6479 10.8469H33.4281V31.9918H39.4695V17.6616C40.8953 15.8009 43.3118 16.1392 44.061 16.405V10.8469C43.2877 10.5569 40.4603 10.0253 39.0345 12.6352ZM26.9517 5.60301L21.0554 6.85962L21.0312 26.2162C21.0312 29.7927 23.7136 32.4268 27.2901 32.4268C29.2716 32.4268 30.7216 32.0643 31.519 31.6293V26.7237C30.7457 27.0379 26.9276 28.1495 26.9276 24.573V15.9942H31.519V10.8469H26.9276L26.9517 5.60301ZM10.6158 16.985C10.6158 16.0425 11.3891 15.68 12.6699 15.68C14.5065 15.68 16.8264 16.2359 18.663 17.2266V11.5477C16.6572 10.7503 14.6756 10.4361 12.6699 10.4361C7.7643 10.4361 4.50195 12.9977 4.50195 17.275C4.50195 23.9447 13.6849 22.8814 13.6849 25.7571C13.6849 26.8687 12.7182 27.2312 11.365 27.2312C9.35923 27.2312 6.79768 26.4095 4.76777 25.2979V31.0493C7.01517 32.016 9.28673 32.4268 11.365 32.4268C16.3914 32.4268 19.8471 29.9377 19.8471 25.6121C19.8229 18.4108 10.6158 19.6915 10.6158 16.985Z" fill="#020202"/>
</g>
<defs>
<clipPath id="clip0_1882_16246">
<rect width="86.996" height="36.2" fill="white" transform="translate(4.50195 2.7998)"/>
</clipPath>
</defs>
</svg>
