<svg width="122" height="42" viewBox="0 0 122 42" fill="none" xmlns="http://www.w3.org/2000/svg">
<g clip-path="url(#clip0_1136_12260)">
<path fill-rule="evenodd" clip-rule="evenodd" d="M20.7931 3.62061C11.1948 3.62061 3.41382 11.4016 3.41382 20.9999C3.41382 30.5983 11.1948 38.3792 20.7931 38.3792C30.3915 38.3792 38.1724 30.5983 38.1724 20.9999C38.1724 11.4016 30.3915 3.62061 20.7931 3.62061ZM9.93113 18.0129C9.93113 14.2802 12.6466 11.4956 19.1639 11.4956H25.4774C31.3837 11.4956 31.6553 12.2084 31.6553 13.3965C31.6553 14.7542 31.1122 15.2973 29.7545 15.2973H19.1639C15.9053 15.2973 14.276 16.9229 14.276 18.5559V19.0991H29.7545C30.8407 19.0991 31.6553 19.8119 31.6553 20.9999C31.6553 22.1879 30.8407 22.9007 29.7545 22.9007H14.276V23.4439C14.276 25.077 15.9053 26.7026 19.1639 26.7026H29.7545C31.1122 26.7026 31.6553 27.2457 31.6553 28.6034C31.6553 29.7915 31.3837 30.5042 25.4774 30.5042H19.1639C12.6466 30.5042 9.93113 27.7196 9.93113 23.9869V18.0129Z" fill="#020202"/>
<path d="M97.8685 13.8716C97.1529 13.8716 96.8277 14.2429 96.8277 15.0596V26.9401C96.8277 27.7568 97.1529 28.1281 97.8685 28.1281H99.0455C99.7611 28.1281 100.086 27.7568 100.086 26.9401V15.0596C100.086 14.2429 99.7611 13.8716 99.0455 13.8716H97.8685Z" fill="#020202"/>
<path d="M73.5055 26.8657C74.3847 27.9911 75.3989 28.1281 76.498 28.1281H77.3445C78.5808 28.1281 78.9053 27.1628 78.9053 26.5688V15.0596C78.9053 14.2429 78.58 13.8716 77.8645 13.8716H76.6874C75.9719 13.8716 75.6467 14.2429 75.6467 15.0596V24.4153L68.5553 15.1339C67.6756 14.0084 66.6619 13.8716 65.5624 13.8716H64.7161C63.48 13.8716 63.1553 14.8369 63.1553 15.4309V26.9401C63.1553 27.7568 63.4806 28.1281 64.1962 28.1281H65.373C66.0885 28.1281 66.4139 27.7568 66.4139 26.9401V17.5843L73.5055 26.8657Z" fill="#020202"/>
<path d="M113.152 26.8657C114.031 27.9911 115.045 28.1281 116.145 28.1281H116.991C118.227 28.1281 118.552 27.1628 118.552 26.5688V15.0596C118.552 14.2429 118.227 13.8716 117.511 13.8716H116.334C115.618 13.8716 115.293 14.2429 115.293 15.0596V24.4153L108.202 15.1339C107.322 14.0084 106.308 13.8716 105.209 13.8716H104.363C103.126 13.8716 102.802 14.8369 102.802 15.4309V26.9401C102.802 27.7568 103.127 28.1281 103.843 28.1281H105.02C105.735 28.1281 106.06 27.7568 106.06 26.9401V17.5843L113.152 26.8657Z" fill="#020202"/>
<path d="M51.6142 13.8716C46.7262 13.8716 44.6896 15.9601 44.6896 18.7595V23.2401C44.6896 26.0396 46.7262 28.1281 51.6142 28.1281H56.3494C60.779 28.1281 60.9827 27.5935 60.9827 26.7025C60.9827 25.6842 60.5754 25.2767 59.5571 25.2767H51.6142C49.1703 25.2767 47.9483 24.0576 47.9483 22.8328V22.4254H59.5571C60.3717 22.4254 60.9827 21.8909 60.9827 20.9998C60.9827 20.1088 60.3717 19.5742 59.5571 19.5742H47.9483V19.1668C47.9483 17.9421 49.1703 16.7229 51.6142 16.7229H59.5571C60.5754 16.7229 60.9827 16.3155 60.9827 15.2972C60.9827 14.4061 60.779 13.8716 56.3494 13.8716H51.6142Z" fill="#020202"/>
<path d="M90.8536 22.715V15.0596C90.8536 14.2429 91.1788 13.8716 91.8943 13.8716H93.0714C93.7869 13.8716 94.1122 14.2429 94.1122 15.0596V23.059C94.1122 25.8586 92.1088 28.1281 89.6235 28.1281H85.711C81.2814 28.1281 81.0777 27.5935 81.0777 26.7025C81.0777 25.6842 81.485 25.2767 82.5033 25.2767H88.817C89.9045 25.2767 90.8536 23.9399 90.8536 22.715Z" fill="#020202"/>
</g>
<defs>
<clipPath id="clip0_1136_12260">
<rect width="115.448" height="36" fill="white" transform="translate(3.41382 3)"/>
</clipPath>
</defs>
</svg>
