<svg width="140" height="42" viewBox="0 0 140 42" fill="none" xmlns="http://www.w3.org/2000/svg">
<g clip-path="url(#clip0_1136_12233)">
<path fill-rule="evenodd" clip-rule="evenodd" d="M33 20.5C33 29.0599 26.0599 36 17.5 36C8.94006 36 2 29.0599 2 20.5C2 11.9401 8.94006 5 17.5 5C26.0617 5 33 11.9401 33 20.5ZM9.64704 21.0209L9.71391 20.9157L13.7461 14.6079C13.805 14.5156 13.9435 14.5251 13.9881 14.6254C14.6618 16.1351 15.243 18.0127 14.9707 19.1815C14.8545 19.6625 14.536 20.3138 14.1776 20.9157C14.1315 21.0034 14.0805 21.0893 14.0264 21.1721C14.0009 21.2104 13.9579 21.2327 13.9117 21.2327H9.76487C9.6534 21.2327 9.58811 21.1116 9.64704 21.0209ZM27.6198 23.1914V22.1929C27.6198 22.1005 27.5306 22.0337 27.443 22.0591L22.7277 23.4223C22.7022 23.4287 22.6799 23.443 22.6624 23.4621C22.1574 24.02 21.7282 24.3943 21.6145 24.4935L21.6066 24.5004C21.3136 24.7488 20.9505 24.8842 20.5683 24.8842H18.8611V23.1436H20.2179C20.253 23.1436 20.2864 23.1309 20.3119 23.1086L20.487 22.9477C20.5619 22.8792 20.6511 22.7964 20.7578 22.6897C20.7668 22.6807 20.776 22.6715 20.7853 22.6622C20.8414 22.6064 20.9013 22.5467 20.96 22.4811C21.0301 22.4127 21.0986 22.3362 21.1622 22.2614C21.2689 22.1467 21.3709 22.0273 21.4776 21.9015C21.554 21.8187 21.6241 21.7247 21.6926 21.6308C21.769 21.5416 21.8438 21.4413 21.9139 21.3457C21.94 21.3074 21.9678 21.2686 21.9961 21.2291C22.0231 21.1913 22.0507 21.1528 22.0779 21.1132C22.1289 21.0368 22.1799 20.9555 22.2229 20.8791C22.3566 20.6721 22.4697 20.4507 22.5652 20.2294C22.6091 20.1346 22.6442 20.0347 22.6782 19.9377C22.6825 19.9255 22.6868 19.9134 22.691 19.9013C22.7293 19.7882 22.7611 19.6816 22.785 19.5685C22.8423 19.3025 22.8551 19.0382 22.8296 18.7738C22.8232 18.691 22.8168 18.6098 22.7977 18.5334V18.5207C22.7914 18.4665 22.7786 18.406 22.7611 18.3502C22.7038 18.0923 22.6146 17.8343 22.5015 17.5811C22.4633 17.4871 22.4187 17.3916 22.3757 17.304C22.2738 17.1145 22.1671 16.925 22.0461 16.7418C22.0218 16.7032 21.995 16.664 21.9682 16.6249C21.9476 16.5947 21.9269 16.5646 21.9076 16.5348C21.8309 16.4166 21.7447 16.3026 21.6611 16.1921C21.6422 16.1671 21.6235 16.1422 21.605 16.1176C21.5556 16.0528 21.5016 15.988 21.4472 15.9227C21.4174 15.887 21.3875 15.8511 21.3581 15.815C21.2753 15.7147 21.1941 15.6191 21.1113 15.5252C20.8151 15.1908 20.5046 14.8882 20.2275 14.6302C20.1765 14.5792 20.1208 14.5283 20.0635 14.4789C19.8485 14.283 19.6526 14.1126 19.4886 13.9805C19.4393 13.9426 19.3951 13.9052 19.3539 13.8704C19.3259 13.8468 19.2994 13.8243 19.2736 13.8037C19.2239 13.7667 19.1807 13.7338 19.1445 13.7062C19.1215 13.6887 19.1014 13.6734 19.0841 13.6604C19.0713 13.6508 19.057 13.6445 19.0427 13.6397L18.8611 13.5887V12.0854C18.8611 11.8402 18.7624 11.6204 18.6047 11.4596C18.4471 11.2987 18.2273 11.2 17.9853 11.2C17.5011 11.2 17.1094 11.5965 17.1094 12.0854V13.0982L17.0186 13.0728L16.7718 13.0027L16.5472 12.9406C16.5466 12.9406 16.5459 12.9403 16.5452 12.94C16.5441 12.9395 16.5427 12.939 16.5409 12.939H16.5361L14.8321 12.4772C14.7573 12.4565 14.6936 12.5377 14.7318 12.6062L15.0041 13.1094C15.0196 13.1481 15.0392 13.1867 15.0593 13.2265C15.0723 13.2522 15.0856 13.2784 15.0981 13.3053C15.1427 13.3944 15.1873 13.4884 15.2303 13.5823C15.2685 13.6652 15.3067 13.7464 15.3513 13.8356C15.37 13.8775 15.3891 13.9199 15.4085 13.9629C15.4797 14.121 15.5545 14.2872 15.6284 14.4662C15.6921 14.6175 15.7558 14.7688 15.8115 14.9264C15.9644 15.3229 16.1093 15.7465 16.2351 16.1813C16.2664 16.2786 16.2915 16.3728 16.3168 16.4682C16.3276 16.5086 16.3384 16.5493 16.3498 16.5906L16.3673 16.667C16.4183 16.8692 16.4629 17.0699 16.4947 17.2721C16.5202 17.4107 16.5441 17.5428 16.5568 17.6766C16.5759 17.8279 16.595 17.9792 16.6014 18.1305C16.6141 18.269 16.6205 18.4139 16.6205 18.5525C16.6205 18.906 16.5887 19.2468 16.5138 19.5685C16.5091 19.5858 16.5044 19.6033 16.4997 19.6209C16.4787 19.6992 16.457 19.7803 16.431 19.8583C16.4075 19.9418 16.377 20.0253 16.3454 20.112C16.3341 20.1427 16.3228 20.1738 16.3116 20.2055C16.3095 20.2111 16.3074 20.2167 16.3053 20.2224C16.2818 20.2855 16.258 20.3497 16.2288 20.4125C16.0711 20.7915 15.8752 21.1689 15.673 21.5225C15.3768 22.0464 15.079 22.5066 14.8704 22.8028C14.8576 22.822 14.8452 22.8402 14.8332 22.8577C14.8182 22.8795 14.804 22.9003 14.7908 22.9207C14.7255 23.013 14.7923 23.1436 14.9054 23.1436H17.1094V24.8842H14.8799C14.2811 24.8842 13.727 24.545 13.4594 24.0019C13.3209 23.7296 13.2667 23.4302 13.2986 23.1372C13.3065 23.0497 13.2413 22.9669 13.1521 22.9669H8.64854C8.57209 22.9669 8.51 23.0289 8.51 23.1054V23.1977C8.51 26.0706 10.8303 28.3988 13.6935 28.3988H21.7722C23.2865 28.3988 24.1464 27.0188 24.9916 25.6625C25.2272 25.2844 25.4616 24.9081 25.7088 24.5641C26.1531 23.9462 27.2217 23.4557 27.5338 23.322C27.5847 23.2997 27.6198 23.2487 27.6198 23.1914Z" fill="#020202"/>
<path d="M48.104 27.9388C46.7028 27.9388 45.4147 27.6248 44.2401 26.9968C43.0795 26.3688 42.1523 25.495 41.4588 24.3756C40.7796 23.2424 40.4398 21.9727 40.4398 20.5666C40.4398 19.1604 40.7796 17.8975 41.4588 16.7781C42.1523 15.6586 43.0795 14.7848 44.2401 14.1568C45.4147 13.5288 46.7028 13.2148 48.104 13.2148C49.5052 13.2148 50.7861 13.5288 51.9467 14.1568C53.1216 14.7848 54.0414 15.6586 54.7066 16.7781C55.3862 17.8975 55.7256 19.1604 55.7256 20.5666C55.7256 21.9727 55.3862 23.2424 54.7066 24.3756C54.0274 25.495 53.1074 26.3688 51.9467 26.9968C50.7861 27.6248 49.5052 27.9388 48.104 27.9388ZM48.104 24.7441C49.2928 24.7441 50.2411 24.3619 50.9488 23.5974C51.6708 22.8328 52.0317 21.8226 52.0317 20.5666C52.0317 19.2969 51.6708 18.2867 50.9488 17.5358C50.2411 16.7713 49.2928 16.389 48.104 16.389C46.9008 16.389 45.9386 16.7644 45.2166 17.5153C44.5089 18.2662 44.1552 19.2832 44.1552 20.5666C44.1552 21.8362 44.5089 22.8533 45.2166 23.6179C45.9386 24.3687 46.9008 24.7441 48.104 24.7441Z" fill="#020202"/>
<path d="M61.376 17.9862C61.7297 17.4538 62.218 17.0237 62.8408 16.6961C63.4636 16.3684 64.1924 16.2046 65.0275 16.2046C66.004 16.2046 66.8887 16.4435 67.6814 16.9213C68.4738 17.3992 69.0966 18.0818 69.5495 18.9692C70.0166 19.8566 70.2501 20.8873 70.2501 22.0614C70.2501 23.2355 70.0166 24.2731 69.5495 25.1741C69.0966 26.0615 68.4738 26.7509 67.6814 27.2424C66.8887 27.7203 66.004 27.9592 65.0275 27.9592C64.2066 27.9592 63.4778 27.7954 62.8408 27.4677C62.218 27.1401 61.7297 26.7168 61.376 26.198V31.1948H57.7456V16.3684H61.376V17.9862ZM66.5561 22.0614C66.5561 21.1877 66.3013 20.5051 65.7917 20.0136C65.2963 19.5084 64.6806 19.2559 63.9447 19.2559C63.223 19.2559 62.6073 19.5084 62.0977 20.0136C61.6023 20.5187 61.3546 21.2081 61.3546 22.0819C61.3546 22.9556 61.6023 23.6451 62.0977 24.1502C62.6073 24.6553 63.223 24.9079 63.9447 24.9079C64.6667 24.9079 65.2823 24.6553 65.7917 24.1502C66.3013 23.6314 66.5561 22.9352 66.5561 22.0614Z" fill="#020202"/>
<path d="M83.3219 21.8976C83.3219 22.2253 83.3008 22.5665 83.2584 22.9215H75.0421C75.0989 23.6314 75.3323 24.1775 75.7427 24.5598C76.1674 24.9284 76.6839 25.1127 77.2927 25.1127C78.1985 25.1127 78.8282 24.7441 79.1822 24.0069H83.046C82.8479 24.7577 82.4871 25.4335 81.9632 26.0342C81.4539 26.6349 80.8097 27.1059 80.0313 27.4472C79.2529 27.7885 78.3824 27.9592 77.4201 27.9592C76.2595 27.9592 75.2263 27.7203 74.3204 27.2425C73.4146 26.7646 72.7069 26.082 72.1973 25.1946C71.6879 24.3072 71.4331 23.2696 71.4331 22.0819C71.4331 20.8941 71.6808 19.8566 72.1762 18.9692C72.6855 18.0818 73.3932 17.3992 74.2991 16.9213C75.2049 16.4435 76.2452 16.2046 77.4201 16.2046C78.5665 16.2046 79.5855 16.4367 80.477 16.9009C81.3689 17.365 82.0624 18.0272 82.5578 18.8873C83.0674 19.7474 83.3219 20.7508 83.3219 21.8976ZM79.6069 20.976C79.6069 20.3754 79.3945 19.8975 78.9698 19.5426C78.5451 19.1876 78.0144 19.0102 77.3777 19.0102C76.7688 19.0102 76.2524 19.1808 75.8277 19.5221C75.4172 19.8634 75.1624 20.3481 75.0635 20.976H79.6069Z" fill="#020202"/>
<path d="M92.4558 16.2456C93.8427 16.2456 94.9466 16.6825 95.7675 17.5562C96.6027 18.4163 97.0202 19.6041 97.0202 21.1195V27.7954H93.4109V21.5904C93.4109 20.8259 93.2057 20.2321 92.7952 19.8088C92.3848 19.3856 91.833 19.174 91.1395 19.174C90.4457 19.174 89.8939 19.3856 89.4835 19.8088C89.0731 20.2321 88.8678 20.8259 88.8678 21.5904V27.7954H85.2374V16.3685H88.8678V17.8839C89.2358 17.3787 89.7312 16.9828 90.354 16.6961C90.9765 16.3958 91.6771 16.2456 92.4558 16.2456Z" fill="#020202"/>
<path d="M104.935 27.9388C103.846 27.9388 102.869 27.7681 102.006 27.4268C101.142 27.0855 100.449 26.5804 99.9252 25.9114C99.4156 25.2425 99.1465 24.437 99.1183 23.495H102.982C103.039 24.0274 103.23 24.437 103.556 24.7237C103.881 24.9967 104.306 25.1333 104.829 25.1333C105.367 25.1333 105.792 25.0172 106.103 24.7851C106.414 24.5394 106.57 24.2049 106.57 23.7817C106.57 23.4267 106.443 23.1332 106.188 22.9011C105.948 22.669 105.643 22.4779 105.275 22.3277C104.921 22.1775 104.412 22.0069 103.747 21.8158C102.784 21.529 101.998 21.2424 101.39 20.9557C100.781 20.669 100.258 20.2457 99.8189 19.686C99.3802 19.1263 99.1608 18.3959 99.1608 17.4948C99.1608 16.1569 99.6633 15.1125 100.668 14.3616C101.673 13.5971 102.982 13.2148 104.596 13.2148C106.238 13.2148 107.561 13.5971 108.566 14.3616C109.571 15.1125 110.109 16.1637 110.179 17.5153H106.252C106.223 17.0511 106.046 16.6893 105.721 16.4299C105.395 16.1569 104.978 16.0204 104.468 16.0204C104.03 16.0204 103.676 16.1364 103.407 16.3685C103.138 16.5869 103.004 16.9078 103.004 17.331C103.004 17.7952 103.23 18.157 103.683 18.4163C104.136 18.6757 104.843 18.9556 105.806 19.256C106.768 19.57 107.547 19.8703 108.141 20.157C108.75 20.4437 109.274 20.8601 109.712 21.4062C110.151 21.9523 110.37 22.6554 110.37 23.5155C110.37 24.3346 110.151 25.0786 109.712 25.7476C109.288 26.4166 108.665 26.949 107.844 27.3449C107.023 27.7408 106.054 27.9388 104.935 27.9388Z" fill="#020202"/>
<path d="M123.772 21.8976C123.772 22.2253 123.751 22.5665 123.708 22.9215H115.492C115.549 23.6314 115.782 24.1775 116.192 24.5598C116.617 24.9284 117.134 25.1127 117.742 25.1127C118.648 25.1127 119.278 24.7441 119.632 24.0069H123.496C123.298 24.7577 122.937 25.4335 122.413 26.0342C121.904 26.6349 121.26 27.1059 120.481 27.4472C119.703 27.7885 118.832 27.9592 117.87 27.9592C116.709 27.9592 115.676 27.7203 114.77 27.2425C113.864 26.7646 113.157 26.082 112.647 25.1946C112.138 24.3072 111.883 23.2696 111.883 22.0819C111.883 20.8941 112.131 19.8566 112.626 18.9692C113.135 18.0818 113.843 17.3992 114.749 16.9213C115.655 16.4435 116.695 16.2046 117.87 16.2046C119.016 16.2046 120.035 16.4367 120.927 16.9009C121.819 17.365 122.512 18.0272 123.007 18.8873C123.517 19.7474 123.772 20.7508 123.772 21.8976ZM120.057 20.976C120.057 20.3754 119.844 19.8975 119.42 19.5426C118.995 19.1876 118.464 19.0102 117.827 19.0102C117.219 19.0102 116.702 19.1808 116.277 19.5221C115.867 19.8634 115.612 20.3481 115.513 20.976H120.057Z" fill="#020202"/>
<path d="M124.965 22.0614C124.965 20.8873 125.192 19.8566 125.645 18.9692C126.111 18.0818 126.741 17.3992 127.534 16.9213C128.327 16.4435 129.211 16.2046 130.188 16.2046C131.023 16.2046 131.752 16.3684 132.375 16.6961C133.011 17.0237 133.5 17.4538 133.839 17.9862V16.3684H137.47V27.7954H133.839V26.1776C133.486 26.71 132.99 27.1401 132.353 27.4677C131.731 27.7954 131.002 27.9592 130.167 27.9592C129.204 27.9592 128.327 27.7203 127.534 27.2425C126.741 26.7509 126.111 26.0615 125.645 25.1741C125.192 24.2731 124.965 23.2355 124.965 22.0614ZM133.839 22.0819C133.839 21.2081 133.585 20.5187 133.075 20.0136C132.58 19.5084 131.971 19.2559 131.249 19.2559C130.527 19.2559 129.912 19.5084 129.402 20.0136C128.907 20.5051 128.659 21.1877 128.659 22.0614C128.659 22.9352 128.907 23.6314 129.402 24.1502C129.912 24.6553 130.527 24.9079 131.249 24.9079C131.971 24.9079 132.58 24.6553 133.075 24.1502C133.585 23.6451 133.839 22.9556 133.839 22.0819Z" fill="#020202"/>
</g>
<defs>
<clipPath id="clip0_1136_12233">
<rect width="135.47" height="31" fill="white" transform="translate(2 5)"/>
</clipPath>
</defs>
</svg>
