<svg width="136" height="42" viewBox="0 0 136 42" fill="none" xmlns="http://www.w3.org/2000/svg">
<g clip-path="url(#clip0_1136_12210)">
<path fill-rule="evenodd" clip-rule="evenodd" d="M128.529 11.2388C127.267 11.6594 126.994 12.285 126.99 14.7687C126.987 16.9404 127.031 16.8614 125.932 16.6767C121.935 16.005 118.25 20.8756 119.678 24.9438C120.69 27.8285 123.699 30.0382 125.979 29.5721C127.844 29.191 128.14 29.177 129.165 29.4209C130.801 29.8106 132.382 29.3068 132.821 28.256C133.014 27.793 133.055 13.5254 132.865 12.841C132.472 11.4252 130.338 10.6365 128.529 11.2388ZM32.1621 11.4844C30.2541 12.0168 30.1867 12.2129 30.1807 17.253L30.1769 20.4268C30.1769 20.5892 29.9542 20.6348 29.8901 20.4856C26.6504 12.9499 15.4203 16.8837 17.0273 24.9915C17.0912 25.314 17.0873 25.3183 16.9454 25.0806C15.9858 23.4723 14.5832 23.0178 13.0242 23.8099C10.9803 24.8486 8.38386 23.744 7.88445 21.6234C7.23245 18.8549 9.49121 17.0587 12.4507 17.9924C14.2416 18.5574 14.276 18.5612 15.0051 18.2652C17.6645 17.1859 17.9987 14.3394 15.6082 13.128C10.6491 10.615 4.42644 12.8322 2.566 17.7751C0.0857494 24.3645 6.16805 31.4287 12.8123 29.6758C16.2623 28.7657 17.7829 27.3219 17.1507 25.5563C17.1062 25.432 17.2198 25.6099 17.403 25.9517C20.121 31.0196 27.4655 30.7885 29.9681 25.5563C30.0461 25.3936 30.2884 25.4344 30.3086 25.6137L30.3159 25.6772C30.5721 27.9492 31.5606 28.987 33.8777 29.4168C35.7556 29.7651 37.1459 29.2093 37.5219 27.9599C37.6017 27.6942 37.6906 27.4004 37.7188 27.3072C37.7534 27.1935 37.8193 27.2527 37.9185 27.4867C38.6376 29.1836 42.2629 30.1396 43.8559 29.0523C45.4274 27.9794 44.9635 24.3702 43.2536 24.3702C42.8457 24.3702 42.8369 24.2393 42.8369 18.3201C42.8369 15.0848 42.7927 12.8606 42.7256 12.6833C42.1246 11.1029 38.6765 10.9765 37.6688 12.498C37.503 12.7483 37.4144 13.0419 37.4142 13.3422L37.4069 19.1061C37.4023 22.5294 37.3644 25.2435 37.322 25.1373C37.2001 24.8304 36.4969 24.3702 36.1504 24.3702C35.9759 24.3702 35.8245 24.3574 35.8134 24.342C35.8025 24.3265 35.7644 21.6935 35.7288 18.4911C35.6549 11.8713 35.721 12.2918 34.6735 11.7585C34.0367 11.4342 32.8183 11.3013 32.1621 11.4844ZM59.435 11.5278C58.7114 11.7318 58.1859 12.0635 57.889 12.5041C57.7232 12.7503 57.6344 13.0404 57.6344 13.3373V20.439C57.6344 28.7808 57.5993 28.3658 58.3573 28.9439C58.9868 29.4242 59.9171 29.5376 61.1837 29.2886C62.2749 29.0741 62.5258 29.0819 64.1861 29.381C70.6768 30.5503 72.973 20.3012 66.8972 17.2798C66.3402 17.0028 65.7258 16.8614 65.1039 16.8673L64.5531 16.8724C63.7288 16.8801 63.0564 16.2141 63.0558 15.3896V15.178C63.0548 12.078 61.8372 10.8507 59.435 11.5278ZM79.476 12.2711C79.0611 12.3786 78.4235 12.7552 78.1701 13.0424C77.4896 13.8144 77.5317 27.3847 78.218 28.3916C79.4677 30.2254 89.6519 30.5713 90.7425 28.8171C91.2923 27.9325 91.0861 26.0628 90.3632 25.3805C89.771 24.8214 89.5875 24.7886 86.6512 24.7162C83.0797 24.6282 83.5234 25.4091 83.481 19.1379C83.4419 13.3545 83.4613 13.5065 82.6834 12.924C81.8307 12.2858 80.4811 12.0111 79.476 12.2711ZM97.0573 16.5465C91.5495 17.1264 89.3712 23.799 93.3807 27.8098C95.0198 29.4493 96.3599 29.8862 98.2883 29.4098L98.6414 29.3225C99.2118 29.1817 99.8106 29.2061 100.367 29.3931C102.247 30.0239 104.187 29.4612 104.569 28.1748C104.79 27.4336 104.819 19.1993 104.604 18.2711C104.236 16.6737 102.218 16.0007 100.576 16.9273C99.959 17.2756 99.9539 17.2764 99.5513 17.0822C98.7984 16.7188 97.6876 16.4802 97.0573 16.5465ZM107.167 16.7429C105.357 17.1973 105.403 17.0261 105.441 23.124L105.468 27.5084C105.471 27.9722 105.668 28.4135 106.012 28.7248C106.93 29.5556 108.342 29.8219 109.596 29.4003C111.027 28.9187 111.138 28.6529 111.229 25.4598C111.303 22.8737 111.371 22.5842 111.96 22.34C112.781 22 112.935 22.4339 113.038 25.3853C113.125 27.8478 113.167 28.0422 113.737 28.5574C115.532 30.1807 118.632 29.7412 118.92 27.8226C119.966 20.8447 116.287 15.3481 111.516 16.763C110.729 16.9965 110.428 16.9967 109.313 16.7644C108.278 16.5486 107.954 16.5453 107.167 16.7429ZM49.445 16.7956C45.5581 17.4157 43.2254 22.3408 45.0546 26.0646C46.4408 28.8866 48.8422 29.9561 51.8875 29.1078C52.3361 28.9828 52.4638 28.9874 52.7911 29.1406C54.6209 29.996 56.8968 29.434 57.3057 28.0256C57.5261 27.266 57.5286 18.9187 57.3088 18.1642C56.9359 16.8863 54.9596 16.22 53.8179 16.9873C53.0718 17.4889 53.0526 17.4908 52.2964 17.1409C51.5109 16.7776 50.4003 16.6431 49.445 16.7956ZM24.396 22.3927C24.8803 22.9557 24.6284 24.0567 23.9828 24.1985C22.9792 24.4189 22.205 23.0405 22.9069 22.2831C23.2831 21.8772 23.9978 21.9299 24.396 22.3927ZM51.4304 22.5542C52.0476 23.1714 51.7177 23.9184 50.8282 23.9184C50.2105 23.9184 49.9081 23.6346 49.9081 23.0548C49.9081 22.2554 50.8287 21.9527 51.4304 22.5542ZM64.6299 22.3892C65.3492 22.7612 65.2079 23.7988 64.4161 23.9571C63.3544 24.1695 62.7683 22.986 63.6644 22.4396C64.0884 22.1811 64.2146 22.1745 64.6299 22.3892ZM98.4612 22.5144C98.8572 22.9104 98.3812 23.9184 97.7981 23.9184C97.5172 23.9184 97.0573 23.4542 97.0573 23.1708C97.0573 22.5362 98.0288 22.082 98.4612 22.5144ZM126.545 22.5124C126.928 22.9741 126.467 23.9184 125.859 23.9184C125.593 23.9184 125.258 23.3162 125.355 23.012C125.521 22.4884 126.265 22.1759 126.545 22.5124ZM72.1289 24.3124C70.3898 24.7376 69.7447 26.3093 70.5763 28.0961C71.5862 30.2656 75.3681 30.0149 75.8138 27.7488C76.2803 25.3779 74.5129 23.7297 72.1289 24.3124Z" fill="#020202"/>
</g>
<defs>
<clipPath id="clip0_1136_12210">
<rect width="131" height="18.9306" fill="white" transform="translate(2 11.0347)"/>
</clipPath>
</defs>
</svg>
