<svg width="116" height="42" viewBox="0 0 116 42" fill="none" xmlns="http://www.w3.org/2000/svg">
<g clip-path="url(#clip0_1136_12217)">
<path d="M12.6699 7H0V37.3004L12.6699 7Z" fill="#020202"/>
<path d="M21.5842 7H34.2376V37.3004L21.5842 7Z" fill="#020202"/>
<path d="M17.127 18.1675L25.1912 37.3002H19.9004L17.4902 31.2088H11.5886L17.127 18.1675Z" fill="#020202"/>
<path d="M54.9075 26.2689L56.4014 30.5527C56.451 30.66 56.5252 30.7095 56.6573 30.7095H59.5297C59.6865 30.7095 59.7113 30.6352 59.6865 30.4784L53.7519 13.9952C53.7272 13.8631 53.7024 13.8384 53.5703 13.8384H50.0046C49.9056 13.8384 49.8478 13.9127 49.8478 14.02C49.7982 14.8866 49.724 15.1508 49.6167 15.4066L44.3259 30.4537C44.3011 30.6352 44.3589 30.7095 44.5074 30.7095H47.0744C47.2313 30.7095 47.3055 30.66 47.3633 30.5032L48.7748 26.2689H54.9075ZM49.5919 23.4708C50.3678 21.1266 51.3913 18.1222 51.804 16.4054H51.8287C52.3405 18.2047 53.5456 21.7705 54.0903 23.4708H49.5919Z" fill="#020202"/>
<path d="M67.3159 30.9652C68.8594 30.9652 70.5019 30.6846 72.1692 29.9665C72.3013 29.9169 72.3261 29.8592 72.3261 29.7354C72.2765 29.2731 72.2188 28.6046 72.2188 28.0928V12.5753C72.2188 12.4763 72.2188 12.4268 72.095 12.4268H69.2969C69.1896 12.4268 69.14 12.4763 69.14 12.6083V17.8661C68.7026 17.8166 68.3972 17.7918 68.034 17.7918C63.5191 17.7918 60.7457 20.7715 60.7457 24.4941C60.7457 28.8109 63.5934 30.9652 67.3159 30.9652ZM69.14 28.0928C68.6778 28.2414 68.1661 28.2992 67.6461 28.2992C65.5991 28.2992 63.9235 27.1436 63.9235 24.3373C63.9235 21.8528 65.6486 20.3836 67.9349 20.3836C68.3972 20.3836 68.8016 20.4331 69.14 20.5652V28.0928Z" fill="#020202"/>
<path d="M81.2525 17.792C77.3979 17.792 75.0125 20.7469 75.0125 24.3952C75.0125 27.6555 76.9109 30.9654 81.1947 30.9654C84.8182 30.9654 87.3604 28.2993 87.3604 24.3126C87.3604 20.7964 85.2061 17.792 81.2525 17.792ZM81.0956 20.3837C83.2747 20.3837 84.1991 22.2574 84.1991 24.3952C84.1991 27.0365 82.8372 28.3488 81.2525 28.3488C79.2963 28.3488 78.1407 26.7063 78.1407 24.3374C78.1407 21.9025 79.3706 20.3837 81.0956 20.3837Z" fill="#020202"/>
<path d="M90.2535 12.4268C90.1462 12.4268 90.0719 12.4763 90.0719 12.6083V30.1728C90.0719 30.2471 90.1462 30.3792 90.2535 30.4039C91.4833 30.7836 92.771 30.9652 94.0998 30.9652C97.9049 30.9652 101.603 28.6046 101.603 23.8503C101.603 20.4084 99.2421 17.7918 95.5443 17.7918C94.6941 17.7918 93.9017 17.9239 93.2084 18.155L93.1754 12.6331C93.1754 12.4515 93.1259 12.4268 92.9443 12.4268H90.2535ZM98.4414 24.1639C98.4414 27.0116 96.4935 28.3487 94.3887 28.3487C93.9513 28.3487 93.5633 28.3239 93.2084 28.2166V20.722C93.6129 20.5652 94.0998 20.4331 94.9995 20.4331C97.03 20.4331 98.4414 21.7207 98.4414 24.1639Z" fill="#020202"/>
<path d="M112.045 25.0885C113.3 25.0885 114.331 25.0638 114.686 24.9812C114.818 24.9565 114.868 24.9069 114.893 24.7996C114.967 24.519 115 23.933 115 23.2149C115 20.7717 113.531 17.792 109.734 17.792C105.854 17.792 103.7 20.9533 103.7 24.519C103.7 27.6803 105.368 30.9654 110.039 30.9654C111.789 30.9654 112.92 30.6847 113.894 30.2225C113.993 30.173 114.042 30.0904 114.042 29.9419V27.8041C114.042 27.6803 113.968 27.6555 113.894 27.705C112.92 28.1177 111.863 28.3241 110.708 28.3241C108.091 28.3241 106.903 26.8796 106.828 25.0885H112.045ZM106.828 22.8764C107.035 21.6218 107.827 20.2599 109.602 20.2599C111.558 20.2599 112.07 21.9025 112.07 22.6453C112.07 22.6701 112.07 22.7774 112.07 22.8517C111.962 22.8764 111.632 22.8764 110.658 22.8764H106.828Z" fill="#020202"/>
</g>
<defs>
<clipPath id="clip0_1136_12217">
<rect width="115" height="30.3004" fill="white" transform="translate(0 7)"/>
</clipPath>
</defs>
</svg>
