<svg width="88" height="42" viewBox="0 0 88 42" fill="none" xmlns="http://www.w3.org/2000/svg">
<g clip-path="url(#clip0_1136_12243)">
<path d="M78.0869 9L60.8594 33.6812H66.1486L83.4657 9H78.0869Z" fill="#020202"/>
<path d="M66.6997 9L71.7686 16.2727L69.124 20.2397L61.3003 9H66.6997Z" fill="#020202"/>
<path d="M78.6005 33.6835L72.9807 25.6395L75.6253 21.7827L83.8898 33.6835H78.6005Z" fill="#020202"/>
<path fill-rule="evenodd" clip-rule="evenodd" d="M54.6887 9H59.3168V33.6812H54.6887V32.7593C53.3521 33.4888 51.8176 33.9036 50.1856 33.9036C45.0046 33.9036 40.8044 29.7224 40.8044 24.5647C40.8044 19.407 45.0046 15.2259 50.1856 15.2259C51.8176 15.2259 53.3521 15.6407 54.6887 16.3701V9ZM50.1362 29.8048C53.0707 29.8048 55.4495 27.4367 55.4495 24.5155C55.4495 21.5944 53.0707 19.2263 50.1362 19.2263C47.2018 19.2263 44.823 21.5944 44.823 24.5155C44.823 27.4367 47.2018 29.8048 50.1362 29.8048Z" fill="#020202"/>
<path d="M41.2649 9L24.0552 33.6812H29.4504L46.6436 9H41.2649Z" fill="#020202"/>
<path d="M29.4546 9L34.854 16.4931L31.8788 20.6804L23.8347 9H29.4546Z" fill="#020202"/>
<path fill-rule="evenodd" clip-rule="evenodd" d="M17.8843 9H22.5124V33.6812H17.8843V32.7593C16.5476 33.4888 15.0131 33.9036 13.3812 33.9036C8.20011 33.9036 4 29.7224 4 24.5647C4 19.407 8.20011 15.2259 13.3812 15.2259C15.0131 15.2259 16.5476 15.6407 17.8843 16.3701V9ZM13.3318 29.8048C16.2662 29.8048 18.6451 27.4367 18.6451 24.5155C18.6451 21.5944 16.2662 19.2263 13.3318 19.2263C10.3974 19.2263 8.01856 21.5944 8.01856 24.5155C8.01856 27.4367 10.3974 29.8048 13.3318 29.8048Z" fill="#020202"/>
</g>
<defs>
<clipPath id="clip0_1136_12243">
<rect width="80" height="24.9036" fill="white" transform="translate(4 9)"/>
</clipPath>
</defs>
</svg>
