<svg width="118" height="42" viewBox="0 0 118 42" fill="none" xmlns="http://www.w3.org/2000/svg">
<path fill-rule="evenodd" clip-rule="evenodd" d="M26.0423 7.79072C26.0285 7.78819 26.0147 7.7869 26.0012 7.7869C25.8882 7.7869 23.6508 7.7417 23.6508 7.7417C23.6508 7.7417 21.775 5.9337 21.5942 5.7303C21.5924 5.72853 21.5906 5.72677 21.5888 5.72503C21.5312 5.66941 21.4582 5.62996 21.3831 5.61986C21.2087 5.57788 21.0092 5.60889 20.9162 5.6399C20.9162 5.6399 20.5546 5.7529 19.967 5.9337C19.8766 5.61731 19.7184 5.2331 19.515 4.8263C18.8596 3.5607 17.8652 2.8827 16.69 2.8827C16.5996 2.8827 16.5318 2.8827 16.4414 2.90531C16.4254 2.88929 16.4122 2.87328 16.3999 2.85827C16.3774 2.83092 16.3576 2.8069 16.3284 2.79231C15.8086 2.2499 15.1532 1.97871 14.3622 2.00131C12.848 2.04651 11.3338 3.15391 10.0908 5.0975C9.232 6.4761 8.5766 8.1937 8.3732 9.5271C8.04514 9.62936 7.73556 9.72599 7.44884 9.81548L7.44822 9.81567C6.21447 10.2008 5.40407 10.4537 5.3674 10.4537C4.486 10.7249 4.4634 10.7475 4.3504 11.5837C4.3052 12.2165 2 30.0479 2 30.0479L21.3456 33.3927L29.7302 31.3135C29.7302 31.3135 26.3176 8.19372 26.295 8.03552C26.2568 7.90201 26.1543 7.81678 26.0553 7.79344C26.051 7.79241 26.0467 7.79151 26.0423 7.79072ZM18.9952 6.25011C18.5432 6.3857 18.046 6.5439 17.5036 6.7247C17.5036 5.95631 17.3906 4.87151 17.0516 3.96751C18.2042 4.14831 18.7692 5.45911 18.9952 6.25011ZM16.4866 7.01851C15.4696 7.3349 14.3622 7.67389 13.2549 8.01288C13.5713 6.81508 14.1588 5.6399 14.882 4.8489C15.1532 4.5551 15.5374 4.2387 15.9668 4.0579C16.4188 4.9393 16.5092 6.1823 16.4866 7.01851ZM14.4074 3.01831C14.769 3.01831 15.0628 3.0861 15.3114 3.2669C14.9046 3.4703 14.4978 3.7867 14.1362 4.19351C13.1644 5.2331 12.4186 6.83771 12.1248 8.3971C11.4181 8.62118 10.7245 8.83211 10.0742 9.02989C9.87186 9.09144 9.67368 9.15171 9.4806 9.2107C10.023 6.7473 12.0796 3.0861 14.4074 3.01831ZM16.69 12.1036L15.7182 15.7422C15.7182 15.7422 14.6334 15.245 13.3452 15.3354C11.4468 15.4484 11.4468 16.6462 11.4468 16.94C11.4914 17.582 12.1834 18.027 13.0203 18.5652C14.3043 19.3909 15.9293 20.4358 16.0798 22.7482C16.2606 25.754 14.4978 27.8106 11.9214 27.9688C8.84781 28.127 7.15281 26.319 7.15281 26.319L7.80821 23.5392C7.80821 23.5392 9.52581 24.8274 10.8818 24.737C11.7632 24.6918 12.1022 23.946 12.057 23.4488C11.9976 22.5185 11.297 22.0216 10.509 21.4628C9.49745 20.7455 8.34205 19.9261 8.21501 17.957C8.03421 15.019 9.95521 12.0584 14.204 11.7872C15.8538 11.6742 16.69 12.1036 16.69 12.1036Z" fill="#020202"/>
<path d="M41.0754 19.8547C40.1036 19.3349 39.6064 18.8829 39.6064 18.2727C39.6064 17.5043 40.307 17.0071 41.3918 17.0071C42.6574 17.0071 43.7874 17.5269 43.7874 17.5269L44.6688 14.8149C44.6688 14.8149 43.8552 14.1821 41.4596 14.1821C38.1148 14.1821 35.787 16.1031 35.787 18.7925C35.787 20.3293 36.8718 21.4819 38.3182 22.3181C39.4934 22.9735 39.9002 23.4481 39.9002 24.1487C39.9002 24.8719 39.3126 25.4595 38.2278 25.4595C36.6232 25.4595 35.0864 24.6233 35.0864 24.6233L34.1372 27.3353C34.1372 27.3353 35.5384 28.2845 37.9114 28.2845C41.3466 28.2845 43.8326 26.5895 43.8326 23.5385C43.81 21.8887 42.567 20.7135 41.0754 19.8547Z" fill="#020202"/>
<path d="M54.771 14.137C53.076 14.137 51.7426 14.9506 50.7256 16.171L50.6804 16.1484L52.1494 8.46436H48.33L44.601 28.036H48.4204L49.686 21.3464C50.1832 18.8152 51.494 17.2558 52.7144 17.2558C53.5732 17.2558 53.9122 17.8434 53.9122 18.6796C53.9122 19.1994 53.867 19.8548 53.754 20.3746L52.3076 28.036H56.127L57.6186 20.126C57.7768 19.2898 57.8898 18.2954 57.8898 17.6174C57.9124 15.4478 56.7824 14.137 54.771 14.137Z" fill="#020202"/>
<path d="M66.5681 14.1372C61.9577 14.1372 58.9067 18.2956 58.9067 22.9286C58.9067 25.8892 60.7373 28.2848 64.1725 28.2848C68.6925 28.2848 71.7435 24.2394 71.7435 19.4934C71.7661 16.7588 70.1615 14.1372 66.5681 14.1372ZM64.6923 25.3694C63.3815 25.3694 62.8391 24.262 62.8391 22.8608C62.8391 20.6686 63.9691 17.0978 66.0483 17.0978C67.4043 17.0978 67.8563 18.273 67.8563 19.403C67.8563 21.7534 66.7037 25.3694 64.6923 25.3694Z" fill="#020202"/>
<path d="M81.552 14.1372C78.9756 14.1372 77.5066 16.4198 77.5066 16.4198H77.4614L77.6874 14.3632H74.2974C74.1392 15.7418 73.8228 17.8662 73.529 19.4482L70.8622 33.4602H74.6816L75.7438 27.7876H75.8342C75.8342 27.7876 76.6252 28.2848 78.0716 28.2848C82.569 28.2848 85.507 23.6744 85.507 19.0188C85.507 16.4424 84.3544 14.1372 81.552 14.1372ZM77.8908 25.4146C76.8964 25.4146 76.3088 24.8496 76.3088 24.8496L76.9416 21.2788C77.3936 18.8832 78.6366 17.3012 79.97 17.3012C81.1452 17.3012 81.5068 18.386 81.5068 19.403C81.5068 21.889 80.0378 25.4146 77.8908 25.4146Z" fill="#020202"/>
<path d="M90.9763 8.64502C89.7559 8.64502 88.7841 9.61682 88.7841 10.8598C88.7841 11.9898 89.5073 12.7808 90.5921 12.7808H90.6373C91.8351 12.7808 92.8521 11.9672 92.8747 10.566C92.8747 9.45862 92.1289 8.64502 90.9763 8.64502Z" fill="#020202"/>
<path d="M85.6201 28.0136H89.4395L92.0385 14.4536H88.1965L85.6201 28.0136Z" fill="#020202"/>
<path d="M101.779 14.431H99.1122L99.2478 13.7982C99.4738 12.4874 100.242 11.3348 101.53 11.3348C102.208 11.3348 102.751 11.5382 102.751 11.5382L103.497 8.53236C103.497 8.53236 102.841 8.19336 101.417 8.19336C100.061 8.19336 98.7054 8.57756 97.6658 9.45896C96.355 10.5664 95.7448 12.171 95.451 13.7982L95.338 14.431H93.5526L92.9876 17.3238H94.773L92.739 28.0362H96.5584L98.5924 17.3238H101.237L101.779 14.431Z" fill="#020202"/>
<path d="M111 14.4536C111 14.4536 108.604 20.4878 107.542 23.7874H107.497C107.429 22.7252 106.548 14.4536 106.548 14.4536H102.525L104.83 26.9062C104.875 27.1774 104.853 27.3582 104.74 27.539C104.288 28.3978 103.542 29.234 102.66 29.8442C101.937 30.364 101.124 30.703 100.491 30.929L101.553 34.1834C102.321 34.0252 103.949 33.3698 105.305 32.1042C107.045 30.477 108.672 27.9458 110.322 24.5106L115 14.4536H111Z" fill="#020202"/>
</svg>
