<svg width="104" height="42" viewBox="0 0 104 42" fill="none" xmlns="http://www.w3.org/2000/svg">
<g clip-path="url(#clip0_1136_12454)">
<path d="M22.6666 0.459961C11.4713 0.459961 2.39648 9.53475 2.39648 20.73C2.39648 31.9253 11.4713 41.0001 22.6666 41.0001C33.8619 41.0001 42.9367 31.9253 42.9367 20.73C42.9367 9.53475 33.8619 0.459961 22.6666 0.459961ZM22.874 36.8831C22.7663 37.0151 22.5642 37.0151 22.4564 36.8831L6.13633 16.9121C6.0582 16.8178 6.0555 16.6803 6.12825 16.5806L11.8781 8.78301C11.9293 8.71296 12.0102 8.67254 12.0937 8.67254H33.2368C33.323 8.67254 33.4038 8.71296 33.4523 8.78301L39.2022 16.5806C39.275 16.6803 39.2723 16.8151 39.1941 16.9121L22.874 36.8858V36.8831Z" fill="black"/>
<path d="M22.6666 21.8078C23.2618 21.8078 23.7443 21.3253 23.7443 20.73C23.7443 20.1348 23.2618 19.6523 22.6666 19.6523C22.0713 19.6523 21.5888 20.1348 21.5888 20.73C21.5888 21.3253 22.0713 21.8078 22.6666 21.8078Z" fill="black"/>
<path d="M23.2055 13.6006V12.4528H22.1277V13.6006C18.6142 13.8647 15.8012 16.675 15.5398 20.1885H14.392V21.2662H15.5398C15.8039 24.7798 18.6142 27.5927 22.1277 27.8541V29.0019H23.2055V27.8541C26.719 27.59 29.5319 24.7798 29.7933 21.2662H30.9411V20.1885H29.7933C29.5292 16.675 26.719 13.862 23.2055 13.6006ZM23.2055 26.7763V23.5754H22.1277V26.7763C19.2096 26.5177 16.8763 24.187 16.6203 21.2689H19.8213V20.1912H16.6203C16.879 17.2731 19.2096 14.9397 22.1277 14.6838V17.8847H23.2055V14.6838C26.1235 14.9424 28.4569 17.2731 28.7128 20.1912H25.5119V21.2689H28.7128C28.4542 24.187 26.1235 26.5203 23.2055 26.7763Z" fill="black"/>
<path d="M50.9284 19.3989C50.8718 19.3989 50.8422 19.3639 50.8422 19.2911L50.8853 4.58769C50.8853 4.5311 50.9149 4.50146 50.9715 4.50146H55.296C56.0666 4.50146 56.7753 4.69007 57.4246 5.06729C58.074 5.44451 58.5913 5.95106 58.9766 6.58694C59.3619 7.22282 59.5532 7.93954 59.5532 8.73709C59.5532 9.26519 59.4751 9.73941 59.3188 10.1597C59.1625 10.5801 58.9766 10.9384 58.761 11.2294C58.5482 11.5231 58.3542 11.7387 58.1844 11.8815C58.955 12.7383 59.3403 13.7433 59.3403 14.8992L59.3619 19.2884C59.3619 19.3612 59.3269 19.3962 59.2541 19.3962H56.8345C56.778 19.3962 56.7483 19.3746 56.7483 19.3315V14.9019C56.7483 14.3873 56.5651 13.9427 56.2014 13.5655C55.8376 13.1883 55.3903 12.9997 54.8649 12.9997H53.453L53.4315 19.2911C53.4315 19.3639 53.4019 19.3989 53.3453 19.3989H50.9257H50.9284ZM53.453 10.4319H55.2933C55.7352 10.4319 56.1286 10.2675 56.4708 9.9388C56.813 9.61008 56.9854 9.2113 56.9854 8.73978C56.9854 8.26826 56.8184 7.89104 56.4816 7.56232C56.1448 7.2336 55.7514 7.06924 55.2933 7.06924H53.453V10.4319Z" fill="black"/>
<path d="M60.4316 19.2938L63.0856 4.59038C63.0991 4.5338 63.1341 4.50416 63.1934 4.50416H66.2973C66.3539 4.50416 66.3889 4.5338 66.4051 4.59038L68.9513 19.2938C68.9648 19.3666 68.9379 19.4016 68.8651 19.4016H66.4886C66.432 19.4016 66.397 19.3666 66.3809 19.2938L66.1464 17.731H63.2365L63.0021 19.2938C62.9886 19.3666 62.9509 19.4016 62.8943 19.4016H60.5178C60.4612 19.4016 60.4316 19.3666 60.4316 19.2938ZM65.7207 15.4408L64.8423 9.42686L64.713 8.6347L64.6268 9.42686L63.6622 15.4408H65.7207Z" fill="black"/>
<path d="M70.3821 19.3989C70.3255 19.3989 70.2958 19.3639 70.2958 19.2911L70.339 4.58769C70.339 4.5311 70.3686 4.50146 70.4252 4.50146H74.7497C75.5203 4.50146 76.2289 4.69007 76.8783 5.06729C77.5276 5.44451 78.045 5.95106 78.4303 6.58694C78.8156 7.22282 79.0069 7.93954 79.0069 8.73709C79.0069 9.26519 78.9287 9.73941 78.7725 10.1597C78.6162 10.5801 78.4303 10.9384 78.2147 11.2294C78.0019 11.5231 77.8079 11.7387 77.6381 11.8815C78.4087 12.7383 78.794 13.7433 78.794 14.8992L78.8156 19.2884C78.8156 19.3612 78.7806 19.3962 78.7078 19.3962H76.2882C76.2316 19.3962 76.202 19.3746 76.202 19.3315V14.9019C76.202 14.3873 76.0188 13.9427 75.655 13.5655C75.2913 13.1883 74.844 12.9997 74.3186 12.9997H72.9067L72.8852 19.2911C72.8852 19.3639 72.8555 19.3989 72.799 19.3989H70.3794H70.3821ZM72.9067 10.4319H74.747C75.1889 10.4319 75.5823 10.2675 75.9245 9.9388C76.2667 9.61008 76.4391 9.2113 76.4391 8.73978C76.4391 8.26826 76.2721 7.89104 75.9352 7.56232C75.5984 7.2336 75.2051 7.06924 74.747 7.06924H72.9067V10.4319Z" fill="black"/>
<path d="M80.7205 19.3989C80.6478 19.3989 80.6128 19.3639 80.6128 19.2911L80.6343 4.58769C80.6343 4.5311 80.664 4.50146 80.7205 4.50146H83.1186C83.1751 4.50146 83.2048 4.5311 83.2048 4.58769L83.2263 19.2911C83.2263 19.3639 83.1967 19.3989 83.1401 19.3989H80.7205Z" fill="black"/>
<path d="M87.2491 19.3989C87.1925 19.3989 87.1629 19.3639 87.1629 19.2911V7.09349H84.3795C84.3068 7.09349 84.2718 7.05847 84.2718 6.98572L84.2933 4.58769C84.2933 4.5311 84.323 4.50146 84.3795 4.50146H92.514C92.584 4.50146 92.6218 4.5311 92.6218 4.58769V6.98572C92.6218 7.05847 92.5921 7.09349 92.5355 7.09349H89.7307L89.7522 19.2938C89.7522 19.3666 89.7226 19.4016 89.666 19.4016H87.2464L87.2491 19.3989Z" fill="black"/>
<path d="M95.6611 19.3989C95.618 19.3989 95.5964 19.3692 95.5964 19.3127L95.618 13.2341L92.7511 4.58769C92.7376 4.5311 92.7592 4.50146 92.8158 4.50146H95.1922C95.2623 4.50146 95.3054 4.5311 95.3216 4.58769L96.9059 10.3457L98.5118 4.58769C98.5252 4.5311 98.5603 4.50146 98.6195 4.50146H101.018C101.074 4.50146 101.096 4.5311 101.082 4.58769L98.1938 13.1478L98.2154 19.3127C98.2154 19.3692 98.1857 19.3989 98.1291 19.3989H95.6611Z" fill="black"/>
<path d="M54.4796 36.7374C53.709 36.7374 53.0058 36.5408 52.3726 36.1501C51.7367 35.7567 51.2302 35.2367 50.8529 34.5873C50.4757 33.938 50.2871 33.2212 50.2871 32.4372V31.4537C50.2871 31.3836 50.3221 31.3459 50.3949 31.3459H52.7929C52.8495 31.3459 52.8791 31.381 52.8791 31.4537V32.4372C52.8791 32.9087 53.0354 33.3102 53.3507 33.647C53.6632 33.9838 54.0431 34.1508 54.485 34.1508C54.9269 34.1508 55.3041 33.9784 55.6194 33.6362C55.9319 33.294 56.0909 32.8952 56.0909 32.4372C56.0909 31.9091 55.7487 31.4537 55.0643 31.0684C54.8353 30.9391 54.4796 30.7397 53.9946 30.4702C53.5096 30.1981 53.0516 29.9421 52.6259 29.6996C51.8418 29.2443 51.2598 28.6677 50.8826 27.9779C50.5054 27.2854 50.3141 26.5041 50.3141 25.6338C50.3141 24.8335 50.5054 24.1168 50.8907 23.4836C51.276 22.8477 51.7852 22.3466 52.4211 21.9747C53.057 21.6029 53.744 21.417 54.4877 21.417C55.2314 21.417 55.94 21.6056 56.5759 21.9828C57.2118 22.3601 57.7183 22.8666 58.0955 23.5025C58.4727 24.1384 58.6614 24.847 58.6614 25.6311V27.3851C58.6614 27.4417 58.6317 27.4714 58.5751 27.4714H56.1771C56.1205 27.4714 56.0909 27.4417 56.0909 27.3851L56.0693 25.6311C56.0693 25.1326 55.913 24.7257 55.5978 24.4105C55.2826 24.0979 54.9134 23.939 54.485 23.939C54.0566 23.939 53.6632 24.106 53.3507 24.4428C53.0354 24.7796 52.8791 25.173 52.8791 25.6311C52.8791 26.0891 52.9788 26.4933 53.1782 26.8085C53.3776 27.1238 53.7413 27.4229 54.2695 27.7085C54.3395 27.7516 54.4796 27.827 54.6871 27.9321C54.8946 28.0399 55.1182 28.1611 55.3607 28.2958C55.6032 28.4306 55.8214 28.5491 56.0127 28.6488C56.204 28.7485 56.3226 28.8132 56.3657 28.8401C57.0797 29.2389 57.6429 29.7293 58.0578 30.3059C58.4727 30.8852 58.6775 31.5938 58.6775 32.4345C58.6775 33.2751 58.4889 33.9784 58.109 34.6277C57.7318 35.2771 57.2252 35.7917 56.5893 36.1689C55.9535 36.5461 55.2529 36.7348 54.4796 36.7348V36.7374Z" fill="black"/>
<path d="M60.3669 36.5219C60.2537 36.5219 60.1945 36.4707 60.1945 36.371L60.1729 21.7942C60.1729 21.6811 60.2295 21.6218 60.3454 21.6218H62.2719L65.8905 30.0553L65.7827 21.7942C65.7827 21.6811 65.8474 21.6218 65.974 21.6218H68.0918C68.178 21.6218 68.2211 21.6784 68.2211 21.7942L68.2427 36.3926C68.2427 36.4788 68.2077 36.5219 68.1349 36.5219H66.2515L62.5494 28.6461L62.7003 36.3521C62.7003 36.4653 62.6356 36.5246 62.509 36.5246H60.3696L60.3669 36.5219Z" fill="black"/>
<path d="M70.2123 36.5219C70.1396 36.5219 70.1045 36.4869 70.1045 36.4141L70.1261 21.7107C70.1261 21.6541 70.1557 21.6245 70.2123 21.6245H72.6103C72.6669 21.6245 72.6966 21.6541 72.6966 21.7107L72.7181 36.4141C72.7181 36.4869 72.6885 36.5219 72.6319 36.5219H70.2123Z" fill="black"/>
<path d="M74.7066 36.5219C74.6338 36.5219 74.5988 36.4869 74.5988 36.4141L74.6419 21.7107C74.6419 21.6541 74.6716 21.6245 74.7282 21.6245H78.8371C80.1493 21.6245 81.1867 22.0232 81.9519 22.8235C82.7144 23.6237 83.097 24.7069 83.097 26.0756C83.097 27.0887 82.8976 27.9671 82.4989 28.7081C82.1001 29.4491 81.5774 30.0203 80.9361 30.419C80.2948 30.8178 79.5943 31.0172 78.8371 31.0172H77.2097V36.4114C77.2097 36.4842 77.1747 36.5192 77.1019 36.5192H74.7039L74.7066 36.5219ZM77.2097 28.4306H78.8371C79.2925 28.4306 79.6886 28.2123 80.0254 27.7785C80.3595 27.3447 80.5292 26.7762 80.5292 26.0756C80.5292 25.5179 80.3783 25.0625 80.0793 24.7069C79.7802 24.3512 79.3652 24.1707 78.8371 24.1707L77.2097 24.1923V28.4306Z" fill="black"/>
<path d="M84.6382 36.5219C84.5816 36.5219 84.552 36.4869 84.552 36.4141L84.5735 21.7107C84.5735 21.6541 84.6032 21.6245 84.6598 21.6245H91.5305C91.5871 21.6245 91.6168 21.6595 91.6168 21.7323V24.1303C91.6168 24.1869 91.5871 24.2165 91.5305 24.2165H87.1413V27.5549H91.5305C91.5871 27.5549 91.6168 27.5845 91.6168 27.6411L91.6383 30.0607C91.6383 30.1173 91.6087 30.1469 91.5521 30.1469H87.144V33.8921H91.5521C91.6087 33.8921 91.6383 33.9272 91.6383 33.9999V36.4411C91.6383 36.4976 91.6087 36.5273 91.5521 36.5273H84.6382V36.5219Z" fill="black"/>
<path d="M93.6268 36.5219C93.5702 36.5219 93.5406 36.4869 93.5406 36.4141L93.5837 21.7107C93.5837 21.6541 93.6133 21.6245 93.6699 21.6245H97.9944C98.765 21.6245 99.4737 21.8131 100.123 22.1903C100.772 22.5675 101.29 23.0741 101.675 23.71C102.06 24.3458 102.252 25.0625 102.252 25.8601C102.252 26.3882 102.173 26.8624 102.017 27.2827C101.861 27.7031 101.675 28.0614 101.459 28.3524C101.247 28.6461 101.053 28.8617 100.883 29.0045C101.653 29.8613 102.039 30.8663 102.039 32.0222L102.06 36.4114C102.06 36.4842 102.025 36.5192 101.953 36.5192H99.5329C99.4764 36.5192 99.4467 36.4976 99.4467 36.4545V32.0249C99.4467 31.5103 99.2635 31.0657 98.8998 30.6885C98.536 30.3113 98.0887 30.1227 97.5633 30.1227H96.1515L96.1299 36.4141C96.1299 36.4869 96.1003 36.5219 96.0437 36.5219H93.6241H93.6268ZM96.1515 27.5549H97.9917C98.4336 27.5549 98.827 27.3905 99.1692 27.0618C99.5114 26.7331 99.6838 26.3343 99.6838 25.8628C99.6838 25.3913 99.5168 25.014 99.18 24.6853C98.8432 24.3566 98.4498 24.1923 97.9917 24.1923H96.1515V27.5549Z" fill="black"/>
</g>
<defs>
<clipPath id="clip0_1136_12454">
<rect width="99.8577" height="40.5402" fill="white" transform="translate(2.39648 0.459961)"/>
</clipPath>
</defs>
</svg>
