<svg width="1224" height="1210" viewBox="0 0 1224 1210" fill="none" xmlns="http://www.w3.org/2000/svg">
<g filter="url(#filter0_f_703_5295)">
<ellipse cx="612.138" cy="605.277" rx="130.195" ry="122.937" transform="rotate(-8.27194 612.138 605.277)" fill="#5578F8"/>
</g>
<g filter="url(#filter1_f_703_5295)">
<ellipse cx="623.205" cy="635.257" rx="98.6215" ry="93.2685" transform="rotate(-8.27194 623.205 635.257)" fill="#D87DFB"/>
</g>
<g filter="url(#filter2_f_703_5295)">
<ellipse cx="557.44" cy="564.864" rx="123.682" ry="74.3015" transform="rotate(-8.27194 557.44 564.864)" fill="#FCDF79"/>
</g>
<g filter="url(#filter3_f_703_5295)">
<path d="M746.211 450.996C751.4 486.69 742.612 510.873 678.553 544.864C645.422 555.483 614.612 506.576 609.423 470.883C604.234 435.19 630.648 401.803 668.421 396.311C706.194 390.82 741.021 415.303 746.211 450.996Z" fill="white" fill-opacity="0.9"/>
</g>
<g opacity="0.2">
<path d="M739.259 533.567L629.259 450.504L611.552 587.185L721.637 669.585L739.259 533.567Z" fill="url(#paint0_linear_703_5295)" stroke="white" stroke-width="1.99628"/>
<path d="M593.315 723.184L484.065 639.543L611.6 587.252L721.671 669.637L593.315 723.184Z" stroke="white" stroke-width="1.99628"/>
<path d="M502.25 504.306L629.121 451.929L611.585 587.283L484.051 639.574L502.25 504.306Z" fill="url(#paint1_linear_703_5295)" stroke="white" stroke-width="1.99628"/>
</g>
<defs>
<filter id="filter0_f_703_5295" x="0.762146" y="0.857727" width="1222.75" height="1208.84" filterUnits="userSpaceOnUse" color-interpolation-filters="sRGB">
<feFlood flood-opacity="0" result="BackgroundImageFix"/>
<feBlend mode="normal" in="SourceGraphic" in2="BackgroundImageFix" result="shape"/>
<feGaussianBlur stdDeviation="240.656" result="effect1_foregroundBlur_703_5295"/>
</filter>
<filter id="filter1_f_703_5295" x="254.461" y="271.643" width="737.487" height="727.228" filterUnits="userSpaceOnUse" color-interpolation-filters="sRGB">
<feFlood flood-opacity="0" result="BackgroundImageFix"/>
<feBlend mode="normal" in="SourceGraphic" in2="BackgroundImageFix" result="shape"/>
<feGaussianBlur stdDeviation="135.109" result="effect1_foregroundBlur_703_5295"/>
</filter>
<filter id="filter2_f_703_5295" x="261.48" y="316.105" width="591.92" height="497.519" filterUnits="userSpaceOnUse" color-interpolation-filters="sRGB">
<feFlood flood-opacity="0" result="BackgroundImageFix"/>
<feBlend mode="normal" in="SourceGraphic" in2="BackgroundImageFix" result="shape"/>
<feGaussianBlur stdDeviation="86.5455" result="effect1_foregroundBlur_703_5295"/>
</filter>
<filter id="filter3_f_703_5295" x="475.686" y="262.456" width="404.862" height="416.97" filterUnits="userSpaceOnUse" color-interpolation-filters="sRGB">
<feFlood flood-opacity="0" result="BackgroundImageFix"/>
<feBlend mode="normal" in="SourceGraphic" in2="BackgroundImageFix" result="shape"/>
<feGaussianBlur stdDeviation="66.5427" result="effect1_foregroundBlur_703_5295"/>
</filter>
<linearGradient id="paint0_linear_703_5295" x1="607.257" y1="598.343" x2="757.516" y2="518.364" gradientUnits="userSpaceOnUse">
<stop stop-color="#CEDCF7"/>
<stop offset="1" stop-color="white" stop-opacity="0.8"/>
</linearGradient>
<linearGradient id="paint1_linear_703_5295" x1="488.414" y1="583.899" x2="638.385" y2="503.776" gradientUnits="userSpaceOnUse">
<stop stop-color="#DCE8FF"/>
<stop offset="1" stop-color="white" stop-opacity="0.8"/>
</linearGradient>
</defs>
</svg>
