<svg width="116" height="42" viewBox="0 0 116 42" fill="none" xmlns="http://www.w3.org/2000/svg">
<path d="M40.1372 20.4341C40.1069 19.6066 40.2456 18.7816 40.545 18.0085C40.8444 17.2355 41.2983 16.5304 41.8794 15.9357C42.4606 15.341 43.1569 14.8688 43.9267 14.5476C44.6966 14.2264 45.5239 14.0627 46.3591 14.0665C49.506 14.0665 51.3686 15.8971 51.9306 18.0463L49.9557 18.7069C49.7819 17.9057 49.3225 17.1934 48.662 16.7007C48.0013 16.208 47.1837 15.9679 46.3591 16.0245C44.3199 16.0245 42.2808 17.497 42.2808 20.4739C42.2808 23.4508 44.2718 24.8676 46.3831 24.8676C47.2123 24.8914 48.0256 24.6384 48.6924 24.1491C49.3592 23.6598 49.8408 22.9625 50.0601 22.1693L51.9787 22.7902C51.6503 24.0012 50.9137 25.0643 49.8913 25.8028C48.869 26.5413 47.6224 26.9107 46.3591 26.8494C45.5163 26.8651 44.6795 26.708 43.9009 26.3879C43.1223 26.0677 42.4189 25.5916 41.8348 24.9892C41.2506 24.3869 40.7982 23.6713 40.5061 22.8874C40.214 22.1036 40.0884 21.2684 40.1372 20.4341Z" fill="#020202"/>
<path d="M55.784 26.5551H53.761V14.0347H55.784V18.9457C56.0787 18.6002 56.4485 18.3256 56.8656 18.1422C57.2828 17.9588 57.7365 17.8716 58.1925 17.8871C60.2879 17.8871 61.2994 19.3755 61.2994 21.2301V26.5551H59.3325V21.5724C59.3694 21.33 59.3507 21.0825 59.2778 20.8482C59.205 20.614 59.0798 20.399 58.9117 20.2193C58.7435 20.0397 58.5367 19.8998 58.3066 19.8102C58.0764 19.7206 57.8289 19.6836 57.5823 19.7019C57.3377 19.7021 57.0958 19.7527 56.8718 19.8504C56.6479 19.9483 56.4469 20.0911 56.2816 20.27C56.1163 20.4488 55.9903 20.6597 55.9116 20.8895C55.8328 21.1192 55.8031 21.3625 55.8242 21.6042L55.784 26.5551Z" fill="#020202"/>
<path d="M65.8195 21.7315L67.9951 21.3972C68.4849 21.3335 68.6213 21.0868 68.6213 20.7923C68.6213 20.0839 68.1396 19.5108 67.0157 19.5108C66.799 19.4923 66.5807 19.5177 66.3742 19.5854C66.1676 19.6531 65.9771 19.7617 65.8142 19.9046C65.6512 20.0475 65.5194 20.2218 65.4264 20.4168C65.3335 20.6118 65.2815 20.8235 65.2736 21.039L63.4271 20.6251C63.5796 19.1685 64.9123 17.8711 66.9996 17.8711C69.6168 17.8711 70.6123 19.3436 70.6123 21.0549V25.2337C70.6077 25.6869 70.6426 26.1396 70.7167 26.5868H68.83C68.7653 26.2324 68.7384 25.8722 68.7498 25.5123C68.468 25.9405 68.0783 26.2884 67.6193 26.5216C67.1602 26.7547 66.6478 26.865 66.1325 26.8415C65.7734 26.8708 65.4119 26.8275 65.0701 26.7144C64.7283 26.6013 64.4131 26.4206 64.1437 26.1832C63.8743 25.9458 63.6562 25.6568 63.5027 25.3336C63.3492 25.0103 63.2634 24.6595 63.2505 24.3025C63.2505 22.7662 64.3664 21.9385 65.8195 21.7315ZM68.6213 23.0846V22.7026L66.4056 23.0289C66.1044 23.0391 65.8189 23.1639 65.6081 23.3772C65.3973 23.5907 65.2775 23.8764 65.2736 24.1751C65.2761 24.3293 65.3109 24.4813 65.3758 24.6214C65.4406 24.7616 65.5341 24.8868 65.6503 24.9893C65.7665 25.0918 65.903 25.1693 66.0509 25.2169C66.1989 25.2644 66.3551 25.281 66.51 25.2655C66.8022 25.2951 67.0976 25.2582 67.3735 25.1577C67.6493 25.0573 67.8985 24.8957 68.102 24.6855C68.3055 24.4753 68.458 24.2219 68.548 23.9445C68.638 23.6671 68.6631 23.3731 68.6213 23.0846Z" fill="#020202"/>
<path d="M74.0484 13.8595C74.2237 13.8573 74.3976 13.8898 74.5602 13.9549C74.7228 14.0199 74.8708 14.1163 74.9954 14.2385C75.1202 14.3607 75.2192 14.5061 75.2868 14.6665C75.3543 14.8269 75.3891 14.999 75.3891 15.1728C75.3891 15.519 75.2504 15.851 75.0034 16.0958C74.7566 16.3407 74.4217 16.4782 74.0725 16.4782C73.7233 16.4782 73.3884 16.3407 73.1415 16.0958C72.8945 15.851 72.7559 15.519 72.7559 15.1728C72.7558 14.83 72.8909 14.5006 73.1324 14.2552C73.3739 14.0099 73.7026 13.8678 74.0484 13.8595ZM73.0609 26.5947V18.1338H75.06V26.555L73.0609 26.5947Z" fill="#020202"/>
<path d="M79.7001 26.5548H77.677V18.1336H79.6519V19.2559C79.9082 18.825 80.2769 18.4705 80.7189 18.2296C81.1611 17.9887 81.6606 17.8703 82.1648 17.8868C84.236 17.8868 85.2315 19.3752 85.2315 21.2298V26.5548H83.2084V21.572C83.2084 20.5374 82.7348 19.7016 81.4663 19.7016C81.2138 19.7031 80.9645 19.7576 80.7347 19.8614C80.505 19.9652 80.3 20.116 80.1332 20.3039C79.9664 20.4918 79.8416 20.7126 79.7669 20.9518C79.6923 21.1909 79.6696 21.443 79.7001 21.6915V26.5548Z" fill="#020202"/>
<path d="M87.6963 26.5551V14.0347H89.7193V26.5551H87.6963Z" fill="#020202"/>
<path d="M93.332 13.8594C93.6833 13.8594 94.0203 13.9977 94.2686 14.2441C94.5174 14.4903 94.6566 14.8244 94.6566 15.1727C94.6547 15.4302 94.5763 15.6815 94.4314 15.8949C94.2861 16.1084 94.0805 16.2744 93.8402 16.3723C93.5999 16.4701 93.3359 16.4952 93.0812 16.4446C92.8265 16.394 92.5927 16.2699 92.409 16.0877C92.2254 15.9056 92.1002 15.6738 92.0491 15.4213C91.9981 15.1688 92.0235 14.9071 92.1221 14.6689C92.2208 14.4307 92.3883 14.2268 92.6036 14.0827C92.8189 13.9387 93.0723 13.861 93.332 13.8594ZM92.3365 26.5946V18.1337H94.3435V26.5549L92.3365 26.5946Z" fill="#020202"/>
<path d="M98.984 26.5554H96.9609V18.1343H98.9279V19.2565C99.1849 18.8268 99.554 18.4733 99.996 18.2326C100.438 17.9918 100.937 17.8727 101.441 17.8874C103.52 17.8874 104.515 19.3759 104.515 21.2305V26.5554H102.492V21.5727C102.529 21.3304 102.51 21.0828 102.438 20.8486C102.365 20.6143 102.24 20.3994 102.071 20.2197C101.903 20.04 101.697 19.9002 101.466 19.8105C101.236 19.721 100.988 19.6839 100.742 19.7023C100.49 19.7037 100.241 19.7581 100.012 19.862C99.782 19.9659 99.5773 20.1168 99.411 20.3049C99.2447 20.4929 99.1213 20.7139 99.0475 20.953C98.9737 21.1922 98.9522 21.4441 98.984 21.6922V26.5554Z" fill="#020202"/>
<path d="M111.435 21.6918L115 26.5551H112.519L110.022 23.0847L108.979 24.1752V26.563H106.971V14.0347H108.979V21.5405L112.239 18.1339H114.928L111.435 21.6918Z" fill="#020202"/>
<path d="M16.1652 10.652L24.9159 15.6346V25.6397L16.1893 30.6543L7.43859 25.6796V15.6744L16.1652 10.652ZM16.1652 3.29736L12.9539 5.14397L4.21127 10.1664L1 12.0131V15.6903V25.6875V29.3648L4.21127 31.1955L12.962 36.1781L16.1732 38.0088L19.3846 36.1622L28.1112 31.1398L31.3224 29.3011V25.6239V15.6187V11.9414L28.1112 10.1107L19.3604 5.12806L16.1492 3.29736H16.1652Z" fill="#020202"/>
</svg>
