<svg width="138" height="42" viewBox="0 0 138 42" fill="none" xmlns="http://www.w3.org/2000/svg">
<path d="M13.3498 23.1547C12.5765 24.3967 11.2174 25.1699 9.69426 25.1699C8.49917 25.1699 7.49155 24.7482 6.67139 23.9046C5.85123 23.061 5.42943 22.0299 5.42943 20.8348C5.42943 19.6398 5.85123 18.6087 6.67139 17.7651C7.49155 16.8981 8.49917 16.4763 9.69426 16.4763C11.194 16.4763 12.5765 17.273 13.3264 18.515C13.3264 18.515 14.4043 17.7651 16.5836 16.242C15.0839 13.969 12.5297 12.5396 9.69426 12.5396C7.42125 12.5396 5.4763 13.3597 3.85942 14.9766C2.26596 16.5934 1.46924 18.5384 1.46924 20.8348C1.46924 23.1079 2.26596 25.0763 3.88284 26.6931C5.49973 28.3101 7.42125 29.1067 9.69426 29.1067C12.5062 29.1067 15.0604 27.6773 16.5602 25.4043L13.3498 23.1547Z" fill="#020202"/>
<path d="M19.0517 27.06C19.8249 28.302 21.1841 29.0753 22.7072 29.0753C23.9023 29.0753 24.9099 28.6535 25.7301 27.8099C26.5502 26.9663 26.972 25.9353 26.972 24.7401C26.972 23.5451 26.5502 22.5139 25.7301 21.6704C24.9099 20.8033 23.9023 20.3816 22.7072 20.3816C21.2075 20.3816 19.8249 21.1783 19.0751 22.4203C19.0751 22.4203 17.9971 21.6704 15.8179 20.1473C17.3176 17.8742 19.8718 16.4448 22.7072 16.4448C24.9802 16.4448 26.9252 17.265 28.542 18.8819C30.1355 20.4987 30.9322 22.4437 30.9322 24.7401C30.9322 27.0131 30.1355 28.9815 28.5186 30.5984C26.9017 32.2153 24.9802 33.012 22.7072 33.012C19.8953 33.012 17.3411 31.5826 15.8413 29.3096L19.0517 27.06Z" fill="#020202"/>
<path d="M44.5003 17.7178C42.8835 17.7178 41.4775 18.2568 40.3292 19.3112C39.181 20.3658 38.5952 21.7248 38.5952 23.3886C38.5952 25.0524 39.181 26.4349 40.3292 27.5128C41.4775 28.5907 42.8835 29.1297 44.5003 29.1297C46.3515 29.1297 48.0387 28.3564 49.0699 26.9739L46.7733 25.2867C46.2344 26.0131 45.4845 26.388 44.5003 26.388C43.6802 26.388 42.9538 26.1068 42.3445 25.5444C41.7352 24.9586 41.4306 24.2556 41.4306 23.3886C41.4306 22.5216 41.7352 21.842 42.3445 21.303C42.9538 20.7641 43.6802 20.4829 44.5003 20.4829C45.4845 20.4829 46.2344 20.8344 46.7733 21.5608L49.0463 19.8502C48.0153 18.5145 46.3515 17.7178 44.5003 17.7178Z" fill="#020202"/>
<path d="M53.0424 23.0605C53.0424 21.3029 54.2609 20.5062 55.6669 20.5062C56.9089 20.5062 57.9868 21.4435 57.9868 22.9433V28.8953H60.8457V22.8027C60.8457 19.5923 59.2521 17.7177 56.4402 17.7177C55.8075 17.7177 55.128 17.8817 54.425 18.2332C53.7454 18.5613 53.2768 19.0299 53.0424 19.6392V12H50.1836V28.8953H53.0424V23.0605Z" fill="#020202"/>
<path d="M73.802 28.8954V17.9521H70.9431V19.3112C70.2167 18.2099 68.7639 17.7178 67.5453 17.7178C66.0221 17.7178 64.7099 18.2568 63.6085 19.3112C62.5072 20.3658 61.9683 21.7248 61.9683 23.412C61.9683 25.0992 62.5307 26.4818 63.632 27.5362C64.7333 28.5907 66.0456 29.1063 67.5453 29.1063C68.7639 29.1063 70.287 28.5204 70.9431 27.4894V28.8954H73.802ZM70.9431 23.412C71.0603 26.1303 67.5453 27.2785 65.8113 25.5444C65.2255 24.982 64.9209 24.279 64.9209 23.412C64.9209 22.545 65.2255 21.842 65.8113 21.303C66.4205 20.7406 67.1235 20.4594 67.9437 20.4594C68.7404 20.4594 69.4434 20.7172 70.0292 21.2562C70.6385 21.7952 70.9431 22.4982 70.9431 23.412Z" fill="#020202"/>
<path d="M75.7529 17.952V28.8953H78.5883V17.952H75.7529ZM77.1823 15.4446C78.1899 15.4446 78.9867 14.6714 78.9867 13.7106C78.9867 12.7498 78.1899 12 77.1823 12C76.1747 12 75.3311 12.7498 75.3311 13.7106C75.3311 14.6714 76.1512 15.4446 77.1823 15.4446Z" fill="#020202"/>
<path d="M83.3872 23.0606C83.3872 21.2796 84.3713 20.5064 85.7773 20.5064C87.0662 20.5064 87.8629 21.3734 87.8629 22.9434V28.8954H90.7218V22.4278C90.7218 19.3581 89.2454 17.7178 86.6444 17.7178C85.3321 17.7178 83.973 18.4442 83.3872 19.569V17.9521H80.5283V28.8954H83.3872V23.0606Z" fill="#020202"/>
<path d="M92.5352 17.9521V34.2147H95.3944V27.4425C95.9562 28.497 97.3391 29.1297 98.8154 29.1297C100.292 29.1297 101.557 28.6142 102.588 27.5597C103.642 26.5052 104.158 25.1226 104.158 23.412C104.158 21.7482 103.642 20.3658 102.588 19.3112C101.534 18.2568 100.292 17.7178 98.8154 17.7178C97.3391 17.7178 95.9562 18.3739 95.3944 19.4284V17.9521H92.5352ZM95.4406 23.4589C95.4406 21.678 96.73 20.4594 98.3461 20.4594C99.1431 20.4594 99.8225 20.7406 100.385 21.303C100.948 21.8654 101.228 22.5918 101.228 23.4589C101.228 25.2164 99.9632 26.4115 98.3461 26.4115C96.7532 26.4115 95.4406 25.2632 95.4406 23.4589Z" fill="#020202"/>
<path d="M116.589 28.8954V17.9521H113.73V19.3112C113.003 18.2099 111.551 17.7178 110.332 17.7178C108.809 17.7178 107.497 18.2568 106.395 19.3112C105.294 20.3658 104.755 21.7248 104.755 23.412C104.755 25.0992 105.317 26.4818 106.418 27.5362C107.52 28.5907 108.832 29.1063 110.332 29.1063C111.551 29.1063 113.074 28.5204 113.73 27.4894V28.8954H116.589ZM113.73 23.412C113.847 26.1303 110.332 27.2785 108.598 25.5444C108.012 24.982 107.708 24.279 107.708 23.412C107.708 22.545 108.012 21.842 108.598 21.303C109.207 20.7406 109.91 20.4594 110.73 20.4594C111.527 20.4594 112.23 20.7172 112.816 21.2562C113.425 21.7952 113.73 22.4982 113.73 23.412Z" fill="#020202"/>
<path d="M122.687 24.7008C123.531 24.8884 123.906 25.193 123.883 25.7319C123.883 26.3646 123.273 26.8098 122.452 26.8332C121.421 26.8567 120.508 26.224 120.437 25.4507H117.766C117.789 26.5755 118.234 27.466 119.102 28.1455C119.992 28.8016 121.023 29.1297 122.171 29.1297C123.39 29.1297 124.444 28.8251 125.312 28.2392C126.202 27.6534 126.647 26.8098 126.647 25.7554C126.647 24.8884 126.296 23.1308 123.788 22.4747L121.961 22.0294C121.187 21.8186 120.812 21.514 120.812 21.1156C120.812 20.3892 121.281 20.0376 122.195 20.0376C122.945 20.0376 123.647 20.4126 123.671 21.1624H126.389C126.343 19.9908 125.898 19.1238 125.077 18.5614C124.257 17.999 123.273 17.7178 122.125 17.7178C121.023 17.7178 120.086 18.0458 119.289 18.702C118.493 19.3346 118.094 20.108 118.094 20.975C118.094 22.2872 118.375 23.5292 121.187 24.326L122.687 24.7008Z" fill="#020202"/>
<path d="M132.039 24.7008C132.883 24.8884 133.258 25.193 133.234 25.7319C133.234 26.3646 132.625 26.8098 131.805 26.8332C130.774 26.8567 129.86 26.224 129.79 25.4507H127.119C127.142 26.5755 127.587 27.466 128.454 28.1455C129.345 28.8016 130.376 29.1297 131.524 29.1297C132.743 29.1297 133.797 28.8251 134.664 28.2392C135.555 27.6534 136 26.8098 136 25.7554C136 24.8884 135.648 23.1308 133.141 22.4747L131.313 22.0294C130.54 21.8186 130.165 21.514 130.165 21.1156C130.165 20.3892 130.633 20.0376 131.548 20.0376C132.297 20.0376 133 20.4126 133.024 21.1624H135.742C135.695 19.9908 135.25 19.1238 134.429 18.5614C133.609 17.999 132.625 17.7178 131.477 17.7178C130.376 17.7178 129.438 18.0458 128.641 18.702C127.845 19.3346 127.446 20.108 127.446 20.975C127.446 22.2872 127.728 23.5292 130.54 24.326L132.039 24.7008Z" fill="#020202"/>
</svg>
