<svg width="150" height="43" viewBox="0 0 150 43" fill="none" xmlns="http://www.w3.org/2000/svg">
<path d="M82.9144 33.8487C82.9144 34.6686 83.024 34.757 83.8501 34.6063L83.885 34.5975C85.2032 34.3359 86.084 33.2656 86.0853 31.8976C86.0903 27.6452 86.0903 23.3916 86.0853 19.1392C86.0853 18.2261 85.9719 18.1348 85.0537 18.3092C85.0176 18.3157 84.9814 18.3268 84.9478 18.3354C83.7504 18.6308 82.9294 19.6463 82.9169 20.9097C82.902 23.0739 82.9132 25.2356 82.9132 27.3973H82.9107C82.9107 29.5478 82.9119 31.6983 82.9144 33.8487ZM67.1022 34.7196C67.5109 34.7271 67.7401 34.4966 67.9133 34.1639C70.0264 30.1096 72.1407 26.0554 74.2576 22.0036C74.4034 21.7382 74.4819 21.4405 74.4819 21.1377C74.4557 20.653 74.2215 20.1685 73.9299 19.7074C73.4627 18.9724 72.8834 18.3269 72.304 17.6816C72.2255 17.5942 72.167 17.4359 72.0399 17.4647C71.9116 17.4921 71.9302 17.6603 71.9091 17.7738C71.6661 19.0646 71.3958 20.3453 70.8214 21.5389C69.7112 23.8367 68.4765 26.0694 67.3091 28.3367C67.2617 28.4264 67.2269 28.5685 67.0948 28.5485C66.9627 28.5273 66.9341 28.3803 66.878 28.2769C65.7703 26.1414 64.6639 24.0046 63.5575 21.8666C63.038 20.8611 62.6505 19.7921 62.4075 18.6869C62.3303 18.3345 62.2431 17.9842 62.1596 17.6341C62.1272 17.5021 62.0773 17.3737 61.9316 17.542C61.1591 18.4328 60.348 19.2987 59.8933 20.4126C59.6603 20.9819 59.7064 21.5277 59.9954 22.0784C62.1122 26.1041 64.2216 30.1321 66.3248 34.164C66.4954 34.4879 66.7098 34.7134 67.1022 34.7196ZM23.5019 9.60906C23.4408 14.1405 23.4943 18.672 23.4222 23.2035C23.385 25.5583 23.3923 27.9156 23.4 30.2729C23.4021 31.4691 23.1568 32.5617 22.3033 33.4601C22.2248 33.5497 22.1524 33.6457 22.0903 33.7479C21.9008 34.0282 21.9445 34.2487 22.2288 34.4531C24.1661 35.851 26.0225 37.3511 27.8802 38.85C27.9649 38.921 28.0397 39.0266 28.2091 39.0057C27.5899 37.6177 27.1688 36.1911 26.8137 34.7421C26.6767 34.1814 26.5396 33.6195 26.491 33.0426C26.3714 31.6285 26.4063 30.2082 26.3789 28.7915C26.3315 26.3644 26.3552 23.9361 26.344 21.504C26.3353 20.6755 26.3864 19.8457 26.496 19.0248C26.6493 17.9197 26.9122 16.849 27.6024 15.9347C28.0535 15.3367 28.0609 15.3391 27.6199 14.7086C26.0886 12.5157 25.2563 10.0426 24.6857 7.46592C24.1712 5.14617 23.8922 2.79258 23.6539 0.432617H23.5617C23.5307 3.494 23.5431 6.55158 23.5019 9.60906ZM144.568 34.6162C144.45 34.8479 144.36 35.0946 144.219 35.4211C145.587 35.0735 146.902 34.8666 148.026 34.0904C148.441 33.8026 148.702 33.4126 148.751 32.8943C148.786 32.5118 148.838 32.1318 148.874 31.7493C149.044 29.9626 149.007 28.1735 148.963 26.3818C148.898 23.8725 147.875 21.8304 145.949 20.2356C144.554 19.0804 142.97 18.4413 141.111 18.5648C139.86 18.647 138.65 18.9136 137.449 19.2426C135.639 19.7433 133.74 19.8418 131.886 19.5305C130.74 19.3424 129.643 18.9471 128.498 18.7517C126.736 18.4502 125.014 18.409 123.395 19.3446C120.93 20.7714 119.37 22.8297 119.117 25.6929C118.921 27.9455 119.014 30.2056 119.19 32.462C119.274 33.516 119.806 34.139 120.732 34.519C120.866 34.5738 120.999 34.6311 121.133 34.6835C121.859 34.9626 122.611 35.137 123.362 35.3152C123.476 35.3438 123.623 35.4249 123.704 35.3227C123.784 35.2217 123.669 35.0971 123.622 34.9912C123.157 33.9347 122.671 32.8881 122.509 31.7256C122.415 31.059 122.336 30.3912 122.301 29.7197C122.239 28.47 122.16 27.2116 122.305 25.9732C122.614 23.3268 124.755 21.5289 127.438 21.5575C129.62 21.5825 131.177 22.73 131.831 24.797C131.885 24.9689 131.936 25.1421 131.981 25.3165C132.623 27.857 133.266 30.3987 133.908 32.9404C133.929 33.0227 133.965 33.0999 134.016 33.2357C134.051 33.1211 134.066 33.0762 134.077 33.0301C134.658 30.7214 135.24 28.4127 135.823 26.104C136.004 25.3938 136.181 24.6824 136.466 24.0033C136.73 23.3778 137.171 22.8421 137.734 22.4633C138.701 21.7905 139.771 21.5176 140.949 21.5563C143.428 21.6347 145.556 23.6694 145.726 26.1301C145.813 27.3698 145.746 28.6058 145.696 29.8417C145.628 31.5014 145.327 33.1149 144.568 34.6162ZM97.3797 19.9816C96.9187 18.864 96.2085 18.3941 95.0037 18.4242C94.5838 18.4341 94.5153 18.4876 94.5153 18.9061C94.5153 21.6124 94.4717 24.3174 94.5377 27.0223C94.5913 29.2862 95.5744 31.195 97.2414 32.7C99.1938 34.463 101.536 35.0673 104.136 34.7023C107.773 34.1902 110.842 30.8424 111.044 27.1993C111.116 25.8648 111.058 24.5292 111.088 23.4428V19.1204C111.09 18.9884 111.084 18.8564 111.068 18.7256C111.055 18.561 110.922 18.4328 110.757 18.4289C109.815 18.3208 109.04 18.5786 108.503 19.4034C108.09 20.0438 107.872 20.7914 107.878 21.5551C107.869 23.2381 107.888 24.9216 107.869 26.6049C107.824 30.2704 104.077 32.695 100.731 31.1987C98.7404 30.3065 97.7598 28.6931 97.7062 26.5401C97.6676 24.9531 97.6938 23.3654 97.6988 21.7781C97.7136 21.1639 97.6052 20.5534 97.3797 19.9816ZM11.0451 15.1398C10.8993 15.3254 10.9679 15.4648 11.1085 15.6131C11.6418 16.1776 11.9633 16.8602 12.1837 17.5943C12.4567 18.4975 12.5614 19.4268 12.6038 20.3664C12.6698 21.8092 12.6497 23.252 12.6235 24.6961C12.5876 26.6198 12.5776 28.5435 12.5939 30.4672C12.6111 32.5891 12.3183 34.6561 11.6392 36.672C11.3751 37.4569 11.1111 38.2431 10.7398 39.0754C10.7998 39.0554 10.858 39.0318 10.9142 39.0031C12.849 37.4457 14.7765 35.8783 16.7927 34.4243C17.0517 34.2374 17.0542 34.0029 16.896 33.7615C16.7377 33.5198 16.5645 33.288 16.3789 33.0675C15.8405 32.4271 15.6287 31.6795 15.6164 30.8622C15.5991 29.792 15.5778 28.7229 15.5653 27.6527C15.5194 23.7106 15.5478 19.7673 15.5006 15.8214C15.4397 10.7601 15.4397 5.69925 15.4123 0.638288V0.435035H15.3398C15.1168 2.44488 14.8901 4.4482 14.5051 6.43313C13.9033 9.54937 13 12.553 11.0451 15.1385V15.1398ZM12.3621 39.5177L12.377 39.5676C12.4379 39.5377 12.5027 39.5115 12.5639 39.4766C13.8373 38.7765 15.1902 38.2606 16.5685 37.812C18.325 37.2414 20.1067 37.1791 21.8871 37.6675C23.4249 38.0899 24.9126 38.6792 26.3216 39.4243C26.4088 39.4704 26.4835 39.5626 26.6119 39.5364C26.5994 39.5128 26.5832 39.4903 26.5645 39.4716C24.348 37.7685 22.1303 36.0652 19.9125 34.3624C19.5996 34.1216 19.348 34.1453 19.0427 34.3833C16.8175 36.1002 14.5909 37.812 12.3621 39.5177ZM1.0016 34.2549C1.0016 34.7308 1.07032 34.7919 1.55215 34.7869C2.23508 34.7844 2.89042 34.5178 3.3801 34.0418C4.01552 33.4463 4.22 32.6938 4.22 31.8564V19.6027C4.22 19.3385 4.21487 19.0732 4.22 18.809C4.22469 18.5438 4.08917 18.4241 3.82129 18.4177C3.35267 18.4065 2.90552 18.4777 2.49314 18.7057C1.49123 19.2575 1.00673 20.1183 1.00283 21.2445C0.996464 23.3953 1.00283 25.5457 1.00283 27.6962C1.0016 29.8829 1.0016 32.0695 1.0016 34.2549ZM37.9324 21.9014C37.9286 21.1255 37.8227 20.3665 37.434 19.6725C36.9767 18.8564 36.3426 18.3504 35.3371 18.4164C34.7415 18.4538 34.7116 18.4502 34.7116 19.0655V26.5687C34.7079 26.9288 34.7291 27.2889 34.7751 27.6465C34.9221 28.7628 35.2984 29.8368 35.8778 30.8012C36.4585 31.768 37.2309 32.6052 38.1479 33.2619C39.0662 33.9197 40.109 34.3832 41.2129 34.625C42.3168 34.8654 43.4593 34.8801 44.5695 34.6661C46.4471 34.301 48.1429 33.3005 49.3688 31.8328C50.5923 30.3688 51.2701 28.5248 51.2876 26.6173C51.295 25.391 51.2876 24.164 51.2876 22.9381V18.9335C51.2876 18.7119 51.2876 18.4726 50.9935 18.4365C50.1114 18.332 49.3327 18.5039 48.7932 19.2889C48.3459 19.9378 48.1079 20.7078 48.1129 21.4953C48.1067 23.0826 48.1129 24.6699 48.1092 26.2572C48.1142 26.7145 48.0706 27.1717 47.9796 27.619C47.4214 30.1819 45.0666 31.8714 42.4289 31.606C39.891 31.3505 37.9585 29.2001 37.9423 26.5911C37.9286 25.0275 37.9423 23.4651 37.9324 21.9014ZM19.4961 5.50246C19.2845 11.9301 19.2908 18.8489 19.4961 25.3166C19.6784 18.8516 19.6844 11.9301 19.4961 5.50246Z" fill="#020202"/>
</svg>
