<svg width="122" height="42" viewBox="0 0 122 42" fill="none" xmlns="http://www.w3.org/2000/svg">
<path fill-rule="evenodd" clip-rule="evenodd" d="M18.7037 4.1377C27.9289 4.1377 35.4074 11.6162 35.4074 20.8414C35.4074 30.0666 27.9289 37.5451 18.7037 37.5451C9.4785 37.5451 2 30.0666 2 20.8414C2 11.6162 9.4785 4.1377 18.7037 4.1377ZM24.0892 16.6318L12.312 16.6899L9.48315 20.881L16.1145 20.8835L13.2503 25.1031L25.1039 25.0272L27.924 20.849L21.2695 20.8813L24.0892 16.6318Z" fill="#020202"/>
<path d="M47.0569 27.4485V24.3721L54.062 15.7455H47.2232V12.7314H58.5104V15.5792L51.339 24.3721H58.6559V27.4485H47.0569ZM66.6391 22.9378H66.2026C65.8284 22.9378 65.4473 22.9586 65.0593 23.0001C64.6851 23.0279 64.3456 23.0903 64.0407 23.1872C63.7497 23.2842 63.5071 23.4297 63.3132 23.6237C63.1191 23.8038 63.0222 24.0464 63.0222 24.3513C63.0222 24.5453 63.0638 24.7116 63.1469 24.8502C63.2439 24.9887 63.3616 25.0996 63.5003 25.1827C63.6388 25.2659 63.7981 25.3282 63.9784 25.3698C64.1585 25.3976 64.3318 25.4114 64.4981 25.4114C65.1908 25.4114 65.7175 25.2243 66.0778 24.8502C66.452 24.4622 66.6391 23.9425 66.6391 23.2911V22.9378ZM60.3823 18.5102C60.9919 17.9281 61.6987 17.4916 62.5025 17.2006C63.32 16.9096 64.1515 16.7641 64.9969 16.7641C65.87 16.7641 66.6044 16.875 67.2003 17.0967C67.81 17.3045 68.302 17.6371 68.6762 18.0944C69.0504 18.5379 69.3206 19.106 69.4869 19.799C69.667 20.4779 69.7571 21.2886 69.7571 22.231V27.4485H66.6391V26.3468H66.5767C66.3133 26.7763 65.9116 27.1089 65.3711 27.3446C64.8444 27.5802 64.2694 27.6979 63.6458 27.6979C63.2301 27.6979 62.8004 27.6426 62.357 27.5316C61.9135 27.4207 61.5048 27.2406 61.1306 26.9912C60.7702 26.7417 60.4722 26.4092 60.2368 25.9934C60.0011 25.5777 59.8834 25.065 59.8834 24.4552C59.8834 23.7069 60.0843 23.1041 60.4862 22.6467C60.9019 22.1894 61.4284 21.8361 62.066 21.5866C62.7172 21.3372 63.4379 21.1709 64.2278 21.0877C65.0177 21.0046 65.7868 20.963 66.5352 20.963V20.7967C66.5352 20.284 66.3549 19.9099 65.9947 19.6742C65.6343 19.4248 65.1908 19.3001 64.6643 19.3001C64.1793 19.3001 63.7082 19.404 63.2508 19.6119C62.8073 19.8197 62.4262 20.0692 62.1076 20.3602L60.3823 18.5102ZM83.8173 22.231C83.8173 22.9516 83.7065 23.6445 83.4847 24.3097C83.263 24.9749 82.9374 25.5639 82.5077 26.0766C82.092 26.5755 81.5793 26.9774 80.9695 27.2822C80.3599 27.587 79.6669 27.7395 78.8908 27.7395C78.2534 27.7395 77.6506 27.6148 77.0824 27.3654C76.5143 27.1021 76.0708 26.7487 75.752 26.3052H75.7105V32.4373H72.3014V17.0967H75.5442V18.3647H75.6065C75.9253 17.9489 76.3618 17.5886 76.9161 17.2838C77.4843 16.965 78.1495 16.8057 78.9116 16.8057C79.6599 16.8057 80.3391 16.9512 80.9487 17.2422C81.5585 17.5332 82.0712 17.9281 82.4869 18.427C82.9166 18.9259 83.2423 19.5079 83.4639 20.1731C83.6996 20.8245 83.8173 21.5105 83.8173 22.231ZM80.5122 22.231C80.5122 21.8984 80.4568 21.5728 80.3459 21.254C80.249 20.9353 80.0965 20.6582 79.8886 20.4226C79.6947 20.1731 79.4453 19.9722 79.1403 19.8197C78.8355 19.6673 78.4821 19.5911 78.0802 19.5911C77.6922 19.5911 77.3458 19.6673 77.0408 19.8197C76.736 19.9722 76.4727 20.1731 76.2509 20.4226C76.043 20.672 75.8767 20.956 75.752 21.2748C75.6413 21.5936 75.5857 21.9192 75.5857 22.2518C75.5857 22.5844 75.6413 22.91 75.752 23.2288C75.8767 23.5476 76.043 23.8316 76.2509 24.081C76.4727 24.3305 76.736 24.5314 77.0408 24.6839C77.3458 24.8363 77.6922 24.9125 78.0802 24.9125C78.4821 24.9125 78.8355 24.8363 79.1403 24.6839C79.4453 24.5314 79.6947 24.3305 79.8886 24.081C80.0965 23.8316 80.249 23.5476 80.3459 23.2288C80.4568 22.8962 80.5122 22.5636 80.5122 22.231ZM97.479 22.231C97.479 22.9516 97.3681 23.6445 97.1464 24.3097C96.9247 24.9749 96.599 25.5639 96.1694 26.0766C95.7537 26.5755 95.241 26.9774 94.6312 27.2822C94.0214 27.587 93.3286 27.7395 92.5525 27.7395C91.9151 27.7395 91.3123 27.6148 90.7441 27.3654C90.1758 27.1021 89.7325 26.7487 89.4137 26.3052H89.3721V32.4373H85.9631V17.0967H89.2058V18.3647H89.2682C89.587 17.9489 90.0235 17.5886 90.5778 17.2838C91.146 16.965 91.8112 16.8057 92.5733 16.8057C93.3216 16.8057 94.0006 16.9512 94.6104 17.2422C95.2202 17.5332 95.7329 17.9281 96.1486 18.427C96.5782 18.9259 96.9039 19.5079 97.1256 20.1731C97.3612 20.8245 97.479 21.5105 97.479 22.231ZM94.1739 22.231C94.1739 21.8984 94.1185 21.5728 94.0076 21.254C93.9106 20.9353 93.7581 20.6582 93.5503 20.4226C93.3562 20.1731 93.1068 19.9722 92.802 19.8197C92.4971 19.6673 92.1438 19.5911 91.7418 19.5911C91.3539 19.5911 91.0073 19.6673 90.7025 19.8197C90.3977 19.9722 90.1343 20.1731 89.9126 20.4226C89.7047 20.672 89.5384 20.956 89.4137 21.2748C89.3028 21.5936 89.2474 21.9192 89.2474 22.2518C89.2474 22.5844 89.3028 22.91 89.4137 23.2288C89.5384 23.5476 89.7047 23.8316 89.9126 24.081C90.1343 24.3305 90.3977 24.5314 90.7025 24.6839C91.0073 24.8363 91.3539 24.9125 91.7418 24.9125C92.1438 24.9125 92.4971 24.8363 92.802 24.6839C93.1068 24.5314 93.3562 24.3305 93.5503 24.081C93.7581 23.8316 93.9106 23.5476 94.0076 23.2288C94.1185 22.8962 94.1739 22.5636 94.1739 22.231ZM106.755 21.0877C106.755 20.5473 106.581 20.083 106.235 19.695C105.902 19.3071 105.397 19.113 104.718 19.113C104.385 19.113 104.08 19.1684 103.803 19.2793C103.526 19.3762 103.283 19.5149 103.075 19.695C102.868 19.8751 102.701 20.09 102.577 20.3394C102.452 20.575 102.382 20.8245 102.369 21.0877H106.755ZM109.893 22.3973C109.893 22.5358 109.893 22.6745 109.893 22.813C109.893 22.9516 109.886 23.0833 109.873 23.208H102.369C102.396 23.499 102.48 23.7623 102.618 23.9979C102.771 24.2335 102.958 24.4414 103.179 24.6215C103.415 24.7878 103.671 24.9195 103.948 25.0164C104.239 25.1134 104.537 25.162 104.842 25.162C105.383 25.162 105.84 25.065 106.214 24.8709C106.588 24.6631 106.893 24.3998 107.129 24.081L109.499 25.5777C109.013 26.2844 108.369 26.8319 107.565 27.2198C106.775 27.594 105.854 27.7811 104.801 27.7811C104.025 27.7811 103.29 27.6633 102.597 27.4277C101.904 27.1783 101.295 26.8249 100.768 26.3676C100.255 25.8965 99.8465 25.3213 99.5416 24.6423C99.2506 23.9633 99.1051 23.1872 99.1051 22.3142C99.1051 21.4689 99.2506 20.7066 99.5416 20.0276C99.8326 19.3347 100.228 18.7527 100.726 18.2815C101.225 17.7965 101.814 17.4223 102.493 17.159C103.172 16.8957 103.907 16.7641 104.697 16.7641C105.459 16.7641 106.159 16.8957 106.796 17.159C107.434 17.4085 107.981 17.7757 108.438 18.2607C108.896 18.7458 109.249 19.3347 109.499 20.0276C109.762 20.7206 109.893 21.5105 109.893 22.3973ZM118.722 19.8821C118.569 19.8405 118.417 19.8128 118.264 19.799C118.126 19.7851 117.987 19.7782 117.849 19.7782C117.391 19.7782 117.003 19.8613 116.685 20.0276C116.38 20.1939 116.13 20.3948 115.936 20.6304C115.756 20.8661 115.624 21.1223 115.541 21.3995C115.458 21.6767 115.417 21.9192 115.417 22.1271V27.4485H112.007V17.0967H115.292V18.5933H115.333C115.597 18.0667 115.971 17.6371 116.456 17.3045C116.941 16.972 117.502 16.8057 118.14 16.8057C118.278 16.8057 118.41 16.8126 118.535 16.8264C118.673 16.8403 118.784 16.8611 118.867 16.8888L118.722 19.8821Z" fill="#020202"/>
</svg>
