<svg width="74" height="42" viewBox="0 0 74 42" fill="none" xmlns="http://www.w3.org/2000/svg">
<path d="M13.1174 5.35822C13.1174 5.35822 13.1556 5.44999 13.2134 5.60788C13.1976 5.51833 13.18 5.42973 13.1591 5.34082C13.1457 5.34588 13.1319 5.35221 13.1174 5.35822Z" fill="#020202"/>
<path d="M13.1174 5.35822C13.1174 5.35822 13.1556 5.44999 13.2134 5.60788C13.1976 5.51833 13.18 5.42973 13.1591 5.34082C13.1457 5.34588 13.1319 5.35221 13.1174 5.35822Z" fill="#020202"/>
<path d="M13.1174 5.35822C13.1174 5.35822 13.1556 5.44999 13.2134 5.60788C13.1976 5.51833 13.18 5.42973 13.1591 5.34082C13.1457 5.34588 13.1319 5.35221 13.1174 5.35822Z" fill="#020202"/>
<path d="M61.3791 14.1152H50.9082C51.1293 14.1937 51.3301 14.3193 51.4963 14.4832C51.6613 14.6462 51.7999 14.8335 51.9074 15.0379C52.0165 15.2452 52.0989 15.4651 52.1535 15.6926C52.1942 15.859 52.2199 16.029 52.2308 16.1998V22.0337C52.1881 22.4463 52.054 22.8444 51.8377 23.2C51.7248 23.3861 51.5891 23.5579 51.4335 23.711C51.2791 23.8639 51.102 23.9923 50.9082 24.092H57.1175C56.8736 24.0347 56.6477 23.9192 56.4597 23.7557C56.2852 23.6009 56.1398 23.4174 56.0301 23.213C55.9181 23.0035 55.8392 22.7782 55.7965 22.5453C55.75 22.3071 55.7262 22.0647 55.7262 21.822V19.5779C56.0805 19.5779 56.4135 19.5881 56.7251 19.6086C57.0148 19.6245 57.2994 19.69 57.566 19.802C57.8195 19.9137 58.0409 20.0848 58.211 20.301C58.4179 20.5829 58.5585 20.9066 58.6226 21.2486V16.6846C58.4911 17.0032 58.3165 17.3032 58.1035 17.5756C57.9421 17.7762 57.7367 17.9382 57.5028 18.0499C57.2619 18.1578 57.0026 18.2214 56.7382 18.2373C56.4511 18.2575 56.1138 18.2676 55.7262 18.268V15.5249L57.6235 15.5366C57.918 15.5366 58.2235 15.5489 58.5399 15.5739C58.8514 15.5983 59.1604 15.6486 59.4633 15.7242C59.762 15.7989 60.0505 15.9074 60.3235 16.0479C60.5956 16.1884 60.8382 16.3789 61.0378 16.6093C61.1119 16.6934 61.1796 16.783 61.2402 16.8773C61.3028 16.9713 61.3496 17.0744 61.3791 17.1829V14.1152Z" fill="#020202"/>
<path d="M62.3779 14.1152V17.8939C62.4325 17.4994 62.5939 17.1263 62.8457 16.8146C63.0873 16.5219 63.3864 16.2802 63.7249 16.1043C64.0734 15.9233 64.4491 15.7989 64.838 15.7363C65.2281 15.6704 65.6254 15.6537 66.02 15.6866V22.1606C66.004 22.3254 65.97 22.4878 65.9186 22.6453C65.8451 22.8738 65.7338 23.0886 65.5897 23.2813C65.4463 23.4728 65.274 23.6411 65.0783 23.7803C64.8774 23.9227 64.6522 24.0284 64.4135 24.092H71.0533C70.788 24.0474 70.5368 23.943 70.3195 23.7864C70.11 23.6345 69.9303 23.4465 69.7885 23.2317C69.6444 23.0146 69.5357 22.7766 69.4657 22.5267C69.3945 22.277 69.3582 22.0188 69.3582 21.7597V15.6866H69.6871C69.9627 15.6929 70.2374 15.7198 70.5092 15.7673C70.8576 15.8252 71.1974 15.9258 71.5208 16.0666C71.8702 16.2213 72.184 16.4441 72.4436 16.7213C72.7356 17.0393 72.9288 17.4335 73 17.8566V14.1152H62.3779Z" fill="#020202"/>
<path d="M44.6613 23.5805C44.5012 23.7245 44.3199 23.8444 44.1241 23.9358C43.947 24.015 43.8328 24.0668 43.7821 24.0918H50.9277C50.8102 24.0672 50.697 24.0251 50.592 23.9675C50.4897 23.9105 50.3905 23.8479 50.2952 23.7802C50.0418 23.6039 49.8123 23.3963 49.6121 23.1628C49.4241 22.9385 49.2589 22.6961 49.119 22.4398C48.9704 22.1664 48.8417 21.8829 48.7336 21.5915L48.2145 20.0711L47.5131 18.0184L46.16 14.1147H40.2286C40.4163 14.1606 40.5969 14.2302 40.7667 14.3211C40.9181 14.4097 41.0564 14.5185 41.1774 14.6448C41.3189 14.7938 41.4193 14.9767 41.4681 15.1754C41.5101 15.3558 41.5101 15.5434 41.4681 15.7238C41.4286 15.9066 41.3737 16.0861 41.3041 16.2598C41.1353 16.6926 41.0067 17.0356 40.9178 17.2888C40.8912 17.3657 40.8629 17.4369 40.8324 17.5077L39.7608 20.2381C39.702 20.3964 39.6138 20.6292 39.4951 20.9368C39.377 21.2444 39.2445 21.5646 39.0969 21.8971C38.9493 22.2297 38.7934 22.5417 38.6291 22.8325C38.5101 23.0632 38.3541 23.2739 38.1674 23.4558C38.0256 23.5713 37.8776 23.6795 37.7246 23.7802C37.5735 23.8795 37.4528 23.9545 37.3646 24.0042C37.3145 24.0305 37.2661 24.0599 37.2192 24.0918H42.5558C42.1772 24.0137 41.839 23.8058 41.6009 23.5055C41.3721 23.1976 41.246 22.8274 41.2406 22.4458C41.246 22.3275 41.2653 22.2104 41.298 22.0965C41.3352 21.9468 41.3821 21.7956 41.4369 21.6412C41.4912 21.4874 41.548 21.3399 41.6076 21.1985C41.6657 21.057 41.7087 20.9485 41.7337 20.8741H44.7309C44.7559 20.9412 44.7896 21.0346 44.8323 21.1551C44.8743 21.2754 44.9183 21.3981 44.9648 21.5231C45.011 21.6478 45.0537 21.7684 45.0919 21.8848C45.1291 22.0009 45.1567 22.0883 45.1734 22.1462C45.2539 22.4275 45.2318 22.7277 45.1101 22.9942C45.0004 23.2163 44.848 23.4156 44.6613 23.5805ZM42.0626 19.6895L43.125 16.4474L44.2377 19.6895H42.0626Z" fill="#020202"/>
<path d="M34.0143 19.1166C34.272 19.0002 34.51 18.8451 34.7193 18.6565L34.785 18.592C34.8826 18.497 34.9734 18.3955 35.0568 18.2879C35.0674 18.2737 35.0799 18.26 35.0905 18.2452C35.5118 17.7427 35.7146 17.0959 35.6542 16.447H35.6536C35.6369 16.1631 35.5628 15.8856 35.4364 15.6306C35.3594 15.4752 35.2682 15.3271 35.1646 15.1879C34.9958 14.9547 34.7751 14.7626 34.5197 14.6266C34.2563 14.4842 33.9758 14.3753 33.6848 14.3019C33.3883 14.2273 33.0861 14.1773 32.7813 14.1529C32.4729 14.1273 32.1883 14.1149 31.9271 14.1152H24.9722C25.2074 14.1738 25.4284 14.2776 25.6229 14.4209C25.8125 14.5807 25.9656 14.7781 26.0718 15.0006C26.2216 15.3249 26.2954 15.6787 26.2871 16.0353C26.2954 16.252 26.2999 16.4726 26.3002 16.6969V21.8094C26.2986 22.0343 26.271 22.2584 26.2174 22.477C26.1635 22.7039 26.0827 22.9235 25.9774 23.1317C25.8728 23.3383 25.7365 23.5275 25.5728 23.6927C25.4076 23.8598 25.2125 23.9952 24.9972 24.092H31.0043C30.8728 24.0449 30.7438 23.9904 30.618 23.9294C30.4701 23.8569 30.3353 23.7598 30.2198 23.643C30.0793 23.4971 29.966 23.3282 29.8849 23.1437C29.7751 22.8861 29.709 22.6121 29.6895 22.3333C29.6465 21.8771 29.6294 21.4192 29.6381 20.9613C29.6468 20.4962 29.6509 20.039 29.6513 19.59H30.0559C30.242 19.59 30.4223 19.5893 30.5968 19.5878C32.1813 23.2364 32.7322 24.092 34.3089 24.092H37.7783C36.5908 24.092 35.0728 21.3496 34.0143 19.1166ZM29.436 18.2306V15.5869C29.7482 15.5869 30.0575 15.5809 30.3655 15.5679C30.6447 15.5524 30.9244 15.5819 31.1936 15.6553C31.4304 15.7211 31.6393 15.8609 31.7882 16.0543C31.9602 16.3239 32.0401 16.6409 32.0154 16.9589C32.0391 17.2573 31.9515 17.5544 31.7689 17.794C31.604 17.9775 31.3855 18.1063 31.1433 18.162C30.8702 18.2262 30.5898 18.2537 30.309 18.2436C30.0052 18.2344 29.7145 18.2306 29.436 18.2306Z" fill="#020202"/>
<path d="M26.9428 2.52505C26.0367 2.93323 25.4328 3.80687 25.3793 4.78778L25.377 4.78841C24.6394 4.27423 23.6861 4.16158 22.8461 4.48939C22.8801 4.59982 22.9208 4.70804 22.969 4.81309C23.2863 5.50163 23.8892 6.02341 24.623 6.24364C24.22 6.86003 23.689 7.38465 23.0652 7.78303C22.7938 7.95516 22.4825 8.05673 22.1607 8.07793C21.3329 8.17476 20.5246 7.76151 20.1277 7.0388C19.6234 7.92858 18.5084 8.30576 17.5564 7.90865C17.4335 7.83808 17.3122 7.76341 17.1964 7.68304C16.2056 7.00336 15.483 6.006 15.1525 4.86119C15.1676 4.86056 15.1823 4.85897 15.1974 4.85739C16.03 4.76626 16.7722 4.29416 17.2002 3.58411C17.2461 3.50849 17.2881 3.43065 17.326 3.35091C16.6503 2.85666 15.7762 2.70509 14.9699 2.94209C14.8881 2.96614 14.8066 2.99462 14.7264 3.02657C14.754 2.09978 14.0487 0.705936 13.1843 0.199029C13.074 0.136694 12.9604 0.0806874 12.8439 0.0310092L12.7675 0L12.7149 0.0664483C12.6469 0.153148 12.5843 0.244277 12.5279 0.338888C12.018 1.19449 12.1585 2.7304 12.6353 3.53C12.55 3.53981 12.4643 3.55405 12.3806 3.57209C11.6503 3.72777 11.0185 4.17898 10.6406 4.81467C10.5953 4.89062 10.5539 4.96909 10.5167 5.04946C10.5889 5.10135 10.664 5.14977 10.7413 5.19407C11.4626 5.61301 12.3434 5.67376 13.117 5.35797C13.1314 5.35196 13.1455 5.34658 13.159 5.34057C13.407 6.40628 13.3047 7.5223 12.8667 8.52662C12.8651 8.52219 12.8644 8.51681 12.8628 8.51238C12.8561 8.53769 12.8468 8.56364 12.8391 8.5899C12.8096 8.65445 12.7788 8.71932 12.747 8.78324C12.6697 8.93797 12.5843 9.0889 12.4913 9.23509C11.8454 10.036 10.6765 10.2283 9.80151 9.67808C9.79862 10.5001 9.2846 11.2415 8.50876 11.5424C8.3278 11.6127 8.13721 11.657 7.94341 11.6734C7.10212 11.6592 6.27622 11.4462 5.53536 11.052C6.07119 10.5103 6.34488 9.76636 6.28553 9.01201C6.27654 8.89557 6.25922 8.68103 6.23611 8.57029C5.31172 8.68483 4.54871 9.4974 4.164 9.93406H4.16175C3.65127 9.4974 2.71307 8.71837 1.686 8.79526C1.4492 8.8326 1.21851 8.90063 1 8.99777C2.14675 9.84673 3.23896 10.7653 4.2702 11.7478C4.99439 12.4322 5.68969 13.1622 6.35355 13.9096C7.27634 14.9503 8.85241 17.0523 8.85401 17.0517C9.26439 17.4282 9.80985 17.6304 10.3704 17.6133C10.441 17.6029 10.4949 17.5443 10.4987 17.4738C10.5052 17.419 10.4092 17.3858 10.3595 17.364C9.97959 17.2295 9.69274 16.9153 9.59648 16.5286C9.29968 15.6119 12.0806 13.9567 16.1452 12.9391C20.2108 11.9225 23.4756 12.0459 23.6643 12.992C23.7685 13.3767 23.6704 13.7884 23.4031 14.0871C23.3704 14.1301 23.3017 14.2054 23.336 14.2504C23.3736 14.3108 23.4496 14.3371 23.517 14.313C24.0159 14.0624 24.3955 13.6273 24.5726 13.1033C24.7494 12.5793 25.009 10.4979 25.309 9.14744C25.5249 8.17666 25.7832 7.21885 26.0842 6.27401C26.5119 4.92985 27.0243 3.61354 27.6185 2.33266C27.3856 2.36683 27.1584 2.4317 26.9428 2.52505Z" fill="#020202"/>
<path d="M12.5823 14.9694C14.7776 14.0445 17.0894 13.4164 19.4554 13.1029C21.8214 12.7893 24.0706 13.5509 24.0706 18.8931C24.0706 24.2352 20.2171 27.2849 14.9717 27.2849C9.72724 27.2849 6.96143 25.0051 6.96143 22.5765C6.96143 20.1477 8.73193 19.7607 9.55558 19.7607C10.3783 19.7607 11.8671 20.4939 11.8671 22.3971C11.8671 22.3971 10.385 22.0383 10.385 23.3027C10.385 24.5668 12.1372 25.3544 14.5398 25.3544C16.9418 25.3544 20.3339 24.3162 20.3339 19.6917C20.3339 14.7571 18.0186 14.5366 16.4088 14.5366V23.0009C16.4361 23.4312 16.8138 23.7653 17.2508 23.7451C17.6875 23.7252 16.404 24.4498 14.3094 24.4498C12.2145 24.4498 11.6177 23.7865 11.6177 23.7865C11.6177 23.7865 12.6092 23.7903 12.6092 22.9278C12.6092 22.0658 12.5823 14.9694 12.5823 14.9694Z" fill="#020202"/>
<path d="M70.6723 32.6582C70.6072 32.4687 70.5241 32.2858 70.4236 32.1118C70.2516 31.8134 70.0142 31.5568 69.728 31.3616L69.7264 31.36C69.6914 31.3353 69.6571 31.3103 69.6228 31.2869L69.6157 31.2824C69.4604 31.1752 69.2987 31.0774 69.1312 30.9894C67.9405 30.3642 66.7174 30.3613 65.7359 30.1338C65.5806 30.0984 65.4275 30.0538 65.2774 30.0006C65.2225 29.9794 65.1683 29.9576 65.114 29.9335C64.9061 29.8424 64.7123 29.7225 64.5384 29.5779C64.3847 29.4469 64.2743 29.2732 64.2224 29.0795C64.1681 28.9219 64.1868 28.7485 64.2727 28.6052C64.402 28.4112 64.5727 28.2476 64.7726 28.1252C64.986 27.9936 65.2183 27.8948 65.4618 27.8322C65.724 27.7648 65.9942 27.7335 66.2646 27.7382C66.5451 27.7423 66.8236 27.7822 67.0937 27.8572C67.4024 27.9331 67.7047 28.0331 67.9973 28.1565C68.2071 28.2483 68.4051 28.3654 68.5857 28.5052C68.674 28.5758 68.758 28.6511 68.8383 28.7305C68.923 28.8131 69.0109 28.9001 69.1039 28.9922C69.196 29.0833 69.3 29.1849 69.4136 29.2978C69.5275 29.4099 69.6686 29.545 69.8371 29.7026V26.0488C69.8371 26.0488 69.5535 26.7472 68.4276 26.7472C68.1121 26.7389 67.7977 26.7139 67.4852 26.6725C67.1646 26.6222 66.8403 26.5709 66.5114 26.5159C66.1475 26.4599 65.7795 26.4371 65.4115 26.4482C64.9052 26.4472 64.4008 26.5143 63.9127 26.6475C63.4475 26.7712 63.0086 26.9759 62.6168 27.2519C61.8015 27.8195 61.3298 28.7568 61.3645 29.7402C61.3433 30.1791 61.4463 30.6151 61.6619 30.9992C61.8188 31.2556 62.0126 31.4878 62.2375 31.6887L62.2404 31.6909C62.2472 31.6979 62.2555 31.7039 62.2626 31.7106C62.2876 31.7314 62.3129 31.7526 62.338 31.7732C62.3777 31.8061 62.4182 31.8378 62.4586 31.8694C63.2781 32.4896 64.4351 32.7899 65.7731 33.0917C65.7991 33.0978 65.8225 33.1022 65.8478 33.1076L65.8578 33.1098C65.9951 33.1398 66.1328 33.1743 66.2707 33.2136C66.5249 33.2829 66.771 33.3791 67.0042 33.5002C67.1935 33.5952 67.3613 33.7265 67.498 33.8863C67.6129 34.0189 67.6511 34.2008 67.5988 34.3672C67.5372 34.653 67.3527 34.8985 67.0934 35.04C66.829 35.1763 66.5374 35.2529 66.2396 35.2643C65.9149 35.2808 65.5899 35.2558 65.2719 35.1899C64.9844 35.1343 64.7014 35.0589 64.4245 34.965C63.8781 34.7666 63.356 34.5071 62.8693 34.1919C62.5459 33.9736 62.2395 33.7319 61.9526 33.4686C61.6471 33.1857 61.3773 32.8677 61.1492 32.5212V36.878C61.6269 36.6056 62.1628 36.4468 62.7137 36.4139C62.715 36.4154 62.7166 36.417 62.7182 36.4183C62.8956 36.3885 63.075 36.3721 63.2547 36.3686C63.5299 36.3642 63.8052 36.3851 64.0767 36.4309C64.3517 36.4765 64.6241 36.5366 64.8926 36.6116C65.1814 36.6853 65.475 36.7395 65.7715 36.7736C66.0673 36.8072 66.3651 36.8239 66.6631 36.8239C67.1672 36.823 67.6697 36.7664 68.1609 36.6553C68.6432 36.5515 69.1017 36.3613 69.5143 36.094C69.916 35.8316 70.2513 35.482 70.4949 35.0719C70.7608 34.5979 70.8879 34.0603 70.8619 33.5192C70.8282 33.2265 70.7647 32.938 70.672 32.6582" fill="#020202"/>
<path d="M47.3027 28.7424C47.3027 28.5845 47.3111 28.4136 47.3281 28.2307C47.3448 28.0494 47.3784 27.87 47.4295 27.695C47.4776 27.5248 47.5479 27.3615 47.6377 27.2087C47.7272 27.059 47.8456 26.9274 47.9855 26.8217C48.1331 26.7097 48.3073 26.6369 48.4915 26.6104H43.8509C44.1066 26.6233 44.3518 26.7148 44.552 26.8723C44.7352 27.0236 44.8818 27.2131 44.9819 27.427C45.0897 27.6539 45.1623 27.8957 45.1969 28.144C45.2338 28.3836 45.2527 28.6253 45.2543 28.8674V33.3321L40.9041 26.6104H35.6433C35.8978 26.6145 36.1432 26.7046 36.3386 26.8654C36.5164 27.0211 36.655 27.2153 36.7432 27.433C36.8382 27.665 36.902 27.908 36.9332 28.1561C36.9653 28.3921 36.9819 28.6298 36.9835 28.8674C36.9835 28.9667 36.9851 29.1151 36.9896 29.3097V34.0374C36.9874 34.2466 36.9819 34.4563 36.9707 34.6665C36.9624 34.8243 36.9495 34.9867 36.9332 35.1528C36.9171 35.3158 36.8831 35.4768 36.8315 35.6328C36.7817 35.786 36.7092 35.9309 36.6171 36.0635C36.5202 36.1998 36.3951 36.3144 36.2501 36.3998C36.2138 36.4216 36.1759 36.4406 36.1365 36.4564C36.0861 36.4764 36.0325 36.4954 35.9783 36.5121C35.9234 36.5283 35.8746 36.5451 35.8326 36.5618C35.8086 36.5729 35.7832 36.5814 35.7572 36.5865H40.2964C40.1706 36.5204 40.0635 36.4602 39.9743 36.4058C39.8822 36.3489 39.7936 36.2865 39.7089 36.2191C39.629 36.1568 39.5549 36.0878 39.4875 36.0128C39.2912 35.7752 39.1606 35.4917 39.1083 35.1895C39.0508 34.8895 39.0213 34.5851 39.0197 34.2798V29.8866L43.3003 36.5865H48.4915C48.3073 36.5596 48.1331 36.4868 47.9855 36.3748C47.8453 36.2691 47.7272 36.1378 47.6377 35.9878C47.5479 35.8353 47.4779 35.672 47.4295 35.5021C47.3784 35.3265 47.3448 35.1471 47.3277 34.9655C47.3111 34.7823 47.3027 34.612 47.3027 34.4541V28.7424Z" fill="#020202"/>
<path d="M33.4348 32.6197V28.6641C33.4422 28.4857 33.4621 28.3078 33.4936 28.1319C33.5327 27.9085 33.6049 27.6918 33.7082 27.4893C33.8115 27.2915 33.9533 27.1159 34.1253 26.9722C34.3239 26.8108 34.5518 26.6881 34.7962 26.6099H28.7509C28.999 26.6767 29.228 26.7982 29.4212 26.9653C29.6185 27.1605 29.7751 27.3915 29.8829 27.6456C30.0385 28.0338 30.1098 28.4502 30.0921 28.8673V34.1031C30.0921 34.2695 30.0879 34.4698 30.079 34.704C30.0847 35.0343 30.0113 35.3612 29.864 35.6583C29.7517 35.8751 29.5996 36.0697 29.4151 36.2317C29.3846 36.2573 29.3493 36.2814 29.315 36.3063C27.8329 35.7108 26.2893 34.2426 25.1457 32.4814C24.4726 31.4448 23.7125 30.0716 23.0791 28.8723C23.6743 28.1379 24.2438 27.4548 24.7033 26.9336C25.6033 26.0755 26.7324 25.4869 27.9581 25.2363H23.0236C23.0236 25.2363 23.476 25.8761 22.8243 26.6539L19.5538 30.5532V27.3522C19.5188 27.3671 19.4835 27.3829 19.4486 27.3975C19.3077 27.4538 19.1617 27.5079 19.0135 27.5585C18.562 27.7126 18.1003 27.8364 17.6315 27.9288C17.4714 27.961 17.3042 27.9914 17.1364 28.0174C16.7848 28.081 16.4296 28.1249 16.0731 28.1493V33.9901L16.0519 34.4388C16.041 34.5587 16.0266 34.6793 16.0083 34.804C15.9675 35.0793 15.8893 35.3476 15.7763 35.6023C15.6688 35.8456 15.5113 36.0643 15.3136 36.2443C15.0974 36.4339 14.8272 36.5535 14.54 36.587H20.8706C20.611 36.5361 20.3765 36.4 20.2048 36.2016C20.0239 35.9896 19.8862 35.745 19.7999 35.4811C19.6985 35.1802 19.6305 34.8695 19.5968 34.554C19.5586 34.217 19.5371 33.8864 19.532 33.5627C19.5313 33.5019 19.5304 33.4434 19.5304 33.3839C19.7822 33.0564 20.1721 32.5498 20.6377 31.9521C20.8873 32.3669 21.1536 32.7982 21.4286 33.2272C22.737 35.2697 23.7811 36.5908 25.4406 36.5908C27.1004 36.5908 34.7703 36.587 34.7703 36.587C34.5229 36.4896 34.2957 36.3481 34.1003 36.1693C33.9065 35.9697 33.7502 35.7374 33.6392 35.4833C33.508 35.178 33.4384 34.8502 33.4348 34.5186V32.6197Z" fill="#020202"/>
<path d="M55.5236 31.6359C55.6837 31.7896 55.7976 31.9839 55.8531 32.1975C55.9125 32.4317 55.9369 32.6728 55.9256 32.9139C55.9173 33.1756 55.9173 33.4395 55.9256 33.7056C55.9256 33.8388 55.9301 33.9948 55.9385 34.1739C55.9481 34.347 55.924 34.5207 55.8669 34.6849C55.8047 34.8532 55.6889 34.9975 55.5371 35.0963C55.3112 35.2244 55.0513 35.2829 54.7914 35.2649C54.4603 35.2804 54.1327 35.1931 53.8545 35.0153C53.6177 34.8501 53.4233 34.6327 53.2872 34.3799C53.1502 34.1239 53.0517 33.8492 52.9952 33.5648V33.5708C52.6895 32.2858 52.6792 30.9492 52.9644 29.6595C53.0264 29.3744 53.1332 29.1007 53.2811 28.8479C53.4242 28.6052 53.6199 28.3967 53.8545 28.2372C54.1176 28.0673 54.4243 27.9742 54.7388 27.9692C54.8976 27.9619 55.0571 27.9723 55.2137 28.0005C55.3808 28.0293 55.5387 28.0609 55.6882 28.0938C56.4397 28.253 57.1565 28.5422 57.8052 28.9482C58.5355 29.4203 59.1272 29.8981 59.3823 30.5882V26.0649C59.2417 26.4864 58.9257 26.8297 58.5137 27.0082C58.3883 27.05 58.2596 27.0816 58.129 27.1028C58.0992 27.1066 58.068 27.1098 58.0359 27.112C58.0167 27.1136 57.9962 27.1136 57.9763 27.1142C57.727 27.1126 57.4776 27.092 57.2312 27.0531C56.9623 27.0142 56.6976 26.9516 56.44 26.8655C56.1759 26.7785 55.9253 26.7057 55.6882 26.6472C55.4498 26.5889 55.2076 26.5472 54.9631 26.5225C54.7131 26.4975 54.4619 26.4855 54.2107 26.4858C53.7002 26.4836 53.191 26.5399 52.6936 26.6535C52.2191 26.7623 51.7622 26.9345 51.3351 27.1651C50.9145 27.393 50.532 27.6831 50.2009 28.0255C49.9346 28.3027 49.7061 28.6128 49.521 28.9482L49.5149 28.9586C48.9389 30.2949 48.7772 31.7694 49.0499 33.1961C49.1196 33.4828 49.2129 33.7638 49.3284 34.0359C49.3875 34.1739 49.4517 34.3071 49.5219 34.4356C49.7847 34.9298 50.1431 35.3684 50.5772 35.7266C51.0171 36.0832 51.5234 36.3521 52.0676 36.5183C52.6846 36.7037 53.3289 36.7856 53.9735 36.7613C54.2652 36.7515 54.5549 36.7097 54.8373 36.6372C55.1318 36.5619 55.4286 36.4784 55.728 36.3873C56.0274 36.2955 56.3277 36.2088 56.6315 36.1253C56.9219 36.0443 57.2206 35.9958 57.5222 35.9816C57.8113 35.9693 58.1008 36.0031 58.3793 36.0816C58.6789 36.1708 58.9542 36.3265 59.1837 36.5369V33.5189C59.1846 33.2977 59.2023 33.0768 59.2369 32.8582C59.27 32.6329 59.3316 32.413 59.4211 32.2032C59.5084 32.001 59.6338 31.8169 59.791 31.6609C59.9569 31.4979 60.1607 31.378 60.385 31.3115H54.7388C55.0276 31.3384 55.3013 31.4517 55.5236 31.6359Z" fill="#020202"/>
</svg>
