<svg width="150" height="42" viewBox="0 0 150 42" fill="none" xmlns="http://www.w3.org/2000/svg">
<g clip-path="url(#clip0_1136_12162)">
<path d="M41.2731 33.461C41.1105 33.461 40.9774 33.4033 40.8738 33.288C40.7703 33.1727 40.7185 33.0245 40.7185 32.8433V16.7851C40.7185 16.6039 40.7703 16.4557 40.8738 16.3404C40.9774 16.2251 41.1105 16.1674 41.2731 16.1674H51.3226C51.4852 16.1674 51.6183 16.2251 51.7219 16.3404C51.8254 16.4557 51.8772 16.6039 51.8772 16.7851V18.7615C51.8772 18.9262 51.8254 19.0662 51.7219 19.1815C51.6183 19.2967 51.4852 19.3544 51.3226 19.3544H44.1349V23.2331H50.8345C50.9972 23.2331 51.1303 23.2907 51.2338 23.406C51.3374 23.5213 51.3891 23.6696 51.3891 23.8507V25.6789C51.3891 25.8436 51.3374 25.9836 51.2338 26.0988C51.1303 26.2142 50.9972 26.2718 50.8345 26.2718H44.1349V30.274H51.5001C51.6627 30.274 51.7958 30.3316 51.8993 30.4469C52.0029 30.5623 52.0547 30.7105 52.0547 30.8916V32.8433C52.0547 33.0245 52.0029 33.1727 51.8993 33.288C51.7958 33.4033 51.6627 33.461 51.5001 33.461H41.2731ZM55.2244 33.461C55.0617 33.461 54.9286 33.4033 54.825 33.288C54.7215 33.1727 54.6698 33.0245 54.6698 32.8433V16.538C54.6698 16.3569 54.7215 16.2087 54.825 16.0933C54.9286 15.978 55.0617 15.9204 55.2244 15.9204H57.4428C57.5907 15.9204 57.7164 15.978 57.8199 16.0933C57.9234 16.2087 57.9752 16.3569 57.9752 16.538V32.8433C57.9752 33.0245 57.9234 33.1727 57.8199 33.288C57.7164 33.4033 57.5907 33.461 57.4428 33.461H55.2244ZM66.1474 33.708C64.4469 33.708 63.0936 33.181 62.0879 32.1269C61.0968 31.0728 60.5722 29.5411 60.5128 27.5317C60.5128 27.4 60.5128 27.2271 60.5128 27.013C60.5128 26.7824 60.5128 26.6012 60.5128 26.4695C60.5722 25.2013 60.8306 24.1143 61.2893 23.2084C61.7479 22.2861 62.3913 21.586 63.219 21.1084C64.0474 20.6143 65.0164 20.3673 66.1255 20.3673C67.3679 20.3673 68.4033 20.6556 69.231 21.232C70.0739 21.792 70.7024 22.5661 71.1166 23.5542C71.5454 24.526 71.7604 25.646 71.7604 26.9141V27.4824C71.7604 27.6471 71.7007 27.787 71.5825 27.9024C71.479 28.0176 71.3536 28.0753 71.2055 28.0753H63.9511C63.9511 28.0918 63.9511 28.1247 63.9511 28.1741C63.9511 28.207 63.9511 28.24 63.9511 28.2729C63.9664 28.7999 64.0553 29.2858 64.2173 29.7305C64.3951 30.1587 64.6394 30.5046 64.9494 30.7681C65.2752 31.0316 65.6595 31.1634 66.1036 31.1634C66.4732 31.1634 66.7759 31.1058 67.0128 30.9904C67.2498 30.8751 67.4416 30.7352 67.5896 30.5705C67.7522 30.4058 67.871 30.2658 67.9447 30.1505C68.0774 29.9858 68.1816 29.8869 68.2553 29.854C68.3436 29.8046 68.477 29.7799 68.6542 29.7799H70.9613C71.1093 29.7799 71.2274 29.8293 71.3164 29.9282C71.4199 30.0105 71.4644 30.134 71.4498 30.2987C71.4345 30.5623 71.3091 30.8916 71.0728 31.2869C70.8505 31.6657 70.5179 32.0445 70.0739 32.4233C69.6305 32.7857 69.0757 33.0904 68.4106 33.3374C67.7595 33.5845 67.0055 33.708 66.1474 33.708ZM63.9511 25.8271H68.2991V25.7777C68.2991 25.1848 68.2109 24.6742 68.033 24.246C67.871 23.8013 67.6268 23.4555 67.3009 23.2084C66.9757 22.9613 66.5841 22.8378 66.1255 22.8378C65.6668 22.8378 65.2752 22.9613 64.9494 23.2084C64.6241 23.4555 64.3726 23.8013 64.1954 24.246C64.0328 24.6742 63.9511 25.1848 63.9511 25.7777V25.8271ZM74.7319 33.461C74.5845 33.461 74.4584 33.4033 74.3549 33.288C74.2513 33.1727 74.1996 33.0245 74.1996 32.8433V21.232C74.1996 21.0508 74.2513 20.9026 74.3549 20.7873C74.4584 20.672 74.5845 20.6143 74.7319 20.6143H76.7947C76.9427 20.6143 77.0688 20.672 77.1717 20.7873C77.2905 20.9026 77.3496 21.0508 77.3496 21.232V22.0719C77.6456 21.6108 78.0524 21.2155 78.5695 20.8861C79.1018 20.5567 79.731 20.3838 80.4551 20.3673C82.1715 20.3344 83.3469 21.059 83.9828 22.5413C84.3232 21.899 84.8111 21.3802 85.4469 20.9849C86.098 20.5731 86.8075 20.3673 87.5761 20.3673C88.3454 20.3673 89.0403 20.565 89.6615 20.9602C90.2828 21.339 90.7706 21.932 91.1257 22.739C91.496 23.5295 91.6805 24.5507 91.6805 25.8024V32.8433C91.6805 33.0245 91.6288 33.1727 91.5252 33.288C91.4217 33.4033 91.2963 33.461 91.1482 33.461H88.952C88.804 33.461 88.6786 33.4033 88.5743 33.288C88.4715 33.1727 88.419 33.0245 88.419 32.8433V26C88.419 25.3248 88.3308 24.7977 88.1529 24.4189C87.9757 24.0237 87.7394 23.7436 87.4434 23.579C87.1626 23.4142 86.844 23.3319 86.4896 23.3319C86.179 23.3319 85.8757 23.4142 85.5797 23.579C85.2989 23.7436 85.0626 24.0237 84.8701 24.4189C84.6923 24.7977 84.604 25.3248 84.604 26V32.8433C84.604 33.0245 84.5522 33.1727 84.4487 33.288C84.3451 33.4033 84.2124 33.461 84.0491 33.461H81.8748C81.7128 33.461 81.5794 33.4033 81.4759 33.288C81.3724 33.1727 81.3206 33.0245 81.3206 32.8433V26C81.3206 25.3248 81.2317 24.7977 81.0544 24.4189C80.8766 24.0237 80.6403 23.7436 80.3443 23.579C80.0635 23.4142 79.7529 23.3319 79.4124 23.3319C79.1018 23.3319 78.7991 23.4225 78.5031 23.6037C78.2078 23.7684 77.9635 24.0401 77.771 24.4189C77.5938 24.7977 77.5049 25.3165 77.5049 25.9753V32.8433C77.5049 33.0245 77.4531 33.1727 77.3496 33.288C77.246 33.4033 77.1206 33.461 76.9726 33.461H74.7319ZM99.7374 33.708C98.037 33.708 96.6836 33.181 95.6781 32.1269C94.6872 31.0728 94.1615 29.5411 94.1031 27.5317C94.1031 27.4 94.1031 27.2271 94.1031 27.013C94.1031 26.7824 94.1031 26.6012 94.1031 26.4695C94.1615 25.2013 94.421 24.1143 94.8797 23.2084C95.3376 22.2861 95.9808 21.586 96.8091 21.1084C97.6374 20.6143 98.6064 20.3673 99.7155 20.3673C100.958 20.3673 101.993 20.6556 102.821 21.232C103.665 21.792 104.292 22.5661 104.707 23.5542C105.135 24.526 105.35 25.646 105.35 26.9141V27.4824C105.35 27.6471 105.291 27.787 105.173 27.9024C105.069 28.0176 104.943 28.0753 104.796 28.0753H97.5412C97.5412 28.0918 97.5412 28.1247 97.5412 28.1741C97.5412 28.207 97.5412 28.24 97.5412 28.2729C97.5558 28.7999 97.6447 29.2858 97.808 29.7305C97.9852 30.1587 98.2294 30.5046 98.5401 30.7681C98.8646 31.0316 99.2496 31.1634 99.6936 31.1634C100.063 31.1634 100.366 31.1058 100.603 30.9904C100.839 30.8751 101.032 30.7352 101.18 30.5705C101.342 30.4058 101.46 30.2658 101.535 30.1505C101.667 29.9858 101.771 29.8869 101.845 29.854C101.934 29.8046 102.067 29.7799 102.244 29.7799H104.551C104.699 29.7799 104.818 29.8293 104.906 29.9282C105.01 30.0105 105.054 30.134 105.04 30.2987C105.025 30.5623 104.899 30.8916 104.663 31.2869C104.441 31.6657 104.108 32.0445 103.665 32.4233C103.221 32.7857 102.666 33.0904 102.001 33.3374C101.35 33.5845 100.595 33.708 99.7374 33.708ZM97.5412 25.8271H101.89V25.7777C101.89 25.1848 101.801 24.6742 101.623 24.246C101.46 23.8013 101.216 23.4555 100.892 23.2084C100.566 22.9613 100.173 22.8378 99.7155 22.8378C99.2569 22.8378 98.8646 22.9613 98.5401 23.2084C98.2142 23.4555 97.9633 23.8013 97.7854 24.246C97.6221 24.6742 97.5412 25.1848 97.5412 25.7777V25.8271ZM108.322 33.461C108.174 33.461 108.048 33.4033 107.945 33.288C107.841 33.1727 107.79 33.0245 107.79 32.8433V21.232C107.79 21.0508 107.841 20.9026 107.945 20.7873C108.048 20.672 108.174 20.6143 108.322 20.6143H110.496C110.658 20.6143 110.792 20.672 110.895 20.7873C110.999 20.9026 111.05 21.0508 111.05 21.232V22.1955C111.435 21.6685 111.931 21.232 112.537 20.8861C113.143 20.5402 113.883 20.3673 114.755 20.3673C115.627 20.3673 116.389 20.5897 117.041 21.0343C117.706 21.4625 118.223 22.0966 118.593 22.9366C118.977 23.7601 119.17 24.7648 119.17 25.9506V32.8433C119.17 33.0245 119.111 33.1727 118.992 33.288C118.889 33.4033 118.764 33.461 118.616 33.461H116.264C116.101 33.461 115.968 33.4033 115.864 33.288C115.761 33.1727 115.709 33.0245 115.709 32.8433V26.0988C115.709 25.226 115.517 24.5507 115.132 24.073C114.763 23.579 114.216 23.3319 113.491 23.3319C112.796 23.3319 112.241 23.579 111.827 24.073C111.413 24.5507 111.206 25.226 111.206 26.0988V32.8433C111.206 33.0245 111.154 33.1727 111.05 33.288C110.947 33.4033 110.821 33.461 110.673 33.461H108.322ZM127.466 33.461C126.549 33.461 125.765 33.2962 125.114 32.9668C124.464 32.621 123.968 32.094 123.628 31.3857C123.303 30.6775 123.14 29.7881 123.14 28.7176V23.5295H121.409C121.247 23.5295 121.114 23.4719 121.01 23.3566C120.907 23.2413 120.855 23.0931 120.855 22.9119V21.232C120.855 21.0508 120.907 20.9026 121.01 20.7873C121.114 20.672 121.247 20.6143 121.409 20.6143H123.14V16.538C123.14 16.3569 123.192 16.2087 123.295 16.0933C123.414 15.978 123.547 15.9204 123.694 15.9204H125.869C126.031 15.9204 126.165 15.978 126.267 16.0933C126.372 16.2087 126.423 16.3569 126.423 16.538V20.6143H129.196C129.344 20.6143 129.47 20.672 129.573 20.7873C129.677 20.9026 129.728 21.0508 129.728 21.232V22.9119C129.728 23.0931 129.677 23.2413 129.573 23.3566C129.47 23.4719 129.344 23.5295 129.196 23.5295H126.423V28.4211C126.423 29.047 126.52 29.5411 126.712 29.9035C126.919 30.2493 127.274 30.4222 127.776 30.4222H129.396C129.544 30.4222 129.67 30.4798 129.773 30.5952C129.877 30.7105 129.928 30.8505 129.928 31.0152V32.8433C129.928 33.0245 129.877 33.1727 129.773 33.288C129.67 33.4033 129.544 33.461 129.396 33.461H127.466Z" fill="#020202"/>
<path d="M133.892 33.6015C133.732 33.6015 133.601 33.5459 133.499 33.4347C133.397 33.3235 133.347 33.1805 133.347 33.0059V17.5198C133.347 17.3451 133.397 17.2021 133.499 17.0909C133.601 16.9797 133.732 16.9241 133.892 16.9241H143.612C143.772 16.9241 143.902 16.9797 144.005 17.0909C144.106 17.2021 144.157 17.3451 144.157 17.5198V19.5448C144.157 19.7195 144.106 19.8625 144.005 19.9737C143.902 20.0849 143.772 20.1404 143.612 20.1404H136.747V24.1669H143.176C143.336 24.1669 143.467 24.2224 143.569 24.3336C143.671 24.4448 143.721 24.5878 143.721 24.7625V26.7876C143.721 26.9465 143.671 27.0814 143.569 27.1926C143.467 27.3038 143.336 27.3594 143.176 27.3594H136.747V33.0059C136.747 33.1805 136.696 33.3235 136.594 33.4347C136.492 33.5459 136.361 33.6015 136.202 33.6015H133.892ZM147.427 33.6015C147.282 33.6015 147.158 33.5459 147.057 33.4347C146.955 33.3235 146.904 33.1805 146.904 33.0059V21.8082C146.904 21.6335 146.955 21.4906 147.057 21.3793C147.158 21.2682 147.282 21.2126 147.427 21.2126H149.607C149.766 21.2126 149.897 21.2682 149.999 21.3793C150.101 21.4906 150.152 21.6335 150.152 21.8082V33.0059C150.152 33.1805 150.101 33.3235 149.999 33.4347C149.897 33.5459 149.766 33.6015 149.607 33.6015H147.427ZM147.362 19.3066C147.216 19.3066 147.093 19.2511 146.991 19.1398C146.89 19.0286 146.839 18.8857 146.839 18.711V16.805C146.839 16.6303 146.89 16.4873 146.991 16.3762C147.093 16.2491 147.216 16.1855 147.362 16.1855H149.65C149.81 16.1855 149.941 16.2491 150.043 16.3762C150.159 16.4873 150.217 16.6303 150.217 16.805V18.711C150.217 18.8857 150.159 19.0286 150.043 19.1398C149.941 19.2511 149.81 19.3066 149.65 19.3066H147.362Z" fill="#020202"/>
<mask id="mask0_1136_12162" style="mask-type:alpha" maskUnits="userSpaceOnUse" x="0" y="5" width="33" height="31">
<path d="M12.5534 28.2428C8.08397 30.4264 2.84175 28.2352 0.844544 23.3485C-1.15267 18.4618 0.851453 12.73 5.32086 10.5463C9.79026 8.36264 15.0324 10.5539 17.0297 15.4406C19.0269 20.3273 17.0228 26.0591 12.5534 28.2428Z" fill="black"/>
<path d="M28.6535 18.2753C25.5593 19.7871 21.93 18.2701 20.5473 14.8869C19.1647 11.5039 20.5521 7.53575 23.6463 6.02394C26.7406 4.51213 30.3698 6.02918 31.7524 9.41228C33.1351 12.7954 31.7477 16.7635 28.6535 18.2753Z" fill="black"/>
<path d="M26.4838 34.9638C23.9912 36.1816 21.0677 34.9596 19.9538 32.2343C18.8401 29.509 19.9577 26.3125 22.4503 25.0947C24.9428 23.8768 27.8663 25.0989 28.9801 27.8241C30.094 30.5494 28.9763 33.746 26.4838 34.9638Z" fill="black"/>
</mask>
<g mask="url(#mask0_1136_12162)">
<path d="M1.41949 26.8136C5.83174 35.8474 17.4127 39.8982 27.2866 35.8614C37.1604 31.8245 41.5878 21.2287 37.1755 12.195C32.7633 3.16123 21.1822 -0.88955 11.3085 3.1473C1.43473 7.18409 -2.99273 17.7799 1.41949 26.8136Z" fill="#020202"/>
<path d="M8.21769 24.8564C10.5702 30.5888 16.745 33.1591 22.0095 30.5976C27.2739 28.036 29.6346 21.3125 27.2821 15.5803C24.9296 9.84801 18.7548 7.27757 13.4903 9.83919C8.22579 12.4007 5.86515 19.1241 8.21769 24.8564Z" fill="#020202"/>
</g>
</g>
<defs>
<clipPath id="clip0_1136_12162">
<rect width="150" height="42" fill="white"/>
</clipPath>
</defs>
</svg>
