<svg width="127" height="67" viewBox="0 0 127 67" fill="none" xmlns="http://www.w3.org/2000/svg">
<g clip-path="url(#clip0_17_2)">
<path d="M67.77 31.45C67.4121 31.6464 67.008 31.7431 66.6 31.73C66.44 31.73 66.09 31.73 65.51 31.65V33.29C66.0094 33.4193 66.5242 33.4799 67.04 33.47C67.7562 33.4964 68.4604 33.2816 69.04 32.86C69.6617 32.3466 70.1462 31.6869 70.45 30.94L74.94 20.82H72.82L70.1 27.45L67.46 20.82H65.31L69 29.53L68.62 30.38C68.4522 30.8149 68.1556 31.1882 67.77 31.45V31.45Z" fill="#020202"/>
<path d="M78.26 28.7C78.6104 29.1694 79.0752 29.5412 79.61 29.78C80.1935 30.0461 80.8288 30.1793 81.47 30.17C82.0698 30.1936 82.6674 30.0848 83.2204 29.8515C83.7735 29.6182 84.2684 29.266 84.67 28.82C85.5387 27.9068 86.0159 26.6902 86 25.43C86.0202 24.7974 85.9119 24.1672 85.6815 23.5777C85.4512 22.9881 85.1037 22.4514 84.66 22C84.2435 21.5587 83.739 21.2096 83.1792 20.9754C82.6194 20.7411 82.0167 20.6269 81.41 20.64H81.48C80.8939 20.6162 80.3101 20.7264 79.773 20.962C79.2358 21.1977 78.7594 21.5527 78.38 22V16.1H76.38V30H78.22V28.7H78.26ZM79.1 23.25C79.3642 22.9921 79.6771 22.7894 80.0205 22.6538C80.3639 22.5182 80.7309 22.4523 81.1 22.46C81.4725 22.4534 81.8424 22.5238 82.1865 22.6666C82.5306 22.8094 82.8416 23.0216 83.1 23.29C83.3706 23.5708 83.5818 23.9032 83.721 24.2675C83.8602 24.6317 83.9245 25.0203 83.91 25.41C83.9276 25.806 83.8649 26.2016 83.7257 26.5728C83.5865 26.944 83.3737 27.2832 83.1 27.57C82.8474 27.8478 82.5381 28.0683 82.1932 28.2167C81.8482 28.365 81.4754 28.4377 81.1 28.43C80.362 28.4557 79.6435 28.1899 79.1 27.69C78.8105 27.4012 78.5865 27.0534 78.4433 26.6704C78.3001 26.2873 78.241 25.8779 78.27 25.47C78.2423 25.0622 78.302 24.6532 78.4451 24.2703C78.5883 23.8875 78.8116 23.5396 79.1 23.25V23.25Z" fill="#020202"/>
<path d="M60.72 42.48C60.2079 42.4615 59.6976 42.5507 59.2221 42.7419C58.7467 42.9332 58.3167 43.2221 57.96 43.59V42.69H56.11V51.82H58.11V46.37C58.0962 46.0918 58.1407 45.8138 58.2405 45.5537C58.3404 45.2937 58.4935 45.0574 58.69 44.86C58.8902 44.6639 59.1282 44.5105 59.3895 44.409C59.6507 44.3076 59.9299 44.2603 60.21 44.27C60.4823 44.2631 60.7531 44.3118 61.0059 44.4133C61.2587 44.5147 61.4881 44.6667 61.68 44.86C61.8718 45.0661 62.0202 45.3086 62.1164 45.5731C62.2126 45.8377 62.2546 46.1189 62.24 46.4V51.82H64.24V46.13C64.2863 45.1689 63.9604 44.227 63.33 43.5C62.9944 43.1516 62.5873 42.8801 62.1368 42.704C61.6862 42.5279 61.2029 42.4515 60.72 42.48V42.48Z" fill="#020202"/>
<path d="M70.73 42.47C70.1055 42.47 69.4871 42.5936 68.9106 42.8338C68.3341 43.074 67.8109 43.426 67.3712 43.8695C66.9314 44.313 66.5838 44.8391 66.3485 45.4176C66.1132 45.9961 65.9947 46.6155 66 47.24C65.9835 47.8724 66.1006 48.5012 66.3435 49.0853C66.5865 49.6695 66.9499 50.1958 67.41 50.63C67.876 51.0782 68.426 51.43 69.0284 51.6651C69.6307 51.9002 70.2735 52.014 70.92 52C72.2904 52.0133 73.6115 51.4892 74.6 50.54L73.67 49.21C72.9435 49.8854 71.9919 50.2667 71 50.28C70.2818 50.2983 69.5781 50.0766 69 49.65C68.4449 49.2119 68.0854 48.572 68 47.87H74.87C74.9681 47.471 75.0118 47.0607 75 46.65C75.017 46.0925 74.9173 45.5377 74.7072 45.021C74.4971 44.5044 74.1813 44.0374 73.78 43.65C73.3801 43.2541 72.9029 42.9449 72.3781 42.7419C71.8533 42.5389 71.2922 42.4463 70.73 42.47V42.47ZM68 46.37C68.1357 45.7277 68.4889 45.152 69 44.74C69.4733 44.3417 70.0714 44.1223 70.69 44.12C71.3054 44.1058 71.9029 44.3276 72.36 44.74C72.5741 44.9523 72.7415 45.2069 72.8517 45.4876C72.9619 45.7682 73.0124 46.0688 73 46.37H68Z" fill="#020202"/>
<path d="M92.71 30.19C94.0804 30.2033 95.4015 29.6792 96.39 28.73L95.45 27.4C94.7241 28.0828 93.7665 28.4651 92.77 28.47C92.0518 28.4883 91.348 28.2666 90.77 27.84C90.2149 27.4019 89.8554 26.762 89.77 26.06H96.6C96.7186 25.6642 96.7792 25.2532 96.78 24.84C96.797 24.2825 96.6973 23.7277 96.4872 23.211C96.2771 22.6944 95.9613 22.2274 95.56 21.84C95.1638 21.4527 94.6945 21.1481 94.1795 20.9438C93.6645 20.7395 93.114 20.6396 92.56 20.65C91.9328 20.6487 91.3116 20.7715 90.7322 21.0115C90.1528 21.2515 89.6266 21.6039 89.1841 22.0483C88.7416 22.4927 88.3914 23.0203 88.1539 23.6007C87.9163 24.1811 87.796 24.8029 87.8 25.43C87.786 26.0612 87.9031 26.6884 88.1441 27.272C88.3851 27.8555 88.7447 28.3826 89.2 28.82C89.6647 29.27 90.2145 29.623 90.8171 29.8582C91.4198 30.0934 92.0633 30.2062 92.71 30.19V30.19ZM90.71 22.94C91.1873 22.5431 91.7892 22.3271 92.41 22.33C93.02 22.3196 93.6119 22.5371 94.07 22.94C94.2911 23.1495 94.4666 23.4024 94.5853 23.6829C94.704 23.9634 94.7635 24.2654 94.76 24.57H89.76C89.8828 23.9323 90.2219 23.3566 90.72 22.94H90.71Z" fill="#020202"/>
<path d="M81.58 50.22C81.1046 50.2619 80.6289 50.1421 80.23 49.88C80.0689 49.7234 79.9455 49.5321 79.8692 49.3208C79.793 49.1094 79.7659 48.8834 79.79 48.66V44.38H82.52V42.69H79.79V40.31H77.79V42.69H76.31V44.38H77.8V48.82C77.7679 49.2568 77.8319 49.6953 77.9874 50.1047C78.1428 50.5142 78.3861 50.8846 78.7 51.19C79.4082 51.7429 80.2929 52.0201 81.19 51.97C81.7423 51.955 82.2917 51.8846 82.83 51.76V50.12C82.28 50.18 81.9 50.22 81.61 50.22H81.58Z" fill="#020202"/>
<path d="M94.87 48.55L92.03 42.48H91.36L88.57 48.63L86.14 42.69H84.05L88.14 51.97H88.81L91.7 45.93L94.58 51.97H95.27L99.35 42.69H97.26L94.87 48.55Z" fill="#020202"/>
<path d="M104.77 42.48C104.133 42.4662 103.499 42.5803 102.906 42.8156C102.314 43.0509 101.774 43.4027 101.32 43.85C100.873 44.291 100.518 44.8164 100.275 45.3958C100.033 45.9752 99.9082 46.597 99.9082 47.225C99.9082 47.853 100.033 48.4748 100.275 49.0542C100.518 49.6336 100.873 50.159 101.32 50.6C102.25 51.4864 103.485 51.981 104.77 51.981C106.055 51.981 107.29 51.4864 108.22 50.6C108.674 50.1617 109.034 49.6365 109.281 49.0558C109.527 48.4752 109.654 47.8508 109.654 47.22C109.654 46.5892 109.527 45.9649 109.281 45.3842C109.034 44.8035 108.674 44.2783 108.22 43.84C107.764 43.3958 107.224 43.0469 106.632 42.8134C106.039 42.5799 105.407 42.4666 104.77 42.48V42.48ZM106.77 49.32C106.225 49.8526 105.492 50.1508 104.73 50.1508C103.968 50.1508 103.235 49.8526 102.69 49.32C102.422 49.0438 102.212 48.7164 102.073 48.3573C101.933 47.9983 101.868 47.6149 101.88 47.23C101.863 46.8416 101.927 46.4539 102.066 46.091C102.205 45.728 102.418 45.3975 102.69 45.12C103.218 44.5818 103.936 44.2729 104.69 44.26C105.442 44.2643 106.161 44.5664 106.69 45.1C106.96 45.3792 107.171 45.71 107.31 46.0725C107.449 46.4351 107.514 46.8219 107.5 47.21C107.537 47.9811 107.276 48.7368 106.77 49.32V49.32Z" fill="#020202"/>
<path d="M113.29 43.87V42.68H111.46V51.8H113.46V46.92C113.443 46.5748 113.503 46.2302 113.634 45.9105C113.766 45.5908 113.966 45.3039 114.22 45.07C114.752 44.6191 115.433 44.3836 116.13 44.41H116.72V42.69C116.482 42.6262 116.236 42.5959 115.99 42.6C115.471 42.5773 114.954 42.681 114.483 42.9022C114.013 43.1234 113.604 43.4555 113.29 43.87V43.87Z" fill="#020202"/>
<path d="M100.57 25.13C100.553 24.7847 100.612 24.4399 100.743 24.1201C100.875 23.8003 101.075 23.5135 101.33 23.28C101.862 22.8288 102.543 22.5902 103.24 22.61H103.84V20.9C103.598 20.8369 103.35 20.8066 103.1 20.81C102.583 20.7909 102.069 20.8973 101.603 21.1203C101.136 21.3432 100.73 21.6759 100.42 22.09V20.9H98.58V30H100.58V25.13H100.57Z" fill="#020202"/>
<path d="M118.53 37.89H120.5V51.81H118.53V37.89Z" fill="#020202"/>
<path d="M122.88 46.68L126.59 42.69H124.16L120.56 46.67L124.57 51.8H126.94L122.88 46.68Z" fill="#020202"/>
<path d="M64.17 20.88H61.73L58.14 24.87L62.15 30.01H64.52L60.46 24.89L64.17 20.88Z" fill="#020202"/>
<path d="M56.11 16.09H58.08V30.01H56.11V16.09Z" fill="#020202"/>
<path d="M20 33.51L45 47.83C45.2009 47.9508 45.4304 48.0158 45.6648 48.0186C45.8992 48.0213 46.13 47.9615 46.3337 47.8454C46.5373 47.7294 46.7064 47.5611 46.8235 47.3581C46.9406 47.155 47.0015 46.9244 47 46.69V20.31C47.003 20.0752 46.9428 19.8439 46.8257 19.6404C46.7086 19.4368 46.539 19.2685 46.3345 19.1529C46.1301 19.0374 45.8983 18.979 45.6636 18.9838C45.4288 18.9885 45.1996 19.0563 45 19.18L20 33.51Z" fill="#020202"/>
<path d="M44.47 12.84L27.38 0.270002C27.2024 0.134223 26.994 0.0443292 26.7734 0.008277C26.5527 -0.0277753 26.3266 -0.00887375 26.115 0.0633084C25.9034 0.135491 25.7128 0.258727 25.5602 0.422109C25.4076 0.58549 25.2976 0.783978 25.24 1L19 29L44.32 15C44.5127 14.9009 44.6765 14.7538 44.7957 14.5729C44.9149 14.392 44.9855 14.1834 45.0006 13.9673C45.0157 13.7511 44.9747 13.5348 44.8818 13.339C44.7889 13.1433 44.647 12.9749 44.47 12.85" fill="#020202"/>
<path d="M27.36 66.74L44.47 54.17C44.6471 54.0435 44.789 53.8738 44.8824 53.6772C44.9757 53.4805 45.0173 53.2633 45.0033 53.0461C44.9893 52.8289 44.9201 52.6188 44.8023 52.4357C44.6845 52.2527 44.5219 52.1027 44.33 52L19 38L25.24 66C25.2918 66.2175 25.3968 66.4188 25.5455 66.5858C25.6943 66.7527 25.8823 66.8801 26.0925 66.9564C26.3026 67.0327 26.5285 67.0557 26.7498 67.0231C26.971 66.9906 27.1807 66.9036 27.36 66.77" fill="#020202"/>
<path d="M13.5 33L20 2.59C20.0496 2.33808 20.023 2.07708 19.9234 1.84041C19.8239 1.60373 19.6559 1.40215 19.4412 1.26146C19.2264 1.12078 18.9745 1.04739 18.7178 1.05069C18.461 1.05399 18.2111 1.13383 18 1.28L1.35 14.05C0.928387 14.3734 0.587192 14.7899 0.353022 15.2669C0.118852 15.7439 -0.00196361 16.2686 -1.48965e-06 16.8V49.2C-0.00975461 49.7398 0.107312 50.2743 0.341784 50.7607C0.576255 51.247 0.921585 51.6715 1.35 52L17.92 64.72C18.1311 64.8662 18.381 64.946 18.6378 64.9493C18.8945 64.9526 19.1464 64.8792 19.3612 64.7385C19.5759 64.5978 19.7439 64.3963 19.8434 64.1596C19.943 63.9229 19.9696 63.6619 19.92 63.41L13.5 33Z" fill="#020202"/>
</g>
<defs>
<clipPath id="clip0_17_2">
<rect width="126.94" height="67" fill="white"/>
</clipPath>
</defs>
</svg>
