<svg width="141" height="42" viewBox="0 0 141 42" fill="none" xmlns="http://www.w3.org/2000/svg">
<g clip-path="url(#clip0_1136_12122)">
<path fill-rule="evenodd" clip-rule="evenodd" d="M0 13.294C0 10.185 0 8.63057 0.605043 7.4431C1.13726 6.39858 1.98647 5.54937 3.03099 5.01715C4.21846 4.41211 5.77294 4.41211 8.88192 4.41211H24.417C27.5259 4.41211 29.0804 4.41211 30.2679 5.01715C31.3124 5.54937 32.1616 6.39858 32.6938 7.4431C33.2989 8.63057 33.2989 10.185 33.2989 13.294V28.7067C33.2989 31.8156 33.2989 33.3701 32.6938 34.5576C32.1616 35.6021 31.3124 36.4513 30.2679 36.9835C29.0804 37.5886 27.5259 37.5886 24.417 37.5886H8.88192C5.77294 37.5886 4.21846 37.5886 3.03099 36.9835C1.98647 36.4513 1.13726 35.6021 0.605043 34.5576C0 33.3701 0 31.8156 0 28.7067V13.294ZM7.22218 12.7078C6.65152 12.7078 6.43165 13.4108 6.91048 13.7045L18.8895 20.9008C19.188 21.0839 19.5863 21.0116 19.7919 20.7368L25.0587 13.8478C25.4168 13.3692 25.055 12.7078 24.4352 12.7078H7.22218ZM26.3673 28.2956C26.846 28.5892 26.6205 29.2961 26.0498 29.2961H8.84992C8.23017 29.2961 7.85706 28.6395 8.21507 28.161L13.4921 21.2733C13.6977 20.9986 14.0862 20.917 14.3848 21.1002L26.3673 28.2956Z" fill="#020202"/>
<path d="M44.3547 28.5958L52.1053 15.7715H45.2185V12.9316H57.3102V13.3599L49.7188 26.1842H57.0374V29.0466H44.3547V28.5958Z" fill="#020202"/>
<path d="M61.3256 12.9316H71.9172V15.7715H64.9849V19.5354H70.5308V22.1949H64.9849V26.2068H72.2808V29.0466H61.3256V12.9316Z" fill="#020202"/>
<path d="M76.5409 12.9316H82.3595C83.3143 12.9316 84.1777 13.0293 84.9507 13.2247C85.7237 13.42 86.3823 13.7205 86.928 14.1262C87.4738 14.5319 87.8902 15.0427 88.178 15.6588C88.4807 16.2748 88.6325 16.9961 88.6325 17.8225V17.9127C88.6325 18.5287 88.5495 19.0696 88.3828 19.5354C88.2161 20.0012 87.9814 20.4069 87.6778 20.7525C87.3751 21.0981 87.0193 21.3911 86.6095 21.6315C86.2006 21.8719 85.761 22.0597 85.2916 22.1949L89.5871 29.0466H85.6781L81.7912 22.826H80.2003V29.0466H76.5409V12.9316ZM82.2686 20.3468C83.1932 20.3468 83.8824 20.1514 84.3369 19.7608C84.8064 19.3701 85.0411 18.7917 85.0411 18.0253V17.9352C85.0411 17.1088 84.7989 16.5378 84.3146 16.2222C83.8443 15.8917 83.1625 15.7264 82.2686 15.7264H80.2003V20.3468H82.2686Z" fill="#020202"/>
<path d="M93.4597 12.9316H97.1647V29.0466H93.4597V12.9316Z" fill="#020202"/>
<path d="M109.372 26.3869C110.054 26.3869 110.667 26.2591 111.213 26.0037C111.774 25.7482 112.251 25.3877 112.645 24.9219C113.024 24.4711 113.319 23.9151 113.531 23.254C113.744 22.5929 113.849 21.8566 113.849 21.0452V20.865C113.849 20.0836 113.744 19.3699 113.531 18.7238C113.334 18.0777 113.046 17.5218 112.667 17.056C112.273 16.5902 111.796 16.2296 111.236 15.9741C110.675 15.7186 110.039 15.591 109.326 15.591C108.615 15.591 107.978 15.7186 107.417 15.9741C106.872 16.2145 106.402 16.5601 106.008 17.0109C105.614 17.4767 105.311 18.0402 105.099 18.7013C104.902 19.3473 104.804 20.0761 104.804 20.8875V21.0678C104.804 21.8942 104.917 22.6379 105.144 23.2991C105.372 23.9452 105.69 24.4937 106.099 24.9444C106.493 25.4102 106.97 25.7708 107.531 26.0262C108.091 26.2666 108.705 26.3869 109.372 26.3869ZM109.304 29.2943C108.031 29.2943 106.88 29.0914 105.849 28.6858C104.818 28.2651 103.948 27.6866 103.235 26.9503C102.508 26.229 101.947 25.3651 101.553 24.3584C101.159 23.3516 100.963 22.2623 100.963 21.0903V20.91C100.963 19.7079 101.167 18.6036 101.576 17.5968C102 16.5902 102.591 15.7262 103.349 15.0049C104.091 14.2838 104.97 13.7203 105.985 13.3146C107.001 12.9089 108.115 12.7061 109.326 12.7061C110.554 12.7061 111.675 12.9014 112.69 13.292C113.721 13.6827 114.607 14.2312 115.35 14.9373C116.077 15.6586 116.645 16.515 117.054 17.5067C117.479 18.4984 117.691 19.6028 117.691 20.8199V21.0002C117.691 22.2022 117.486 23.3141 117.077 24.3358C116.683 25.3426 116.123 26.214 115.395 26.9503C114.668 27.6866 113.789 28.2651 112.758 28.6858C111.728 29.0914 110.576 29.2943 109.304 29.2943Z" fill="#020202"/>
<path d="M121.678 12.9316H125.951L132.134 23.5473V12.9316H135.406V29.0466H131.725L124.951 17.5746V29.0466H121.678V12.9316Z" fill="#020202"/>
</g>
<defs>
<clipPath id="clip0_1136_12122">
<rect width="141" height="33.1765" fill="white" transform="translate(0 4.41211)"/>
</clipPath>
</defs>
</svg>
