<svg width="134" height="42" viewBox="0 0 134 42" fill="none" xmlns="http://www.w3.org/2000/svg">
<g clip-path="url(#clip0_1508_16363)">
<path d="M104.839 36.2697V38.5066H120.191V28.4186H117.955V36.2697H104.839ZM104.839 2.97754V5.21436H117.955V13.0661H120.191V2.97754H104.839ZM96.9224 20.2818V15.0842H100.432C102.142 15.0842 102.756 15.6543 102.756 17.2117V18.1326C102.756 19.7335 102.164 20.2818 100.432 20.2818H96.9224ZM102.493 21.2028C104.094 20.7861 105.212 19.2945 105.212 17.5185C105.212 16.4 104.774 15.391 103.94 14.5794C102.888 13.5703 101.484 13.0661 99.6635 13.0661H94.7291V28.418H96.9224V22.2994H100.212C101.901 22.2994 102.581 23.0012 102.581 24.756V28.4186H104.818V25.1069C104.818 22.6944 104.247 21.7734 102.493 21.5101V21.2028ZM84.027 21.7071H90.782V19.6895H84.027V15.0836H91.4397V13.0661H81.7896V28.418H91.7688V26.4004H84.027V21.7071ZM76.6795 22.5187V23.5712C76.6795 25.7863 75.8679 26.5103 73.8286 26.5103H73.3461C71.3062 26.5103 70.3194 25.8521 70.3194 22.8037V18.6804C70.3194 15.6102 71.3502 14.9738 73.3896 14.9738H73.828C75.8239 14.9738 76.4598 15.7196 76.4815 17.7812H78.8941C78.6748 14.7545 76.6572 12.8468 73.6306 12.8468C72.1613 12.8468 70.933 13.3076 70.0121 14.1845C68.6304 15.4786 67.8628 17.6719 67.8628 20.742C67.8628 23.7029 68.521 25.8962 69.8804 27.2556C70.8014 28.1548 72.0737 28.6373 73.3238 28.6373C74.6396 28.6373 75.8462 28.1107 76.4598 26.9705H76.7666V28.418H78.7842V20.5011H72.8407V22.5187H76.6795ZM57.3364 15.0836H59.7272C61.9863 15.0836 63.2146 15.6537 63.2146 18.7245V22.7596C63.2146 25.8298 61.9863 26.4004 59.7272 26.4004H57.3364V15.0836ZM59.9241 28.4186C64.1132 28.4186 65.6701 25.2385 65.6701 20.7426C65.6701 16.1808 64.0033 13.0666 59.88 13.0666H55.1426V28.4186H59.9241ZM44.5503 21.7071H51.3054V19.6895H44.5503V15.0836H51.963V13.0661H42.313V28.418H52.2921V26.4004H44.5503V21.7071ZM31.6109 13.0661H29.374V28.418H39.4626V26.4004H31.6109V13.0661ZM13.9998 28.4186V38.5071H29.3517V36.2697H16.2366V28.4186H13.9998ZM13.9998 2.97754V13.0661H16.2366V5.21436H29.3517V2.97754L13.9998 2.97754Z" fill="#020202"/>
</g>
<defs>
<clipPath id="clip0_1508_16363">
<rect width="106.192" height="35.5295" fill="white" transform="translate(14 2.97754)"/>
</clipPath>
</defs>
</svg>
