<svg width="122" height="42" viewBox="0 0 122 42" fill="none" xmlns="http://www.w3.org/2000/svg">
<path d="M29.0583 11.5931H29.1038C29.3035 11.6083 29.4981 11.7094 29.6194 11.8888L29.6472 11.9318L30.307 13.0819L30.3954 13.2386C31.6188 15.43 32.276 17.9071 32.3088 20.4272V20.8619C32.1749 29.0363 25.5323 35.6587 17.3377 35.7901H16.9105C13.6574 35.7547 10.5763 34.7133 7.97785 32.7721L7.8363 32.666L6.91877 31.9633L6.88339 31.9355C6.60282 31.6903 6.57502 31.2657 6.8202 30.9851L6.85306 30.9522L13.0913 24.7317L13.1266 24.6989C13.3288 24.5219 13.6195 24.484 13.8622 24.6003L13.9077 24.623L14.58 25.0072L14.6837 25.0654C15.3838 25.4445 16.1674 25.6518 16.9661 25.672H17.1784C19.9083 25.6265 22.1174 23.4224 22.1655 20.7001V20.4676C22.1553 20.1795 22.1225 19.8863 22.0618 19.6006L22.0315 19.4566L21.9026 18.9081L21.8925 18.8626C21.8596 18.6654 21.9177 18.4657 22.0467 18.3141L22.0795 18.2787L23.6087 16.752L23.6416 16.7217C23.9626 16.4411 24.4656 16.527 24.6754 16.8986L24.6956 16.939L24.7689 17.0957C25.1278 17.8768 25.3654 18.7109 25.4741 19.5703L25.4943 19.7422L25.512 19.9166C25.5272 20.091 25.5373 20.2654 25.5424 20.4398V20.7532C25.4691 25.2929 21.7787 28.9731 17.2265 29.0464H16.9181C16.0081 29.0262 15.1083 28.8619 14.254 28.5586L14.0947 28.5004L11.5393 31.0483L11.6935 31.1292C13.2985 31.9532 15.0679 32.393 16.908 32.4208H17.2821C23.6568 32.3171 28.8232 27.1658 28.9243 20.8063V20.4196C28.9066 19.2645 28.7171 18.122 28.3683 17.03L28.3051 16.8379L28.3 16.843L28.2343 16.6534C27.9436 15.837 27.562 15.0534 27.0969 14.3153L26.9882 14.146L26.9629 14.1056C26.8239 13.8578 26.8517 13.5469 27.0362 13.3321L27.0716 13.2942L28.5781 11.7902C28.712 11.6563 28.8839 11.5931 29.0558 11.5931H29.0583ZM17.2897 5.48633C20.6211 5.48633 23.7806 6.53024 26.4397 8.50685L26.5812 8.61301L27.5038 9.31569L27.5392 9.3435C27.8198 9.58868 27.8476 10.0133 27.6024 10.2939L27.5695 10.3293L21.3061 16.5498L21.2707 16.5826C21.0659 16.7596 20.7753 16.7975 20.5326 16.6812L20.4871 16.6585L19.8097 16.2743L19.7035 16.2161C19.0009 15.837 18.2122 15.6297 17.4135 15.6095H17.1987C14.4587 15.655 12.2369 17.8591 12.1914 20.5814V20.8139C12.2015 21.1046 12.2344 21.3952 12.295 21.6809L12.3254 21.8249L12.4543 22.3734L12.4644 22.4189C12.4973 22.6161 12.4391 22.8158 12.3077 22.9674L12.2723 23.0028L10.7355 24.527L10.7026 24.5573C10.3791 24.8379 9.8761 24.7519 9.66378 24.3829L9.64103 24.3425L9.56773 24.1883C9.20881 23.4098 8.96868 22.5807 8.85999 21.7289L8.83977 21.557L8.82461 21.3927L8.81197 21.2284L8.80691 21.1602L8.80186 21.0919L8.79428 20.9504L8.78922 20.8088V20.5283C8.86252 15.9886 12.5706 12.3084 17.143 12.2351H17.4539C18.3689 12.2553 19.2738 12.4196 20.1307 12.7229L20.29 12.7811L22.8555 10.2332L22.6988 10.1523C21.0862 9.32833 19.3092 8.88852 17.4615 8.86072H17.0849C10.6824 8.96435 5.49572 14.1182 5.39208 20.4752V20.8619C5.4123 22.017 5.59935 23.1595 5.95069 24.2515L6.01388 24.4436H6.01641L6.08213 24.6281C6.37533 25.4445 6.757 26.2281 7.22462 26.9662L7.33331 27.1355L7.35858 27.1759C7.4976 27.4237 7.4698 27.7346 7.28275 27.9494L7.24737 27.9873L5.73331 29.4913L5.70045 29.5216C5.39208 29.7895 4.91436 29.7263 4.68687 29.3876L4.6616 29.3497L3.99936 28.1996L3.91089 28.0429C2.69257 25.8489 2.03033 23.3693 2 20.8468V20.4171C2.13649 12.1618 8.94341 5.48633 17.2897 5.48633ZM47.0652 12.3438C49.2162 12.3438 50.9375 13.0035 52.6437 14.4822C52.7827 14.606 52.8636 14.7678 52.8686 14.9397C52.8737 15.0964 52.8181 15.2455 52.7119 15.3668L52.679 15.4022L51.6983 16.4032C51.5618 16.5725 51.4127 16.6155 51.3116 16.6231C51.2004 16.6307 51.026 16.6003 50.8414 16.4133C49.8051 15.5109 48.3998 14.9675 47.093 14.9675C44.0901 14.9675 41.6459 17.4951 41.6459 20.6041C41.6459 23.7131 44.0977 26.218 47.1132 26.218C48.7612 26.218 49.8885 25.5254 50.8591 24.7772C51.1018 24.5902 51.395 24.5725 51.6174 24.7317L51.6528 24.7595L52.6993 25.7807C52.8054 25.8717 52.8711 26.0158 52.8762 26.1725C52.8812 26.3545 52.8079 26.5415 52.679 26.6704C51.1675 28.1339 49.2263 28.9074 47.0677 28.9074C42.4775 28.9074 38.7417 25.2019 38.7417 20.6445C38.7417 16.0872 42.4775 12.3362 47.0677 12.3362L47.0652 12.3438ZM87.7752 12.3438C89.9262 12.3438 91.6476 13.0035 93.3537 14.4822C93.4927 14.606 93.5736 14.7678 93.5787 14.9397C93.5837 15.0964 93.5281 15.2455 93.422 15.3668L93.3891 15.4022L92.4084 16.4032C92.2719 16.5725 92.1227 16.6155 92.0216 16.6231C91.9079 16.6307 91.736 16.6003 91.5515 16.4133C90.5152 15.5109 89.1098 14.9675 87.803 14.9675C84.8002 14.9675 82.3585 17.4951 82.3585 20.6041C82.3585 23.7131 84.8128 26.218 87.8258 26.218C89.4738 26.218 90.6011 25.5254 91.5717 24.7772C91.8144 24.5902 92.1076 24.5725 92.33 24.7317L92.3654 24.7595L93.4118 25.7807C93.518 25.8717 93.5837 26.0158 93.5888 26.1725C93.5938 26.3545 93.5205 26.5415 93.3916 26.6704C91.8801 28.1339 89.9389 28.9074 87.7803 28.9074C83.1876 28.9074 79.4542 25.2019 79.4542 20.6445C79.4542 16.0872 83.1901 12.3362 87.7803 12.3362L87.7752 12.3438ZM58.7909 12.5688C59.1144 12.5688 59.3975 12.8392 59.4202 13.1577V28.0631C59.4202 28.3842 59.1498 28.6672 58.8313 28.69H57.3046C56.9836 28.69 56.698 28.4221 56.6752 28.1036V13.1956C56.6752 12.8746 56.9457 12.5915 57.2642 12.5688H58.7883H58.7909ZM71.2571 12.5688C74.0754 12.5688 76.3655 14.8158 76.3655 17.576C76.3655 19.545 75.1649 21.2891 73.211 22.1889L73.1149 22.2319L76.0925 27.7421C76.2062 27.9519 76.2037 28.2022 76.09 28.3943C75.9838 28.5687 75.7993 28.6748 75.5794 28.6875H73.7772C73.5295 28.6875 73.3374 28.5459 73.2514 28.4044L73.2363 28.3766L70.2992 22.5377H67.2306V28.0631C67.2306 28.3842 66.9602 28.6672 66.6392 28.69H65.1352C64.8016 28.69 64.5286 28.4322 64.5058 28.1036V13.1956C64.5058 12.8645 64.7662 12.5915 65.0922 12.5688H71.2546H71.2571ZM99.4984 12.5688C99.8219 12.5688 100.105 12.8392 100.128 13.1577V26.2003H106.025C106.358 26.2003 106.631 26.4606 106.654 26.7867V28.0631C106.654 28.3943 106.394 28.6672 106.065 28.69H98.0121C97.6785 28.69 97.4055 28.4322 97.3827 28.1036V13.1956C97.3827 12.8645 97.6431 12.5915 97.9692 12.5688H99.4958H99.4984ZM119.371 12.5688C119.704 12.5688 119.977 12.8291 120 13.1552V14.4544C120 14.7855 119.74 15.0585 119.414 15.0812H112.463V19.2619H118.269C118.592 19.2619 118.875 19.5324 118.898 19.8509V21.1475C118.898 21.4787 118.638 21.7516 118.309 21.7744H112.463V26.2028H119.371C119.704 26.2028 119.977 26.4632 120 26.7892V28.0657C120 28.3968 119.74 28.6698 119.414 28.6925H110.37C110.036 28.6925 109.763 28.4347 109.74 28.1061V13.1956C109.74 12.8645 110.001 12.5915 110.327 12.5688H119.371ZM71.0777 15.1469H67.2736V20.2022H71.0777C72.4552 20.2022 73.6205 19.0193 73.6205 17.619C73.6205 16.2187 72.4552 15.1469 71.0777 15.1469Z" fill="black"/>
</svg>
