<svg width="134" height="42" viewBox="0 0 134 42" fill="none" xmlns="http://www.w3.org/2000/svg">
<path d="M22.7325 17.9473H17.2515V16.2464C17.2515 15.1742 17.1994 14.5031 17.0953 14.2331C16.9911 13.9631 16.7438 13.8281 16.3532 13.8281C16.0147 13.8281 15.7847 13.9438 15.6632 14.1752C15.5417 14.4067 15.4809 15.0006 15.4809 15.9571V24.9477C15.4809 25.7885 15.5417 26.342 15.6632 26.6081C15.7847 26.8742 16.0277 27.0073 16.3923 27.0073C16.7915 27.0073 17.0627 26.8569 17.2059 26.556C17.3491 26.2552 17.4208 25.6689 17.4208 24.7973V22.5756H16.3142V19.7292H22.7325V29.7843H19.2825L18.7747 28.4421C18.4015 29.0206 17.9307 29.4545 17.3622 29.7438C16.7937 30.033 16.1232 30.1777 15.3508 30.1777C14.4308 30.1777 13.5693 29.979 12.7665 29.5818C11.9637 29.1845 11.354 28.6928 10.9374 28.1065C10.5208 27.5203 10.2604 26.9051 10.1562 26.261C10.0521 25.6169 10 24.6507 10 23.3625V17.7969C10 16.0073 10.1085 14.7075 10.3255 13.8975C10.5425 13.0876 11.1652 12.3451 12.1937 11.6702C13.2222 10.9952 14.5523 10.6577 16.184 10.6577C17.7896 10.6577 19.1219 10.9509 20.1808 11.5371C21.2396 12.1234 21.9296 12.8195 22.2508 13.6256C22.5719 14.4317 22.7324 15.6023 22.7325 17.1374V17.9473ZM28.9552 20.3772H24.0211V19.3474C24.0211 18.1595 24.1751 17.2434 24.4833 16.5993C24.7914 15.9552 25.4098 15.3863 26.3385 14.8926C27.2671 14.399 28.4735 14.1521 29.9577 14.1521C31.7369 14.1521 33.3057 14.4317 34.2084 14.991C35.111 15.5503 35.6534 16.2368 35.8357 17.0506C36.018 17.8644 36.1091 19.5403 36.1091 22.0781V29.7843H30.7649V28.4189C30.4437 28.9666 30.0293 29.3774 29.5216 29.6512C29.0138 29.925 28.4084 30.062 27.7054 30.062C26.7854 30.062 25.9414 29.8325 25.1733 29.3735C24.4051 28.9145 24.0211 27.9098 24.0211 26.3593V25.0981C24.0211 23.9487 24.2251 23.1658 24.633 22.7492C25.0409 22.3327 26.052 21.8467 27.6664 21.2913C29.3935 20.6896 30.3179 20.2846 30.4394 20.0764C30.5609 19.8681 30.6217 19.4438 30.6217 18.8036C30.6217 18.0013 30.5544 17.4787 30.4199 17.2357C30.2853 16.9928 30.0618 16.8713 29.7494 16.8712C29.3935 16.8713 29.1722 16.9735 29.0854 17.1779C28.9986 17.3823 28.9552 17.9126 28.9552 18.7689V20.3772ZM30.6217 22.4831C29.7798 23.0308 29.2916 23.4898 29.157 23.86C29.0225 24.2303 28.9552 24.7625 28.9552 25.4568C28.9552 26.2513 29.0138 26.7643 29.131 26.9957C29.2482 27.2271 29.4803 27.3428 29.8275 27.3428C30.1573 27.3428 30.3721 27.2522 30.4719 27.0709C30.5717 26.8896 30.6217 26.4133 30.6217 25.6419V22.4831ZM42.8854 14.4298L42.7943 15.8877C43.2022 15.3092 43.6883 14.8753 44.2524 14.586C44.8166 14.2968 45.4588 14.1521 46.1792 14.1521C47.5852 14.1521 48.6919 14.7307 49.499 15.8877C49.9417 15.3092 50.4407 14.8753 50.9962 14.586C51.5517 14.2968 52.1679 14.1521 52.8449 14.1521C53.7388 14.1521 54.4787 14.345 55.0646 14.7306C55.6504 15.1164 56.0258 15.5888 56.1907 16.1481C56.3556 16.7073 56.4381 17.6156 56.4381 18.873V29.7843H51.3347V19.7755C51.3347 18.4642 51.2848 17.6523 51.185 17.3399C51.0852 17.0275 50.853 16.8713 50.4885 16.8712C50.1152 16.8713 49.8744 17.0255 49.7659 17.3341C49.6574 17.6426 49.6032 18.4564 49.6032 19.7755V29.7843H44.4998V20.0301C44.4998 18.5259 44.4585 17.6234 44.3761 17.3225C44.2936 17.0217 44.0658 16.8713 43.6926 16.8712C43.4583 16.8713 43.2586 16.9503 43.0937 17.1084C42.9288 17.2666 42.8377 17.4594 42.8204 17.687C42.803 17.9146 42.7943 18.3986 42.7943 19.1391V29.7843H37.52V14.4298H42.8854ZM70.173 22.3789H63.3641V25.6998C63.3641 26.394 63.4205 26.8414 63.5334 27.042C63.6462 27.2425 63.8632 27.3428 64.1843 27.3428C64.5836 27.3428 64.8504 27.2098 64.985 26.9436C65.1195 26.6775 65.1868 26.1626 65.1868 25.3989V23.374H70.173V24.508C70.173 25.4568 70.1057 26.1857 69.9712 26.6949C69.8367 27.204 69.5221 27.7478 69.0274 28.3263C68.5326 28.9049 67.9055 29.3388 67.1461 29.6281C66.3867 29.9173 65.4341 30.062 64.2885 30.062C63.1775 30.062 62.1968 29.9193 61.3462 29.6338C60.4956 29.3484 59.8338 28.957 59.3608 28.4594C58.8878 27.9619 58.5602 27.4142 58.3779 26.8164C58.1956 26.2185 58.1045 25.3488 58.1045 24.2071V19.7292C58.1045 18.387 58.3085 17.3283 58.7164 16.553C59.1243 15.7778 59.7926 15.1838 60.7213 14.7711C61.65 14.3585 62.7175 14.1521 63.924 14.1521C65.3994 14.1521 66.6167 14.4009 67.5757 14.8984C68.5348 15.396 69.2074 16.0555 69.5937 16.877C69.9799 17.6986 70.173 18.8537 70.173 20.3425V22.3789ZM64.9004 19.8797V18.7573C64.9004 17.9628 64.8526 17.4498 64.7572 17.2184C64.6617 16.987 64.4664 16.8713 64.1713 16.8712C63.8068 16.8713 63.5811 16.9696 63.4943 17.1663C63.4075 17.363 63.3641 17.8933 63.3641 18.7573V19.8797H64.9004Z" fill="#020202"/>
<path d="M83.6736 16.2909H78.5832V14.9024C78.5832 14.2545 78.5181 13.8418 78.3879 13.6643C78.2577 13.4869 78.0407 13.3982 77.737 13.3982C77.4071 13.3982 77.1576 13.5178 76.9884 13.7569C76.8191 13.9961 76.7345 14.3586 76.7345 14.8446C76.7345 15.4694 76.83 15.94 77.0209 16.2562C77.2032 16.5725 77.7196 16.9543 78.5702 17.4017C81.009 18.6899 82.5452 19.7468 83.1788 20.5721C83.8124 21.3975 84.1292 22.7282 84.1292 24.5641C84.1292 25.8986 83.9535 26.8821 83.602 27.5146C83.2504 28.1472 82.5713 28.6775 81.5645 29.1056C80.5577 29.5337 79.386 29.7478 78.0494 29.7478C76.5826 29.7478 75.3306 29.5009 74.2935 29.0073C73.2563 28.5136 72.5771 27.8849 72.256 27.1212C71.9349 26.3575 71.7743 25.2737 71.7743 23.8698V22.6433H76.8647V24.9228C76.8647 25.6247 76.9363 26.076 77.0795 26.2765C77.2227 26.4771 77.4766 26.5774 77.8411 26.5774C78.2056 26.5774 78.4769 26.4501 78.6548 26.1955C78.8327 25.941 78.9217 25.563 78.9217 25.0616C78.9217 23.9585 78.7524 23.2373 78.4139 22.8979C78.0668 22.5585 77.2119 21.9915 75.8492 21.197C74.4866 20.3947 73.4131 19.8123 72.9704 19.4498C72.5278 19.0872 72.1611 18.5858 71.8703 17.9455C71.5796 17.3053 71.4342 16.4876 71.4342 15.4925C71.4342 14.0578 71.6403 12.7809 72.0526 12.1175C72.4649 11.4541 73.131 10.9353 74.051 10.5612C74.971 10.1871 76.2528 10 77.5547 10C78.9781 10 80.191 10.2044 81.1935 10.6132C82.1959 11.0221 82.8599 11.537 83.1854 12.158C83.5108 12.7789 83.6735 14.0616 83.6736 15.5504V16.2909ZM91.4784 11.9519V13.8006H92.9544V16.2305H91.4784V25.0153C91.4784 26.0258 91.5369 26.589 91.6541 26.7047C91.7713 26.8204 92.0317 26.8782 92.8909 26.8782V29.3544H90.7688C89.5711 29.3544 88.7162 29.31 88.2041 29.2213C87.692 29.1326 87.2407 28.9282 86.8502 28.6081C86.4596 28.2879 86.2166 27.9215 86.1211 27.5088C86.0256 27.0961 85.9779 26.1261 85.9779 24.5988V16.2305H84.8453V13.8006H85.9779V11.9519H91.4784ZM106.126 19.3919V23.1524C106.126 24.5332 106.048 25.5457 105.892 26.1898C105.736 26.8339 105.401 27.4356 104.889 27.9948C104.377 28.5541 103.72 28.9668 102.917 29.2329C102.114 29.499 101.192 29.6321 100.151 29.6321C98.9875 29.6321 98.0024 29.5183 97.1953 29.2907C96.3881 29.0632 95.761 28.7199 95.314 28.2609C94.8671 27.802 94.5481 27.2466 94.3572 26.5947C94.1662 25.9429 94.0707 24.9652 94.0707 23.6615V19.7275C94.0707 18.3004 94.2443 17.1857 94.5915 16.3835C94.9387 15.5813 95.5636 14.9372 96.4662 14.4512C97.3688 13.9652 98.5232 13.7222 99.9292 13.7222C101.11 13.7222 102.123 13.8784 102.969 14.1908C103.815 14.5032 104.468 14.9102 104.928 15.4115C105.388 15.913 105.703 16.4298 105.872 16.962C106.042 17.4943 106.126 18.3043 106.126 19.3919ZM100.867 18.2348C100.867 17.448 100.819 16.9524 100.723 16.748C100.628 16.5436 100.424 16.4414 100.111 16.4413C99.799 16.4414 99.5907 16.5436 99.4866 16.748C99.3824 16.9524 99.3304 17.448 99.3304 18.2348V25.1657C99.3304 25.8908 99.3824 26.3633 99.4866 26.5832C99.5907 26.803 99.7947 26.9129 100.098 26.9129C100.411 26.9129 100.617 26.8127 100.717 26.6121C100.817 26.4115 100.867 25.9796 100.867 25.3162V18.2348ZM112.937 13.9999L112.846 15.3537C113.314 14.806 113.831 14.3972 114.395 14.1272C114.959 13.8572 115.575 13.7222 116.244 13.7222C119.364 13.609 120.453 15.3178 120.491 18.2464V24.7145C120.491 26.1107 120.398 27.1039 120.211 27.694C119.177 29.7529 116.35 30.0793 114.369 29.2271C113.813 28.9571 113.306 28.556 112.846 28.0237V31.5413H107.586V13.9999H112.937ZM114.434 18.4662C114.434 17.5174 114.395 16.9428 114.317 16.7422C114.239 16.5416 114.022 16.4414 113.666 16.4413C113.319 16.4414 113.095 16.5571 112.995 16.7885C112.895 17.0199 112.846 17.5792 112.846 18.4662V24.8302C112.846 25.7559 112.898 26.3344 113.002 26.5658C113.106 26.7972 113.332 26.9129 113.679 26.9129C114.017 26.9129 114.228 26.8069 114.31 26.5947C114.393 26.3826 114.434 25.8677 114.434 25.05V18.4662Z" fill="#020202"/>
<path d="M122.251 13.9359V12.542H122.869C122.994 12.542 123.088 12.5545 123.153 12.5795C123.217 12.6046 123.269 12.6488 123.308 12.7122C123.346 12.7756 123.366 12.8456 123.366 12.9223C123.366 13.0212 123.334 13.1046 123.27 13.1724C123.206 13.2402 123.107 13.2833 122.973 13.3017C123.022 13.3252 123.059 13.3483 123.084 13.3711C123.138 13.4206 123.189 13.4824 123.237 13.5565L123.48 13.9359H123.248L123.063 13.6459C123.009 13.5622 122.965 13.4982 122.93 13.4538C122.895 13.4095 122.864 13.3784 122.837 13.3606C122.809 13.3429 122.781 13.3305 122.752 13.3236C122.732 13.3191 122.697 13.3169 122.65 13.3169H122.436V13.9359H122.251V13.9359ZM122.436 13.1572H122.832C122.917 13.1572 122.983 13.1485 123.03 13.131C123.078 13.1136 123.114 13.0857 123.138 13.0474C123.163 13.009 123.176 12.9673 123.176 12.9223C123.176 12.8564 123.152 12.8022 123.104 12.7597C123.056 12.7173 122.98 12.696 122.877 12.696H122.436V13.1572Z" fill="#020202"/>
<path d="M123.904 13.2461C123.904 13.8675 123.4 14.3712 122.779 14.3712C122.158 14.3712 121.654 13.8675 121.654 13.2461C121.654 12.6248 122.158 12.1211 122.779 12.1211C123.4 12.1211 123.904 12.6248 123.904 13.2461Z" stroke="#020202" stroke-width="0.18935"/>
</svg>
