<svg width="40" height="40" viewBox="0 0 40 40" fill="none" xmlns="http://www.w3.org/2000/svg">
<circle cx="20.4018" cy="19.8522" r="18.7808" transform="rotate(180 20.4018 19.8522)" fill="url(#paint0_linear)"/>
<g clip-path="url(#clip0)">
<path fill-rule="evenodd" clip-rule="evenodd" d="M27.5205 8.42294C27.4633 8.20983 27.3526 8.01488 27.1989 7.85659C27.0451 7.6983 26.8535 7.58191 26.6422 7.51847C26.4309 7.45503 26.2068 7.44664 25.9913 7.4941C25.7758 7.54156 25.576 7.6433 25.4109 7.78966L16.9719 15.2714L12.2649 16.5327C11.2697 16.7993 10.4211 17.4504 9.90596 18.3428C9.39079 19.2351 9.25118 20.2955 9.51786 21.2907C9.78453 22.286 10.4356 23.1345 11.328 23.6497C12.2203 24.1649 13.2807 24.3045 14.2759 24.0378L14.6262 23.9439L18.6232 29.9999C18.7729 30.2268 18.9903 30.4009 19.2445 30.4974C19.4987 30.5938 19.7769 30.6079 20.0395 30.5374L21.2903 30.2023C21.6221 30.1134 21.9049 29.8963 22.0767 29.5989C22.2484 29.3015 22.2949 28.948 22.206 28.6162L20.7373 23.135L30.0322 25.0364C30.2484 25.0806 30.4723 25.0688 30.6826 25.0022C30.893 24.9356 31.0828 24.8163 31.2341 24.6557C31.3854 24.4951 31.4931 24.2985 31.5471 24.0845C31.6011 23.8706 31.5995 23.6464 31.5425 23.4332L27.5205 8.42294Z" fill="url(#paint1_linear)"/>
</g>
<defs>
<linearGradient id="paint0_linear" x1="36.9189" y1="19.8522" x2="3.64959" y2="20.2846" gradientUnits="userSpaceOnUse">
<stop stop-color="#EFEFEF"/>
<stop offset="1" stop-color="#FBFBFB"/>
</linearGradient>
<linearGradient id="paint1_linear" x1="11" y1="15" x2="31" y2="23.5" gradientUnits="userSpaceOnUse">
<stop stop-color="#46CD92"/>
<stop offset="1" stop-color="#36FFA7"/>
</linearGradient>
<clipPath id="clip0">
<rect width="25.8996" height="25.8996" fill="white" transform="translate(4 10.7034) rotate(-15)"/>
</clipPath>
</defs>
</svg>
