<svg width="118" height="25" viewBox="0 0 118 25" fill="none" xmlns="http://www.w3.org/2000/svg">
<path d="M20.2134 13.5518L12.5247 0.218232C12.4875 0.152393 12.4335 0.0975498 12.3684 0.0592358C12.3032 0.0209218 12.2291 0.00049221 12.1536 8.78352e-06C12.078 -0.000474643 12.0036 0.019005 11.938 0.0564822C11.8724 0.0939594 11.8178 0.148109 11.7797 0.213466L9.47704 4.20876C9.40163 4.33954 9.36193 4.4879 9.36193 4.63891C9.36193 4.78993 9.40163 4.93828 9.47704 5.06907L14.4906 13.7674C14.566 13.8984 14.6747 14.007 14.8054 14.0826C14.9362 14.1581 15.0845 14.1978 15.2355 14.1976H19.8409C19.9163 14.1974 19.9903 14.1773 20.0555 14.1395C20.1208 14.1017 20.1749 14.0473 20.2127 13.982C20.2504 13.9166 20.2703 13.8425 20.2704 13.767C20.2705 13.6915 20.2508 13.6173 20.2134 13.5518Z" fill="white"/>
<path d="M0.0592877 20.5204L7.74797 7.18684C7.7857 7.12152 7.83993 7.06729 7.90521 7.02959C7.97048 6.99189 8.04449 6.97204 8.11985 6.97204C8.19521 6.97204 8.26925 6.99189 8.33452 7.02959C8.3998 7.06729 8.454 7.12152 8.49173 7.18684L10.7956 11.1786C10.871 11.3096 10.9107 11.4581 10.9107 11.6093C10.9107 11.7605 10.871 11.9091 10.7956 12.0401L5.78206 20.7384C5.70687 20.8693 5.59851 20.978 5.46791 21.0536C5.33732 21.1291 5.18912 21.1688 5.0383 21.1686H0.431763C0.355878 21.169 0.28125 21.1492 0.215463 21.1113C0.149676 21.0735 0.0950847 21.0188 0.0572395 20.953C0.0193942 20.8871 -0.000356285 20.8124 4.86542e-06 20.7364C0.000366016 20.6604 0.0208181 20.5859 0.0592877 20.5204Z" fill="white"/>
<path d="M8.49063 21.1657H23.868C23.9434 21.1657 24.0175 21.1457 24.0828 21.1079C24.1481 21.07 24.2023 21.0156 24.2399 20.9502C24.2775 20.8847 24.2973 20.8105 24.2972 20.735C24.2971 20.6594 24.2771 20.5853 24.2393 20.5199L21.939 16.5258C21.8635 16.3949 21.7549 16.2862 21.6241 16.2107C21.4934 16.1352 21.345 16.0955 21.194 16.0957H11.167C11.016 16.0955 10.8677 16.1352 10.7369 16.2107C10.6061 16.2862 10.4975 16.3949 10.422 16.5258L8.11936 20.5199C8.08154 20.5853 8.06157 20.6594 8.06146 20.735C8.06135 20.8105 8.08109 20.8847 8.11872 20.9502C8.15635 21.0156 8.21056 21.07 8.27584 21.1079C8.34112 21.1457 8.4152 21.1657 8.49063 21.1657Z" fill="white"/>
<path d="M37.2251 13.0881V12.7898C37.2251 12.04 36.9729 11.4662 36.4686 11.0684C35.9796 10.6553 35.3378 10.4487 34.5432 10.4487C33.932 10.4487 33.4506 10.5558 33.0991 10.77C32.7629 10.9689 32.442 11.275 32.1364 11.6881C32.0447 11.8105 31.9454 11.8947 31.8384 11.9406C31.7315 11.9865 31.5863 12.0094 31.4029 12.0094H30.7153C30.5472 12.0094 30.3944 11.9482 30.2568 11.8258C30.1346 11.7034 30.0811 11.558 30.0964 11.3897C30.1422 10.9307 30.3638 10.4793 30.7611 10.0356C31.1737 9.57654 31.7162 9.20166 32.3885 8.91094C33.0609 8.62022 33.7791 8.47486 34.5432 8.47486C35.9644 8.47486 37.1105 8.87269 37.9815 9.66835C38.8678 10.464 39.3109 11.581 39.3109 13.0193V20.0195C39.3109 20.1878 39.2498 20.3332 39.1276 20.4556C39.0053 20.578 38.8602 20.6392 38.6921 20.6392H37.8439C37.6759 20.6392 37.5307 20.578 37.4084 20.4556C37.2862 20.3332 37.2251 20.1878 37.2251 20.0195V19.0785C36.9806 19.6293 36.461 20.0654 35.6664 20.3867C34.8717 20.7081 34.0771 20.8687 33.2825 20.8687C32.5032 20.8687 31.8079 20.731 31.1966 20.4556C30.5854 20.1649 30.1116 19.7747 29.7755 19.2851C29.4546 18.7954 29.2941 18.2446 29.2941 17.6325C29.2941 16.485 29.722 15.5899 30.5777 14.9472C31.4335 14.2893 32.5719 13.8455 33.9931 13.616L37.2251 13.0881ZM37.2251 14.9243L34.5203 15.3603C33.527 15.5133 32.7553 15.7658 32.2052 16.1177C31.6551 16.4544 31.38 16.8828 31.38 17.403C31.38 17.7856 31.5557 18.1298 31.9072 18.4358C32.2587 18.7419 32.7935 18.8949 33.5117 18.8949C34.612 18.8949 35.5059 18.5812 36.1936 17.9539C36.8812 17.3265 37.2251 16.5079 37.2251 15.498V14.9243Z" fill="white"/>
<path d="M44.7411 20.0195C44.7411 20.1878 44.68 20.3332 44.5577 20.4556C44.4355 20.578 44.2903 20.6392 44.1222 20.6392H43.2741C43.106 20.6392 42.9608 20.578 42.8386 20.4556C42.7163 20.3332 42.6552 20.1878 42.6552 20.0195V4.96327C42.6552 4.79496 42.7163 4.6496 42.8386 4.52719C42.9608 4.40479 43.106 4.34358 43.2741 4.34358H44.1222C44.2903 4.34358 44.4355 4.40479 44.5577 4.52719C44.68 4.6496 44.7411 4.79496 44.7411 4.96327V20.0195Z" fill="white"/>
<path d="M52.9978 18.8949C54.5259 18.8949 55.5574 18.2981 56.0922 17.1047C56.1992 16.8751 56.3062 16.7145 56.4131 16.6227C56.5201 16.5309 56.6653 16.485 56.8487 16.485H57.5363C57.7044 16.485 57.8496 16.5462 57.9718 16.6686C58.0941 16.7757 58.1552 16.9057 58.1552 17.0588C58.1552 17.579 57.9489 18.1375 57.5363 18.7342C57.1237 19.331 56.5278 19.8359 55.7484 20.249C54.9691 20.6622 54.0522 20.8687 52.9978 20.8687C51.9128 20.8687 50.973 20.6392 50.1784 20.1802C49.3838 19.7211 48.7725 19.0938 48.3447 18.2981C47.9168 17.4872 47.6799 16.5844 47.6341 15.5899C47.6188 15.4062 47.6112 15.0543 47.6112 14.5341C47.6112 14.1669 47.6188 13.9067 47.6341 13.7537C47.7716 12.193 48.2988 10.923 49.2157 9.94377C50.1326 8.9645 51.3933 8.47486 52.9978 8.47486C54.0522 8.47486 54.9614 8.68143 55.7255 9.09456C56.5048 9.49239 57.0932 9.98967 57.4905 10.5864C57.9031 11.1679 58.1246 11.7187 58.1552 12.2389C58.1705 12.4072 58.1094 12.5526 57.9718 12.675C57.8496 12.7974 57.7044 12.8586 57.5363 12.8586H56.8487C56.6653 12.8586 56.5201 12.8127 56.4131 12.7209C56.3062 12.6291 56.1992 12.4684 56.0922 12.2389C55.5574 11.0454 54.5259 10.4487 52.9978 10.4487C52.1573 10.4487 51.4238 10.7318 50.7973 11.2979C50.1708 11.864 49.8117 12.7209 49.72 13.8685C49.7047 14.0368 49.697 14.3122 49.697 14.6947C49.697 15.0467 49.7047 15.3068 49.72 15.4751C49.8269 16.6227 50.186 17.4795 50.7973 18.0457C51.4238 18.6118 52.1573 18.8949 52.9978 18.8949Z" fill="white"/>
<path d="M71.4886 20.0195C71.4886 20.1878 71.4274 20.3332 71.3052 20.4556C71.1829 20.578 71.0378 20.6392 70.8697 20.6392H70.0216C69.8535 20.6392 69.7083 20.578 69.586 20.4556C69.4638 20.3332 69.4027 20.1878 69.4027 20.0195V13.9603C69.4027 12.8127 69.12 11.9406 68.5546 11.3438C67.9891 10.7471 67.2022 10.4487 66.1936 10.4487C65.2003 10.4487 64.4133 10.7471 63.8327 11.3438C63.2673 11.9406 62.9845 12.8127 62.9845 13.9603V20.0195C62.9845 20.1878 62.9234 20.3332 62.8012 20.4556C62.6789 20.578 62.5338 20.6392 62.3657 20.6392H61.5176C61.3495 20.6392 61.2043 20.578 61.082 20.4556C60.9598 20.3332 60.8987 20.1878 60.8987 20.0195V4.96327C60.8987 4.79496 60.9598 4.6496 61.082 4.52719C61.2043 4.40479 61.3495 4.34358 61.5176 4.34358H62.3657C62.5338 4.34358 62.6789 4.40479 62.8012 4.52719C62.9234 4.6496 62.9845 4.79496 62.9845 4.96327V10.0356C63.3207 9.59184 63.7792 9.22462 64.3599 8.9339C64.9558 8.62788 65.6817 8.47486 66.5374 8.47486C67.5002 8.47486 68.3559 8.68143 69.1047 9.09456C69.8535 9.50769 70.4342 10.1044 70.8467 10.8848C71.2746 11.6498 71.4886 12.5602 71.4886 13.616V20.0195Z" fill="white"/>
<path d="M79.5209 8.47486C81.156 8.47486 82.4472 8.9951 83.3947 10.0356C84.3421 11.076 84.8158 12.4914 84.8158 14.2816V14.9013C84.8158 15.0696 84.7547 15.215 84.6324 15.3374C84.5102 15.4598 84.365 15.521 84.1969 15.521H76.3118V15.6587C76.3424 16.6686 76.648 17.4642 77.2287 18.0457C77.8246 18.6118 78.5887 18.8949 79.5209 18.8949C80.2849 18.8949 80.8733 18.7954 81.2858 18.5965C81.7137 18.3976 82.0957 18.1145 82.4319 17.7473C82.5542 17.6249 82.6612 17.5407 82.7528 17.4948C82.8598 17.4489 82.9973 17.426 83.1654 17.426H83.8531C84.0365 17.426 84.1893 17.4872 84.3115 17.6096C84.4338 17.732 84.4873 17.8774 84.472 18.0457C84.4109 18.4588 84.1816 18.8872 83.7843 19.331C83.4023 19.7594 82.8445 20.1266 82.111 20.4326C81.3928 20.7234 80.5294 20.8687 79.5209 20.8687C78.5429 20.8687 77.6718 20.6469 76.9078 20.2031C76.1437 19.7441 75.5325 19.1167 75.074 18.3211C74.6309 17.5254 74.3634 16.6303 74.2718 15.6358C74.2412 15.1767 74.2259 14.8248 74.2259 14.58C74.2259 14.3352 74.2412 13.9832 74.2718 13.5242C74.3634 12.5755 74.6309 11.7187 75.074 10.9536C75.5325 10.1886 76.1361 9.58419 76.8849 9.14046C77.6489 8.69673 78.5276 8.47486 79.5209 8.47486ZM82.7528 13.5931V13.5242C82.7528 12.5908 82.4549 11.8487 81.8589 11.2979C81.2782 10.7318 80.4989 10.4487 79.5209 10.4487C78.6345 10.4487 77.8781 10.7318 77.2516 11.2979C76.6404 11.864 76.3271 12.6061 76.3118 13.5242V13.5931H82.7528Z" fill="white"/>
<path d="M89.667 10.0356C90.0338 9.56124 90.4463 9.18636 90.9048 8.91094C91.3632 8.62022 91.9745 8.47486 92.7385 8.47486C94.5264 8.47486 95.7795 9.14046 96.4977 10.4717C96.9409 9.82901 97.4451 9.33937 98.0106 9.00275C98.576 8.65083 99.3171 8.47486 100.234 8.47486C101.732 8.47486 102.839 8.92625 103.558 9.82901C104.291 10.7318 104.658 12.0094 104.658 13.6619V20.0195C104.658 20.1878 104.597 20.3332 104.475 20.4556C104.352 20.578 104.207 20.6392 104.039 20.6392H103.191C103.023 20.6392 102.878 20.578 102.755 20.4556C102.633 20.3332 102.572 20.1878 102.572 20.0195V13.8914C102.572 11.5963 101.67 10.4487 99.8672 10.4487C99.042 10.4487 98.3849 10.7241 97.8959 11.275C97.4069 11.8258 97.1624 12.6444 97.1624 13.7308V20.0195C97.1624 20.1878 97.1013 20.3332 96.9791 20.4556C96.8568 20.578 96.7116 20.6392 96.5435 20.6392H95.6954C95.5274 20.6392 95.3822 20.578 95.2599 20.4556C95.1377 20.3332 95.0765 20.1878 95.0765 20.0195V13.8914C95.0765 11.5963 94.175 10.4487 92.3718 10.4487C91.5466 10.4487 90.8895 10.7241 90.4005 11.275C89.9115 11.8258 89.667 12.6444 89.667 13.7308V20.0195C89.667 20.1878 89.6059 20.3332 89.4836 20.4556C89.3614 20.578 89.2162 20.6392 89.0481 20.6392H88.2C88.0319 20.6392 87.8867 20.578 87.7645 20.4556C87.6422 20.3332 87.5811 20.1878 87.5811 20.0195V9.32407C87.5811 9.15576 87.6422 9.0104 87.7645 8.88799C87.8867 8.76558 88.0319 8.70438 88.2 8.70438H89.0481C89.2162 8.70438 89.3614 8.76558 89.4836 8.88799C89.6059 9.0104 89.667 9.15576 89.667 9.32407V10.0356Z" fill="white"/>
<path d="M111.078 24.4492C110.94 24.8164 110.719 25 110.413 25H109.473C109.32 25 109.19 24.9464 109.083 24.8393C108.976 24.7322 108.923 24.6022 108.923 24.4492C108.923 24.388 108.931 24.3344 108.946 24.2885L111.146 19.4916L106.608 9.41588C106.593 9.36998 106.585 9.31642 106.585 9.25522C106.585 9.10221 106.638 8.97215 106.745 8.86504C106.852 8.75793 106.982 8.70438 107.135 8.70438H108.075C108.38 8.70438 108.602 8.88799 108.74 9.25522L112.27 17.0588L115.845 9.25522C115.983 8.88799 116.204 8.70438 116.51 8.70438H117.45C117.603 8.70438 117.733 8.75793 117.84 8.86504C117.947 8.97215 118 9.10221 118 9.25522C118 9.31642 117.992 9.36998 117.977 9.41588L111.078 24.4492Z" fill="white"/>
</svg>
