<svg width="32" height="32" viewBox="0 0 32 32" fill="none" xmlns="http://www.w3.org/2000/svg">
<path d="M23.0149 10.6435C22.7349 10.4884 22.4201 10.407 22.1001 10.407C21.78 10.407 21.4652 10.4884 21.1853 10.6435L16.9865 13.0772L14.139 14.6629L9.93392 17.0951C9.65438 17.2514 9.33942 17.3336 9.01911 17.3336C8.69881 17.3336 8.38385 17.2514 8.10431 17.0951L4.76603 15.1947C4.49463 15.0392 4.26793 14.8163 4.10782 14.5476C3.9477 14.2789 3.8596 13.9735 3.85201 13.6608V9.90406C3.84844 9.58904 3.93189 9.27914 4.09316 9.00851C4.25443 8.73787 4.48727 8.517 4.76603 8.37021L8.05082 6.52015C8.33036 6.36376 8.64532 6.28165 8.96562 6.28165C9.28593 6.28165 9.60089 6.36376 9.88043 6.52015L13.1637 8.37021C13.4351 8.52573 13.662 8.74856 13.8224 9.01721C13.9827 9.28586 14.0712 9.59129 14.0792 9.90406V12.3362L16.9314 10.6969V8.27267C16.935 7.95765 16.8515 7.64776 16.6903 7.37712C16.529 7.10649 16.2962 6.88561 16.0174 6.73882L9.93392 3.2385C9.65438 3.08211 9.33942 3 9.01911 3C8.69881 3 8.38385 3.08211 8.10431 3.2385L1.91385 6.73096C1.63349 6.878 1.39944 7.09998 1.23778 7.37219C1.07613 7.64439 0.99321 7.95613 0.998265 8.27267V15.3048C0.994671 15.62 1.07828 15.9301 1.23986 16.2008C1.40143 16.4714 1.63469 16.6922 1.91385 16.8386L8.10431 20.3279C8.38385 20.4843 8.69881 20.5664 9.01911 20.5664C9.33942 20.5664 9.65438 20.4843 9.93392 20.3279L14.139 17.9414L16.9865 16.2959L21.1853 13.9157C21.4652 13.7606 21.78 13.6792 22.1001 13.6792C22.4201 13.6792 22.7349 13.7606 23.0149 13.9157L26.2981 15.7673C26.5697 15.9223 26.7966 16.1448 26.957 16.4132C27.1174 16.6817 27.2058 16.987 27.2137 17.2996V21.0547C27.2172 21.3697 27.1335 21.6796 26.9719 21.95C26.8104 22.2204 26.5772 22.4408 26.2981 22.587L23.0149 24.4906C22.7354 24.647 22.4204 24.7291 22.1001 24.7291C21.7798 24.7291 21.4648 24.647 21.1853 24.4906L17.9005 22.6405C17.6291 22.485 17.4024 22.2622 17.2423 21.9935C17.0822 21.7248 16.9941 21.4193 16.9865 21.1067V18.6808L14.139 20.3201V22.7459C14.1353 23.0612 14.2188 23.3713 14.3804 23.642C14.542 23.9127 14.7753 24.1335 15.0546 24.2798L21.2388 27.7801C21.5183 27.9365 21.8333 28.0186 22.1536 28.0186C22.4739 28.0186 22.7888 27.9365 23.0684 27.7801L29.2588 24.2908C29.5304 24.1354 29.7574 23.9126 29.9177 23.6439C30.0781 23.3752 30.1665 23.0697 30.1744 22.7569V15.7248C30.1777 15.4097 30.0939 15.0997 29.9324 14.8291C29.7708 14.5585 29.5378 14.3377 29.2588 14.191L23.0149 10.6435Z" fill="#8247E5"/>
</svg>
