<svg width="72" height="72" viewBox="0 0 72 72" fill="none" xmlns="http://www.w3.org/2000/svg">
<rect opacity="0.2" x="3" y="29" width="55" height="32" rx="4" fill="url(#paint0_linear_1007_8499)"/>
<rect opacity="0.4" x="12" y="7" width="55" height="32" rx="4" fill="url(#paint1_linear_1007_8499)"/>
<path fill-rule="evenodd" clip-rule="evenodd" d="M32.8503 21.3179C33.0952 20.8229 32.8924 20.2231 32.3974 19.9782L29.2948 18.4434C28.7997 18.1985 28.1999 18.4013 27.955 18.8963L24.1607 26.5668C22.2863 30.3558 23.1561 34.7873 26.007 37.6041L12.4599 60.4026C10.955 62.9353 11.9247 66.2131 14.5653 67.5193C17.2059 68.8256 20.3997 67.6074 21.4996 64.8743L31.4005 40.2722C35.3696 40.8291 39.4198 38.8315 41.2942 35.0423L45.0886 27.3719C45.3335 26.8769 45.1307 26.2771 44.6356 26.0322L41.533 24.4974C41.038 24.2525 40.4382 24.4553 40.1933 24.9503L38.8205 27.7255C37.8174 29.7531 35.3605 30.5838 33.3328 29.5807C31.3051 28.5777 30.4745 26.1208 31.4775 24.0931L32.8503 21.3179ZM16.3815 63.8479C17.7333 64.5166 19.3712 63.9628 20.0399 62.611C20.7086 61.2592 20.1549 59.6213 18.8031 58.9526C17.4513 58.2839 15.8133 58.8376 15.1446 60.1894C14.4759 61.5412 15.0297 63.1792 16.3815 63.8479Z" fill="url(#paint2_linear_1007_8499)"/>
<path opacity="0.6" fill-rule="evenodd" clip-rule="evenodd" d="M59.2265 46.2679C58.6077 45.9106 57.8453 45.9106 57.2265 46.2679L50.9993 49.8632C50.3805 50.2205 49.9993 50.8807 49.9993 51.5952V58.7858C49.9993 59.5004 50.3805 60.1606 50.9993 60.5179L57.2265 64.1132C57.8453 64.4705 58.6077 64.4705 59.2265 64.1132L65.4538 60.5179C66.0726 60.1606 66.4538 59.5004 66.4538 58.7858V51.5952C66.4538 50.8807 66.0726 50.2205 65.4538 49.8632L59.2265 46.2679ZM58.2265 58.6905C60.1595 58.6905 61.7265 57.1235 61.7265 55.1905C61.7265 53.2575 60.1595 51.6905 58.2265 51.6905C56.2935 51.6905 54.7265 53.2575 54.7265 55.1905C54.7265 57.1235 56.2935 58.6905 58.2265 58.6905Z" fill="url(#paint3_linear_1007_8499)"/>
<defs>
<linearGradient id="paint0_linear_1007_8499" x1="3" y1="29" x2="42.8029" y2="79.3092" gradientUnits="userSpaceOnUse">
<stop offset="0.24238" stop-color="#36BEFF"/>
<stop offset="1" stop-color="#733FF1"/>
</linearGradient>
<linearGradient id="paint1_linear_1007_8499" x1="12" y1="7" x2="51.8029" y2="57.3092" gradientUnits="userSpaceOnUse">
<stop offset="0.24238" stop-color="#36BEFF"/>
<stop offset="1" stop-color="#733FF1"/>
</linearGradient>
<linearGradient id="paint2_linear_1007_8499" x1="28.3984" y1="18" x2="54.1774" y2="41.106" gradientUnits="userSpaceOnUse">
<stop offset="0.24238" stop-color="#36BEFF"/>
<stop offset="1" stop-color="#733FF1"/>
</linearGradient>
<linearGradient id="paint3_linear_1007_8499" x1="49.9993" y1="45.9999" x2="71.5791" y2="60.2061" gradientUnits="userSpaceOnUse">
<stop offset="0.24238" stop-color="#36BEFF"/>
<stop offset="1" stop-color="#733FF1"/>
</linearGradient>
</defs>
</svg>
