<svg width="72" height="72" viewBox="0 0 72 72" fill="none" xmlns="http://www.w3.org/2000/svg">
<rect opacity="0.3" x="2" y="5" width="16" height="16" rx="8" fill="url(#paint0_linear_1007_8510)"/>
<rect opacity="0.3" x="20" y="21" width="46" height="44" rx="3" fill="url(#paint1_linear_1007_8510)"/>
<rect x="11" y="13" width="48" height="12" rx="3" fill="url(#paint2_linear_1007_8510)"/>
<rect x="29" y="30" width="42" height="12" rx="3" fill="url(#paint3_linear_1007_8510)"/>
<rect x="11" y="47" width="48" height="12" rx="3" fill="url(#paint4_linear_1007_8510)"/>
<path fill-rule="evenodd" clip-rule="evenodd" d="M25.7821 36.8272C26.3663 36.4304 26.3663 35.5696 25.7821 35.1728L15.8119 28.4006C15.1479 27.9497 14.25 28.4252 14.25 29.2278V34H4C2.89543 34 2 34.8954 2 36C2 37.1046 2.89543 38 4 38H14.25V42.7722C14.25 43.5748 15.1479 44.0503 15.8119 43.5994L25.7821 36.8272Z" fill="url(#paint5_linear_1007_8510)"/>
<defs>
<linearGradient id="paint0_linear_1007_8510" x1="2" y1="5" x2="21.5207" y2="19.3554" gradientUnits="userSpaceOnUse">
<stop offset="0.24238" stop-color="#36BEFF"/>
<stop offset="1" stop-color="#733FF1"/>
</linearGradient>
<linearGradient id="paint1_linear_1007_8510" x1="20" y1="21" x2="74.3484" y2="62.7842" gradientUnits="userSpaceOnUse">
<stop offset="0.24238" stop-color="#36BEFF"/>
<stop offset="1" stop-color="#733FF1"/>
</linearGradient>
<linearGradient id="paint2_linear_1007_8510" x1="11" y1="13" x2="20.3478" y2="40.4971" gradientUnits="userSpaceOnUse">
<stop offset="0.24238" stop-color="#36BEFF"/>
<stop offset="1" stop-color="#733FF1"/>
</linearGradient>
<linearGradient id="paint3_linear_1007_8510" x1="29" y1="30" x2="39.3548" y2="56.6519" gradientUnits="userSpaceOnUse">
<stop offset="0.24238" stop-color="#36BEFF"/>
<stop offset="1" stop-color="#733FF1"/>
</linearGradient>
<linearGradient id="paint4_linear_1007_8510" x1="11" y1="47" x2="20.3478" y2="74.4971" gradientUnits="userSpaceOnUse">
<stop offset="0.24238" stop-color="#36BEFF"/>
<stop offset="1" stop-color="#733FF1"/>
</linearGradient>
<linearGradient id="paint5_linear_1007_8510" x1="2" y1="28.2261" x2="21.6897" y2="50.7826" gradientUnits="userSpaceOnUse">
<stop offset="0.24238" stop-color="#36BEFF"/>
<stop offset="1" stop-color="#733FF1"/>
</linearGradient>
</defs>
</svg>
