<svg width="32" height="32" viewBox="0 0 32 32" fill="none" xmlns="http://www.w3.org/2000/svg">
<path d="M19.48 14.5601L21.6485 10.8723L27.4935 19.9964L27.4963 21.7475L27.4773 9.69818C27.4634 9.40364 27.3073 9.13422 27.0584 8.9753L16.5351 2.90865C16.2891 2.78734 15.9768 2.78875 15.731 2.91249C15.6978 2.92907 15.6666 2.94723 15.6369 2.96704L15.6002 2.99014L5.38569 8.92252L5.3461 8.94056C5.29513 8.96403 5.24356 8.9939 5.19526 9.02858C5.00155 9.16774 4.87298 9.37359 4.83138 9.60449C4.82511 9.63948 4.82049 9.67508 4.81836 9.71111L4.83442 19.5301L10.2788 11.0727C10.9643 9.95133 12.4577 9.59011 13.8441 9.60974L15.4712 9.65277L5.88375 25.0626L7.01392 25.7146L16.7161 9.66844L21.0046 9.65283L11.3274 26.104L15.3602 28.4287L15.842 28.7064C16.0458 28.7895 16.2861 28.7937 16.4916 28.7192L27.1628 22.5213L25.1226 23.7062L19.48 14.5601ZM20.3072 26.503L16.2341 20.096L18.7206 15.8674L24.0698 24.3177L20.3072 26.503Z" fill="#2D374B"/>
<path d="M16.2324 20.096L20.3055 26.5031L24.0681 24.3177L18.7188 15.8674L16.2324 20.096Z" fill="#28A0F0"/>
<path d="M27.4949 21.7465L27.4921 19.9954L21.647 10.8713L19.4785 14.5591L25.1211 23.7052L27.1613 22.5203C27.3614 22.3574 27.4824 22.1184 27.4952 21.8604L27.4949 21.7465Z" fill="#28A0F0"/>
<path d="M3 23.3983L5.88101 25.0622L15.4684 9.65243L13.8413 9.60939C12.4549 9.58977 10.9614 9.95099 10.276 11.0724L4.83161 19.5298L3 22.3503V23.3983Z" fill="white"/>
<path d="M21.0005 9.6521L16.712 9.6677L7.00977 25.7139L10.401 27.6708L11.3232 26.1032L21.0005 9.6521Z" fill="white"/>
<path d="M29.3008 9.63043C29.2649 8.73157 28.7793 7.90872 28.0187 7.42967L17.3574 1.28499C16.605 0.905289 15.6651 0.904802 14.9114 1.28474C14.8223 1.32979 4.54357 7.30428 4.54357 7.30428C4.40131 7.37267 4.26428 7.45411 4.1354 7.54658C3.4564 8.03429 3.04251 8.79222 3 9.62488V22.3504L4.83161 19.5299L4.81562 9.71089C4.81775 9.67499 4.82225 9.63963 4.82863 9.60476C4.87005 9.37374 4.99875 9.16765 5.19252 9.02836C5.24087 8.99368 15.6951 2.92885 15.7284 2.91221C15.9741 2.78853 16.2864 2.78707 16.5324 2.90837L27.0557 8.9749C27.3046 9.13382 27.4607 9.40324 27.4746 9.69778V21.8611C27.4619 22.119 27.3601 22.358 27.16 22.5209L25.1199 23.7058L24.0672 24.3173L20.3046 26.5027L16.4889 28.7188C16.2833 28.7933 16.043 28.7891 15.8392 28.706L11.3246 26.1036L10.4024 27.6712L14.4595 30.0123C14.5937 30.0888 14.7132 30.1566 14.8113 30.2118C14.9632 30.2971 15.0667 30.3542 15.1032 30.372C15.3916 30.5124 15.8065 30.5941 16.1804 30.5941C16.5232 30.5941 16.8574 30.531 17.1737 30.4068L28.2567 23.9741C28.8929 23.4801 29.2671 22.7351 29.3008 21.9281V9.63043Z" fill="#96BEDC"/>
</svg>
