<svg width="72" height="72" viewBox="0 0 72 72" fill="none" xmlns="http://www.w3.org/2000/svg">
<path opacity="0.2" fill-rule="evenodd" clip-rule="evenodd" d="M14 39C12.3431 39 11 40.3431 11 42V59C11 60.6569 12.3431 62 14 62H16.3257L15.9726 64.7243C15.8937 65.3337 16.1062 65.9446 16.5463 66.3734C17.3383 67.1451 18.6125 67.1055 19.355 66.2861L23.2394 62H53C54.6569 62 56 60.6569 56 59V42C56 40.3431 54.6569 39 53 39H14Z" fill="url(#paint0_linear_1007_8488)"/>
<path opacity="0.6" fill-rule="evenodd" clip-rule="evenodd" d="M65 25C66.6569 25 68 26.3431 68 28V45C68 46.6569 66.6569 48 65 48H62.6743L63.0274 50.7243C63.1063 51.3337 62.8938 51.9446 62.4537 52.3734C61.6617 53.1451 60.3875 53.1055 59.645 52.2861L55.7606 48H26C24.3431 48 23 46.6569 23 45V28C23 26.3431 24.3431 25 26 25H65Z" fill="url(#paint1_linear_1007_8488)"/>
<path fill-rule="evenodd" clip-rule="evenodd" d="M7 10C5.34315 10 4 11.3431 4 13V30C4 31.6569 5.34315 33 7 33H9.32573L8.97264 35.7243C8.89367 36.3337 9.10619 36.9446 9.54629 37.3734C10.3383 38.1451 11.6125 38.1055 12.355 37.2861L16.2394 33H46C47.6569 33 49 31.6569 49 30V13C49 11.3431 47.6569 10 46 10H7Z" fill="url(#paint2_linear_1007_8488)"/>
<rect opacity="0.3" x="41" y="2" width="16" height="16" rx="8" fill="url(#paint3_linear_1007_8488)"/>
<defs>
<linearGradient id="paint0_linear_1007_8488" x1="11" y1="39" x2="46.1867" y2="80.6947" gradientUnits="userSpaceOnUse">
<stop offset="0.24238" stop-color="#36BEFF"/>
<stop offset="1" stop-color="#733FF1"/>
</linearGradient>
<linearGradient id="paint1_linear_1007_8488" x1="68" y1="25" x2="32.8133" y2="66.6947" gradientUnits="userSpaceOnUse">
<stop offset="0.24238" stop-color="#36BEFF"/>
<stop offset="1" stop-color="#733FF1"/>
</linearGradient>
<linearGradient id="paint2_linear_1007_8488" x1="4" y1="10" x2="39.1867" y2="51.6947" gradientUnits="userSpaceOnUse">
<stop offset="0.24238" stop-color="#36BEFF"/>
<stop offset="1" stop-color="#733FF1"/>
</linearGradient>
<linearGradient id="paint3_linear_1007_8488" x1="41" y1="2" x2="60.5207" y2="16.3554" gradientUnits="userSpaceOnUse">
<stop offset="0.24238" stop-color="#36BEFF"/>
<stop offset="1" stop-color="#733FF1"/>
</linearGradient>
</defs>
</svg>
