<svg width="72" height="72" viewBox="0 0 72 72" fill="none" xmlns="http://www.w3.org/2000/svg">
<path opacity="0.7" d="M63.4989 59.3368C63.2579 59.3385 63.0434 59.1843 62.9686 58.9558L61.8488 55.6378L58.5428 54.53L58.5424 54.5296C58.3135 54.4544 58.1597 54.2404 58.1614 53.9993C58.1714 53.7625 58.3214 53.5543 58.5424 53.4691L61.8488 52.3672L62.9566 49.0612C63.0306 48.8322 63.2433 48.6772 63.4839 48.6772C63.7241 48.6772 63.9373 48.8322 64.0112 49.0612L65.1191 52.3672L68.425 53.4691H68.4254C68.654 53.5443 68.8081 53.7588 68.8065 53.9993C68.8102 54.2408 68.6552 54.456 68.4254 54.5296L65.1195 55.6374L64.0117 58.9433L64.0112 58.9438C63.9439 59.1723 63.737 59.331 63.4989 59.3368Z" fill="url(#paint0_linear_811_1316)"/>
<path opacity="0.2" d="M9.79316 34.1795C9.48643 34.1816 9.21354 33.9854 9.11834 33.6946L7.6931 29.4717L3.48551 28.0617L3.48497 28.0612C3.19358 27.9655 2.99789 27.6931 3.00002 27.3864C3.01271 27.0849 3.20362 26.82 3.48497 26.7115L7.69312 25.3091L9.10305 21.1015C9.19719 20.8101 9.46796 20.6128 9.77416 20.6128C10.0798 20.6128 10.3512 20.8101 10.4453 21.1015L11.8552 25.3091L16.0628 26.7115H16.0633C16.3542 26.8073 16.5504 27.0802 16.5483 27.3864C16.5531 27.6936 16.3558 27.9676 16.0633 28.0612L11.8558 29.4711L10.4458 33.6787L10.4453 33.6793C10.3596 33.9701 10.0962 34.1721 9.79316 34.1795Z" fill="url(#paint1_linear_811_1316)"/>
<path d="M54.5005 23C55.7205 23 56.7095 23.989 56.7095 25.209L56.7095 56.791C56.7095 58.011 55.7205 59 54.5005 59L19.9184 59C18.6985 59 17.7095 58.011 17.7095 56.791L17.7095 25.209C17.7095 23.989 18.6985 23 19.9184 23L54.5005 23Z" fill="url(#paint2_linear_811_1316)" fill-opacity="0.64"/>
<path d="M46 38C47.1046 38 48 38.8954 48 40L48 63C48 64.1046 47.1046 65 46 65L14 65C12.8954 65 12 64.1046 12 63L12 40C12 38.8954 12.8954 38 14 38L46 38Z" fill="url(#paint3_linear_811_1316)" fill-opacity="0.24"/>
<path d="M60 27C61.1046 27 62 27.8954 62 29L62 45.3131C62 46.4177 61.1046 47.3131 60 47.3131L42 47.3131C40.8954 47.3131 40 46.4176 40 45.3131L40 29C40 27.8954 40.8954 27 42 27L60 27Z" fill="url(#paint4_linear_811_1316)"/>
<path opacity="0.9" d="M47.7636 20.5048C47.4131 20.5072 47.1012 20.283 46.9924 19.9506L45.3635 15.1244L40.5549 13.5131L40.5543 13.5125C40.2212 13.4031 39.9976 13.0918 40 12.7412C40.0145 12.3967 40.2327 12.0939 40.5543 11.97L45.3636 10.3672L46.9749 5.55848C47.0825 5.22545 47.3919 5 47.7419 5C48.0912 5 48.4013 5.22544 48.5089 5.55848L50.1203 10.3672L54.9289 11.97H54.9295C55.262 12.0794 55.4862 12.3913 55.4838 12.7412C55.4892 13.0924 55.2638 13.4055 54.9295 13.5125L50.1209 15.1238L48.5095 19.9325L48.5089 19.9331C48.411 20.2655 48.1099 20.4964 47.7636 20.5048Z" fill="url(#paint5_linear_811_1316)"/>
<defs>
<linearGradient id="paint0_linear_811_1316" x1="58.1614" y1="48.6772" x2="71.1613" y2="58.2243" gradientUnits="userSpaceOnUse">
<stop offset="0.24238" stop-color="#36BEFF"/>
<stop offset="1" stop-color="#733FF1"/>
</linearGradient>
<linearGradient id="paint1_linear_811_1316" x1="3" y1="20.6128" x2="19.5453" y2="32.7636" gradientUnits="userSpaceOnUse">
<stop offset="0.24238" stop-color="#36BEFF"/>
<stop offset="1" stop-color="#733FF1"/>
</linearGradient>
<linearGradient id="paint2_linear_811_1316" x1="56.7095" y1="23" x2="25.3681" y2="69.0325" gradientUnits="userSpaceOnUse">
<stop offset="0.24238" stop-color="#36BEFF"/>
<stop offset="1" stop-color="#733FF1"/>
</linearGradient>
<linearGradient id="paint3_linear_811_1316" x1="48" y1="38" x2="26.5354" y2="76.9172" gradientUnits="userSpaceOnUse">
<stop offset="0.24238" stop-color="#36BEFF"/>
<stop offset="1" stop-color="#733FF1"/>
</linearGradient>
<linearGradient id="paint4_linear_811_1316" x1="62" y1="27" x2="44.2538" y2="53.1357" gradientUnits="userSpaceOnUse">
<stop offset="0.24238" stop-color="#36BEFF"/>
<stop offset="1" stop-color="#733FF1"/>
</linearGradient>
<linearGradient id="paint5_linear_811_1316" x1="40" y1="5" x2="58.9089" y2="18.8867" gradientUnits="userSpaceOnUse">
<stop offset="0.24238" stop-color="#36BEFF"/>
<stop offset="1" stop-color="#733FF1"/>
</linearGradient>
</defs>
</svg>
