<svg width="32" height="32" viewBox="0 0 32 32" fill="none" xmlns="http://www.w3.org/2000/svg">
<g clip-path="url(#clip0_1001_8589)">
<path d="M6.21265 24.2118C4.44287 24.2118 2.99284 23.7954 1.86256 22.9625C0.747156 22.1148 0.189453 20.9102 0.189453 19.3487C0.189453 19.0214 0.226633 18.6199 0.300994 18.144C0.494331 17.0733 0.769464 15.7868 1.12639 14.2847C2.1377 10.1949 4.74775 8.14996 8.95656 8.14996C10.1017 8.14996 11.1279 8.3433 12.0351 8.72998C12.9423 9.10178 13.6561 9.66692 14.1767 10.4254C14.6971 11.169 14.9574 12.0613 14.9574 13.1024C14.9574 13.4147 14.9203 13.8088 14.8459 14.2847C14.6228 15.6083 14.3551 16.8947 14.0428 18.144C13.5223 20.1815 12.6225 21.7059 11.3435 22.7171C10.0645 23.7136 8.35424 24.2118 6.21265 24.2118ZM6.52496 20.9994C7.3578 20.9994 8.06422 20.7541 8.64427 20.2633C9.2391 19.7725 9.66297 19.0214 9.91577 18.0101C10.2579 16.6122 10.5181 15.3927 10.6966 14.3516C10.7561 14.0393 10.7858 13.7196 10.7858 13.3924C10.7858 12.039 10.0794 11.3623 8.66653 11.3623C7.8337 11.3623 7.11984 11.6077 6.52496 12.0985C5.94495 12.5893 5.52853 13.3403 5.27571 14.3516C5.00801 15.3481 4.74031 16.5676 4.47261 18.0101C4.41312 18.3076 4.38338 18.6199 4.38338 18.9471C4.38338 20.3154 5.09724 20.9994 6.52496 20.9994Z" fill="#FF0420"/>
<path d="M17.2207 23.9895C17.057 23.9895 16.9306 23.9374 16.8414 23.8334C16.7671 23.7143 16.7447 23.5805 16.7745 23.4318L19.853 8.93148C19.8827 8.76789 19.9646 8.63404 20.0984 8.52994C20.2322 8.42583 20.3735 8.37378 20.5223 8.37378H26.4562C28.107 8.37378 29.4306 8.71584 30.427 9.39995C31.4383 10.0841 31.944 11.0731 31.944 12.3669C31.944 12.7387 31.8994 13.1254 31.8102 13.527C31.4383 15.2372 30.6873 16.5013 29.557 17.3193C28.4416 18.1373 26.9098 18.5463 24.9615 18.5463H21.9499L20.9238 23.4318C20.894 23.5953 20.8122 23.7292 20.6784 23.8334C20.5445 23.9374 20.4033 23.9895 20.2545 23.9895H17.2207ZM25.1177 15.4678C25.7424 15.4678 26.2852 15.2967 26.7462 14.9547C27.2221 14.6126 27.5344 14.1218 27.6831 13.4823C27.7277 13.2295 27.7501 13.0064 27.7501 12.8131C27.7501 12.3818 27.6237 12.0546 27.3708 11.8315C27.118 11.5936 26.6867 11.4746 26.077 11.4746H23.4L22.5523 15.4678H25.1177Z" fill="#FF0420"/>
</g>
<defs>
<clipPath id="clip0_1001_8589">
<rect width="31.8095" height="16.7" fill="white" transform="translate(0.191406 8.15002)"/>
</clipPath>
</defs>
</svg>
