<svg width="72" height="72" viewBox="0 0 72 72" fill="none" xmlns="http://www.w3.org/2000/svg">
<path opacity="0.2" d="M15.75 37.2821C15.75 36.2095 16.507 35.2861 17.5587 35.0758L55.2462 27.5383C56.6385 27.2598 57.9375 28.3247 57.9375 29.7446V54.5625C57.9375 55.8051 56.9301 56.8125 55.6875 56.8125H18C16.7574 56.8125 15.75 55.8051 15.75 54.5625L15.75 37.2821Z" fill="url(#paint0_linear_1007_8526)"/>
<path d="M30.426 29.7461H25.8239C24.5986 29.7461 23.8676 28.5092 24.5472 27.5857L35.2863 12.994C35.8935 12.1687 37.2317 12.1687 37.8389 12.994L48.5779 27.5857C49.2576 28.5092 48.5266 29.7461 47.3013 29.7461H42.6992V58.2351C42.6992 59.0024 42.0123 59.6247 41.1649 59.6247H31.9608C31.1135 59.6247 30.4265 59.0024 30.4265 58.2351L30.426 29.7461ZM23.5227 38.7792V58.2351C23.5227 59.0024 22.8358 59.6247 21.9888 59.6247H12.7843C11.9369 59.6247 11.25 59.0024 11.25 58.2351V38.7792C11.25 38.0116 11.9369 37.3893 12.7843 37.3893H21.9888C22.8358 37.3893 23.5227 38.0116 23.5227 38.7792ZM61.875 47.1174V58.2354C61.875 59.0027 61.1881 59.625 60.3407 59.625H51.1362C50.2892 59.625 49.6023 59.0027 49.6023 58.2354V47.1174C49.6023 46.3498 50.2892 45.7275 51.1362 45.7275H60.3407C61.1881 45.7275 61.875 46.3498 61.875 47.1174Z" fill="url(#paint1_linear_1007_8526)"/>
<defs>
<linearGradient id="paint0_linear_1007_8526" x1="15.75" y1="27" x2="53.8238" y2="66.6215" gradientUnits="userSpaceOnUse">
<stop offset="0.24238" stop-color="#36BEFF"/>
<stop offset="1" stop-color="#733FF1"/>
</linearGradient>
<linearGradient id="paint1_linear_1007_8526" x1="84.8864" y1="59.625" x2="75.8808" y2="5.89122" gradientUnits="userSpaceOnUse">
<stop stop-color="#925FFF"/>
<stop offset="1" stop-color="#15B4FF"/>
</linearGradient>
</defs>
</svg>
