<svg width="147" height="37" viewBox="0 0 147 37" fill="none" xmlns="http://www.w3.org/2000/svg">
<path fill-rule="evenodd" clip-rule="evenodd" d="M0.167969 9.84674C0.167969 6.40004 0.167969 4.6767 0.820606 3.36024C1.39469 2.20226 2.31071 1.26079 3.43739 0.670767C4.71827 0 6.39503 0 9.74858 0H26.5057C29.8592 0 31.536 0 32.8169 0.670767C33.9436 1.26079 34.8595 2.20226 35.4336 3.36024C36.0863 4.6767 36.0863 6.40004 36.0863 9.84674V26.9336C36.0863 30.3803 36.0863 32.1036 35.4336 33.4201C34.8595 34.5781 33.9436 35.5195 32.8169 36.1096C31.536 36.7803 29.8592 36.7803 26.5057 36.7803H9.74858C6.39503 36.7803 4.71827 36.7803 3.43739 36.1096C2.31071 35.5195 1.39469 34.5781 0.820606 33.4201C0.167969 32.1036 0.167969 30.3803 0.167969 26.9336V9.84674ZM7.95828 9.19679C7.34272 9.19679 7.10555 9.97616 7.62206 10.3018L20.5434 18.2798C20.8654 18.4828 21.295 18.4026 21.5167 18.098L27.1979 10.4607C27.5841 9.93009 27.1939 9.19679 26.5253 9.19679H7.95828ZM28.6094 26.4779C29.1258 26.8034 28.8825 27.5871 28.267 27.5871H9.71406C9.04556 27.5871 8.6431 26.8591 9.02927 26.3286L14.7214 18.6927C14.9431 18.3882 15.3623 18.2978 15.6844 18.5008L28.6094 26.4779Z" fill="white"/>
<path d="M48.5332 26.8125L56.8935 12.5952H49.4649V9.44678H62.5078V9.92152L54.3192 24.139H62.2136V27.3123H48.5332V26.8125Z" fill="white"/>
<path d="M66.8379 9.44678H78.2627V12.5952H70.7851V16.7679H76.7672V19.7163H70.7851V24.164H78.655V27.3123H66.8379V9.44678Z" fill="white"/>
<path d="M83.25 9.44678H89.5263C90.5562 9.44678 91.4875 9.5551 92.3214 9.77164C93.1552 9.98818 93.8655 10.3213 94.4542 10.7711C95.0429 11.2209 95.492 11.7872 95.8025 12.4702C96.129 13.1531 96.2928 13.9527 96.2928 14.8689V14.9689C96.2928 15.6518 96.2033 16.2515 96.0235 16.7679C95.8436 17.2843 95.5904 17.734 95.263 18.1172C94.9365 18.5003 94.5526 18.8251 94.1107 19.0917C93.6696 19.3582 93.1954 19.5664 92.6891 19.7163L97.3225 27.3123H93.106L88.9134 20.416H87.1972V27.3123H83.25V9.44678ZM89.4282 17.6675C90.4256 17.6675 91.1691 17.4508 91.6593 17.0177C92.1657 16.5846 92.4189 15.9434 92.4189 15.0938V14.9938C92.4189 14.0777 92.1576 13.4447 91.6352 13.0948C91.1279 12.7284 90.3925 12.5452 89.4282 12.5452H87.1972V17.6675H89.4282Z" fill="white"/>
<path d="M101.504 9.44678H105.5V27.3123H101.504V9.44678Z" fill="white"/>
<path d="M118.665 24.3627C119.4 24.3627 120.062 24.2211 120.651 23.9379C121.256 23.6547 121.77 23.255 122.195 22.7386C122.604 22.2388 122.922 21.6225 123.151 20.8896C123.38 20.1566 123.494 19.3404 123.494 18.4408V18.241C123.494 17.3747 123.38 16.5835 123.151 15.8672C122.938 15.1509 122.628 14.5346 122.219 14.0183C121.794 13.5019 121.28 13.1021 120.675 12.8188C120.07 12.5356 119.384 12.3941 118.615 12.3941C117.848 12.3941 117.161 12.5356 116.556 12.8188C115.968 13.0854 115.461 13.4685 115.036 13.9682C114.611 14.4846 114.284 15.1093 114.055 15.8423C113.843 16.5585 113.737 17.3665 113.737 18.2659V18.4658C113.737 19.382 113.859 20.2065 114.105 20.9395C114.35 21.6558 114.693 22.2639 115.134 22.7635C115.559 23.2799 116.074 23.6797 116.679 23.9629C117.283 24.2294 117.945 24.3627 118.665 24.3627ZM118.591 27.586C117.218 27.586 115.976 27.3611 114.864 26.9113C113.753 26.4449 112.814 25.8036 112.045 24.9873C111.26 24.1877 110.656 23.23 110.231 22.1139C109.806 20.9978 109.594 19.7901 109.594 18.4908V18.2909C109.594 16.9583 109.814 15.734 110.256 14.6179C110.713 13.5019 111.351 12.544 112.168 11.7444C112.968 10.9449 113.917 10.3202 115.012 9.87044C116.107 9.42071 117.308 9.1958 118.615 9.1958C119.94 9.1958 121.149 9.41235 122.244 9.84543C123.355 10.2785 124.312 10.8866 125.112 11.6695C125.897 12.4691 126.51 13.4186 126.951 14.5179C127.409 15.6174 127.638 16.8417 127.638 18.191V18.3909C127.638 19.7235 127.417 20.9562 126.976 22.0889C126.551 23.205 125.946 24.1711 125.162 24.9873C124.377 25.8036 123.429 26.4449 122.318 26.9113C121.206 27.3611 119.964 27.586 118.591 27.586Z" fill="white"/>
<path d="M131.938 9.44678H136.547L143.216 21.2156V9.44678H146.746V27.3123H142.774L135.468 14.5941V27.3123H131.938V9.44678Z" fill="white"/>
</svg>
