<svg width="32" height="32" viewBox="0 0 32 32" fill="none" xmlns="http://www.w3.org/2000/svg">
<circle cx="16" cy="16" r="15.75" fill="#FAFAFA" stroke="#ECF0F9" stroke-width="0.5"/>
<path d="M21.4788 19.3116C22.1915 20.2578 22.9265 21.226 23.6614 22.1942C22.1915 23.9105 20.3652 25.0108 18.1603 25.4729C15.7104 25.979 13.3942 25.6049 11.1447 24.3726C13.1492 22.8983 15.1091 21.446 17.0913 19.9937C17.5367 20.4118 17.9599 20.8299 18.383 21.226C18.8507 21.6661 18.6726 21.6881 19.2739 21.358C20.098 20.8959 20.7884 20.2578 21.3229 19.4876C21.3452 19.4436 21.3897 19.3996 21.412 19.3556C21.3897 19.3556 21.412 19.3556 21.4788 19.3116ZM12.726 21.248C12.1692 21.6661 11.657 22.0402 11.1447 22.4362C10.7661 22.7223 10.3875 22.9864 10.0089 23.2724C9.85297 23.4044 9.74162 23.4044 9.56344 23.2504C7.87079 21.7541 6.80175 19.9057 6.40086 17.7053C5.99997 15.4828 6.35631 13.3704 7.42536 11.368C7.44763 11.324 7.49217 11.258 7.51444 11.214C7.51444 11.192 7.53672 11.192 7.58126 11.17C9.05119 13.0843 10.5434 14.9987 12.0133 16.9131C11.9688 16.9791 11.9465 17.0231 11.902 17.0672C11.4565 17.5292 11.0111 17.9913 10.5434 18.4314C10.4098 18.5635 10.3875 18.6735 10.4766 18.8275C10.9443 19.7077 11.5902 20.4338 12.3919 21.028C12.5033 21.094 12.5924 21.16 12.726 21.248ZM21.0334 7.58323C20.3207 8.08934 19.608 8.59544 18.8953 9.07954C17.6703 9.93771 16.4454 10.8179 15.2427 11.6761C15.0868 11.7861 14.9755 11.8081 14.8418 11.6541C14.4409 11.236 14.0178 10.8619 13.6169 10.4438C13.5055 10.3338 13.3942 10.3118 13.2383 10.3778C12.2806 10.8619 11.5234 11.544 10.8997 12.4022C10.8552 12.4462 10.8107 12.5122 10.7661 12.5782C10.4098 12.1162 10.0757 11.6981 9.74161 11.258C9.38527 10.7959 9.05119 10.3338 8.71712 9.8937C8.60576 9.73967 8.58349 9.62965 8.73939 9.47562C10.4543 7.60524 12.5701 6.50502 15.1091 6.24096C17.1136 6.02092 19.0289 6.417 20.8107 7.36319C20.8775 7.4072 20.9443 7.4292 21.0111 7.47321C21.0111 7.53923 21.0111 7.56123 21.0334 7.58323ZM24.6637 20.7859C24.196 20.1918 23.7728 19.6417 23.3496 19.0916C22.3697 17.8153 21.3897 16.517 20.3875 15.2408C20.2539 15.0647 20.2539 14.9547 20.4098 14.8007C20.8329 14.3826 21.2338 13.9645 21.657 13.5464C21.7683 13.4364 21.8129 13.3264 21.7238 13.1724C21.2338 12.2482 20.5657 11.478 19.6971 10.8619C19.6303 10.8179 19.5634 10.7519 19.4744 10.7079C19.5412 10.6419 19.608 10.5978 19.6525 10.5538C20.4989 9.91571 21.3452 9.29958 22.1915 8.66145C22.3251 8.55143 22.4365 8.50742 22.5924 8.66145C24.7082 10.5538 25.8441 12.9083 25.9554 15.7469C26 17.3972 25.6213 18.9595 24.8641 20.4338C24.7973 20.5219 24.7305 20.6319 24.6637 20.7859Z" fill="#020202"/>
</svg>
