<svg width="85" height="40" viewBox="0 0 85 40" fill="none" xmlns="http://www.w3.org/2000/svg">
<g clip-path="url(#clip0_1808_19532)">
<path d="M30.1192 26.2498C31.471 28.0445 32.8651 29.8809 34.2591 31.7173C31.471 34.9728 28.0071 37.0596 23.8249 37.9361C19.1781 38.896 14.7848 38.1865 10.5182 35.8493C14.3201 33.0529 18.0376 30.2983 21.7972 27.5437C22.6421 28.3367 23.4447 29.1297 24.2474 29.8809C25.1345 30.7157 24.7965 30.7574 25.9371 30.1313C27.5001 29.2549 28.8097 28.0445 29.8235 26.5837C29.8658 26.5002 29.9503 26.4168 29.9925 26.3333C29.9503 26.3333 29.9925 26.3333 30.1192 26.2498ZM13.5175 29.9227C12.4614 30.7157 11.4898 31.4252 10.5182 32.1764C9.80005 32.719 9.08191 33.2199 8.36377 33.7624C8.06806 34.0129 7.85684 34.0129 7.5189 33.7207C4.30838 30.8826 2.28069 27.3767 1.5203 23.203C0.759915 18.9876 1.43581 14.9809 3.46351 11.1829C3.50575 11.0994 3.59024 10.9742 3.63248 10.8907C3.63248 10.849 3.67473 10.849 3.75921 10.8072C6.54729 14.4383 9.37762 18.0694 12.1657 21.7005C12.0812 21.8257 12.039 21.9092 11.9545 21.9927C11.1096 22.8692 10.2647 23.7456 9.37762 24.5804C9.12415 24.8308 9.08191 25.0395 9.25088 25.3316C10.138 27.0011 11.3631 28.3784 12.8838 29.5053C13.0951 29.6305 13.264 29.7557 13.5175 29.9227ZM29.2744 4.00416C27.9226 4.9641 26.5708 5.92405 25.219 6.84226C22.8956 8.46999 20.5722 10.1395 18.291 11.7672C17.9953 11.9759 17.7841 12.0176 17.5306 11.7255C16.7703 10.9325 15.9676 10.2229 15.2072 9.42993C14.996 9.22125 14.7848 9.17951 14.4891 9.30472C12.6726 10.2229 11.2363 11.5168 10.0535 13.1445C9.96903 13.228 9.88454 13.3532 9.80005 13.4784C9.12415 12.6019 8.4905 11.8089 7.85684 10.9742C7.18095 10.0977 6.54729 9.22125 5.91364 8.38651C5.70242 8.09436 5.66018 7.88567 5.95588 7.59352C9.20864 4.0459 13.2218 1.95906 18.0376 1.45822C21.8395 1.04085 25.4724 1.79212 28.8519 3.58679C28.9787 3.67027 29.1054 3.712 29.2321 3.79548C29.2321 3.92069 29.2321 3.96242 29.2744 4.00416ZM36.1601 29.0462C35.273 27.9193 34.4703 26.8759 33.6677 25.8325C31.809 23.4117 29.9503 20.9493 28.0493 18.5285C27.7958 18.1946 27.7958 17.986 28.0915 17.6938C28.8942 16.9008 29.6546 16.1078 30.4572 15.3148C30.6684 15.1061 30.7529 14.8974 30.5839 14.6053C29.6546 12.8523 28.3872 11.3916 26.7397 10.2229C26.613 10.1395 26.4863 10.0142 26.3173 9.93077C26.444 9.80556 26.5708 9.72209 26.6553 9.63862C28.2605 8.42825 29.8658 7.25962 31.471 6.04926C31.7245 5.84057 31.9357 5.7571 32.2314 6.04926C36.2446 9.63862 38.399 14.1044 38.6102 19.4885C38.6947 22.6187 37.9766 25.582 36.5403 28.3784C36.4135 28.5453 36.2868 28.754 36.1601 29.0462Z" fill="white"/>
</g>
<path d="M64.9367 20.3015C64.9331 21.95 64.7798 23.5792 64.3022 25.1653C64.0256 26.0835 63.6457 26.9547 63.0969 27.7458C61.9939 29.3359 60.4858 30.2547 58.5588 30.4752C57.5354 30.5922 56.526 30.5286 55.5395 30.2225C54.0157 29.7496 52.8794 28.7835 52.0509 27.438C51.3985 26.3786 51.0104 25.2181 50.7679 24.0053C50.4258 22.2943 50.3699 20.5666 50.4764 18.8297C50.5549 17.5525 50.7517 16.2971 51.1508 15.0788C51.5141 13.9701 52.0319 12.9447 52.8211 12.0722C53.8698 10.912 55.1833 10.2731 56.728 10.0903C57.6944 9.97584 58.651 10.0246 59.5907 10.2833C61.0363 10.6813 62.1734 11.5195 63.035 12.7386C63.7878 13.8035 64.2367 14.9987 64.526 16.2605C64.831 17.5902 64.935 18.9409 64.9367 20.3015ZM60.1508 13.1314C60.1145 13.0879 60.1002 13.0637 60.0795 13.0471C60.022 13.0017 59.9631 12.958 59.9025 12.9169C59.3196 12.5206 58.6713 12.3106 57.9716 12.2665C56.7492 12.1894 55.6688 12.5178 54.7949 13.4127C54.3 13.9194 53.9554 14.5209 53.6909 15.1721C53.2799 16.1839 53.0768 17.2453 52.9799 18.326C52.837 19.9203 52.845 21.5143 53.082 23.1008C53.2138 23.983 53.4285 24.8443 53.7957 25.6615C53.8233 25.7232 53.8643 25.7788 53.9204 25.8732C56.0113 21.5974 58.0831 17.3604 60.1508 13.1314ZM55.183 27.5322C55.2928 27.6079 55.3738 27.6659 55.4572 27.7204C56.0974 28.1383 56.8056 28.3288 57.5643 28.3428C58.9411 28.3684 60.0619 27.855 60.9003 26.7502C61.1905 26.3681 61.4189 25.9506 61.6064 25.5107C62.0493 24.4708 62.2662 23.375 62.3675 22.2572C62.51 20.6813 62.501 19.1058 62.2659 17.5371C62.1351 16.6634 61.9174 15.8126 61.5555 15.0034C61.5274 14.9409 61.4897 14.8825 61.4305 14.7755C59.338 19.048 57.2678 23.2754 55.1833 27.5322H55.183Z" fill="white"/>
<path d="M76.6736 22.8101C78.1369 25.259 79.5924 27.6948 81.0695 30.1668H78.37C77.2076 28.2078 76.0298 26.2232 74.8481 24.2312H73.8335C72.6362 26.2081 71.4352 28.1908 70.2338 30.1745H67.6722C67.6653 30.1575 67.6609 30.1492 67.659 30.1404C67.6571 30.1319 67.6543 30.1206 67.6582 30.1143C69.1096 27.714 70.5613 25.3141 72.0235 22.8971C70.7099 20.6042 69.3951 18.3088 68.0603 15.9788H70.6125C71.6907 17.8469 72.7716 19.7195 73.8536 21.5945H74.8839C75.9844 19.7305 77.0926 17.8533 78.1994 15.9785H80.6959C79.3461 18.2711 78.0174 20.5277 76.6739 22.8098L76.6736 22.8101Z" fill="white"/>
<defs>
<clipPath id="clip0_1808_19532">
<rect width="37.9348" height="37.9348" fill="white" transform="translate(0.759766 1)"/>
</clipPath>
</defs>
</svg>
