<svg width="127" height="36" viewBox="0 0 127 36" fill="none" xmlns="http://www.w3.org/2000/svg">
<g clip-path="url(#clip0_1808_19500)">
<path d="M36.5508 18C36.5508 8.05888 28.4919 0 18.5508 0C8.60966 0 0.550781 8.05888 0.550781 18C0.550781 27.9411 8.60966 36 18.5508 36C28.4919 36 36.5508 27.9411 36.5508 18Z" fill="#774FFF"/>
<path fill-rule="evenodd" clip-rule="evenodd" d="M11.6636 13.5264L24.3549 13.4639L21.3163 18.0431L28.4872 18.0084L25.4483 22.5108L12.6747 22.5925L15.7612 18.0455L8.61523 18.0428L11.6636 13.5264Z" fill="#141A1E"/>
<path d="M49.1055 25.1199V21.8047L56.6543 12.5087H49.2847V9.26074H61.4479V12.3295L53.7199 21.8047H61.6047V25.1199H49.1055ZM70.2074 20.2591H69.737C69.3338 20.2591 68.9231 20.2815 68.505 20.3263C68.1018 20.3563 67.7359 20.4235 67.4074 20.5279C67.0938 20.6324 66.8323 20.7892 66.6234 20.9983C66.4143 21.1924 66.3098 21.4539 66.3098 21.7823C66.3098 21.9915 66.3546 22.1707 66.4442 22.3199C66.5487 22.4692 66.6756 22.5887 66.825 22.6783C66.9743 22.7679 67.146 22.8351 67.3402 22.8799C67.5343 22.9099 67.721 22.9247 67.9002 22.9247C68.6468 22.9247 69.2143 22.7231 69.6026 22.3199C70.0058 21.9019 70.2074 21.3419 70.2074 20.6399V20.2591ZM63.465 15.4879C64.122 14.8607 64.8836 14.3903 65.7498 14.0767C66.6308 13.7631 67.5267 13.6063 68.4378 13.6063C69.3786 13.6063 70.17 13.7258 70.8122 13.9647C71.4692 14.1887 71.9994 14.5471 72.4026 15.0399C72.8058 15.5178 73.097 16.13 73.2762 16.8767C73.4703 17.6084 73.5674 18.482 73.5674 19.4975V25.1199H70.2074V23.9327H70.1402C69.8564 24.3956 69.4234 24.754 68.841 25.0079C68.2735 25.2619 67.6538 25.3887 66.9818 25.3887C66.5338 25.3887 66.0707 25.3291 65.593 25.2095C65.1151 25.09 64.6746 24.8959 64.2714 24.6271C63.8831 24.3583 63.5619 23.9999 63.3082 23.5519C63.0543 23.1039 62.9274 22.5515 62.9274 21.8943C62.9274 21.0879 63.1439 20.4383 63.577 19.9455C64.025 19.4527 64.5924 19.0719 65.2794 18.8031C65.9812 18.5343 66.7578 18.3551 67.609 18.2655C68.4602 18.1759 69.289 18.1311 70.0954 18.1311V17.9519C70.0954 17.3995 69.9011 16.9963 69.513 16.7423C69.1247 16.4735 68.6468 16.3391 68.0794 16.3391C67.5567 16.3391 67.049 16.4511 66.5562 16.6751C66.0783 16.8991 65.6676 17.1679 65.3242 17.4815L63.465 15.4879ZM88.7188 19.4975C88.7188 20.274 88.5994 21.0207 88.3603 21.7375C88.1215 22.4543 87.7706 23.0891 87.3076 23.6415C86.8596 24.1791 86.3071 24.6123 85.6499 24.9407C84.993 25.2692 84.2463 25.4335 83.41 25.4335C82.7231 25.4335 82.0735 25.2991 81.4612 25.0303C80.849 24.7467 80.3711 24.3659 80.0276 23.8879H79.9828V30.4959H76.3092V13.9647H79.8036V15.3311H79.8708C80.2143 14.8831 80.6847 14.4949 81.282 14.1663C81.8943 13.8229 82.6111 13.6511 83.4324 13.6511C84.2388 13.6511 84.9706 13.8079 85.6276 14.1215C86.2847 14.4351 86.8372 14.8607 87.2852 15.3983C87.7482 15.9359 88.0991 16.5631 88.338 17.2799C88.5919 17.9819 88.7188 18.7211 88.7188 19.4975ZM85.1572 19.4975C85.1572 19.1391 85.0975 18.7883 84.978 18.4447C84.8735 18.1012 84.7092 17.8027 84.4852 17.5487C84.2762 17.2799 84.0074 17.0635 83.6788 16.8991C83.3503 16.7348 82.9695 16.6527 82.5364 16.6527C82.1183 16.6527 81.745 16.7348 81.4164 16.8991C81.0879 17.0635 80.8042 17.2799 80.5652 17.5487C80.3412 17.8175 80.162 18.1236 80.0276 18.4671C79.9082 18.8107 79.8484 19.1615 79.8484 19.5199C79.8484 19.8783 79.9082 20.2292 80.0276 20.5727C80.162 20.9163 80.3412 21.2223 80.5652 21.4911C80.8042 21.7599 81.0879 21.9764 81.4164 22.1407C81.745 22.3051 82.1183 22.3871 82.5364 22.3871C82.9695 22.3871 83.3503 22.3051 83.6788 22.1407C84.0074 21.9764 84.2762 21.7599 84.4852 21.4911C84.7092 21.2223 84.8735 20.9163 84.978 20.5727C85.0975 20.2143 85.1572 19.8559 85.1572 19.4975ZM103.441 19.4975C103.441 20.274 103.321 21.0207 103.082 21.7375C102.843 22.4543 102.492 23.0891 102.029 23.6415C101.581 24.1791 101.029 24.6123 100.372 24.9407C99.7148 25.2692 98.9682 25.4335 98.1319 25.4335C97.445 25.4335 96.7954 25.2991 96.1831 25.0303C95.5708 24.7467 95.093 24.3659 94.7495 23.8879H94.7047V30.4959H91.0311V13.9647H94.5255V15.3311H94.5927C94.9362 14.8831 95.4066 14.4949 96.0039 14.1663C96.6162 13.8229 97.333 13.6511 98.1543 13.6511C98.9607 13.6511 99.6924 13.8079 100.349 14.1215C101.007 14.4351 101.559 14.8607 102.007 15.3983C102.47 15.9359 102.821 16.5631 103.06 17.2799C103.314 17.9819 103.441 18.7211 103.441 19.4975ZM99.8791 19.4975C99.8791 19.1391 99.8194 18.7883 99.6999 18.4447C99.5954 18.1012 99.4311 17.8027 99.2071 17.5487C98.9979 17.2799 98.7292 17.0635 98.4007 16.8991C98.0722 16.7348 97.6914 16.6527 97.2583 16.6527C96.8402 16.6527 96.4668 16.7348 96.1383 16.8991C95.8098 17.0635 95.5259 17.2799 95.2871 17.5487C95.0631 17.8175 94.8839 18.1236 94.7495 18.4671C94.63 18.8107 94.5703 19.1615 94.5703 19.5199C94.5703 19.8783 94.63 20.2292 94.7495 20.5727C94.8839 20.9163 95.0631 21.2223 95.2871 21.4911C95.5259 21.7599 95.8098 21.9764 96.1383 22.1407C96.4668 22.3051 96.8402 22.3871 97.2583 22.3871C97.6914 22.3871 98.0722 22.3051 98.4007 22.1407C98.7292 21.9764 98.9979 21.7599 99.2071 21.4911C99.4311 21.2223 99.5954 20.9163 99.6999 20.5727C99.8194 20.2143 99.8791 19.8559 99.8791 19.4975ZM113.436 18.2655C113.436 17.6831 113.249 17.1828 112.876 16.7647C112.518 16.3467 111.973 16.1375 111.241 16.1375C110.883 16.1375 110.554 16.1972 110.255 16.3167C109.957 16.4212 109.695 16.5707 109.471 16.7647C109.247 16.9588 109.068 17.1903 108.934 17.4591C108.799 17.7131 108.725 17.9819 108.71 18.2655H113.436ZM116.819 19.6767C116.819 19.826 116.819 19.9755 116.819 20.1247C116.819 20.274 116.811 20.4159 116.796 20.5503H108.71C108.74 20.8639 108.829 21.1476 108.979 21.4015C109.143 21.6555 109.345 21.8795 109.583 22.0735C109.837 22.2527 110.113 22.3947 110.412 22.4991C110.726 22.6036 111.047 22.6559 111.375 22.6559C111.958 22.6559 112.451 22.5515 112.854 22.3423C113.257 22.1183 113.585 21.8347 113.839 21.4911L116.393 23.1039C115.87 23.8655 115.176 24.4555 114.31 24.8735C113.459 25.2767 112.465 25.4783 111.331 25.4783C110.494 25.4783 109.703 25.3515 108.956 25.0975C108.209 24.8287 107.553 24.4479 106.985 23.9551C106.433 23.4475 105.992 22.8276 105.663 22.0959C105.35 21.3643 105.193 20.5279 105.193 19.5871C105.193 18.6763 105.35 17.8548 105.663 17.1231C105.977 16.3764 106.403 15.7493 106.94 15.2415C107.478 14.7189 108.113 14.3157 108.844 14.0319C109.576 13.7482 110.367 13.6063 111.219 13.6063C112.04 13.6063 112.794 13.7482 113.481 14.0319C114.168 14.3007 114.758 14.6965 115.251 15.2191C115.743 15.7418 116.124 16.3764 116.393 17.1231C116.677 17.8699 116.819 18.7211 116.819 19.6767ZM126.332 16.9663C126.168 16.9215 126.003 16.8916 125.839 16.8767C125.69 16.8619 125.541 16.8543 125.391 16.8543C124.898 16.8543 124.48 16.9439 124.137 17.1231C123.808 17.3023 123.539 17.5188 123.33 17.7727C123.136 18.0267 122.994 18.3028 122.905 18.6015C122.815 18.9003 122.77 19.1615 122.77 19.3855V25.1199H119.097V13.9647H122.636V15.5775H122.681C122.965 15.0101 123.368 14.5471 123.89 14.1887C124.413 13.8303 125.018 13.6511 125.705 13.6511C125.854 13.6511 125.996 13.6586 126.13 13.6735C126.28 13.6885 126.399 13.7109 126.489 13.7407L126.332 16.9663Z" fill="white"/>
</g>
<defs>
<clipPath id="clip0_1808_19500">
<rect width="127" height="36" fill="white"/>
</clipPath>
</defs>
</svg>
