<svg width="173" height="36" viewBox="0 0 173 36" fill="none" xmlns="http://www.w3.org/2000/svg">
<path d="M47.5825 31.5993C47.402 31.5993 47.2542 31.5353 47.1392 31.4073C47.0243 31.2793 46.9668 31.1147 46.9668 30.9136V13.0859C46.9668 12.8848 47.0243 12.7202 47.1392 12.5923C47.2542 12.4642 47.402 12.4002 47.5825 12.4002H58.7393C58.9199 12.4002 59.0677 12.4642 59.1826 12.5923C59.2976 12.7202 59.355 12.8848 59.355 13.0859V15.2801C59.355 15.463 59.2976 15.6184 59.1826 15.7464C59.0677 15.8743 58.9199 15.9384 58.7393 15.9384H50.7596V20.2445H58.1975C58.3781 20.2445 58.5259 20.3084 58.6408 20.4364C58.7558 20.5644 58.8132 20.729 58.8132 20.9301V22.9598C58.8132 23.1426 58.7558 23.298 58.6408 23.426C58.5259 23.554 58.3781 23.618 58.1975 23.618H50.7596V28.0612H58.9364C59.1169 28.0612 59.2647 28.1252 59.3797 28.2532C59.4946 28.3812 59.5521 28.5458 59.5521 28.7468V30.9136C59.5521 31.1147 59.4946 31.2793 59.3797 31.4073C59.2647 31.5353 59.1169 31.5993 58.9364 31.5993H47.5825ZM63.0711 31.5993C62.8905 31.5993 62.7426 31.5353 62.6277 31.4073C62.5127 31.2793 62.4554 31.1147 62.4554 30.9136V12.8116C62.4554 12.6105 62.5127 12.446 62.6277 12.3179C62.7426 12.1899 62.8905 12.126 63.0711 12.126H65.5339C65.6981 12.126 65.8377 12.1899 65.9526 12.3179C66.0675 12.446 66.125 12.6105 66.125 12.8116V30.9136C66.125 31.1147 66.0675 31.2793 65.9526 31.4073C65.8377 31.5353 65.6981 31.5993 65.5339 31.5993H63.0711ZM75.1977 31.8736C73.3098 31.8736 71.8074 31.2885 70.6909 30.1183C69.5906 28.948 69.0082 27.2475 68.9422 25.0168C68.9422 24.8705 68.9422 24.6785 68.9422 24.4408C68.9422 24.1849 68.9422 23.9837 68.9422 23.8374C69.0082 22.4295 69.295 21.2227 69.8043 20.217C70.3134 19.193 71.0277 18.4159 71.9467 17.8857C72.8663 17.3371 73.9421 17.0629 75.1733 17.0629C76.5527 17.0629 77.7022 17.3829 78.6211 18.0229C79.5569 18.6445 80.2547 19.5039 80.7145 20.601C81.1905 21.6798 81.4292 22.9232 81.4292 24.3311V24.9619C81.4292 25.1448 81.3629 25.3002 81.2317 25.4282C81.1168 25.5562 80.9775 25.6202 80.8132 25.6202H72.7594C72.7594 25.6385 72.7594 25.6751 72.7594 25.7299C72.7594 25.7664 72.7594 25.8031 72.7594 25.8396C72.7764 26.4247 72.8751 26.9641 73.0549 27.4578C73.2524 27.9332 73.5235 28.3172 73.8676 28.6097C74.2294 28.9023 74.6561 29.0486 75.149 29.0486C75.5595 29.0486 75.8955 28.9846 76.1585 28.8566C76.4216 28.7286 76.6345 28.5732 76.7988 28.3904C76.9794 28.2075 77.1113 28.0521 77.1931 27.9241C77.3404 27.7412 77.4561 27.6315 77.5379 27.5949C77.6359 27.5401 77.784 27.5126 77.9807 27.5126H80.542C80.7064 27.5126 80.8375 27.5675 80.9363 27.6772C81.0512 27.7686 81.1006 27.9057 81.0844 28.0886C81.0674 28.3812 80.9282 28.7468 80.6658 29.1857C80.419 29.6062 80.0498 30.0268 79.5569 30.4474C79.0647 30.8497 78.4486 31.1879 77.7103 31.4621C76.9875 31.7365 76.1504 31.8736 75.1977 31.8736ZM72.7594 23.1243H77.5865V23.0694C77.5865 22.4112 77.4885 21.8443 77.2911 21.369C77.1113 20.8753 76.8401 20.4913 76.4783 20.217C76.1172 19.9427 75.6825 19.8056 75.1733 19.8056C74.6642 19.8056 74.2294 19.9427 73.8676 20.217C73.5066 20.4913 73.2273 20.8753 73.0306 21.369C72.85 21.8443 72.7594 22.4112 72.7594 23.0694V23.1243ZM84.7281 31.5993C84.5645 31.5993 84.4245 31.5353 84.3096 31.4073C84.1946 31.2793 84.1371 31.1147 84.1371 30.9136V18.0229C84.1371 17.8217 84.1946 17.6572 84.3096 17.5292C84.4245 17.4011 84.5645 17.3371 84.7281 17.3371H87.0182C87.1826 17.3371 87.3226 17.4011 87.4368 17.5292C87.5687 17.6572 87.6342 17.8217 87.6342 18.0229V18.9553C87.9629 18.4434 88.4146 18.0045 88.9886 17.6388C89.5795 17.2732 90.2781 17.0812 91.082 17.0629C92.9875 17.0263 94.2924 17.8308 94.9983 19.4764C95.3763 18.7634 95.9179 18.1874 96.6238 17.7485C97.3467 17.2914 98.1344 17.0629 98.9877 17.0629C99.8417 17.0629 100.613 17.2823 101.303 17.7211C101.993 18.1416 102.534 18.7999 102.928 19.6959C103.34 20.5735 103.544 21.7072 103.544 23.0969V30.9136C103.544 31.1147 103.487 31.2793 103.372 31.4073C103.257 31.5353 103.118 31.5993 102.953 31.5993H100.515C100.351 31.5993 100.212 31.5353 100.096 31.4073C99.9817 31.2793 99.9235 31.1147 99.9235 30.9136V23.3162C99.9235 22.5666 99.8255 21.9814 99.628 21.5609C99.4312 21.1221 99.1689 20.8112 98.8403 20.6284C98.5286 20.4455 98.1749 20.3541 97.7814 20.3541C97.4366 20.3541 97.0998 20.4455 96.7712 20.6284C96.4595 20.8112 96.1972 21.1221 95.9835 21.5609C95.786 21.9814 95.688 22.5666 95.688 23.3162V30.9136C95.688 31.1147 95.6306 31.2793 95.5156 31.4073C95.4007 31.5353 95.2533 31.5993 95.072 31.5993H92.6581C92.4783 31.5993 92.3302 31.5353 92.2153 31.4073C92.1003 31.2793 92.0428 31.1147 92.0428 30.9136V23.3162C92.0428 22.5666 91.9441 21.9814 91.7474 21.5609C91.5499 21.1221 91.2876 20.8112 90.9589 20.6284C90.6472 20.4455 90.3024 20.3541 89.9244 20.3541C89.5795 20.3541 89.2435 20.4548 88.9149 20.6558C88.587 20.8387 88.3158 21.1404 88.1021 21.5609C87.9054 21.9814 87.8067 22.5574 87.8067 23.2888V30.9136C87.8067 31.1147 87.7492 31.2793 87.6342 31.4073C87.5193 31.5353 87.38 31.5993 87.2157 31.5993H84.7281ZM112.489 31.8736C110.601 31.8736 109.099 31.2885 107.982 30.1183C106.882 28.948 106.299 27.2475 106.234 25.0168C106.234 24.8705 106.234 24.6785 106.234 24.4408C106.234 24.1849 106.234 23.9837 106.234 23.8374C106.299 22.4295 106.587 21.2227 107.096 20.217C107.604 19.193 108.318 18.4159 109.238 17.8857C110.158 17.3371 111.233 17.0629 112.465 17.0629C113.844 17.0629 114.993 17.3829 115.912 18.0229C116.849 18.6445 117.546 19.5039 118.006 20.601C118.482 21.6798 118.721 22.9232 118.721 24.3311V24.9619C118.721 25.1448 118.654 25.3002 118.523 25.4282C118.408 25.5562 118.268 25.6202 118.105 25.6202H110.051C110.051 25.6385 110.051 25.6751 110.051 25.7299C110.051 25.7664 110.051 25.8031 110.051 25.8396C110.067 26.4247 110.166 26.9641 110.347 27.4578C110.544 27.9332 110.815 28.3172 111.16 28.6097C111.52 28.9023 111.947 29.0486 112.44 29.0486C112.85 29.0486 113.187 28.9846 113.45 28.8566C113.712 28.7286 113.926 28.5732 114.09 28.3904C114.271 28.2075 114.402 28.0521 114.484 27.9241C114.632 27.7412 114.747 27.6315 114.829 27.5949C114.927 27.5401 115.075 27.5126 115.272 27.5126H117.833C117.998 27.5126 118.13 27.5675 118.228 27.6772C118.343 27.7686 118.392 27.9057 118.376 28.0886C118.359 28.3812 118.219 28.7468 117.957 29.1857C117.71 29.6062 117.341 30.0268 116.849 30.4474C116.356 30.8497 115.74 31.1879 115.002 31.4621C114.279 31.7365 113.441 31.8736 112.489 31.8736ZM110.051 23.1243H114.879V23.0694C114.879 22.4112 114.78 21.8443 114.582 21.369C114.402 20.8753 114.131 20.4913 113.77 20.217C113.409 19.9427 112.973 19.8056 112.465 19.8056C111.956 19.8056 111.52 19.9427 111.16 20.217C110.798 20.4913 110.519 20.8753 110.322 21.369C110.141 21.8443 110.051 22.4112 110.051 23.0694V23.1243ZM122.019 31.5993C121.855 31.5993 121.716 31.5353 121.601 31.4073C121.485 31.2793 121.428 31.1147 121.428 30.9136V18.0229C121.428 17.8217 121.485 17.6572 121.601 17.5292C121.716 17.4011 121.855 17.3371 122.019 17.3371H124.433C124.613 17.3371 124.761 17.4011 124.876 17.5292C124.991 17.6572 125.049 17.8217 125.049 18.0229V19.0925C125.475 18.5074 126.026 18.0229 126.698 17.6388C127.372 17.2548 128.193 17.0629 129.162 17.0629C130.13 17.0629 130.976 17.3097 131.699 17.8034C132.437 18.2788 133.012 18.9828 133.422 19.9153C133.849 20.8295 134.063 21.9449 134.063 23.2614V30.9136C134.063 31.1147 133.997 31.2793 133.866 31.4073C133.751 31.5353 133.612 31.5993 133.447 31.5993H130.837C130.656 31.5993 130.508 31.5353 130.393 31.4073C130.278 31.2793 130.221 31.1147 130.221 30.9136V23.426C130.221 22.4569 130.007 21.7072 129.58 21.1769C129.17 20.6284 128.563 20.3541 127.758 20.3541C126.987 20.3541 126.371 20.6284 125.911 21.1769C125.451 21.7072 125.221 22.4569 125.221 23.426V30.9136C125.221 31.1147 125.164 31.2793 125.049 31.4073C124.934 31.5353 124.794 31.5993 124.63 31.5993H122.019ZM143.272 31.5993C142.255 31.5993 141.385 31.4165 140.662 31.0508C139.94 30.6668 139.39 30.0817 139.012 29.2954C138.651 28.5091 138.47 27.5218 138.47 26.3333V20.5735H136.549C136.369 20.5735 136.221 20.5096 136.106 20.3816C135.991 20.2535 135.933 20.089 135.933 19.8879V18.0229C135.933 17.8217 135.991 17.6572 136.106 17.5292C136.221 17.4011 136.369 17.3371 136.549 17.3371H138.47V12.8116C138.47 12.6105 138.528 12.446 138.642 12.3179C138.774 12.1899 138.922 12.126 139.086 12.126H141.5C141.68 12.126 141.828 12.1899 141.942 12.3179C142.058 12.446 142.115 12.6105 142.115 12.8116V17.3371H145.193C145.358 17.3371 145.498 17.4011 145.613 17.5292C145.728 17.6572 145.784 17.8217 145.784 18.0229V19.8879C145.784 20.089 145.728 20.2535 145.613 20.3816C145.498 20.5096 145.358 20.5735 145.193 20.5735H142.115V26.0041C142.115 26.699 142.222 27.2475 142.435 27.6498C142.665 28.0338 143.06 28.2257 143.617 28.2257H145.415C145.58 28.2257 145.72 28.2897 145.834 28.4178C145.949 28.5458 146.006 28.7012 146.006 28.8841V30.9136C146.006 31.1147 145.949 31.2793 145.834 31.4073C145.72 31.5353 145.58 31.5993 145.415 31.5993H143.272Z" fill="white"/>
<path d="M150.406 31.7559C150.228 31.7559 150.083 31.6942 149.97 31.5707C149.857 31.4473 149.801 31.2886 149.801 31.0946V13.9021C149.801 13.7082 149.857 13.5495 149.97 13.426C150.083 13.3025 150.228 13.2409 150.406 13.2409H161.198C161.375 13.2409 161.52 13.3025 161.633 13.426C161.746 13.5495 161.803 13.7082 161.803 13.9021V16.1503C161.803 16.3443 161.746 16.503 161.633 16.6265C161.52 16.7499 161.375 16.8116 161.198 16.8116H153.576V21.2817H160.714C160.89 21.2817 161.036 21.3434 161.149 21.4668C161.263 21.5903 161.319 21.749 161.319 21.9429V24.1912C161.319 24.3676 161.263 24.5174 161.149 24.6409C161.036 24.7643 160.89 24.8259 160.714 24.8259H153.576V31.0946C153.576 31.2886 153.519 31.4473 153.406 31.5707C153.293 31.6942 153.148 31.7559 152.971 31.7559H150.406ZM165.433 31.7559C165.272 31.7559 165.134 31.6942 165.022 31.5707C164.908 31.4473 164.852 31.2886 164.852 31.0946V18.6631C164.852 18.4692 164.908 18.3105 165.022 18.187C165.134 18.0636 165.272 18.0019 165.433 18.0019H167.853C168.03 18.0019 168.175 18.0636 168.288 18.187C168.401 18.3105 168.458 18.4692 168.458 18.6631V31.0946C168.458 31.2886 168.401 31.4473 168.288 31.5707C168.175 31.6942 168.03 31.7559 167.853 31.7559H165.433ZM165.36 15.8859C165.199 15.8859 165.062 15.8242 164.949 15.7007C164.836 15.5773 164.78 15.4186 164.78 15.2246V13.1086C164.78 12.9147 164.836 12.7559 164.949 12.6325C165.062 12.4915 165.199 12.4209 165.36 12.4209H167.901C168.078 12.4209 168.224 12.4915 168.337 12.6325C168.465 12.7559 168.53 12.9147 168.53 13.1086V15.2246C168.53 15.4186 168.465 15.5773 168.337 15.7007C168.224 15.8242 168.078 15.8859 167.901 15.8859H165.36Z" fill="#8FD8E7"/>
<mask id="mask0_1808_19512" style="mask-type:alpha" maskUnits="userSpaceOnUse" x="1" y="0" width="37" height="34">
<path d="M15.6975 25.8069C10.7357 28.2312 4.91579 25.7985 2.69851 20.3734C0.481224 14.9481 2.70618 8.58483 7.66806 6.16052C12.63 3.7362 18.4498 6.16892 20.6671 11.5941C22.8843 17.0193 20.6594 23.3826 15.6975 25.8069Z" fill="black"/>
<path d="M33.5723 14.7406C30.1372 16.419 26.108 14.7348 24.573 10.9789C23.038 7.22298 24.5783 2.81763 28.0134 1.13923C31.4486 -0.539168 35.4777 1.14505 37.0127 4.90094C38.5478 8.65689 37.0075 13.0622 33.5723 14.7406Z" fill="black"/>
<path d="M31.1638 33.2673C28.3967 34.6193 25.151 33.2626 23.9144 30.237C22.6779 27.2114 23.9187 23.6627 26.6859 22.3107C29.4531 20.9587 32.6988 22.3154 33.9353 25.3409C35.1719 28.3665 33.931 31.9153 31.1638 33.2673Z" fill="black"/>
</mask>
<g mask="url(#mask0_1808_19512)">
<path d="M3.34032 24.2207C8.23875 34.2499 21.0959 38.747 32.0577 34.2654C43.0195 29.7837 47.9347 18.0203 43.0363 7.99113C38.1379 -2.03802 25.2807 -6.53516 14.319 -2.05349C3.35724 2.42812 -1.55809 14.1915 3.34032 24.2207Z" fill="white"/>
<path d="M10.8864 22.0478C13.4981 28.4117 20.3534 31.2653 26.1979 28.4215C32.0425 25.5776 34.6633 18.1133 32.0516 11.7494C29.4399 5.38554 22.5846 2.53186 16.74 5.37574C10.8954 8.21948 8.27467 15.6838 10.8864 22.0478Z" fill="#6ACDE2"/>
</g>
</svg>
