<svg width="648" height="450" viewBox="0 0 648 450" fill="none" xmlns="http://www.w3.org/2000/svg">
<rect width="648" height="450" rx="32" fill="white"/>
<rect width="648" height="450" rx="32" fill="#36BEFF" fill-opacity="0.1"/>
<rect x="45.1054" y="48.3915" width="155.821" height="82.217" rx="18.4009" fill="white"/>
<rect x="45.1054" y="48.3915" width="155.821" height="82.217" rx="18.4009" fill="#C7FFE7" fill-opacity="0.5"/>
<path d="M92.4903 102.198C102.864 102.198 107.675 93.9296 107.675 84.1074C107.675 74.2852 102.864 65.9665 92.4903 65.9665C82.1169 65.9665 77.2559 74.2852 77.2559 84.1074C77.2559 93.9296 82.1169 102.198 92.4903 102.198ZM92.4903 95.3328C87.4289 95.3328 85.7752 90.9729 85.7752 84.1074C85.7752 77.2419 87.4289 72.832 92.4903 72.832C97.5518 72.832 99.1554 77.2419 99.1554 84.1074C99.1554 90.9729 97.5518 95.3328 92.4903 95.3328ZM112.969 101.848C115.324 101.848 117.229 100.194 117.229 97.5879C117.229 95.0321 115.324 93.3283 112.969 93.3283C110.564 93.3283 108.709 95.0321 108.709 97.5879C108.709 100.194 110.564 101.848 112.969 101.848ZM133.552 102.198C143.925 102.198 148.736 93.9296 148.736 84.1074C148.736 74.2852 143.925 65.9665 133.552 65.9665C123.178 65.9665 118.317 74.2852 118.317 84.1074C118.317 93.9296 123.178 102.198 133.552 102.198ZM133.552 95.3328C128.49 95.3328 126.837 90.9729 126.837 84.1074C126.837 77.2419 128.49 72.832 133.552 72.832C138.613 72.832 140.217 77.2419 140.217 84.1074C140.217 90.9729 138.613 95.3328 133.552 95.3328ZM158.78 66.7683C158.78 70.5267 156.524 73.9846 149.96 73.9846V79.9981C152.415 79.9981 155.322 79.9981 157.276 77.9936V101.396H165.795V66.7683H158.78Z" fill="url(#paint0_linear_910_9136)"/>
<path d="M113.312 113.985V112.394H117.848V110.552H111.057V119.51H117.923V117.668H113.312V115.826H117.221V113.985H113.312ZM121.004 119.51H123.259V112.394H125.852V110.552H118.398V112.394H121.004V119.51ZM126.553 110.552V119.51H128.808V115.902H131.877V119.51H134.132V110.552H131.877V114.06H128.808V110.552H126.553Z" fill="#4E4E4E"/>
<rect x="45.1054" y="48.3915" width="155.821" height="82.217" rx="18.4009" stroke="#73FCC2" stroke-width="0.783019"/>
<rect x="245.697" y="48.3915" width="155.821" height="82.217" rx="18.4009" fill="white"/>
<rect x="245.697" y="48.3915" width="155.821" height="82.217" rx="18.4009" fill="#F64631" fill-opacity="0.1"/>
<path d="M289.41 102.198C299.784 102.198 304.595 93.9296 304.595 84.1074C304.595 74.2852 299.784 65.9665 289.41 65.9665C279.037 65.9665 274.176 74.2852 274.176 84.1074C274.176 93.9296 279.037 102.198 289.41 102.198ZM289.41 95.3328C284.349 95.3328 282.695 90.9729 282.695 84.1074C282.695 77.2419 284.349 72.832 289.41 72.832C294.472 72.832 296.075 77.2419 296.075 84.1074C296.075 90.9729 294.472 95.3328 289.41 95.3328ZM309.889 101.848C312.244 101.848 314.149 100.194 314.149 97.5879C314.149 95.0321 312.244 93.3283 309.889 93.3283C307.484 93.3283 305.629 95.0321 305.629 97.5879C305.629 100.194 307.484 101.848 309.889 101.848ZM330.472 102.198C340.845 102.198 345.656 93.9296 345.656 84.1074C345.656 74.2852 340.845 65.9665 330.472 65.9665C320.098 65.9665 315.237 74.2852 315.237 84.1074C315.237 93.9296 320.098 102.198 330.472 102.198ZM330.472 95.3328C325.41 95.3328 323.757 90.9729 323.757 84.1074C323.757 77.2419 325.41 72.832 330.472 72.832C335.533 72.832 337.137 77.2419 337.137 84.1074C337.137 90.9729 335.533 95.3328 330.472 95.3328ZM354.954 79.3968C354.954 74.636 357.109 72.832 360.366 72.832C363.072 72.832 364.576 74.4356 364.576 77.0916C364.576 81.6519 358.712 84.358 352.498 89.5197C349.441 92.0754 346.435 95.6335 346.435 101.396H373.095V94.531H358.412V94.4307C362.872 90.0208 373.095 85.6108 373.095 76.4902C373.095 69.8753 368.083 65.9665 360.617 65.9665C351.245 65.9665 346.936 71.2784 346.936 79.3968H354.954Z" fill="url(#paint1_linear_910_9136)"/>
<path d="M314.296 113.985V112.394H318.831V110.552H312.041V119.51H318.906V117.668H314.296V115.826H318.205V113.985H314.296ZM321.987 119.51H324.242V112.394H326.836V110.552H319.381V112.394H321.987V119.51ZM327.536 110.552V119.51H329.791V115.902H332.861V119.51H335.116V110.552H332.861V114.06H329.791V110.552H327.536Z" fill="#4E4E4E"/>
<rect x="245.697" y="48.3915" width="155.821" height="82.217" rx="18.4009" stroke="#F64631" stroke-width="0.783019"/>
<rect x="446.289" y="48.3915" width="155.821" height="82.217" rx="18.4009" fill="white"/>
<rect x="446.289" y="48.3915" width="155.821" height="82.217" rx="18.4009" fill="#F64631" fill-opacity="0.1"/>
<path d="M489.057 102.198C499.431 102.198 504.242 93.9296 504.242 84.1074C504.242 74.2852 499.431 65.9665 489.057 65.9665C478.684 65.9665 473.823 74.2852 473.823 84.1074C473.823 93.9296 478.684 102.198 489.057 102.198ZM489.057 95.3328C483.996 95.3328 482.342 90.9729 482.342 84.1074C482.342 77.2419 483.996 72.832 489.057 72.832C494.119 72.832 495.722 77.2419 495.722 84.1074C495.722 90.9729 494.119 95.3328 489.057 95.3328ZM509.536 101.848C511.891 101.848 513.796 100.194 513.796 97.5879C513.796 95.0321 511.891 93.3283 509.536 93.3283C507.131 93.3283 505.276 95.0321 505.276 97.5879C505.276 100.194 507.131 101.848 509.536 101.848ZM530.119 102.198C540.492 102.198 545.303 93.9296 545.303 84.1074C545.303 74.2852 540.492 65.9665 530.119 65.9665C519.745 65.9665 514.884 74.2852 514.884 84.1074C514.884 93.9296 519.745 102.198 530.119 102.198ZM530.119 95.3328C525.057 95.3328 523.404 90.9729 523.404 84.1074C523.404 77.2419 525.057 72.832 530.119 72.832C535.18 72.832 536.784 77.2419 536.784 84.1074C536.784 90.9729 535.18 95.3328 530.119 95.3328ZM555.19 77.3923C555.19 74.0848 557.646 72.832 560.302 72.832C563.108 72.832 564.812 73.9344 564.812 76.8911C564.812 79.497 562.958 80.6997 559.249 80.6997H557.696V86.563H559.45C563.459 86.563 565.814 87.8158 565.814 91.1734C565.814 93.7793 564.11 95.3328 560.502 95.3328C556.042 95.3328 554.188 93.1779 554.188 89.1689H546.17C546.17 97.4877 551.332 102.198 561.104 102.198C568.771 102.198 574.334 98.4899 574.334 91.6745C574.334 87.4149 572.58 84.5083 568.32 83.1553V83.0551C571.126 81.6018 573.331 79.2464 573.331 75.488C573.331 69.3741 567.418 65.9665 560.953 65.9665C552.083 65.9665 547.172 70.7773 547.172 77.3923H555.19Z" fill="url(#paint2_linear_910_9136)"/>
<path d="M514.888 113.985V112.394H519.423V110.552H512.633V119.51H519.498V117.668H514.888V115.826H518.797V113.985H514.888ZM522.579 119.51H524.834V112.394H527.428V110.552H519.973V112.394H522.579V119.51ZM528.128 110.552V119.51H530.383V115.902H533.453V119.51H535.708V110.552H533.453V114.06H530.383V110.552H528.128Z" fill="#4E4E4E"/>
<rect x="446.289" y="48.3915" width="155.821" height="82.217" rx="18.4009" stroke="#F64631" stroke-width="0.783019"/>
<path d="M249 320V316C249 307.163 256.163 300 265 300H307C315.837 300 323 292.837 323 284V280" stroke="#36BEFF"/>
<path d="M398 320V316C398 307.163 390.837 300 382 300H339C330.163 300 323 292.837 323 284V280" stroke="#36BEFF"/>
<path d="M100 320V316C100 307.163 107.163 300 116 300H307C315.837 300 323 292.837 323 284V280" stroke="#36BEFF"/>
<path d="M547 320V316C547 307.163 539.837 300 531 300H339C330.163 300 323 292.837 323 284V280" stroke="#36BEFF"/>
<g opacity="0.5" filter="url(#filter0_d_910_9136)">
<rect x="154.942" y="280" width="109" height="337.642" rx="54.4998" transform="rotate(-90 154.942 280)" fill="white" fill-opacity="0.66" shape-rendering="crispEdges"/>
</g>
<g clip-path="url(#clip0_910_9136)">
<path d="M273.583 227.276L273.414 226.949" stroke="#36BEFF" stroke-width="1.46801" stroke-linecap="round" stroke-dasharray="0.37 4.4"/>
<path d="M271.388 223.041L257.886 196.987C252.528 186.649 243.837 186.649 238.479 196.987L222.778 227.276L208.26 255.282" stroke="#36BEFF" stroke-width="1.46801" stroke-linecap="round" stroke-dasharray="0.37 4.4"/>
<path d="M207.247 257.238L207.078 257.564" stroke="#36BEFF" stroke-width="1.46801" stroke-linecap="round" stroke-dasharray="0.37 4.4"/>
<path d="M375.195 227.276L375.026 226.949" stroke="#36BEFF" stroke-width="1.46801" stroke-linecap="round" stroke-dasharray="0.37 4.4"/>
<path d="M373.015 223.07L359.495 196.987C354.136 186.649 345.446 186.649 340.088 196.987L324.387 227.276L308.687 257.565C303.329 267.903 294.638 267.903 289.28 257.565L274.754 229.544" stroke="#36BEFF" stroke-width="1.46801" stroke-linecap="round" stroke-dasharray="0.37 4.4"/>
<path d="M273.752 227.603L273.583 227.276" stroke="#36BEFF" stroke-width="1.46801" stroke-linecap="round" stroke-dasharray="0.37 4.4"/>
<path d="M441.698 196.987L441.529 197.314" stroke="#36BEFF" stroke-width="1.46801" stroke-linecap="round" stroke-dasharray="0.37 4.4"/>
<path d="M439.503 201.222L426.001 227.276L410.301 257.565C404.943 267.903 396.252 267.903 390.894 257.565L376.379 229.559" stroke="#36BEFF" stroke-width="1.46801" stroke-linecap="round" stroke-dasharray="0.37 4.4"/>
<path d="M375.362 227.603L375.193 227.276" stroke="#36BEFF" stroke-width="1.46801" stroke-linecap="round" stroke-dasharray="0.37 4.4"/>
<path d="M375.193 223.396L375.362 223.074" stroke="#36BEFF" stroke-width="1.46801" stroke-linecap="round" stroke-dasharray="0.37 4.4"/>
<path d="M377.388 219.161L390.89 193.108C396.248 182.769 404.939 182.769 410.297 193.108L425.997 223.396L440.512 251.402" stroke="#36BEFF" stroke-width="1.46801" stroke-linecap="round" stroke-dasharray="0.37 4.4"/>
<path d="M441.529 253.362L441.698 253.685" stroke="#36BEFF" stroke-width="1.46801" stroke-linecap="round" stroke-dasharray="0.37 4.4"/>
<path d="M273.583 223.397L273.752 223.074" stroke="#36BEFF" stroke-width="1.46801" stroke-linecap="round" stroke-dasharray="0.37 4.4"/>
<path d="M275.763 219.191L289.283 193.108C294.641 182.77 303.332 182.77 308.69 193.108L324.39 223.397L340.091 253.686C345.449 264.024 354.14 264.024 359.498 253.686L374.024 225.665" stroke="#36BEFF" stroke-width="1.46801" stroke-linecap="round" stroke-dasharray="0.37 4.4"/>
<path d="M375.026 223.724L375.195 223.397" stroke="#36BEFF" stroke-width="1.46801" stroke-linecap="round" stroke-dasharray="0.37 4.4"/>
<path d="M207.078 193.112L207.247 193.435" stroke="#36BEFF" stroke-width="1.46801" stroke-linecap="round" stroke-dasharray="0.37 4.4"/>
<path d="M209.273 197.347L222.775 223.4L238.476 253.689C243.834 264.027 252.525 264.027 257.883 253.689L272.398 225.683" stroke="#36BEFF" stroke-width="1.46801" stroke-linecap="round" stroke-dasharray="0.37 4.4"/>
<path d="M273.414 223.724L273.583 223.397" stroke="#36BEFF" stroke-width="1.46801" stroke-linecap="round" stroke-dasharray="0.37 4.4"/>
<path d="M258.792 226.784C240.679 206.596 211.308 206.596 193.195 226.784L172.925 249.377" stroke="#36BEFF" stroke-width="0.734004"/>
<path d="M389.987 226.784C371.874 206.595 342.503 206.595 324.39 226.784C306.276 246.973 276.905 246.973 258.792 226.784" stroke="#36BEFF" stroke-width="0.734004"/>
<path d="M475.855 204.192L455.585 226.784C437.472 246.973 408.101 246.973 389.987 226.784" stroke="#36BEFF" stroke-width="0.734004"/>
<path d="M389.987 223.892C408.101 203.703 437.472 203.703 455.585 223.892L475.855 246.485" stroke="#36BEFF" stroke-width="0.734004"/>
<path d="M258.792 223.892C276.905 203.703 306.276 203.703 324.39 223.892C342.503 244.081 371.874 244.081 389.987 223.892" stroke="#36BEFF" stroke-width="0.734004"/>
<path d="M172.925 201.299L193.195 223.892C211.308 244.081 240.679 244.081 258.792 223.892" stroke="#36BEFF" stroke-width="0.734004"/>
<g opacity="0.5">
<path d="M258.793 226.784L232.773 197.783C229.03 193.611 222.958 193.611 219.211 197.783L193.195 226.784L172.925 249.376" stroke="#36BEFF" stroke-width="0.367002"/>
<path d="M389.988 226.784L363.969 197.784C360.225 193.611 354.153 193.611 350.406 197.784L324.387 226.784L298.371 255.781C294.627 259.954 288.555 259.954 284.808 255.781L258.789 226.781" stroke="#36BEFF" stroke-width="0.367002"/>
<path d="M475.855 204.191L455.585 226.784L429.566 255.784C425.822 259.957 419.751 259.957 416.004 255.784L389.984 226.784" stroke="#36BEFF" stroke-width="0.367002"/>
<path d="M389.987 223.892L416.006 194.891C419.75 190.718 425.822 190.718 429.569 194.891L455.588 223.892L475.858 246.484" stroke="#36BEFF" stroke-width="0.367002"/>
<path d="M258.792 223.892L284.811 194.891C288.555 190.719 294.627 190.719 298.374 194.891L324.393 223.892L350.412 252.892C354.156 257.065 360.228 257.065 363.975 252.892L389.994 223.892" stroke="#36BEFF" stroke-width="0.367002"/>
<path d="M172.925 201.3L193.195 223.892L219.211 252.889C222.955 257.062 229.026 257.062 232.773 252.889L258.793 223.888" stroke="#36BEFF" stroke-width="0.367002"/>
</g>
</g>
<path d="M95.6951 320.485C98.359 318.947 101.641 318.947 104.305 320.485L137.264 339.515C139.928 341.053 141.569 343.895 141.569 346.971V385.029C141.569 388.105 139.928 390.947 137.264 392.485L104.305 411.515C101.641 413.053 98.359 413.053 95.6951 411.515L62.7357 392.485C60.0718 390.947 58.4308 388.105 58.4308 385.029V346.971C58.4308 343.895 60.0718 341.053 62.7357 339.515L95.6951 320.485Z" fill="#5578F8"/>
<path d="M104.09 320.858L137.049 339.887C139.58 341.348 141.139 344.049 141.139 346.971V385.029C141.139 387.951 139.58 390.652 137.049 392.113L104.09 411.142C101.559 412.603 98.441 412.603 95.9103 411.142L62.951 392.113C60.4203 390.652 58.8613 387.951 58.8613 385.029V346.971C58.8613 344.049 60.4203 341.348 62.951 339.887L95.9103 320.858C98.441 319.397 101.559 319.397 104.09 320.858Z" stroke="#5578F8" stroke-opacity="0.5" stroke-width="0.860986"/>
<path d="M95.6944 321.765C98.3583 320.227 101.64 320.227 104.304 321.765L136.155 340.154C138.819 341.692 140.46 344.535 140.46 347.611V384.389C140.46 387.465 138.819 390.307 136.155 391.845L104.304 410.234C101.64 411.772 98.3583 411.772 95.6944 410.234L63.8435 391.845C61.1796 390.307 59.5386 387.465 59.5386 384.389V347.611C59.5386 344.535 61.1796 341.692 63.8435 340.154L95.6944 321.765Z" fill="white"/>
<path d="M104.089 322.138L135.94 340.527C138.471 341.988 140.03 344.688 140.03 347.611V384.389C140.03 387.311 138.471 390.011 135.94 391.472L104.089 409.862C101.558 411.323 98.4403 411.323 95.9096 409.862L64.0588 391.472C61.5281 390.011 59.9691 387.311 59.9691 384.389V347.611C59.9691 344.688 61.5281 341.988 64.0588 340.527L95.9096 322.138C98.4403 320.677 101.558 320.677 104.089 322.138Z" stroke="#5578F8" stroke-opacity="0.5" stroke-width="0.860986"/>
<rect x="88.1201" y="335.025" width="1.69612" height="7.76644" transform="rotate(90 88.1201 335.025)" stroke="#4C84FF" stroke-width="0.178539"/>
<rect x="91.958" y="333.329" width="1.69612" height="7.76644" transform="rotate(90 91.958 333.329)" stroke="#4C84FF" stroke-width="0.178539"/>
<rect x="95.7969" y="331.632" width="1.69612" height="7.76644" transform="rotate(90 95.7969 331.632)" stroke="#4C84FF" stroke-width="0.178539"/>
<rect x="99.7246" y="329.937" width="1.69612" height="7.76644" transform="rotate(90 99.7246 329.937)" stroke="#4C84FF" stroke-width="0.178539"/>
<rect x="103.563" y="328.24" width="1.69612" height="7.76644" transform="rotate(90 103.563 328.24)" stroke="#4C84FF" stroke-width="0.178539"/>
<rect x="103.563" y="335.025" width="1.69612" height="7.76644" transform="rotate(90 103.563 335.025)" stroke="#4C84FF" stroke-width="0.178539"/>
<rect x="107.401" y="333.329" width="1.69612" height="7.76644" transform="rotate(90 107.401 333.329)" stroke="#4C84FF" stroke-width="0.178539"/>
<rect x="111.241" y="331.632" width="1.69612" height="7.76644" transform="rotate(90 111.241 331.632)" stroke="#4C84FF" stroke-width="0.178539"/>
<rect x="119.007" y="335.025" width="1.69612" height="7.67717" transform="rotate(90 119.007 335.025)" stroke="#4C84FF" stroke-width="0.178539"/>
<rect x="95.7969" y="335.025" width="1.69612" height="7.67717" transform="rotate(90 95.7969 335.025)" stroke="#4C84FF" stroke-width="0.178539"/>
<rect x="99.6357" y="333.329" width="1.69612" height="7.67717" transform="rotate(90 99.6357 333.329)" stroke="#4C84FF" stroke-width="0.178539"/>
<rect x="103.475" y="331.632" width="1.69612" height="7.67717" transform="rotate(90 103.475 331.632)" stroke="#4C84FF" stroke-width="0.178539"/>
<rect x="107.401" y="329.937" width="1.69612" height="7.67717" transform="rotate(90 107.401 329.937)" stroke="#4C84FF" stroke-width="0.178539"/>
<rect x="111.331" y="335.025" width="1.69612" height="7.76644" transform="rotate(90 111.331 335.025)" stroke="#4C84FF" stroke-width="0.178539"/>
<rect x="115.169" y="333.329" width="1.69612" height="7.76644" transform="rotate(90 115.169 333.329)" stroke="#4C84FF" stroke-width="0.178539"/>
<rect x="111.241" y="396.531" width="1.69612" height="7.76644" transform="rotate(-90 111.241 396.531)" stroke="#4C84FF" stroke-width="0.178539"/>
<rect x="107.403" y="398.228" width="1.69612" height="7.76644" transform="rotate(-90 107.403 398.228)" stroke="#4C84FF" stroke-width="0.178539"/>
<rect x="103.564" y="399.924" width="1.69612" height="7.76644" transform="rotate(-90 103.564 399.924)" stroke="#4C84FF" stroke-width="0.178539"/>
<rect x="99.6367" y="401.62" width="1.69612" height="7.76644" transform="rotate(-90 99.6367 401.62)" stroke="#4C84FF" stroke-width="0.178539"/>
<rect x="95.7959" y="403.316" width="1.69612" height="7.76644" transform="rotate(-90 95.7959 403.316)" stroke="#4C84FF" stroke-width="0.178539"/>
<rect x="95.7959" y="396.531" width="1.69612" height="7.76644" transform="rotate(-90 95.7959 396.531)" stroke="#4C84FF" stroke-width="0.178539"/>
<rect x="91.96" y="398.228" width="1.69612" height="7.76644" transform="rotate(-90 91.96 398.228)" stroke="#4C84FF" stroke-width="0.178539"/>
<rect x="88.1201" y="399.924" width="1.69612" height="7.76644" transform="rotate(-90 88.1201 399.924)" stroke="#4C84FF" stroke-width="0.178539"/>
<rect x="80.3545" y="396.531" width="1.69612" height="7.67717" transform="rotate(-90 80.3545 396.531)" stroke="#4C84FF" stroke-width="0.178539"/>
<rect x="103.564" y="396.531" width="1.69612" height="7.67717" transform="rotate(-90 103.564 396.531)" stroke="#4C84FF" stroke-width="0.178539"/>
<rect x="99.7256" y="398.228" width="1.69612" height="7.67717" transform="rotate(-90 99.7256 398.228)" stroke="#4C84FF" stroke-width="0.178539"/>
<rect x="95.8867" y="399.924" width="1.69612" height="7.67717" transform="rotate(-90 95.8867 399.924)" stroke="#4C84FF" stroke-width="0.178539"/>
<rect x="91.96" y="401.62" width="1.69612" height="7.67717" transform="rotate(-90 91.96 401.62)" stroke="#4C84FF" stroke-width="0.178539"/>
<rect x="88.0303" y="396.531" width="1.69612" height="7.76644" transform="rotate(-90 88.0303 396.531)" stroke="#4C84FF" stroke-width="0.178539"/>
<rect x="84.1924" y="398.228" width="1.69612" height="7.76644" transform="rotate(-90 84.1924 398.228)" stroke="#4C84FF" stroke-width="0.178539"/>
<rect x="112.446" y="344.263" width="23.1208" height="4.19566" rx="2.09783" stroke="#0057DA" stroke-width="0.0892694"/>
<rect x="88.1657" y="344.263" width="23.0315" height="4.19566" rx="2.09783" stroke="#0057DA" stroke-width="0.0892694"/>
<rect x="77.9922" y="339.888" width="43.093" height="2.73607" rx="1.36803" fill="#D4EDFF"/>
<rect x="77.9922" y="372.721" width="43.093" height="2.73607" rx="1.36803" fill="#D4EDFF"/>
<rect x="85.5176" y="352.885" width="28.0447" height="2.73607" rx="1.36803" fill="#D4EDFF"/>
<rect x="63.7946" y="344.263" width="23.1208" height="4.19566" rx="2.09783" stroke="#0057DA" stroke-width="0.0892694"/>
<path d="M66.0234 346.386H84.4919" stroke="#949698" stroke-width="0.684017" stroke-linecap="round"/>
<path d="M66.0234 379.561H84.4919" stroke="#949698" stroke-width="0.684017" stroke-linecap="round"/>
<path d="M66.0234 385.034H84.4919" stroke="#949698" stroke-width="0.684017" stroke-linecap="round"/>
<path d="M90.3057 346.386H108.774" stroke="#949698" stroke-width="0.684017" stroke-linecap="round"/>
<path d="M90.3057 379.561H108.774" stroke="#949698" stroke-width="0.684017" stroke-linecap="round"/>
<path d="M90.3057 385.034H108.774" stroke="#949698" stroke-width="0.684017" stroke-linecap="round"/>
<path d="M114.588 346.386H133.056" stroke="#949698" stroke-width="0.684017" stroke-linecap="round"/>
<path d="M114.588 379.561H133.056" stroke="#949698" stroke-width="0.684017" stroke-linecap="round"/>
<path d="M114.588 385.034H133.056" stroke="#949698" stroke-width="0.684017" stroke-linecap="round"/>
<path d="M103.302 359.725L133.398 359.725" stroke="#949698" stroke-width="0.684017" stroke-linecap="round"/>
<path d="M103.302 365.88L133.398 365.88" stroke="#949698" stroke-width="0.684017" stroke-linecap="round"/>
<path d="M66.3643 359.725L96.461 359.725" stroke="#949698" stroke-width="0.684017" stroke-linecap="round"/>
<path d="M66.3643 365.88L96.461 365.88" stroke="#949698" stroke-width="0.684017" stroke-linecap="round"/>
<rect x="100.306" y="357.717" width="35.2614" height="4.19566" rx="2.09783" stroke="#0057DA" stroke-width="0.0892694"/>
<rect x="63.7946" y="357.717" width="35.2614" height="4.19566" rx="2.09783" stroke="#0057DA" stroke-width="0.0892694"/>
<rect x="100.306" y="363.874" width="35.2614" height="4.19566" rx="2.09783" stroke="#0057DA" stroke-width="0.0892694"/>
<rect x="63.7946" y="363.874" width="35.2614" height="4.19566" rx="2.09783" stroke="#0057DA" stroke-width="0.0892694"/>
<rect x="112.446" y="377.205" width="23.1208" height="4.19566" rx="2.09783" stroke="#0057DA" stroke-width="0.0892694"/>
<rect x="88.1657" y="377.205" width="23.0315" height="4.19566" rx="2.09783" stroke="#0057DA" stroke-width="0.0892694"/>
<rect x="63.7946" y="377.205" width="23.1208" height="4.19566" rx="2.09783" stroke="#0057DA" stroke-width="0.0892694"/>
<rect x="112.446" y="382.918" width="23.1208" height="4.19566" rx="2.09783" stroke="#0057DA" stroke-width="0.0892694"/>
<rect x="88.1657" y="382.918" width="23.0315" height="4.19566" rx="2.09783" stroke="#0057DA" stroke-width="0.0892694"/>
<rect x="63.7946" y="382.918" width="23.1208" height="4.19566" rx="2.09783" stroke="#0057DA" stroke-width="0.0892694"/>
<path d="M244.695 320.485C247.359 318.947 250.641 318.947 253.305 320.485L286.264 339.515C288.928 341.053 290.569 343.895 290.569 346.971V385.029C290.569 388.105 288.928 390.947 286.264 392.485L253.305 411.515C250.641 413.053 247.359 413.053 244.695 411.515L211.736 392.485C209.072 390.947 207.431 388.105 207.431 385.029V346.971C207.431 343.895 209.072 341.053 211.736 339.515L244.695 320.485Z" fill="#5578F8"/>
<path d="M253.09 320.858L286.049 339.887C288.58 341.348 290.139 344.049 290.139 346.971V385.029C290.139 387.951 288.58 390.652 286.049 392.113L253.09 411.142C250.559 412.603 247.441 412.603 244.91 411.142L211.951 392.113C209.42 390.652 207.861 387.951 207.861 385.029V346.971C207.861 344.049 209.42 341.348 211.951 339.887L244.91 320.858C247.441 319.397 250.559 319.397 253.09 320.858Z" stroke="#5578F8" stroke-opacity="0.5" stroke-width="0.860986"/>
<path d="M244.694 321.765C247.358 320.227 250.64 320.227 253.304 321.765L285.155 340.154C287.819 341.692 289.46 344.535 289.46 347.611V384.389C289.46 387.465 287.819 390.307 285.155 391.845L253.304 410.234C250.64 411.772 247.358 411.772 244.694 410.234L212.844 391.845C210.18 390.307 208.539 387.465 208.539 384.389V347.611C208.539 344.535 210.18 341.692 212.844 340.154L244.694 321.765Z" fill="white"/>
<path d="M253.089 322.138L284.94 340.527C287.471 341.988 289.03 344.688 289.03 347.611V384.389C289.03 387.311 287.471 390.011 284.94 391.472L253.089 409.862C250.558 411.323 247.44 411.323 244.91 409.862L213.059 391.472C210.528 390.011 208.969 387.311 208.969 384.389V347.611C208.969 344.688 210.528 341.988 213.059 340.527L244.91 322.138C247.44 320.677 250.558 320.677 253.089 322.138Z" stroke="#5578F8" stroke-opacity="0.5" stroke-width="0.860986"/>
<rect x="237.12" y="335.025" width="1.69612" height="7.76644" transform="rotate(90 237.12 335.025)" stroke="#4C84FF" stroke-width="0.178539"/>
<rect x="240.958" y="333.329" width="1.69612" height="7.76644" transform="rotate(90 240.958 333.329)" stroke="#4C84FF" stroke-width="0.178539"/>
<rect x="244.797" y="331.632" width="1.69612" height="7.76644" transform="rotate(90 244.797 331.632)" stroke="#4C84FF" stroke-width="0.178539"/>
<rect x="248.725" y="329.937" width="1.69612" height="7.76644" transform="rotate(90 248.725 329.937)" stroke="#4C84FF" stroke-width="0.178539"/>
<rect x="252.563" y="328.24" width="1.69612" height="7.76644" transform="rotate(90 252.563 328.24)" stroke="#4C84FF" stroke-width="0.178539"/>
<rect x="252.563" y="335.025" width="1.69612" height="7.76644" transform="rotate(90 252.563 335.025)" stroke="#4C84FF" stroke-width="0.178539"/>
<rect x="256.401" y="333.329" width="1.69612" height="7.76644" transform="rotate(90 256.401 333.329)" stroke="#4C84FF" stroke-width="0.178539"/>
<rect x="260.241" y="331.632" width="1.69612" height="7.76644" transform="rotate(90 260.241 331.632)" stroke="#4C84FF" stroke-width="0.178539"/>
<rect x="268.007" y="335.025" width="1.69612" height="7.67717" transform="rotate(90 268.007 335.025)" stroke="#4C84FF" stroke-width="0.178539"/>
<rect x="244.797" y="335.025" width="1.69612" height="7.67717" transform="rotate(90 244.797 335.025)" stroke="#4C84FF" stroke-width="0.178539"/>
<rect x="248.636" y="333.329" width="1.69612" height="7.67717" transform="rotate(90 248.636 333.329)" stroke="#4C84FF" stroke-width="0.178539"/>
<rect x="252.475" y="331.632" width="1.69612" height="7.67717" transform="rotate(90 252.475 331.632)" stroke="#4C84FF" stroke-width="0.178539"/>
<rect x="256.401" y="329.937" width="1.69612" height="7.67717" transform="rotate(90 256.401 329.937)" stroke="#4C84FF" stroke-width="0.178539"/>
<rect x="260.331" y="335.025" width="1.69612" height="7.76644" transform="rotate(90 260.331 335.025)" stroke="#4C84FF" stroke-width="0.178539"/>
<rect x="264.169" y="333.329" width="1.69612" height="7.76644" transform="rotate(90 264.169 333.329)" stroke="#4C84FF" stroke-width="0.178539"/>
<rect x="260.241" y="396.531" width="1.69612" height="7.76644" transform="rotate(-90 260.241 396.531)" stroke="#4C84FF" stroke-width="0.178539"/>
<rect x="256.403" y="398.228" width="1.69612" height="7.76644" transform="rotate(-90 256.403 398.228)" stroke="#4C84FF" stroke-width="0.178539"/>
<rect x="252.564" y="399.924" width="1.69612" height="7.76644" transform="rotate(-90 252.564 399.924)" stroke="#4C84FF" stroke-width="0.178539"/>
<rect x="248.637" y="401.62" width="1.69612" height="7.76644" transform="rotate(-90 248.637 401.62)" stroke="#4C84FF" stroke-width="0.178539"/>
<rect x="244.796" y="403.316" width="1.69612" height="7.76644" transform="rotate(-90 244.796 403.316)" stroke="#4C84FF" stroke-width="0.178539"/>
<rect x="244.796" y="396.531" width="1.69612" height="7.76644" transform="rotate(-90 244.796 396.531)" stroke="#4C84FF" stroke-width="0.178539"/>
<rect x="240.96" y="398.228" width="1.69612" height="7.76644" transform="rotate(-90 240.96 398.228)" stroke="#4C84FF" stroke-width="0.178539"/>
<rect x="237.12" y="399.924" width="1.69612" height="7.76644" transform="rotate(-90 237.12 399.924)" stroke="#4C84FF" stroke-width="0.178539"/>
<rect x="229.354" y="396.531" width="1.69612" height="7.67717" transform="rotate(-90 229.354 396.531)" stroke="#4C84FF" stroke-width="0.178539"/>
<rect x="252.564" y="396.531" width="1.69612" height="7.67717" transform="rotate(-90 252.564 396.531)" stroke="#4C84FF" stroke-width="0.178539"/>
<rect x="248.726" y="398.228" width="1.69612" height="7.67717" transform="rotate(-90 248.726 398.228)" stroke="#4C84FF" stroke-width="0.178539"/>
<rect x="244.887" y="399.924" width="1.69612" height="7.67717" transform="rotate(-90 244.887 399.924)" stroke="#4C84FF" stroke-width="0.178539"/>
<rect x="240.96" y="401.62" width="1.69612" height="7.67717" transform="rotate(-90 240.96 401.62)" stroke="#4C84FF" stroke-width="0.178539"/>
<rect x="237.03" y="396.531" width="1.69612" height="7.76644" transform="rotate(-90 237.03 396.531)" stroke="#4C84FF" stroke-width="0.178539"/>
<rect x="233.192" y="398.228" width="1.69612" height="7.76644" transform="rotate(-90 233.192 398.228)" stroke="#4C84FF" stroke-width="0.178539"/>
<rect x="261.446" y="344.263" width="23.1208" height="4.19566" rx="2.09783" stroke="#0057DA" stroke-width="0.0892694"/>
<rect x="237.166" y="344.263" width="23.0315" height="4.19566" rx="2.09783" stroke="#0057DA" stroke-width="0.0892694"/>
<rect x="226.992" y="339.888" width="43.093" height="2.73607" rx="1.36803" fill="#D4EDFF"/>
<rect x="226.992" y="372.721" width="43.093" height="2.73607" rx="1.36803" fill="#D4EDFF"/>
<rect x="234.518" y="352.885" width="28.0447" height="2.73607" rx="1.36803" fill="#D4EDFF"/>
<rect x="212.795" y="344.263" width="23.1208" height="4.19566" rx="2.09783" stroke="#0057DA" stroke-width="0.0892694"/>
<path d="M215.023 346.386H233.492" stroke="#949698" stroke-width="0.684017" stroke-linecap="round"/>
<path d="M215.023 379.561H233.492" stroke="#949698" stroke-width="0.684017" stroke-linecap="round"/>
<path d="M215.023 385.034H233.492" stroke="#949698" stroke-width="0.684017" stroke-linecap="round"/>
<path d="M239.306 346.386H257.774" stroke="#949698" stroke-width="0.684017" stroke-linecap="round"/>
<path d="M239.306 379.561H257.774" stroke="#949698" stroke-width="0.684017" stroke-linecap="round"/>
<path d="M239.306 385.034H257.774" stroke="#949698" stroke-width="0.684017" stroke-linecap="round"/>
<path d="M263.588 346.386H282.056" stroke="#949698" stroke-width="0.684017" stroke-linecap="round"/>
<path d="M263.588 379.561H282.056" stroke="#949698" stroke-width="0.684017" stroke-linecap="round"/>
<path d="M263.588 385.034H282.056" stroke="#949698" stroke-width="0.684017" stroke-linecap="round"/>
<path d="M252.302 359.725L282.398 359.725" stroke="#949698" stroke-width="0.684017" stroke-linecap="round"/>
<path d="M252.302 365.88L282.398 365.88" stroke="#949698" stroke-width="0.684017" stroke-linecap="round"/>
<path d="M215.364 359.725L245.461 359.725" stroke="#949698" stroke-width="0.684017" stroke-linecap="round"/>
<path d="M215.364 365.88L245.461 365.88" stroke="#949698" stroke-width="0.684017" stroke-linecap="round"/>
<rect x="249.306" y="357.717" width="35.2614" height="4.19566" rx="2.09783" stroke="#0057DA" stroke-width="0.0892694"/>
<rect x="212.795" y="357.717" width="35.2614" height="4.19566" rx="2.09783" stroke="#0057DA" stroke-width="0.0892694"/>
<rect x="249.306" y="363.874" width="35.2614" height="4.19566" rx="2.09783" stroke="#0057DA" stroke-width="0.0892694"/>
<rect x="212.795" y="363.874" width="35.2614" height="4.19566" rx="2.09783" stroke="#0057DA" stroke-width="0.0892694"/>
<rect x="261.446" y="377.205" width="23.1208" height="4.19566" rx="2.09783" stroke="#0057DA" stroke-width="0.0892694"/>
<rect x="237.166" y="377.205" width="23.0315" height="4.19566" rx="2.09783" stroke="#0057DA" stroke-width="0.0892694"/>
<rect x="212.795" y="377.205" width="23.1208" height="4.19566" rx="2.09783" stroke="#0057DA" stroke-width="0.0892694"/>
<rect x="261.446" y="382.918" width="23.1208" height="4.19566" rx="2.09783" stroke="#0057DA" stroke-width="0.0892694"/>
<rect x="237.166" y="382.918" width="23.0315" height="4.19566" rx="2.09783" stroke="#0057DA" stroke-width="0.0892694"/>
<rect x="212.795" y="382.918" width="23.1208" height="4.19566" rx="2.09783" stroke="#0057DA" stroke-width="0.0892694"/>
<path d="M393.695 320.485C396.359 318.947 399.641 318.947 402.305 320.485L435.264 339.515C437.928 341.053 439.569 343.895 439.569 346.971V385.029C439.569 388.105 437.928 390.947 435.264 392.485L402.305 411.515C399.641 413.053 396.359 413.053 393.695 411.515L360.736 392.485C358.072 390.947 356.431 388.105 356.431 385.029V346.971C356.431 343.895 358.072 341.053 360.736 339.515L393.695 320.485Z" fill="#5578F8"/>
<path d="M402.09 320.858L435.049 339.887C437.58 341.348 439.139 344.049 439.139 346.971V385.029C439.139 387.951 437.58 390.652 435.049 392.113L402.09 411.142C399.559 412.603 396.441 412.603 393.91 411.142L360.951 392.113C358.42 390.652 356.861 387.951 356.861 385.029V346.971C356.861 344.049 358.42 341.348 360.951 339.887L393.91 320.858C396.441 319.397 399.559 319.397 402.09 320.858Z" stroke="#5578F8" stroke-opacity="0.5" stroke-width="0.860986"/>
<path d="M393.694 321.765C396.358 320.227 399.64 320.227 402.304 321.765L434.155 340.154C436.819 341.692 438.46 344.535 438.46 347.611V384.389C438.46 387.465 436.819 390.307 434.155 391.845L402.304 410.234C399.64 411.772 396.358 411.772 393.694 410.234L361.844 391.845C359.18 390.307 357.539 387.465 357.539 384.389V347.611C357.539 344.535 359.18 341.692 361.844 340.154L393.694 321.765Z" fill="white"/>
<path d="M402.089 322.138L433.94 340.527C436.471 341.988 438.03 344.688 438.03 347.611V384.389C438.03 387.311 436.471 390.011 433.94 391.472L402.089 409.862C399.558 411.323 396.44 411.323 393.91 409.862L362.059 391.472C359.528 390.011 357.969 387.311 357.969 384.389V347.611C357.969 344.688 359.528 341.988 362.059 340.527L393.91 322.138C396.44 320.677 399.558 320.677 402.089 322.138Z" stroke="#5578F8" stroke-opacity="0.5" stroke-width="0.860986"/>
<rect x="386.12" y="335.025" width="1.69612" height="7.76644" transform="rotate(90 386.12 335.025)" stroke="#4C84FF" stroke-width="0.178539"/>
<rect x="389.958" y="333.329" width="1.69612" height="7.76644" transform="rotate(90 389.958 333.329)" stroke="#4C84FF" stroke-width="0.178539"/>
<rect x="393.797" y="331.632" width="1.69612" height="7.76644" transform="rotate(90 393.797 331.632)" stroke="#4C84FF" stroke-width="0.178539"/>
<rect x="397.725" y="329.937" width="1.69612" height="7.76644" transform="rotate(90 397.725 329.937)" stroke="#4C84FF" stroke-width="0.178539"/>
<rect x="401.563" y="328.24" width="1.69612" height="7.76644" transform="rotate(90 401.563 328.24)" stroke="#4C84FF" stroke-width="0.178539"/>
<rect x="401.563" y="335.025" width="1.69612" height="7.76644" transform="rotate(90 401.563 335.025)" stroke="#4C84FF" stroke-width="0.178539"/>
<rect x="405.401" y="333.329" width="1.69612" height="7.76644" transform="rotate(90 405.401 333.329)" stroke="#4C84FF" stroke-width="0.178539"/>
<rect x="409.241" y="331.632" width="1.69612" height="7.76644" transform="rotate(90 409.241 331.632)" stroke="#4C84FF" stroke-width="0.178539"/>
<rect x="417.007" y="335.025" width="1.69612" height="7.67717" transform="rotate(90 417.007 335.025)" stroke="#4C84FF" stroke-width="0.178539"/>
<rect x="393.797" y="335.025" width="1.69612" height="7.67717" transform="rotate(90 393.797 335.025)" stroke="#4C84FF" stroke-width="0.178539"/>
<rect x="397.636" y="333.329" width="1.69612" height="7.67717" transform="rotate(90 397.636 333.329)" stroke="#4C84FF" stroke-width="0.178539"/>
<rect x="401.475" y="331.632" width="1.69612" height="7.67717" transform="rotate(90 401.475 331.632)" stroke="#4C84FF" stroke-width="0.178539"/>
<rect x="405.401" y="329.937" width="1.69612" height="7.67717" transform="rotate(90 405.401 329.937)" stroke="#4C84FF" stroke-width="0.178539"/>
<rect x="409.331" y="335.025" width="1.69612" height="7.76644" transform="rotate(90 409.331 335.025)" stroke="#4C84FF" stroke-width="0.178539"/>
<rect x="413.169" y="333.329" width="1.69612" height="7.76644" transform="rotate(90 413.169 333.329)" stroke="#4C84FF" stroke-width="0.178539"/>
<rect x="409.241" y="396.531" width="1.69612" height="7.76644" transform="rotate(-90 409.241 396.531)" stroke="#4C84FF" stroke-width="0.178539"/>
<rect x="405.403" y="398.228" width="1.69612" height="7.76644" transform="rotate(-90 405.403 398.228)" stroke="#4C84FF" stroke-width="0.178539"/>
<rect x="401.564" y="399.924" width="1.69612" height="7.76644" transform="rotate(-90 401.564 399.924)" stroke="#4C84FF" stroke-width="0.178539"/>
<rect x="397.637" y="401.62" width="1.69612" height="7.76644" transform="rotate(-90 397.637 401.62)" stroke="#4C84FF" stroke-width="0.178539"/>
<rect x="393.796" y="403.316" width="1.69612" height="7.76644" transform="rotate(-90 393.796 403.316)" stroke="#4C84FF" stroke-width="0.178539"/>
<rect x="393.796" y="396.531" width="1.69612" height="7.76644" transform="rotate(-90 393.796 396.531)" stroke="#4C84FF" stroke-width="0.178539"/>
<rect x="389.96" y="398.228" width="1.69612" height="7.76644" transform="rotate(-90 389.96 398.228)" stroke="#4C84FF" stroke-width="0.178539"/>
<rect x="386.12" y="399.924" width="1.69612" height="7.76644" transform="rotate(-90 386.12 399.924)" stroke="#4C84FF" stroke-width="0.178539"/>
<rect x="378.354" y="396.531" width="1.69612" height="7.67717" transform="rotate(-90 378.354 396.531)" stroke="#4C84FF" stroke-width="0.178539"/>
<rect x="401.564" y="396.531" width="1.69612" height="7.67717" transform="rotate(-90 401.564 396.531)" stroke="#4C84FF" stroke-width="0.178539"/>
<rect x="397.726" y="398.228" width="1.69612" height="7.67717" transform="rotate(-90 397.726 398.228)" stroke="#4C84FF" stroke-width="0.178539"/>
<rect x="393.887" y="399.924" width="1.69612" height="7.67717" transform="rotate(-90 393.887 399.924)" stroke="#4C84FF" stroke-width="0.178539"/>
<rect x="389.96" y="401.62" width="1.69612" height="7.67717" transform="rotate(-90 389.96 401.62)" stroke="#4C84FF" stroke-width="0.178539"/>
<rect x="386.03" y="396.531" width="1.69612" height="7.76644" transform="rotate(-90 386.03 396.531)" stroke="#4C84FF" stroke-width="0.178539"/>
<rect x="382.192" y="398.228" width="1.69612" height="7.76644" transform="rotate(-90 382.192 398.228)" stroke="#4C84FF" stroke-width="0.178539"/>
<rect x="410.446" y="344.263" width="23.1208" height="4.19566" rx="2.09783" stroke="#0057DA" stroke-width="0.0892694"/>
<rect x="386.166" y="344.263" width="23.0315" height="4.19566" rx="2.09783" stroke="#0057DA" stroke-width="0.0892694"/>
<rect x="375.992" y="339.888" width="43.093" height="2.73607" rx="1.36803" fill="#D4EDFF"/>
<rect x="375.992" y="372.721" width="43.093" height="2.73607" rx="1.36803" fill="#D4EDFF"/>
<rect x="383.518" y="352.885" width="28.0447" height="2.73607" rx="1.36803" fill="#D4EDFF"/>
<rect x="361.795" y="344.263" width="23.1208" height="4.19566" rx="2.09783" stroke="#0057DA" stroke-width="0.0892694"/>
<path d="M364.023 346.386H382.492" stroke="#949698" stroke-width="0.684017" stroke-linecap="round"/>
<path d="M364.023 379.561H382.492" stroke="#949698" stroke-width="0.684017" stroke-linecap="round"/>
<path d="M364.023 385.034H382.492" stroke="#949698" stroke-width="0.684017" stroke-linecap="round"/>
<path d="M388.306 346.386H406.774" stroke="#949698" stroke-width="0.684017" stroke-linecap="round"/>
<path d="M388.306 379.561H406.774" stroke="#949698" stroke-width="0.684017" stroke-linecap="round"/>
<path d="M388.306 385.034H406.774" stroke="#949698" stroke-width="0.684017" stroke-linecap="round"/>
<path d="M412.588 346.386H431.056" stroke="#949698" stroke-width="0.684017" stroke-linecap="round"/>
<path d="M412.588 379.561H431.056" stroke="#949698" stroke-width="0.684017" stroke-linecap="round"/>
<path d="M412.588 385.034H431.056" stroke="#949698" stroke-width="0.684017" stroke-linecap="round"/>
<path d="M401.302 359.725L431.398 359.725" stroke="#949698" stroke-width="0.684017" stroke-linecap="round"/>
<path d="M401.302 365.88L431.398 365.88" stroke="#949698" stroke-width="0.684017" stroke-linecap="round"/>
<path d="M364.364 359.725L394.461 359.725" stroke="#949698" stroke-width="0.684017" stroke-linecap="round"/>
<path d="M364.364 365.88L394.461 365.88" stroke="#949698" stroke-width="0.684017" stroke-linecap="round"/>
<rect x="398.306" y="357.717" width="35.2614" height="4.19566" rx="2.09783" stroke="#0057DA" stroke-width="0.0892694"/>
<rect x="361.795" y="357.717" width="35.2614" height="4.19566" rx="2.09783" stroke="#0057DA" stroke-width="0.0892694"/>
<rect x="398.306" y="363.874" width="35.2614" height="4.19566" rx="2.09783" stroke="#0057DA" stroke-width="0.0892694"/>
<rect x="361.795" y="363.874" width="35.2614" height="4.19566" rx="2.09783" stroke="#0057DA" stroke-width="0.0892694"/>
<rect x="410.446" y="377.205" width="23.1208" height="4.19566" rx="2.09783" stroke="#0057DA" stroke-width="0.0892694"/>
<rect x="386.166" y="377.205" width="23.0315" height="4.19566" rx="2.09783" stroke="#0057DA" stroke-width="0.0892694"/>
<rect x="361.795" y="377.205" width="23.1208" height="4.19566" rx="2.09783" stroke="#0057DA" stroke-width="0.0892694"/>
<rect x="410.446" y="382.918" width="23.1208" height="4.19566" rx="2.09783" stroke="#0057DA" stroke-width="0.0892694"/>
<rect x="386.166" y="382.918" width="23.0315" height="4.19566" rx="2.09783" stroke="#0057DA" stroke-width="0.0892694"/>
<rect x="361.795" y="382.918" width="23.1208" height="4.19566" rx="2.09783" stroke="#0057DA" stroke-width="0.0892694"/>
<path d="M542.695 320.485C545.359 318.947 548.641 318.947 551.305 320.485L584.264 339.515C586.928 341.053 588.569 343.895 588.569 346.971V385.029C588.569 388.105 586.928 390.947 584.264 392.485L551.305 411.515C548.641 413.053 545.359 413.053 542.695 411.515L509.736 392.485C507.072 390.947 505.431 388.105 505.431 385.029V346.971C505.431 343.895 507.072 341.053 509.736 339.515L542.695 320.485Z" fill="#5578F8"/>
<path d="M551.09 320.858L584.049 339.887C586.58 341.348 588.139 344.049 588.139 346.971V385.029C588.139 387.951 586.58 390.652 584.049 392.113L551.09 411.142C548.559 412.603 545.441 412.603 542.91 411.142L509.951 392.113C507.42 390.652 505.861 387.951 505.861 385.029V346.971C505.861 344.049 507.42 341.348 509.951 339.887L542.91 320.858C545.441 319.397 548.559 319.397 551.09 320.858Z" stroke="#5578F8" stroke-opacity="0.5" stroke-width="0.860986"/>
<path d="M542.694 321.765C545.358 320.227 548.64 320.227 551.304 321.765L583.155 340.154C585.819 341.692 587.46 344.535 587.46 347.611V384.389C587.46 387.465 585.819 390.307 583.155 391.845L551.304 410.234C548.64 411.772 545.358 411.772 542.694 410.234L510.844 391.845C508.18 390.307 506.539 387.465 506.539 384.389V347.611C506.539 344.535 508.18 341.692 510.844 340.154L542.694 321.765Z" fill="white"/>
<path d="M551.089 322.138L582.94 340.527C585.471 341.988 587.03 344.688 587.03 347.611V384.389C587.03 387.311 585.471 390.011 582.94 391.472L551.089 409.862C548.558 411.323 545.44 411.323 542.91 409.862L511.059 391.472C508.528 390.011 506.969 387.311 506.969 384.389V347.611C506.969 344.688 508.528 341.988 511.059 340.527L542.91 322.138C545.44 320.677 548.558 320.677 551.089 322.138Z" stroke="#5578F8" stroke-opacity="0.5" stroke-width="0.860986"/>
<rect x="535.12" y="335.025" width="1.69612" height="7.76644" transform="rotate(90 535.12 335.025)" stroke="#4C84FF" stroke-width="0.178539"/>
<rect x="538.958" y="333.329" width="1.69612" height="7.76644" transform="rotate(90 538.958 333.329)" stroke="#4C84FF" stroke-width="0.178539"/>
<rect x="542.797" y="331.632" width="1.69612" height="7.76644" transform="rotate(90 542.797 331.632)" stroke="#4C84FF" stroke-width="0.178539"/>
<rect x="546.725" y="329.937" width="1.69612" height="7.76644" transform="rotate(90 546.725 329.937)" stroke="#4C84FF" stroke-width="0.178539"/>
<rect x="550.563" y="328.24" width="1.69612" height="7.76644" transform="rotate(90 550.563 328.24)" stroke="#4C84FF" stroke-width="0.178539"/>
<rect x="550.563" y="335.025" width="1.69612" height="7.76644" transform="rotate(90 550.563 335.025)" stroke="#4C84FF" stroke-width="0.178539"/>
<rect x="554.401" y="333.329" width="1.69612" height="7.76644" transform="rotate(90 554.401 333.329)" stroke="#4C84FF" stroke-width="0.178539"/>
<rect x="558.241" y="331.632" width="1.69612" height="7.76644" transform="rotate(90 558.241 331.632)" stroke="#4C84FF" stroke-width="0.178539"/>
<rect x="566.007" y="335.025" width="1.69612" height="7.67717" transform="rotate(90 566.007 335.025)" stroke="#4C84FF" stroke-width="0.178539"/>
<rect x="542.797" y="335.025" width="1.69612" height="7.67717" transform="rotate(90 542.797 335.025)" stroke="#4C84FF" stroke-width="0.178539"/>
<rect x="546.636" y="333.329" width="1.69612" height="7.67717" transform="rotate(90 546.636 333.329)" stroke="#4C84FF" stroke-width="0.178539"/>
<rect x="550.475" y="331.632" width="1.69612" height="7.67717" transform="rotate(90 550.475 331.632)" stroke="#4C84FF" stroke-width="0.178539"/>
<rect x="554.401" y="329.937" width="1.69612" height="7.67717" transform="rotate(90 554.401 329.937)" stroke="#4C84FF" stroke-width="0.178539"/>
<rect x="558.331" y="335.025" width="1.69612" height="7.76644" transform="rotate(90 558.331 335.025)" stroke="#4C84FF" stroke-width="0.178539"/>
<rect x="562.169" y="333.329" width="1.69612" height="7.76644" transform="rotate(90 562.169 333.329)" stroke="#4C84FF" stroke-width="0.178539"/>
<rect x="558.241" y="396.531" width="1.69612" height="7.76644" transform="rotate(-90 558.241 396.531)" stroke="#4C84FF" stroke-width="0.178539"/>
<rect x="554.403" y="398.228" width="1.69612" height="7.76644" transform="rotate(-90 554.403 398.228)" stroke="#4C84FF" stroke-width="0.178539"/>
<rect x="550.564" y="399.924" width="1.69612" height="7.76644" transform="rotate(-90 550.564 399.924)" stroke="#4C84FF" stroke-width="0.178539"/>
<rect x="546.637" y="401.62" width="1.69612" height="7.76644" transform="rotate(-90 546.637 401.62)" stroke="#4C84FF" stroke-width="0.178539"/>
<rect x="542.796" y="403.316" width="1.69612" height="7.76644" transform="rotate(-90 542.796 403.316)" stroke="#4C84FF" stroke-width="0.178539"/>
<rect x="542.796" y="396.531" width="1.69612" height="7.76644" transform="rotate(-90 542.796 396.531)" stroke="#4C84FF" stroke-width="0.178539"/>
<rect x="538.96" y="398.228" width="1.69612" height="7.76644" transform="rotate(-90 538.96 398.228)" stroke="#4C84FF" stroke-width="0.178539"/>
<rect x="535.12" y="399.924" width="1.69612" height="7.76644" transform="rotate(-90 535.12 399.924)" stroke="#4C84FF" stroke-width="0.178539"/>
<rect x="527.354" y="396.531" width="1.69612" height="7.67717" transform="rotate(-90 527.354 396.531)" stroke="#4C84FF" stroke-width="0.178539"/>
<rect x="550.564" y="396.531" width="1.69612" height="7.67717" transform="rotate(-90 550.564 396.531)" stroke="#4C84FF" stroke-width="0.178539"/>
<rect x="546.726" y="398.228" width="1.69612" height="7.67717" transform="rotate(-90 546.726 398.228)" stroke="#4C84FF" stroke-width="0.178539"/>
<rect x="542.887" y="399.924" width="1.69612" height="7.67717" transform="rotate(-90 542.887 399.924)" stroke="#4C84FF" stroke-width="0.178539"/>
<rect x="538.96" y="401.62" width="1.69612" height="7.67717" transform="rotate(-90 538.96 401.62)" stroke="#4C84FF" stroke-width="0.178539"/>
<rect x="535.03" y="396.531" width="1.69612" height="7.76644" transform="rotate(-90 535.03 396.531)" stroke="#4C84FF" stroke-width="0.178539"/>
<rect x="531.192" y="398.228" width="1.69612" height="7.76644" transform="rotate(-90 531.192 398.228)" stroke="#4C84FF" stroke-width="0.178539"/>
<rect x="559.446" y="344.263" width="23.1208" height="4.19566" rx="2.09783" stroke="#0057DA" stroke-width="0.0892694"/>
<rect x="535.166" y="344.263" width="23.0315" height="4.19566" rx="2.09783" stroke="#0057DA" stroke-width="0.0892694"/>
<rect x="524.992" y="339.888" width="43.093" height="2.73607" rx="1.36803" fill="#D4EDFF"/>
<rect x="524.992" y="372.721" width="43.093" height="2.73607" rx="1.36803" fill="#D4EDFF"/>
<rect x="532.518" y="352.885" width="28.0447" height="2.73607" rx="1.36803" fill="#D4EDFF"/>
<rect x="510.795" y="344.263" width="23.1208" height="4.19566" rx="2.09783" stroke="#0057DA" stroke-width="0.0892694"/>
<path d="M513.023 346.386H531.492" stroke="#949698" stroke-width="0.684017" stroke-linecap="round"/>
<path d="M513.023 379.561H531.492" stroke="#949698" stroke-width="0.684017" stroke-linecap="round"/>
<path d="M513.023 385.034H531.492" stroke="#949698" stroke-width="0.684017" stroke-linecap="round"/>
<path d="M537.306 346.386H555.774" stroke="#949698" stroke-width="0.684017" stroke-linecap="round"/>
<path d="M537.306 379.561H555.774" stroke="#949698" stroke-width="0.684017" stroke-linecap="round"/>
<path d="M537.306 385.034H555.774" stroke="#949698" stroke-width="0.684017" stroke-linecap="round"/>
<path d="M561.588 346.386H580.056" stroke="#949698" stroke-width="0.684017" stroke-linecap="round"/>
<path d="M561.588 379.561H580.056" stroke="#949698" stroke-width="0.684017" stroke-linecap="round"/>
<path d="M561.588 385.034H580.056" stroke="#949698" stroke-width="0.684017" stroke-linecap="round"/>
<path d="M550.302 359.725L580.398 359.725" stroke="#949698" stroke-width="0.684017" stroke-linecap="round"/>
<path d="M550.302 365.88L580.398 365.88" stroke="#949698" stroke-width="0.684017" stroke-linecap="round"/>
<path d="M513.364 359.725L543.461 359.725" stroke="#949698" stroke-width="0.684017" stroke-linecap="round"/>
<path d="M513.364 365.88L543.461 365.88" stroke="#949698" stroke-width="0.684017" stroke-linecap="round"/>
<rect x="547.306" y="357.717" width="35.2614" height="4.19566" rx="2.09783" stroke="#0057DA" stroke-width="0.0892694"/>
<rect x="510.795" y="357.717" width="35.2614" height="4.19566" rx="2.09783" stroke="#0057DA" stroke-width="0.0892694"/>
<rect x="547.306" y="363.874" width="35.2614" height="4.19566" rx="2.09783" stroke="#0057DA" stroke-width="0.0892694"/>
<rect x="510.795" y="363.874" width="35.2614" height="4.19566" rx="2.09783" stroke="#0057DA" stroke-width="0.0892694"/>
<rect x="559.446" y="377.205" width="23.1208" height="4.19566" rx="2.09783" stroke="#0057DA" stroke-width="0.0892694"/>
<rect x="535.166" y="377.205" width="23.0315" height="4.19566" rx="2.09783" stroke="#0057DA" stroke-width="0.0892694"/>
<rect x="510.795" y="377.205" width="23.1208" height="4.19566" rx="2.09783" stroke="#0057DA" stroke-width="0.0892694"/>
<rect x="559.446" y="382.918" width="23.1208" height="4.19566" rx="2.09783" stroke="#0057DA" stroke-width="0.0892694"/>
<rect x="535.166" y="382.918" width="23.0315" height="4.19566" rx="2.09783" stroke="#0057DA" stroke-width="0.0892694"/>
<rect x="510.795" y="382.918" width="23.1208" height="4.19566" rx="2.09783" stroke="#0057DA" stroke-width="0.0892694"/>
<path d="M324 132L324 170" stroke="#949698" stroke-linecap="round" stroke-dasharray="2 3"/>
<path d="M324 170V166.454C324 157.617 331.163 150.454 340 150.454H509C517.837 150.454 525 143.29 525 134.454V131" stroke="#949698" stroke-linecap="round" stroke-dasharray="2 3"/>
<path d="M324 171V166.952C324 158.116 316.837 150.952 308 150.952H139C130.163 150.952 123 143.789 123 134.952V131" stroke="#73FCC2"/>
<rect x="1" y="1" width="646" height="448" rx="31" stroke="#5578F8" stroke-opacity="0.5" stroke-width="2"/>
<defs>
<filter id="filter0_d_910_9136" x="139.942" y="156" width="367.642" height="139" filterUnits="userSpaceOnUse" color-interpolation-filters="sRGB">
<feFlood flood-opacity="0" result="BackgroundImageFix"/>
<feColorMatrix in="SourceAlpha" type="matrix" values="0 0 0 0 0 0 0 0 0 0 0 0 0 0 0 0 0 0 127 0" result="hardAlpha"/>
<feOffset/>
<feGaussianBlur stdDeviation="7.5"/>
<feComposite in2="hardAlpha" operator="out"/>
<feColorMatrix type="matrix" values="0 0 0 0 0.197708 0 0 0 0 0.387559 0 0 0 0 0.65 0 0 0 0.5 0"/>
<feBlend mode="normal" in2="BackgroundImageFix" result="effect1_dropShadow_910_9136"/>
<feBlend mode="normal" in="SourceGraphic" in2="effect1_dropShadow_910_9136" result="shape"/>
</filter>
<linearGradient id="paint0_linear_910_9136" x1="44.438" y1="29.0946" x2="140.826" y2="172.388" gradientUnits="userSpaceOnUse">
<stop offset="0.24238" stop-color="#73FCC2"/>
<stop offset="0.887892" stop-color="#007E3A"/>
</linearGradient>
<linearGradient id="paint1_linear_910_9136" x1="260.579" y1="47.248" x2="356.027" y2="183.742" gradientUnits="userSpaceOnUse">
<stop stop-color="#FC9E9E"/>
<stop offset="0.208333" stop-color="#F74631"/>
<stop offset="0.857227" stop-color="#FFC5A4"/>
</linearGradient>
<linearGradient id="paint2_linear_910_9136" x1="460.268" y1="47.248" x2="555.393" y2="184.613" gradientUnits="userSpaceOnUse">
<stop stop-color="#FC9E9E"/>
<stop offset="0.208333" stop-color="#F74631"/>
<stop offset="0.857227" stop-color="#FFC5A4"/>
</linearGradient>
<clipPath id="clip0_910_9136">
<rect width="81.434" height="338.159" fill="white" transform="translate(155.309 266.054) rotate(-90)"/>
</clipPath>
</defs>
</svg>
