<svg width="648" height="450" viewBox="0 0 648 450" fill="none" xmlns="http://www.w3.org/2000/svg">
<g clip-path="url(#clip0_473_3318)">
<rect width="648" height="450" rx="32" fill="white"/>
<rect x="324" width="324" height="450" fill="white"/>
<rect opacity="0.2" x="324" width="324" height="450" fill="#C7FFE7"/>
<rect width="324" height="450" fill="#36BEFF" fill-opacity="0.1"/>
<rect x="62" y="155.5" width="200" height="140" rx="20" fill="white"/>
<rect x="62" y="155.5" width="200" height="140" rx="20" fill="white" fill-opacity="0.1"/>
<rect x="62.5" y="156" width="199" height="139" rx="19.5" stroke="#020202" stroke-opacity="0.4"/>
<g filter="url(#filter0_d_473_3318)">
<rect x="72" y="165" width="180" height="120" rx="16" fill="#C7FFE7" fill-opacity="0.5" shape-rendering="crispEdges"/>
<path d="M99.4846 202.888C99.4846 205.288 98.0446 207.496 93.8526 207.496V211.336C95.4206 211.336 97.2766 211.336 98.5246 210.056V225H103.965V202.888H99.4846ZM116.837 225.512C123.461 225.512 126.533 220.232 126.533 213.96C126.533 207.688 123.461 202.376 116.837 202.376C110.213 202.376 107.109 207.688 107.109 213.96C107.109 220.232 110.213 225.512 116.837 225.512ZM116.837 221.128C113.605 221.128 112.549 218.344 112.549 213.96C112.549 209.576 113.605 206.76 116.837 206.76C120.069 206.76 121.093 209.576 121.093 213.96C121.093 218.344 120.069 221.128 116.837 221.128ZM134.924 225H140.364V210.76H140.428L144.684 225H148.716L152.972 210.76H153.036V225H158.476V202.12H151.436L146.732 216.712H146.668L141.964 202.12H134.924V225ZM175.091 220.232L176.563 225H182.323L174.067 202.12H168.307L160.019 225H165.779L167.251 220.232H175.091ZM168.563 215.848L171.155 207.4H171.219L173.811 215.848H168.563ZM187.008 225H192.768V206.824H199.392V202.12H180.352V206.824H187.008V225ZM201.853 202.12V225H207.613V202.12H201.853ZM225.763 210.632H231.523C230.979 205.32 227.651 201.608 221.411 201.608C214.179 201.608 210.307 206.664 210.307 213.544C210.307 220.456 214.179 225.512 221.411 225.512C227.683 225.512 231.011 221.8 231.523 216.424H225.763C225.379 218.984 224.227 220.808 221.155 220.808C217.347 220.808 216.067 217.864 216.067 213.544C216.067 209.256 217.347 206.312 221.155 206.312C224.195 206.312 225.347 208.136 225.763 210.632Z" fill="url(#paint0_linear_473_3318)"/>
<g style="mix-blend-mode:multiply">
<path d="M130.706 253H133.086V246.77H133.114L134.976 253H136.74L138.602 246.77H138.63V253H141.01V242.99H137.93L135.872 249.374H135.844L133.786 242.99H130.706V253ZM148.559 250.914L149.203 253H151.723L148.111 242.99H145.591L141.965 253H144.485L145.129 250.914H148.559ZM145.703 248.996L146.837 245.3H146.865L147.999 248.996H145.703ZM155.658 247.89L152.34 253H155.14L157.114 249.752H157.142L159.13 253H161.93L158.612 247.862L161.65 242.99H158.99L157.142 246.042H157.114L155.28 242.99H152.62L155.658 247.89ZM172.322 246.308H174.842C174.604 244.39 173.078 242.766 170.334 242.766C167.184 242.766 165.49 244.978 165.49 247.988C165.49 251.012 167.184 253.224 170.026 253.224C171.496 253.224 172.434 252.636 172.91 251.726H172.938L173.19 253H174.996V247.68H170.488V249.5H172.392C172.364 250.466 171.552 251.166 170.39 251.166C168.64 251.166 168.01 249.878 168.01 247.988C168.01 246.112 168.64 244.824 170.292 244.824C171.678 244.824 172.14 245.622 172.322 246.308ZM182.519 250.914L183.163 253H185.683L182.071 242.99H179.551L175.925 253H178.445L179.089 250.914H182.519ZM179.663 248.996L180.797 245.3H180.825L181.959 248.996H179.663ZM190.815 246.784C189.555 246.434 188.925 246.238 188.925 245.622C188.925 245.062 189.513 244.824 190.269 244.824C191.235 244.824 191.879 245.272 191.991 246.028H194.511C194.441 243.998 192.607 242.766 190.269 242.766C188.113 242.766 186.405 243.62 186.405 245.804C186.405 247.652 187.917 248.394 189.639 248.898C191.053 249.318 192.131 249.5 192.131 250.298C192.131 250.802 191.627 251.166 190.689 251.166C189.569 251.166 188.645 250.774 188.645 249.71H186.125C186.125 251.936 188.085 253.224 190.689 253.224C193.195 253.224 194.651 251.978 194.651 250.06C194.651 247.918 192.705 247.302 190.815 246.784Z" fill="#4E4E4E"/>
</g>
<rect x="72.5" y="165.5" width="179" height="119" rx="15.5" stroke="#020202" shape-rendering="crispEdges"/>
</g>
<g filter="url(#filter1_d_473_3318)">
<rect x="365" y="40" width="242" height="370" rx="30" fill="white" shape-rendering="crispEdges"/>
<path d="M405.378 104.416V104.32C405.474 99.568 407.154 96.16 411.282 96.16C414.306 96.16 415.362 98.08 415.602 99.232H423.762C422.706 93.904 417.858 90.064 411.426 90.064C402.93 90.064 397.218 95.872 397.218 107.872C397.218 116.512 400.77 124.768 411.714 124.768C419.682 124.768 424.722 119.968 424.722 112.624C424.722 106.288 420.162 101.392 413.298 101.392C409.506 101.392 407.154 102.736 405.378 104.416ZM411.234 118.672C407.634 118.672 405.378 116.272 405.378 113.056C405.378 109.888 407.634 107.488 411.234 107.488C414.786 107.488 417.042 109.888 417.042 113.056C417.042 116.272 414.786 118.672 411.234 118.672ZM435.238 124H443.398V102.64H443.494L449.878 124H455.926L462.31 102.64H462.406V124H470.566V89.68H460.006L452.95 111.568H452.854L445.798 89.68H435.238V124ZM494.529 116.848L496.737 124H505.377L492.993 89.68H484.353L471.921 124H480.561L482.769 116.848H494.529ZM484.737 110.272L488.625 97.6H488.721L492.609 110.272H484.737ZM511.445 124H520.085V96.736H530.021V89.68H501.461V96.736H511.445V124ZM532.753 89.68V124H541.393V89.68H532.753ZM567.657 102.448H576.297C575.481 94.48 570.489 88.912 561.129 88.912C550.281 88.912 544.473 96.496 544.473 106.816C544.473 117.184 550.281 124.768 561.129 124.768C570.537 124.768 575.529 119.2 576.297 111.136H567.657C567.081 114.976 565.353 117.712 560.745 117.712C555.033 117.712 553.113 113.296 553.113 106.816C553.113 100.384 555.033 95.968 560.745 95.968C565.305 95.968 567.033 98.704 567.657 102.448Z" fill="url(#paint1_linear_473_3318)"/>
<path d="M464.14 143.494L465.022 146H466.324L462.642 135.99H461.242L457.546 146H458.848L459.73 143.494H464.14ZM460.15 142.374L461.928 137.152H461.956L463.734 142.374H460.15ZM469.993 139.84V138.86H468.593V136.48H467.473V138.86H466.423V139.84H467.473V144.25C467.473 145.706 468.201 146.084 469.153 146.084C469.447 146.084 469.741 146.056 469.993 146V145.02C469.041 145.09 468.593 144.95 468.593 144.138V139.84H469.993ZM474.067 139.84V138.86H472.667V136.48H471.547V138.86H470.497V139.84H471.547V144.25C471.547 145.706 472.275 146.084 473.227 146.084C473.521 146.084 473.815 146.056 474.067 146V145.02C473.115 145.09 472.667 144.95 472.667 144.138V139.84H474.067ZM478.208 145.216C476.654 145.216 475.884 144.012 475.884 142.724H481.526C481.526 140.19 480.434 138.664 478.194 138.664C476.108 138.664 474.764 140.05 474.764 142.43C474.764 144.67 476.08 146.196 478.25 146.196C480.028 146.196 481.05 145.132 481.414 143.802H480.294C480.168 144.292 479.636 145.216 478.208 145.216ZM478.194 139.644C479.538 139.644 480.406 140.596 480.406 141.744H475.884C475.884 140.596 476.85 139.644 478.194 139.644ZM490.097 138.664C489.019 138.664 488.277 139.224 487.787 139.896H487.759C487.465 139.098 486.877 138.664 485.855 138.664C484.777 138.664 484.161 139.21 483.783 139.714H483.755V138.86H482.635V146H483.755V141.548C483.755 140.442 484.455 139.644 485.575 139.644C486.695 139.644 486.877 140.372 486.877 141.296V146H487.997V141.548C487.997 140.442 488.697 139.644 489.817 139.644C490.937 139.644 491.119 140.372 491.119 141.296V146H492.239V141.016C492.239 139.518 491.539 138.664 490.097 138.664ZM497.153 138.664C495.977 138.664 495.305 139.196 494.885 139.742H494.857V138.86H493.737V148.408H494.857V145.076H494.885C495.305 145.692 495.977 146.196 497.153 146.196C498.917 146.196 500.345 144.782 500.345 142.43C500.345 140.078 498.917 138.664 497.153 138.664ZM497.013 145.216C495.683 145.216 494.857 144.11 494.857 142.43C494.857 140.75 495.683 139.644 497.013 139.644C498.483 139.644 499.225 141.03 499.225 142.43C499.225 143.83 498.483 145.216 497.013 145.216ZM504.419 139.84V138.86H503.019V136.48H501.899V138.86H500.849V139.84H501.899V144.25C501.899 145.706 502.627 146.084 503.579 146.084C503.873 146.084 504.167 146.056 504.419 146V145.02C503.467 145.09 503.019 144.95 503.019 144.138V139.84H504.419ZM509.387 139.224C509.387 138.272 509.793 137.25 511.683 137.25C512.999 137.25 513.531 138.02 513.531 138.804C513.531 139.924 512.775 140.386 511.781 140.386H510.801V141.506H511.837C512.775 141.506 513.881 141.772 513.881 143.284C513.881 144.446 513.279 145.076 511.613 145.076C509.779 145.076 509.135 144.124 509.135 142.724H507.875C507.875 144.908 509.247 146.196 511.711 146.196C513.783 146.196 515.141 145.188 515.141 143.284C515.141 142.15 514.679 141.268 513.307 140.89V140.862C514.287 140.47 514.791 139.826 514.791 138.804C514.791 137.096 513.335 136.13 511.683 136.13C509.289 136.13 508.127 137.446 508.127 139.224H509.387Z" fill="#4E4E4E"/>
<path d="M413.241 217.488C410.217 217.488 407.961 218.4 406.137 219.84V219.744L407.385 213.408H422.793V206.832H401.817L397.977 225.504H405.657C407.001 223.824 408.921 223.104 410.697 223.104C414.201 223.104 416.073 225.168 416.073 228.672C416.073 232.32 413.913 234.192 410.841 234.192C407.385 234.192 405.417 232.128 405.177 229.728H397.017C397.257 236.256 402.057 240.768 411.321 240.768C418.665 240.768 424.233 236.736 424.233 228.768C424.233 221.664 419.817 217.488 413.241 217.488ZM434.863 240H443.023V218.64H443.119L449.503 240H455.551L461.935 218.64H462.031V240H470.191V205.68H459.631L452.575 227.568H452.479L445.423 205.68H434.863V240ZM494.154 232.848L496.362 240H505.002L492.618 205.68H483.978L471.546 240H480.186L482.394 232.848H494.154ZM484.362 226.272L488.25 213.6H488.346L492.234 226.272H484.362ZM511.07 240H519.71V212.736H529.646V205.68H501.086V212.736H511.07V240ZM532.378 205.68V240H541.018V205.68H532.378ZM567.282 218.448H575.922C575.106 210.48 570.114 204.912 560.754 204.912C549.906 204.912 544.098 212.496 544.098 222.816C544.098 233.184 549.906 240.768 560.754 240.768C570.162 240.768 575.154 235.2 575.922 227.136H567.282C566.706 230.976 564.978 233.712 560.37 233.712C554.658 233.712 552.738 229.296 552.738 222.816C552.738 216.384 554.658 211.968 560.37 211.968C564.93 211.968 566.658 214.704 567.282 218.448Z" fill="url(#paint2_linear_473_3318)"/>
<path d="M464.236 259.494L465.118 262H466.42L462.738 251.99H461.338L457.642 262H458.944L459.826 259.494H464.236ZM460.246 258.374L462.024 253.152H462.052L463.83 258.374H460.246ZM470.089 255.84V254.86H468.689V252.48H467.569V254.86H466.519V255.84H467.569V260.25C467.569 261.706 468.297 262.084 469.249 262.084C469.543 262.084 469.837 262.056 470.089 262V261.02C469.137 261.09 468.689 260.95 468.689 260.138V255.84H470.089ZM474.163 255.84V254.86H472.763V252.48H471.643V254.86H470.593V255.84H471.643V260.25C471.643 261.706 472.371 262.084 473.323 262.084C473.617 262.084 473.911 262.056 474.163 262V261.02C473.211 261.09 472.763 260.95 472.763 260.138V255.84H474.163ZM478.304 261.216C476.75 261.216 475.98 260.012 475.98 258.724H481.622C481.622 256.19 480.53 254.664 478.29 254.664C476.204 254.664 474.86 256.05 474.86 258.43C474.86 260.67 476.176 262.196 478.346 262.196C480.124 262.196 481.146 261.132 481.51 259.802H480.39C480.264 260.292 479.732 261.216 478.304 261.216ZM478.29 255.644C479.634 255.644 480.502 256.596 480.502 257.744H475.98C475.98 256.596 476.946 255.644 478.29 255.644ZM490.193 254.664C489.115 254.664 488.373 255.224 487.883 255.896H487.855C487.561 255.098 486.973 254.664 485.951 254.664C484.873 254.664 484.257 255.21 483.879 255.714H483.851V254.86H482.731V262H483.851V257.548C483.851 256.442 484.551 255.644 485.671 255.644C486.791 255.644 486.973 256.372 486.973 257.296V262H488.093V257.548C488.093 256.442 488.793 255.644 489.913 255.644C491.033 255.644 491.215 256.372 491.215 257.296V262H492.335V257.016C492.335 255.518 491.635 254.664 490.193 254.664ZM497.249 254.664C496.073 254.664 495.401 255.196 494.981 255.742H494.953V254.86H493.833V264.408H494.953V261.076H494.981C495.401 261.692 496.073 262.196 497.249 262.196C499.013 262.196 500.441 260.782 500.441 258.43C500.441 256.078 499.013 254.664 497.249 254.664ZM497.109 261.216C495.779 261.216 494.953 260.11 494.953 258.43C494.953 256.75 495.779 255.644 497.109 255.644C498.579 255.644 499.321 257.03 499.321 258.43C499.321 259.83 498.579 261.216 497.109 261.216ZM504.515 255.84V254.86H503.115V252.48H501.995V254.86H500.945V255.84H501.995V260.25C501.995 261.706 502.723 262.084 503.675 262.084C503.969 262.084 504.263 262.056 504.515 262V261.02C503.563 261.09 503.115 260.95 503.115 260.138V255.84H504.515ZM509.693 255.714C509.693 254.384 510.197 253.25 511.891 253.25C513.375 253.25 513.739 254.23 513.739 255.042C513.739 256.456 512.843 256.792 511.037 257.842C509.259 258.878 508.153 260.25 508.153 262H514.859V260.88H509.679V260.852C510.281 258.542 514.999 258.346 514.999 255.028C514.999 253.18 513.571 252.13 511.919 252.13C509.525 252.13 508.433 253.712 508.433 255.714H509.693Z" fill="#4E4E4E"/>
<path d="M419.593 356V348.992H424.489V342.416H419.593V322.832H411.433L396.409 340.976V348.992H411.433V356H419.593ZM411.433 331.712V342.416H402.409L411.433 331.712ZM434.855 356H443.015V334.64H443.111L449.495 356H455.543L461.927 334.64H462.023V356H470.183V321.68H459.623L452.567 343.568H452.471L445.415 321.68H434.855V356ZM494.146 348.848L496.354 356H504.994L492.61 321.68H483.97L471.538 356H480.178L482.386 348.848H494.146ZM484.354 342.272L488.242 329.6H488.338L492.226 342.272H484.354ZM511.062 356H519.702V328.736H529.638V321.68H501.078V328.736H511.062V356ZM532.37 321.68V356H541.01V321.68H532.37ZM567.274 334.448H575.914C575.098 326.48 570.106 320.912 560.746 320.912C549.898 320.912 544.09 328.496 544.09 338.816C544.09 349.184 549.898 356.768 560.746 356.768C570.154 356.768 575.146 351.2 575.914 343.136H567.274C566.698 346.976 564.97 349.712 560.362 349.712C554.65 349.712 552.73 345.296 552.73 338.816C552.73 332.384 554.65 327.968 560.362 327.968C564.922 327.968 566.65 330.704 567.274 334.448Z" fill="url(#paint3_linear_473_3318)"/>
<path d="M465.206 375.494L466.088 378H467.39L463.708 367.99H462.308L458.612 378H459.914L460.796 375.494H465.206ZM461.216 374.374L462.994 369.152H463.022L464.8 374.374H461.216ZM471.059 371.84V370.86H469.659V368.48H468.539V370.86H467.489V371.84H468.539V376.25C468.539 377.706 469.267 378.084 470.219 378.084C470.513 378.084 470.807 378.056 471.059 378V377.02C470.107 377.09 469.659 376.95 469.659 376.138V371.84H471.059ZM475.133 371.84V370.86H473.733V368.48H472.613V370.86H471.563V371.84H472.613V376.25C472.613 377.706 473.341 378.084 474.293 378.084C474.587 378.084 474.881 378.056 475.133 378V377.02C474.181 377.09 473.733 376.95 473.733 376.138V371.84H475.133ZM479.274 377.216C477.72 377.216 476.95 376.012 476.95 374.724H482.592C482.592 372.19 481.5 370.664 479.26 370.664C477.174 370.664 475.83 372.05 475.83 374.43C475.83 376.67 477.146 378.196 479.316 378.196C481.094 378.196 482.116 377.132 482.48 375.802H481.36C481.234 376.292 480.702 377.216 479.274 377.216ZM479.26 371.644C480.604 371.644 481.472 372.596 481.472 373.744H476.95C476.95 372.596 477.916 371.644 479.26 371.644ZM491.163 370.664C490.085 370.664 489.343 371.224 488.853 371.896H488.825C488.531 371.098 487.943 370.664 486.921 370.664C485.843 370.664 485.227 371.21 484.849 371.714H484.821V370.86H483.701V378H484.821V373.548C484.821 372.442 485.521 371.644 486.641 371.644C487.761 371.644 487.943 372.372 487.943 373.296V378H489.063V373.548C489.063 372.442 489.763 371.644 490.883 371.644C492.003 371.644 492.185 372.372 492.185 373.296V378H493.305V373.016C493.305 371.518 492.605 370.664 491.163 370.664ZM498.218 370.664C497.042 370.664 496.37 371.196 495.95 371.742H495.922V370.86H494.802V380.408H495.922V377.076H495.95C496.37 377.692 497.042 378.196 498.218 378.196C499.982 378.196 501.41 376.782 501.41 374.43C501.41 372.078 499.982 370.664 498.218 370.664ZM498.078 377.216C496.748 377.216 495.922 376.11 495.922 374.43C495.922 372.75 496.748 371.644 498.078 371.644C499.548 371.644 500.29 373.03 500.29 374.43C500.29 375.83 499.548 377.216 498.078 377.216ZM505.484 371.84V370.86H504.084V368.48H502.964V370.86H501.914V371.84H502.964V376.25C502.964 377.706 503.692 378.084 504.644 378.084C504.938 378.084 505.232 378.056 505.484 378V377.02C504.532 377.09 504.084 376.95 504.084 376.138V371.84H505.484ZM511.46 368.326C511.32 369.586 510.858 370.412 509.164 370.412V371.322C510.032 371.322 510.592 371.322 511.18 370.762V378H512.44V368.326H511.46Z" fill="#4E4E4E"/>
<rect x="365.5" y="40.5" width="241" height="369" rx="29.5" stroke="#FFAA8F" stroke-dasharray="2 2" shape-rendering="crispEdges"/>
</g>
<rect x="419" y="28" width="134" height="23" rx="11.5" fill="#5578F8"/>
<path d="M438.323 35.326C438.323 36.376 437.693 37.342 435.859 37.342V39.022C436.545 39.022 437.357 39.022 437.903 38.462V45H440.283V35.326H438.323ZM446.474 45.224C449.372 45.224 450.716 42.914 450.716 40.17C450.716 37.426 449.372 35.102 446.474 35.102C443.576 35.102 442.218 37.426 442.218 40.17C442.218 42.914 443.576 45.224 446.474 45.224ZM446.474 43.306C445.06 43.306 444.598 42.088 444.598 40.17C444.598 38.252 445.06 37.02 446.474 37.02C447.888 37.02 448.336 38.252 448.336 40.17C448.336 42.088 447.888 43.306 446.474 43.306ZM455.507 45H457.887V38.77H457.915L459.777 45H461.541L463.403 38.77H463.431V45H465.811V34.99H462.731L460.673 41.374H460.645L458.587 34.99H455.507V45ZM473.64 42.914L474.284 45H476.804L473.192 34.99H470.672L467.046 45H469.566L470.21 42.914H473.64ZM470.784 40.996L471.918 37.3H471.946L473.08 40.996H470.784ZM479.414 45H481.934V37.048H484.832V34.99H476.502V37.048H479.414V45ZM486.469 34.99V45H488.989V34.99H486.469ZM497.489 38.714H500.009C499.771 36.39 498.315 34.766 495.585 34.766C492.421 34.766 490.727 36.978 490.727 39.988C490.727 43.012 492.421 45.224 495.585 45.224C498.329 45.224 499.785 43.6 500.009 41.248H497.489C497.321 42.368 496.817 43.166 495.473 43.166C493.807 43.166 493.247 41.878 493.247 39.988C493.247 38.112 493.807 36.824 495.473 36.824C496.803 36.824 497.307 37.622 497.489 38.714ZM504.674 45H507.054V38.77H507.082L508.944 45H510.708L512.57 38.77H512.598V45H514.978V34.99H511.898L509.84 41.374H509.812L507.754 34.99H504.674V45ZM522.807 42.914L523.451 45H525.971L522.359 34.99H519.839L516.213 45H518.733L519.377 42.914H522.807ZM519.951 40.996L521.085 37.3H521.113L522.247 40.996H519.951ZM530.186 39.89L526.868 45H529.668L531.642 41.752H531.67L533.658 45H536.458L533.14 39.862L536.178 34.99H533.518L531.67 38.042H531.642L529.808 34.99H527.148L530.186 39.89Z" fill="white"/>
</g>
<rect x="1" y="1" width="646" height="448" rx="31" stroke="#5578F8" stroke-opacity="0.5" stroke-width="2"/>
<defs>
<filter id="filter0_d_473_3318" x="62" y="155" width="200" height="140" filterUnits="userSpaceOnUse" color-interpolation-filters="sRGB">
<feFlood flood-opacity="0" result="BackgroundImageFix"/>
<feColorMatrix in="SourceAlpha" type="matrix" values="0 0 0 0 0 0 0 0 0 0 0 0 0 0 0 0 0 0 127 0" result="hardAlpha"/>
<feOffset/>
<feGaussianBlur stdDeviation="5"/>
<feComposite in2="hardAlpha" operator="out"/>
<feColorMatrix type="matrix" values="0 0 0 0 0.211765 0 0 0 0 0.745098 0 0 0 0 1 0 0 0 0.3 0"/>
<feBlend mode="normal" in2="BackgroundImageFix" result="effect1_dropShadow_473_3318"/>
<feBlend mode="normal" in="SourceGraphic" in2="effect1_dropShadow_473_3318" result="shape"/>
</filter>
<filter id="filter1_d_473_3318" x="350" y="25" width="272" height="400" filterUnits="userSpaceOnUse" color-interpolation-filters="sRGB">
<feFlood flood-opacity="0" result="BackgroundImageFix"/>
<feColorMatrix in="SourceAlpha" type="matrix" values="0 0 0 0 0 0 0 0 0 0 0 0 0 0 0 0 0 0 127 0" result="hardAlpha"/>
<feOffset/>
<feGaussianBlur stdDeviation="7.5"/>
<feComposite in2="hardAlpha" operator="out"/>
<feColorMatrix type="matrix" values="0 0 0 0 0.45098 0 0 0 0 0.988235 0 0 0 0 0.760784 0 0 0 1 0"/>
<feBlend mode="normal" in2="BackgroundImageFix" result="effect1_dropShadow_473_3318"/>
<feBlend mode="normal" in="SourceGraphic" in2="effect1_dropShadow_473_3318" result="shape"/>
</filter>
<linearGradient id="paint0_linear_473_3318" x1="93" y1="191" x2="135.419" y2="287.357" gradientUnits="userSpaceOnUse">
<stop offset="0.24238" stop-color="#36BEFF"/>
<stop offset="1" stop-color="#733FF1"/>
</linearGradient>
<linearGradient id="paint1_linear_473_3318" x1="334.506" y1="50" x2="405.767" y2="244.51" gradientUnits="userSpaceOnUse">
<stop offset="0.24238" stop-color="#73FCC2"/>
<stop offset="0.887892" stop-color="#007E3A"/>
</linearGradient>
<linearGradient id="paint2_linear_473_3318" x1="374.47" y1="185.243" x2="451.091" y2="368.671" gradientUnits="userSpaceOnUse">
<stop stop-color="#FC9E9E"/>
<stop offset="0.208333" stop-color="#F74631"/>
<stop offset="0.857227" stop-color="#FFC5A4"/>
</linearGradient>
<linearGradient id="paint3_linear_473_3318" x1="373.351" y1="301.243" x2="449.676" y2="484.97" gradientUnits="userSpaceOnUse">
<stop stop-color="#FC9E9E"/>
<stop offset="0.208333" stop-color="#F74631"/>
<stop offset="0.857227" stop-color="#FFC5A4"/>
</linearGradient>
<clipPath id="clip0_473_3318">
<rect width="648" height="450" rx="32" fill="white"/>
</clipPath>
</defs>
</svg>
