<svg width="648" height="450" viewBox="0 0 648 450" fill="none" xmlns="http://www.w3.org/2000/svg">
<g clip-path="url(#clip0_961_13260)">
<rect width="648" height="450" rx="32" fill="white"/>
<rect width="648" height="450" rx="32" fill="#36BEFF" fill-opacity="0.1"/>
<g filter="url(#filter0_dd_961_13260)">
<rect x="161.158" y="32.5413" width="326.612" height="561.917" rx="34.1048" fill="white" stroke="#CFD9F0" stroke-width="1.08269"/>
<circle cx="242" cy="222" r="12" stroke="#46CD92" stroke-width="2.63722"/>
<path d="M237.266 222.44L240.679 225.853L247.284 219.248" stroke="#46CD92" stroke-width="2.43334" stroke-linecap="round" stroke-linejoin="round"/>
<path d="M264.612 219V212.503H262.234V211.637H267.805V212.503H265.559V219H264.612ZM268.487 219V213.735H269.383V214.748C269.472 214.497 269.596 214.29 269.755 214.127C269.915 213.961 270.096 213.837 270.3 213.756C270.507 213.674 270.721 213.633 270.941 213.633C271.02 213.633 271.096 213.638 271.171 213.649C271.245 213.659 271.303 213.676 271.344 213.7V214.611C271.293 214.587 271.227 214.572 271.145 214.565C271.067 214.555 271.001 214.55 270.947 214.55C270.736 214.536 270.539 214.55 270.356 214.591C270.173 214.628 270.011 214.694 269.872 214.789C269.733 214.884 269.623 215.01 269.541 215.166C269.463 215.319 269.424 215.505 269.424 215.726V219H268.487ZM273.763 219.102C273.42 219.102 273.118 219.042 272.856 218.924C272.598 218.801 272.395 218.627 272.245 218.399C272.099 218.172 272.026 217.897 272.026 217.574C272.026 216.99 272.23 216.556 272.637 216.271C273.045 215.986 273.698 215.833 274.598 215.813L275.535 215.787V215.375C275.535 215.052 275.438 214.798 275.244 214.611C275.051 214.421 274.752 214.326 274.348 214.326C274.046 214.329 273.78 214.401 273.549 214.54C273.318 214.679 273.17 214.906 273.106 215.222H272.276C272.296 214.879 272.391 214.591 272.561 214.356C272.734 214.119 272.977 213.939 273.289 213.817C273.601 213.694 273.97 213.633 274.394 213.633C274.852 213.633 275.232 213.698 275.535 213.827C275.84 213.956 276.068 214.146 276.217 214.397C276.37 214.648 276.446 214.957 276.446 215.324V219H275.642L275.57 218.012C275.37 218.423 275.112 218.708 274.796 218.868C274.484 219.024 274.139 219.102 273.763 219.102ZM274.043 218.425C274.223 218.425 274.399 218.392 274.572 218.328C274.749 218.263 274.908 218.177 275.051 218.068C275.197 217.956 275.314 217.832 275.402 217.697C275.49 217.557 275.535 217.415 275.535 217.269V216.368L274.756 216.383C274.352 216.39 274.016 216.43 273.747 216.505C273.479 216.58 273.277 216.697 273.142 216.856C273.006 217.016 272.938 217.225 272.938 217.483C272.938 217.778 273.041 218.009 273.248 218.175C273.456 218.341 273.72 218.425 274.043 218.425ZM277.915 219V213.735H278.826V214.499C278.911 214.353 279.028 214.216 279.178 214.087C279.33 213.958 279.514 213.854 279.727 213.776C279.945 213.698 280.194 213.659 280.476 213.659C280.809 213.659 281.114 213.725 281.392 213.857C281.674 213.99 281.898 214.197 282.065 214.479C282.234 214.757 282.319 215.117 282.319 215.558V219H281.377V215.65C281.377 215.239 281.269 214.935 281.051 214.738C280.837 214.538 280.559 214.438 280.216 214.438C279.979 214.438 279.756 214.477 279.549 214.555C279.342 214.63 279.174 214.745 279.045 214.901C278.916 215.054 278.852 215.247 278.852 215.482V219H277.915ZM285.636 219.102C285.27 219.102 284.929 219.046 284.613 218.934C284.301 218.818 284.041 218.64 283.834 218.399C283.627 218.155 283.498 217.844 283.447 217.467H284.302C284.347 217.674 284.431 217.848 284.557 217.987C284.683 218.123 284.837 218.226 285.02 218.297C285.207 218.365 285.411 218.399 285.631 218.399C285.988 218.399 286.275 218.333 286.492 218.201C286.709 218.068 286.818 217.865 286.818 217.59C286.818 217.396 286.76 217.242 286.645 217.126C286.533 217.007 286.356 216.921 286.115 216.867L285.025 216.597C284.601 216.495 284.262 216.335 284.007 216.118C283.756 215.901 283.629 215.597 283.625 215.207C283.625 214.898 283.7 214.626 283.849 214.392C283.999 214.158 284.221 213.973 284.516 213.837C284.815 213.701 285.187 213.633 285.631 213.633C286.205 213.633 286.667 213.762 287.016 214.02C287.366 214.275 287.549 214.65 287.566 215.146H286.731C286.697 214.894 286.585 214.696 286.395 214.55C286.205 214.401 285.947 214.326 285.621 214.326C285.289 214.326 285.015 214.394 284.801 214.53C284.591 214.662 284.486 214.869 284.486 215.151C284.486 215.337 284.56 215.485 284.71 215.594C284.863 215.699 285.083 215.787 285.372 215.858L286.431 216.123C286.672 216.188 286.872 216.273 287.032 216.378C287.191 216.483 287.317 216.6 287.408 216.729C287.5 216.858 287.565 216.994 287.602 217.136C287.643 217.276 287.663 217.41 287.663 217.539C287.663 217.861 287.583 218.14 287.424 218.374C287.264 218.605 287.033 218.784 286.731 218.913C286.429 219.039 286.064 219.102 285.636 219.102ZM290.39 219.102C290.047 219.102 289.745 219.042 289.484 218.924C289.226 218.801 289.022 218.627 288.873 218.399C288.727 218.172 288.654 217.897 288.654 217.574C288.654 216.99 288.858 216.556 289.265 216.271C289.672 215.986 290.326 215.833 291.225 215.813L292.162 215.787V215.375C292.162 215.052 292.065 214.798 291.872 214.611C291.678 214.421 291.38 214.326 290.976 214.326C290.674 214.329 290.407 214.401 290.176 214.54C289.946 214.679 289.798 214.906 289.733 215.222H288.903C288.924 214.879 289.019 214.591 289.189 214.356C289.362 214.119 289.604 213.939 289.917 213.817C290.229 213.694 290.597 213.633 291.022 213.633C291.48 213.633 291.86 213.698 292.162 213.827C292.468 213.956 292.695 214.146 292.844 214.397C292.997 214.648 293.073 214.957 293.073 215.324V219H292.269L292.198 218.012C291.997 218.423 291.739 218.708 291.424 218.868C291.111 219.024 290.767 219.102 290.39 219.102ZM290.67 218.425C290.85 218.425 291.027 218.392 291.2 218.328C291.376 218.263 291.536 218.177 291.678 218.068C291.824 217.956 291.941 217.832 292.03 217.697C292.118 217.557 292.162 217.415 292.162 217.269V216.368L291.383 216.383C290.979 216.39 290.643 216.43 290.375 216.505C290.107 216.58 289.905 216.697 289.769 216.856C289.633 217.016 289.565 217.225 289.565 217.483C289.565 217.778 289.669 218.009 289.876 218.175C290.083 218.341 290.348 218.425 290.67 218.425ZM296.66 219.102C296.185 219.102 295.764 218.998 295.398 218.791C295.034 218.584 294.749 218.279 294.542 217.875C294.339 217.471 294.237 216.975 294.237 216.388C294.237 215.838 294.33 215.358 294.517 214.947C294.707 214.533 294.982 214.21 295.342 213.98C295.705 213.749 296.144 213.633 296.66 213.633C297.037 213.633 297.375 213.706 297.674 213.852C297.976 213.995 298.224 214.199 298.417 214.463C298.611 214.728 298.729 215.04 298.773 215.4H297.938C297.908 215.217 297.837 215.049 297.725 214.896C297.616 214.743 297.472 214.621 297.292 214.53C297.115 214.438 296.907 214.392 296.665 214.392C296.214 214.392 295.846 214.555 295.561 214.881C295.279 215.207 295.138 215.706 295.138 216.378C295.138 216.985 295.267 217.473 295.525 217.839C295.786 218.202 296.17 218.384 296.676 218.384C296.917 218.384 297.127 218.338 297.307 218.246C297.487 218.151 297.631 218.027 297.74 217.875C297.848 217.719 297.918 217.552 297.949 217.376H298.768C298.724 217.729 298.604 218.034 298.407 218.292C298.213 218.55 297.966 218.751 297.663 218.893C297.365 219.032 297.03 219.102 296.66 219.102ZM301.773 219.025C301.409 219.025 301.128 218.976 300.927 218.878C300.727 218.779 300.586 218.633 300.505 218.44C300.427 218.246 300.388 218.009 300.388 217.727V214.423H299.532V213.735H300.413L300.642 212.203H301.335V213.73H302.521V214.423H301.335V217.697C301.335 217.883 301.353 218.021 301.391 218.109C301.431 218.194 301.498 218.248 301.589 218.272C301.681 218.296 301.81 218.308 301.976 218.308H302.552V218.939C302.487 218.963 302.389 218.983 302.256 219C302.127 219.017 301.966 219.025 301.773 219.025ZM303.826 219V213.735H304.738V219H303.826ZM303.801 212.62V211.643H304.763V212.62H303.801ZM308.425 219.102C307.939 219.102 307.515 218.998 307.152 218.791C306.792 218.581 306.512 218.274 306.312 217.87C306.111 217.466 306.011 216.972 306.011 216.388C306.011 215.838 306.105 215.356 306.291 214.942C306.478 214.528 306.751 214.207 307.111 213.98C307.471 213.749 307.91 213.633 308.43 213.633C308.915 213.633 309.336 213.74 309.693 213.954C310.049 214.165 310.326 214.475 310.522 214.886C310.723 215.297 310.823 215.797 310.823 216.388C310.823 216.924 310.731 217.396 310.548 217.803C310.365 218.211 310.095 218.53 309.738 218.761C309.385 218.988 308.947 219.102 308.425 219.102ZM308.43 218.358C308.742 218.358 309.007 218.279 309.224 218.119C309.441 217.96 309.606 217.73 309.718 217.432C309.833 217.133 309.891 216.778 309.891 216.368C309.891 215.991 309.84 215.653 309.738 215.354C309.64 215.052 309.484 214.813 309.27 214.636C309.056 214.46 308.776 214.372 308.43 214.372C308.111 214.372 307.841 214.451 307.62 214.611C307.4 214.767 307.232 214.995 307.116 215.293C307.004 215.592 306.948 215.95 306.948 216.368C306.948 216.738 306.997 217.074 307.096 217.376C307.198 217.678 307.357 217.917 307.574 218.094C307.795 218.27 308.08 218.358 308.43 218.358ZM312.075 219V213.735H312.986V214.499C313.071 214.353 313.188 214.216 313.337 214.087C313.49 213.958 313.673 213.854 313.887 213.776C314.105 213.698 314.354 213.659 314.636 213.659C314.968 213.659 315.274 213.725 315.552 213.857C315.834 213.99 316.058 214.197 316.224 214.479C316.394 214.757 316.479 215.117 316.479 215.558V219H315.537V215.65C315.537 215.239 315.428 214.935 315.211 214.738C314.997 214.538 314.719 214.438 314.376 214.438C314.139 214.438 313.916 214.477 313.709 214.555C313.502 214.63 313.334 214.745 313.205 214.901C313.076 215.054 313.012 215.247 313.012 215.482V219H312.075ZM322.322 219.102C321.956 219.102 321.615 219.046 321.299 218.934C320.987 218.818 320.727 218.64 320.52 218.399C320.313 218.155 320.184 217.844 320.133 217.467H320.988C321.032 217.674 321.117 217.848 321.243 217.987C321.368 218.123 321.523 218.226 321.706 218.297C321.893 218.365 322.097 218.399 322.317 218.399C322.674 218.399 322.96 218.333 323.178 218.201C323.395 218.068 323.504 217.865 323.504 217.59C323.504 217.396 323.446 217.242 323.33 217.126C323.218 217.007 323.042 216.921 322.801 216.867L321.711 216.597C321.287 216.495 320.948 216.335 320.693 216.118C320.442 215.901 320.315 215.597 320.311 215.207C320.311 214.898 320.386 214.626 320.535 214.392C320.685 214.158 320.907 213.973 321.202 213.837C321.501 213.701 321.873 213.633 322.317 213.633C322.891 213.633 323.353 213.762 323.702 214.02C324.052 214.275 324.235 214.65 324.252 215.146H323.417C323.383 214.894 323.271 214.696 323.081 214.55C322.891 214.401 322.633 214.326 322.307 214.326C321.974 214.326 321.701 214.394 321.487 214.53C321.277 214.662 321.172 214.869 321.172 215.151C321.172 215.337 321.246 215.485 321.396 215.594C321.548 215.699 321.769 215.787 322.058 215.858L323.117 216.123C323.358 216.188 323.558 216.273 323.717 216.378C323.877 216.483 324.003 216.6 324.094 216.729C324.186 216.858 324.25 216.994 324.288 217.136C324.328 217.276 324.349 217.41 324.349 217.539C324.349 217.861 324.269 218.14 324.109 218.374C323.95 218.605 323.719 218.784 323.417 218.913C323.115 219.039 322.75 219.102 322.322 219.102ZM325.605 219V213.735H326.516V219H325.605ZM325.58 212.62V211.643H326.542V212.62H325.58ZM328.165 219V213.735H329.071V214.499C329.217 214.268 329.418 214.066 329.672 213.893C329.927 213.72 330.258 213.633 330.665 213.633C330.855 213.633 331.049 213.666 331.246 213.73C331.446 213.795 331.629 213.891 331.796 214.02C331.962 214.149 332.091 214.307 332.182 214.494C332.345 214.236 332.566 214.029 332.844 213.873C333.123 213.713 333.437 213.633 333.786 213.633C333.97 213.633 334.161 213.662 334.362 213.72C334.562 213.774 334.747 213.873 334.917 214.015C335.09 214.154 335.231 214.35 335.339 214.601C335.448 214.849 335.502 215.168 335.502 215.558V219H334.555V215.65C334.555 215.331 334.504 215.085 334.402 214.911C334.301 214.735 334.167 214.611 334 214.54C333.837 214.468 333.662 214.433 333.476 214.433C333.313 214.433 333.14 214.465 332.956 214.53C332.773 214.594 332.617 214.703 332.488 214.855C332.359 215.008 332.295 215.217 332.295 215.482V219H331.358V215.375C331.358 215.168 331.302 214.995 331.19 214.855C331.081 214.716 330.944 214.611 330.777 214.54C330.614 214.468 330.451 214.433 330.288 214.433C330.108 214.433 329.927 214.468 329.744 214.54C329.564 214.611 329.411 214.725 329.285 214.881C329.163 215.034 329.102 215.234 329.102 215.482V219H328.165ZM338.911 219.102C338.636 219.098 338.376 219.059 338.132 218.985C337.891 218.907 337.677 218.793 337.49 218.644C337.304 218.494 337.156 218.309 337.047 218.089C336.942 217.865 336.89 217.605 336.89 217.31V213.735H337.832V217.213C337.832 217.556 337.937 217.834 338.147 218.048C338.361 218.262 338.682 218.369 339.11 218.369C339.497 218.369 339.807 218.268 340.041 218.068C340.279 217.865 340.398 217.562 340.398 217.162V213.735H341.335V219H340.586L340.489 217.992C340.425 218.257 340.315 218.47 340.158 218.633C340.006 218.796 339.821 218.917 339.603 218.995C339.39 219.07 339.159 219.105 338.911 219.102ZM344.282 219.066C343.997 219.066 343.766 219.027 343.589 218.949C343.416 218.871 343.282 218.766 343.187 218.633C343.095 218.501 343.033 218.35 342.999 218.18C342.968 218.007 342.953 217.829 342.953 217.646V211.434H343.88V217.554C343.88 217.819 343.93 218.017 344.032 218.15C344.138 218.282 344.283 218.355 344.47 218.369L344.755 218.374V218.985C344.677 219.008 344.596 219.027 344.511 219.041C344.426 219.058 344.35 219.066 344.282 219.066ZM347.463 219.102C347.12 219.102 346.818 219.042 346.556 218.924C346.298 218.801 346.095 218.627 345.945 218.399C345.799 218.172 345.726 217.897 345.726 217.574C345.726 216.99 345.93 216.556 346.337 216.271C346.745 215.986 347.398 215.833 348.298 215.813L349.234 215.787V215.375C349.234 215.052 349.138 214.798 348.944 214.611C348.751 214.421 348.452 214.326 348.048 214.326C347.746 214.329 347.48 214.401 347.249 214.54C347.018 214.679 346.87 214.906 346.806 215.222H345.976C345.996 214.879 346.091 214.591 346.261 214.356C346.434 214.119 346.677 213.939 346.989 213.817C347.301 213.694 347.67 213.633 348.094 213.633C348.552 213.633 348.932 213.698 349.234 213.827C349.54 213.956 349.767 214.146 349.917 214.397C350.07 214.648 350.146 214.957 350.146 215.324V219H349.341L349.27 218.012C349.07 218.423 348.812 218.708 348.496 218.868C348.184 219.024 347.839 219.102 347.463 219.102ZM347.743 218.425C347.923 218.425 348.099 218.392 348.272 218.328C348.449 218.263 348.608 218.177 348.751 218.068C348.897 217.956 349.014 217.832 349.102 217.697C349.19 217.557 349.234 217.415 349.234 217.269V216.368L348.455 216.383C348.052 216.39 347.715 216.43 347.447 216.505C347.179 216.58 346.977 216.697 346.841 216.856C346.706 217.016 346.638 217.225 346.638 217.483C346.638 217.778 346.741 218.009 346.948 218.175C347.155 218.341 347.42 218.425 347.743 218.425ZM353.326 219.025C352.962 219.025 352.681 218.976 352.48 218.878C352.28 218.779 352.139 218.633 352.058 218.44C351.98 218.246 351.941 218.009 351.941 217.727V214.423H351.085V213.735H351.966L352.195 212.203H352.888V213.73H354.074V214.423H352.888V217.697C352.888 217.883 352.906 218.021 352.944 218.109C352.984 218.194 353.051 218.248 353.142 218.272C353.234 218.296 353.363 218.308 353.529 218.308H354.105V218.939C354.04 218.963 353.942 218.983 353.809 219C353.68 219.017 353.519 219.025 353.326 219.025ZM355.379 219V213.735H356.291V219H355.379ZM355.354 212.62V211.643H356.316V212.62H355.354ZM359.978 219.102C359.492 219.102 359.068 218.998 358.705 218.791C358.345 218.581 358.065 218.274 357.865 217.87C357.665 217.466 357.564 216.972 357.564 216.388C357.564 215.838 357.658 215.356 357.844 214.942C358.031 214.528 358.304 214.207 358.664 213.98C359.024 213.749 359.464 213.633 359.983 213.633C360.468 213.633 360.889 213.74 361.246 213.954C361.602 214.165 361.879 214.475 362.076 214.886C362.276 215.297 362.376 215.797 362.376 216.388C362.376 216.924 362.284 217.396 362.101 217.803C361.918 218.211 361.648 218.53 361.291 218.761C360.938 218.988 360.501 219.102 359.978 219.102ZM359.983 218.358C360.295 218.358 360.56 218.279 360.777 218.119C360.994 217.96 361.159 217.73 361.271 217.432C361.387 217.133 361.444 216.778 361.444 216.368C361.444 215.991 361.393 215.653 361.291 215.354C361.193 215.052 361.037 214.813 360.823 214.636C360.609 214.46 360.329 214.372 359.983 214.372C359.664 214.372 359.394 214.451 359.173 214.611C358.953 214.767 358.785 214.995 358.669 215.293C358.557 215.592 358.501 215.95 358.501 216.368C358.501 216.738 358.55 217.074 358.649 217.376C358.751 217.678 358.91 217.917 359.128 218.094C359.348 218.27 359.633 218.358 359.983 218.358ZM363.628 219V213.735H364.539V214.499C364.624 214.353 364.741 214.216 364.891 214.087C365.043 213.958 365.227 213.854 365.44 213.776C365.658 213.698 365.907 213.659 366.189 213.659C366.522 213.659 366.827 213.725 367.105 213.857C367.387 213.99 367.611 214.197 367.778 214.479C367.947 214.757 368.032 215.117 368.032 215.558V219H367.09V215.65C367.09 215.239 366.982 214.935 366.764 214.738C366.55 214.538 366.272 214.438 365.929 214.438C365.692 214.438 365.469 214.477 365.262 214.555C365.055 214.63 364.887 214.745 364.758 214.901C364.629 215.054 364.565 215.247 364.565 215.482V219H363.628ZM372.684 219V214.423H371.569V213.735H372.684V212.921C372.684 212.503 372.789 212.186 373 211.968C373.214 211.748 373.533 211.637 373.957 211.637H374.95L374.955 212.304H374.171C373.954 212.304 373.806 212.362 373.728 212.478C373.65 212.593 373.611 212.768 373.611 213.002V213.735H374.904V214.423H373.626V219H372.684ZM378.047 219.102C377.562 219.102 377.138 218.998 376.774 218.791C376.415 218.581 376.134 218.274 375.934 217.87C375.734 217.466 375.634 216.972 375.634 216.388C375.634 215.838 375.727 215.356 375.914 214.942C376.101 214.528 376.374 214.207 376.734 213.98C377.093 213.749 377.533 213.633 378.052 213.633C378.538 213.633 378.959 213.74 379.315 213.954C379.672 214.165 379.948 214.475 380.145 214.886C380.345 215.297 380.445 215.797 380.445 216.388C380.445 216.924 380.354 217.396 380.17 217.803C379.987 218.211 379.717 218.53 379.361 218.761C379.008 218.988 378.57 219.102 378.047 219.102ZM378.052 218.358C378.365 218.358 378.629 218.279 378.847 218.119C379.064 217.96 379.229 217.73 379.341 217.432C379.456 217.133 379.514 216.778 379.514 216.368C379.514 215.991 379.463 215.653 379.361 215.354C379.262 215.052 379.106 214.813 378.892 214.636C378.679 214.46 378.399 214.372 378.052 214.372C377.733 214.372 377.463 214.451 377.243 214.611C377.022 214.767 376.854 214.995 376.739 215.293C376.627 215.592 376.571 215.95 376.571 216.368C376.571 216.738 376.62 217.074 376.718 217.376C376.82 217.678 376.98 217.917 377.197 218.094C377.418 218.27 377.703 218.358 378.052 218.358ZM383.612 219.102C383.337 219.098 383.078 219.059 382.833 218.985C382.592 218.907 382.378 218.793 382.192 218.644C382.005 218.494 381.857 218.309 381.749 218.089C381.643 217.865 381.591 217.605 381.591 217.31V213.735H382.533V217.213C382.533 217.556 382.638 217.834 382.848 218.048C383.062 218.262 383.383 218.369 383.811 218.369C384.198 218.369 384.508 218.268 384.743 218.068C384.98 217.865 385.099 217.562 385.099 217.162V213.735H386.036V219H385.287L385.191 217.992C385.126 218.257 385.016 218.47 384.86 218.633C384.707 218.796 384.522 218.917 384.305 218.995C384.091 219.07 383.86 219.105 383.612 219.102ZM387.654 219V213.735H388.566V214.499C388.65 214.353 388.768 214.216 388.917 214.087C389.07 213.958 389.253 213.854 389.467 213.776C389.684 213.698 389.933 213.659 390.215 213.659C390.548 213.659 390.853 213.725 391.132 213.857C391.413 213.99 391.638 214.197 391.804 214.479C391.974 214.757 392.058 215.117 392.058 215.558V219H391.116V215.65C391.116 215.239 391.008 214.935 390.791 214.738C390.577 214.538 390.298 214.438 389.956 214.438C389.718 214.438 389.496 214.477 389.289 214.555C389.081 214.63 388.913 214.745 388.784 214.901C388.655 215.054 388.591 215.247 388.591 215.482V219H387.654ZM395.451 219.102C394.765 219.102 394.222 218.868 393.822 218.399C393.424 217.931 393.226 217.247 393.226 216.347C393.226 215.801 393.306 215.324 393.465 214.916C393.625 214.509 393.864 214.193 394.183 213.969C394.502 213.745 394.899 213.633 395.375 213.633C395.629 213.633 395.853 213.666 396.047 213.73C396.24 213.795 396.408 213.876 396.551 213.975C396.693 214.073 396.809 214.175 396.897 214.28C396.989 214.385 397.057 214.482 397.101 214.57V211.434H398.053V219H397.33L397.228 217.921C397.194 218.022 397.14 218.141 397.065 218.277C396.99 218.409 396.885 218.54 396.749 218.669C396.617 218.795 396.444 218.898 396.23 218.98C396.016 219.061 395.756 219.102 395.451 219.102ZM395.619 218.379C396.149 218.379 396.527 218.218 396.754 217.895C396.985 217.569 397.101 217.038 397.101 216.301C397.097 215.891 397.046 215.541 396.948 215.253C396.849 214.964 396.693 214.745 396.479 214.596C396.269 214.443 395.987 214.367 395.634 214.367C395.203 214.367 394.852 214.521 394.58 214.83C394.309 215.139 394.173 215.629 394.173 216.301C394.173 216.96 394.295 217.471 394.54 217.834C394.784 218.197 395.144 218.379 395.619 218.379ZM264.709 234.025C264.346 234.025 264.064 233.976 263.864 233.878C263.663 233.779 263.522 233.633 263.441 233.44C263.363 233.246 263.324 233.009 263.324 232.727V229.423H262.468V228.735H263.349L263.578 227.203H264.271V228.73H265.457V229.423H264.271V232.697C264.271 232.883 264.29 233.021 264.327 233.109C264.368 233.194 264.434 233.248 264.525 233.272C264.617 233.296 264.746 233.308 264.912 233.308H265.488V233.939C265.423 233.963 265.325 233.983 265.192 234C265.063 234.017 264.902 234.025 264.709 234.025ZM266.737 234V226.434H267.653V229.509C267.742 229.363 267.861 229.227 268.01 229.102C268.159 228.973 268.341 228.869 268.555 228.791C268.769 228.71 269.016 228.669 269.298 228.669C269.641 228.669 269.952 228.734 270.23 228.863C270.508 228.988 270.729 229.168 270.892 229.402C271.055 229.636 271.136 229.915 271.136 230.237V234H270.194V230.426C270.194 230.11 270.086 229.867 269.868 229.698C269.655 229.524 269.374 229.438 269.028 229.438C268.794 229.438 268.573 229.477 268.366 229.555C268.159 229.63 267.991 229.745 267.862 229.901C267.737 230.054 267.674 230.249 267.674 230.487V234H266.737ZM272.63 234V228.735H273.541V234H272.63ZM272.604 227.62V226.643H273.567V227.62H272.604ZM277.014 234.102C276.648 234.102 276.307 234.046 275.991 233.934C275.679 233.818 275.419 233.64 275.212 233.399C275.005 233.155 274.876 232.844 274.825 232.467H275.68C275.725 232.674 275.809 232.848 275.935 232.987C276.061 233.123 276.215 233.226 276.398 233.297C276.585 233.365 276.789 233.399 277.009 233.399C277.366 233.399 277.653 233.333 277.87 233.201C278.087 233.068 278.196 232.865 278.196 232.59C278.196 232.396 278.138 232.242 278.023 232.126C277.911 232.007 277.734 231.921 277.493 231.867L276.403 231.597C275.979 231.495 275.64 231.335 275.385 231.118C275.134 230.901 275.007 230.597 275.003 230.207C275.003 229.898 275.078 229.626 275.227 229.392C275.377 229.158 275.599 228.973 275.894 228.837C276.193 228.701 276.565 228.633 277.009 228.633C277.583 228.633 278.045 228.762 278.394 229.02C278.744 229.275 278.927 229.65 278.944 230.146H278.109C278.075 229.894 277.963 229.696 277.773 229.55C277.583 229.401 277.325 229.326 276.999 229.326C276.667 229.326 276.393 229.394 276.179 229.53C275.969 229.662 275.864 229.869 275.864 230.151C275.864 230.337 275.938 230.485 276.088 230.594C276.241 230.699 276.461 230.787 276.75 230.858L277.809 231.123C278.05 231.188 278.25 231.273 278.41 231.378C278.569 231.483 278.695 231.6 278.786 231.729C278.878 231.858 278.942 231.994 278.98 232.136C279.021 232.276 279.041 232.41 279.041 232.539C279.041 232.861 278.961 233.14 278.802 233.374C278.642 233.605 278.411 233.784 278.109 233.913C277.807 234.039 277.442 234.102 277.014 234.102ZM282.734 234V228.735H283.645V234H282.734ZM282.708 227.62V226.643H283.67V227.62H282.708ZM285.294 234V228.735H286.205V229.499C286.29 229.353 286.407 229.216 286.556 229.087C286.709 228.958 286.893 228.854 287.106 228.776C287.324 228.698 287.573 228.659 287.855 228.659C288.188 228.659 288.493 228.725 288.771 228.857C289.053 228.99 289.277 229.197 289.443 229.479C289.613 229.757 289.698 230.117 289.698 230.558V234H288.756V230.65C288.756 230.239 288.647 229.935 288.43 229.738C288.216 229.538 287.938 229.438 287.595 229.438C287.358 229.438 287.135 229.477 286.928 229.555C286.721 229.63 286.553 229.745 286.424 229.901C286.295 230.054 286.231 230.247 286.231 230.482V234H285.294ZM292.882 234.025C292.519 234.025 292.237 233.976 292.037 233.878C291.837 233.779 291.696 233.633 291.614 233.44C291.536 233.246 291.497 233.009 291.497 232.727V229.423H290.642V228.735H291.523L291.752 227.203H292.444V228.73H293.63V229.423H292.444V232.697C292.444 232.883 292.463 233.021 292.5 233.109C292.541 233.194 292.607 233.248 292.699 233.272C292.79 233.296 292.919 233.308 293.086 233.308H293.661V233.939C293.597 233.963 293.498 233.983 293.366 234C293.237 234.017 293.075 234.025 292.882 234.025ZM296.996 234.102C296.507 234.102 296.076 233.995 295.703 233.781C295.329 233.567 295.037 233.26 294.827 232.859C294.617 232.459 294.511 231.979 294.511 231.419C294.511 230.865 294.606 230.38 294.796 229.962C294.987 229.545 295.261 229.219 295.621 228.985C295.985 228.75 296.421 228.633 296.93 228.633C297.425 228.633 297.845 228.74 298.188 228.954C298.53 229.168 298.79 229.47 298.967 229.86C299.146 230.247 299.236 230.707 299.236 231.24V231.587H295.463C295.463 231.919 295.518 232.221 295.626 232.493C295.738 232.761 295.906 232.975 296.13 233.134C296.355 233.294 296.638 233.374 296.981 233.374C297.317 233.374 297.605 233.296 297.846 233.14C298.091 232.983 298.247 232.758 298.315 232.462H299.201C299.14 232.819 298.997 233.119 298.773 233.364C298.552 233.608 298.286 233.793 297.974 233.919C297.665 234.041 297.339 234.102 296.996 234.102ZM295.469 230.95H298.33C298.33 230.648 298.279 230.376 298.177 230.135C298.075 229.891 297.919 229.699 297.709 229.56C297.502 229.418 297.24 229.346 296.925 229.346C296.596 229.346 296.322 229.426 296.105 229.586C295.888 229.742 295.727 229.944 295.621 230.191C295.516 230.436 295.465 230.689 295.469 230.95ZM300.539 234V228.735H301.435V229.748C301.523 229.497 301.647 229.29 301.807 229.127C301.966 228.961 302.148 228.837 302.352 228.756C302.559 228.674 302.772 228.633 302.993 228.633C303.071 228.633 303.148 228.638 303.222 228.649C303.297 228.659 303.355 228.676 303.395 228.7V229.611C303.344 229.587 303.278 229.572 303.197 229.565C303.119 229.555 303.052 229.55 302.998 229.55C302.788 229.536 302.591 229.55 302.408 229.591C302.224 229.628 302.063 229.694 301.924 229.789C301.785 229.884 301.674 230.01 301.593 230.166C301.515 230.319 301.476 230.505 301.476 230.726V234H300.539ZM305.814 234.102C305.472 234.102 305.169 234.042 304.908 233.924C304.65 233.801 304.446 233.627 304.297 233.399C304.151 233.172 304.078 232.897 304.078 232.574C304.078 231.99 304.282 231.556 304.689 231.271C305.096 230.986 305.75 230.833 306.649 230.813L307.586 230.787V230.375C307.586 230.052 307.49 229.798 307.296 229.611C307.103 229.421 306.804 229.326 306.4 229.326C306.098 229.329 305.831 229.401 305.6 229.54C305.37 229.679 305.222 229.906 305.158 230.222H304.328C304.348 229.879 304.443 229.591 304.613 229.356C304.786 229.119 305.029 228.939 305.341 228.817C305.653 228.694 306.021 228.633 306.446 228.633C306.904 228.633 307.284 228.698 307.586 228.827C307.892 228.956 308.119 229.146 308.269 229.397C308.421 229.648 308.498 229.957 308.498 230.324V234H307.693L307.622 233.012C307.422 233.423 307.164 233.708 306.848 233.868C306.536 234.024 306.191 234.102 305.814 234.102ZM306.094 233.425C306.274 233.425 306.451 233.392 306.624 233.328C306.8 233.263 306.96 233.177 307.103 233.068C307.248 232.956 307.366 232.832 307.454 232.697C307.542 232.557 307.586 232.415 307.586 232.269V231.368L306.807 231.383C306.403 231.39 306.067 231.43 305.799 231.505C305.531 231.58 305.329 231.697 305.193 231.856C305.057 232.016 304.989 232.225 304.989 232.483C304.989 232.778 305.093 233.009 305.3 233.175C305.507 233.341 305.772 233.425 306.094 233.425ZM312.085 234.102C311.609 234.102 311.188 233.998 310.822 233.791C310.459 233.584 310.174 233.279 309.966 232.875C309.763 232.471 309.661 231.975 309.661 231.388C309.661 230.838 309.754 230.358 309.941 229.947C310.131 229.533 310.406 229.21 310.766 228.98C311.129 228.749 311.569 228.633 312.085 228.633C312.461 228.633 312.799 228.706 313.098 228.852C313.4 228.995 313.648 229.199 313.841 229.463C314.035 229.728 314.153 230.04 314.198 230.4H313.363C313.332 230.217 313.261 230.049 313.149 229.896C313.04 229.743 312.896 229.621 312.716 229.53C312.539 229.438 312.331 229.392 312.09 229.392C311.638 229.392 311.27 229.555 310.985 229.881C310.703 230.207 310.562 230.706 310.562 231.378C310.562 231.985 310.691 232.473 310.949 232.839C311.211 233.202 311.594 233.384 312.1 233.384C312.341 233.384 312.551 233.338 312.731 233.246C312.911 233.151 313.055 233.027 313.164 232.875C313.273 232.719 313.342 232.552 313.373 232.376H314.193C314.148 232.729 314.028 233.034 313.831 233.292C313.638 233.55 313.39 233.751 313.088 233.893C312.789 234.032 312.455 234.102 312.085 234.102ZM317.197 234.025C316.833 234.025 316.552 233.976 316.351 233.878C316.151 233.779 316.01 233.633 315.929 233.44C315.851 233.246 315.812 233.009 315.812 232.727V229.423H314.956V228.735H315.837L316.066 227.203H316.759V228.73H317.945V229.423H316.759V232.697C316.759 232.883 316.777 233.021 316.815 233.109C316.856 233.194 316.922 233.248 317.013 233.272C317.105 233.296 317.234 233.308 317.4 233.308H317.976V233.939C317.911 233.963 317.813 233.983 317.68 234C317.551 234.017 317.39 234.025 317.197 234.025ZM319.25 234V228.735H320.162V234H319.25ZM319.225 227.62V226.643H320.187V227.62H319.225ZM323.849 234.102C323.363 234.102 322.939 233.998 322.576 233.791C322.216 233.581 321.936 233.274 321.736 232.87C321.536 232.466 321.435 231.972 321.435 231.388C321.435 230.838 321.529 230.356 321.715 229.942C321.902 229.528 322.175 229.207 322.535 228.98C322.895 228.749 323.335 228.633 323.854 228.633C324.339 228.633 324.76 228.74 325.117 228.954C325.473 229.165 325.75 229.475 325.947 229.886C326.147 230.297 326.247 230.797 326.247 231.388C326.247 231.924 326.155 232.396 325.972 232.803C325.789 233.211 325.519 233.53 325.163 233.761C324.809 233.988 324.372 234.102 323.849 234.102ZM323.854 233.358C324.166 233.358 324.431 233.279 324.648 233.119C324.866 232.96 325.03 232.73 325.142 232.432C325.258 232.133 325.315 231.778 325.315 231.368C325.315 230.991 325.264 230.653 325.163 230.354C325.064 230.052 324.908 229.813 324.694 229.636C324.48 229.46 324.2 229.372 323.854 229.372C323.535 229.372 323.265 229.451 323.044 229.611C322.824 229.767 322.656 229.995 322.54 230.293C322.428 230.592 322.372 230.95 322.372 231.368C322.372 231.738 322.422 232.074 322.52 232.376C322.622 232.678 322.781 232.917 322.999 233.094C323.219 233.27 323.504 233.358 323.854 233.358ZM327.499 234V228.735H328.41V229.499C328.495 229.353 328.612 229.216 328.762 229.087C328.914 228.958 329.098 228.854 329.312 228.776C329.529 228.698 329.778 228.659 330.06 228.659C330.393 228.659 330.698 228.725 330.976 228.857C331.258 228.99 331.482 229.197 331.649 229.479C331.818 229.757 331.903 230.117 331.903 230.558V234H330.961V230.65C330.961 230.239 330.853 229.935 330.635 229.738C330.421 229.538 330.143 229.438 329.8 229.438C329.563 229.438 329.34 229.477 329.133 229.555C328.926 229.63 328.758 229.745 328.629 229.901C328.5 230.054 328.436 230.247 328.436 230.482V234H327.499ZM337.828 234.102C337.461 234.102 337.108 234.042 336.769 233.924C336.433 233.801 336.146 233.611 335.908 233.353C335.674 233.092 335.527 232.754 335.465 232.34H336.749C336.796 232.527 336.878 232.674 336.993 232.783C337.112 232.892 337.246 232.97 337.395 233.017C337.545 233.061 337.687 233.084 337.823 233.084C338.108 233.084 338.337 233.039 338.51 232.951C338.687 232.859 338.775 232.72 338.775 232.534C338.775 232.391 338.722 232.277 338.617 232.192C338.515 232.108 338.346 232.043 338.108 231.999L337.181 231.805C336.716 231.707 336.341 231.541 336.056 231.307C335.774 231.069 335.632 230.733 335.628 230.298C335.625 229.983 335.706 229.699 335.873 229.448C336.042 229.197 336.292 228.998 336.621 228.852C336.954 228.706 337.36 228.633 337.838 228.633C338.486 228.633 339.004 228.776 339.391 229.061C339.781 229.346 339.98 229.748 339.987 230.268H338.744C338.707 230.064 338.605 229.908 338.439 229.799C338.276 229.687 338.069 229.631 337.818 229.631C337.563 229.631 337.353 229.677 337.186 229.769C337.02 229.86 336.937 230 336.937 230.186C336.937 230.326 337.005 230.436 337.141 230.517C337.276 230.595 337.487 230.663 337.772 230.721L338.627 230.914C338.923 230.986 339.162 231.084 339.345 231.21C339.532 231.332 339.676 231.466 339.778 231.612C339.88 231.758 339.949 231.906 339.987 232.055C340.028 232.201 340.048 232.333 340.048 232.452C340.048 232.802 339.955 233.1 339.768 233.348C339.581 233.593 339.322 233.779 338.989 233.908C338.656 234.037 338.269 234.102 337.828 234.102ZM342.683 234.102C342.35 234.102 342.048 234.039 341.777 233.913C341.508 233.788 341.296 233.606 341.14 233.369C340.984 233.128 340.906 232.836 340.906 232.493C340.906 231.916 341.121 231.478 341.553 231.179C341.984 230.877 342.664 230.721 343.594 230.711L344.256 230.701V230.385C344.256 230.144 344.185 229.959 344.042 229.83C343.903 229.698 343.684 229.633 343.386 229.636C343.172 229.64 342.966 229.691 342.769 229.789C342.576 229.888 342.442 230.059 342.367 230.303H341.13C341.15 229.923 341.261 229.611 341.461 229.367C341.665 229.119 341.938 228.935 342.281 228.817C342.623 228.694 343.016 228.633 343.457 228.633C343.993 228.633 344.424 228.701 344.75 228.837C345.076 228.969 345.312 229.161 345.458 229.412C345.607 229.66 345.682 229.956 345.682 230.298V234H344.439L344.317 233.094C344.137 233.474 343.912 233.737 343.64 233.883C343.372 234.029 343.053 234.102 342.683 234.102ZM343.187 233.124C343.319 233.124 343.448 233.1 343.574 233.053C343.703 233.002 343.818 232.936 343.92 232.854C344.022 232.77 344.102 232.674 344.159 232.569C344.221 232.464 344.253 232.355 344.256 232.243V231.464L343.722 231.475C343.474 231.478 343.243 231.508 343.029 231.566C342.815 231.62 342.642 231.71 342.51 231.836C342.381 231.962 342.316 232.131 342.316 232.345C342.316 232.59 342.399 232.781 342.566 232.921C342.735 233.056 342.943 233.124 343.187 233.124ZM347.399 234V229.769H346.426V228.735H347.399V227.977C347.399 227.552 347.524 227.223 347.775 226.989C348.027 226.755 348.38 226.637 348.835 226.637H350.041L350.051 227.625H349.354C349.167 227.625 349.038 227.673 348.967 227.768C348.896 227.859 348.86 228.012 348.86 228.226V228.735H350.001V229.769H348.891V234H347.399ZM353.234 234.102C352.712 234.102 352.252 233.993 351.854 233.776C351.461 233.555 351.154 233.245 350.933 232.844C350.712 232.444 350.602 231.972 350.602 231.429C350.602 230.903 350.702 230.429 350.902 230.008C351.106 229.584 351.398 229.249 351.778 229.005C352.158 228.757 352.618 228.633 353.158 228.633C353.694 228.633 354.144 228.747 354.507 228.975C354.87 229.199 355.145 229.513 355.332 229.916C355.519 230.317 355.612 230.78 355.612 231.307V231.709H352.073C352.073 231.977 352.118 232.211 352.206 232.411C352.294 232.608 352.421 232.761 352.588 232.87C352.757 232.975 352.961 233.027 353.199 233.027C353.453 233.027 353.676 232.973 353.866 232.865C354.056 232.756 354.19 232.578 354.268 232.33H355.607C355.546 232.703 355.397 233.022 355.159 233.287C354.921 233.552 354.633 233.754 354.293 233.893C353.954 234.032 353.601 234.102 353.234 234.102ZM352.073 230.823H354.222C354.222 230.612 354.181 230.419 354.1 230.242C354.022 230.066 353.903 229.927 353.743 229.825C353.587 229.723 353.39 229.672 353.153 229.672C352.925 229.672 352.73 229.728 352.567 229.84C352.408 229.949 352.284 230.091 352.196 230.268C352.111 230.444 352.07 230.629 352.073 230.823ZM361.221 234.056C360.756 234.056 360.397 233.997 360.142 233.878C359.891 233.759 359.716 233.593 359.618 233.379C359.522 233.165 359.475 232.917 359.475 232.635V229.769H358.62V228.735H359.521L359.898 227.147H360.957V228.73H362.128V229.769H360.957L360.967 232.574C360.967 232.703 360.982 232.8 361.013 232.865C361.047 232.926 361.097 232.966 361.165 232.987C361.237 233.004 361.327 233.012 361.435 233.012H362.143V233.929C362.072 233.959 361.965 233.988 361.822 234.015C361.68 234.042 361.479 234.056 361.221 234.056ZM365.314 234.102C364.798 234.102 364.348 233.992 363.965 233.771C363.585 233.55 363.289 233.238 363.079 232.834C362.872 232.43 362.768 231.951 362.768 231.398C362.768 230.845 362.872 230.361 363.079 229.947C363.289 229.533 363.585 229.21 363.965 228.98C364.348 228.749 364.8 228.633 365.319 228.633C365.839 228.633 366.288 228.747 366.669 228.975C367.049 229.199 367.342 229.518 367.549 229.932C367.757 230.346 367.86 230.835 367.86 231.398C367.86 231.928 367.758 232.396 367.555 232.803C367.354 233.207 367.064 233.525 366.684 233.756C366.307 233.986 365.851 234.102 365.314 234.102ZM365.319 232.997C365.581 232.997 365.791 232.921 365.951 232.768C366.11 232.615 366.226 232.415 366.297 232.167C366.368 231.916 366.404 231.643 366.404 231.347C366.404 231.069 366.372 230.806 366.307 230.558C366.243 230.31 366.131 230.11 365.971 229.957C365.811 229.804 365.594 229.728 365.319 229.728C365.058 229.728 364.846 229.801 364.683 229.947C364.523 230.09 364.406 230.285 364.332 230.533C364.257 230.777 364.219 231.049 364.219 231.347C364.219 231.622 364.253 231.887 364.321 232.142C364.389 232.393 364.503 232.598 364.662 232.758C364.822 232.917 365.041 232.997 365.319 232.997ZM371.143 235.64V228.735H372.635L372.64 229.494C372.718 229.368 372.813 229.255 372.925 229.153C373.04 229.048 373.167 228.956 373.307 228.878C373.446 228.8 373.597 228.74 373.76 228.7C373.923 228.655 374.094 228.633 374.274 228.633C374.664 228.633 375.012 228.73 375.318 228.924C375.623 229.114 375.863 229.409 376.036 229.81C376.212 230.207 376.301 230.712 376.301 231.327C376.301 231.965 376.205 232.489 376.015 232.9C375.829 233.308 375.571 233.61 375.241 233.807C374.912 234.003 374.54 234.102 374.126 234.102C373.957 234.102 373.797 234.078 373.648 234.031C373.498 233.986 373.359 233.924 373.23 233.842C373.105 233.761 372.991 233.667 372.889 233.562C372.791 233.453 372.704 233.336 372.629 233.211V235.64H371.143ZM373.77 233.012C374.092 233.012 374.362 232.878 374.58 232.61C374.8 232.342 374.91 231.918 374.91 231.337C374.91 230.828 374.805 230.431 374.595 230.146C374.388 229.857 374.113 229.713 373.77 229.713C373.386 229.713 373.1 229.869 372.909 230.181C372.723 230.49 372.629 230.875 372.629 231.337C372.629 231.632 372.67 231.907 372.752 232.162C372.836 232.416 372.962 232.622 373.128 232.778C373.298 232.934 373.512 233.012 373.77 233.012ZM377.328 234V228.735H378.759V229.983C378.844 229.715 378.963 229.48 379.115 229.28C379.272 229.076 379.46 228.919 379.681 228.806C379.901 228.691 380.151 228.633 380.429 228.633C380.477 228.633 380.521 228.637 380.561 228.644C380.606 228.647 380.638 228.654 380.658 228.664V230.079C380.628 230.066 380.59 230.057 380.546 230.054C380.505 230.051 380.468 230.047 380.434 230.044C380.142 230.02 379.893 230.029 379.686 230.069C379.479 230.11 379.311 230.18 379.182 230.278C379.053 230.376 378.959 230.497 378.902 230.64C378.844 230.782 378.815 230.942 378.815 231.118V234H377.328ZM383.811 234.102C383.295 234.102 382.846 233.992 382.462 233.771C382.082 233.55 381.786 233.238 381.576 232.834C381.369 232.43 381.265 231.951 381.265 231.398C381.265 230.845 381.369 230.361 381.576 229.947C381.786 229.533 382.082 229.21 382.462 228.98C382.846 228.749 383.297 228.633 383.816 228.633C384.336 228.633 384.785 228.747 385.166 228.975C385.546 229.199 385.839 229.518 386.047 229.932C386.254 230.346 386.357 230.835 386.357 231.398C386.357 231.928 386.255 232.396 386.052 232.803C385.851 233.207 385.561 233.525 385.181 233.756C384.804 233.986 384.348 234.102 383.811 234.102ZM383.816 232.997C384.078 232.997 384.288 232.921 384.448 232.768C384.607 232.615 384.723 232.415 384.794 232.167C384.865 231.916 384.901 231.643 384.901 231.347C384.901 231.069 384.869 230.806 384.804 230.558C384.74 230.31 384.628 230.11 384.468 229.957C384.309 229.804 384.091 229.728 383.816 229.728C383.555 229.728 383.343 229.801 383.18 229.947C383.02 230.09 382.903 230.285 382.829 230.533C382.754 230.777 382.717 231.049 382.717 231.347C382.717 231.622 382.751 231.887 382.818 232.142C382.886 232.393 383 232.598 383.16 232.758C383.319 232.917 383.538 232.997 383.816 232.997ZM389.664 234.102C389.175 234.102 388.739 233.993 388.355 233.776C387.971 233.559 387.669 233.248 387.449 232.844C387.231 232.437 387.123 231.951 387.123 231.388C387.123 230.845 387.228 230.366 387.439 229.952C387.649 229.538 387.944 229.216 388.324 228.985C388.708 228.75 389.154 228.633 389.664 228.633C390.105 228.633 390.485 228.723 390.804 228.903C391.127 229.083 391.379 229.326 391.563 229.631C391.749 229.937 391.856 230.278 391.884 230.655H390.646C390.623 230.516 390.573 230.378 390.499 230.242C390.424 230.103 390.319 229.989 390.183 229.901C390.047 229.81 389.877 229.764 389.674 229.764C389.328 229.764 389.046 229.898 388.829 230.166C388.615 230.431 388.508 230.835 388.508 231.378C388.508 231.89 388.613 232.298 388.823 232.6C389.034 232.899 389.328 233.048 389.704 233.048C389.905 233.048 390.071 232.999 390.203 232.9C390.339 232.802 390.444 232.685 390.519 232.549C390.594 232.41 390.641 232.281 390.662 232.162H391.868C391.845 232.525 391.739 232.854 391.553 233.15C391.366 233.442 391.111 233.674 390.789 233.847C390.47 234.017 390.095 234.102 389.664 234.102ZM395.34 234.102C394.817 234.102 394.357 233.993 393.96 233.776C393.566 233.555 393.259 233.245 393.039 232.844C392.818 232.444 392.708 231.972 392.708 231.429C392.708 230.903 392.808 230.429 393.008 230.008C393.212 229.584 393.504 229.249 393.884 229.005C394.264 228.757 394.724 228.633 395.264 228.633C395.8 228.633 396.25 228.747 396.613 228.975C396.976 229.199 397.251 229.513 397.438 229.916C397.624 230.317 397.718 230.78 397.718 231.307V231.709H394.179C394.179 231.977 394.223 232.211 394.311 232.411C394.4 232.608 394.527 232.761 394.693 232.87C394.863 232.975 395.067 233.027 395.304 233.027C395.559 233.027 395.781 232.973 395.971 232.865C396.161 232.756 396.296 232.578 396.374 232.33H397.713C397.652 232.703 397.502 233.022 397.265 233.287C397.027 233.552 396.739 233.754 396.399 233.893C396.06 234.032 395.707 234.102 395.34 234.102ZM394.179 230.823H396.328C396.328 230.612 396.287 230.419 396.206 230.242C396.128 230.066 396.009 229.927 395.849 229.825C395.693 229.723 395.496 229.672 395.259 229.672C395.031 229.672 394.836 229.728 394.673 229.84C394.513 229.949 394.39 230.091 394.301 230.268C394.216 230.444 394.176 230.629 394.179 230.823ZM401.207 234.102C400.685 234.102 400.225 233.993 399.828 233.776C399.434 233.555 399.127 233.245 398.906 232.844C398.685 232.444 398.575 231.972 398.575 231.429C398.575 230.903 398.675 230.429 398.875 230.008C399.079 229.584 399.371 229.249 399.751 229.005C400.131 228.757 400.591 228.633 401.131 228.633C401.667 228.633 402.117 228.747 402.48 228.975C402.843 229.199 403.118 229.513 403.305 229.916C403.492 230.317 403.585 230.78 403.585 231.307V231.709H400.046C400.046 231.977 400.091 232.211 400.179 232.411C400.267 232.608 400.394 232.761 400.561 232.87C400.73 232.975 400.934 233.027 401.172 233.027C401.426 233.027 401.649 232.973 401.839 232.865C402.029 232.756 402.163 232.578 402.241 232.33H403.58C403.519 232.703 403.37 233.022 403.132 233.287C402.894 233.552 402.606 233.754 402.266 233.893C401.927 234.032 401.574 234.102 401.207 234.102ZM400.046 230.823H402.195C402.195 230.612 402.154 230.419 402.073 230.242C401.995 230.066 401.876 229.927 401.717 229.825C401.56 229.723 401.363 229.672 401.126 229.672C400.898 229.672 400.703 229.728 400.54 229.84C400.381 229.949 400.257 230.091 400.169 230.268C400.084 230.444 400.043 230.629 400.046 230.823ZM406.647 234.102C405.941 234.102 405.391 233.859 404.997 233.374C404.604 232.885 404.407 232.206 404.407 231.337C404.407 230.787 404.486 230.31 404.646 229.906C404.806 229.502 405.041 229.19 405.354 228.969C405.666 228.745 406.048 228.633 406.499 228.633C406.689 228.633 406.866 228.655 407.029 228.7C407.195 228.74 407.346 228.798 407.482 228.873C407.618 228.947 407.737 229.034 407.838 229.132C407.94 229.231 408.023 229.336 408.088 229.448V226.434H409.58V234H408.5L408.332 232.921C408.281 233.067 408.214 233.209 408.129 233.348C408.047 233.487 407.94 233.615 407.808 233.73C407.676 233.842 407.513 233.932 407.319 234C407.129 234.068 406.905 234.102 406.647 234.102ZM406.973 233.033C407.346 233.033 407.625 232.902 407.808 232.641C407.995 232.379 408.088 231.938 408.088 231.317C408.085 230.957 408.042 230.658 407.961 230.421C407.879 230.183 407.757 230.006 407.594 229.891C407.435 229.772 407.231 229.713 406.983 229.713C406.661 229.713 406.392 229.837 406.179 230.085C405.965 230.329 405.858 230.74 405.858 231.317C405.858 231.904 405.958 232.337 406.158 232.615C406.358 232.893 406.63 233.033 406.973 233.033ZM410.719 234V232.381H412.349V234H410.719Z" fill="#4E4E4E"/>
<path d="M218.36 44.0899L430.568 44.0899C438.662 44.0899 444.7 44.0904 449.487 44.4815C454.268 44.8721 457.754 45.6497 460.753 47.1778C466.084 49.8939 470.418 54.2279 473.134 59.5586C474.662 62.5576 475.439 66.0436 475.83 70.8246C476.221 75.6119 476.222 81.6497 476.222 89.7434L476.222 537.256C476.222 545.35 476.221 551.388 475.83 556.175C475.439 560.956 474.662 564.442 473.134 567.441C470.418 572.772 466.084 577.106 460.753 579.822C457.754 581.35 454.268 582.128 449.487 582.518C444.7 582.909 438.662 582.91 430.568 582.91L218.36 582.91C210.267 582.91 204.229 582.909 199.442 582.518C194.661 582.128 191.175 581.35 188.176 579.822C182.845 577.106 178.511 572.772 175.795 567.441C174.267 564.442 173.489 560.956 173.098 556.175C172.707 551.388 172.707 545.35 172.707 537.256L172.707 89.7435C172.707 81.6497 172.707 75.6119 173.098 70.8246C173.489 66.0436 174.267 62.5576 175.795 59.5586C178.511 54.2279 182.845 49.8939 188.176 47.1778C191.175 45.6497 194.661 44.8721 199.442 44.4815C204.229 44.0904 210.267 44.0899 218.36 44.0899Z" stroke="#CFD9F0" stroke-width="1.08269"/>
<path d="M259.064 80.816L261.944 80.816C261.672 78.16 260.008 76.304 256.888 76.304C253.272 76.304 251.336 78.832 251.336 82.272C251.336 85.728 253.272 88.256 256.888 88.256C260.024 88.256 261.688 86.4 261.944 83.712L259.064 83.712C258.872 84.992 258.296 85.904 256.76 85.904C254.856 85.904 254.216 84.432 254.216 82.272C254.216 80.128 254.856 78.656 256.76 78.656C258.28 78.656 258.856 79.568 259.064 80.816ZM266.968 88.256C264.232 88.256 262.584 86.448 262.584 83.904C262.584 81.36 264.232 79.552 266.968 79.552C269.688 79.552 271.336 81.36 271.336 83.904C271.336 86.448 269.688 88.256 266.968 88.256ZM266.968 86.336C268.088 86.336 268.776 85.488 268.776 83.904C268.776 82.32 268.088 81.472 266.968 81.472C265.832 81.472 265.144 82.32 265.144 83.904C265.144 85.488 265.832 86.336 266.968 86.336ZM277.498 79.552C276.042 79.552 275.242 80.24 274.81 80.992L274.778 80.992L274.778 79.808L272.218 79.808L272.218 88L274.778 88L274.778 83.264C274.778 82.128 275.338 81.632 276.314 81.632C277.162 81.632 277.594 82.048 277.594 83.28L277.594 88L280.154 88L280.154 82.464C280.154 80.592 279.082 79.552 277.498 79.552ZM285.858 81.728L285.858 79.808L284.434 79.808L284.434 77.52L281.874 77.52L281.874 79.808L280.738 79.808L280.738 81.728L281.874 81.728L281.874 85.312C281.874 87.152 282.402 88.144 284.274 88.144C284.994 88.144 285.394 88.064 285.858 87.968L285.858 86.048C284.77 86.048 284.434 86.048 284.434 85.12L284.434 81.728L285.858 81.728ZM291.388 79.664C290.492 79.664 289.788 80.24 289.388 81.152L289.356 81.152L289.356 79.808L286.796 79.808L286.796 88L289.356 88L289.356 84.192C289.356 82.448 290.748 81.728 292.06 81.968L292.092 81.968L292.092 79.728C291.804 79.664 291.612 79.664 291.388 79.664ZM297.518 82.08C297.518 82.768 296.478 82.928 295.422 83.136C293.502 83.52 292.302 84.272 292.302 85.904C292.302 87.28 293.262 88.256 294.99 88.256C296.078 88.256 297.038 87.744 297.566 87.136L297.598 87.136C297.598 87.712 297.918 88.256 299.07 88.256C299.582 88.256 300.046 88.192 300.558 88L300.558 87.392C300.238 87.392 300.078 87.216 300.078 86.784L300.078 83.024C300.078 80.448 298.798 79.552 296.494 79.552C293.822 79.552 292.702 80.88 292.622 82.448L295.022 82.448C295.102 81.664 295.55 81.312 296.478 81.312C297.182 81.312 297.518 81.6 297.518 82.08ZM295.886 86.496C295.262 86.496 294.862 86.208 294.862 85.536C294.862 85.024 295.198 84.608 296.206 84.384C296.798 84.256 297.198 84.144 297.518 84.016L297.518 85.008C297.518 85.792 296.99 86.496 295.886 86.496ZM306.826 82.864L309.338 82.864C309.13 80.96 307.706 79.552 305.322 79.552C302.794 79.552 301.162 81.36 301.162 83.904C301.162 86.464 302.794 88.256 305.386 88.256C307.738 88.256 309.21 86.848 309.338 84.912L306.826 84.912C306.746 85.648 306.394 86.336 305.37 86.336C304.298 86.336 303.722 85.44 303.722 83.904C303.722 82.368 304.314 81.472 305.37 81.472C306.394 81.472 306.746 82.208 306.826 82.864ZM314.843 81.728L314.843 79.808L313.419 79.808L313.419 77.52L310.859 77.52L310.859 79.808L309.723 79.808L309.723 81.728L310.859 81.728L310.859 85.312C310.859 87.152 311.387 88.144 313.259 88.144C313.979 88.144 314.379 88.064 314.843 87.968L314.843 86.048C313.755 86.048 313.419 86.048 313.419 85.12L313.419 81.728L314.843 81.728ZM318.675 76.56L318.675 88L321.555 88L321.555 76.56L318.675 76.56ZM328.248 79.552C326.792 79.552 325.992 80.24 325.56 80.992L325.528 80.992L325.528 79.808L322.968 79.808L322.968 88L325.528 88L325.528 83.264C325.528 82.128 326.088 81.632 327.064 81.632C327.912 81.632 328.344 82.048 328.344 83.28L328.344 88L330.904 88L330.904 82.464C330.904 80.592 329.832 79.552 328.248 79.552ZM336.608 81.728L336.608 79.808L335.184 79.808L335.184 77.52L332.624 77.52L332.624 79.808L331.488 79.808L331.488 81.728L332.624 81.728L332.624 85.312C332.624 87.152 333.152 88.144 335.024 88.144C335.744 88.144 336.144 88.064 336.608 87.968L336.608 86.048C335.52 86.048 335.184 86.048 335.184 85.12L335.184 81.728L336.608 81.728ZM341.42 86.336C340.508 86.336 339.66 85.728 339.66 84.576L345.548 84.576C345.548 81.6 344.124 79.552 341.324 79.552C338.716 79.552 337.1 81.408 337.1 83.904C337.1 86.464 338.748 88.256 341.468 88.256C343.692 88.256 344.972 87.168 345.42 85.52L342.876 85.52C342.716 85.92 342.3 86.336 341.42 86.336ZM341.324 81.312C342.3 81.312 342.988 81.888 342.988 83.024L339.66 83.024C339.66 81.888 340.348 81.312 341.324 81.312ZM351.013 79.664C350.117 79.664 349.413 80.24 349.013 81.152L348.981 81.152L348.981 79.808L346.421 79.808L346.421 88L348.981 88L348.981 84.192C348.981 82.448 350.373 81.728 351.685 81.968L351.717 81.968L351.717 79.728C351.429 79.664 351.237 79.664 351.013 79.664ZM357.143 82.08C357.143 82.768 356.103 82.928 355.047 83.136C353.127 83.52 351.927 84.272 351.927 85.904C351.927 87.28 352.887 88.256 354.615 88.256C355.703 88.256 356.663 87.744 357.191 87.136L357.223 87.136C357.223 87.712 357.543 88.256 358.695 88.256C359.207 88.256 359.671 88.192 360.183 88L360.183 87.392C359.863 87.392 359.703 87.216 359.703 86.784L359.703 83.024C359.703 80.448 358.423 79.552 356.119 79.552C353.447 79.552 352.327 80.88 352.247 82.448L354.647 82.448C354.727 81.664 355.175 81.312 356.103 81.312C356.807 81.312 357.143 81.6 357.143 82.08ZM355.511 86.496C354.887 86.496 354.487 86.208 354.487 85.536C354.487 85.024 354.823 84.608 355.831 84.384C356.423 84.256 356.823 84.144 357.143 84.016L357.143 85.008C357.143 85.792 356.615 86.496 355.511 86.496ZM366.451 82.864L368.963 82.864C368.755 80.96 367.331 79.552 364.947 79.552C362.419 79.552 360.787 81.36 360.787 83.904C360.787 86.464 362.419 88.256 365.011 88.256C367.363 88.256 368.835 86.848 368.963 84.912L366.451 84.912C366.371 85.648 366.019 86.336 364.995 86.336C363.923 86.336 363.347 85.44 363.347 83.904C363.347 82.368 363.939 81.472 364.995 81.472C366.019 81.472 366.371 82.208 366.451 82.864ZM374.468 81.728L374.468 79.808L373.044 79.808L373.044 77.52L370.484 77.52L370.484 79.808L369.348 79.808L369.348 81.728L370.484 81.728L370.484 85.312C370.484 87.152 371.012 88.144 372.884 88.144C373.604 88.144 374.004 88.064 374.468 87.968L374.468 86.048C373.38 86.048 373.044 86.048 373.044 85.12L373.044 81.728L374.468 81.728ZM376.685 78.832C377.405 78.832 377.965 78.448 377.965 77.696C377.965 76.96 377.405 76.56 376.685 76.56C375.965 76.56 375.405 76.96 375.405 77.696C375.405 78.448 375.965 78.832 376.685 78.832ZM375.405 79.808L375.405 88L377.965 88L377.965 79.808L375.405 79.808ZM383.234 88.256C380.498 88.256 378.85 86.448 378.85 83.904C378.85 81.36 380.498 79.552 383.234 79.552C385.954 79.552 387.602 81.36 387.602 83.904C387.602 86.448 385.954 88.256 383.234 88.256ZM383.234 86.336C384.354 86.336 385.042 85.488 385.042 83.904C385.042 82.32 384.354 81.472 383.234 81.472C382.098 81.472 381.41 82.32 381.41 83.904C381.41 85.488 382.098 86.336 383.234 86.336ZM393.763 79.552C392.307 79.552 391.507 80.24 391.075 80.992L391.043 80.992L391.043 79.808L388.483 79.808L388.483 88L391.043 88L391.043 83.264C391.043 82.128 391.603 81.632 392.579 81.632C393.427 81.632 393.859 82.048 393.859 83.28L393.859 88L396.419 88L396.419 82.464C396.419 80.592 395.347 79.552 393.763 79.552Z" fill="#4E4E4E"/>
<rect x="196" y="394" width="256" height="40" rx="8" fill="#5578F8"/>
<path d="M300.571 417.624L301.305 420L304.176 420L300.061 408.596L297.19 408.596L293.059 420L295.93 420L296.664 417.624L300.571 417.624ZM297.318 415.439L298.61 411.228L298.642 411.228L299.934 415.439L297.318 415.439ZM309.762 411.579C308.582 411.579 307.721 412.217 307.402 412.648L307.37 412.648L307.37 411.834L304.818 411.834L304.818 422.823L307.37 422.823L307.37 419.187L307.402 419.187C307.721 419.617 308.582 420.255 309.762 420.255C311.931 420.255 313.319 418.596 313.319 415.917C313.319 413.238 311.931 411.579 309.762 411.579ZM309.092 418.341C308.056 418.341 307.418 417.512 307.418 415.917C307.418 414.322 308.056 413.493 309.092 413.493C310.129 413.493 310.767 414.322 310.767 415.917C310.767 417.512 310.129 418.341 309.092 418.341ZM319.201 411.579C318.021 411.579 317.159 412.217 316.84 412.648L316.809 412.648L316.809 411.834L314.257 411.834L314.257 422.823L316.809 422.823L316.809 419.187L316.84 419.187C317.159 419.617 318.021 420.255 319.201 420.255C321.37 420.255 322.758 418.596 322.758 415.917C322.758 413.238 321.37 411.579 319.201 411.579ZM318.531 418.341C317.494 418.341 316.856 417.512 316.856 415.917C316.856 414.322 317.494 413.493 318.531 413.493C319.568 413.493 320.206 414.322 320.206 415.917C320.206 417.512 319.568 418.341 318.531 418.341ZM328.273 411.691C327.38 411.691 326.678 412.265 326.279 413.174L326.247 413.174L326.247 411.834L323.695 411.834L323.695 420L326.247 420L326.247 416.204C326.247 414.466 327.635 413.748 328.943 413.987L328.974 413.987L328.974 411.754C328.687 411.691 328.496 411.691 328.273 411.691ZM333.648 420.255C330.921 420.255 329.278 418.453 329.278 415.917C329.278 413.381 330.921 411.579 333.648 411.579C336.36 411.579 338.002 413.381 338.002 415.917C338.002 418.453 336.36 420.255 333.648 420.255ZM333.648 418.341C334.765 418.341 335.45 417.496 335.45 415.917C335.45 414.338 334.765 413.493 333.648 413.493C332.516 413.493 331.83 414.338 331.83 415.917C331.83 417.496 332.516 418.341 333.648 418.341ZM337.9 411.834L340.723 420L343.53 420L346.353 411.834L343.801 411.834L342.142 417.161L342.11 417.161L340.452 411.834L337.9 411.834ZM350.561 418.341C349.652 418.341 348.807 417.735 348.807 416.587L354.676 416.587C354.676 413.62 353.257 411.579 350.466 411.579C347.866 411.579 346.255 413.429 346.255 415.917C346.255 418.469 347.898 420.255 350.609 420.255C352.826 420.255 354.102 419.171 354.549 417.528L352.013 417.528C351.853 417.927 351.439 418.341 350.561 418.341ZM350.466 413.333C351.439 413.333 352.124 413.907 352.124 415.04L348.807 415.04C348.807 413.907 349.493 413.333 350.466 413.333Z" fill="white"/>
<rect x="196" y="262" width="256" height="108" rx="8" fill="#5578F8" fill-opacity="0.12"/>
<path d="M352.224 292.252C352.224 292.493 352.299 292.699 352.449 292.869C352.602 293.035 352.829 293.118 353.128 293.118C353.423 293.118 353.649 293.035 353.807 292.869C353.965 292.703 354.044 292.497 354.044 292.252C354.044 292.003 353.965 291.793 353.807 291.623C353.653 291.449 353.427 291.361 353.128 291.361C352.825 291.361 352.598 291.449 352.449 291.623C352.299 291.798 352.224 292.007 352.224 292.252ZM363.065 289.53V287.405C363.065 286.828 362.999 286.317 362.866 285.873C362.733 285.424 362.542 285.046 362.293 284.739C362.039 284.432 361.73 284.199 361.364 284.041C361.003 283.879 360.59 283.798 360.125 283.798C359.664 283.798 359.25 283.879 358.885 284.041C358.524 284.199 358.218 284.432 357.969 284.739C357.716 285.046 357.523 285.424 357.39 285.873C357.257 286.317 357.19 286.828 357.19 287.405V289.53C357.19 290.107 357.257 290.62 357.39 291.069C357.523 291.513 357.716 291.887 357.969 292.19C358.222 292.502 358.532 292.736 358.897 292.894C359.263 293.048 359.676 293.125 360.137 293.125C360.602 293.125 361.016 293.046 361.377 292.888C361.738 292.73 362.044 292.497 362.293 292.19C362.542 291.887 362.733 291.513 362.866 291.069C362.999 290.62 363.065 290.107 363.065 289.53ZM358.349 289.299C358.349 289.191 358.349 289.085 358.349 288.982C358.349 288.878 358.349 288.774 358.349 288.67V287.15C358.349 286.726 358.391 286.355 358.474 286.035C358.561 285.711 358.692 285.447 358.866 285.244C359.012 285.082 359.188 284.959 359.396 284.876C359.608 284.789 359.851 284.745 360.125 284.745C360.395 284.745 360.631 284.785 360.835 284.864C361.043 284.942 361.217 285.061 361.358 285.219C361.504 285.372 361.618 285.565 361.701 285.798C361.788 286.026 361.848 286.29 361.882 286.589L358.349 289.299ZM361.906 289.773C361.906 290.217 361.861 290.603 361.769 290.932C361.682 291.26 361.543 291.526 361.352 291.729C361.211 291.879 361.038 291.993 360.835 292.072C360.631 292.151 360.399 292.19 360.137 292.19C359.888 292.19 359.664 292.155 359.464 292.084C359.265 292.009 359.095 291.901 358.953 291.76C358.8 291.611 358.675 291.422 358.58 291.193C358.484 290.961 358.418 290.693 358.38 290.39L361.906 287.692C361.906 287.808 361.906 287.956 361.906 288.134C361.906 288.309 361.906 288.427 361.906 288.489V289.773ZM370.218 289.53V287.405C370.218 286.828 370.151 286.317 370.019 285.873C369.886 285.424 369.695 285.046 369.445 284.739C369.192 284.432 368.883 284.199 368.517 284.041C368.156 283.879 367.742 283.798 367.277 283.798C366.816 283.798 366.403 283.879 366.037 284.041C365.676 284.199 365.371 284.432 365.122 284.739C364.868 285.046 364.675 285.424 364.542 285.873C364.409 286.317 364.343 286.828 364.343 287.405V289.53C364.343 290.107 364.409 290.62 364.542 291.069C364.675 291.513 364.868 291.887 365.122 292.19C365.375 292.502 365.684 292.736 366.05 292.894C366.415 293.048 366.829 293.125 367.29 293.125C367.755 293.125 368.168 293.046 368.53 292.888C368.891 292.73 369.196 292.497 369.445 292.19C369.695 291.887 369.886 291.513 370.019 291.069C370.151 290.62 370.218 290.107 370.218 289.53ZM365.502 289.299C365.502 289.191 365.502 289.085 365.502 288.982C365.502 288.878 365.502 288.774 365.502 288.67V287.15C365.502 286.726 365.543 286.355 365.626 286.035C365.714 285.711 365.844 285.447 366.019 285.244C366.164 285.082 366.341 284.959 366.548 284.876C366.76 284.789 367.003 284.745 367.277 284.745C367.547 284.745 367.784 284.785 367.988 284.864C368.195 284.942 368.37 285.061 368.511 285.219C368.656 285.372 368.77 285.565 368.853 285.798C368.941 286.026 369.001 286.29 369.034 286.589L365.502 289.299ZM369.059 289.773C369.059 290.217 369.013 290.603 368.922 290.932C368.835 291.26 368.696 291.526 368.505 291.729C368.363 291.879 368.191 291.993 367.988 292.072C367.784 292.151 367.551 292.19 367.29 292.19C367.041 292.19 366.816 292.155 366.617 292.084C366.418 292.009 366.247 291.901 366.106 291.76C365.952 291.611 365.828 291.422 365.732 291.193C365.637 290.961 365.57 290.693 365.533 290.39L369.059 287.692C369.059 287.808 369.059 287.956 369.059 288.134C369.059 288.309 369.059 288.427 369.059 288.489V289.773ZM372.087 288.452L373.009 288.689C373.113 288.597 373.213 288.516 373.308 288.446C373.408 288.375 373.514 288.315 373.626 288.265C373.738 288.215 373.863 288.178 374 288.153C374.141 288.124 374.307 288.109 374.498 288.109C374.789 288.109 375.047 288.161 375.271 288.265C375.495 288.369 375.684 288.51 375.838 288.689C375.992 288.872 376.108 289.085 376.187 289.33C376.27 289.576 376.311 289.839 376.311 290.122C376.311 290.433 376.274 290.716 376.199 290.969C376.129 291.222 376.023 291.438 375.882 291.617C375.736 291.8 375.558 291.941 375.346 292.041C375.134 292.136 374.891 292.184 374.617 292.184C374.131 292.184 373.732 292.051 373.421 291.785C373.113 291.519 372.924 291.129 372.854 290.614H371.757C371.799 291.033 371.901 291.401 372.062 291.717C372.229 292.032 372.44 292.294 372.698 292.502C372.951 292.709 373.242 292.865 373.57 292.969C373.898 293.073 374.247 293.125 374.617 293.125C375.099 293.125 375.518 293.05 375.875 292.9C376.232 292.747 376.529 292.535 376.766 292.265C376.999 291.999 377.173 291.681 377.29 291.312C377.406 290.942 377.464 290.541 377.464 290.109C377.464 289.652 377.402 289.237 377.277 288.863C377.152 288.489 376.974 288.17 376.741 287.904C376.509 287.642 376.226 287.439 375.894 287.293C375.562 287.148 375.186 287.075 374.766 287.075C374.438 287.075 374.15 287.115 373.9 287.194C373.651 287.272 373.437 287.364 373.259 287.468L373.514 285.05H377.196V283.929H372.542L372.087 288.452ZM390.972 288.807V287.829H387.184V284.913H391.545V283.929H386.031V293H391.601V292.022H387.184V288.807H390.972ZM399.252 284.913V283.929H392.524V284.913H395.327V293H396.449V284.913H399.252ZM405.975 293V283.929H404.885V287.829H401.165V283.929H400.081V293H401.165V288.807H404.885V293H405.975Z" fill="#4E4E4E"/>
<path d="M351.763 346.997C351.763 347.317 351.871 347.585 352.087 347.801C352.303 348.017 352.596 348.125 352.966 348.125C353.331 348.125 353.622 348.019 353.838 347.807C354.058 347.591 354.168 347.321 354.168 346.997C354.168 346.673 354.06 346.401 353.844 346.181C353.632 345.961 353.34 345.851 352.966 345.851C352.588 345.851 352.293 345.963 352.081 346.187C351.869 346.407 351.763 346.677 351.763 346.997ZM363.071 344.549V342.38C363.071 341.795 363.003 341.28 362.866 340.835C362.729 340.387 362.534 340.011 362.28 339.708C362.023 339.409 361.711 339.182 361.346 339.029C360.98 338.875 360.569 338.798 360.112 338.798C359.659 338.798 359.25 338.875 358.885 339.029C358.524 339.182 358.216 339.409 357.963 339.708C357.705 340.011 357.508 340.387 357.371 340.835C357.234 341.28 357.165 341.795 357.165 342.38V344.549C357.165 345.134 357.234 345.651 357.371 346.1C357.512 346.544 357.712 346.916 357.969 347.215C358.222 347.518 358.532 347.747 358.897 347.9C359.263 348.054 359.672 348.131 360.125 348.131C360.582 348.131 360.993 348.054 361.358 347.9C361.724 347.747 362.033 347.518 362.286 347.215C362.54 346.916 362.733 346.544 362.866 346.1C363.003 345.651 363.071 345.134 363.071 344.549ZM358.91 343.801C358.91 343.672 358.91 343.575 358.91 343.508C358.91 343.442 358.91 343.309 358.91 343.109V342.106C358.91 341.77 358.935 341.479 358.985 341.234C359.039 340.989 359.12 340.79 359.228 340.636C359.327 340.491 359.45 340.383 359.595 340.312C359.745 340.237 359.917 340.2 360.112 340.2C360.287 340.2 360.442 340.229 360.579 340.287C360.721 340.341 360.839 340.426 360.935 340.543C361.059 340.688 361.153 340.883 361.215 341.128C361.281 341.369 361.319 341.66 361.327 342L358.91 343.801ZM361.327 344.81C361.327 345.147 361.3 345.439 361.246 345.689C361.196 345.934 361.119 346.135 361.016 346.293C360.916 346.442 360.791 346.555 360.642 346.629C360.492 346.7 360.32 346.735 360.125 346.735C359.913 346.735 359.73 346.694 359.576 346.611C359.423 346.528 359.296 346.401 359.196 346.231C359.109 346.089 359.041 345.913 358.991 345.701C358.945 345.489 358.918 345.246 358.91 344.972L361.327 343.178C361.327 343.298 361.327 343.392 361.327 343.458C361.327 343.521 361.327 343.62 361.327 343.757V344.81ZM370.224 344.549V342.38C370.224 341.795 370.156 341.28 370.019 340.835C369.881 340.387 369.686 340.011 369.433 339.708C369.175 339.409 368.864 339.182 368.498 339.029C368.133 338.875 367.722 338.798 367.265 338.798C366.812 338.798 366.403 338.875 366.037 339.029C365.676 339.182 365.369 339.409 365.115 339.708C364.858 340.011 364.661 340.387 364.524 340.835C364.387 341.28 364.318 341.795 364.318 342.38V344.549C364.318 345.134 364.387 345.651 364.524 346.1C364.665 346.544 364.864 346.916 365.122 347.215C365.375 347.518 365.684 347.747 366.05 347.9C366.415 348.054 366.825 348.131 367.277 348.131C367.734 348.131 368.145 348.054 368.511 347.9C368.876 347.747 369.186 347.518 369.439 347.215C369.692 346.916 369.886 346.544 370.019 346.1C370.156 345.651 370.224 345.134 370.224 344.549ZM366.062 343.801C366.062 343.672 366.062 343.575 366.062 343.508C366.062 343.442 366.062 343.309 366.062 343.109V342.106C366.062 341.77 366.087 341.479 366.137 341.234C366.191 340.989 366.272 340.79 366.38 340.636C366.48 340.491 366.602 340.383 366.748 340.312C366.897 340.237 367.07 340.2 367.265 340.2C367.439 340.2 367.595 340.229 367.732 340.287C367.873 340.341 367.992 340.426 368.087 340.543C368.212 340.688 368.305 340.883 368.368 341.128C368.434 341.369 368.471 341.66 368.48 342L366.062 343.801ZM368.48 344.81C368.48 345.147 368.453 345.439 368.399 345.689C368.349 345.934 368.272 346.135 368.168 346.293C368.069 346.442 367.944 346.555 367.794 346.629C367.645 346.7 367.472 346.735 367.277 346.735C367.065 346.735 366.883 346.694 366.729 346.611C366.575 346.528 366.449 346.401 366.349 346.231C366.262 346.089 366.193 345.913 366.143 345.701C366.098 345.489 366.071 345.246 366.062 344.972L368.48 343.178C368.48 343.298 368.48 343.392 368.48 343.458C368.48 343.521 368.48 343.62 368.48 343.757V344.81ZM371.558 343.533L372.941 343.876C373.007 343.809 373.078 343.747 373.153 343.689C373.228 343.626 373.313 343.572 373.408 343.527C373.504 343.481 373.614 343.444 373.738 343.415C373.863 343.386 374.01 343.371 374.181 343.371C374.434 343.371 374.654 343.411 374.841 343.489C375.028 343.568 375.184 343.68 375.308 343.826C375.433 343.971 375.524 344.146 375.582 344.349C375.645 344.549 375.676 344.769 375.676 345.01C375.676 345.255 375.651 345.483 375.601 345.695C375.555 345.907 375.483 346.089 375.383 346.243C375.279 346.397 375.144 346.517 374.978 346.604C374.816 346.692 374.619 346.735 374.386 346.735C374.008 346.735 373.697 346.627 373.452 346.411C373.211 346.195 373.07 345.89 373.028 345.496H371.321C371.334 345.915 371.427 346.289 371.601 346.617C371.78 346.941 372.011 347.215 372.293 347.439C372.575 347.664 372.897 347.834 373.259 347.95C373.624 348.066 374.002 348.125 374.393 348.125C374.908 348.125 375.354 348.044 375.732 347.882C376.11 347.72 376.424 347.5 376.673 347.221C376.922 346.943 377.107 346.621 377.227 346.256C377.348 345.89 377.408 345.504 377.408 345.097C377.408 344.619 377.346 344.191 377.221 343.813C377.096 343.435 376.918 343.116 376.685 342.854C376.448 342.592 376.158 342.393 375.813 342.256C375.472 342.115 375.084 342.044 374.648 342.044C374.341 342.044 374.069 342.083 373.832 342.162C373.595 342.241 373.412 342.318 373.284 342.393L373.502 340.399H377.109V338.929H372.075L371.558 343.533ZM391.296 344.025V342.642H387.57V340.356H391.906V338.929H385.813V348H391.925V346.586H387.57V344.025H391.296ZM399.532 340.356V338.929H392.218V340.356H394.978V348H396.735V340.356H399.532ZM406.006 348V338.929H404.274V342.648H401.707V338.929H399.969V348H401.707V344.069H404.274V348H406.006Z" fill="#5578F8"/>
<path d="M245.587 287.264L247.747 287.264C247.543 285.62 246.235 284.228 243.883 284.228C241.183 284.228 239.731 286.124 239.731 288.704C239.731 291.296 241.183 293.192 243.619 293.192C244.879 293.192 245.683 292.688 246.091 291.908L246.115 291.908L246.331 293L247.879 293L247.879 288.44L244.015 288.44L244.015 290L245.647 290C245.623 290.828 244.927 291.428 243.931 291.428C242.431 291.428 241.891 290.324 241.891 288.704C241.891 287.096 242.431 285.992 243.847 285.992C245.035 285.992 245.431 286.676 245.587 287.264ZM252.418 288.56C252.418 289.076 251.638 289.196 250.846 289.352C249.406 289.64 248.506 290.204 248.506 291.428C248.506 292.46 249.226 293.192 250.522 293.192C251.338 293.192 252.058 292.808 252.454 292.352L252.478 292.352C252.478 292.784 252.718 293.192 253.582 293.192C253.966 293.192 254.314 293.144 254.698 293L254.698 292.544C254.458 292.544 254.338 292.412 254.338 292.088L254.338 289.268C254.338 287.336 253.378 286.664 251.65 286.664C249.646 286.664 248.806 287.66 248.746 288.836L250.546 288.836C250.606 288.248 250.942 287.984 251.638 287.984C252.166 287.984 252.418 288.2 252.418 288.56ZM251.194 291.872C250.726 291.872 250.426 291.656 250.426 291.152C250.426 290.768 250.678 290.456 251.434 290.288C251.878 290.192 252.178 290.108 252.418 290.012L252.418 290.756C252.418 291.344 252.022 291.872 251.194 291.872ZM258.427 289.124C257.479 288.92 257.095 288.908 257.095 288.476C257.095 288.176 257.371 287.984 257.911 287.984C258.535 287.984 258.799 288.248 258.859 288.74L260.659 288.74C260.599 287.66 259.831 286.664 257.863 286.664C256.135 286.664 255.175 287.516 255.175 288.632C255.175 289.916 256.327 290.3 257.371 290.528C258.343 290.744 258.919 290.816 258.919 291.344C258.919 291.692 258.619 291.872 258.079 291.872C257.323 291.872 256.915 291.572 256.855 290.96L255.055 290.96C255.115 292.208 255.955 293.192 258.151 293.192C259.855 293.192 260.839 292.484 260.839 291.188C260.839 289.796 259.639 289.388 258.427 289.124ZM263.633 293L265.793 293L265.793 289.892L267.797 289.892C269.585 289.892 270.701 288.956 270.701 287.156C270.701 285.356 269.585 284.42 267.797 284.42L263.633 284.42L263.633 293ZM265.793 286.184L267.341 286.184C268.085 286.184 268.541 286.436 268.541 287.156C268.541 287.876 268.085 288.128 267.341 288.128L265.793 288.128L265.793 286.184ZM274.785 286.748C274.113 286.748 273.585 287.18 273.285 287.864L273.261 287.864L273.261 286.856L271.341 286.856L271.341 293L273.261 293L273.261 290.144C273.261 288.836 274.305 288.296 275.289 288.476L275.313 288.476L275.313 286.796C275.097 286.748 274.953 286.748 274.785 286.748ZM276.895 286.124C277.435 286.124 277.855 285.836 277.855 285.272C277.855 284.72 277.435 284.42 276.895 284.42C276.355 284.42 275.935 284.72 275.935 285.272C275.935 285.836 276.355 286.124 276.895 286.124ZM275.935 286.856L275.935 293L277.855 293L277.855 286.856L275.935 286.856ZM282.766 289.148L284.65 289.148C284.494 287.72 283.426 286.664 281.638 286.664C279.742 286.664 278.518 288.02 278.518 289.928C278.518 291.848 279.742 293.192 281.686 293.192C283.45 293.192 284.554 292.136 284.65 290.684L282.766 290.684C282.706 291.236 282.442 291.752 281.674 291.752C280.87 291.752 280.438 291.08 280.438 289.928C280.438 288.776 280.882 288.104 281.674 288.104C282.442 288.104 282.706 288.656 282.766 289.148ZM288.239 291.752C287.555 291.752 286.919 291.296 286.919 290.432L291.335 290.432C291.335 288.2 290.267 286.664 288.167 286.664C286.211 286.664 284.999 288.056 284.999 289.928C284.999 291.848 286.235 293.192 288.275 293.192C289.943 293.192 290.903 292.376 291.239 291.14L289.331 291.14C289.211 291.44 288.899 291.752 288.239 291.752ZM288.167 287.984C288.899 287.984 289.415 288.416 289.415 289.268L286.919 289.268C286.919 288.416 287.435 287.984 288.167 287.984Z" fill="#4E4E4E"/>
<path d="M241.925 348L244.085 348L244.085 341.184L246.569 341.184L246.569 339.42L239.429 339.42L239.429 341.184L241.925 341.184L241.925 348ZM249.898 341.748C249.226 341.748 248.698 342.18 248.398 342.864L248.374 342.864L248.374 341.856L246.454 341.856L246.454 348L248.374 348L248.374 345.144C248.374 343.836 249.418 343.296 250.402 343.476L250.426 343.476L250.426 341.796C250.21 341.748 250.066 341.748 249.898 341.748ZM254.496 343.56C254.496 344.076 253.716 344.196 252.924 344.352C251.484 344.64 250.584 345.204 250.584 346.428C250.584 347.46 251.304 348.192 252.6 348.192C253.416 348.192 254.136 347.808 254.532 347.352L254.556 347.352C254.556 347.784 254.796 348.192 255.66 348.192C256.044 348.192 256.392 348.144 256.776 348L256.776 347.544C256.536 347.544 256.416 347.412 256.416 347.088L256.416 344.268C256.416 342.336 255.456 341.664 253.728 341.664C251.724 341.664 250.884 342.66 250.824 343.836L252.624 343.836C252.684 343.248 253.02 342.984 253.716 342.984C254.244 342.984 254.496 343.2 254.496 343.56ZM253.272 346.872C252.804 346.872 252.504 346.656 252.504 346.152C252.504 345.768 252.756 345.456 253.512 345.288C253.956 345.192 254.256 345.108 254.496 345.012L254.496 345.756C254.496 346.344 254.1 346.872 253.272 346.872ZM261.465 341.664C260.373 341.664 259.773 342.18 259.449 342.744L259.425 342.744L259.425 341.856L257.505 341.856L257.505 348L259.425 348L259.425 344.448C259.425 343.596 259.845 343.224 260.577 343.224C261.213 343.224 261.537 343.536 261.537 344.46L261.537 348L263.457 348L263.457 343.848C263.457 342.444 262.653 341.664 261.465 341.664ZM267.349 344.124C266.401 343.92 266.017 343.908 266.017 343.476C266.017 343.176 266.293 342.984 266.833 342.984C267.457 342.984 267.721 343.248 267.781 343.74L269.581 343.74C269.521 342.66 268.753 341.664 266.785 341.664C265.057 341.664 264.097 342.516 264.097 343.632C264.097 344.916 265.249 345.3 266.293 345.528C267.265 345.744 267.841 345.816 267.841 346.344C267.841 346.692 267.541 346.872 267.001 346.872C266.245 346.872 265.837 346.572 265.777 345.96L263.977 345.96C264.037 347.208 264.877 348.192 267.073 348.192C268.777 348.192 269.761 347.484 269.761 346.188C269.761 344.796 268.561 344.388 267.349 344.124ZM274.078 343.56C274.078 344.076 273.298 344.196 272.506 344.352C271.066 344.64 270.166 345.204 270.166 346.428C270.166 347.46 270.886 348.192 272.182 348.192C272.998 348.192 273.718 347.808 274.114 347.352L274.138 347.352C274.138 347.784 274.378 348.192 275.242 348.192C275.626 348.192 275.974 348.144 276.358 348L276.358 347.544C276.118 347.544 275.998 347.412 275.998 347.088L275.998 344.268C275.998 342.336 275.038 341.664 273.31 341.664C271.306 341.664 270.466 342.66 270.406 343.836L272.206 343.836C272.266 343.248 272.602 342.984 273.298 342.984C273.826 342.984 274.078 343.2 274.078 343.56ZM272.854 346.872C272.386 346.872 272.086 346.656 272.086 346.152C272.086 345.768 272.338 345.456 273.094 345.288C273.538 345.192 273.838 345.108 274.078 345.012L274.078 345.756C274.078 346.344 273.682 346.872 272.854 346.872ZM281.059 344.148L282.943 344.148C282.787 342.72 281.719 341.664 279.931 341.664C278.035 341.664 276.811 343.02 276.811 344.928C276.811 346.848 278.035 348.192 279.979 348.192C281.743 348.192 282.847 347.136 282.943 345.684L281.059 345.684C280.999 346.236 280.735 346.752 279.967 346.752C279.163 346.752 278.731 346.08 278.731 344.928C278.731 343.776 279.175 343.104 279.967 343.104C280.735 343.104 280.999 343.656 281.059 344.148ZM287.072 343.296L287.072 341.856L286.004 341.856L286.004 340.14L284.084 340.14L284.084 341.856L283.232 341.856L283.232 343.296L284.084 343.296L284.084 345.984C284.084 347.364 284.48 348.108 285.884 348.108C286.424 348.108 286.724 348.048 287.072 347.976L287.072 346.536C286.256 346.536 286.004 346.536 286.004 345.84L286.004 343.296L287.072 343.296ZM288.735 341.124C289.275 341.124 289.695 340.836 289.695 340.272C289.695 339.72 289.275 339.42 288.735 339.42C288.195 339.42 287.775 339.72 287.775 340.272C287.775 340.836 288.195 341.124 288.735 341.124ZM287.775 341.856L287.775 348L289.695 348L289.695 341.856L287.775 341.856ZM293.646 348.192C291.594 348.192 290.358 346.836 290.358 344.928C290.358 343.02 291.594 341.664 293.646 341.664C295.686 341.664 296.922 343.02 296.922 344.928C296.922 346.836 295.686 348.192 293.646 348.192ZM293.646 346.752C294.486 346.752 295.002 346.116 295.002 344.928C295.002 343.74 294.486 343.104 293.646 343.104C292.794 343.104 292.278 343.74 292.278 344.928C292.278 346.116 292.794 346.752 293.646 346.752ZM301.543 341.664C300.451 341.664 299.851 342.18 299.527 342.744L299.503 342.744L299.503 341.856L297.583 341.856L297.583 348L299.503 348L299.503 344.448C299.503 343.596 299.923 343.224 300.655 343.224C301.291 343.224 301.615 343.536 301.615 344.46L301.615 348L303.535 348L303.535 343.848C303.535 342.444 302.731 341.664 301.543 341.664ZM308.698 348L310.858 348L310.858 341.184L313.342 341.184L313.342 339.42L306.202 339.42L306.202 341.184L308.698 341.184L308.698 348ZM315.584 348.192C313.532 348.192 312.296 346.836 312.296 344.928C312.296 343.02 313.532 341.664 315.584 341.664C317.624 341.664 318.86 343.02 318.86 344.928C318.86 346.836 317.624 348.192 315.584 348.192ZM315.584 346.752C316.424 346.752 316.94 346.116 316.94 344.928C316.94 343.74 316.424 343.104 315.584 343.104C314.732 343.104 314.216 343.74 314.216 344.928C314.216 346.116 314.732 346.752 315.584 346.752ZM322.908 343.296L322.908 341.856L321.84 341.856L321.84 340.14L319.92 340.14L319.92 341.856L319.068 341.856L319.068 343.296L319.92 343.296L319.92 345.984C319.92 347.364 320.316 348.108 321.72 348.108C322.26 348.108 322.56 348.048 322.908 347.976L322.908 346.536C322.092 346.536 321.84 346.536 321.84 345.84L321.84 343.296L322.908 343.296ZM327.352 343.56C327.352 344.076 326.572 344.196 325.78 344.352C324.34 344.64 323.44 345.204 323.44 346.428C323.44 347.46 324.16 348.192 325.456 348.192C326.272 348.192 326.992 347.808 327.388 347.352L327.412 347.352C327.412 347.784 327.652 348.192 328.516 348.192C328.9 348.192 329.248 348.144 329.632 348L329.632 347.544C329.392 347.544 329.272 347.412 329.272 347.088L329.272 344.268C329.272 342.336 328.312 341.664 326.584 341.664C324.58 341.664 323.74 342.66 323.68 343.836L325.48 343.836C325.54 343.248 325.876 342.984 326.572 342.984C327.1 342.984 327.352 343.2 327.352 343.56ZM326.128 346.872C325.66 346.872 325.36 346.656 325.36 346.152C325.36 345.768 325.612 345.456 326.368 345.288C326.812 345.192 327.112 345.108 327.352 345.012L327.352 345.756C327.352 346.344 326.956 346.872 326.128 346.872ZM330.373 339.42L330.373 348L332.293 348L332.293 339.42L330.373 339.42Z" fill="#5578F8"/>
<path d="M197 316H451" stroke="#5578F8" stroke-opacity="0.25"/>
<rect x="196.5" y="262.5" width="255" height="107" rx="7.5" stroke="#5578F8" stroke-opacity="0.25"/>
<rect x="279" y="158" width="89.949" height="26" rx="6.3796" fill="#5578F8" fill-opacity="0.12"/>
<path opacity="0.75" d="M292.649 172.28V170.615C292.649 170.163 292.597 169.762 292.493 169.414C292.389 169.062 292.239 168.766 292.044 168.525C291.845 168.285 291.602 168.102 291.316 167.979C291.033 167.852 290.709 167.788 290.344 167.788C289.983 167.788 289.659 167.852 289.373 167.979C289.089 168.102 288.85 168.285 288.655 168.525C288.456 168.766 288.305 169.062 288.201 169.414C288.097 169.762 288.045 170.163 288.045 170.615V172.28C288.045 172.733 288.097 173.135 288.201 173.486C288.305 173.835 288.456 174.128 288.655 174.365C288.853 174.609 289.096 174.793 289.382 174.917C289.669 175.037 289.993 175.098 290.354 175.098C290.719 175.098 291.043 175.036 291.326 174.912C291.609 174.788 291.848 174.606 292.044 174.365C292.239 174.128 292.389 173.835 292.493 173.486C292.597 173.135 292.649 172.733 292.649 172.28ZM288.953 172.1C288.953 172.015 288.953 171.932 288.953 171.851C288.953 171.769 288.953 171.688 288.953 171.606V170.415C288.953 170.083 288.985 169.792 289.05 169.541C289.119 169.287 289.221 169.08 289.358 168.921C289.472 168.794 289.61 168.698 289.773 168.633C289.939 168.564 290.129 168.53 290.344 168.53C290.556 168.53 290.741 168.561 290.901 168.623C291.064 168.685 291.2 168.778 291.311 168.901C291.425 169.022 291.515 169.173 291.58 169.355C291.648 169.535 291.695 169.741 291.721 169.976L288.953 172.1ZM291.741 172.471C291.741 172.819 291.705 173.122 291.633 173.379C291.565 173.636 291.456 173.844 291.306 174.004C291.196 174.121 291.06 174.211 290.901 174.272C290.741 174.334 290.559 174.365 290.354 174.365C290.159 174.365 289.983 174.338 289.827 174.282C289.671 174.224 289.537 174.139 289.426 174.028C289.306 173.911 289.208 173.763 289.133 173.584C289.059 173.402 289.006 173.192 288.977 172.954L291.741 170.84C291.741 170.931 291.741 171.047 291.741 171.187C291.741 171.323 291.741 171.416 291.741 171.465V172.471ZM295.975 171.675L294.578 169.717H293.533L295.501 172.329L293.479 175H294.534L295.994 172.988L297.454 175H298.499L296.478 172.329L298.445 169.717H297.386L295.975 171.675ZM303.773 169.746C303.773 169.437 303.719 169.162 303.612 168.921C303.504 168.677 303.356 168.472 303.167 168.306C302.979 168.14 302.756 168.013 302.498 167.925C302.241 167.837 301.963 167.793 301.663 167.793C301.361 167.793 301.081 167.837 300.824 167.925C300.57 168.013 300.352 168.14 300.169 168.306C299.984 168.472 299.839 168.677 299.735 168.921C299.631 169.162 299.579 169.437 299.579 169.746C299.579 169.922 299.603 170.09 299.652 170.249C299.701 170.409 299.769 170.555 299.857 170.688C299.945 170.825 300.052 170.949 300.179 171.06C300.306 171.167 300.448 171.26 300.604 171.338C300.422 171.416 300.257 171.514 300.111 171.631C299.964 171.748 299.839 171.88 299.735 172.026C299.631 172.176 299.551 172.34 299.496 172.52C299.44 172.695 299.413 172.882 299.413 173.081C299.413 173.407 299.471 173.695 299.588 173.945C299.705 174.196 299.867 174.406 300.072 174.575C300.274 174.748 300.511 174.878 300.785 174.966C301.061 175.054 301.359 175.098 301.678 175.098C301.991 175.098 302.284 175.054 302.557 174.966C302.83 174.875 303.07 174.743 303.275 174.57C303.477 174.401 303.636 174.191 303.753 173.94C303.874 173.69 303.934 173.403 303.934 173.081C303.934 172.882 303.905 172.695 303.846 172.52C303.791 172.344 303.711 172.181 303.607 172.031C303.499 171.882 303.371 171.75 303.221 171.636C303.075 171.519 302.91 171.421 302.728 171.343C302.832 171.291 302.93 171.232 303.021 171.167C303.112 171.102 303.195 171.032 303.27 170.957C303.426 170.801 303.548 170.62 303.636 170.415C303.724 170.207 303.77 169.984 303.773 169.746ZM303.031 173.062C303.031 173.267 302.996 173.451 302.928 173.613C302.863 173.773 302.772 173.908 302.655 174.019C302.534 174.129 302.391 174.214 302.225 174.272C302.059 174.331 301.877 174.36 301.678 174.36C301.47 174.36 301.281 174.331 301.112 174.272C300.946 174.214 300.804 174.129 300.687 174.019C300.57 173.908 300.479 173.773 300.413 173.613C300.352 173.451 300.321 173.267 300.321 173.062C300.321 172.863 300.352 172.681 300.413 172.515C300.479 172.349 300.57 172.205 300.687 172.085C300.804 171.968 300.946 171.877 301.112 171.812C301.278 171.746 301.463 171.714 301.668 171.714C301.867 171.714 302.049 171.746 302.215 171.812C302.385 171.877 302.529 171.968 302.65 172.085C302.77 172.205 302.863 172.349 302.928 172.515C302.996 172.681 303.031 172.863 303.031 173.062ZM302.865 169.761C302.865 169.943 302.835 170.109 302.777 170.259C302.718 170.409 302.637 170.535 302.533 170.64C302.425 170.747 302.298 170.83 302.152 170.889C302.005 170.944 301.846 170.972 301.673 170.972C301.497 170.972 301.336 170.944 301.19 170.889C301.047 170.83 300.923 170.747 300.819 170.64C300.711 170.535 300.628 170.41 300.57 170.264C300.514 170.114 300.487 169.946 300.487 169.761C300.487 169.575 300.514 169.408 300.57 169.258C300.628 169.105 300.71 168.975 300.814 168.867C300.918 168.76 301.042 168.678 301.185 168.623C301.328 168.564 301.488 168.535 301.663 168.535C301.839 168.535 302 168.566 302.147 168.628C302.293 168.687 302.42 168.77 302.528 168.877C302.632 168.988 302.713 169.118 302.772 169.268C302.834 169.417 302.865 169.582 302.865 169.761ZM308.666 172.612V167.891H307.704L304.52 172.817V173.35H307.763V175H308.666V173.35H309.657V172.612H308.666ZM305.521 172.612L307.616 169.365L307.763 169.092V172.612H305.521ZM311.664 171.011V171.743H312.309C312.533 171.743 312.738 171.769 312.924 171.821C313.113 171.873 313.274 171.953 313.407 172.061C313.538 172.168 313.639 172.303 313.71 172.466C313.785 172.625 313.822 172.816 313.822 173.037C313.822 173.262 313.79 173.457 313.725 173.623C313.663 173.786 313.573 173.923 313.456 174.033C313.339 174.144 313.197 174.227 313.031 174.282C312.865 174.334 312.68 174.36 312.475 174.36C312.27 174.36 312.083 174.331 311.913 174.272C311.747 174.214 311.606 174.131 311.488 174.023C311.371 173.916 311.28 173.786 311.215 173.633C311.153 173.48 311.122 173.311 311.122 173.125H310.219C310.219 173.438 310.278 173.716 310.395 173.96C310.515 174.204 310.676 174.411 310.878 174.58C311.08 174.749 311.318 174.878 311.591 174.966C311.868 175.054 312.162 175.098 312.475 175.098C312.794 175.098 313.09 175.052 313.363 174.961C313.64 174.867 313.879 174.73 314.081 174.551C314.283 174.375 314.441 174.159 314.555 173.901C314.669 173.644 314.726 173.35 314.726 173.018C314.726 172.855 314.706 172.69 314.667 172.524C314.631 172.358 314.568 172.201 314.477 172.051C314.382 171.901 314.257 171.766 314.101 171.646C313.948 171.525 313.756 171.427 313.525 171.353C313.717 171.271 313.881 171.17 314.018 171.05C314.158 170.926 314.272 170.794 314.36 170.654C314.447 170.518 314.513 170.376 314.555 170.229C314.597 170.083 314.618 169.941 314.618 169.805C314.618 169.476 314.566 169.186 314.462 168.936C314.358 168.685 314.211 168.475 314.023 168.306C313.834 168.136 313.608 168.009 313.344 167.925C313.08 167.837 312.789 167.793 312.47 167.793C312.141 167.793 311.842 167.845 311.571 167.949C311.305 168.05 311.075 168.188 310.883 168.364C310.691 168.543 310.541 168.753 310.434 168.994C310.33 169.232 310.278 169.486 310.278 169.756H311.186C311.186 169.57 311.217 169.403 311.279 169.253C311.34 169.103 311.428 168.975 311.542 168.867C311.653 168.76 311.786 168.678 311.943 168.623C312.102 168.564 312.278 168.535 312.47 168.535C312.668 168.535 312.844 168.561 312.997 168.613C313.154 168.662 313.284 168.737 313.388 168.838C313.495 168.942 313.577 169.074 313.632 169.233C313.687 169.39 313.715 169.574 313.715 169.785C313.715 169.964 313.684 170.129 313.622 170.278C313.56 170.428 313.471 170.557 313.354 170.664C313.233 170.771 313.085 170.856 312.909 170.918C312.737 170.98 312.537 171.011 312.309 171.011H311.664ZM320.59 169.746C320.59 169.437 320.537 169.162 320.429 168.921C320.322 168.677 320.174 168.472 319.985 168.306C319.796 168.14 319.573 168.013 319.316 167.925C319.059 167.837 318.781 167.793 318.481 167.793C318.178 167.793 317.898 167.837 317.641 167.925C317.387 168.013 317.169 168.14 316.987 168.306C316.801 168.472 316.657 168.677 316.552 168.921C316.448 169.162 316.396 169.437 316.396 169.746C316.396 169.922 316.421 170.09 316.469 170.249C316.518 170.409 316.587 170.555 316.674 170.688C316.762 170.825 316.87 170.949 316.997 171.06C317.124 171.167 317.265 171.26 317.421 171.338C317.239 171.416 317.075 171.514 316.928 171.631C316.782 171.748 316.657 171.88 316.552 172.026C316.448 172.176 316.368 172.34 316.313 172.52C316.258 172.695 316.23 172.882 316.23 173.081C316.23 173.407 316.289 173.695 316.406 173.945C316.523 174.196 316.684 174.406 316.889 174.575C317.091 174.748 317.329 174.878 317.602 174.966C317.879 175.054 318.177 175.098 318.496 175.098C318.808 175.098 319.101 175.054 319.375 174.966C319.648 174.875 319.887 174.743 320.092 174.57C320.294 174.401 320.454 174.191 320.571 173.94C320.691 173.69 320.752 173.403 320.752 173.081C320.752 172.882 320.722 172.695 320.664 172.52C320.608 172.344 320.529 172.181 320.424 172.031C320.317 171.882 320.188 171.75 320.039 171.636C319.892 171.519 319.728 171.421 319.546 171.343C319.65 171.291 319.747 171.232 319.838 171.167C319.93 171.102 320.013 171.032 320.088 170.957C320.244 170.801 320.366 170.62 320.454 170.415C320.542 170.207 320.587 169.984 320.59 169.746ZM319.848 173.062C319.848 173.267 319.814 173.451 319.746 173.613C319.681 173.773 319.589 173.908 319.472 174.019C319.352 174.129 319.209 174.214 319.043 174.272C318.877 174.331 318.694 174.36 318.496 174.36C318.287 174.36 318.099 174.331 317.929 174.272C317.763 174.214 317.622 174.129 317.504 174.019C317.387 173.908 317.296 173.773 317.231 173.613C317.169 173.451 317.138 173.267 317.138 173.062C317.138 172.863 317.169 172.681 317.231 172.515C317.296 172.349 317.387 172.205 317.504 172.085C317.622 171.968 317.763 171.877 317.929 171.812C318.095 171.746 318.281 171.714 318.486 171.714C318.685 171.714 318.867 171.746 319.033 171.812C319.202 171.877 319.347 171.968 319.467 172.085C319.588 172.205 319.681 172.349 319.746 172.515C319.814 172.681 319.848 172.863 319.848 173.062ZM319.682 169.761C319.682 169.943 319.653 170.109 319.594 170.259C319.536 170.409 319.454 170.535 319.35 170.64C319.243 170.747 319.116 170.83 318.969 170.889C318.823 170.944 318.663 170.972 318.491 170.972C318.315 170.972 318.154 170.944 318.007 170.889C317.864 170.83 317.74 170.747 317.636 170.64C317.529 170.535 317.446 170.41 317.387 170.264C317.332 170.114 317.304 169.946 317.304 169.761C317.304 169.575 317.332 169.408 317.387 169.258C317.446 169.105 317.527 168.975 317.631 168.867C317.736 168.76 317.859 168.678 318.003 168.623C318.146 168.564 318.305 168.535 318.481 168.535C318.657 168.535 318.818 168.566 318.964 168.628C319.111 168.687 319.238 168.77 319.345 168.877C319.449 168.988 319.531 169.118 319.589 169.268C319.651 169.417 319.682 169.582 319.682 169.761ZM323.394 174.414C323.394 174.603 323.452 174.764 323.569 174.897C323.69 175.028 323.867 175.093 324.102 175.093C324.333 175.093 324.51 175.028 324.634 174.897C324.757 174.767 324.819 174.606 324.819 174.414C324.819 174.219 324.757 174.054 324.634 173.921C324.513 173.784 324.336 173.716 324.102 173.716C323.864 173.716 323.687 173.784 323.569 173.921C323.452 174.058 323.394 174.222 323.394 174.414ZM328.999 174.414C328.999 174.603 329.058 174.764 329.175 174.897C329.296 175.028 329.473 175.093 329.707 175.093C329.939 175.093 330.116 175.028 330.24 174.897C330.363 174.767 330.425 174.606 330.425 174.414C330.425 174.219 330.363 174.054 330.24 173.921C330.119 173.784 329.942 173.716 329.707 173.716C329.47 173.716 329.292 173.784 329.175 173.921C329.058 174.058 328.999 174.222 328.999 174.414ZM334.605 174.414C334.605 174.603 334.664 174.764 334.781 174.897C334.901 175.028 335.079 175.093 335.313 175.093C335.544 175.093 335.722 175.028 335.846 174.897C335.969 174.767 336.031 174.606 336.031 174.414C336.031 174.219 335.969 174.054 335.846 173.921C335.725 173.784 335.548 173.716 335.313 173.716C335.076 173.716 334.898 173.784 334.781 173.921C334.664 174.058 334.605 174.222 334.605 174.414ZM339.611 174.199H339.518V175.005H339.611C340.196 175.005 340.693 174.925 341.1 174.766C341.51 174.603 341.831 174.391 342.062 174.131C342.446 173.701 342.696 173.21 342.814 172.656C342.931 172.1 342.989 171.546 342.989 170.996V170.669C342.989 170.282 342.936 169.894 342.828 169.507C342.721 169.116 342.56 168.791 342.345 168.53C342.163 168.309 341.936 168.132 341.666 167.998C341.399 167.861 341.084 167.793 340.719 167.793C340.354 167.793 340.034 167.86 339.757 167.993C339.484 168.123 339.256 168.299 339.073 168.521C338.888 168.745 338.748 169.007 338.654 169.307C338.562 169.603 338.517 169.919 338.517 170.254C338.517 170.54 338.556 170.825 338.634 171.108C338.712 171.392 338.834 171.646 339 171.87C339.166 172.095 339.376 172.277 339.63 172.417C339.887 172.554 340.192 172.622 340.543 172.622C340.725 172.622 340.893 172.604 341.046 172.568C341.202 172.529 341.344 172.477 341.471 172.412C341.598 172.347 341.712 172.272 341.813 172.188C341.914 172.1 342.003 172.007 342.081 171.909V171.919C342.065 172.218 342.018 172.508 341.94 172.788C341.862 173.068 341.71 173.33 341.486 173.574C341.3 173.773 341.054 173.927 340.748 174.038C340.446 174.146 340.066 174.199 339.611 174.199ZM340.69 171.875C340.472 171.875 340.281 171.828 340.118 171.733C339.959 171.636 339.827 171.509 339.723 171.353C339.615 171.196 339.536 171.019 339.484 170.82C339.432 170.618 339.405 170.413 339.405 170.205C339.405 169.971 339.435 169.753 339.493 169.551C339.552 169.346 339.638 169.168 339.752 169.019C339.863 168.872 340 168.757 340.162 168.672C340.325 168.587 340.512 168.545 340.724 168.545C340.909 168.545 341.084 168.59 341.246 168.682C341.412 168.773 341.559 168.903 341.686 169.072C341.809 169.245 341.907 169.455 341.979 169.702C342.054 169.95 342.091 170.231 342.091 170.547V170.84C342.036 170.993 341.959 171.133 341.862 171.26C341.767 171.383 341.66 171.491 341.539 171.582C341.416 171.676 341.28 171.75 341.134 171.802C340.991 171.851 340.843 171.875 340.69 171.875ZM348.722 172.417V172.314C348.722 172.038 348.699 171.776 348.654 171.528C348.608 171.278 348.542 171.05 348.454 170.845C348.369 170.662 348.271 170.498 348.161 170.352C348.05 170.202 347.925 170.075 347.785 169.971C347.629 169.86 347.454 169.774 347.262 169.712C347.07 169.65 346.86 169.619 346.632 169.619C346.45 169.619 346.281 169.637 346.125 169.673C345.968 169.709 345.825 169.761 345.695 169.829C345.591 169.884 345.493 169.951 345.402 170.029C345.311 170.104 345.228 170.189 345.153 170.283V167.5H344.25V175H345.08L345.124 174.399C345.182 174.474 345.244 174.543 345.309 174.604C345.374 174.666 345.443 174.723 345.514 174.775C345.664 174.88 345.832 174.959 346.017 175.015C346.206 175.07 346.414 175.098 346.642 175.098C346.841 175.098 347.025 175.073 347.194 175.024C347.366 174.976 347.524 174.907 347.668 174.819C347.866 174.692 348.035 174.533 348.175 174.341C348.319 174.146 348.434 173.926 348.522 173.682C348.587 173.496 348.636 173.298 348.669 173.086C348.704 172.871 348.722 172.648 348.722 172.417ZM347.819 172.314V172.417C347.819 172.573 347.809 172.726 347.79 172.876C347.77 173.026 347.739 173.166 347.697 173.296C347.645 173.468 347.575 173.625 347.487 173.765C347.399 173.905 347.29 174.02 347.16 174.111C347.062 174.183 346.951 174.238 346.828 174.277C346.704 174.313 346.567 174.331 346.418 174.331C346.261 174.331 346.118 174.312 345.988 174.272C345.858 174.23 345.74 174.172 345.636 174.097C345.532 174.022 345.439 173.936 345.358 173.838C345.28 173.737 345.212 173.628 345.153 173.511V171.201C345.208 171.084 345.275 170.977 345.353 170.879C345.435 170.778 345.527 170.69 345.631 170.615C345.732 170.544 345.848 170.488 345.978 170.449C346.108 170.407 346.252 170.386 346.408 170.386C346.551 170.386 346.681 170.402 346.798 170.435C346.916 170.467 347.021 170.513 347.116 170.571C347.253 170.653 347.368 170.765 347.463 170.908C347.557 171.051 347.633 171.209 347.692 171.382C347.734 171.522 347.765 171.672 347.785 171.831C347.808 171.987 347.819 172.148 347.819 172.314ZM354.353 168.398V167.891H349.548V168.682H353.396L350.461 175H351.408L354.353 168.398ZM355.286 172.314V172.417C355.286 172.795 355.336 173.148 355.437 173.477C355.538 173.802 355.679 174.085 355.862 174.326C356.044 174.567 356.264 174.756 356.521 174.893C356.781 175.029 357.071 175.098 357.39 175.098C357.716 175.098 358 175.042 358.245 174.932C358.489 174.821 358.699 174.658 358.874 174.443L358.913 175H359.744V167.5H358.84V170.239C358.668 170.037 358.463 169.884 358.225 169.78C357.991 169.673 357.716 169.619 357.4 169.619C357.078 169.619 356.786 169.686 356.526 169.819C356.265 169.953 356.044 170.138 355.862 170.376C355.676 170.614 355.533 170.898 355.432 171.23C355.334 171.559 355.286 171.921 355.286 172.314ZM356.189 172.417V172.314C356.189 172.057 356.217 171.813 356.272 171.582C356.327 171.348 356.413 171.141 356.531 170.962C356.645 170.786 356.791 170.646 356.97 170.542C357.152 170.438 357.371 170.386 357.624 170.386C357.921 170.386 358.168 170.456 358.367 170.596C358.565 170.732 358.723 170.908 358.84 171.123V173.574C358.723 173.805 358.565 173.989 358.367 174.126C358.168 174.263 357.917 174.331 357.615 174.331C357.364 174.331 357.149 174.281 356.97 174.18C356.791 174.076 356.645 173.936 356.531 173.76C356.413 173.584 356.327 173.381 356.272 173.149C356.217 172.918 356.189 172.674 356.189 172.417Z" fill="#4E4E4E"/>
<rect x="279.399" y="158.399" width="89.1516" height="25.2025" rx="5.98088" stroke="#5578F8" stroke-opacity="0.25" stroke-width="0.79745"/>
<circle cx="324" cy="126" r="24" fill="url(#paint0_linear_961_13260)"/>
</g>
</g>
<rect x="1" y="1" width="646" height="448" rx="31" stroke="#5578F8" stroke-opacity="0.5" stroke-width="2"/>
<defs>
<filter id="filter0_dd_961_13260" x="80.8717" y="-20.2816" width="487.185" height="722.49" filterUnits="userSpaceOnUse" color-interpolation-filters="sRGB">
<feFlood flood-opacity="0" result="BackgroundImageFix"/>
<feColorMatrix in="SourceAlpha" type="matrix" values="0 0 0 0 0 0 0 0 0 0 0 0 0 0 0 0 0 0 127 0" result="hardAlpha"/>
<feOffset dy="27.4634"/>
<feGaussianBlur stdDeviation="39.8725"/>
<feComposite in2="hardAlpha" operator="out"/>
<feColorMatrix type="matrix" values="0 0 0 0 0.670588 0 0 0 0 0.72549 0 0 0 0 0.94902 0 0 0 0.28 0"/>
<feBlend mode="normal" in2="BackgroundImageFix" result="effect1_dropShadow_961_13260"/>
<feColorMatrix in="SourceAlpha" type="matrix" values="0 0 0 0 0 0 0 0 0 0 0 0 0 0 0 0 0 0 127 0" result="hardAlpha"/>
<feOffset dy="5.49268"/>
<feGaussianBlur stdDeviation="4.7847"/>
<feComposite in2="hardAlpha" operator="out"/>
<feColorMatrix type="matrix" values="0 0 0 0 0.819608 0 0 0 0 0.827451 0 0 0 0 0.984314 0 0 0 0.6 0"/>
<feBlend mode="normal" in2="effect1_dropShadow_961_13260" result="effect2_dropShadow_961_13260"/>
<feBlend mode="normal" in="SourceGraphic" in2="effect2_dropShadow_961_13260" result="shape"/>
</filter>
<linearGradient id="paint0_linear_961_13260" x1="300" y1="102" x2="384.025" y2="158.527" gradientUnits="userSpaceOnUse">
<stop offset="0.24238" stop-color="#A7CAFF"/>
<stop offset="1" stop-color="#B25FF3"/>
</linearGradient>
<clipPath id="clip0_961_13260">
<rect width="648" height="450" rx="32" fill="white"/>
</clipPath>
</defs>
</svg>
