<svg width="20" height="20" viewBox="0 0 20 20" fill="none" xmlns="http://www.w3.org/2000/svg">
<path fill-rule="evenodd" clip-rule="evenodd" d="M7.22958 8.85489C7.44989 8.85489 7.66118 8.94241 7.81697 9.0982L12.0458 13.327C12.4063 13.6875 12.9908 13.6875 13.3514 13.327L17.5802 9.09821C17.736 8.94241 17.9473 8.85489 18.1676 8.85489C18.9077 8.85489 19.2784 9.74971 18.755 10.273L13.3514 15.6766C12.9909 16.0372 12.4064 16.0372 12.0458 15.6766L6.64219 10.273C6.11888 9.74967 6.48951 8.85489 7.22958 8.85489ZM12.494 10.7474C12.2737 10.7474 12.0624 10.6599 11.9066 10.5041L7.67784 6.27527C7.31731 5.91473 6.73277 5.91473 6.37223 6.27527L2.14344 10.5041C1.98765 10.6599 1.77634 10.7474 1.55602 10.7474C0.81591 10.7474 0.445262 9.85256 0.968598 9.32922L6.37217 3.92565C6.7327 3.56511 7.31725 3.56511 7.67778 3.92565L13.0814 9.32929C13.6047 9.8526 13.2341 10.7474 12.494 10.7474Z" fill="#36BEFF"/>
</svg>
