<svg width="20" height="20" viewBox="0 0 20 20" fill="none" xmlns="http://www.w3.org/2000/svg">
<g clip-path="url(#clip0_1701_6850)">
<path d="M14.7319 10.0786L10.1931 2.21777C10.1711 2.17896 10.1393 2.14662 10.1008 2.12403C10.0624 2.10145 10.0186 2.0894 9.97403 2.08912C9.92942 2.08883 9.88553 2.10032 9.84678 2.12241C9.80804 2.14451 9.77582 2.17643 9.75335 2.21496L8.39403 4.5704C8.34951 4.6475 8.32607 4.73496 8.32607 4.824C8.32607 4.91303 8.34951 5.00049 8.39403 5.07759L11.3536 10.2057C11.3982 10.2829 11.4623 10.347 11.5395 10.3915C11.6167 10.436 11.7042 10.4594 11.7933 10.4593H14.512C14.5565 10.4592 14.6002 10.4474 14.6387 10.4251C14.6772 10.4028 14.7092 10.3708 14.7315 10.3322C14.7537 10.2937 14.7655 10.25 14.7655 10.2055C14.7656 10.161 14.754 10.1172 14.7319 10.0786Z" fill="#36BEFF"/>
<path d="M2.83456 14.187L7.37332 6.32613C7.39559 6.28762 7.42762 6.25565 7.46615 6.23342C7.50468 6.2112 7.54838 6.1995 7.59286 6.1995C7.63735 6.1995 7.68104 6.2112 7.71957 6.23342C7.75811 6.25565 7.79012 6.28762 7.81239 6.32613L9.17241 8.67946C9.21691 8.75669 9.24034 8.84427 9.24034 8.93341C9.24034 9.02255 9.21691 9.11013 9.17241 9.18736L6.21282 14.3155C6.16843 14.3927 6.10446 14.4568 6.02736 14.5013C5.95027 14.5458 5.86279 14.5692 5.77377 14.5691H3.05445C3.00965 14.5693 2.96559 14.5577 2.92675 14.5354C2.88791 14.513 2.85569 14.4808 2.83335 14.442C2.81101 14.4032 2.79935 14.3591 2.79956 14.3143C2.79978 14.2695 2.81185 14.2256 2.83456 14.187Z" fill="#36BEFF"/>
<path d="M7.81172 14.5674H16.8893C16.9338 14.5674 16.9775 14.5556 17.0161 14.5333C17.0546 14.511 17.0866 14.4789 17.1088 14.4403C17.131 14.4018 17.1427 14.358 17.1426 14.3135C17.1426 14.2689 17.1308 14.2252 17.1084 14.1867L15.7505 11.8319C15.706 11.7548 15.6419 11.6907 15.5647 11.6462C15.4875 11.6016 15.3999 11.5783 15.3108 11.5783H9.39163C9.30251 11.5783 9.21495 11.6016 9.13775 11.6462C9.06054 11.6907 8.99642 11.7548 8.95186 11.8319L7.59256 14.1867C7.57023 14.2252 7.55846 14.2689 7.55839 14.3135C7.55833 14.358 7.56996 14.4018 7.59218 14.4403C7.6144 14.4789 7.6464 14.511 7.68493 14.5333C7.72347 14.5556 7.76719 14.5674 7.81172 14.5674Z" fill="#36BEFF"/>
</g>
<defs>
<clipPath id="clip0_1701_6850">
<rect width="20" height="20" fill="white"/>
</clipPath>
</defs>
</svg>
