<svg width="20" height="20" viewBox="0 0 20 20" fill="none" xmlns="http://www.w3.org/2000/svg">
<path d="M2 2V1.375C1.65482 1.375 1.375 1.65482 1.375 2H2ZM11 2H11.625C11.625 1.65482 11.3452 1.375 11 1.375V2ZM11 17V17.625C11.3452 17.625 11.625 17.3452 11.625 17H11ZM2 17H1.375C1.375 17.3452 1.65482 17.625 2 17.625V17ZM10.375 2V17H11.625V2H10.375ZM2.625 17V2H1.375V17H2.625ZM11 16.375H2V17.625H11V16.375ZM2 2.625H11V1.375H2V2.625Z" fill="#36BEFF"/>
<path d="M4 4H6V6H4V4Z" fill="#36BEFF"/>
<path d="M4 7H6V9H4V7Z" fill="#36BEFF"/>
<path d="M4 10H6V12H4V10Z" fill="#36BEFF"/>
<path d="M7 4H9V6H7V4Z" fill="#36BEFF"/>
<path d="M7 7H9V9H7V7Z" fill="#36BEFF"/>
<path d="M7 10H9V12H7V10Z" fill="#36BEFF"/>
<path d="M11 6V5.375C10.6548 5.375 10.375 5.65482 10.375 6H11ZM18 6H18.625C18.625 5.65482 18.3452 5.375 18 5.375V6ZM18 17V17.625C18.3452 17.625 18.625 17.3452 18.625 17H18ZM11 17H10.375C10.375 17.3452 10.6548 17.625 11 17.625V17ZM17.375 6V17H18.625V6H17.375ZM11.625 17V6H10.375V17H11.625ZM18 16.375H11V17.625H18V16.375ZM11 6.625H18V5.375H11V6.625Z" fill="#36BEFF"/>
</svg>
