<svg width="252" height="252" viewBox="0 0 252 252" fill="none" xmlns="http://www.w3.org/2000/svg">
<g filter="url(#filter0_d_1002_6789)">
<rect x="26" y="7.98633" width="200" height="200" rx="24" fill="white"/>
<rect x="25" y="6.98633" width="202" height="202" rx="25" stroke="#D4EDFF" stroke-width="2"/>
</g>
<path d="M174.476 115.942L157.968 133.499C157.611 133.881 157.179 134.185 156.698 134.393C156.217 134.601 155.698 134.709 155.173 134.71H76.918C76.5448 134.709 76.1797 134.601 75.8675 134.398C75.5553 134.196 75.3095 133.907 75.1602 133.568C75.0109 133.228 74.9646 132.853 75.027 132.488C75.0893 132.123 75.2576 131.784 75.5113 131.512L92.0008 113.955C92.3579 113.574 92.7903 113.27 93.2712 113.061C93.752 112.853 94.271 112.745 94.7956 112.745H173.051C173.427 112.737 173.798 112.84 174.116 113.041C174.433 113.242 174.685 113.531 174.837 113.873C174.99 114.214 175.036 114.593 174.972 114.962C174.908 115.33 174.735 115.671 174.476 115.942ZM157.968 80.5785C157.61 80.1989 157.177 79.8958 156.697 79.6876C156.216 79.4795 155.698 79.3708 155.173 79.3681H76.918C76.5448 79.3683 76.1797 79.4764 75.8675 79.6793C75.5553 79.8821 75.3095 80.1709 75.1602 80.5102C75.0109 80.8495 74.9646 81.2246 75.027 81.5896C75.0893 81.9546 75.2576 82.2937 75.5113 82.5653L92.0008 100.132C92.3592 100.511 92.7919 100.814 93.2725 101.022C93.753 101.231 94.2713 101.339 94.7956 101.342H173.051C173.424 101.34 173.787 101.231 174.098 101.027C174.409 100.824 174.653 100.535 174.801 100.196C174.95 99.8568 174.995 99.4824 174.932 99.1182C174.869 98.754 174.702 98.4158 174.448 98.1449L157.968 80.5785ZM76.918 67.9652H155.173C155.698 67.9647 156.217 67.8569 156.698 67.6486C157.179 67.4404 157.611 67.136 157.968 66.7546L174.476 49.1976C174.735 48.9264 174.908 48.5853 174.972 48.217C175.036 47.8488 174.99 47.47 174.837 47.1282C174.685 46.7864 174.433 46.497 174.116 46.2963C173.798 46.0956 173.427 45.9927 173.051 46.0004H94.7956C94.271 46.001 93.752 46.1087 93.2712 46.317C92.7903 46.5253 92.3579 46.8296 92.0008 47.2109L75.5113 64.7679C75.2576 65.0395 75.0893 65.3786 75.027 65.7436C74.9646 66.1086 75.0109 66.4837 75.1602 66.823C75.3095 67.1623 75.5553 67.4511 75.8675 67.6539C76.1797 67.8569 76.5448 67.965 76.918 67.9652Z" fill="url(#paint0_linear_1002_6789)"/>
<path d="M88.4707 164.12C86.6707 163.62 85.7707 163.34 85.7707 162.46C85.7707 161.66 86.6107 161.32 87.6907 161.32C89.0707 161.32 89.9907 161.96 90.1507 163.04H93.7507C93.6507 160.14 91.0307 158.38 87.6907 158.38C84.6107 158.38 82.1707 159.6 82.1707 162.72C82.1707 165.36 84.3307 166.42 86.7907 167.14C88.8107 167.74 90.3507 168 90.3507 169.14C90.3507 169.86 89.6307 170.38 88.2907 170.38C86.6907 170.38 85.3707 169.82 85.3707 168.3H81.7707C81.7707 171.48 84.5707 173.32 88.2907 173.32C91.8707 173.32 93.9507 171.54 93.9507 168.8C93.9507 165.74 91.1707 164.86 88.4707 164.12ZM103.65 173.32C108.15 173.32 110.73 170.16 110.73 165.84C110.73 161.54 108.15 158.38 103.65 158.38C99.1099 158.38 96.5699 161.54 96.5699 165.84C96.5699 170.16 99.1099 173.32 103.65 173.32ZM103.65 170.38C101.03 170.38 100.17 168.34 100.17 165.84C100.17 163.36 101.03 161.32 103.65 161.32C106.25 161.32 107.13 163.36 107.13 165.84C107.13 168.34 106.25 170.38 103.65 170.38ZM113.861 158.7V173H123.821V170.06H117.461V158.7H113.861ZM135.535 170.02L136.455 173H140.055L134.895 158.7H131.295L126.115 173H129.715L130.635 170.02H135.535ZM131.455 167.28L133.075 162H133.115L134.735 167.28H131.455ZM142.81 173H146.41V164.5H146.45L151.45 173H155.05V158.7H151.45V167.2H151.41L146.41 158.7H142.81V173ZM166.984 170.02L167.904 173H171.504L166.344 158.7H162.744L157.564 173H161.164L162.084 170.02H166.984ZM162.904 167.28L164.524 162H164.564L166.184 167.28H162.904Z" fill="black"/>
<defs>
<filter id="filter0_d_1002_6789" x="0.117647" y="0.0157394" width="251.765" height="251.765" filterUnits="userSpaceOnUse" color-interpolation-filters="sRGB">
<feFlood flood-opacity="0" result="BackgroundImageFix"/>
<feColorMatrix in="SourceAlpha" type="matrix" values="0 0 0 0 0 0 0 0 0 0 0 0 0 0 0 0 0 0 127 0" result="hardAlpha"/>
<feOffset dy="17.9118"/>
<feGaussianBlur stdDeviation="11.9412"/>
<feComposite in2="hardAlpha" operator="out"/>
<feColorMatrix type="matrix" values="0 0 0 0 0 0 0 0 0 0 0 0 0 0 0 0 0 0 0.1 0"/>
<feBlend mode="normal" in2="BackgroundImageFix" result="effect1_dropShadow_1002_6789"/>
<feBlend mode="normal" in="SourceGraphic" in2="effect1_dropShadow_1002_6789" result="shape"/>
</filter>
<linearGradient id="paint0_linear_1002_6789" x1="83.4393" y1="136.826" x2="164.748" y2="44.4097" gradientUnits="userSpaceOnUse">
<stop offset="0.08" stop-color="#9945FF"/>
<stop offset="0.3" stop-color="#8752F3"/>
<stop offset="0.5" stop-color="#5497D5"/>
<stop offset="0.6" stop-color="#43B4CA"/>
<stop offset="0.72" stop-color="#28E0B9"/>
<stop offset="0.97" stop-color="#19FB9B"/>
</linearGradient>
</defs>
</svg>
