<svg width="252" height="252" viewBox="0 0 252 252" fill="none" xmlns="http://www.w3.org/2000/svg">
<g filter="url(#filter0_d_1099_5859)">
<rect x="26" y="7.98633" width="200" height="200" rx="24" fill="white"/>
<rect x="25" y="6.98633" width="202" height="202" rx="25" stroke="#D4EDFF" stroke-width="2"/>
</g>
<path d="M177 79C177 106.614 154.614 129 127 129C99.3858 129 77 106.614 77 79C77 51.3858 99.3858 29 127 29C154.614 29 177 51.3858 177 79Z" fill="url(#paint0_linear_1099_5859)"/>
<path opacity="0.4" d="M97 85.917C97 83.9939 98.3161 82.3207 100.185 81.8676L125.535 75.7221C126.18 75.5657 126.853 75.5657 127.498 75.7221L152.848 81.8676C154.717 82.3207 156.033 83.9939 156.033 85.917V109.223C156.033 112.019 153.334 114.022 150.658 113.211L127.725 106.261C126.937 106.023 126.096 106.023 125.308 106.261L102.375 113.211C99.6993 114.022 97 112.019 97 109.223V85.917Z" fill="white"/>
<path opacity="0.7" d="M97 70.1757C97 68.2527 98.3161 66.5794 100.185 66.1264L125.535 59.9809C126.18 59.8245 126.853 59.8245 127.498 59.9809L152.848 66.1264C154.717 66.5794 156.033 68.2527 156.033 70.1757V93.4822C156.033 96.2781 153.334 98.2806 150.658 97.4698L127.725 90.5203C126.937 90.2815 126.096 90.2815 125.308 90.5203L102.375 97.4698C99.6993 98.2806 97 96.2781 97 93.4822V70.1757Z" fill="white"/>
<path d="M97 54.4328C97 52.5098 98.3161 50.8365 100.185 50.3835L125.535 44.238C126.18 44.0816 126.853 44.0816 127.498 44.238L152.848 50.3835C154.717 50.8365 156.033 52.5098 156.033 54.4328V77.7393C156.033 80.5352 153.334 82.5377 150.658 81.7269L127.725 74.7774C126.937 74.5386 126.096 74.5386 125.308 74.7774L102.375 81.7269C99.6993 82.5377 97 80.5352 97 77.7393V54.4328Z" fill="white"/>
<path d="M69.7187 153.18V150.64H76.9587V147.7H66.1187V162H77.0787V159.06H69.7187V156.12H75.9587V153.18H69.7187ZM80.4273 162H84.0273V153.5H84.0673L89.0673 162H92.6673V147.7H89.0673V156.2H89.0273L84.0273 147.7H80.4273V162ZM96.3765 147.7V162H99.9765V156.24H104.876V162H108.476V147.7H104.876V153.3H99.9765V147.7H96.3765ZM120.414 159.02L121.334 162H124.934L119.774 147.7H116.174L110.994 162H114.594L115.514 159.02H120.414ZM116.334 156.28L117.954 151H117.994L119.614 156.28H116.334ZM127.689 162H131.289V153.5H131.329L136.329 162H139.929V147.7H136.329V156.2H136.289L131.289 147.7H127.689V162ZM152.816 153.02H156.416C156.076 149.7 153.996 147.38 150.096 147.38C145.576 147.38 143.156 150.54 143.156 154.84C143.156 159.16 145.576 162.32 150.096 162.32C154.016 162.32 156.096 160 156.416 156.64H152.816C152.576 158.24 151.856 159.38 149.936 159.38C147.556 159.38 146.756 157.54 146.756 154.84C146.756 152.16 147.556 150.32 149.936 150.32C151.836 150.32 152.556 151.46 152.816 153.02ZM163.031 153.18V150.64H170.271V147.7H159.431V162H170.391V159.06H163.031V156.12H169.271V153.18H163.031ZM173.74 162H180.28C184.26 162 186.46 159.46 186.46 154.86C186.46 150.26 184.06 147.7 180.08 147.7H173.74V162ZM177.34 150.64H179.72C181.96 150.64 182.86 152.26 182.86 154.86C182.86 157.46 181.96 159.06 179.72 159.06H177.34V150.64ZM109.914 179.02L110.834 182H114.434L109.274 167.7H105.674L100.494 182H104.094L105.014 179.02H109.914ZM105.834 176.28L107.454 171H107.494L109.114 176.28H105.834ZM117.189 182H120.789V176.82H124.129C127.109 176.82 128.969 175.26 128.969 172.26C128.969 169.26 127.109 167.7 124.129 167.7H117.189V182ZM120.789 170.64H123.369C124.609 170.64 125.369 171.06 125.369 172.26C125.369 173.46 124.609 173.88 123.369 173.88H120.789V170.64ZM132.006 167.7V182H135.606V167.7H132.006ZM145.537 173.12C143.737 172.62 142.837 172.34 142.837 171.46C142.837 170.66 143.677 170.32 144.757 170.32C146.137 170.32 147.057 170.96 147.217 172.04H150.817C150.717 169.14 148.097 167.38 144.757 167.38C141.677 167.38 139.237 168.6 139.237 171.72C139.237 174.36 141.397 175.42 143.857 176.14C145.877 176.74 147.417 177 147.417 178.14C147.417 178.86 146.697 179.38 145.357 179.38C143.757 179.38 142.437 178.82 142.437 177.3H138.837C138.837 180.48 141.637 182.32 145.357 182.32C148.937 182.32 151.017 180.54 151.017 177.8C151.017 174.74 148.237 173.86 145.537 173.12Z" fill="black"/>
<defs>
<filter id="filter0_d_1099_5859" x="0.117647" y="0.0157394" width="251.765" height="251.765" filterUnits="userSpaceOnUse" color-interpolation-filters="sRGB">
<feFlood flood-opacity="0" result="BackgroundImageFix"/>
<feColorMatrix in="SourceAlpha" type="matrix" values="0 0 0 0 0 0 0 0 0 0 0 0 0 0 0 0 0 0 127 0" result="hardAlpha"/>
<feOffset dy="17.9118"/>
<feGaussianBlur stdDeviation="11.9412"/>
<feComposite in2="hardAlpha" operator="out"/>
<feColorMatrix type="matrix" values="0 0 0 0 0 0 0 0 0 0 0 0 0 0 0 0 0 0 0.1 0"/>
<feBlend mode="normal" in2="BackgroundImageFix" result="effect1_dropShadow_1099_5859"/>
<feBlend mode="normal" in="SourceGraphic" in2="effect1_dropShadow_1099_5859" result="shape"/>
</filter>
<linearGradient id="paint0_linear_1099_5859" x1="77" y1="31.0833" x2="202" y2="143.583" gradientUnits="userSpaceOnUse">
<stop stop-color="#FF9776"/>
<stop offset="1" stop-color="#F9C05E"/>
</linearGradient>
</defs>
</svg>
