<svg width="252" height="252" viewBox="0 0 252 252" fill="none" xmlns="http://www.w3.org/2000/svg">
<g filter="url(#filter0_d_1002_6796)">
<rect x="26" y="7.98633" width="200" height="200" rx="24" fill="white"/>
<rect x="25" y="6.98633" width="202" height="202" rx="25" stroke="#D4EDFF" stroke-width="2"/>
</g>
<g clip-path="url(#clip0_1002_6796)">
<path d="M123.822 40L81 64.8889V114.444L123.822 139.333L166.644 114.444V64.8889L123.822 40ZM153.997 107.111L123.822 124.444L93.6469 107.111V72.2222L123.822 54.6667L153.997 72.2222V107.111Z" fill="#002D74"/>
<g style="mix-blend-mode:multiply">
<path style="mix-blend-mode:multiply" d="M123.822 54.6667V40L81 64.8889V114.444L123.822 139.333V124.444L93.6469 107.111V72.2222L123.822 54.6667Z" fill="url(#paint0_linear_1002_6796)"/>
</g>
<g style="mix-blend-mode:multiply">
<path style="mix-blend-mode:multiply" d="M123.824 124.444V139.111L166.646 114.222V64.8889L123.824 40V54.6667L153.999 72V106.889L123.824 124.444Z" fill="url(#paint1_linear_1002_6796)"/>
</g>
<path d="M144.015 101.108L123.824 112.663L103.855 101.108V77.9965L123.824 66.4409L144.015 77.9965V101.108Z" fill="#002D74"/>
</g>
<path d="M64.433 164.02H68.033C67.693 160.7 65.613 158.38 61.713 158.38C57.193 158.38 54.773 161.54 54.773 165.84C54.773 170.16 57.193 173.32 61.713 173.32C65.633 173.32 67.713 171 68.033 167.64H64.433C64.193 169.24 63.473 170.38 61.553 170.38C59.173 170.38 58.373 168.54 58.373 165.84C58.373 163.16 59.173 161.32 61.553 161.32C63.453 161.32 64.173 162.46 64.433 164.02ZM71.0484 173H74.6484V168.02H76.8884C79.9484 168.02 78.6484 172.4 79.3484 173H83.0884V172.8C82.2684 172.56 83.5684 167.02 79.9884 166.4V166.36C81.7684 165.96 82.8884 164.76 82.8884 162.86C82.8884 160.16 80.9684 158.7 77.7884 158.7H71.0484V173ZM74.6484 161.64H77.0884C78.5284 161.64 79.2884 162.16 79.2884 163.36C79.2884 164.56 78.5284 165.08 77.0884 165.08H74.6484V161.64ZM84.7485 158.7L89.5485 167.72V173H93.1485V167.72L97.9685 158.7H94.1685L91.3685 164.58H91.3285L88.5485 158.7H84.7485ZM100.72 173H104.32V167.82H107.66C110.64 167.82 112.5 166.26 112.5 163.26C112.5 160.26 110.64 158.7 107.66 158.7H100.72V173ZM104.32 161.64H106.9C108.14 161.64 108.9 162.06 108.9 163.26C108.9 164.46 108.14 164.88 106.9 164.88H104.32V161.64ZM119.037 173H122.637V161.64H126.777V158.7H114.877V161.64H119.037V173ZM135.74 173.32C140.24 173.32 142.82 170.16 142.82 165.84C142.82 161.54 140.24 158.38 135.74 158.38C131.2 158.38 128.66 161.54 128.66 165.84C128.66 170.16 131.2 173.32 135.74 173.32ZM135.74 170.38C133.12 170.38 132.26 168.34 132.26 165.84C132.26 163.36 133.12 161.32 135.74 161.32C138.34 161.32 139.22 163.36 139.22 165.84C139.22 168.34 138.34 170.38 135.74 170.38ZM146.608 173.18C147.548 173.18 148.308 172.52 148.308 171.48C148.308 170.46 147.548 169.78 146.608 169.78C145.648 169.78 144.908 170.46 144.908 171.48C144.908 172.52 145.648 173.18 146.608 173.18ZM157.482 173.32C161.982 173.32 164.562 170.16 164.562 165.84C164.562 161.54 161.982 158.38 157.482 158.38C152.942 158.38 150.402 161.54 150.402 165.84C150.402 170.16 152.942 173.32 157.482 173.32ZM157.482 170.38C154.862 170.38 154.002 168.34 154.002 165.84C154.002 163.36 154.862 161.32 157.482 161.32C160.082 161.32 160.962 163.36 160.962 165.84C160.962 168.34 160.082 170.38 157.482 170.38ZM167.693 173H171.293V168.02H173.533C176.593 168.02 175.293 172.4 175.993 173H179.733V172.8C178.913 172.56 180.213 167.02 176.633 166.4V166.36C178.413 165.96 179.533 164.76 179.533 162.86C179.533 160.16 177.613 158.7 174.433 158.7H167.693V173ZM171.293 161.64H173.733C175.173 161.64 175.933 162.16 175.933 163.36C175.933 164.56 175.173 165.08 173.733 165.08H171.293V161.64ZM192.061 163.44H195.661C195.321 160.7 193.141 158.38 189.221 158.38C184.721 158.38 182.301 161.54 182.301 165.84C182.301 170.16 184.721 173.32 188.781 173.32C190.881 173.32 192.221 172.48 192.901 171.18H192.941L193.301 173H195.881V165.4H189.441V168H192.161C192.121 169.38 190.961 170.38 189.301 170.38C186.801 170.38 185.901 168.54 185.901 165.84C185.901 163.16 186.801 161.32 189.161 161.32C191.141 161.32 191.801 162.46 192.061 163.44Z" fill="black"/>
<defs>
<filter id="filter0_d_1002_6796" x="0.117647" y="0.0157394" width="251.765" height="251.765" filterUnits="userSpaceOnUse" color-interpolation-filters="sRGB">
<feFlood flood-opacity="0" result="BackgroundImageFix"/>
<feColorMatrix in="SourceAlpha" type="matrix" values="0 0 0 0 0 0 0 0 0 0 0 0 0 0 0 0 0 0 127 0" result="hardAlpha"/>
<feOffset dy="17.9118"/>
<feGaussianBlur stdDeviation="11.9412"/>
<feComposite in2="hardAlpha" operator="out"/>
<feColorMatrix type="matrix" values="0 0 0 0 0 0 0 0 0 0 0 0 0 0 0 0 0 0 0.1 0"/>
<feBlend mode="normal" in2="BackgroundImageFix" result="effect1_dropShadow_1002_6796"/>
<feBlend mode="normal" in="SourceGraphic" in2="effect1_dropShadow_1002_6796" result="shape"/>
</filter>
<linearGradient id="paint0_linear_1002_6796" x1="102.442" y1="139.205" x2="102.442" y2="40" gradientUnits="userSpaceOnUse">
<stop stop-color="#002D74" stop-opacity="0"/>
<stop offset="1" stop-color="#002D74"/>
</linearGradient>
<linearGradient id="paint1_linear_1002_6796" x1="145.328" y1="139.205" x2="145.328" y2="40" gradientUnits="userSpaceOnUse">
<stop stop-color="#002D74"/>
<stop offset="1" stop-color="#002D74" stop-opacity="0"/>
</linearGradient>
<clipPath id="clip0_1002_6796">
<rect width="86.25" height="100" fill="white" transform="translate(81 40)"/>
</clipPath>
</defs>
</svg>
