<svg width="252" height="252" viewBox="0 0 252 252" fill="none" xmlns="http://www.w3.org/2000/svg">
<g filter="url(#filter0_d_1002_6833)">
<rect x="26" y="7.98633" width="200" height="200" rx="24" fill="white"/>
<rect x="25" y="6.98633" width="202" height="202" rx="25" stroke="#D4EDFF" stroke-width="2"/>
</g>
<g clip-path="url(#clip0_1002_6833)">
<path d="M124.704 140C152.707 140 175.408 117.614 175.408 90C175.408 62.3858 152.707 40 124.704 40C96.7011 40 74 62.3858 74 90C74 117.614 96.7011 140 124.704 140Z" fill="#FF0420"/>
<path d="M109.925 103.289C106.906 103.289 104.433 102.588 102.505 101.187C100.602 99.7615 99.6504 97.7351 99.6504 95.1081C99.6504 94.5577 99.7139 93.8821 99.8406 93.0815C100.171 91.2803 100.64 89.1161 101.249 86.5893C102.974 79.7093 107.427 76.2693 114.607 76.2693C116.56 76.2693 118.311 76.5945 119.858 77.2449C121.406 77.8703 122.624 78.8211 123.512 80.0971C124.4 81.3479 124.844 82.8491 124.844 84.6003C124.844 85.1257 124.78 85.7887 124.653 86.5893C124.273 88.8159 123.816 90.9801 123.283 93.0815C122.395 96.5091 120.86 99.0735 118.678 100.775C116.497 102.451 113.579 103.289 109.925 103.289ZM110.458 97.8851C111.879 97.8851 113.084 97.4723 114.074 96.6467C115.089 95.8211 115.812 94.5577 116.243 92.8565C116.826 90.5047 117.271 88.4531 117.575 86.7019C117.676 86.1765 117.727 85.6387 117.727 85.0881C117.727 82.8115 116.522 81.6731 114.112 81.6731C112.691 81.6731 111.473 82.0859 110.458 82.9115C109.469 83.7373 108.758 85.0007 108.327 86.7019C107.871 88.3781 107.414 90.4297 106.957 92.8565C106.856 93.3567 106.805 93.8821 106.805 94.4325C106.805 96.7343 108.023 97.8851 110.458 97.8851Z" fill="white"/>
<path d="M126.591 102.914C126.312 102.914 126.096 102.826 125.944 102.651C125.817 102.451 125.779 102.226 125.83 101.976L131.082 77.5827C131.132 77.3075 131.272 77.0823 131.5 76.9071C131.729 76.7321 131.97 76.6445 132.223 76.6445H142.346C145.162 76.6445 147.42 77.2199 149.12 78.3707C150.845 79.5217 151.708 81.1853 151.708 83.3619C151.708 83.9873 151.632 84.6379 151.48 85.3133C150.845 88.1905 149.564 90.3171 147.636 91.6931C145.733 93.0691 143.12 93.7571 139.796 93.7571H134.659L132.908 101.976C132.857 102.251 132.718 102.476 132.49 102.651C132.261 102.826 132.02 102.914 131.767 102.914H126.591ZM140.063 88.5783C141.128 88.5783 142.054 88.2905 142.841 87.7151C143.653 87.1397 144.186 86.3141 144.439 85.2383C144.515 84.8129 144.554 84.4377 144.554 84.1125C144.554 83.3869 144.338 82.8365 143.907 82.4613C143.475 82.0609 142.74 81.8609 141.699 81.8609H137.132L135.686 88.5783H140.063Z" fill="white"/>
</g>
<path d="M77.7241 173.32C82.2241 173.32 84.8041 170.16 84.8041 165.84C84.8041 161.54 82.2241 158.38 77.7241 158.38C73.1841 158.38 70.6441 161.54 70.6441 165.84C70.6441 170.16 73.1841 173.32 77.7241 173.32ZM77.7241 170.38C75.1041 170.38 74.2441 168.34 74.2441 165.84C74.2441 163.36 75.1041 161.32 77.7241 161.32C80.3241 161.32 81.2041 163.36 81.2041 165.84C81.2041 168.34 80.3241 170.38 77.7241 170.38ZM87.9351 173H91.5351V167.82H94.8751C97.8551 167.82 99.7151 166.26 99.7151 163.26C99.7151 160.26 97.8551 158.7 94.8751 158.7H87.9351V173ZM91.5351 161.64H94.1151C95.3551 161.64 96.1151 162.06 96.1151 163.26C96.1151 164.46 95.3551 164.88 94.1151 164.88H91.5351V161.64ZM106.252 173H109.852V161.64H113.992V158.7H102.092V161.64H106.252V173ZM117.08 158.7V173H120.68V158.7H117.08ZM124.396 173H127.796V164.1H127.836L130.496 173H133.016L135.676 164.1H135.716V173H139.116V158.7H134.716L131.776 167.82H131.736L128.796 158.7H124.396V173ZM142.846 158.7V173H146.446V158.7H142.846ZM156.377 164.12C154.577 163.62 153.677 163.34 153.677 162.46C153.677 161.66 154.517 161.32 155.597 161.32C156.977 161.32 157.897 161.96 158.057 163.04H161.657C161.557 160.14 158.937 158.38 155.597 158.38C152.517 158.38 150.077 159.6 150.077 162.72C150.077 165.36 152.237 166.42 154.697 167.14C156.717 167.74 158.257 168 158.257 169.14C158.257 169.86 157.537 170.38 156.197 170.38C154.597 170.38 153.277 169.82 153.277 168.3H149.677C149.677 171.48 152.477 173.32 156.197 173.32C159.777 173.32 161.857 171.54 161.857 168.8C161.857 165.74 159.077 164.86 156.377 164.12ZM165.056 173H168.456V164.1H168.496L171.156 173H173.676L176.336 164.1H176.376V173H179.776V158.7H175.376L172.436 167.82H172.396L169.456 158.7H165.056V173Z" fill="black"/>
<defs>
<filter id="filter0_d_1002_6833" x="0.117647" y="0.0157394" width="251.765" height="251.765" filterUnits="userSpaceOnUse" color-interpolation-filters="sRGB">
<feFlood flood-opacity="0" result="BackgroundImageFix"/>
<feColorMatrix in="SourceAlpha" type="matrix" values="0 0 0 0 0 0 0 0 0 0 0 0 0 0 0 0 0 0 127 0" result="hardAlpha"/>
<feOffset dy="17.9118"/>
<feGaussianBlur stdDeviation="11.9412"/>
<feComposite in2="hardAlpha" operator="out"/>
<feColorMatrix type="matrix" values="0 0 0 0 0 0 0 0 0 0 0 0 0 0 0 0 0 0 0.1 0"/>
<feBlend mode="normal" in2="BackgroundImageFix" result="effect1_dropShadow_1002_6833"/>
<feBlend mode="normal" in="SourceGraphic" in2="effect1_dropShadow_1002_6833" result="shape"/>
</filter>
<clipPath id="clip0_1002_6833">
<rect width="101.408" height="100" fill="white" transform="translate(74 40)"/>
</clipPath>
</defs>
</svg>
