<svg width="252" height="252" viewBox="0 0 252 252" fill="none" xmlns="http://www.w3.org/2000/svg">
<g filter="url(#filter0_d_1001_6767)">
<rect x="26" y="7.98633" width="200" height="200" rx="24" fill="white"/>
<rect x="25" y="6.98633" width="202" height="202" rx="25" stroke="#D4EDFF" stroke-width="2"/>
</g>
<g clip-path="url(#clip0_1001_6767)">
<path d="M154.339 70.447C152.279 69.2529 149.63 69.2529 147.276 70.447L130.797 80.2977L119.615 86.5664L103.43 96.4171C101.37 97.6111 98.7216 97.6111 96.3674 96.4171L83.7138 88.6559C81.6539 87.4619 80.1825 85.0738 80.1825 82.3872V67.4619C80.1825 65.0738 81.3596 62.6858 83.7138 61.1932L96.3674 53.7305C98.4273 52.5365 101.076 52.5365 103.43 53.7305L116.084 61.4917C118.143 62.6858 119.615 65.0738 119.615 67.7604V77.6111L130.797 71.044V60.8947C130.797 58.5067 129.62 56.1186 127.266 54.6261L103.724 40.5962C101.664 39.4022 99.0159 39.4022 96.6617 40.5962L72.5315 54.9246C70.1773 56.1186 69.0002 58.5067 69.0002 60.8947V88.9544C69.0002 91.3425 70.1773 93.7305 72.5315 95.2231L96.3674 109.253C98.4273 110.447 101.076 110.447 103.43 109.253L119.615 99.7007L130.797 93.1335L146.982 83.5813C149.042 82.3873 151.69 82.3873 154.045 83.5813L166.698 91.044C168.758 92.238 170.229 94.6261 170.229 97.3126V112.238C170.229 114.626 169.052 117.014 166.698 118.507L154.339 125.969C152.279 127.163 149.63 127.163 147.276 125.969L134.623 118.507C132.563 117.313 131.091 114.925 131.091 112.238V102.686L119.909 109.253V119.104C119.909 121.492 121.086 123.88 123.44 125.372L147.276 139.402C149.336 140.596 151.985 140.596 154.339 139.402L178.175 125.372C180.235 124.178 181.706 121.79 181.706 119.104V90.7455C181.706 88.3574 180.529 85.9693 178.175 84.4768L154.339 70.447Z" fill="#8247E5"/>
</g>
<path d="M75.0991 173H78.6991V167.82H82.0391C85.0191 167.82 86.8791 166.26 86.8791 163.26C86.8791 160.26 85.0191 158.7 82.0391 158.7H75.0991V173ZM78.6991 161.64H81.2791C82.5191 161.64 83.2791 162.06 83.2791 163.26C83.2791 164.46 82.5191 164.88 81.2791 164.88H78.6991V161.64ZM96.5913 173.32C101.091 173.32 103.671 170.16 103.671 165.84C103.671 161.54 101.091 158.38 96.5913 158.38C92.0513 158.38 89.5113 161.54 89.5113 165.84C89.5113 170.16 92.0513 173.32 96.5913 173.32ZM96.5913 170.38C93.9713 170.38 93.1113 168.34 93.1113 165.84C93.1113 163.36 93.9713 161.32 96.5913 161.32C99.1913 161.32 100.071 163.36 100.071 165.84C100.071 168.34 99.1913 170.38 96.5913 170.38ZM106.802 158.7V173H116.762V170.06H110.402V158.7H106.802ZM116.791 158.7L121.591 167.72V173H125.191V167.72L130.011 158.7H126.211L123.411 164.58H123.371L120.591 158.7H116.791ZM140.655 163.44H144.255C143.915 160.7 141.735 158.38 137.815 158.38C133.315 158.38 130.895 161.54 130.895 165.84C130.895 170.16 133.315 173.32 137.375 173.32C139.475 173.32 140.815 172.48 141.495 171.18H141.535L141.895 173H144.475V165.4H138.035V168H140.755C140.715 169.38 139.555 170.38 137.895 170.38C135.395 170.38 134.495 168.54 134.495 165.84C134.495 163.16 135.395 161.32 137.755 161.32C139.735 161.32 140.395 162.46 140.655 163.44ZM154.451 173.32C158.951 173.32 161.531 170.16 161.531 165.84C161.531 161.54 158.951 158.38 154.451 158.38C149.911 158.38 147.371 161.54 147.371 165.84C147.371 170.16 149.911 173.32 154.451 173.32ZM154.451 170.38C151.831 170.38 150.971 168.34 150.971 165.84C150.971 163.36 151.831 161.32 154.451 161.32C157.051 161.32 157.931 163.36 157.931 165.84C157.931 168.34 157.051 170.38 154.451 170.38ZM164.662 173H168.262V164.5H168.302L173.302 173H176.902V158.7H173.302V167.2H173.262L168.262 158.7H164.662V173Z" fill="black"/>
<defs>
<filter id="filter0_d_1001_6767" x="0.117647" y="0.0157394" width="251.765" height="251.765" filterUnits="userSpaceOnUse" color-interpolation-filters="sRGB">
<feFlood flood-opacity="0" result="BackgroundImageFix"/>
<feColorMatrix in="SourceAlpha" type="matrix" values="0 0 0 0 0 0 0 0 0 0 0 0 0 0 0 0 0 0 127 0" result="hardAlpha"/>
<feOffset dy="17.9118"/>
<feGaussianBlur stdDeviation="11.9412"/>
<feComposite in2="hardAlpha" operator="out"/>
<feColorMatrix type="matrix" values="0 0 0 0 0 0 0 0 0 0 0 0 0 0 0 0 0 0 0.1 0"/>
<feBlend mode="normal" in2="BackgroundImageFix" result="effect1_dropShadow_1001_6767"/>
<feBlend mode="normal" in="SourceGraphic" in2="effect1_dropShadow_1001_6767" result="shape"/>
</filter>
<clipPath id="clip0_1001_6767">
<rect width="113" height="100" fill="white" transform="translate(69 40)"/>
</clipPath>
</defs>
</svg>
