<svg width="252" height="252" viewBox="0 0 252 252" fill="none" xmlns="http://www.w3.org/2000/svg">
<g filter="url(#filter0_d_1002_6774)">
<rect x="26" y="7.98633" width="200" height="200" rx="24" fill="white"/>
<rect x="25" y="6.98633" width="202" height="202" rx="25" stroke="#D4EDFF" stroke-width="2"/>
</g>
<path d="M123.991 40L123.321 42.2789V108.4L123.991 109.07L154.684 90.9273L123.991 40Z" fill="#343434"/>
<path d="M123.991 40L93.2983 90.9273L123.991 109.07V76.9762V40Z" fill="#8C8C8C"/>
<path d="M123.992 114.881L123.614 115.342V138.895L123.992 139.999L154.703 96.7476L123.992 114.881Z" fill="#3C3C3B"/>
<path d="M123.991 139.999V114.881L93.2983 96.7478L123.991 139.999Z" fill="#8C8C8C"/>
<path d="M123.991 109.07L154.684 90.9272L123.991 76.9761V109.07Z" fill="#141414"/>
<path d="M93.2983 90.9272L123.991 109.07V76.9761L93.2983 90.9272Z" fill="#393939"/>
<path d="M69.8925 164.18V161.64H77.1325V158.7H66.2925V173H77.2525V170.06H69.8925V167.12H76.1325V164.18H69.8925ZM84.1211 173H87.7211V161.64H91.8611V158.7H79.9611V161.64H84.1211V173ZM94.9292 158.7V173H98.5292V167.24H103.429V173H107.029V158.7H103.429V164.3H98.5292V158.7H94.9292ZM114.342 164.18V161.64H121.582V158.7H110.742V173H121.702V170.06H114.342V167.12H120.582V164.18H114.342ZM125.05 173H128.65V168.02H130.89C133.95 168.02 132.65 172.4 133.35 173H137.09V172.8C136.27 172.56 137.57 167.02 133.99 166.4V166.36C135.77 165.96 136.89 164.76 136.89 162.86C136.89 160.16 134.97 158.7 131.79 158.7H125.05V173ZM128.65 161.64H131.09C132.53 161.64 133.29 162.16 133.29 163.36C133.29 164.56 132.53 165.08 131.09 165.08H128.65V161.64ZM143.818 164.18V161.64H151.058V158.7H140.218V173H151.178V170.06H143.818V167.12H150.058V164.18H143.818ZM166.387 167.84V158.7H162.787V167.84C162.787 169.7 161.987 170.38 160.407 170.38C158.827 170.38 158.027 169.7 158.027 167.84V158.7H154.427V167.84C154.427 171.4 156.087 173.32 160.407 173.32C164.727 173.32 166.387 171.4 166.387 167.84ZM169.988 173H173.388V164.1H173.428L176.088 173H178.608L181.268 164.1H181.308V173H184.708V158.7H180.308L177.368 167.82H177.328L174.388 158.7H169.988V173Z" fill="black"/>
<defs>
<filter id="filter0_d_1002_6774" x="0.117647" y="0.0157394" width="251.765" height="251.765" filterUnits="userSpaceOnUse" color-interpolation-filters="sRGB">
<feFlood flood-opacity="0" result="BackgroundImageFix"/>
<feColorMatrix in="SourceAlpha" type="matrix" values="0 0 0 0 0 0 0 0 0 0 0 0 0 0 0 0 0 0 127 0" result="hardAlpha"/>
<feOffset dy="17.9118"/>
<feGaussianBlur stdDeviation="11.9412"/>
<feComposite in2="hardAlpha" operator="out"/>
<feColorMatrix type="matrix" values="0 0 0 0 0 0 0 0 0 0 0 0 0 0 0 0 0 0 0.1 0"/>
<feBlend mode="normal" in2="BackgroundImageFix" result="effect1_dropShadow_1002_6774"/>
<feBlend mode="normal" in="SourceGraphic" in2="effect1_dropShadow_1002_6774" result="shape"/>
</filter>
</defs>
</svg>
