<svg width="20" height="20" viewBox="0 0 20 20" fill="none" xmlns="http://www.w3.org/2000/svg">
<path d="M1.66602 3.00025L1.48328 2.40256C1.2205 2.4829 1.04102 2.72546 1.04102 3.00025L1.66602 3.00025ZM9.99935 5.83359L10.6243 5.83359L9.99935 5.83359ZM9.37435 17.5003C9.37435 17.8454 9.65417 18.1253 9.99935 18.1253C10.3445 18.1253 10.6243 17.8454 10.6243 17.5003H9.37435ZM1.66602 15.0003L1.04102 15.0003C1.04102 15.1726 1.11216 15.3372 1.23763 15.4553C1.3631 15.5735 1.53177 15.6345 1.70377 15.6241L1.66602 15.0003ZM8.5811 3.91851C9.08901 4.42642 9.37435 5.11529 9.37435 5.83359L10.6243 5.83359C10.6243 4.78377 10.2073 3.77695 9.46498 3.03462L8.5811 3.91851ZM9.37435 5.83359V17.5003H10.6243V5.83359H9.37435ZM7.49935 14.1433C6.48286 14.1433 5.0111 14.202 3.80278 14.26C3.19663 14.2891 2.6533 14.3182 2.2615 14.34C2.06557 14.3509 1.90746 14.36 1.79824 14.3663C1.74363 14.3695 1.70123 14.372 1.67244 14.3738C1.65805 14.3746 1.64705 14.3753 1.63963 14.3757C1.63592 14.3759 1.6331 14.3761 1.6312 14.3762C1.63025 14.3763 1.62953 14.3763 1.62904 14.3763C1.62879 14.3764 1.6286 14.3764 1.62847 14.3764C1.62841 14.3764 1.62836 14.3764 1.62832 14.3764C1.62828 14.3764 1.62826 14.3764 1.66602 15.0003C1.70377 15.6241 1.70378 15.6241 1.7038 15.6241C1.70382 15.6241 1.70386 15.6241 1.70391 15.6241C1.70401 15.6241 1.70417 15.6241 1.70439 15.6241C1.70483 15.624 1.7055 15.624 1.7064 15.624C1.7082 15.6238 1.71091 15.6237 1.71451 15.6235C1.72172 15.623 1.7325 15.6224 1.74667 15.6215C1.77501 15.6199 1.81693 15.6174 1.87105 15.6142C1.97928 15.6079 2.13628 15.5989 2.33099 15.588C2.72047 15.5664 3.26051 15.5374 3.86271 15.5085C5.07109 15.4505 6.516 15.3933 7.49935 15.3933V14.1433ZM2.29102 15.0003L2.29102 3.00025L1.04102 3.00025L1.04102 15.0003L2.29102 15.0003ZM1.84875 3.59794C2.85019 3.29177 4.18652 2.98718 5.46667 2.96601C6.76341 2.94458 7.87744 3.21485 8.5811 3.91851L9.46498 3.03462C8.40589 1.97553 6.87187 1.69261 5.44601 1.71618C4.00358 1.74003 2.54276 2.07865 1.48328 2.40256L1.84875 3.59794ZM10.6243 17.5003C10.6243 15.7898 9.36139 14.1433 7.49935 14.1433V15.3933C8.5297 15.3933 9.37435 16.3298 9.37435 17.5003H10.6243Z" fill="#36BEFF"/>
<path d="M18.334 3.00025L18.5167 2.40256C18.7795 2.4829 18.959 2.72546 18.959 3.00025L18.334 3.00025ZM10.0007 5.83359L9.37565 5.83359L10.0007 5.83359ZM10.6257 17.5003C10.6257 17.8454 10.3458 18.1253 10.0007 18.1253C9.65547 18.1253 9.37565 17.8454 9.37565 17.5003H10.6257ZM18.334 15.0003L18.959 15.0003C18.959 15.1726 18.8878 15.3372 18.7624 15.4553C18.6369 15.5735 18.4682 15.6345 18.2962 15.6241L18.334 15.0003ZM11.4189 3.91851C10.911 4.42642 10.6257 5.11529 10.6257 5.83359L9.37565 5.83359C9.37565 4.78377 9.79269 3.77695 10.535 3.03462L11.4189 3.91851ZM10.6257 5.83359V17.5003H9.37565V5.83359H10.6257ZM12.5007 14.1433C13.5171 14.1433 14.9889 14.202 16.1972 14.26C16.8034 14.2891 17.3467 14.3182 17.7385 14.34C17.9344 14.3509 18.0925 14.36 18.2018 14.3663C18.2564 14.3695 18.2988 14.372 18.3276 14.3738C18.342 14.3746 18.3529 14.3753 18.3604 14.3757C18.3641 14.3759 18.3669 14.3761 18.3688 14.3762C18.3697 14.3763 18.3705 14.3763 18.371 14.3763C18.3712 14.3764 18.3714 14.3764 18.3715 14.3764C18.3716 14.3764 18.3716 14.3764 18.3717 14.3764C18.3717 14.3764 18.3717 14.3764 18.334 15.0003C18.2962 15.6241 18.2962 15.6241 18.2962 15.6241C18.2962 15.6241 18.2961 15.6241 18.2961 15.6241C18.296 15.6241 18.2958 15.6241 18.2956 15.6241C18.2952 15.624 18.2945 15.624 18.2936 15.624C18.2918 15.6238 18.2891 15.6237 18.2855 15.6235C18.2783 15.623 18.2675 15.6224 18.2533 15.6215C18.225 15.6199 18.1831 15.6174 18.129 15.6142C18.0207 15.6079 17.8637 15.5989 17.669 15.588C17.2795 15.5664 16.7395 15.5374 16.1373 15.5085C14.9289 15.4505 13.484 15.3933 12.5007 15.3933V14.1433ZM17.709 15.0003L17.709 3.00025L18.959 3.00025L18.959 15.0003L17.709 15.0003ZM18.1513 3.59794C17.1498 3.29177 15.8135 2.98718 14.5333 2.96601C13.2366 2.94458 12.1226 3.21485 11.4189 3.91851L10.535 3.03462C11.5941 1.97553 13.1281 1.69261 14.554 1.71618C15.9964 1.74003 17.4572 2.07865 18.5167 2.40256L18.1513 3.59794ZM9.37565 17.5003C9.37565 15.7898 10.6386 14.1433 12.5007 14.1433V15.3933C11.4703 15.3933 10.6257 16.3298 10.6257 17.5003H9.37565Z" fill="#36BEFF"/>
</svg>
