<svg width="252" height="252" viewBox="0 0 252 252" fill="none" xmlns="http://www.w3.org/2000/svg">
<g filter="url(#filter0_d_1002_6843)">
<rect x="26" y="7.98633" width="200" height="200" rx="24" fill="white"/>
<rect x="25" y="6.98633" width="202" height="202" rx="25" stroke="#D4EDFF" stroke-width="2"/>
</g>
<g clip-path="url(#clip0_1002_6843)">
<path d="M127 140C154.614 140 177 117.614 177 90C177 62.3858 154.614 40 127 40C99.3858 40 77 62.3858 77 90C77 117.614 99.3858 140 127 140Z" fill="#00EF8B"/>
<path d="M148.941 82.1802H134.821V96.3002H148.941V82.1802Z" fill="white"/>
<path d="M120.71 101.59C120.71 102.638 120.399 103.663 119.817 104.534C119.234 105.406 118.407 106.085 117.438 106.486C116.47 106.888 115.404 106.993 114.376 106.788C113.348 106.584 112.404 106.079 111.662 105.338C110.921 104.596 110.416 103.652 110.212 102.624C110.007 101.596 110.112 100.53 110.513 99.5617C110.915 98.5933 111.594 97.7655 112.465 97.1831C113.337 96.6008 114.362 96.2899 115.41 96.2899H120.71V82.1799H115.41C111.571 82.1799 107.818 83.3183 104.626 85.4511C101.434 87.5839 98.9466 90.6153 97.4775 94.162C96.0084 97.7088 95.624 101.611 96.373 105.377C97.1219 109.142 98.9705 112.6 101.685 115.315C104.4 118.029 107.858 119.878 111.623 120.627C115.388 121.376 119.291 120.992 122.838 119.522C126.385 118.053 129.416 115.566 131.549 112.374C133.682 109.182 134.82 105.429 134.82 101.59V96.2899H120.71V101.59Z" fill="white"/>
<path d="M140.119 75.12H155.999V61H140.119C134.973 61.0053 130.039 63.052 126.4 66.6909C122.761 70.3298 120.715 75.2638 120.709 80.41V82.18H134.819V80.41C134.822 79.0061 135.382 77.6606 136.375 76.6688C137.369 75.677 138.716 75.12 140.119 75.12V75.12Z" fill="white"/>
<path d="M120.709 96.2902H134.819V82.1802H120.709V96.2902Z" fill="#16FF99"/>
</g>
<path d="M99.957 164.78V161.64H106.997V158.7H96.357V173H99.957V167.72H105.697V164.78H99.957ZM110.138 158.7V173H120.098V170.06H113.738V158.7H110.138ZM129.189 173.32C133.689 173.32 136.269 170.16 136.269 165.84C136.269 161.54 133.689 158.38 129.189 158.38C124.649 158.38 122.109 161.54 122.109 165.84C122.109 170.16 124.649 173.32 129.189 173.32ZM129.189 170.38C126.569 170.38 125.709 168.34 125.709 165.84C125.709 163.36 126.569 161.32 129.189 161.32C131.789 161.32 132.669 163.36 132.669 165.84C132.669 168.34 131.789 170.38 129.189 170.38ZM137.814 158.7L141.454 173H145.054L147.194 164.08H147.234L149.374 173H152.974L156.614 158.7H153.014L151.174 168.4H151.134L148.914 158.7H145.514L143.294 168.4H143.254L141.414 158.7H137.814Z" fill="black"/>
<defs>
<filter id="filter0_d_1002_6843" x="0.117647" y="0.0157394" width="251.765" height="251.765" filterUnits="userSpaceOnUse" color-interpolation-filters="sRGB">
<feFlood flood-opacity="0" result="BackgroundImageFix"/>
<feColorMatrix in="SourceAlpha" type="matrix" values="0 0 0 0 0 0 0 0 0 0 0 0 0 0 0 0 0 0 127 0" result="hardAlpha"/>
<feOffset dy="17.9118"/>
<feGaussianBlur stdDeviation="11.9412"/>
<feComposite in2="hardAlpha" operator="out"/>
<feColorMatrix type="matrix" values="0 0 0 0 0 0 0 0 0 0 0 0 0 0 0 0 0 0 0.1 0"/>
<feBlend mode="normal" in2="BackgroundImageFix" result="effect1_dropShadow_1002_6843"/>
<feBlend mode="normal" in="SourceGraphic" in2="effect1_dropShadow_1002_6843" result="shape"/>
</filter>
<clipPath id="clip0_1002_6843">
<rect width="100" height="100" fill="white" transform="translate(77 40)"/>
</clipPath>
</defs>
</svg>
