<svg width="52" height="52" viewBox="0 0 52 52" fill="none" xmlns="http://www.w3.org/2000/svg">
<path opacity="0.6" d="M40.8056 16.3056C41.2525 16.0476 41.8031 16.0476 42.25 16.3056L47.9984 19.6245C48.4453 19.8825 48.7206 20.3593 48.7206 20.8754V27.5131C48.7206 28.0291 48.4453 28.506 47.9984 28.764L42.25 32.0828C41.8031 32.3408 41.2525 32.3408 40.8056 32.0828L35.0572 28.764C34.6103 28.506 34.335 28.0291 34.335 27.5131V20.8754C34.335 20.3594 34.6103 19.8825 35.0572 19.6245L40.8056 16.3056Z" fill="url(#paint0_linear_140_10927)"/>
<path opacity="0.3" d="M10.1742 13.8116C12.5932 12.415 15.5735 12.415 17.9925 13.8116C20.4115 15.2082 21.9016 17.7893 21.9016 20.5825C21.9016 23.3757 20.4115 25.9567 17.9925 27.3533C15.5735 28.7499 12.5932 28.7499 10.1742 27.3533C7.75521 25.9567 6.26505 23.3757 6.26505 20.5825C6.26505 17.7893 7.75521 15.2082 10.1742 13.8116Z" fill="url(#paint1_linear_140_10927)"/>
<path fill-rule="evenodd" clip-rule="evenodd" d="M22.0764 7.22374C22.0764 6.426 22.7231 5.7793 23.5208 5.7793H27.8774C28.6752 5.7793 29.3219 6.426 29.3219 7.22374V11.5803C29.3219 12.3781 28.6752 13.0248 27.8774 13.0248H26.6048V17.8661C26.9157 17.9467 27.2183 18.0695 27.5039 18.2344L34.8737 22.4893C35.9909 23.1344 36.6792 24.3265 36.6792 25.6166V34.1265C36.6792 34.4563 36.6342 34.7797 36.5486 35.0892L44.2509 39.5361L44.9065 38.4007C45.3054 37.7098 46.1888 37.4731 46.8797 37.872L50.6526 40.0503C51.3435 40.4491 51.5802 41.3325 51.1813 42.0234L49.003 45.7963C48.6041 46.4872 47.7207 46.7239 47.0298 46.325L43.2569 44.1467C42.566 43.7479 42.3293 42.8645 42.7282 42.1736L43.3453 41.1048L35.6433 36.6581C35.4178 36.8875 35.1598 37.0886 34.8737 37.2538L27.5039 41.5087C26.3866 42.1538 25.0101 42.1538 23.8928 41.5087L16.523 37.2538C16.2367 37.0885 15.9786 36.8873 15.753 36.6577L8.03532 41.1134L8.64707 42.173C9.04595 42.8639 8.80924 43.7473 8.11837 44.1462L4.34544 46.3245C3.65457 46.7234 2.77116 46.4866 2.37229 45.7958L0.193989 42.0228C-0.204884 41.332 0.0318256 40.4486 0.722693 40.0497L4.49562 37.8714C5.18649 37.4725 6.0699 37.7092 6.46877 38.4001L7.12963 39.5447L14.8479 35.0886C14.7624 34.7793 14.7175 34.4561 14.7175 34.1265V25.6166C14.7175 24.3265 15.4057 23.1344 16.523 22.4893L23.8928 18.2344C24.1789 18.0692 24.482 17.9463 24.7935 17.8657V13.0248H23.5208C22.7231 13.0248 22.0764 12.3781 22.0764 11.5803V7.22374Z" fill="url(#paint2_linear_140_10927)"/>
<path d="M29.9676 28.1089L25.3325 32.8726C25.075 33.1347 24.7745 33.2222 24.4742 33.2222C24.1736 33.2222 23.8306 33.0911 23.6159 32.8726L21.2985 30.5127C20.8264 30.0319 20.8264 29.2454 21.2985 28.7207C21.7706 28.24 22.543 28.24 23.0582 28.7207L24.5174 30.2066L28.2942 26.3606C28.7663 25.8798 29.5387 25.8798 30.0539 26.3606C30.4398 26.8416 30.4397 27.6281 29.9676 28.1089Z" fill="#020202"/>
<path d="M29.9676 28.1089L25.3325 32.8726C25.075 33.1347 24.7745 33.2222 24.4742 33.2222C24.1736 33.2222 23.8306 33.0911 23.6159 32.8726L21.2985 30.5127C20.8264 30.0319 20.8264 29.2454 21.2985 28.7207C21.7706 28.24 22.543 28.24 23.0582 28.7207L24.5174 30.2066L28.2942 26.3606C28.7663 25.8798 29.5387 25.8798 30.0539 26.3606C30.4398 26.8416 30.4397 27.6281 29.9676 28.1089Z" fill="url(#paint3_linear_140_10927)"/>
<path d="M29.9676 28.1089L25.3325 32.8726C25.075 33.1347 24.7745 33.2222 24.4742 33.2222C24.1736 33.2222 23.8306 33.0911 23.6159 32.8726L21.2985 30.5127C20.8264 30.0319 20.8264 29.2454 21.2985 28.7207C21.7706 28.24 22.543 28.24 23.0582 28.7207L24.5174 30.2066L28.2942 26.3606C28.7663 25.8798 29.5387 25.8798 30.0539 26.3606C30.4398 26.8416 30.4397 27.6281 29.9676 28.1089Z" fill="url(#paint4_linear_140_10927)"/>
<path d="M29.9676 28.1089L25.3325 32.8726C25.075 33.1347 24.7745 33.2222 24.4742 33.2222C24.1736 33.2222 23.8306 33.0911 23.6159 32.8726L21.2985 30.5127C20.8264 30.0319 20.8264 29.2454 21.2985 28.7207C21.7706 28.24 22.543 28.24 23.0582 28.7207L24.5174 30.2066L28.2942 26.3606C28.7663 25.8798 29.5387 25.8798 30.0539 26.3606C30.4398 26.8416 30.4397 27.6281 29.9676 28.1089Z" fill="#F5F7FF"/>
<defs>
<linearGradient id="paint0_linear_140_10927" x1="33.2222" y1="15.8887" x2="53.4885" y2="30.7923" gradientUnits="userSpaceOnUse">
<stop offset="0.24238" stop-color="#36BEFF"/>
<stop offset="1" stop-color="#733FF1"/>
</linearGradient>
<linearGradient id="paint1_linear_140_10927" x1="5.05556" y1="11.5547" x2="27.0841" y2="27.7543" gradientUnits="userSpaceOnUse">
<stop offset="0.24238" stop-color="#36BEFF"/>
<stop offset="1" stop-color="#733FF1"/>
</linearGradient>
<linearGradient id="paint2_linear_140_10927" x1="0.000228882" y1="5.7793" x2="51.9226" y2="53.9307" gradientUnits="userSpaceOnUse">
<stop offset="0.24238" stop-color="#36BEFF"/>
<stop offset="1" stop-color="#733FF1"/>
</linearGradient>
<linearGradient id="paint3_linear_140_10927" x1="2.46004" y1="8.6612" x2="47.0507" y2="54.0948" gradientUnits="userSpaceOnUse">
<stop stop-color="#FFA34E"/>
<stop offset="0.410355" stop-color="#CC759A"/>
<stop offset="1" stop-color="#4A4BFF"/>
</linearGradient>
<linearGradient id="paint4_linear_140_10927" x1="7.84833" y1="8.6612" x2="48.1148" y2="11.2199" gradientUnits="userSpaceOnUse">
<stop stop-color="#2AA2FF"/>
<stop offset="1" stop-color="#676AFF"/>
</linearGradient>
</defs>
</svg>
