<svg width="271" height="62" viewBox="0 0 271 62" fill="none" xmlns="http://www.w3.org/2000/svg">
<g clip-path="url(#clip0_239_5444)">
<path fill-rule="evenodd" clip-rule="evenodd" d="M31.0074 62C48.131 62 62.0142 48.1199 62.0142 31C62.0142 13.8801 48.1346 0 31.0074 0C13.8837 0 0.000488281 13.8801 0.000488281 31C0.000488281 48.1199 13.8837 62 31.0074 62ZM51.2508 36.3823V34.3854C51.2508 34.2006 51.0724 34.0669 50.8972 34.1178L41.4645 36.8442C41.4135 36.8569 41.3688 36.8855 41.3338 36.9238C40.3236 38.0394 39.465 38.7882 39.2375 38.9866L39.2217 39.0003C38.6356 39.4972 37.9092 39.768 37.1446 39.768H33.7296V36.2868H36.4438C36.5139 36.2868 36.5808 36.2613 36.6318 36.2167L36.9822 35.895C37.1319 35.758 37.3103 35.5924 37.5237 35.379L37.5788 35.3241L37.5789 35.324L37.5789 35.324C37.691 35.2123 37.8109 35.0929 37.9283 34.9618C38.0685 34.8249 38.2055 34.672 38.3329 34.5223C38.5463 34.293 38.7502 34.0541 38.9637 33.8025C39.1166 33.6369 39.2568 33.449 39.3938 33.2611C39.5467 33.0827 39.6964 32.882 39.8365 32.691C39.8887 32.6143 39.9442 32.5368 40.001 32.4577L40.0013 32.4573L40.0019 32.4564C40.0557 32.3813 40.1105 32.3048 40.1646 32.226C40.2666 32.0731 40.3685 31.9106 40.4546 31.7577C40.7221 31.3437 40.9484 30.901 41.1395 30.4583C41.2272 30.2687 41.2973 30.0691 41.3655 29.8751L41.3655 29.875L41.3912 29.8022C41.4676 29.576 41.5313 29.3627 41.5791 29.1365C41.6938 28.6046 41.7193 28.0759 41.6683 27.5472C41.6556 27.3816 41.6428 27.2192 41.6046 27.0663V27.0408C41.5918 26.9325 41.5663 26.8115 41.5313 26.7C41.4166 26.1841 41.2382 25.6681 41.0121 25.1617C40.9356 24.9738 40.8464 24.7827 40.7604 24.6075C40.5565 24.2285 40.3431 23.8495 40.101 23.4832C40.0524 23.4059 39.9987 23.3275 39.9451 23.2493C39.9039 23.189 39.8626 23.1288 39.8238 23.0692C39.6706 22.8328 39.4982 22.605 39.331 22.3839L39.3309 22.3837L39.3309 22.3837L39.3302 22.3828C39.2926 22.3331 39.2553 22.2838 39.2185 22.2347C39.1198 22.1051 39.0117 21.9755 38.9029 21.845C38.8432 21.7735 38.7834 21.7017 38.7247 21.6295C38.5591 21.4289 38.3966 21.2378 38.231 21.0499C37.6385 20.3811 37.0173 19.7759 36.4629 19.26C36.361 19.158 36.2495 19.0561 36.1348 18.9574C35.7047 18.5656 35.3129 18.2248 34.9848 17.9605C34.8862 17.8847 34.7978 17.81 34.7155 17.7404L34.7153 17.7403C34.6593 17.693 34.6062 17.6482 34.5547 17.607C34.4559 17.5333 34.37 17.468 34.2978 17.413L34.297 17.4123L34.2965 17.4119L34.2964 17.4119C34.2505 17.3769 34.2102 17.3462 34.1756 17.3203C34.1501 17.3012 34.1215 17.2885 34.0928 17.2789L33.7296 17.177V14.1704C33.7296 13.6799 33.5321 13.2404 33.2168 12.9187C32.9014 12.597 32.4617 12.3995 31.9775 12.3995C31.0091 12.3995 30.2254 13.1926 30.2254 14.1704V16.196L30.0438 16.1451L29.55 16.0049L29.1008 15.8807C29.0995 15.8807 29.0982 15.8802 29.0967 15.8795C29.0945 15.8786 29.0918 15.8775 29.0881 15.8775H29.0786L25.6699 14.9539C25.5202 14.9125 25.3927 15.0749 25.4692 15.2119L26.0139 16.2183C26.0449 16.2957 26.084 16.373 26.1243 16.4525C26.1504 16.5039 26.1769 16.5563 26.2019 16.6101C26.2911 16.7884 26.3803 16.9763 26.4663 17.1642C26.5428 17.3298 26.6192 17.4923 26.7084 17.6707C26.7459 17.7545 26.7841 17.8393 26.8229 17.9254C26.9653 18.2415 27.115 18.5739 27.2627 18.9319L27.2627 18.932C27.3901 19.2345 27.5176 19.5371 27.6291 19.8524C27.9349 20.6454 28.2248 21.4926 28.4765 22.3621C28.5391 22.5567 28.5892 22.745 28.6399 22.9358L28.6399 22.9359C28.6614 23.0168 28.683 23.0982 28.7058 23.1807L28.7408 23.3335C28.8428 23.738 28.932 24.1393 28.9957 24.5438C29.0467 24.8209 29.0945 25.0852 29.1199 25.3528C29.1582 25.6553 29.1964 25.958 29.2092 26.2605C29.2347 26.5376 29.2474 26.8274 29.2474 27.1045C29.2474 27.8116 29.1837 28.4931 29.0339 29.1365L29.0057 29.2414L29.0057 29.2415C28.9638 29.398 28.9203 29.5603 28.8683 29.7162C28.8213 29.8832 28.7603 30.0502 28.697 30.2236L28.697 30.2236L28.697 30.2236L28.6969 30.2238C28.6745 30.2851 28.6518 30.3473 28.6293 30.4105L28.6168 30.4443L28.6167 30.4444L28.6167 30.4444C28.5699 30.5705 28.5222 30.6989 28.4637 30.8246C28.1483 31.5826 27.7565 32.3374 27.3519 33.0445C26.7594 34.0924 26.1637 35.0128 25.7463 35.6052C25.7209 35.6434 25.696 35.6798 25.672 35.7148L25.6719 35.715C25.642 35.7586 25.6136 35.8002 25.5871 35.8409C25.4565 36.0256 25.5902 36.2868 25.8164 36.2868H30.2254V39.768H25.7654C24.5676 39.768 23.459 39.0896 22.9238 38.0034C22.6467 37.4588 22.5384 36.86 22.6021 36.274C22.618 36.0989 22.4874 35.9333 22.309 35.9333H13.2999C13.147 35.9333 13.0228 36.0574 13.0228 36.2103V36.395C13.0228 42.1408 17.6643 46.7971 23.3921 46.7971H39.553C42.5824 46.7971 44.3025 44.0372 45.9932 41.3245C46.4645 40.5683 46.9336 39.8158 47.428 39.1277C48.3168 37.892 50.4544 36.911 51.0788 36.6435C51.1807 36.5989 51.2508 36.497 51.2508 36.3823ZM15.4312 31.831L15.2974 32.0412C15.1795 32.2227 15.3101 32.4648 15.5331 32.4648H23.8286C23.921 32.4648 24.007 32.4202 24.0579 32.3438C24.1663 32.1782 24.2682 32.0062 24.3606 31.831C25.0774 30.627 25.7145 29.3244 25.9471 28.3626C26.4918 26.0248 25.329 22.2697 23.9815 19.2504C23.8923 19.0497 23.6152 19.0306 23.4973 19.2153L15.4312 31.831Z" fill="#2081E2"/>
<path d="M92.2286 45.8776C89.4256 45.8776 86.8489 45.2496 84.4992 43.9936C82.1774 42.7375 80.3226 40.9901 78.9354 38.7511C77.5766 36.4848 76.897 33.9455 76.897 31.1332C76.897 28.3208 77.5766 25.7951 78.9354 23.5562C80.3226 21.3172 82.1774 19.5697 84.4992 18.3137C86.8489 17.0577 89.4256 16.4297 92.2286 16.4297C95.0317 16.4297 97.5941 17.0577 99.9159 18.3137C102.266 19.5697 104.106 21.3172 105.437 23.5562C106.796 25.7951 107.475 28.3208 107.475 31.1332C107.475 33.9455 106.796 36.4848 105.437 38.7511C104.078 40.9901 102.238 42.7375 99.9159 43.9936C97.5941 45.2496 95.0317 45.8776 92.2286 45.8776ZM92.2286 39.4883C94.6069 39.4883 96.5039 38.7238 97.9196 37.1947C99.3639 35.6657 100.086 33.6452 100.086 31.1332C100.086 28.5938 99.3639 26.5733 97.9196 25.0716C96.5039 23.5425 94.6069 22.778 92.2286 22.778C89.8219 22.778 87.897 23.5289 86.4527 25.0306C85.0369 26.5323 84.3293 28.5665 84.3293 31.1332C84.3293 33.6724 85.0369 35.7067 86.4527 37.2357C87.897 38.7375 89.8219 39.4883 92.2286 39.4883Z" fill="white"/>
<path d="M118.779 25.9734C119.487 24.9086 120.463 24.0484 121.709 23.3932C122.955 22.7378 124.413 22.4102 126.084 22.4102C128.037 22.4102 129.807 22.888 131.393 23.8437C132.978 24.7993 134.224 26.1646 135.13 27.9393C136.064 29.7141 136.531 31.7756 136.531 34.1238C136.531 36.472 136.064 38.5471 135.13 40.3492C134.224 42.124 132.978 43.5029 131.393 44.4859C129.807 45.4415 128.037 45.9193 126.084 45.9193C124.442 45.9193 122.984 45.5917 121.709 44.9364C120.463 44.2811 119.487 43.4347 118.779 42.397V52.3905H111.517V22.7378H118.779V25.9734ZM129.142 34.1238C129.142 32.3763 128.632 31.0111 127.612 30.0282C126.621 29.0179 125.39 28.5128 123.917 28.5128C122.474 28.5128 121.242 29.0179 120.223 30.0282C119.232 31.0384 118.736 32.4173 118.736 34.1647C118.736 35.9123 119.232 37.2911 120.223 38.3014C121.242 39.3117 122.474 39.8168 123.917 39.8168C125.362 39.8168 126.593 39.3117 127.612 38.3014C128.632 37.2638 129.142 35.8713 129.142 34.1238Z" fill="white"/>
<path d="M162.68 33.7961C162.68 34.4515 162.638 35.134 162.553 35.844H146.117C146.231 37.2638 146.698 38.356 147.519 39.1205C148.368 39.8578 149.401 40.2264 150.619 40.2264C152.431 40.2264 153.691 39.4891 154.399 38.0147H162.128C161.732 39.5165 161.01 40.868 159.962 42.0694C158.943 43.2708 157.655 44.2128 156.098 44.8955C154.54 45.578 152.799 45.9193 150.874 45.9193C148.552 45.9193 146.485 45.4415 144.673 44.4859C142.861 43.5302 141.446 42.165 140.426 40.3902C139.407 38.6154 138.897 36.5403 138.897 34.1647C138.897 31.7893 139.393 29.7141 140.384 27.9393C141.403 26.1646 142.819 24.7993 144.631 23.8437C146.443 22.888 148.524 22.4102 150.874 22.4102C153.167 22.4102 155.206 22.8744 156.989 23.8027C158.773 24.7311 160.161 26.0553 161.152 27.7755C162.171 29.4957 162.68 31.5026 162.68 33.7961ZM155.249 31.9531C155.249 30.7517 154.824 29.796 153.974 29.0861C153.125 28.3762 152.063 28.0213 150.789 28.0213C149.571 28.0213 148.538 28.3626 147.689 29.0451C146.867 29.7278 146.358 30.6971 146.16 31.9531H155.249Z" fill="white"/>
<path d="M180.952 22.4922C183.727 22.4922 185.935 23.3659 187.577 25.1134C189.248 26.8336 190.083 29.2091 190.083 32.2399V45.5918H182.863V33.1819C182.863 31.6528 182.452 30.4651 181.631 29.6187C180.81 28.7722 179.706 28.349 178.319 28.349C176.931 28.349 175.827 28.7722 175.006 29.6187C174.185 30.4651 173.775 31.6528 173.775 33.1819V45.5918H166.512V22.7379H173.775V25.7687C174.511 24.7584 175.502 23.9666 176.748 23.3932C177.993 22.7925 179.394 22.4922 180.952 22.4922Z" fill="white"/>
<path d="M205.917 45.8776C203.737 45.8776 201.783 45.5363 200.056 44.8536C198.329 44.171 196.942 43.1608 195.894 41.8228C194.875 40.4849 194.337 38.874 194.28 36.9899H202.01C202.123 38.0549 202.505 38.874 203.157 39.4474C203.808 39.9935 204.657 40.2665 205.705 40.2665C206.781 40.2665 207.63 40.0344 208.253 39.5703C208.876 39.0788 209.188 38.4098 209.188 37.5634C209.188 36.8534 208.933 36.2664 208.423 35.8022C207.942 35.338 207.333 34.9558 206.597 34.6555C205.889 34.3551 204.87 34.0138 203.539 33.6315C201.613 33.0581 200.042 32.4847 198.825 31.9113C197.607 31.338 196.56 30.4915 195.682 29.372C194.804 28.2525 194.365 26.7917 194.365 24.9897C194.365 22.3138 195.37 20.225 197.381 18.7233C199.391 17.1942 202.01 16.4297 205.237 16.4297C208.522 16.4297 211.169 17.1942 213.18 18.7233C215.19 20.225 216.266 22.3274 216.407 25.0306H208.55C208.494 24.1022 208.14 23.3786 207.489 22.8599C206.837 22.3138 206.002 22.0407 204.983 22.0407C204.105 22.0407 203.398 22.2728 202.859 22.737C202.322 23.1739 202.052 23.8156 202.052 24.662C202.052 25.5903 202.505 26.3139 203.412 26.8327C204.318 27.3515 205.733 27.9112 207.658 28.5119C209.584 29.1399 211.141 29.7406 212.33 30.314C213.548 30.8874 214.595 31.7202 215.473 32.8124C216.351 33.9046 216.789 35.3107 216.789 37.0309C216.789 38.6692 216.351 40.1573 215.473 41.4952C214.624 42.8331 213.378 43.898 211.736 44.6898C210.094 45.4816 208.154 45.8776 205.917 45.8776Z" fill="white"/>
<path d="M243.598 33.7961C243.598 34.4515 243.556 35.134 243.471 35.844H227.035C227.148 37.2638 227.615 38.356 228.436 39.1205C229.286 39.8578 230.319 40.2264 231.537 40.2264C233.349 40.2264 234.609 39.4891 235.317 38.0147H243.046C242.65 39.5165 241.928 40.868 240.88 42.0694C239.861 43.2708 238.573 44.2128 237.015 44.8955C235.458 45.578 233.717 45.9193 231.792 45.9193C229.47 45.9193 227.403 45.4415 225.591 44.4859C223.779 43.5302 222.363 42.165 221.344 40.3902C220.325 38.6154 219.815 36.5403 219.815 34.1647C219.815 31.7893 220.31 29.7141 221.301 27.9393C222.32 26.1646 223.736 24.7993 225.548 23.8437C227.36 22.888 229.441 22.4102 231.792 22.4102C234.085 22.4102 236.123 22.8744 237.907 23.8027C239.691 24.7311 241.078 26.0553 242.069 27.7755C243.089 29.4957 243.598 31.5026 243.598 33.7961ZM236.166 31.9531C236.166 30.7517 235.741 29.796 234.892 29.0861C234.042 28.3762 232.98 28.0213 231.707 28.0213C230.489 28.0213 229.456 28.3626 228.606 29.0451C227.785 29.7278 227.275 30.6971 227.077 31.9531H236.166Z" fill="white"/>
<path d="M245.984 34.1238C245.984 31.7756 246.437 29.7141 247.343 27.9393C248.277 26.1646 249.537 24.7993 251.123 23.8437C252.709 22.888 254.478 22.4102 256.432 22.4102C258.102 22.4102 259.561 22.7378 260.806 23.3932C262.08 24.0484 263.057 24.9086 263.737 25.9734V22.7378H270.999V45.5917H263.737V42.3561C263.029 43.421 262.038 44.2811 260.764 44.9364C259.518 45.5917 258.06 45.9193 256.389 45.9193C254.464 45.9193 252.709 45.4415 251.123 44.4859C249.537 43.5029 248.277 42.124 247.343 40.3492C246.437 38.5471 245.984 36.472 245.984 34.1238ZM263.737 34.1647C263.737 32.4173 263.227 31.0384 262.208 30.0282C261.217 29.0179 259.999 28.5128 258.555 28.5128C257.111 28.5128 255.879 29.0179 254.861 30.0282C253.87 31.0111 253.374 32.3763 253.374 34.1238C253.374 35.8713 253.87 37.2638 254.861 38.3014C255.879 39.3117 257.111 39.8168 258.555 39.8168C259.999 39.8168 261.217 39.3117 262.208 38.3014C263.227 37.2912 263.737 35.9123 263.737 34.1647Z" fill="white"/>
</g>
<defs>
<clipPath id="clip0_239_5444">
<rect width="271" height="62" fill="white"/>
</clipPath>
</defs>
</svg>
