<svg width="6" height="8" viewBox="0 0 6 8" fill="none" xmlns="http://www.w3.org/2000/svg">
<path d="M5 4.00011L5.44999 4.60012C5.63885 4.45848 5.75 4.23619 5.75 4.00013C5.75 3.76406 5.63886 3.54176 5.45001 3.40012L5 4.00011ZM1.45001 0.400008C1.11864 0.151474 0.648542 0.218623 0.400008 0.549989C0.151474 0.881356 0.218623 1.35146 0.549989 1.59999L1.45001 0.400008ZM0.550015 6.39999C0.21864 6.64851 0.151475 7.11861 0.399997 7.44999C0.64852 7.78136 1.11862 7.84853 1.44999 7.60001L0.550015 6.39999ZM0.549989 1.59999L4.54999 4.6001L5.45001 3.40012L1.45001 0.400008L0.549989 1.59999ZM4.55001 3.4001L0.550015 6.39999L1.44999 7.60001L5.44999 4.60012L4.55001 3.4001Z" fill="url(#paint0_linear_619_1248)"/>
<defs>
<linearGradient id="paint0_linear_619_1248" x1="1" y1="1" x2="7.06227" y2="3.9721" gradientUnits="userSpaceOnUse">
<stop offset="0.24238" stop-color="#36BEFF"/>
<stop offset="1" stop-color="#733FF1"/>
</linearGradient>
</defs>
</svg>
