<svg width="88" height="20" viewBox="0 0 88 20" fill="none" xmlns="http://www.w3.org/2000/svg">
<path fill-rule="evenodd" clip-rule="evenodd" d="M64.2341 14.0863C64.7962 14.3072 65.4387 14.4276 66.1414 14.4276C66.8842 14.4276 67.5066 14.3072 68.0688 14.0462C68.5908 13.7852 68.9923 13.4439 69.2734 13.0022C69.5545 12.5605 69.695 12.0786 69.695 11.5566C69.695 10.9945 69.5545 10.5528 69.2734 10.1914C68.9923 9.85011 68.651 9.56903 68.2495 9.38834C67.868 9.20765 67.3661 9.00688 66.7437 8.80611C66.1213 8.60534 65.6796 8.42465 65.3785 8.26403C65.0773 8.10342 64.9368 7.86249 64.9368 7.56134C64.9368 7.28026 65.0171 7.0795 65.1978 6.93896C65.3584 6.79842 65.5993 6.71811 65.8804 6.71811C66.2016 6.71811 66.4827 6.79842 66.6835 6.97911C66.8842 7.13973 67.0047 7.38065 67.0248 7.6818L69.5745 7.6818C69.5344 6.79842 69.173 6.1158 68.5305 5.63396C67.8881 5.13204 67.0248 4.89111 65.9607 4.89111C64.9167 4.89111 64.0534 5.13204 63.4109 5.63396C62.7484 6.1158 62.4272 6.79842 62.4272 7.66173C62.4272 8.24396 62.5677 8.7258 62.8488 9.08719C63.1298 9.44857 63.4712 9.72965 63.8727 9.91034C64.2742 10.1111 64.7762 10.2918 65.3985 10.4725C65.5103 10.5097 65.6164 10.5442 65.7161 10.5765C65.9926 10.6662 66.22 10.74 66.3823 10.8138C66.6032 10.8941 66.8039 11.0346 66.9645 11.1752C67.1252 11.3157 67.2055 11.5165 67.2055 11.7373C67.2055 11.9983 67.1051 12.2192 66.9043 12.3798C66.7035 12.5203 66.4225 12.6006 66.0812 12.6006C65.7399 12.6006 65.4588 12.5203 65.258 12.3396C65.0372 12.1389 64.9167 11.8779 64.8765 11.5366L62.3669 11.5366C62.387 12.1389 62.5677 12.6609 62.8889 13.1026C63.2302 13.5443 63.6719 13.8655 64.2341 14.0863ZM29.3457 14.4277C28.4423 14.4277 27.599 14.2269 26.8361 13.8254C26.0933 13.4238 25.4909 12.8617 25.0292 12.1188C24.5875 11.376 24.3666 10.5528 24.3666 9.64935C24.3666 8.74589 24.5875 7.92274 25.0292 7.19997C25.4709 6.4772 26.0732 5.91505 26.8361 5.49343C27.599 5.09189 28.4222 4.89112 29.3457 4.89112C30.2492 4.89112 31.0924 5.09189 31.8353 5.49343C32.5982 5.89497 33.2005 6.45712 33.6221 7.19997C34.0638 7.92274 34.2846 8.74589 34.2846 9.64935C34.2846 10.5528 34.0638 11.376 33.6221 12.1188C33.1804 12.8416 32.5781 13.4037 31.8353 13.8254C31.0924 14.2269 30.2492 14.4277 29.3457 14.4277ZM29.3457 12.3597C30.1086 12.3597 30.731 12.1188 31.1928 11.6169C31.6546 11.115 31.8955 10.4725 31.8955 9.64935C31.8955 8.8262 31.6546 8.16366 31.1928 7.68181C30.731 7.17989 30.1287 6.93897 29.3457 6.93897C28.5627 6.93897 27.9403 7.17989 27.4786 7.66174C27.0168 8.14358 26.7959 8.80612 26.7959 9.62927C26.7959 10.4524 27.0168 11.115 27.4786 11.5968C27.9403 12.1188 28.5627 12.3597 29.3457 12.3597ZM37.9373 7.98418C38.1582 7.64287 38.4794 7.3618 38.881 7.14095C39.2825 6.92011 39.7643 6.81972 40.3064 6.81972C40.9489 6.81972 41.511 6.98034 42.033 7.28149C42.555 7.58264 42.9566 8.02434 43.2376 8.60657C43.5388 9.1888 43.6994 9.85134 43.6994 10.6143C43.6994 11.3772 43.5388 12.0397 43.2376 12.622C42.9365 13.2042 42.535 13.6459 42.033 13.9671C41.511 14.2683 40.9489 14.4289 40.3064 14.4289C39.7844 14.4289 39.3026 14.3285 38.881 14.1076C38.4794 13.8868 38.1582 13.6258 37.9373 13.2845L37.9373 16.5169L35.5883 16.5169L35.5883 6.9201L37.9373 6.9201L37.9373 7.98418ZM41.2902 10.6143C41.2902 10.0521 41.1296 9.61041 40.7883 9.28918C40.467 8.96795 40.0655 8.80734 39.5837 8.80734C39.1219 8.80734 38.7203 8.96795 38.379 9.28918C38.0578 9.61041 37.8972 10.0722 37.8972 10.6343C37.8972 11.1965 38.0578 11.6382 38.379 11.9795C38.7003 12.3007 39.1018 12.4613 39.5837 12.4613C40.0454 12.4613 40.447 12.3007 40.7883 11.9795C41.1296 11.6382 41.2902 11.1965 41.2902 10.6143ZM52.1072 11.1774C52.1273 10.9566 52.1473 10.7357 52.1473 10.5149C52.1473 9.77202 51.9867 9.12955 51.6856 8.58748C51.3643 8.02532 50.9227 7.60371 50.3404 7.30256C49.7582 7.0014 49.0957 6.86086 48.3528 6.86086C47.5899 6.86086 46.9073 7.02148 46.325 7.32263C45.7428 7.62378 45.281 8.06548 44.9598 8.64771C44.6386 9.20986 44.478 9.89248 44.478 10.6554C44.478 11.4183 44.6587 12.0809 44.9799 12.6631C45.3011 13.2453 45.7629 13.687 46.3451 13.9882C46.9273 14.2893 47.61 14.4499 48.3528 14.4499C48.9752 14.4499 49.5373 14.3295 50.0393 14.1086C50.5412 13.8878 50.9628 13.5666 51.284 13.1851C51.6253 12.8036 51.8663 12.3619 51.9867 11.8801L49.4771 11.8801C49.2563 12.3619 48.8347 12.6029 48.2524 12.6029C47.8509 12.6029 47.5297 12.4824 47.2486 12.2415C46.9675 12.0006 46.827 11.6392 46.7868 11.1774L52.1072 11.1774ZM49.3165 8.98902C49.5976 9.20986 49.7381 9.53109 49.7381 9.91255L49.7381 9.93263L46.7868 9.93263C46.8671 9.53109 47.0277 9.20986 47.2887 8.98902C47.5698 8.76817 47.891 8.64771 48.2926 8.64771C48.6941 8.64771 49.0354 8.76817 49.3165 8.98902ZM58.0771 6.86086C58.9806 6.86086 59.6833 7.14194 60.2253 7.70409C60.7674 8.26625 61.0284 9.02917 61.0284 10.0129L61.0284 14.3295L58.6995 14.3295L58.6995 10.3141C58.6995 9.81217 58.5589 9.43071 58.2979 9.16971C58.0369 8.88863 57.6756 8.76817 57.2339 8.76817C56.7922 8.76817 56.4308 8.90871 56.1698 9.16971C55.9088 9.45078 55.7682 9.83225 55.7682 10.3141L55.7682 14.3295L53.3992 14.3295L53.3992 6.92109L55.7482 6.92109L55.7482 7.90486C55.9891 7.58363 56.3103 7.32263 56.7119 7.14194C57.1134 6.96125 57.5752 6.86086 58.0771 6.86086ZM78.3491 10.5149C78.3491 10.7357 78.3291 10.9566 78.309 11.1774L72.9886 11.1774C73.0288 11.6392 73.1693 12.0006 73.4504 12.2415C73.7314 12.4824 74.0527 12.6029 74.4542 12.6029C75.0364 12.6029 75.4581 12.3619 75.6789 11.8801L78.1885 11.8801C78.0681 12.3619 77.8271 12.8036 77.4858 13.1851C77.1646 13.5666 76.743 13.8878 76.2411 14.1086C75.7391 14.3295 75.177 14.4499 74.5546 14.4499C73.8118 14.4499 73.1291 14.2893 72.5469 13.9882C71.9647 13.687 71.5029 13.2453 71.1817 12.6631C70.8605 12.0809 70.6798 11.4183 70.6798 10.6554C70.6798 9.89248 70.8404 9.20986 71.1616 8.64771C71.4828 8.06548 71.9446 7.62378 72.5268 7.32263C73.1091 7.02148 73.7917 6.86086 74.5546 6.86086C75.2974 6.86086 75.96 7.0014 76.5422 7.30256C77.1244 7.60371 77.5661 8.02532 77.8874 8.58748C78.1885 9.12955 78.3491 9.77202 78.3491 10.5149ZM75.9399 9.91255C75.9399 9.53109 75.7994 9.20986 75.5183 8.98902C75.2372 8.76817 74.8959 8.64771 74.4944 8.64771C74.0928 8.64771 73.7716 8.76817 73.4905 8.98902C73.2295 9.20986 73.0689 9.53109 72.9886 9.93263L75.9399 9.93263L75.9399 9.91255ZM79.5806 8.60657C79.2794 9.1888 79.1389 9.85134 79.1389 10.6143C79.1389 11.3772 79.2794 12.0598 79.5806 12.6621C79.8817 13.2443 80.2833 13.686 80.8053 14.0073C81.3273 14.3084 81.8894 14.469 82.5118 14.469C83.0539 14.469 83.5357 14.3686 83.9373 14.1478C84.3589 13.927 84.6801 13.6459 84.9009 13.3046L84.9009 14.3486L87.2499 14.3486L87.2499 6.94018L84.9009 6.94018L84.9009 7.98418C84.6801 7.6228 84.3789 7.3618 83.9573 7.14095C83.5357 6.92011 83.0739 6.81972 82.5319 6.81972C81.8894 6.81972 81.3273 6.98034 80.8053 7.28149C80.2833 7.58264 79.8817 8.02434 79.5806 8.60657ZM84.3789 9.28918C84.7202 9.63049 84.8809 10.0722 84.8809 10.6343C84.8809 11.1965 84.7202 11.6583 84.3789 11.9594C84.0577 12.2806 83.6562 12.4413 83.1944 12.4413C82.7126 12.4413 82.311 12.2806 81.9898 11.9594C81.6686 11.6382 81.5079 11.1764 81.5079 10.6143C81.5079 10.0521 81.6686 9.61041 81.9898 9.28918C82.3311 8.96795 82.7326 8.80734 83.1944 8.80734C83.6562 8.80734 84.0577 8.96795 84.3789 9.28918Z" fill="#020202"/>
<path d="M19.6622 9.83108C19.6622 15.2578 15.2578 19.6622 9.83108 19.6622C4.40432 19.6622 -3.34605e-09 15.2578 0 9.83108C3.34604e-09 4.40432 4.40432 -3.34604e-09 9.83108 0C15.2578 3.34605e-09 19.6622 4.40432 19.6622 9.83108Z" fill="#2885E2"/>
<path fill-rule="evenodd" clip-rule="evenodd" d="M16.6029 11.7407L16.6029 11.0983C16.6029 11.038 16.5627 10.9979 16.4422 11.0581L13.3905 11.9415C13.3705 11.9415 13.3705 11.9415 13.3504 11.9616C13.0925 12.2346 12.8691 12.4388 12.7492 12.5484C12.7104 12.5838 12.6825 12.6094 12.6678 12.6241C12.4871 12.7847 12.2462 12.865 12.0052 12.865L10.901 12.865L10.901 11.7407L11.7844 11.7407C11.8045 11.7407 11.8245 11.7407 11.8446 11.7206L11.9651 11.6203C12.0253 11.5801 12.0855 11.5199 12.1458 11.4597L12.1458 11.4596C12.1869 11.4322 12.2187 11.3954 12.2475 11.362C12.2609 11.3465 12.2736 11.3318 12.2863 11.3191C12.3275 11.2917 12.3593 11.2548 12.3881 11.2215C12.4014 11.206 12.4141 11.1913 12.4269 11.1786C12.457 11.1384 12.4921 11.0983 12.5272 11.0581C12.5624 11.0179 12.5975 10.9778 12.6276 10.9376C12.6878 10.8774 12.728 10.8172 12.7682 10.757L12.7682 10.7569C12.7882 10.7268 12.8133 10.6967 12.8384 10.6666C12.8635 10.6365 12.8886 10.6064 12.9087 10.5763C12.9228 10.534 12.9467 10.5016 12.9737 10.4653C12.9851 10.4498 12.9971 10.4336 13.0091 10.4156C13.0492 10.3554 13.0894 10.2952 13.1095 10.255L13.1095 10.255C13.1898 10.1145 13.2701 9.97393 13.3303 9.83341C13.361 9.77206 13.3799 9.71071 13.3961 9.65831C13.4011 9.64212 13.4059 9.62678 13.4106 9.61256C13.4207 9.57241 13.4307 9.53727 13.4407 9.50214C13.4508 9.467 13.4608 9.43187 13.4709 9.39172C13.4719 9.38263 13.4729 9.37359 13.4739 9.3646C13.4928 9.19482 13.51 9.04132 13.4909 8.86971C13.4909 8.80948 13.4909 8.74925 13.4709 8.7091C13.4709 8.68902 13.4709 8.64887 13.4508 8.60871C13.4307 8.42802 13.3705 8.26741 13.2902 8.10679C13.2801 8.07668 13.2651 8.04656 13.25 8.01645C13.2349 7.98633 13.2199 7.95622 13.2099 7.9261C13.1697 7.86587 13.1346 7.80564 13.0994 7.74541C13.0643 7.68518 13.0292 7.62495 12.989 7.56471C12.9764 7.52691 12.9559 7.49701 12.9374 7.47006C12.9264 7.45407 12.9162 7.43913 12.9087 7.42418C12.8786 7.38402 12.8434 7.33885 12.8083 7.29368C12.7732 7.2485 12.738 7.20333 12.7079 7.16318C12.6778 7.13306 12.6527 7.09792 12.6276 7.06279C12.6025 7.02766 12.5774 6.99252 12.5473 6.96241C12.5172 6.93229 12.4921 6.90217 12.467 6.87206C12.4419 6.84194 12.4168 6.81183 12.3867 6.78172C12.1859 6.56087 11.9852 6.3601 11.8045 6.19948C11.7915 6.17355 11.7702 6.156 11.7459 6.136C11.7325 6.12503 11.7183 6.11332 11.7041 6.0991C11.5635 5.97864 11.423 5.85818 11.3226 5.77787C11.2624 5.73772 11.2222 5.69757 11.1821 5.65742L11.1821 5.65741C11.1219 5.61725 11.0817 5.5771 11.0616 5.55702C11.0616 5.53695 11.0415 5.53694 11.0415 5.53694L10.9211 5.49679L10.9211 4.5331C10.9211 4.37248 10.8609 4.23194 10.7605 4.13156C10.6601 4.03118 10.5195 3.97095 10.3589 3.97095C10.0578 3.97095 9.79678 4.23195 9.79678 4.55318L9.79678 5.21572L9.73654 5.19564L9.57593 5.15548L9.43539 5.11533L8.33116 4.81418C8.29101 4.7941 8.25085 4.85433 8.27093 4.89448L8.45162 5.21572L8.51185 5.33618C8.52189 5.36629 8.53695 5.39641 8.55201 5.42652C8.56706 5.45664 8.58212 5.48675 8.59216 5.51687C8.6022 5.54698 8.61726 5.57208 8.63231 5.59718C8.64737 5.62227 8.66243 5.64737 8.67247 5.67749C8.7327 5.79795 8.79293 5.93849 8.85316 6.07902L8.97362 6.38018C9.07401 6.6211 9.17439 6.90218 9.2547 7.18325C9.28834 7.25053 9.30788 7.33189 9.32514 7.40373C9.32849 7.41765 9.33175 7.43122 9.33501 7.44425L9.35508 7.48441C9.39524 7.62495 9.41531 7.74541 9.43539 7.88595C9.45547 7.96625 9.47555 8.06664 9.47555 8.14694C9.47555 8.19714 9.48057 8.24733 9.48558 8.29752C9.4906 8.34771 9.49562 8.39791 9.49562 8.4481C9.5157 8.54848 9.5157 8.64887 9.5157 8.72918C9.5157 8.9701 9.49562 9.19095 9.45547 9.39172L9.39524 9.57241C9.38776 9.59483 9.37751 9.62003 9.36654 9.64699C9.34805 9.69243 9.32753 9.74284 9.31493 9.79325C9.29486 9.85348 9.27478 9.89363 9.25471 9.93377L9.2547 9.93379C9.15431 10.1747 9.03385 10.4357 8.89331 10.6566C8.69255 10.9979 8.51185 11.2789 8.37131 11.4797C8.35124 11.5199 8.33116 11.5399 8.31109 11.56C8.27093 11.6203 8.31108 11.7006 8.39139 11.7006L9.81685 11.7006L9.81685 12.8249L8.37131 12.8249C7.98985 12.8249 7.62847 12.6241 7.44778 12.2627C7.36747 12.082 7.32732 11.8813 7.34739 11.7006C7.34739 11.6604 7.30724 11.6002 7.24701 11.6002L4.2957 11.6002C4.25555 11.6002 4.21539 11.6403 4.21539 11.6805L4.21539 11.7407C4.21539 13.6079 5.72116 15.1136 7.56824 15.1136L12.8083 15.1136C13.7765 15.1136 14.3317 14.2271 14.8801 13.3513C15.0368 13.101 15.193 12.8516 15.3581 12.6241C15.6392 12.2226 16.3419 11.9013 16.5426 11.821C16.5828 11.8009 16.6029 11.7809 16.6029 11.7407ZM5.00981 10.2738L4.96965 10.334C4.9295 10.3942 4.96965 10.4746 5.02988 10.4946L7.72019 10.4946C7.76034 10.4946 7.78042 10.4746 7.80049 10.4545L7.8005 10.4545C7.84065 10.4143 7.88081 10.3541 7.90088 10.2939C8.1418 9.9124 8.34257 9.49078 8.42288 9.16955C8.5835 8.40663 8.22211 7.20201 7.78042 6.21824C7.74027 6.13794 7.65996 6.13793 7.6198 6.19816L5.00981 10.2738Z" fill="white"/>
</svg>
