<svg width="72" height="15" viewBox="0 0 72 15" fill="none" xmlns="http://www.w3.org/2000/svg">
<g clip-path="url(#clip0_1701_14593)">
<path d="M2.35156 9.53644C2.35156 10.3677 2.53402 11.006 2.7725 11.3921C3.08519 11.8978 3.55156 12.1121 4.02702 12.1121C4.64027 12.1121 5.20128 11.9599 6.28242 10.4646C7.14855 9.26616 8.16912 7.58388 8.85581 6.52924L10.0187 4.74248C10.8265 3.50159 11.7616 2.12215 12.8336 1.18713C13.7088 0.423976 14.6529 0 15.6031 0C17.1983 0 18.7178 0.92442 19.8807 2.65818C21.1534 4.55699 21.7712 6.94867 21.7712 9.41682C21.7712 10.8841 21.482 11.9622 20.9899 12.8139C20.5144 13.6377 19.5877 14.4606 18.0288 14.4606V12.1121C19.3636 12.1121 19.6967 10.8856 19.6967 9.48193C19.6967 7.48167 19.2304 5.26185 18.203 3.67572C17.4739 2.55067 16.529 1.86323 15.4895 1.86323C14.3652 1.86323 13.4605 2.71118 12.4437 4.22311C11.9031 5.02639 11.3482 6.00532 10.7251 7.10993L10.0392 8.32508C8.66123 10.7682 8.31221 11.3247 7.62325 12.2431C6.41567 13.8512 5.3845 14.4606 4.02702 14.4606C2.41667 14.4606 1.39837 13.7633 0.7677 12.7125C0.252872 11.8562 0 10.7327 0 9.4524L2.35156 9.53644Z" fill="#0081FB"/>
<path d="M1.85522 2.82399C2.93334 1.16215 4.48918 0 6.27366 0C7.30711 0 8.33449 0.305869 9.40731 1.18183C10.5808 2.13957 11.8315 3.71661 13.3919 6.31573L13.9514 7.24848C15.3021 9.49859 16.0705 10.6562 16.5203 11.2021C17.0987 11.9031 17.5037 12.1121 18.0299 12.1121C19.3647 12.1121 19.6978 10.8856 19.6978 9.48193L21.7723 9.41682C21.7723 10.8841 21.4831 11.9622 20.9909 12.8139C20.5155 13.6377 19.5888 14.4606 18.0299 14.4606C17.0608 14.4606 16.2023 14.2502 15.2529 13.3545C14.523 12.6671 13.6698 11.4458 13.0134 10.3481L11.0608 7.08646C10.0811 5.44961 9.18245 4.22917 8.66232 3.67648C8.10282 3.08216 7.38357 2.36443 6.23581 2.36443C5.30685 2.36443 4.51795 3.01629 3.85776 4.01339L1.85522 2.82399Z" fill="url(#paint0_linear_1701_14593)"/>
<path d="M6.23472 2.36443C5.30576 2.36443 4.51686 3.01629 3.85667 4.01339C2.92317 5.42235 2.35155 7.52104 2.35155 9.53644C2.35155 10.3677 2.53402 11.006 2.7725 11.3921L0.7677 12.7125C0.252872 11.8562 0 10.7327 0 9.4524C0 7.12432 0.638993 4.69781 1.85414 2.82399C2.93225 1.16215 4.48809 0 6.27258 0L6.23472 2.36443Z" fill="url(#paint1_linear_1701_14593)"/>
<path d="M26.3416 0.459473H29.0619L33.687 8.82695L38.3129 0.459473H40.9741V14.2084H38.755V3.67109L34.6985 10.968H32.6165L28.5607 3.67109V14.2084H26.3416V0.459473ZM47.9273 5.5858C46.3359 5.5858 45.3774 6.78353 45.148 8.26669H50.5492C50.4379 6.73887 49.5566 5.5858 47.9273 5.5858ZM42.9479 9.11162C42.9479 5.99085 44.9648 3.71955 47.9659 3.71955C50.9179 3.71955 52.6804 5.96208 52.6804 9.27818V9.88765H45.148C45.4153 11.501 46.4858 12.5882 48.212 12.5882C49.5892 12.5882 50.45 12.168 51.2661 11.3996L52.4449 12.8434C51.3343 13.8647 49.9215 14.4537 48.1332 14.4537C44.8845 14.4537 42.9479 12.0848 42.9479 9.11162V9.11162ZM55.3711 5.78265H53.3285V3.96561H55.3711V0.960673H57.5122V3.96561H60.6156V5.78265H57.5122V10.3881C57.5122 11.9606 58.0149 12.5193 59.2505 12.5193C59.8146 12.5193 60.1378 12.4709 60.6156 12.3914V14.1887C60.0205 14.3568 59.4527 14.434 58.8379 14.434C56.5265 14.434 55.3711 13.1712 55.3711 10.6432V5.78265ZM69.6311 7.54972C69.2011 6.46404 68.2418 5.66454 66.8321 5.66454C64.9999 5.66454 63.8272 6.96448 63.8272 9.08209C63.8272 11.1467 64.9068 12.5095 66.7443 12.5095C68.1888 12.5095 69.22 11.6691 69.6311 10.6235V7.54972ZM71.7722 14.2084H69.6705V12.7745C69.083 13.6186 68.014 14.4537 66.2825 14.4537C63.4978 14.4537 61.6369 12.1226 61.6369 9.08209C61.6369 6.01281 63.5425 3.71955 66.4006 3.71955C67.8133 3.71955 68.9217 4.28435 69.6705 5.28145V3.96561H71.7722V14.2084Z" fill="#192830"/>
</g>
<defs>
<linearGradient id="paint0_linear_1701_14593" x1="4.6194" y1="8.85808" x2="19.61" y2="9.61518" gradientUnits="userSpaceOnUse">
<stop stop-color="#0064E1"/>
<stop offset="0.4" stop-color="#0064E1"/>
<stop offset="0.83" stop-color="#0073EE"/>
<stop offset="1" stop-color="#0082FB"/>
</linearGradient>
<linearGradient id="paint1_linear_1701_14593" x1="3.40695" y1="10.5237" x2="3.40695" y2="4.99686" gradientUnits="userSpaceOnUse">
<stop stop-color="#0082FB"/>
<stop offset="1" stop-color="#0064E0"/>
</linearGradient>
<clipPath id="clip0_1701_14593">
<rect width="71.7731" height="14.4606" fill="white"/>
</clipPath>
</defs>
</svg>
