<svg width="122" height="22" viewBox="0 0 122 22" fill="none" xmlns="http://www.w3.org/2000/svg">
<path d="M25.5294 15.0438C25.653 15.2555 25.8125 15.4288 26.0075 15.5631C26.2029 15.6977 26.4273 15.7973 26.681 15.8616C26.9348 15.9255 27.1985 15.9575 27.4717 15.9575C27.6671 15.9575 27.872 15.9356 28.0868 15.8902C28.3013 15.8454 28.4967 15.7747 28.6722 15.6788C28.8481 15.5826 28.9943 15.4544 29.1114 15.2938C29.2286 15.1337 29.287 14.9317 29.287 14.6878C29.287 14.2775 29.0103 13.97 28.4574 13.7647C27.9041 13.5597 27.1329 13.3545 26.1441 13.1492C25.7408 13.0597 25.347 12.954 24.9631 12.8318C24.5788 12.7104 24.2373 12.5502 23.9381 12.3509C23.6386 12.1524 23.3978 11.9024 23.2158 11.6008C23.0334 11.2993 22.9425 10.9308 22.9425 10.4947C22.9425 9.85395 23.0696 9.32796 23.3233 8.9174C23.5771 8.50718 23.9122 8.18345 24.3285 7.94586C24.7448 7.70895 25.2134 7.54204 25.7339 7.44613C26.2544 7.34988 26.7879 7.30176 27.3347 7.30176C27.8812 7.30176 28.4113 7.35291 28.9256 7.45555C29.4397 7.55852 29.8983 7.73116 30.3017 7.9748C30.7051 8.21878 31.0401 8.54252 31.3072 8.94634C31.5736 9.35017 31.7334 9.86 31.7854 10.4755H29.15C29.1111 9.94986 28.9089 9.59415 28.5448 9.40772C28.1804 9.22196 27.7507 9.12908 27.2565 9.12908C27.1001 9.12908 26.931 9.1385 26.749 9.15802C26.5666 9.1772 26.4006 9.21893 26.251 9.28287C26.1014 9.34714 25.9744 9.44002 25.8706 9.56185C25.766 9.68367 25.7141 9.84722 25.7141 10.0522C25.7141 10.2961 25.805 10.4943 25.9874 10.6485C26.1694 10.8023 26.4071 10.9271 26.6998 11.0234C26.9925 11.1193 27.3276 11.2061 27.705 11.2828C28.082 11.3599 28.4663 11.4433 28.8566 11.5329C29.26 11.6227 29.6535 11.7317 30.0377 11.86C30.4216 11.9882 30.7631 12.1581 31.0627 12.3698C31.3619 12.5815 31.6026 12.8443 31.785 13.1583C31.9671 13.4729 32.0583 13.8606 32.0583 14.322C32.0583 14.9758 31.9247 15.524 31.6583 15.9669C31.3912 16.4091 31.0432 16.7648 30.6139 17.0343C30.1846 17.3036 29.6931 17.4927 29.1401 17.6017C28.5868 17.7104 28.024 17.7653 27.4515 17.7653C26.8661 17.7653 26.293 17.7074 25.7336 17.592C25.1738 17.4765 24.6762 17.2844 24.2404 17.0148C23.8042 16.7456 23.4463 16.3899 23.1666 15.9474C22.8865 15.5052 22.7338 14.9506 22.7079 14.2836H25.3432C25.3439 14.5791 25.4057 14.8321 25.5294 15.0438Z" fill="#020202"/>
<path d="M32.9487 6.03827V3.73975H35.6199V6.03827H32.9487ZM35.6203 7.60957V17.7653H32.9491V7.60957H35.6203Z" fill="#020202"/>
<path d="M47.0314 18.4685C46.9207 18.9915 46.6829 19.4791 46.3186 19.9306C45.9541 20.3821 45.4269 20.765 44.737 21.0788C44.0468 21.393 43.1226 21.5499 41.964 21.5499C41.4689 21.5499 40.9646 21.4874 40.4504 21.3635C39.9358 21.2392 39.4674 21.0459 39.0444 20.7842C38.621 20.5222 38.2695 20.1857 37.99 19.7737C37.7098 19.3616 37.5506 18.8675 37.5116 18.292H40.2652C40.395 18.815 40.6492 19.1783 41.0268 19.3815C41.4043 19.5841 41.8403 19.6858 42.3354 19.6858C43.1165 19.6858 43.686 19.4499 44.0441 18.9791C44.4022 18.508 44.5744 17.9126 44.5617 17.1932V15.8586H44.5218C44.2221 16.3949 43.7957 16.7908 43.2425 17.0459C42.689 17.3011 42.1065 17.4284 41.4945 17.4284C40.7394 17.4284 40.0885 17.2942 39.5419 17.026C38.9948 16.7582 38.5459 16.3915 38.1943 15.9272C37.8427 15.463 37.5854 14.9198 37.4228 14.2983C37.2598 13.6768 37.1788 13.0192 37.1788 12.326C37.1788 11.6718 37.2731 11.0404 37.4621 10.4319C37.6507 9.82382 37.9274 9.28713 38.292 8.82255C38.6562 8.35797 39.109 7.98816 39.6495 7.7138C40.1897 7.43876 40.8115 7.30176 41.5143 7.30176C42.1782 7.30176 42.7608 7.42606 43.262 7.67466C43.7629 7.92326 44.1828 8.34183 44.5218 8.93037H44.5607V7.57645H47.1971V17.0755C47.1974 17.4806 47.1417 17.9449 47.0314 18.4685ZM43.233 15.0928C43.5323 14.9359 43.78 14.7268 43.9751 14.4648C44.1702 14.2032 44.3168 13.9055 44.4145 13.5717C44.5122 13.238 44.5611 12.8884 44.5611 12.5217C44.5611 12.1031 44.5221 11.7072 44.4439 11.3343C44.3656 10.9614 44.2354 10.6311 44.0533 10.343C43.8709 10.0556 43.63 9.82656 43.3307 9.65625C43.031 9.48628 42.6535 9.40113 42.198 9.40113C41.8075 9.40113 41.472 9.47976 41.1925 9.63668C40.9123 9.79394 40.6779 10.0065 40.4893 10.2747C40.3004 10.5428 40.1637 10.8505 40.0793 11.197C39.9942 11.5441 39.9522 11.907 39.9522 12.2865C39.9522 12.6528 39.9877 13.0158 40.0595 13.3756C40.1309 13.7358 40.2546 14.0593 40.4306 14.347C40.6062 14.6351 40.8371 14.8703 41.1238 15.0537C41.4101 15.2371 41.7682 15.3287 42.198 15.3287C42.5886 15.3284 42.9333 15.2498 43.233 15.0928Z" fill="#020202"/>
<path d="M51.3981 7.5717V8.92174H51.4375C51.8054 8.40784 52.2492 8.009 52.769 7.7259C53.2884 7.44314 53.8834 7.30176 54.5543 7.30176C55.1983 7.30176 55.7871 7.42391 56.3197 7.6682C56.8525 7.9125 57.2567 8.34305 57.5328 8.96021C57.8355 8.52324 58.2462 8.13756 58.7659 7.80284C59.285 7.46878 59.9 7.30176 60.6103 7.30176C61.1494 7.30176 61.6491 7.36587 62.1095 7.49443C62.5696 7.62299 62.9644 7.82882 63.2933 8.11158C63.6219 8.39468 63.878 8.7645 64.0626 9.22036C64.2466 9.67724 64.3391 10.2266 64.3391 10.8694V17.5423H61.538V11.8914C61.538 11.5574 61.5245 11.2422 61.4987 10.9463C61.4721 10.6507 61.4 10.3936 61.2816 10.1749C61.1632 9.95662 60.9886 9.78319 60.7587 9.65429C60.5285 9.52573 60.2162 9.46162 59.8217 9.46162C59.4269 9.46162 59.1083 9.53585 58.865 9.68331C58.6217 9.8311 58.4312 10.0241 58.2931 10.262C58.1551 10.4999 58.0629 10.7702 58.0167 11.0718C57.9704 11.3742 57.948 11.6795 57.948 11.9879V17.5423H55.1466V11.9495C55.1466 11.6539 55.1397 11.3613 55.1269 11.0718C55.1138 10.7826 55.0579 10.5161 54.9592 10.2714C54.8605 10.0271 54.6958 9.8311 54.466 9.68331C54.2358 9.53552 53.8972 9.46162 53.4503 9.46162C53.3188 9.46162 53.1445 9.49064 52.9274 9.54834C52.7103 9.60638 52.4998 9.7157 52.2961 9.87632C52.0922 10.0373 51.9179 10.2687 51.7733 10.5707C51.6283 10.8731 51.5562 11.2682 51.5562 11.7571V17.5426H48.7551V7.5717H51.3981Z" fill="#020202"/>
<path d="M65.5401 10.629C65.5788 9.98788 65.741 9.45584 66.0264 9.03249C66.311 8.60949 66.6738 8.2696 67.1146 8.01317C67.555 7.75674 68.0508 7.574 68.6013 7.46497C69.1519 7.35627 69.7062 7.30176 70.2636 7.30176C70.7686 7.30176 71.2804 7.33709 71.799 7.40743C72.3169 7.47776 72.7903 7.61573 73.2181 7.82101C73.6455 8.02629 73.9955 8.31133 74.2675 8.67679C74.5399 9.04225 74.6756 9.52651 74.6756 10.1289V15.3029C74.6756 15.7522 74.7015 16.1812 74.7535 16.5918C74.8048 17.0024 74.8956 17.3099 75.0255 17.5149H72.2268C72.1751 17.3611 72.1326 17.2039 72.1006 17.0438C72.068 16.8836 72.0452 16.72 72.0326 16.5534C71.5919 17.0024 71.0736 17.3167 70.4775 17.4957C69.8814 17.6751 69.2726 17.7653 68.6507 17.7653C68.1712 17.7653 67.724 17.7074 67.3094 17.592C66.8949 17.4765 66.532 17.2972 66.2212 17.0532C65.9101 16.8099 65.6672 16.502 65.4921 16.1301C65.317 15.7586 65.2299 15.316 65.2299 14.8032C65.2299 14.2388 65.3302 13.7738 65.5312 13.4083C65.7322 13.0428 65.9913 12.7514 66.3086 12.533C66.6262 12.3153 66.9891 12.1517 67.3972 12.0427C67.8052 11.934 68.2164 11.8472 68.6313 11.7832C69.0461 11.7193 69.4542 11.6678 69.8562 11.6291C70.2578 11.5907 70.6142 11.5332 70.9254 11.4561C71.2362 11.3791 71.4824 11.267 71.664 11.1193C71.8452 10.9719 71.9292 10.7572 71.9166 10.4752C71.9166 10.1804 71.8677 9.94615 71.7708 9.77318C71.6735 9.59987 71.5436 9.46526 71.3817 9.36902C71.2195 9.27311 71.0318 9.20883 70.8182 9.17686C70.6043 9.14489 70.3741 9.12874 70.1282 9.12874C69.5838 9.12874 69.1567 9.24417 68.8455 9.47469C68.5347 9.70588 68.3531 10.0902 68.3011 10.629H65.5401ZM71.9156 12.6484C71.7986 12.7514 71.6531 12.8312 71.4783 12.889C71.3032 12.9469 71.1155 12.9947 70.9145 13.0334C70.7135 13.0721 70.503 13.1041 70.283 13.1297C70.0626 13.1552 69.8422 13.1872 69.6222 13.2256C69.4151 13.2639 69.2107 13.3158 69.0101 13.3794C68.8088 13.4436 68.634 13.5305 68.485 13.6392C68.3361 13.7482 68.216 13.8858 68.1256 14.0527C68.0345 14.2197 67.9896 14.431 67.9896 14.6874C67.9896 14.9314 68.0348 15.1367 68.1256 15.3029C68.216 15.4698 68.3391 15.6011 68.4949 15.6973C68.6503 15.7936 68.8316 15.8609 69.039 15.8996C69.2464 15.9383 69.46 15.9571 69.6807 15.9571C70.2252 15.9571 70.6458 15.8676 70.9441 15.6879C71.242 15.5085 71.462 15.2935 71.6048 15.0435C71.7473 14.7934 71.8347 14.5404 71.867 14.2836C71.8993 14.0272 71.916 13.8222 71.916 13.6681V12.6484H71.9156Z" fill="#020202"/>
<path d="M79.752 9.82888H79.8102C79.8881 9.58263 80.0173 9.31087 80.1993 9.01258C80.3806 8.71463 80.6201 8.43879 80.9188 8.18608C81.2168 7.93337 81.5764 7.72317 81.9978 7.55447C82.4186 7.38645 82.9017 7.30176 83.4463 7.30176C84.211 7.30176 84.8754 7.44461 85.4391 7.72963C86.0031 8.015 86.4694 8.3973 86.8389 8.87653C87.2083 9.35611 87.4838 9.91357 87.6655 10.5482C87.8468 11.1836 87.9376 11.8509 87.9376 12.5509C87.9376 13.3158 87.8465 14.0158 87.6648 14.6505C87.4828 15.2855 87.2066 15.8334 86.8362 16.2929C86.4657 16.7535 85.998 17.113 85.4329 17.3722C84.8679 17.6313 84.2018 17.7609 83.4354 17.7609C82.6037 17.7609 81.8631 17.5793 81.2137 17.2167C80.564 16.8541 80.0898 16.264 79.7908 15.4477H79.7527L79.752 21.1047H79.0325V7.53542H79.752V9.82888ZM83.4364 17.1191C84.0858 17.1191 84.6481 16.9963 85.1224 16.7497C85.5969 16.5035 85.9864 16.1732 86.2919 15.7583C86.597 15.3437 86.8246 14.861 86.9743 14.31C87.1236 13.7594 87.1984 13.1726 87.1984 12.5506C87.1984 11.9802 87.1267 11.42 86.9838 10.869C86.8409 10.3183 86.6201 9.82616 86.3211 9.39148C86.0221 8.95748 85.6357 8.60749 85.1611 8.34186C84.6866 8.07622 84.112 7.94323 83.4364 7.94323C82.7734 7.94323 82.2084 8.07282 81.7403 8.33199C81.2726 8.59151 80.8923 8.93469 80.5997 9.36223C80.3075 9.79011 80.0963 10.2792 79.9663 10.8299C79.836 11.3809 79.7714 11.9547 79.7714 12.5506C79.7714 13.1468 79.8299 13.7202 79.9469 14.2712C80.0639 14.8222 80.2619 15.3083 80.5415 15.729C80.8208 16.1504 81.1977 16.4871 81.6719 16.7402C82.1465 16.9926 82.7347 17.1191 83.4364 17.1191Z" fill="#020202"/>
<path d="M90.0199 9.79332H90.0787C90.1705 9.47063 90.3372 9.16692 90.5798 8.88253C90.8218 8.59848 91.1167 8.35308 91.4635 8.14631C91.8107 7.93988 92.197 7.78159 92.6229 7.67176C93.048 7.56228 93.49 7.51381 93.9486 7.52635V8.26257C93.5557 8.21139 93.1071 8.25003 92.6029 8.37884C92.0987 8.50832 91.6175 8.79237 91.159 9.23166C90.9754 9.42521 90.8153 9.61266 90.6778 9.79332C90.5406 9.97433 90.4258 10.1743 90.3341 10.3936C90.2423 10.6133 90.1701 10.8587 90.1179 11.1298C90.0656 11.4014 90.0326 11.724 90.0199 12.0986V17.5427H89.2734V7.58465H90.0199V9.79332Z" fill="#020202"/>
<path d="M95.7297 5.76299V3.73975H96.6202V5.76299H95.7297ZM95.7297 17.7653V7.66869H96.6202V17.7653H95.7297Z" fill="#020202"/>
<path d="M98.6239 7.53609H99.3682V9.58004H99.4072C99.4857 9.26873 99.6228 8.97377 99.8185 8.69414C100.014 8.41519 100.253 8.172 100.534 7.96389C100.814 7.7568 101.127 7.59399 101.474 7.47717C101.819 7.36034 102.182 7.30176 102.561 7.30176C103.043 7.30176 103.461 7.36375 103.814 7.4867C104.167 7.61034 104.467 7.77247 104.715 7.97377C104.963 8.17506 105.159 8.4019 105.303 8.65497C105.446 8.90804 105.544 9.16451 105.596 9.42405H105.635C105.935 8.72309 106.337 8.19448 106.84 7.83752C107.342 7.48057 108.005 7.3021 108.828 7.3021C109.285 7.3021 109.706 7.37022 110.091 7.5068C110.477 7.64338 110.81 7.85081 111.09 8.12976C111.371 8.40871 111.59 8.76226 111.746 9.19074C111.903 9.61887 111.982 10.125 111.982 10.7091V17.5423H111.237V10.6897C111.237 10.0542 111.139 9.55416 110.944 9.19108C110.748 8.82799 110.516 8.55177 110.248 8.36341C109.981 8.1754 109.713 8.05858 109.445 8.01328C109.178 7.96763 108.972 7.94515 108.828 7.94515C108.371 7.94515 107.95 8.02315 107.565 8.17881C107.179 8.33446 106.847 8.56846 106.566 8.87977C106.285 9.19142 106.067 9.57766 105.91 10.0378C105.753 10.499 105.675 11.0276 105.675 11.6247V17.5426H104.93V10.6901C104.93 10.0671 104.836 9.57085 104.646 9.20095C104.457 8.83106 104.235 8.55517 103.981 8.37329C103.726 8.19175 103.465 8.07492 103.197 8.02315C102.93 7.97138 102.717 7.94515 102.561 7.94515C102.209 7.94515 101.843 8.01668 101.464 8.15939C101.085 8.30211 100.74 8.52247 100.426 8.82084C100.113 9.11989 99.8582 9.50239 99.6625 9.96969C99.4669 10.4367 99.3689 10.9884 99.3689 11.6243V17.5423H98.6246V7.53609H98.6239Z" fill="#020202"/>
<path d="M113.839 12.631V12.7477C113.839 13.3313 113.917 13.889 114.074 14.4205C114.231 14.9519 114.463 15.4191 114.771 15.8206C115.078 16.2225 115.464 16.54 115.929 16.7734C116.393 17.0072 116.933 17.1235 117.548 17.1235C118.555 17.1235 119.353 16.8612 119.942 16.3361C120.531 15.8108 120.936 15.0812 121.159 14.1479H121.902C121.681 15.315 121.201 16.2096 120.464 16.8319C119.727 17.4543 118.751 17.7653 117.538 17.7653C116.794 17.7653 116.145 17.6322 115.59 17.3668C115.036 17.1011 114.573 16.7377 114.201 16.2776C113.829 15.8176 113.552 15.2732 113.369 14.644C113.186 14.0152 113.095 13.3377 113.095 12.6113C113.095 11.911 113.189 11.2403 113.379 10.5986C113.568 9.95651 113.851 9.39269 114.23 8.90645C114.608 8.42021 115.081 8.03129 115.649 7.73934C116.216 7.44773 116.885 7.30176 117.655 7.30176C118.36 7.30176 118.983 7.43174 119.524 7.69102C120.065 7.95064 120.519 8.3035 120.884 8.75095C121.249 9.19806 121.527 9.71696 121.716 10.3066C121.905 10.8967 122 11.5289 122 12.2026C122 12.2676 121.997 12.3421 121.99 12.4262C121.984 12.5109 121.981 12.5786 121.981 12.6307H113.839V12.631ZM121.237 11.9896C121.21 11.4448 121.119 10.9297 120.962 10.4434C120.805 9.95685 120.572 9.52914 120.265 9.15995C119.958 8.79042 119.585 8.49575 119.147 8.27492C118.708 8.05477 118.208 7.94418 117.645 7.94418C117.043 7.94418 116.513 8.05783 116.055 8.28444C115.597 8.5114 115.211 8.80947 114.898 9.179C114.584 9.54853 114.342 9.97999 114.172 10.4724C114.002 10.9654 113.897 11.471 113.857 11.9896H121.237Z" fill="#020202"/>
<path d="M18.1696 0.450195V6.4282H20.4105V0.450195H18.1696Z" fill="#020202"/>
<path d="M11.5794 5.41357H6.75879C3.032 5.41357 0 8.44557 0 12.1724C0 15.8992 3.032 18.9312 6.75879 18.9312H6.90841C10.6352 18.9312 13.6672 15.8992 13.6672 12.1724V8.85316H16.768V5.41357H11.5794ZM10.2293 12.1724C10.2293 14.0022 8.73999 15.4916 6.91013 15.4916H6.76051C4.93065 15.4916 3.44131 14.0022 3.44131 12.1724C3.44131 10.3425 4.93065 8.85316 6.76051 8.85316H10.2293V12.1724Z" fill="#020202"/>
</svg>
