<svg width="78" height="21" viewBox="0 0 78 21" fill="none" xmlns="http://www.w3.org/2000/svg">
<g clip-path="url(#clip0_1701_14556)">
<path d="M20.757 6.79667V0H13.9604L20.757 6.79667Z" fill="#4E4E4E"/>
<path d="M13.9604 20.7385H20.757V13.9355L13.9604 20.7385Z" fill="#4E4E4E"/>
<path d="M0 0V20.7386H20.7386L0 0Z" fill="#949698"/>
<path d="M20.7386 0H0V20.7386L20.7386 0Z" fill="#020202"/>
<path d="M32.2779 9.42325C31.8049 9.19919 31.2385 9.06226 30.585 9.01247L29.5269 8.91911C28.9978 8.87553 28.5933 8.71994 28.3256 8.44607C28.058 8.17844 27.921 7.86724 27.921 7.51869C27.921 7.21372 27.9958 6.92741 28.1513 6.65977C28.3007 6.39214 28.5373 6.18052 28.8423 6.01247C29.1534 5.84442 29.5393 5.76351 30.0124 5.76351C30.4978 5.76351 30.8962 5.85064 31.2012 6.02492C31.5061 6.19919 31.7302 6.42326 31.8733 6.69089C32.0165 6.95853 32.0912 7.25106 32.0912 7.55604H33.3733C33.3733 6.94608 33.2302 6.42326 32.9501 5.98135C32.6638 5.53945 32.2717 5.19713 31.7675 4.95438C31.2634 4.71165 30.6783 4.58716 30.0186 4.58716C29.3463 4.58716 28.7613 4.71165 28.251 4.9606C27.7468 5.20957 27.3484 5.55189 27.0683 5.98758C26.782 6.42326 26.6451 6.93363 26.6451 7.51869C26.6451 8.25936 26.9003 8.85687 27.4045 9.31123C27.9086 9.76557 28.5871 10.027 29.4273 10.0955L30.4853 10.1888C31.1389 10.2511 31.6368 10.4066 31.9729 10.6681C32.3153 10.9232 32.4833 11.2469 32.4833 11.639C32.4833 11.9626 32.3962 12.2614 32.2218 12.5352C32.0476 12.8091 31.78 13.0332 31.4128 13.2013C31.0455 13.3693 30.5788 13.4565 29.9999 13.4565C29.3836 13.4565 28.892 13.3631 28.5311 13.1702C28.17 12.9772 27.9148 12.7407 27.7592 12.4544C27.6036 12.1681 27.5289 11.8817 27.5289 11.5892H26.2468C26.2468 12.1743 26.3961 12.6971 26.6887 13.1576C26.9874 13.6183 27.4107 13.9792 27.9709 14.2406C28.5311 14.5021 29.2032 14.6328 29.9937 14.6328C30.7405 14.6328 31.4002 14.5083 31.9666 14.2531C32.533 13.9979 32.975 13.6494 33.2862 13.1951C33.5974 12.7407 33.7593 12.224 33.7593 11.639C33.7593 11.1224 33.6285 10.6805 33.3733 10.3133C33.1181 9.94607 32.7509 9.64732 32.2779 9.42325Z" fill="#020202"/>
<path d="M39.7217 11.5768C39.7217 12.1619 39.5536 12.6225 39.2238 12.9586C38.8939 13.2947 38.4644 13.4628 37.9417 13.4628C37.4375 13.4628 37.033 13.3071 36.7404 12.9959C36.4416 12.6847 36.2985 12.2553 36.2985 11.7076V7.40674H35.0413V11.4586C35.0413 12.4793 35.2652 13.2573 35.7072 13.7989C36.149 14.3404 36.7902 14.608 37.618 14.608H37.6678C38.228 14.608 38.6823 14.4835 39.0496 14.2345C39.4105 13.9856 39.6844 13.6245 39.8648 13.1516C39.9085 13.0333 39.9458 12.915 39.9831 12.7843V14.4026H40.9789V7.40674H39.7217V11.5768Z" fill="#020202"/>
<path d="M51.8897 7.58719C51.5224 7.332 51.0682 7.20752 50.5204 7.20752H50.4707C49.9229 7.20752 49.4685 7.332 49.1076 7.58719C48.7466 7.84237 48.4727 8.20337 48.2922 8.6764C48.2611 8.75731 48.23 8.85067 48.2051 8.93781C48.1802 8.85067 48.1553 8.75731 48.1242 8.6764C47.9499 8.20337 47.6822 7.83615 47.3213 7.58719C46.9603 7.332 46.5059 7.20752 45.9582 7.20752H45.9084C45.3607 7.20752 44.9063 7.332 44.5515 7.58719C44.1968 7.84237 43.9291 8.20337 43.7486 8.6764C43.705 8.78843 43.6677 8.90669 43.6366 9.03116V7.41913H42.6408V14.3963H43.8794V10.2137C43.8794 9.62868 44.0349 9.17432 44.3524 8.85067C44.6698 8.52702 45.0806 8.35897 45.5972 8.35897C46.0952 8.35897 46.481 8.51457 46.7611 8.82577C47.0412 9.13698 47.1781 9.57266 47.1781 10.1391V14.4025H48.4354V10.22C48.4354 9.6349 48.5909 9.18055 48.9083 8.85689C49.2258 8.53324 49.6366 8.36519 50.1532 8.36519C50.6511 8.36519 51.037 8.5208 51.3171 8.83199C51.5972 9.1432 51.7341 9.57888 51.7341 10.1453V14.4088H52.9914V10.4254C52.9914 9.74693 52.9042 9.1681 52.7238 8.69507C52.5308 8.20337 52.2569 7.84237 51.8897 7.58719Z" fill="#020202"/>
<path d="M60.8833 12.8402C60.3231 13.2509 59.6385 13.4563 58.8169 13.4563C58.2319 13.4563 57.7215 13.3567 57.2858 13.1514C56.8501 12.9459 56.4891 12.6659 56.1966 12.3111C55.9041 11.9564 55.6862 11.5455 55.5431 11.085C55.3999 10.6244 55.3252 10.1327 55.3252 9.62231C55.3252 9.08081 55.3999 8.58289 55.5431 8.12231C55.6862 7.66173 55.8979 7.25095 56.1842 6.9024C56.4642 6.54762 56.8252 6.27377 57.2485 6.08082C57.6779 5.88787 58.1696 5.78829 58.736 5.78829C59.2589 5.78829 59.7318 5.87543 60.1551 6.0497C60.5783 6.22397 60.927 6.48538 61.207 6.84015C61.487 7.19493 61.6613 7.63683 61.7298 8.17833H63.0369C62.956 7.45634 62.7381 6.82771 62.3834 6.29867C62.0285 5.76961 61.5431 5.35261 60.9332 5.06008C60.3231 4.76132 59.5887 4.61816 58.736 4.61816C57.902 4.61816 57.1801 4.76132 56.5762 5.04762C55.9725 5.33393 55.4871 5.7136 55.1136 6.18663C54.7402 6.65966 54.4601 7.18247 54.2858 7.75509C54.1054 8.3277 54.0182 8.90654 54.0182 9.47915V9.76546C54.0182 10.2945 54.1054 10.8485 54.2796 11.4211C54.4539 11.9937 54.7277 12.5228 55.1011 13.0082C55.4747 13.4937 55.9725 13.892 56.5825 14.1969C57.1987 14.5019 57.9393 14.6513 58.8107 14.6513C59.7007 14.6513 60.4539 14.4895 61.0763 14.1658C61.6987 13.8422 62.1904 13.4128 62.5389 12.8713C62.8937 12.3298 63.1115 11.7323 63.1986 11.0787H61.8916C61.7797 11.838 61.4372 12.4355 60.8833 12.8402Z" fill="#020202"/>
<path d="M68.2403 7.59308C67.786 7.42503 67.2009 7.33789 66.4913 7.33789C66.2798 7.33789 66.0619 7.33789 65.8378 7.34411C65.6137 7.35033 65.3897 7.35657 65.1781 7.36901C64.9665 7.38145 64.761 7.40013 64.5682 7.41257V8.50801C64.761 8.48934 64.9851 8.47689 65.2466 8.47067C65.508 8.46444 65.7818 8.452 66.0682 8.44577C66.3545 8.43955 66.6345 8.43332 66.9022 8.43332C67.3814 8.43332 67.7424 8.5578 67.9913 8.80055C68.2403 9.04328 68.3648 9.40428 68.3648 9.88353V10.0516H66.6034C65.9997 10.0516 65.4893 10.1387 65.0598 10.3068C64.6304 10.4748 64.3068 10.73 64.0889 11.0599C63.8648 11.3898 63.7528 11.8068 63.7528 12.2984C63.7528 12.7777 63.8524 13.1884 64.0578 13.5246C64.2631 13.8669 64.5557 14.1221 64.9354 14.3026C65.315 14.4831 65.7632 14.5702 66.286 14.5702C66.7714 14.5702 67.1885 14.4831 67.537 14.3088C67.8793 14.1346 68.1532 13.8794 68.3462 13.5433C68.4395 13.3814 68.5142 13.201 68.5764 13.008V14.3898H69.5723V9.97066C69.5723 9.31714 69.4603 8.80055 69.2486 8.41465C69.0308 8.0412 68.6947 7.76735 68.2403 7.59308ZM68.0785 12.8772C67.898 13.1324 67.6739 13.3192 67.4063 13.425C67.1386 13.5371 66.8524 13.5869 66.5536 13.5869C66.0495 13.5869 65.6573 13.4685 65.3897 13.2321C65.122 12.9956 64.9851 12.6906 64.9851 12.3046C64.9851 11.9188 65.122 11.6076 65.3897 11.3649C65.6573 11.1221 66.0495 10.9976 66.5536 10.9976H68.3711V11.8068C68.3524 12.2611 68.2589 12.6159 68.0785 12.8772Z" fill="#020202"/>
<path d="M77.7195 9.40485C77.5639 8.96916 77.3335 8.58328 77.041 8.2534C76.7423 7.92353 76.3875 7.66212 75.9767 7.46917C75.5597 7.27622 75.1053 7.18286 74.595 7.18286C74.0722 7.18286 73.5867 7.2949 73.1448 7.52519C72.7029 7.74925 72.3419 8.10402 72.068 8.57705C71.9747 8.73887 71.8937 8.91937 71.8253 9.11854V7.41937H70.8295V17.0106H72.0867V13.3447C72.373 13.7803 72.7215 14.0978 73.1448 14.3032C73.5991 14.521 74.0722 14.6268 74.5701 14.6268C75.068 14.6268 75.5224 14.5335 75.9331 14.3405C76.344 14.1475 76.7049 13.8862 77.0037 13.5562C77.3024 13.2264 77.539 12.8405 77.7007 12.4048C77.8688 11.9692 77.9497 11.5086 77.9497 11.0169V10.7804C77.9497 10.3011 77.875 9.84053 77.7195 9.40485ZM76.4124 12.2741C76.2194 12.6724 75.9518 12.9774 75.6033 13.2015C75.2547 13.4256 74.844 13.5376 74.3771 13.5376C73.9664 13.5376 73.5867 13.4443 73.2257 13.2637C72.871 13.0833 72.5784 12.8219 72.3605 12.4796C72.1427 12.1373 72.0369 11.7326 72.0369 11.2534V10.6497C72.0369 10.1517 72.1427 9.7285 72.3543 9.37373C72.566 9.01896 72.8523 8.75133 73.2132 8.5646C73.568 8.37789 73.9601 8.28452 74.3771 8.28452C74.8502 8.28452 75.2547 8.39655 75.6033 8.62062C75.9518 8.84469 76.2194 9.14966 76.4124 9.54178C76.6054 9.9339 76.6987 10.3882 76.6987 10.9111C76.6987 11.4214 76.5992 11.8758 76.4124 12.2741Z" fill="#020202"/>
</g>
<defs>
<clipPath id="clip0_1701_14556">
<rect width="78" height="20.7386" fill="white"/>
</clipPath>
</defs>
</svg>
