<svg width="81" height="20" viewBox="0 0 81 20" fill="none" xmlns="http://www.w3.org/2000/svg">
<path fill-rule="evenodd" clip-rule="evenodd" d="M0 5.23985C0 3.40572 0 2.48866 0.356942 1.78812C0.670919 1.17191 1.17191 0.670919 1.78812 0.356942C2.48866 0 3.40572 0 5.23985 0H14.4047C16.2388 0 17.1559 0 17.8564 0.356942C18.4726 0.670919 18.9736 1.17191 19.2876 1.78812C19.6445 2.48866 19.6445 3.40572 19.6445 5.23985V14.3325C19.6445 16.1666 19.6445 17.0836 19.2876 17.7842C18.9736 18.4004 18.4726 18.9014 17.8564 19.2154C17.1559 19.5723 16.2388 19.5723 14.4047 19.5723H5.23985C3.40572 19.5723 2.48866 19.5723 1.78812 19.2154C1.17191 18.9014 0.670919 18.4004 0.356942 17.7842C0 17.0836 0 16.1666 0 14.3325V5.23985ZM4.2607 4.89398C3.92403 4.89398 3.79432 5.30872 4.07681 5.48198L11.1438 9.72741C11.3199 9.83545 11.5548 9.79279 11.6761 9.63068L14.7833 5.56654C14.9945 5.28421 14.7811 4.89398 14.4154 4.89398H4.2607ZM15.5552 14.0899C15.8377 14.2632 15.7046 14.6802 15.368 14.6802H5.22097C4.85535 14.6802 4.63524 14.2928 4.84644 14.0105L7.95962 9.94717C8.08087 9.78511 8.31011 9.73701 8.48627 9.84505L15.5552 14.0899Z" fill="#020202"/>
<path d="M26.453 14.2676L31.0254 6.702H26.9626V5.02661H34.096V5.27924L29.6175 12.8449H33.9351V14.5336H26.453V14.2676Z" fill="#020202"/>
<path d="M36.4647 5.02661H42.7132V6.702H38.6235V8.92248H41.8952V10.4914H38.6235V12.8582H42.9277V14.5336H36.4647V5.02661Z" fill="#020202"/>
<path d="M45.4407 5.02661H48.8734C49.4367 5.02661 49.946 5.08425 50.4021 5.19948C50.8581 5.31472 51.2466 5.49199 51.5686 5.73136C51.8905 5.97068 52.1362 6.27205 52.306 6.6355C52.4846 6.99891 52.5741 7.42442 52.5741 7.91196V7.96515C52.5741 8.32856 52.5252 8.64768 52.4268 8.92248C52.3285 9.19727 52.19 9.43659 52.0109 9.64049C51.8323 9.84438 51.6224 10.0172 51.3807 10.1591C51.1395 10.3009 50.8801 10.4117 50.6032 10.4914L53.1373 14.5336H50.8312L48.5382 10.8638H47.5996V14.5336H45.4407V5.02661ZM48.8197 9.40117C49.3652 9.40117 49.7718 9.28589 50.04 9.05542C50.3169 8.82496 50.4554 8.48372 50.4554 8.0316V7.97841C50.4554 7.49091 50.3125 7.15407 50.0268 6.96789C49.7493 6.7729 49.3471 6.67538 48.8197 6.67538H47.5996V9.40117H48.8197Z" fill="#020202"/>
<path d="M55.4241 5.02661H57.6098V14.5336H55.4241V5.02661Z" fill="#020202"/>
<path d="M64.81 12.964C65.2122 12.964 65.5743 12.8886 65.8963 12.7379C66.2271 12.5872 66.5084 12.3745 66.7408 12.0997C66.9645 11.8338 67.1386 11.5058 67.2639 11.1158C67.3892 10.7258 67.4513 10.2914 67.4513 9.81271V9.70639C67.4513 9.24541 67.3892 8.82436 67.2639 8.44319C67.1475 8.06202 66.9777 7.73408 66.754 7.45929C66.5216 7.18449 66.2403 6.97174 65.9095 6.82104C65.5787 6.67033 65.2034 6.59503 64.7831 6.59503C64.3633 6.59503 63.9875 6.67033 63.6567 6.82104C63.3353 6.96289 63.0578 7.16673 62.8254 7.43267C62.593 7.70747 62.4144 8.0399 62.2891 8.42993C62.1731 8.81105 62.1149 9.24101 62.1149 9.71965V9.82602C62.1149 10.3136 62.182 10.7523 62.316 11.1424C62.4501 11.5235 62.638 11.8471 62.8792 12.113C63.1116 12.3878 63.393 12.6005 63.7238 12.7512C64.0545 12.8931 64.4166 12.964 64.81 12.964ZM64.7699 14.6792C64.0188 14.6792 63.3397 14.5595 62.7315 14.3202C62.1237 14.072 61.61 13.7307 61.1896 13.2964C60.7605 12.8709 60.4297 12.3612 60.1973 11.7673C59.9649 11.1734 59.8489 10.5307 59.8489 9.83933V9.73296C59.8489 9.0238 59.9693 8.37229 60.211 7.77837C60.4611 7.18449 60.8099 6.67478 61.2567 6.24928C61.6946 5.82383 62.2133 5.49139 62.8122 5.25207C63.4111 5.01275 64.0682 4.89307 64.7831 4.89307C65.5073 4.89307 66.1688 5.0083 66.7677 5.23876C67.3755 5.46923 67.8985 5.79281 68.3365 6.2094C68.7656 6.6349 69.1008 7.14016 69.342 7.72518C69.5925 8.31024 69.7178 8.96176 69.7178 9.67977V9.78614C69.7178 10.4953 69.5969 11.1513 69.3557 11.754C69.1233 12.3479 68.7925 12.862 68.3634 13.2964C67.9343 13.7307 67.4156 14.072 66.8079 14.3202C66.2002 14.5595 65.5205 14.6792 64.7699 14.6792Z" fill="#020202"/>
<path d="M72.0681 5.02661H74.589L78.2363 11.2893V5.02661H80.1671V14.5336H77.995L73.9989 7.76571V14.5336H72.0681V5.02661Z" fill="#020202"/>
</svg>
