<svg width="72" height="72" viewBox="0 0 72 72" fill="none" xmlns="http://www.w3.org/2000/svg">
<rect opacity="0.3" x="2.79785" y="45.798" width="16" height="16" rx="8" fill="url(#paint0_linear_102_668)"/>
<path opacity="0.6" d="M56 10.5774C56.6188 10.2201 57.3812 10.2201 58 10.5774L68.1244 16.4226C68.7432 16.7799 69.1244 17.4402 69.1244 18.1547V29.8453C69.1244 30.5598 68.7432 31.2201 68.1244 31.5774L58 37.4226C57.3812 37.7799 56.6188 37.7799 56 37.4226L45.8756 31.5774C45.2568 31.2201 44.8756 30.5598 44.8756 29.8453V18.1547C44.8756 17.4402 45.2568 16.7799 45.8756 16.4226L56 10.5774Z" fill="url(#paint1_linear_102_668)"/>
<path fill-rule="evenodd" clip-rule="evenodd" d="M33.8787 6.12136C35.0503 4.94978 36.9497 4.94978 38.1213 6.12136L58.2426 26.2427C59.3679 27.3679 60 28.894 60 30.4853V64C60 66.2092 58.2091 68 56 68H16C13.7909 68 12 66.2092 12 64V30.4853C12 28.894 12.6321 27.3679 13.7574 26.2427L33.8787 6.12136ZM37.7585 28.2458C37.002 26.8495 34.998 26.8495 34.2415 28.2458L31.1795 33.8976C30.8915 34.4292 30.3784 34.802 29.7837 34.9117L23.4624 36.0773C21.9006 36.3653 21.2813 38.2712 22.3756 39.4222L26.8045 44.0808C27.2211 44.519 27.4171 45.1222 27.3376 45.7217L26.4928 52.0938C26.2841 53.6682 27.9053 54.846 29.3382 54.161L35.1373 51.3885C35.6829 51.1276 36.3171 51.1276 36.8627 51.3885L42.6618 54.161C44.0947 54.846 45.7159 53.6681 45.5072 52.0938L44.6624 45.7217C44.5829 45.1222 44.7789 44.519 45.1955 44.0808L49.6244 39.4222C50.7187 38.2712 50.0994 36.3653 48.5376 36.0773L42.2163 34.9117C41.6216 34.802 41.1085 34.4292 40.8205 33.8976L37.7585 28.2458Z" fill="url(#paint2_linear_102_668)"/>
<defs>
<linearGradient id="paint0_linear_102_668" x1="2.79785" y1="45.798" x2="22.3185" y2="60.1534" gradientUnits="userSpaceOnUse">
<stop offset="0.24238" stop-color="#36BEFF"/>
<stop offset="1" stop-color="#733FF1"/>
</linearGradient>
<linearGradient id="paint1_linear_102_668" x1="43" y1="10" x2="77.1612" y2="35.1219" gradientUnits="userSpaceOnUse">
<stop offset="0.24238" stop-color="#36BEFF"/>
<stop offset="1" stop-color="#733FF1"/>
</linearGradient>
<linearGradient id="paint2_linear_102_668" x1="12" y1="5.24268" x2="80.5466" y2="43.7978" gradientUnits="userSpaceOnUse">
<stop offset="0.24238" stop-color="#36BEFF"/>
<stop offset="1" stop-color="#733FF1"/>
</linearGradient>
</defs>
</svg>
