<svg width="420" height="252" viewBox="0 0 420 252" fill="none" xmlns="http://www.w3.org/2000/svg">
<g clip-path="url(#clip0_1007_8677)">
<rect width="420" height="252" rx="24" fill="url(#paint0_linear_1007_8677)"/>
<g clip-path="url(#clip1_1007_8677)">
<rect x="29" y="59" width="176" height="98" rx="2.50364" stroke="#36BEFF" stroke-width="2"/>
<rect x="78" y="69" width="78" height="78" rx="2.50364" fill="#36BEFF" fill-opacity="0.2" stroke="#36BEFF" stroke-width="2"/>
<path d="M78 118L102.5 90.5L126.5 118L141.5 106L156 118" stroke="#36BEFF" stroke-width="2"/>
<circle cx="130" cy="87" r="7" stroke="#36BEFF" stroke-width="2"/>
<rect x="214.007" y="59" width="83.9927" height="98" rx="2.50364" stroke="#36BEFF" stroke-width="2" stroke-dasharray="2 2"/>
<rect x="307.007" y="59" width="83.9927" height="98" rx="2.50364" stroke="#36BEFF" stroke-width="2"/>
<circle cx="349" cy="108" r="14" fill="#36BEFF" fill-opacity="0.2"/>
<circle cx="349" cy="108" r="13.5" stroke="#36BEFF" stroke-opacity="0.4" stroke-dasharray="2 2"/>
<line x1="349" y1="104" x2="349" y2="112" stroke="#36BEFF" stroke-width="2"/>
<line x1="353" y1="108" x2="345" y2="108" stroke="#36BEFF" stroke-width="2"/>
<rect x="29" y="171" width="83.7445" height="98" rx="2.50364" fill="#36BEFF" fill-opacity="0.2" stroke="#36BEFF" stroke-width="2"/>
<rect x="121.752" y="171" width="83.7445" height="98" rx="2.50364" stroke="#36BEFF" stroke-width="2"/>
<path d="M230 190H292C294.761 190 297 192.239 297 195C297 197.761 294.761 200 292 200H230C227.239 200 225 197.761 225 195C225 192.239 227.239 190 230 190Z" fill="#36BEFF" fill-opacity="0.2" stroke="#36BEFF" stroke-width="2"/>
<path d="M230 210H346C348.761 210 351 212.239 351 215C351 217.761 348.761 220 346 220H230C227.239 220 225 217.761 225 215C225 212.239 227.239 210 230 210Z" fill="#36BEFF" fill-opacity="0.2" stroke="#36BEFF" stroke-width="2"/>
<path d="M230 230H323C325.761 230 328 232.239 328 235C328 237.761 325.761 240 323 240H230C227.239 240 225 237.761 225 235C225 232.239 227.239 230 230 230Z" fill="#36BEFF" fill-opacity="0.2" stroke="#36BEFF" stroke-width="2"/>
</g>
<rect x="17" y="17" width="386" height="218" rx="11" stroke="#36BEFF" stroke-width="2"/>
<line x1="17" y1="49" x2="403" y2="49" stroke="#36BEFF" stroke-width="2"/>
<rect x="380" y="28" width="12" height="2" fill="#36BEFF"/>
<rect x="380" y="32" width="12" height="2" fill="#36BEFF"/>
<rect x="380" y="36" width="12" height="2" fill="#36BEFF"/>
</g>
<defs>
<linearGradient id="paint0_linear_1007_8677" x1="210" y1="0" x2="210" y2="252" gradientUnits="userSpaceOnUse">
<stop stop-color="#39170D"/>
<stop offset="1" stop-color="#551F0D"/>
</linearGradient>
<clipPath id="clip0_1007_8677">
<rect width="420" height="252" rx="24" fill="white"/>
</clipPath>
<clipPath id="clip1_1007_8677">
<rect x="16" y="16" width="388" height="220" rx="12" fill="white"/>
</clipPath>
</defs>
</svg>
