<svg width="420" height="252" viewBox="0 0 420 252" fill="none" xmlns="http://www.w3.org/2000/svg">
<rect width="420" height="252" rx="24" fill="url(#paint0_linear_1007_8608)"/>
<rect width="420" height="252" rx="24" fill="black" fill-opacity="0.2"/>
<path d="M279.5 159.5H341.5C344.261 159.5 346.5 161.739 346.5 164.5C346.5 167.261 344.261 169.5 341.5 169.5H279.5C276.739 169.5 274.5 167.261 274.5 164.5C274.5 161.739 276.739 159.5 279.5 159.5Z" fill="#73FCC2" fill-opacity="0.2" stroke="#73FCC2" stroke-width="2"/>
<path d="M237 183.5H384C386.761 183.5 389 185.739 389 188.5C389 191.261 386.761 193.5 384 193.5H237C234.239 193.5 232 191.261 232 188.5C232 185.739 234.239 183.5 237 183.5Z" fill="#73FCC2" fill-opacity="0.2" stroke="#73FCC2" stroke-width="2"/>
<path d="M258.5 207.5H362.5C365.261 207.5 367.5 209.739 367.5 212.5C367.5 215.261 365.261 217.5 362.5 217.5H258.5C255.739 217.5 253.5 215.261 253.5 212.5C253.5 209.739 255.739 207.5 258.5 207.5Z" fill="#73FCC2" fill-opacity="0.2" stroke="#73FCC2" stroke-width="2"/>
<circle cx="104.631" cy="126.131" r="73" stroke="#73FCC2" stroke-width="2"/>
<mask id="path-7-inside-1_1007_8608" fill="white">
<path d="M33.1521 145.284C36.9401 159.421 44.8352 172.117 55.839 181.767C66.8428 191.417 80.4611 197.588 94.9717 199.498C109.482 201.408 124.233 198.973 137.36 192.5C150.486 186.026 161.399 175.806 168.716 163.131C176.034 150.456 179.429 135.896 178.472 121.291C177.515 106.687 172.248 92.6942 163.339 81.0828C154.429 69.4714 142.276 60.7628 128.417 56.0583C114.558 51.3538 99.6151 50.8646 85.478 54.6526L104.631 126.131L33.1521 145.284Z"/>
</mask>
<path d="M33.1521 145.284C36.9401 159.421 44.8352 172.117 55.839 181.767C66.8428 191.417 80.4611 197.588 94.9717 199.498C109.482 201.408 124.233 198.973 137.36 192.5C150.486 186.026 161.399 175.806 168.716 163.131C176.034 150.456 179.429 135.896 178.472 121.291C177.515 106.687 172.248 92.6942 163.339 81.0828C154.429 69.4714 142.276 60.7628 128.417 56.0583C114.558 51.3538 99.6151 50.8646 85.478 54.6526L104.631 126.131L33.1521 145.284Z" fill="#73FCC2" fill-opacity="0.2" stroke="#73FCC2" stroke-width="4" mask="url(#path-7-inside-1_1007_8608)"/>
<path d="M235 29.5H259C260.657 29.5 262 30.8431 262 32.5V121.5H232V32.5C232 30.8431 233.343 29.5 235 29.5Z" fill="#73FCC2" fill-opacity="0.6" stroke="#73FCC2" stroke-width="2"/>
<path d="M276 63.5H299C300.657 63.5 302 64.8431 302 66.5V121.5H273V66.5C273 64.8431 274.343 63.5 276 63.5Z" fill="#73FCC2" fill-opacity="0.2" stroke="#73FCC2" stroke-width="2"/>
<path d="M317 12.5H340C341.657 12.5 343 13.8431 343 15.5V121.5H314V15.5C314 13.8431 315.343 12.5 317 12.5Z" fill="#73FCC2" fill-opacity="0.6" stroke="#73FCC2" stroke-width="2"/>
<path d="M357 29.5H381C382.657 29.5 384 30.8431 384 32.5V121.5H354V32.5C354 30.8431 355.343 29.5 357 29.5Z" fill="#73FCC2" fill-opacity="0.2" stroke="#73FCC2" stroke-width="2"/>
<line x1="221" y1="121.5" x2="404" y2="121.5" stroke="#73FCC2" stroke-width="2"/>
<defs>
<linearGradient id="paint0_linear_1007_8608" x1="210" y1="0" x2="210" y2="252" gradientUnits="userSpaceOnUse">
<stop stop-color="#3051C5"/>
<stop offset="1" stop-color="#000F46"/>
</linearGradient>
</defs>
</svg>
