<svg width="420" height="252" viewBox="0 0 420 252" fill="none" xmlns="http://www.w3.org/2000/svg">
<rect width="420" height="252" rx="24" fill="url(#paint0_linear_1007_8646)"/>
<path d="M28 17H172C178.075 17 183 21.9249 183 28V138C183 144.075 178.075 149 172 149H28C21.9249 149 17 144.075 17 138V28C17 21.9249 21.9249 17 28 17Z" stroke="#36BEFF" stroke-width="2"/>
<path d="M28 159H94.75C100.825 159 105.75 163.925 105.75 170V224C105.75 230.075 100.825 235 94.75 235H28C21.9249 235 17 230.075 17 224V170C17 163.925 21.9249 159 28 159Z" fill="#36BEFF" fill-opacity="0.2" stroke="#36BEFF" stroke-width="2"/>
<rect x="40.3719" y="185.798" width="30" height="30" rx="3" transform="rotate(-30.9446 40.3719 185.798)" stroke="#36BEFF" stroke-width="2"/>
<rect x="35.3719" y="197.748" width="30" height="30" rx="3" transform="rotate(-30.9446 35.3719 197.748)" stroke="#36BEFF" stroke-width="2"/>
<path d="M126.75 159H193.5C199.575 159 204.5 163.925 204.5 170V224C204.5 230.075 199.575 235 193.5 235H126.75C120.675 235 115.75 230.075 115.75 224V170C115.75 163.925 120.675 159 126.75 159Z" fill="#36BEFF" fill-opacity="0.2" stroke="#36BEFF" stroke-width="2"/>
<rect x="132.372" y="200.798" width="30" height="30" rx="15" transform="rotate(-30.9446 132.372 200.798)" stroke="#36BEFF" stroke-width="2"/>
<rect x="146.372" y="183.798" width="30" height="30" rx="15" transform="rotate(-30.9446 146.372 183.798)" stroke="#36BEFF" stroke-width="2"/>
<path d="M225.5 159H292.25C298.325 159 303.25 163.925 303.25 170V224C303.25 230.075 298.325 235 292.25 235H225.5C219.425 235 214.5 230.075 214.5 224V170C214.5 163.925 219.425 159 225.5 159Z" fill="#36BEFF" fill-opacity="0.2" stroke="#36BEFF" stroke-width="2"/>
<path d="M243.704 187.784L256.261 171.665C257.462 170.123 259.793 170.123 260.994 171.665L273.551 187.784C274.395 188.868 274.395 190.387 273.551 191.471L260.994 207.59C259.793 209.132 257.462 209.132 256.261 207.59L243.704 191.471C242.859 190.387 242.859 188.868 243.704 187.784Z" stroke="#36BEFF" stroke-width="2"/>
<path d="M243.704 203.784L256.261 187.665C257.462 186.123 259.793 186.123 260.994 187.665L273.551 203.784C274.395 204.868 274.395 206.387 273.551 207.471L260.994 223.59C259.793 225.132 257.462 225.132 256.261 223.59L243.704 207.471C242.859 206.387 242.859 204.868 243.704 203.784Z" stroke="#36BEFF" stroke-width="2"/>
<path d="M324.25 159H391C397.075 159 402 163.925 402 170V224C402 230.075 397.075 235 391 235H324.25C318.175 235 313.25 230.075 313.25 224V170C313.25 163.925 318.175 159 324.25 159Z" fill="#36BEFF" fill-opacity="0.2" stroke="#36BEFF" stroke-width="2"/>
<path d="M338.193 192H377.807C380.123 192 382 193.877 382 196.193V198C382 211.255 371.255 222 358 222C344.745 222 334 211.255 334 198V196.193C334 193.877 335.877 192 338.193 192Z" stroke="#36BEFF" stroke-width="2"/>
<path d="M338.193 172H377.807C380.123 172 382 173.877 382 176.193V178C382 191.255 371.255 202 358 202C344.745 202 334 191.255 334 178V176.193C334 173.877 335.877 172 338.193 172Z" stroke="#36BEFF" stroke-width="2"/>
<path d="M220 36H391C397.075 36 402 40.9249 402 47C402 53.0751 397.075 58 391 58H220C213.925 58 209 53.0751 209 47C209 40.9249 213.925 36 220 36Z" stroke="#36BEFF" stroke-width="2"/>
<path d="M220 72H288C294.075 72 299 76.9249 299 83C299 89.0751 294.075 94 288 94H220C213.925 94 209 89.0751 209 83C209 76.9249 213.925 72 220 72Z" stroke="#36BEFF" stroke-width="2"/>
<path d="M220 108H331C337.075 108 342 112.925 342 119C342 125.075 337.075 130 331 130H220C213.925 130 209 125.075 209 119C209 112.925 213.925 108 220 108Z" stroke="#36BEFF" stroke-width="2"/>
<path d="M94.1045 41.9759L123.454 78.4159L105.342 122.857L75.8513 85.3669L94.1045 41.9759Z" stroke="#36BEFF" stroke-width="2"/>
<path d="M94.1035 41.9756L90.8706 70.6088L75.8503 85.3667L94.1035 41.9756Z" stroke="#36BEFF" stroke-width="2"/>
<path d="M105.348 122.856L90.8804 70.5611L75.8578 85.3661L105.348 122.856Z" stroke="#36BEFF" stroke-width="2"/>
<path d="M105.337 122.859L90.9798 70.8647L123.45 78.4181L105.337 122.859Z" stroke="#36BEFF" stroke-width="2"/>
<defs>
<linearGradient id="paint0_linear_1007_8646" x1="210" y1="0" x2="210" y2="252" gradientUnits="userSpaceOnUse">
<stop stop-color="#143F2D"/>
<stop offset="1" stop-color="#00693D"/>
</linearGradient>
</defs>
</svg>
