<svg width="420" height="252" viewBox="0 0 420 252" fill="none" xmlns="http://www.w3.org/2000/svg">
<g clip-path="url(#clip0_1007_8595)">
<rect y="-0.5" width="420" height="252" rx="24" fill="url(#paint0_linear_1007_8595)"/>
<rect x="239" y="33.5" width="159" height="186" rx="15" fill="#36BEFF" fill-opacity="0.2" stroke="#36BEFF" stroke-width="2"/>
<path d="M319.032 69.8952C319.445 70.7752 327.512 87.6775 354.939 90.6314C356.053 90.7976 357 91.8633 357 93.1167V121.747C357 138.049 347.754 151.427 338.17 160.909C328.794 170.185 319.219 175.608 318.088 176.249C318.085 176.251 318.082 176.252 318.08 176.254C317.647 176.434 317.357 176.5 317 176.5C316.59 176.5 316.219 176.412 315.958 176.275C315.945 176.268 315.93 176.259 315.913 176.25C314.786 175.611 305.209 170.188 295.83 160.909C286.246 151.427 277 138.049 277 121.747V93.1167C277 91.7694 277.927 90.8004 279.062 90.6314C306.488 87.6774 314.556 70.7753 314.969 69.8951C315.375 69.0302 316.143 68.5 317 68.5C317.859 68.5 318.626 69.0296 319.032 69.8951L319.032 69.8952Z" stroke="#36BEFF" stroke-width="2"/>
<path d="M323.032 77.8952C323.445 78.7752 331.512 95.6775 358.939 98.6314C360.053 98.7976 361 99.8633 361 101.117V129.747C361 146.049 351.754 159.427 342.17 168.909C332.794 178.185 323.219 183.608 322.088 184.249C322.085 184.251 322.082 184.252 322.08 184.254C321.647 184.434 321.357 184.5 321 184.5C320.59 184.5 320.219 184.412 319.958 184.275C319.945 184.268 319.93 184.259 319.913 184.25C318.786 183.611 309.209 178.188 299.83 168.909C290.246 159.427 281 146.049 281 129.747V101.117C281 99.7694 281.927 98.8004 283.062 98.6314C310.488 95.6774 318.556 78.7753 318.969 77.8951C319.375 77.0302 320.143 76.5 321 76.5C321.859 76.5 322.626 77.0296 323.032 77.8951L323.032 77.8952Z" stroke="#36BEFF" stroke-width="2"/>
<path d="M315.032 61.8952C315.445 62.7752 323.512 79.6775 350.939 82.6314C352.053 82.7976 353 83.8633 353 85.1167V113.747C353 130.049 343.754 143.427 334.17 152.909C324.794 162.185 315.219 167.608 314.088 168.249C314.085 168.251 314.082 168.252 314.08 168.254C313.647 168.434 313.357 168.5 313 168.5C312.59 168.5 312.219 168.412 311.958 168.275C311.945 168.268 311.93 168.259 311.913 168.25C310.786 167.611 301.209 162.188 291.83 152.909C282.246 143.427 273 130.049 273 113.747V85.1167C273 83.7694 273.927 82.8004 275.062 82.6314C302.488 79.6774 310.556 62.7753 310.969 61.8951C311.375 61.0302 312.143 60.5 313 60.5C313.859 60.5 314.626 61.0296 315.032 61.8951L315.032 61.8952Z" fill="url(#paint1_linear_1007_8595)" stroke="#36BEFF" stroke-width="2"/>
<path d="M36 24.5H207C213.075 24.5 218 29.4249 218 35.5C218 41.5751 213.075 46.5 207 46.5H36C29.9249 46.5 25 41.5751 25 35.5C25 29.4249 29.9249 24.5 36 24.5Z" stroke="#36BEFF" stroke-width="2"/>
<path d="M36 60.5H104C110.075 60.5 115 65.4249 115 71.5C115 77.5751 110.075 82.5 104 82.5H36C29.9249 82.5 25 77.5751 25 71.5C25 65.4249 29.9249 60.5 36 60.5Z" stroke="#36BEFF" stroke-width="2"/>
<path d="M36 96.5H147C153.075 96.5 158 101.425 158 107.5C158 113.575 153.075 118.5 147 118.5H36C29.9249 118.5 25 113.575 25 107.5C25 101.425 29.9249 96.5 36 96.5Z" stroke="#36BEFF" stroke-width="2"/>
<circle cx="72" cy="180.5" r="39" fill="#36BEFF" fill-opacity="0.2" stroke="#36BEFF" stroke-width="2"/>
<circle cx="168" cy="180.5" r="39" fill="#36BEFF" fill-opacity="0.2" stroke="#36BEFF" stroke-width="2"/>
</g>
<defs>
<linearGradient id="paint0_linear_1007_8595" x1="210" y1="-0.5" x2="210" y2="251.5" gradientUnits="userSpaceOnUse">
<stop stop-color="#39170D"/>
<stop offset="1" stop-color="#551F0D"/>
</linearGradient>
<linearGradient id="paint1_linear_1007_8595" x1="261.19" y1="46.9015" x2="421.361" y2="124.233" gradientUnits="userSpaceOnUse">
<stop offset="0.0520833" stop-color="#36BEFF"/>
<stop offset="0.705373" stop-color="#11597C"/>
</linearGradient>
<clipPath id="clip0_1007_8595">
<rect width="420" height="252" fill="white"/>
</clipPath>
</defs>
</svg>
