<svg width="20" height="20" viewBox="0 0 20 20" fill="none" xmlns="http://www.w3.org/2000/svg">
<path d="M1.66663 3.00001L1.48389 2.40232C1.22111 2.48266 1.04163 2.72522 1.04163 3.00001H1.66663ZM9.99996 5.83334H10.625H9.99996ZM9.37496 17.5C9.37496 17.8452 9.65478 18.125 9.99996 18.125C10.3451 18.125 10.625 17.8452 10.625 17.5H9.37496ZM1.66663 15H1.04163C1.04163 15.1723 1.11277 15.337 1.23824 15.4551C1.36371 15.5732 1.53238 15.6343 1.70438 15.6239L1.66663 15ZM8.58171 3.91826C9.08962 4.42617 9.37496 5.11505 9.37496 5.83334H10.625C10.625 4.78353 10.2079 3.77671 9.46559 3.03438L8.58171 3.91826ZM9.37496 5.83334V17.5H10.625V5.83334H9.37496ZM7.49996 14.143C6.48347 14.143 5.01171 14.2017 3.80339 14.2597C3.19724 14.2888 2.65391 14.3179 2.26211 14.3397C2.06618 14.3506 1.90807 14.3597 1.79885 14.3661C1.74424 14.3693 1.70184 14.3718 1.67305 14.3735C1.65866 14.3744 1.64766 14.375 1.64024 14.3755C1.63653 14.3757 1.63371 14.3759 1.63181 14.376C1.63086 14.376 1.63014 14.3761 1.62965 14.3761C1.6294 14.3761 1.62921 14.3761 1.62908 14.3761C1.62902 14.3761 1.62897 14.3761 1.62893 14.3761C1.6289 14.3761 1.62887 14.3762 1.66663 15C1.70438 15.6239 1.70439 15.6239 1.70441 15.6239C1.70443 15.6239 1.70447 15.6239 1.70452 15.6239C1.70462 15.6239 1.70478 15.6238 1.705 15.6238C1.70544 15.6238 1.70611 15.6238 1.70701 15.6237C1.70881 15.6236 1.71152 15.6234 1.71513 15.6232C1.72233 15.6228 1.73311 15.6221 1.74728 15.6213C1.77562 15.6196 1.81754 15.6171 1.87166 15.614C1.97989 15.6077 2.13689 15.5986 2.3316 15.5878C2.72108 15.5661 3.26112 15.5372 3.86332 15.5083C5.0717 15.4503 6.51661 15.393 7.49996 15.393V14.143ZM2.29163 15V3.00001H1.04163V15H2.29163ZM1.84936 3.5977C2.8508 3.29153 4.18713 2.98693 5.46729 2.96577C6.76402 2.94433 7.87805 3.21461 8.58171 3.91826L9.46559 3.03438C8.4065 1.97529 6.87248 1.69237 5.44662 1.71594C4.00419 1.73979 2.54337 2.0784 1.48389 2.40232L1.84936 3.5977ZM10.625 17.5C10.625 15.7896 9.362 14.143 7.49996 14.143V15.393C8.53031 15.393 9.37496 16.3296 9.37496 17.5H10.625Z" fill="#36BEFF"/>
<path d="M18.3335 2.99977L18.5162 2.40207C18.779 2.48242 18.9585 2.72497 18.9585 2.99977H18.3335ZM10.0002 5.8331H9.37516H10.0002ZM10.6252 17.4998C10.6252 17.8449 10.3453 18.1248 10.0002 18.1248C9.65499 18.1248 9.37516 17.8449 9.37516 17.4998H10.6252ZM18.3335 14.9998H18.9585C18.9585 15.1721 18.8874 15.3368 18.7619 15.4549C18.6364 15.573 18.4677 15.634 18.2957 15.6236L18.3335 14.9998ZM11.4184 3.91802C10.9105 4.42593 10.6252 5.1148 10.6252 5.8331H9.37516C9.37516 4.78328 9.7922 3.77647 10.5345 3.03413L11.4184 3.91802ZM10.6252 5.8331V17.4998H9.37516V5.8331H10.6252ZM12.5002 14.1428C13.5167 14.1428 14.9884 14.2015 16.1967 14.2595C16.8029 14.2886 17.3462 14.3177 17.738 14.3395C17.9339 14.3504 18.0921 14.3595 18.2013 14.3659C18.2559 14.369 18.2983 14.3716 18.3271 14.3733C18.3415 14.3741 18.3525 14.3748 18.3599 14.3752C18.3636 14.3754 18.3664 14.3756 18.3683 14.3757C18.3693 14.3758 18.37 14.3758 18.3705 14.3759C18.3707 14.3759 18.3709 14.3759 18.371 14.3759C18.3711 14.3759 18.3712 14.3759 18.3712 14.3759C18.3712 14.3759 18.3713 14.3759 18.3335 14.9998C18.2957 15.6236 18.2957 15.6236 18.2957 15.6236C18.2957 15.6236 18.2957 15.6236 18.2956 15.6236C18.2955 15.6236 18.2953 15.6236 18.2951 15.6236C18.2947 15.6236 18.294 15.6235 18.2931 15.6235C18.2913 15.6234 18.2886 15.6232 18.285 15.623C18.2778 15.6225 18.267 15.6219 18.2528 15.6211C18.2245 15.6194 18.1826 15.6169 18.1285 15.6137C18.0202 15.6074 17.8632 15.5984 17.6685 15.5875C17.279 15.5659 16.739 15.537 16.1368 15.508C14.9284 15.45 13.4835 15.3928 12.5002 15.3928V14.1428ZM17.7085 14.9998V2.99977H18.9585V14.9998H17.7085ZM18.1508 3.59746C17.1493 3.29128 15.813 2.98669 14.5328 2.96552C13.2361 2.94409 12.1221 3.21436 11.4184 3.91802L10.5345 3.03413C11.5936 1.97504 13.1276 1.69212 14.5535 1.71569C15.9959 1.73954 17.4568 2.07816 18.5162 2.40207L18.1508 3.59746ZM9.37516 17.4998C9.37516 15.7893 10.6381 14.1428 12.5002 14.1428V15.3928C11.4698 15.3928 10.6252 16.3293 10.6252 17.4998H9.37516Z" fill="#36BEFF"/>
</svg>
