<svg width="396" height="75" viewBox="0 0 396 75" fill="none" xmlns="http://www.w3.org/2000/svg">
<path fill-rule="evenodd" clip-rule="evenodd" d="M62.4263 0.166918C60.2132 0.632303 58.8467 1.35614 56.9921 3.04566C53.1503 6.54537 48.4083 6.50677 44.3978 2.94329C42.0309 0.840241 40.1666 0.0932422 37.2847 0.0932422C34.4626 0.0932422 32.3679 0.931877 30.0822 2.97685C27.5112 5.27693 24.6846 6.08434 21.6819 5.37645C20.0352 4.9881 18.9544 4.38862 17.5198 3.06782C15.1225 0.860717 13.2587 0.0932422 10.2963 0.0932422C7.13137 0.0932422 5.29268 0.843096 3.10331 3.02636C0.403177 5.71915 -0.579926 9.15642 0.331193 12.7196C0.792626 14.5244 1.50676 15.8261 2.86001 17.3288C4.78746 19.4694 5.54907 21.3623 5.54018 23.9895C5.53196 26.3589 4.85239 27.9841 2.9325 30.2257C0.889779 32.6101 0.0128886 34.7506 0.0128886 37.3509C0.0128886 39.9888 0.942633 42.3195 2.85817 44.4836C4.94166 46.8372 5.65059 48.7491 5.50293 51.6156C5.37406 54.1186 4.7299 55.5444 2.75313 57.7017C-0.171013 60.8929 -0.823059 65.5253 1.12318 69.2813C2.03799 71.0468 4.0787 73.0646 5.75378 73.8603C9.54306 75.6602 14.0535 74.9854 17.1099 72.1614C19.4926 69.9596 21.1316 69.2381 23.7498 69.2381C26.2595 69.2381 28.4584 70.1454 30.0421 71.8343C30.8874 72.7358 32.3937 73.7206 33.6958 74.2231C34.6029 74.5732 35.2056 74.6741 36.7688 74.7372C39.0768 74.8307 40.0533 74.6523 41.7829 73.8218C42.6644 73.3988 43.4142 72.859 44.2644 72.0358C46.4625 69.9076 47.3091 68.0905 47.445 65.2103C47.5963 61.9986 46.7902 59.8465 44.5646 57.5203C43.4761 56.3824 42.9743 56.0006 41.8563 55.4593C39.314 54.2287 36.904 54.0219 34.3208 54.813C32.7597 55.2912 31.7081 55.9084 30.2132 57.2244C28.0945 59.0891 26.2305 59.8398 23.7189 59.8398C19.8318 59.8398 16.6454 57.6154 15.3085 53.9684C14.9794 53.0703 14.9061 52.5438 14.899 51.022C14.8858 48.2146 15.439 46.8684 17.6522 44.3226C19.5986 42.0838 20.3047 40.2515 20.308 37.4315C20.3116 34.5105 19.5459 32.5113 17.5874 30.3277C15.8167 28.3534 15.1673 27.0532 14.9343 25.0156C14.6497 22.5286 15.2084 20.3149 16.5862 18.4703C18.3821 16.0659 20.8191 14.8621 23.8906 14.8621C26.3062 14.8621 28.003 15.5908 30.324 17.6248C31.9298 19.0321 33.3572 19.8036 34.992 20.1474C38.4448 20.8738 41.669 19.9868 44.3814 17.5642C46.4974 15.6742 48.3945 14.8621 50.6931 14.8621C53.2234 14.8621 54.9645 15.575 57.106 17.4879C59.5402 19.6623 61.8698 20.5126 64.9432 20.3485C67.6101 20.2062 69.6269 19.2902 71.4987 17.3714C74.59 14.2022 75.3286 9.60704 73.3825 5.65219C72.5449 3.94992 70.5376 1.90007 68.9643 1.14065C66.8491 0.119423 64.392 -0.246609 62.4263 0.166918ZM184.244 11.5671C182.284 11.9949 180.778 13.1962 179.903 15.0299C179.518 15.8373 179.463 16.1632 179.464 17.6312C179.467 19.0933 179.524 19.4327 179.913 20.2654C181.661 24.0139 186.698 24.9936 189.752 22.1788C190.727 21.2794 191.233 20.3668 191.561 18.9127C191.792 17.8892 191.804 17.5342 191.634 16.6576C191.354 15.2175 190.94 14.348 190.1 13.4362C189.152 12.4076 188.225 11.8848 186.822 11.5876C185.481 11.3033 185.455 11.3031 184.244 11.5671ZM109.157 11.6059C100.756 12.0578 93.6053 16.5759 89.6618 23.9247C88.6029 25.8981 87.5396 28.9184 87.0919 31.2252C86.9844 31.7791 86.8236 32.5633 86.7345 32.9679C86.5117 33.9791 86.5251 40.4442 86.7526 41.7455C87.3688 45.2702 88.0171 47.4186 89.2214 49.9261C90.6993 53.0033 92.0807 54.861 94.6894 57.2782C96.3117 58.7815 96.9597 59.2291 99.1954 60.3913C101.576 61.6288 103.469 62.2711 106.556 62.8886C108.062 63.1898 114.294 63.1856 115.952 62.8822C121.426 61.8807 125.273 59.6319 128.622 55.4763C130.75 52.835 132.436 48.7338 132.594 45.8091L132.648 44.8192H126.531H120.414L120.114 45.994C118.978 50.4332 115.627 52.9641 110.894 52.9564C103.678 52.9444 99.173 46.9137 99.173 37.267C99.173 34.0694 99.5789 31.6523 100.544 29.1032C101.469 26.659 103.41 24.3136 105.363 23.2806C107.123 22.3497 108.36 22.0786 110.851 22.0786C113.049 22.0786 113.131 22.0919 114.645 22.6979C115.987 23.2355 116.35 23.4738 117.387 24.5021C118.677 25.7812 119.296 26.8506 119.777 28.636L120.068 29.7148H126.19H132.312L132.263 28.8756C132.235 28.4141 132.025 27.3206 131.795 26.4457C129.929 19.3437 125.027 14.5012 117.546 12.3693C115.445 11.7705 111.972 11.4543 109.157 11.6059ZM236.77 12.837C236.582 13.1888 236.511 61.2689 236.698 61.7561C236.79 61.9947 237.995 62.0216 248.603 62.0216C255.826 62.0216 260.751 61.9559 261.295 61.8526C265.355 61.0811 266.655 60.6831 269.064 59.4746C272.527 57.7379 275.231 55.1623 277.316 51.6163C278.52 49.5678 279.029 48.3594 279.686 45.994C280.563 42.8345 280.781 40.8426 280.671 37.0153C280.544 32.6232 280.293 31.0126 279.247 27.8687C276.925 20.8926 272.163 15.9187 265.708 13.7284C262.474 12.631 260.746 12.5125 247.975 12.5125C237.24 12.5125 236.939 12.5212 236.77 12.837ZM360.092 37.437V62.1939L365.671 62.1496L371.25 62.1055L371.334 56.6054L371.418 51.1054L372.993 49.4196C373.859 48.4925 374.626 47.7955 374.697 47.8709C374.768 47.9464 376.693 51.1987 378.973 55.0987L383.119 62.1894H389.56C394.23 62.1894 396 62.1374 396 61.9999C396 61.8959 392.976 56.9827 389.28 51.0821C385.583 45.1816 382.521 40.2535 382.473 40.1308C382.423 39.9997 384.913 37.2053 388.523 33.341C391.897 29.729 394.658 26.737 394.658 26.6919C394.658 26.6469 391.732 26.6125 388.156 26.6155L381.654 26.6212L376.536 32.4656L371.418 38.3101L371.375 25.4953L371.332 12.6803H365.712H360.092V37.437ZM260.339 23.6562C261.966 24.2765 263.146 25.023 264.21 26.1065C266.614 28.5531 267.662 31.239 268.121 36.1266C268.296 37.9987 268.037 41.3417 267.583 43.0571C266.424 47.4372 263.809 50.1917 259.835 51.2178C258.842 51.4744 257.937 51.5221 253.963 51.5268L249.264 51.5323L249.221 37.4348C249.197 29.6812 249.206 23.2618 249.242 23.1695C249.283 23.0596 251.007 23.0374 254.235 23.1051C259.048 23.2061 259.192 23.2192 260.339 23.6562ZM153.278 25.7802C151.347 25.9336 150.121 26.1864 148.355 26.7944C142.316 28.8735 138.203 33.5042 136.668 39.9523C136.293 41.5287 136.153 45.6408 136.414 47.4269C137.313 53.5736 140.828 58.5831 146.05 61.1569C149.243 62.7305 151.998 63.291 155.867 63.1532C159.159 63.0361 160.761 62.6662 164.025 61.2689C165.193 60.7689 167.44 59.177 168.611 58.0197C171.193 55.4672 172.801 52.3864 173.618 48.4275C173.98 46.6711 174.02 42.6944 173.693 40.8753C173.212 38.1917 172.128 35.505 170.629 33.2781C169.736 31.9519 167.503 29.721 166.248 28.9003C162.536 26.4745 158.067 25.3994 153.278 25.7802ZM216.327 25.8682C213.325 26.5256 210.65 28.2846 208.85 30.783L208.323 31.5157L208.276 29.0628L208.23 26.61H202.781H197.332V44.3158V62.0216H202.943H208.554L208.618 51.4065C208.672 42.3896 208.721 40.6613 208.944 39.9271C209.594 37.7868 210.992 36.1536 212.735 35.4996C213.505 35.2108 213.971 35.1519 215.118 35.1989C217.445 35.2937 218.845 36.2575 219.689 38.3446C220.068 39.2803 220.068 39.2883 220.115 50.6513L220.161 62.0216H225.87H231.578L231.523 49.0569C231.469 36.3018 231.462 36.0706 231.099 34.7496C230.602 32.9446 229.397 30.5981 228.365 29.428C227.388 28.3211 225.44 26.9596 224.131 26.4698C221.879 25.627 218.587 25.3733 216.327 25.8682ZM300.15 25.9617C290.896 26.6759 284.281 33.8306 283.801 43.6445C283.396 51.912 287.619 59.0018 294.652 61.8646C299.058 63.6579 304.863 63.8383 309.335 62.321C313.038 61.0641 316.421 58.3383 318.214 55.1648C318.878 53.9909 319.687 51.8734 319.532 51.7181C319.476 51.6621 317.005 51.6163 314.041 51.6163H308.652L308.341 52.1617C307.225 54.1162 305.255 55.1432 302.63 55.1386C299.605 55.1336 297.202 53.6399 295.955 50.9899C295.462 49.9432 294.994 48.4342 294.99 47.8821C294.988 47.605 295.698 47.5884 307.563 47.5884C314.479 47.5884 320.166 47.5318 320.202 47.4625C320.357 47.1581 319.971 42.6536 319.661 41.1539C318.564 35.8464 316.268 31.9027 312.751 29.2821C310.384 27.5186 306.926 26.2085 304.13 26.017C303.394 25.9665 302.564 25.9051 302.287 25.8804C302.01 25.8558 301.049 25.8923 300.15 25.9617ZM335.93 25.9479C330.048 26.6858 325.891 29.3268 324.299 33.337C322.745 37.2524 323.693 42.1053 326.493 44.5712C328.559 46.3898 331.1 47.2903 337.118 48.3361C338.925 48.6501 340.883 49.0312 341.469 49.1831C344.239 49.9011 345.412 51.1638 345.099 53.0901C344.912 54.2448 343.95 55.1106 342.317 55.5933C341.028 55.9742 338.513 55.9561 337.104 55.5558C336.175 55.2917 335.865 55.096 335.006 54.2283C334.032 53.2464 333.663 52.5452 333.339 51.0685L333.238 50.6046L327.914 50.6489L322.59 50.6932L322.642 51.5323C322.671 51.9939 322.845 52.9345 323.029 53.6226C324.656 59.7089 330.96 63.3642 339.829 63.3642C348.538 63.3642 354.517 59.7268 355.649 53.7413C355.963 52.0764 355.962 51.0337 355.643 49.1628C355.083 45.8742 353.324 43.599 350.159 42.0669C348.027 41.0354 346.308 40.569 341.467 39.7089C337.242 38.9582 336.167 38.6825 335.134 38.0853C332.887 36.7865 333.95 33.9257 336.907 33.3117C337.972 33.0906 340.555 33.1881 341.527 33.4859C342.753 33.862 343.91 35.2481 344.227 36.7216L344.326 37.1831H349.524H354.723V36.6343C354.723 36.3324 354.567 35.5218 354.376 34.8328C353.096 30.2141 349.348 27.2207 343.565 26.1981C341.704 25.8693 337.623 25.7354 335.93 25.9479ZM175.687 30.6362V34.6657H178.036H180.385V48.4297V62.1939L186.048 62.1496L191.711 62.1055V44.3997V26.6939L183.699 26.6503L175.687 26.6068V30.6362ZM36.2048 34.0405C33.5842 34.8918 32.8976 38.1743 34.9611 39.9865C37.2203 41.9705 40.6861 40.3574 40.6575 37.3352C40.6357 35.0074 38.3761 33.3355 36.2048 34.0405ZM63.2043 34.0724C60.7386 34.9517 60.1506 38.2362 62.1454 39.988C63.3377 41.0351 64.898 41.1202 66.3234 40.2161C67.2713 39.6148 67.7956 38.6036 67.7956 37.3764C67.7956 36.2337 67.4983 35.5605 66.6587 34.8028C65.6244 33.8693 64.4626 33.6236 63.2043 34.0724ZM157.985 34.4066C159.336 35.068 160.405 36.18 161.144 37.6946C161.906 39.2539 162.218 40.4651 162.427 42.6724C162.837 47.0064 161.772 51.1289 159.71 53.1802C158.218 54.6652 156.253 55.2907 154.064 54.9775C150.307 54.4406 148.096 51.1829 147.739 45.6584C147.477 41.6101 148.435 37.9132 150.277 35.864C151.722 34.2569 152.847 33.8111 155.302 33.8734C156.769 33.9106 157.11 33.9783 157.985 34.4066ZM304.804 34.5506C306.6 35.3889 308.021 37.3301 308.478 39.5673L308.693 40.6236L301.898 40.6674C298.161 40.6915 295.074 40.6818 295.039 40.6459C294.902 40.5093 295.391 38.8985 295.912 37.7705C297.104 35.1868 299.164 33.9662 302.203 34.0412C303.547 34.0744 303.955 34.1543 304.804 34.5506ZM62.7462 61.573C61.6442 62.1548 61.03 63.1285 60.9527 64.4166C60.8745 65.7195 61.3546 66.7313 62.4006 67.4682C63.3451 68.1337 64.899 68.2647 65.8798 67.7618C67.1481 67.1114 67.7956 66.0506 67.7956 64.6229C67.7956 61.9652 65.094 60.3332 62.7462 61.573Z" fill="#020202"/>
</svg>
