<svg width="532" height="62" viewBox="0 0 532 62" fill="none" xmlns="http://www.w3.org/2000/svg">
<path fill-rule="evenodd" clip-rule="evenodd" d="M47.6872 0.18654C47.4605 0.413224 47.4605 59.3362 47.6872 59.5629C47.9125 59.7882 65.7057 59.7882 65.9309 59.5629C66.0498 59.4441 66.0866 56.6149 66.0866 47.6199C66.0866 34.6421 66.0854 34.6632 66.8825 33.0841C68.7598 29.3653 73.9858 29.3561 75.7434 33.0683C76.4613 34.5845 76.4671 34.7002 76.4671 47.5719C76.4671 56.6041 76.504 59.4441 76.6228 59.5629C76.8481 59.7882 94.6413 59.7882 94.8665 59.5629C94.9843 59.4451 95.0255 57.2568 95.0356 50.5773C95.0444 44.7779 95.0907 41.9256 95.1705 42.2664C95.8023 44.965 96.1623 46.0504 97.0211 47.8459C102.003 58.263 115.746 63.1956 128.26 59.0583C132.11 57.7858 136.158 55.0229 138.667 51.9552C139.768 50.6094 139.829 50.7325 136.906 48.404C135.535 47.3121 133.447 45.6472 132.267 44.7046C129.634 42.6011 129.798 42.6287 128.217 44.0246C124.438 47.3591 120.223 48.1483 116.302 46.2554C114.323 45.2996 111.994 42.2802 112.695 41.5787C112.814 41.4596 116.127 41.423 126.816 41.423H140.781L141.009 42.753C143.847 59.3327 160.43 66.5502 171.444 55.9989L173.006 54.5023V56.8221C173.006 58.7117 173.043 59.1953 173.208 59.4302L173.41 59.7186H182.394C189.209 59.7186 191.417 59.681 191.535 59.5629C191.653 59.445 191.695 57.1079 191.708 49.9285C191.718 44.7152 191.769 40.8586 191.822 41.3581C193.665 58.6964 211.227 66.9619 222.605 55.8455L224.13 54.3559V56.8815C224.13 58.6729 224.175 59.4525 224.285 59.5629C224.526 59.8036 242.337 59.7865 242.537 59.5453C242.634 59.4284 242.692 58.0057 242.715 55.166L242.75 50.9601L242.993 51.6738C246.293 61.3311 259.584 64.0631 268.236 56.8626C269.526 55.7892 269.804 55.9615 269.804 57.8342C269.804 58.8077 269.855 59.2156 270.006 59.4302L270.208 59.7186H279.214C288.114 59.7186 288.222 59.7155 288.36 59.4568C288.619 58.9727 288.458 30.8816 288.187 29.3167C287.21 23.6697 284.787 20.0283 280.299 17.4598C273.305 13.458 259.346 13.1935 248.108 16.8501C245.867 17.579 245.949 17.3424 246.824 20.5972C247.213 22.0427 247.759 24.1023 248.593 27.2712C249.332 30.08 249.228 30.009 251.477 29.2481C261.982 25.6943 269.911 27.5681 269.932 33.6092C269.934 34.3618 269.801 34.3879 268.006 33.9845C255.401 31.1506 245.745 34.2899 243.132 42.0718C243 42.4643 242.845 42.8409 242.788 42.9087C242.731 42.9765 242.685 33.4268 242.685 21.6871C242.685 5.25857 242.649 0.306434 242.529 0.18654C242.323 -0.0192535 224.764 -0.0400145 224.381 0.16513C224.136 0.296054 224.13 0.536362 224.13 9.48746C224.13 20.4825 224.226 20.0278 222.281 18.2391C216.474 12.8973 206.861 12.5466 200.395 17.4406C195.682 21.0072 192.503 27.1107 191.824 33.8972C191.771 34.4324 191.719 27.1233 191.709 17.6544C191.692 2.19231 191.67 0.417895 191.487 0.234679C191.167 -0.0850398 173.514 -0.0747891 173.249 0.245319C173.103 0.421009 173.059 2.12613 173.006 9.67093C172.928 20.7467 173.155 19.9013 170.806 17.8611C165.067 12.8773 155.642 12.6865 149.407 17.4277C144.907 20.8498 142.104 25.8635 140.998 32.4699L140.77 33.8323L140.66 33.1835C138.855 22.4821 133.123 16.1637 123.329 14.0812C120.033 13.3801 114.403 13.5711 110.982 14.4998C104.184 16.3455 98.3887 21.8982 96.0861 28.7718C95.7352 29.8191 95.5891 30.3576 95.1705 32.1455C95.0792 32.5358 95.0457 32.0811 95.0356 30.3133C94.9766 19.9614 89.4479 14.0931 79.7759 14.1161C74.9181 14.1278 71.6301 15.4352 68.0769 18.7684C65.9396 20.7735 66.0866 21.432 66.0866 9.85337C66.0866 2.62881 66.0492 0.304877 65.9309 0.18654C65.7057 -0.0387169 47.9125 -0.0387169 47.6872 0.18654ZM20.9168 14.1706C8.6066 15.7276 -0.00881665 25.3224 6.77106e-06 37.4655C0.0120741 54.0755 15.9769 64.901 32.4149 59.4456C35.3631 58.4673 35.3479 58.4837 35.1416 56.4747C34.7997 53.1447 38.5399 50.5904 41.5891 52.0718C42.3721 52.4523 42.5611 52.3359 43.5308 50.8759C45.1462 48.4443 45.3341 48.8095 41.2752 46.4909C30.3497 40.25 31.498 40.7435 30.6366 41.9193C26.2717 47.8781 18.7862 45.8036 17.9333 38.3985C16.9804 30.1252 25.9947 26.133 30.5145 32.8267C31.2928 33.9792 30.9263 34.1105 37.8549 30.198C45.4435 25.9128 44.7748 26.5312 43.7525 24.7439C39.3303 17.0129 30.5581 12.9513 20.9168 14.1706ZM365.304 14.1715C361.645 14.6481 357.618 16.9153 354.978 19.9855C354.484 20.5597 354.036 21.0345 353.983 21.0404C353.93 21.0464 353.886 19.7083 353.886 18.0669V15.0825H344.608H335.331V37.4006V59.7186H344.608H353.886L353.89 47.9433C353.892 41.3487 353.948 35.7535 354.016 35.226C354.734 29.7012 361.579 28.4577 363.698 33.4672L364.072 34.3513L364.107 47.035L364.143 59.7186H373.482H382.821L382.844 49.1759C382.856 43.3775 382.887 38.896 382.912 39.2172C383.966 52.7145 393.082 60.6821 407.475 60.6865C416.178 60.6892 422.61 57.757 427.425 51.5921L427.844 51.0562L426.061 49.6354C425.081 48.8539 422.832 47.0624 421.064 45.6542L417.85 43.0939L416.847 44.0183C412.181 48.3193 406.407 48.8872 402.722 45.4074C401.721 44.4624 400.468 42.5323 400.468 41.9359C400.468 41.8584 405.777 41.8123 414.727 41.8123C427.61 41.8123 428.994 41.7924 429.065 41.607C429.783 39.7381 428.61 31.1759 427.117 27.379C419.622 8.32212 390.084 9.94576 384.076 29.745C383.389 32.0099 383.211 32.976 382.907 36.103C382.883 36.3528 382.853 34.7471 382.841 32.5347C382.768 19.3223 376.461 12.7181 365.304 14.1715ZM507.712 14.1244C500.824 14.6816 495.381 17.5557 492.874 21.9596C492.651 22.3521 492.467 22.638 492.466 22.5949C492.465 22.482 494.361 16.2561 494.53 15.8202C494.837 15.028 495.473 15.0825 485.922 15.0825H477.172L476.978 15.7638C476.871 16.1385 476.578 17.2332 476.328 18.1967C475.286 22.1972 474.69 24.4828 474.059 26.8903C473.844 27.711 473.427 29.3061 473.133 30.4349C472.382 33.3153 472.465 33.2291 472.002 31.6059C471.781 30.8322 470.863 27.7467 469.962 24.7494C469.061 21.752 468.204 18.8909 468.058 18.3913C467.912 17.8918 467.743 17.337 467.683 17.1586C467.622 16.9802 467.45 16.4109 467.299 15.8935L467.025 14.9528H459.581H452.136L451.858 15.8935C451.705 16.4109 451.468 17.2138 451.332 17.6777C451.196 18.1415 450.73 19.7181 450.295 21.1811C449.861 22.6441 449.419 24.133 449.315 24.4899C447.998 28.9725 446.802 32.7552 446.749 32.5996C446.714 32.4926 446.649 32.259 446.606 32.0806C446.48 31.5592 444.392 23.3793 443.393 19.4942C442.888 17.5317 442.436 15.7508 442.389 15.5367L442.304 15.1474L433.388 15.1141C428.485 15.0958 424.473 15.1148 424.473 15.1565C424.473 15.1983 425.409 18.3371 426.553 22.1318C427.697 25.9265 428.745 29.4109 428.883 29.8747C429.021 30.3386 430.136 34.0464 431.361 38.1142C433.526 45.3064 433.752 46.0649 434.121 47.3594C434.544 48.8434 437.741 59.4288 437.864 59.7521L438 60.11L445.719 60.0765L453.438 60.043L453.607 59.5889C453.7 59.3391 453.981 58.4924 454.23 57.7074C454.48 56.9224 455.19 54.7036 455.808 52.7767C456.426 50.8498 457.184 48.485 457.491 47.5216C457.798 46.5581 458.386 44.7251 458.798 43.448L459.547 41.1263L459.906 42.2802C461.374 46.9988 463.416 53.535 464.177 55.9557C464.525 57.0619 464.949 58.434 465.12 59.005L465.431 60.043L473.234 60.0765L481.037 60.11L481.488 58.6492C481.886 57.3575 482.924 53.9698 483.665 51.544C483.806 51.0801 484.005 50.4233 484.106 50.0842C484.208 49.7453 484.378 49.1759 484.485 48.8191C484.592 48.4623 484.763 47.893 484.864 47.554C485.036 46.9818 491.005 27.3322 491.072 27.1182C491.089 27.0651 491.105 28.1453 491.108 29.5187C491.121 36.4617 494.417 40.0371 503.496 42.9587C505.575 43.6276 506.325 43.8399 509.074 44.5378C514.154 45.8275 515.56 46.8386 514.13 48.1744C512.229 49.9505 500.378 47.2505 495.816 44.0017C495.599 43.8471 495.382 43.7763 495.321 43.84C495.031 44.1409 489.089 54.29 489.147 54.384C489.665 55.2209 495.894 58.0908 499.407 59.1107C515.399 63.7533 528.821 59.3264 531.082 48.6629C533.078 39.2467 528.319 34.0765 514.329 30.4621C508.722 29.0135 507.856 28.6038 507.932 27.4348C508.093 24.9592 517.009 26.3136 523.773 29.8413C524.256 30.0935 524.671 30.2772 524.694 30.2496C524.716 30.2218 525.159 29.3817 525.678 28.3825C526.197 27.3834 526.723 26.3908 526.848 26.1767C526.972 25.9626 527.381 25.2035 527.757 24.4899C528.132 23.7762 528.9 22.339 529.462 21.296C530.702 18.9942 530.708 19.2407 529.402 18.529C523.564 15.3469 514.744 13.5556 507.712 14.1244ZM320.928 14.3911C316.253 14.7252 313.074 16.6017 310.468 20.5647C309.004 22.7899 308.731 22.4649 308.731 18.5033C308.731 16.7394 308.677 15.4852 308.596 15.3335C308.392 14.952 290.605 14.9388 290.26 15.3199C289.91 15.7073 289.932 59.1861 290.283 59.5039C290.659 59.8442 308.401 59.8323 308.583 59.4916C308.651 59.3637 308.732 56.1741 308.769 52.1928C308.823 46.4201 308.873 44.9185 309.045 44.0181C310.307 37.3936 313.621 34.5005 320.279 34.2108C321.8 34.1446 322.345 34.0751 322.517 33.9253C322.757 33.7164 322.881 15.0981 322.645 14.7452C322.501 14.5289 322.012 14.3011 321.747 14.3267C321.618 14.3392 321.249 14.3681 320.928 14.3911ZM408.618 27.5992C410.432 28.5539 411.698 30.5488 412.059 33.0213L412.13 33.5079H406.155H400.179L400.267 32.9228C400.969 28.2402 404.979 25.6843 408.618 27.5992ZM120.232 27.7434C122.882 28.4299 125.799 32.1322 124.672 33.3776C124.352 33.7312 113.217 33.7909 112.926 33.4406C111.934 32.245 114.502 28.6466 116.886 27.891C118.177 27.482 119.071 27.4426 120.232 27.7434ZM168.437 30.3398C173.497 31.3798 175.405 37.5036 171.829 41.2273C169.359 43.7999 165.387 43.9037 162.752 41.4647C157.974 37.0408 162.067 29.0305 168.437 30.3398ZM219.134 30.3298C224.252 31.4064 226.136 37.6238 222.453 41.2872C218.643 45.0779 212.221 42.9599 211.421 37.6482C210.755 33.2316 214.779 29.4137 219.134 30.3298ZM265.766 39.8737C268.865 40.5882 270.755 43.8476 269.817 46.861C268.299 51.741 261.703 52.1737 259.506 47.5375C257.595 43.5044 261.386 38.8638 265.766 39.8737ZM42.0817 55.674C39.6205 56.5894 38.1949 59.2951 39.0264 61.4725C39.2979 62.1835 39.1992 62.1876 40.4878 61.4126C42.4099 60.2565 44.6064 58.3928 45.7547 56.9433L46.1547 56.4387L45.8005 56.1563C44.926 55.4589 43.2458 55.241 42.0817 55.674Z" fill="#020202"/>
</svg>
