<svg width="390" height="130" viewBox="0 0 390 130" fill="none" xmlns="http://www.w3.org/2000/svg">
<path fill-rule="evenodd" clip-rule="evenodd" d="M53.834 0.294057C42.0537 1.74191 29.0888 7.79659 18.0324 17.1419C15.7948 18.9846 11.1222 23.5256 11.1222 23.7888C11.1222 23.9204 13.3598 26.2897 16.1239 29.0538L21.1255 34.1213L19.0196 36.4905C11.2538 45.2434 5.98886 54.128 2.8299 63.5391C0.855549 69.4621 0 74.3322 0 79.7946C0 84.7304 0.658114 88.745 2.17178 92.6279L2.76409 94.2073L17.4401 108.883C29.6811 121.124 32.4452 123.757 33.9588 124.744C37.1178 126.85 40.8032 128.298 44.8836 129.153C47.5818 129.746 53.834 129.943 56.7955 129.548C68.51 128.1 80.6193 122.572 91.215 113.753C93.9791 111.45 98.6517 107.041 98.6517 106.777C98.6517 106.646 96.3483 104.277 93.5842 101.447L88.5167 96.3133L90.0962 94.668C93.9791 90.5877 98.7175 84.0723 101.482 78.939C105.43 71.7656 107.997 63.9998 108.853 56.8921C109.182 53.799 108.984 47.2178 108.458 44.717C107.536 40.505 106.088 37.0828 103.917 33.7922C102.798 32.0811 100.56 29.7777 88.1877 17.3393L73.7091 2.86072L72.1954 2.26841C70.1553 1.41286 65.9433 0.425683 63.3766 0.162436C60.81 -0.100811 56.7955 -0.0350013 53.834 0.294057ZM66.2724 4.17695C67.3254 4.4402 69.0365 4.83507 69.9578 5.16413C71.6689 5.75643 71.7347 5.75643 74.433 8.45471C76.8022 10.8239 77.1313 11.153 76.539 11.0872C73.38 10.4949 68.3125 10.3632 64.3638 10.8897C51.728 12.4692 38.6973 18.8529 26.7195 29.3828C25.5349 30.4358 24.4819 31.3572 24.2845 31.4888C24.0871 31.6204 23.0341 30.7649 19.9409 27.6717L15.8606 23.5914L18.4931 21.288C29.4836 11.6795 41.593 5.6248 53.4391 3.9137C56.598 3.45302 63.6399 3.65046 66.2724 4.17695ZM83.515 25.1051C89.3064 25.9606 94.374 28.4615 98.1252 32.2127C101.811 35.8982 104.18 40.6366 105.299 46.5597C105.759 49.1921 105.759 55.1152 105.299 58.2083C103.785 67.751 99.3756 77.557 92.5312 86.5074C90.9518 88.6133 87.2005 93.0227 86.6082 93.4834C86.2791 93.7466 85.8842 93.4176 82.462 89.9954C80.3561 87.8894 78.645 86.1125 78.645 86.0467C78.645 85.9809 79.2373 85.257 79.9612 84.4672C91.8731 71.3049 97.4671 54.8519 93.5184 44.6511C91.9389 40.7024 88.6483 37.7409 84.3706 36.4247C82.1988 35.7666 78.3817 35.4375 75.5518 35.7666C71.2082 36.1614 65.8775 37.8725 60.7442 40.3734C55.6109 42.8742 50.9382 46.0332 46.3972 50.1135L44.3571 51.8904L40.4742 48.0075L36.5913 44.1246L38.2366 42.611C48.3058 33.1999 61.6655 26.4871 73.1168 24.9734C75.4202 24.776 81.3432 24.776 83.515 25.1051ZM29.0888 47.8101C27.6409 49.4554 25.7982 51.7588 24.8768 52.9434C13.9521 67.4878 8.95039 83.2826 10.9905 96.9056L11.1222 97.7612L8.42389 95.1287C5.85724 92.6278 5.72562 92.4304 5.19912 90.8509C0.0658126 76.1091 6.51535 55.7733 21.7178 38.7281L23.4948 36.7537L27.5751 40.834L31.6554 44.9144L29.0888 47.8101ZM80.4877 39.3862L81.0142 39.5178L80.8826 42.2819C80.7509 45.5725 80.2902 48.2708 79.6321 50.5742C77.5262 57.4844 73.6433 64.3946 67.9835 70.91L65.8117 73.4108L61.6656 69.2647L57.5194 65.1186L59.4279 63.0126C63.5083 58.5374 67.2595 53.3383 69.563 48.9289C70.8134 46.5597 72.4587 42.5452 72.9193 40.7024C73.1826 39.5836 73.1826 39.5836 74.1698 39.452C74.6963 39.3862 75.2886 39.3204 75.486 39.2546C76.0125 39.2546 80.027 39.2546 80.4877 39.3862ZM68.7074 42.2819C67.786 44.8486 65.7459 48.7973 63.7715 51.7588C61.5997 55.0494 60.0861 57.0237 57.0587 60.4459L54.9527 62.881L50.8066 58.7348L46.6605 54.5887L48.0425 53.3383C52.3203 49.5212 57.322 46.099 61.9288 43.7298C64.4296 42.4794 68.51 40.8341 69.1023 40.7682C69.1681 40.7682 69.0365 41.4264 68.7074 42.2819ZM131.755 44.7827C131.558 44.9802 131.492 50.4426 131.492 70.4493C131.492 94.7996 131.492 95.8526 131.887 96.1817C132.216 96.5107 133.269 96.5107 142.153 96.5107C147.55 96.5107 153.407 96.3791 155.118 96.3133C162.028 95.8526 167.359 93.615 171.439 89.5347C174.664 86.3099 176.704 81.8347 177.757 75.9117C178.218 73.016 178.218 66.9613 177.757 64.1314C176.046 54.5887 170.584 48.4024 161.831 45.9016C157.553 44.7169 157.224 44.6511 144.193 44.5853C134.519 44.5853 131.952 44.5853 131.755 44.7827ZM371.375 45.6383C371.178 45.8357 371.112 47.481 371.112 51.693V57.4844H368.611C366.966 57.4844 366.045 57.5502 365.847 57.7477C365.518 58.0767 365.518 64.9211 365.847 65.316C366.045 65.5134 366.966 65.5792 368.611 65.5792H371.112L371.178 77.2937C371.244 88.745 371.244 89.074 371.704 90.3903C372.955 94.0099 375.521 95.9842 379.668 96.5107C382.497 96.8398 386.512 96.7082 389.276 96.1817L389.868 96.0501L389.803 91.2458L389.737 86.4416L387.104 86.3099C384.274 86.1783 383.814 86.0467 383.485 85.4544C383.353 85.1911 383.287 81.2424 383.287 75.3852V65.7109L386.644 65.6451L390 65.5792V61.5647V57.5502L386.644 57.4844L383.287 57.4186V51.7588C383.287 48.2708 383.221 45.9674 383.09 45.7041C382.892 45.3093 382.563 45.3093 377.298 45.3093C373.152 45.4409 371.573 45.5067 371.375 45.6383ZM155.974 56.7605C159.988 57.8135 162.621 60.6434 163.674 64.7895C164.463 67.9485 164.463 73.2134 163.608 76.504C162.752 79.7288 160.778 82.2954 158.145 83.5458C155.842 84.6646 154.46 84.8621 149.722 84.9937L145.444 85.1253V70.6468V56.1682L150.051 56.2998C153.407 56.3656 155.052 56.4972 155.974 56.7605ZM196.185 57.0237C189.603 58.2083 184.536 62.5519 182.298 68.8698C179.337 77.1621 180.785 86.639 185.786 91.9697C188.419 94.7338 190.92 96.1817 194.737 97.1689C202.042 99.0116 209.873 97.103 215.073 92.233C216.323 91.1142 219.548 87.0339 219.548 86.639C219.548 86.1783 218.626 85.586 214.875 83.6775C212.572 82.4928 210.663 81.5057 210.597 81.5057C210.532 81.5057 210.137 82.098 209.742 82.8219C208.82 84.5988 206.912 86.5732 205.53 87.2971C201.384 89.3373 196.514 88.1526 194.408 84.5988C193.815 83.5458 193.223 81.7031 193.223 80.7159V79.992H206.385C216.323 79.992 219.548 79.9262 219.745 79.7288C220.074 79.3997 220.074 76.7672 219.679 74.1348C218.626 67.0929 215.665 62.0254 210.926 59.1955C209.347 58.2742 206.32 57.2212 204.345 56.8921C202.371 56.5631 198.159 56.6289 196.185 57.0237ZM239.423 56.7605C237.58 57.0237 236.066 57.3528 234.882 57.7477C228.235 59.8536 223.826 65.316 222.443 73.0818C221.917 76.0433 222.114 80.7817 222.838 83.6116C223.826 87.4287 225.273 89.9296 227.906 92.4304C230.209 94.6022 232.908 96.1159 236.527 97.103C237.58 97.4321 238.633 97.4979 241.331 97.4979C244.425 97.4979 244.885 97.4321 246.596 96.9056C250.019 95.8526 252.651 94.2732 255.02 91.7723C256.6 90.127 258.377 87.692 258.377 87.1655C258.377 86.9681 258.048 86.639 257.719 86.3757C256.337 85.5202 249.953 82.3612 249.624 82.3612C249.426 82.3612 249.097 82.8219 248.768 83.48C247.978 85.1911 246.925 86.3099 245.28 87.0997C244.03 87.692 243.635 87.8236 242.253 87.7578C240.41 87.7578 239.225 87.2971 237.712 85.9809C233.763 82.4929 233.5 72.8185 237.251 68.4092C239.62 65.6451 244.03 65.6451 246.86 68.3433C247.32 68.804 247.978 69.6596 248.307 70.2519C248.637 70.8442 249.031 71.3707 249.229 71.3707C249.69 71.5023 257.784 66.8297 257.916 66.369C257.982 65.9741 257.126 64.6579 255.876 63.0784C253.836 60.5776 249.821 58.1425 246.333 57.3528C244.556 56.8921 240.739 56.6289 239.423 56.7605ZM344.985 57.2212C342.813 57.616 340.839 58.4058 339.259 59.5904L338.009 60.5118L337.943 59.1955L337.877 57.8793L332.81 57.8135C328.334 57.7477 327.676 57.8135 327.347 58.1425C326.952 58.4716 326.952 59.4588 326.952 83.8091C326.952 103.224 327.018 109.147 327.216 109.344C327.611 109.739 338.667 109.739 338.996 109.344C339.193 109.147 339.259 107.172 339.259 101.841V94.6022L341.299 95.6552C344.063 97.0372 345.775 97.3663 348.999 97.2347C352.751 97.0372 354.988 96.3133 357.423 94.4706C360.845 91.9039 363.083 87.9552 364.333 82.4929C364.992 79.5971 364.992 74.5296 364.333 71.4365C363.478 67.3562 362.096 64.5921 359.595 61.9596C355.91 57.8793 350.513 56.234 344.985 57.2212ZM48.1742 61.1041C51.728 64.6579 51.9254 64.9211 51.6622 65.316C51.4647 65.5134 50.6092 66.5006 49.6878 67.5536C46.0024 71.7655 42.5802 76.8988 40.2768 81.6373C38.6315 84.9937 37.6443 87.7578 36.6571 91.509C35.4067 96.4449 35.4067 101.907 36.7887 105.724C39.3554 112.964 46.134 116.386 55.6109 115.267C64.7587 114.148 75.2886 108.883 84.3048 100.92L86.2133 99.209L90.0962 103.092L93.9791 106.975L92.3338 108.488C83.9099 116.32 72.6561 122.704 62.916 125.073C58.9673 126.06 56.2032 126.389 52.4519 126.389C47.4502 126.389 43.7648 125.731 39.8819 124.02C34.8802 121.848 30.2734 117.57 27.9042 112.832C24.9426 106.975 24.0871 99.7355 25.4033 91.9039C27.246 80.9792 33.3665 69.2647 42.3827 59.1955C43.3041 58.1425 44.1596 57.287 44.2255 57.287C44.2913 57.287 46.0682 58.9981 48.1742 61.1041ZM282.332 57.5502C279.765 57.9451 276.541 59.1297 274.435 60.5118L273.777 60.9724V59.5904C273.777 58.8006 273.645 58.1425 273.513 57.9451C273.316 57.7477 271.802 57.6818 267.919 57.6818C263.049 57.6818 262.523 57.6818 262.26 58.0767C261.93 58.4058 261.93 60.0511 261.93 77.1621C261.93 94.9971 261.931 95.8526 262.325 96.1817C262.654 96.5107 263.378 96.5107 268.117 96.5107C272.329 96.5107 273.579 96.4449 273.777 96.2475C273.908 96.0501 274.04 92.1672 274.04 84.204C274.106 73.1476 274.106 72.3579 274.501 71.6339C275.29 70.0544 276.672 69.3963 280.687 68.7382C282.201 68.475 283.714 68.2117 284.043 68.1459L284.636 68.0143V62.881C284.636 57.7477 284.57 57.1553 283.912 57.287C283.648 57.3528 282.99 57.4186 282.332 57.5502ZM287.729 58.0109C287.597 58.2083 287.531 58.5374 287.597 58.8665C287.663 59.1297 289.44 64.9211 291.546 71.6339C299.97 98.7483 299.509 97.1689 298.917 98.2218C298.39 99.2748 297.469 99.4723 294.178 99.4723C292.138 99.4723 291.085 99.5381 290.953 99.7355C290.756 99.9329 290.69 101.249 290.69 104.474C290.69 107.699 290.756 109.015 290.953 109.212C291.283 109.541 299.641 109.541 301.812 109.278C305.432 108.752 308.394 106.185 310.105 102.105C310.5 101.249 313.856 91.0484 317.607 79.4655C323.333 61.9596 324.452 58.34 324.188 58.0767C323.991 57.8135 323.004 57.7477 317.805 57.7477H311.684L311.487 58.669C311.355 59.1955 310.105 64.6579 308.657 70.91C307.209 77.1621 306.024 82.3612 305.893 82.427C305.827 82.4929 304.445 76.9647 302.931 70.1861L300.101 57.7477H293.981C288.913 57.7477 287.926 57.7477 287.729 58.0109ZM203.687 66.2374C205.661 67.1587 206.978 68.9356 207.373 71.1074L207.504 71.8972H200.462H193.421L193.552 71.2391C193.815 70.0544 194.934 68.1459 195.856 67.3562C197.435 65.9741 198.817 65.5134 200.989 65.6451C202.042 65.7109 202.832 65.9083 203.687 66.2374ZM348.934 66.5664C350.776 67.5536 352.158 69.5938 352.816 72.3579C353.277 74.398 353.277 79.2681 352.751 81.3082C352.29 83.0851 351.369 84.9279 350.381 86.1783C348.802 88.0869 345.709 88.6133 343.208 87.3629C340.312 85.9151 338.93 82.6903 338.93 77.2937C338.93 72.292 340.246 68.7382 342.681 66.9613C344.59 65.6451 346.893 65.5134 348.934 66.5664ZM61.0732 77.2279C55.6767 82.2954 48.7665 86.8364 43.0408 89.1398C41.8562 89.6005 40.8032 89.9954 40.7374 89.9954C40.6716 89.9954 40.9349 89.2715 41.2639 88.3501C43.7648 81.4399 48.1083 74.398 53.3075 68.804L54.5579 67.4878L58.704 71.5681L62.8502 75.6484L61.0732 77.2279ZM69.3655 82.3612L73.38 86.3757L72.1296 87.5603C65.5484 93.7466 55.4134 99.3406 48.24 100.854C46.463 101.249 42.5144 101.644 40.6058 101.644H39.3554V98.6167C39.3554 96.9714 39.4212 95.1945 39.487 94.7996L39.6186 94.0099L42.1853 93.1543C48.7006 91.0484 56.9929 85.8492 63.1134 80.0578C64.1006 79.1365 65.0219 78.3467 65.1536 78.3467C65.2852 78.3467 67.1937 80.1236 69.3655 82.3612Z" fill="#1D1D1B"/>
</svg>
