<svg width="338" height="75" viewBox="0 0 338 75" fill="none" xmlns="http://www.w3.org/2000/svg">
<g clip-path="url(#clip0_369_8503)">
<path d="M136.223 34.9721V24.8443H141.651C145.088 24.8443 147.179 26.79 147.179 29.9331C147.179 32.9765 145.088 34.9721 141.651 34.9721H136.223ZM142.498 40.9091C149.47 40.9091 154.102 36.3191 154.102 29.8833C154.102 23.4973 149.47 18.8574 142.498 18.8574H129.3V54.2299H136.173V40.9091H142.498Z" fill="white"/>
<path d="M165.289 39.8118C165.438 37.1177 167.082 35.0223 169.871 35.0223C173.058 35.0223 174.403 37.1676 174.403 39.9116V54.2302H181.027V38.7641C181.027 33.3759 178.139 29.0354 171.913 29.0354C169.572 29.0354 166.883 29.8337 165.289 31.7295V18.1094H158.665V54.2302H165.289V39.8118Z" fill="white"/>
<path d="M186.255 47.5448C186.255 51.3863 189.443 54.9286 194.672 54.9286C198.308 54.9286 200.649 53.2323 201.894 51.2866C201.894 52.2345 201.993 53.5815 202.143 54.2301H208.219C208.07 53.382 207.92 51.6358 207.92 50.3386V38.2651C207.92 33.3259 205.032 28.9355 197.262 28.9355C190.688 28.9355 187.152 33.1762 186.753 37.0178L192.63 38.2651C192.83 36.1198 194.423 34.2738 197.312 34.2738C200.101 34.2738 201.446 35.7207 201.446 37.4668C201.446 38.315 200.997 39.0135 199.603 39.213L193.577 40.111C189.493 40.7097 186.255 43.1544 186.255 47.5448ZM196.067 49.9894C193.925 49.9894 192.879 48.5925 192.879 47.1456C192.879 45.2498 194.224 44.3019 195.917 44.0524L201.446 43.2043V44.3019C201.446 48.6423 198.856 49.9894 196.067 49.9894Z" fill="white"/>
<path d="M221.221 40.1109C221.221 37.2671 222.914 35.022 225.803 35.022C228.991 35.022 230.335 37.1673 230.335 39.9113V54.2299H236.959V38.7638C236.959 33.3756 234.17 29.0352 228.094 29.0352C225.454 29.0352 222.516 30.1826 221.022 32.7271V29.6837H214.597V54.2299H221.221V40.1109Z" fill="white"/>
<path d="M251.85 22.3496H245.873V25.7921C245.873 27.9873 244.678 29.6835 242.088 29.6835H240.843V35.5706H245.276V46.9956C245.276 51.7352 248.264 54.579 253.045 54.579C254.988 54.579 256.183 54.2297 256.781 53.9803V48.4923C256.432 48.5921 255.535 48.6919 254.739 48.6919C252.846 48.6919 251.85 47.9934 251.85 45.8481V35.5706H256.781V29.6835H251.85V22.3496Z" fill="white"/>
<path d="M273.171 48.9417C269.933 48.9417 266.945 46.5469 266.945 41.957C266.945 37.3172 269.933 34.9723 273.171 34.9723C276.408 34.9723 279.396 37.3172 279.396 41.957C279.396 46.5968 276.408 48.9417 273.171 48.9417ZM273.171 28.9355C265.85 28.9355 260.321 34.3736 260.321 41.957C260.321 49.4905 265.85 54.9785 273.171 54.9785C280.492 54.9785 286.02 49.4905 286.02 41.957C286.02 34.3736 280.492 28.9355 273.171 28.9355Z" fill="white"/>
<path d="M297.873 54.229V39.8605C297.873 37.1664 299.566 35.0211 302.455 35.0211C305.443 35.0211 306.788 37.0168 306.788 39.661V54.229H313.362V39.8605C313.362 37.2163 315.055 35.0211 317.894 35.0211C320.932 35.0211 322.227 37.0168 322.227 39.661V54.229H328.652V38.3139C328.652 31.7284 324.319 28.9844 319.787 28.9844C316.55 28.9844 313.96 30.082 312.017 33.0754C310.772 30.4312 308.083 28.9844 304.746 28.9844C302.057 28.9844 298.919 30.2815 297.574 32.6763V29.6828H291.249V54.229H297.873Z" fill="white"/>
</g>
<g clip-path="url(#clip1_369_8503)">
<path d="M80.9463 68C98.0374 68 111.893 54.1208 111.893 37C111.893 19.8792 98.0374 6 80.9463 6C63.8551 6 50 19.8792 50 37C50 54.1208 63.8551 68 80.9463 68Z" fill="url(#paint0_linear_369_8503)"/>
<path d="M103.471 37.4428H97.9385C97.9385 26.23 88.7663 17.1406 77.4513 17.1406C66.2762 17.1406 57.1908 26.0074 56.9685 37.0282C56.7384 48.4201 67.5237 58.3125 79.021 58.3125H80.4671C90.6034 58.3125 104.189 50.4495 106.312 40.8689C106.704 39.1028 105.296 37.4428 103.471 37.4428ZM69.2295 37.9423C69.2295 39.4418 67.992 40.6681 66.4788 40.6681C64.9657 40.6681 63.7282 39.4412 63.7282 37.9423V33.5326C63.7282 32.0331 64.9657 30.8067 66.4788 30.8067C67.992 30.8067 69.2295 32.0331 69.2295 33.5326V37.9423ZM78.781 37.9423C78.781 39.4418 77.5435 40.6681 76.0304 40.6681C74.5173 40.6681 73.2797 39.4412 73.2797 37.9423V33.5326C73.2797 32.0331 74.5178 30.8067 76.0304 30.8067C77.5435 30.8067 78.781 32.0331 78.781 33.5326V37.9423Z" fill="url(#paint1_linear_369_8503)"/>
</g>
<defs>
<linearGradient id="paint0_linear_369_8503" x1="80.9463" y1="6" x2="80.9463" y2="68" gradientUnits="userSpaceOnUse">
<stop stop-color="#534BB1"/>
<stop offset="1" stop-color="#551BF9"/>
</linearGradient>
<linearGradient id="paint1_linear_369_8503" x1="81.6713" y1="17.1406" x2="81.6713" y2="58.3125" gradientUnits="userSpaceOnUse">
<stop stop-color="white"/>
<stop offset="1" stop-color="white" stop-opacity="0.82"/>
</linearGradient>
<clipPath id="clip0_369_8503">
<rect width="199.7" height="37.2969" fill="white" transform="translate(129.3 18.1094)"/>
</clipPath>
<clipPath id="clip1_369_8503">
<rect width="61.8925" height="62" fill="white" transform="translate(50 6)"/>
</clipPath>
</defs>
</svg>
