<svg xmlns="http://www.w3.org/2000/svg" xmlns:xlink="http://www.w3.org/1999/xlink" width="2201" height="1065" fill="none" xmlns:v="https://vecta.io/nano"><style><![CDATA[.B{fill:#fff}.C{opacity:.04}.D{color-interpolation-filters:sRGB}.E{flood-opacity:0}]]></style><g clip-path="url(#Aj)"><path d="M0-15.279h2200.29V1080.28H0V-15.279z" fill="#020202"/><g style="mix-blend-mode:hard-light" opacity=".41"><path d="M1672.28 620.559l-24.29 2.868 4.19-170.908 24.3-2.867-4.2 170.907z" fill="url(#F)"/><path d="M1651.44 656.043l-24.29 2.867c6-3.383 11.08-8.446 14.73-14.648 3.64-6.192 5.75-13.397 6.11-20.834l24.29-2.867c-.36 7.437-2.46 14.642-6.11 20.834-3.64 6.204-8.73 11.265-14.73 14.648z" fill="url(#G)"/><path d="M1651.44 656.043l-24.29 2.867c6-3.383 11.08-8.446 14.73-14.648 3.64-6.192 5.75-13.397 6.11-20.834l24.29-2.867c-.36 7.437-2.46 14.642-6.1 20.834-3.65 6.204-8.74 11.265-14.74 14.648z" fill="url(#G)"/><path d="M1609.11 575.811l-24.29 2.856 2.23-91.3 24.3-2.865-2.24 91.309z" fill="url(#H)"/><path d="M1581.77 465.077c-3.46-6.827-8.49-12.639-14.55-16.81l24.3-2.867c6.05 4.171 11.08 9.983 14.54 16.81 3.47 6.827 5.3 14.547 5.29 22.295l-24.29 2.867a49.23 49.23 0 0 0-5.29-22.295z" fill="url(#I)"/><path d="M1611.35 484.507l-24.29 2.867a49.23 49.23 0 0 0-5.29-22.295c-3.47-6.827-8.49-12.639-14.55-16.81l24.29-2.867c6.06 4.171 11.09 9.983 14.55 16.81a49.44 49.44 0 0 1 5.29 22.295z" fill="url(#J)"/><path d="M1578.77 600.604c3.84-6.517 5.93-14.114 6.04-21.925l24.3-2.867c-.11 7.814-2.21 15.408-6.05 21.925l-24.29 2.867z" fill="url(#K)"/><path d="M1587.39 612.735l-24.29 2.867c6.41-3.289 11.85-8.478 15.67-14.997 3.84-6.517 5.93-14.114 6.04-21.925l24.3-2.867c-.11 7.813-2.21 15.408-6.05 21.925-3.82 6.531-9.25 11.708-15.67 14.997z" fill="url(#L)"/><path d="M1563.09 615.605c6.42-3.289 11.85-8.478 15.68-14.997l2.85-.34 3.01-.357 3.13-.372 3.18-.372 3.17-.374 3.13-.372 3-.359 2.84-.331c-.01.012-.01.023-.02.033l-24.26 2.862 2.83-.333 3-.359 3.12-.372 3.18-.374 3.17-.374 3.12-.372 3-.359 2.83-.333c-3.84 6.517-9.26 11.685-15.66 14.965l-24.29 2.867-.01.023z" fill="url(#M)"/><path d="M1587.39 612.737l-24.29 2.867c6.41-3.289 11.84-8.478 15.67-14.997 3.84-6.517 5.93-14.114 6.04-21.925l24.3-2.867c-.11 7.813-2.21 15.408-6.05 21.925-3.83 6.531-9.26 11.708-15.67 14.997z" fill="url(#N)"/><path d="M1657.44 412.084l-24.29 2.867-136.69-93.604 24.29-2.867 136.69 93.604z" fill="url(#O)"/><path d="M1591.52 445.398l-24.3 2.868-71.88-48.891 24.29-2.868 71.89 48.891z" fill="url(#P)"/><path d="M1470.3 314.852l24.29-2.867a37.93 37.93 0 0 1 6.36-.201c6.97.365 13.8 2.691 19.8 6.695l-24.29 2.867c-6-4.004-12.84-6.318-19.8-6.695-2.12-.111-4.25-.042-6.36.201z" fill="url(#Q)"/><path d="M1520.75 318.479l-24.29 2.867c-6-4.004-12.84-6.318-19.8-6.695-2.12-.111-4.25-.042-6.36.201l24.29-2.867a37.93 37.93 0 0 1 6.36-.201c6.97.365 13.8 2.691 19.8 6.695z" fill="url(#Q)"/><path d="M1468.14 392.629l24.29-2.868c2.19-.262 4.4-.328 6.62-.211 7.22.38 14.34 2.798 20.58 6.957l-24.29 2.867c-6.24-4.17-13.36-6.577-20.59-6.957-2.21-.117-4.42-.039-6.61.212z" fill="url(#R)"/><path d="M1519.63 396.505l-24.29 2.867c-6.23-4.17-13.36-6.576-20.58-6.957-2.22-.117-4.43-.039-6.62.212l24.29-2.867c2.2-.263 4.4-.329 6.62-.212 7.23.38 14.35 2.798 20.58 6.957z" fill="url(#S)"/><path d="M1456.57 319.236a37.96 37.96 0 0 1 13.73-4.371l24.29-2.867a37.95 37.95 0 0 0-13.72 4.371l-24.3 2.867z" fill="url(#T)"/><path d="M1480.88 316.369l-24.29 2.867a37.95 37.95 0 0 1 13.72-4.371l24.29-2.867a37.95 37.95 0 0 0-13.72 4.371z" fill="url(#U)"/><path d="M1513.31 655.127l-24.3 2.865 74.09-42.391 24.29-2.867-74.08 42.393z" fill="url(#V)"/><path d="M1468.15 392.63l24.29-2.867c-4.97.581-9.81 2.119-14.27 4.556l-24.29 2.867a39.39 39.39 0 0 1 14.27-4.556z" fill="url(#W)"/><path d="M1478.17 394.319l-24.29 2.867a39.39 39.39 0 0 1 14.27-4.556l24.29-2.867c-4.97.581-9.81 2.119-14.27 4.556z" fill="url(#X)"/><path d="M1474.67 662.607a39.2 39.2 0 0 0 14.34-4.602l24.29-2.867c-4.48 2.469-9.35 4.026-14.34 4.602l-24.29 2.867z" fill="url(#Y)"/><path d="M1499 659.736l-24.29 2.867c4.98-.59 9.83-2.138 14.31-4.606l24.29-2.868c-4.47 2.458-9.33 4.017-14.31 4.607z" fill="url(#Z)"/><path d="M1498.01 737.995l-24.29 2.868a37.6 37.6 0 0 0 13.76-4.425l24.29-2.867a37.58 37.58 0 0 1-13.76 4.424z" fill="url(#a)"/><path d="M1498.01 737.997l-24.29 2.867a37.58 37.58 0 0 0 13.76-4.424l24.29-2.867a37.58 37.58 0 0 1-13.76 4.424z" fill="url(#b)"/><path d="M1467.4 741.055c-6.98-.367-13.82-2.695-19.79-6.729l24.29-2.867c5.98 4.036 12.83 6.364 19.79 6.729 2.12.111 4.24.04 6.34-.205l-24.29 2.867c-2.1.245-4.22.316-6.34.205z" fill="url(#c)"/><path d="M1498.01 737.992l-24.29 2.867a37.32 37.32 0 0 1-6.32.208c-6.98-.367-13.83-2.696-19.8-6.73l24.3-2.867c5.98 4.036 12.83 6.365 19.79 6.73a37.32 37.32 0 0 0 6.32-.208z" fill="url(#d)"/><path d="M1386.12 370.568l-24.31 2.865 94.77-54.197 24.3-2.865-94.76 54.197z" fill="url(#e)"/><use xlink:href="#Al" fill="url(#f)"/><use xlink:href="#Al" fill="url(#f)"/><path d="M1383.42 447.236l-24.3 2.865 94.76-52.913 24.29-2.867-94.75 52.915z" fill="url(#g)"/><path d="M1471.83 652.936l-24.3 2.865-71.91-48.846 24.29-2.856 71.92 48.837z" fill="url(#h)"/><path d="M1380.12 564.953l-24.29 2.867 1.41-57.459 24.29-2.867-1.41 57.459z" fill="url(#i)"/><path d="M1399.91 604.097l-24.29 2.867c-6.05-4.182-11.07-10.004-14.54-16.845-3.46-6.838-5.28-14.554-5.25-22.299l24.29-2.867c-.01 7.747 1.79 15.461 5.25 22.299s8.49 12.662 14.54 16.845z" fill="url(#j)"/><path d="M1399.91 604.097l-24.29 2.867c-6.05-4.182-11.07-10.004-14.54-16.845-3.46-6.838-5.28-14.554-5.26-22.299l24.3-2.867c-.01 7.747 1.79 15.461 5.25 22.299s8.49 12.662 14.54 16.845z" fill="url(#k)"/><path d="M1322.39 346.843l-24.29 2.867 62.73-35.549 24.29-2.855-62.73 35.537z" fill="url(#l)"/><path d="M1322.39 346.844l-24.29 2.867 1.41-57.604 24.29-2.867-1.41 57.604z" fill="url(#m)"/><path d="M1323.8 289.237l-24.29 2.867c.01-7.747-1.81-15.465-5.29-22.306-3.47-6.841-8.5-12.665-14.55-16.836l24.29-2.867c6.05 4.171 11.08 9.995 14.55 16.836s5.29 14.556 5.29 22.306h0z" fill="url(#n)"/><path d="M1323.8 289.241l-24.29 2.867c.01-7.748-1.82-15.465-5.29-22.306s-8.5-12.665-14.55-16.836l24.29-2.867c6.05 4.171 11.08 9.995 14.55 16.836 3.46 6.838 5.29 14.556 5.29 22.306" fill="url(#o)"/><path d="M1321.86 405.769l-24.31 2.865 64.26-35.202 24.31-2.865-64.26 35.202z" fill="url(#p)"/><path d="M1471.9 731.462l-24.31 2.865-135.4-92.396 24.3-2.853 135.41 92.384z" fill="url(#q)"/><path d="M1318.9 543.061l-24.29 2.856 62.62-35.557 24.3-2.868-62.63 35.569z" fill="url(#r)"/><path d="M1317.47 601.512l-24.29 2.867 1.43-58.459 24.29-2.856-1.43 58.448z" fill="url(#s)"/><path d="M1297.9 625.981a44.46 44.46 0 0 1-4.72-21.603l24.29-2.867a44.54 44.54 0 0 0 4.72 21.603c3.37 6.638 8.3 12.141 14.29 15.949l-24.29 2.867c-5.99-3.808-10.93-9.324-14.29-15.949z" fill="url(#t)"/><path d="M1336.49 639.077l-24.29 2.867c-5.99-3.808-10.93-9.325-14.29-15.949a44.46 44.46 0 0 1-4.72-21.603l24.29-2.867a44.54 44.54 0 0 0 4.72 21.603c3.37 6.638 8.3 12.141 14.29 15.949z" fill="url(#t)"/><path d="M1367.57 215.338l-24.31 2.865-133.15-92.286 24.29-2.867 133.17 92.288z" fill="url(#u)"/><path d="M1303.97 250.101l-24.3 2.865-71.87-48.84 24.3-2.864 71.87 48.839z" fill="url(#v)"/><path d="M1183.99 119.383l24.29-2.868c2.1-.245 4.21-.318 6.33-.207 6.96.365 13.81 2.693 19.79 6.741l-24.29 2.867c-5.98-4.036-12.82-6.362-19.79-6.741a37.47 37.47 0 0 0-6.33.208h0z" fill="url(#w)"/><path d="M1234.4 123.049l-24.29 2.867c-5.98-4.036-12.82-6.362-19.79-6.741a37.47 37.47 0 0 0-6.33.208l24.3-2.868c2.09-.245 4.2-.318 6.32-.207 6.97.365 13.81 2.693 19.79 6.741z" fill="url(#w)"/><path d="M1207.8 204.125c-6.22-4.192-13.32-6.619-20.55-7.011l2.85-.34 1.49-.17 3.07-.357 3.16-.377 3.19-.372 3.16-.376 1.55-.182 3-.36 1.43-.168c.44-.048.98-.244 1.39-.165 7.23.392 14.33 2.819 20.55 7.011-7.28.855-17.17 4.595-24.29 2.867h0z" fill="url(#x)"/><use xlink:href="#Am" fill="url(#y)"/><path d="M1187.25 197.118l-.03-.007 2.85-.34 3.01-.357 3.12-.372 3.19-.372 3.17-.374 3.12-.372 3-.359 2.84-.331c.01.003.03.005.04.007l-24.3 2.867-.01.01z" fill="url(#z)"/><use xlink:href="#Am" fill="url(#y)"/><path d="M1187.21 197.12a38.89 38.89 0 0 0-6.55.211l24.29-2.867c2.17-.255 4.36-.324 6.55-.211l-12.13 1.424-4.75.563-4.56.54-2.85.34h0z" fill="url(#AA)"/><path d="M1232.1 201.257l-24.29 2.867c-6.23-4.194-13.35-6.623-20.59-7.006-2.19-.113-4.38-.044-6.55.211l24.29-2.867c2.17-.255 4.36-.324 6.56-.211 7.24.383 14.35 2.812 20.58 7.006z" fill="url(#AB)"/><path d="M1170.24 123.812a37.49 37.49 0 0 1 13.74-4.43l24.29-2.867c-4.78.569-9.44 2.057-13.73 4.43l-24.3 2.867h0z" fill="url(#AC)"/><path d="M1194.53 120.949l-24.29 2.867c4.3-2.37 8.97-3.871 13.76-4.425l24.29-2.867c-4.79.566-9.46 2.054-13.76 4.425" fill="url(#AD)"/><path d="M1226.96 459.94l-24.3 2.853 94.9-54.159 24.3-2.865-94.9 54.171z" fill="url(#AE)"/><path d="M1180.65 197.327l24.29-2.867c-4.98.59-9.85 2.147-14.33 4.604l-24.29 2.868a39.24 39.24 0 0 1 14.33-4.605z" fill="url(#AF)"/><path d="M1190.62 199.066l-24.29 2.868c4.48-2.458 9.33-4.017 14.33-4.605l24.29-2.867c-4.98.59-9.85 2.147-14.33 4.604z" fill="url(#AG)"/><path d="M1224.26 536.944l-24.31 2.854 94.91-53.056 24.29-2.867-94.89 53.069z" fill="url(#AH)"/><path d="M1188.28 467.424c5-.586 9.88-2.141 14.37-4.619l24.3-2.867c-4.5 2.478-9.38 4.033-14.38 4.619l-24.29 2.867z" fill="url(#AI)"/><path d="M1212.61 464.553l-24.29 2.867c4.99-.588 9.86-2.145 14.34-4.614l24.29-2.867c-4.48 2.469-9.36 4.023-14.34 4.614z" fill="url(#AJ)"/><path d="M1210.51 541.361l-24.29 2.867c4.78-.569 9.46-2.055 13.74-4.416l24.3-2.867c-4.3 2.359-8.96 3.847-13.75 4.416h0z" fill="url(#AK)"/><path d="M1210.51 541.361l-24.29 2.867c4.79-.569 9.46-2.055 13.75-4.416l24.29-2.867c-4.3 2.359-8.96 3.847-13.75 4.416" fill="url(#AK)"/><path d="M1186.22 544.215a36.08 36.08 0 0 1-6.3.2l2.85-.34 3.02-.357 3.12-.372 3.18-.372 3.18-.374 3.12-.372 3-.359 2.84-.331c2.11.109 4.22.036 6.3-.2l-24.29 2.867-.02.01z" fill="url(#AL)"/><use xlink:href="#An" fill="url(#AM)"/><path d="M1204.21 541.56l-24.29 2.867 24.26-2.862.03.007v-.012z" fill="url(#AN)"/><use xlink:href="#An" fill="url(#AM)"/><path d="M1179.88 544.42c-6.96-.365-13.81-2.693-19.79-6.729l24.29-2.867c6 4.038 12.83 6.364 19.8 6.729l-24.26 2.863c-.01-.003-.02-.005-.03-.007l-.01.011z" fill="url(#AO)"/><path d="M1210.51 541.358l-24.29 2.867a37.54 37.54 0 0 1-6.33.207c-6.96-.365-13.81-2.693-19.79-6.729l24.29-2.867c6 4.038 12.83 6.364 19.8 6.729 2.12.111 4.23.038 6.32-.207z" fill="url(#AP)"/><path d="M1116.53 240.152l-24.29 2.867 74.09-41.094 24.29-2.856-74.09 41.083z" fill="url(#AQ)"/><path d="M1185.48 457.747l-24.31 2.864-73.07-50.139 24.3-2.867 73.08 50.142z" fill="url(#AR)"/><use xlink:href="#Ao" fill="url(#AS)"/><use xlink:href="#Ao" fill="url(#AS)"/><path d="M1092.6 368.473l-24.29 2.867 2.24-91.346 24.29-2.867-2.24 91.346z" fill="url(#AT)"/><path d="M1112.39 407.607l-24.29 2.867c-6.04-4.169-11.07-9.993-14.53-16.831-3.47-6.841-5.28-14.556-5.26-22.302l24.29-2.867c-.01 7.748 1.79 15.461 5.27 22.302 3.46 6.838 8.47 12.66 14.52 16.831h0z" fill="url(#AU)"/><path d="M1112.39 407.609l-24.29 2.867c-6.04-4.169-11.07-9.993-14.53-16.831-3.47-6.841-5.28-14.556-5.26-22.302l24.29-2.867c-.01 7.748 1.79 15.461 5.27 22.302 3.46 6.838 8.47 12.66 14.52 16.831" fill="url(#AV)"/><path d="M1054.85 198.541l-24.3 2.865 139.69-77.596 24.3-2.867-139.69 77.598z" fill="url(#AW)"/><path d="M1015.45 215.897c3.68-6.292 8.9-11.294 15.1-14.491l24.29-2.867c-6.2 3.197-11.42 8.198-15.1 14.491l-24.29 2.867h0z" fill="url(#AX)"/><path d="M1034.02 234.169l-24.29 2.868c.08-7.541 2.06-14.844 5.73-21.138 3.69-6.293 8.9-11.294 15.1-14.491l24.3-2.868c-6.21 3.198-11.42 8.199-15.11 14.492-3.67 6.294-5.65 13.597-5.73 21.137z" fill="url(#AY)"/><path d="M1009.71 237.034c.08-7.541 2.06-14.844 5.74-21.138l2.85-.34 3.01-.357 3.12-.372 3.19-.372 3.17-.374 3.12-.372 3-.359 2.84-.331c0 .012 0 .024-.02.033l-24.21 2.857 2.82-.332 3-.348 3.11-.362 3.17-.375 3.17-.374 3.11-.362 3-.348 2.83-.333c-3.67 6.283-5.64 13.577-5.72 21.106l-24.29 2.867-.01-.014z" fill="url(#AZ)"/><path d="M1034.02 234.169l-24.3 2.868c.08-7.541 2.06-14.844 5.74-21.138s8.89-11.294 15.1-14.491l24.29-2.868c-6.2 3.198-11.42 8.199-15.1 14.492s-5.66 13.597-5.73 21.137z" fill="url(#Aa)"/><path d="M1184.38 534.825l-24.3 2.865-135.54-92.132 24.3-2.867 135.54 92.134z" fill="url(#Ab)"/><path d="M1024.54 445.558c-5.99-3.796-10.93-9.325-14.29-15.949l2.86-.34 3.01-.357 3.12-.372 3.19-.372 3.17-.374 3.12-.372 3-.359 2.84-.331s.01.026.02.04l-24.26 2.862 2.83-.333c.44-.058 1.04-.124 1.48-.17l3.08-.357 3.14-.368 3.19-.371 1.58-.188 3.13-.371 3-.36 1.44-.167c.43-.049.98-.245 1.38-.165 3.36 6.612 8.29 12.127 14.28 15.92l-24.3 2.868-.01-.014z" fill="url(#Ac)"/><use xlink:href="#Ap" fill="url(#Ad)"/><path d="M1029.82 405.14l-24.3 2.865 4.19-170.968 24.31-2.865-4.2 170.968z" fill="url(#Ae)"/><path d="M1010.25 429.608c-3.36-6.638-5-14.089-4.73-21.605l24.29-2.867c-.27 7.516 1.37 14.967 4.74 21.605l-24.3 2.867z" fill="url(#Af)"/><use xlink:href="#Ap" fill="url(#Ad)"/><path d="M1657.45 412.084c5.98 3.817 10.92 9.334 14.29 15.961 3.35 6.622 4.99 14.075 4.75 21.595l-4.2 170.92c-.36 7.437-2.46 14.63-6.11 20.834s-8.73 11.265-14.73 14.648l-139.68 77.514c-6.17 3.398-13.11 5-20.07 4.635s-13.82-2.696-19.79-6.73l-135.4-92.396c-5.99-3.808-10.93-9.324-14.29-15.949-3.36-6.636-4.99-14.087-4.73-21.603l1.44-58.447 62.62-35.558-1.41 57.448c-.02 7.746 1.8 15.464 5.25 22.3 3.47 6.838 8.48 12.66 14.53 16.842l71.92 48.838c6.23 4.205 13.35 6.634 20.6 7.019 7.24.382 14.46-1.272 20.89-4.813l74.08-42.393c6.42-3.289 11.85-8.478 15.67-14.997 3.84-6.517 5.93-14.114 6.05-21.925l2.24-91.31c.02-7.745-1.81-15.454-5.29-22.294-3.46-6.827-8.49-12.639-14.54-16.81l-71.89-48.891c-6.23-4.171-13.35-6.577-20.58-6.957s-14.45 1.263-20.89 4.767l-94.75 52.915-64.27 36.64-94.9 53.07c-6.17 3.398-13.1 4.988-20.08 4.621-6.97-.368-13.81-2.694-19.79-6.73l-135.55-92.134c-5.99-3.796-10.93-9.325-14.29-15.949-3.36-6.639-5-14.089-4.73-21.605l4.2-170.992c.07-7.54 2.06-14.843 5.73-21.138 3.68-6.292 8.9-11.293 15.1-14.491l139.69-77.598c6.17-3.398 13.1-5 20.07-4.635 6.96.366 13.81 2.694 19.79 6.742l133.17 92.288c5.99 3.807 10.9 9.331 14.26 15.944 3.36 6.636 4.98 14.096 4.73 21.603l-1.44 58.41-62.73 35.549 1.41-57.604c.01-7.748-1.81-15.466-5.29-22.307-3.47-6.84-8.5-12.664-14.55-16.835l-71.87-48.84c-6.23-4.194-13.35-6.623-20.59-7.005s-14.46 1.283-20.88 4.815l-74.09 41.095c-6.42 3.312-11.84 8.503-15.67 15.034s-5.9 14.118-6.02 21.941l-2.24 91.347c-.02 7.746 1.8 15.463 5.26 22.302s8.49 12.662 14.53 16.831l73.07 50.139c6.23 4.194 13.35 6.623 20.59 7.006s14.47-1.284 20.9-4.825l94.9-54.171 64.26-35.201 94.76-54.209c6.18-3.361 13.13-4.946 20.08-4.572s13.8 2.691 19.8 6.695l136.69 93.604.01.002z" fill="url(#Ag)"/><path d="M1657.45 412.084c5.98 3.817 10.92 9.334 14.29 15.961 3.35 6.622 4.99 14.075 4.75 21.595l-4.2 170.92c-.36 7.437-2.46 14.63-6.11 20.834s-8.73 11.265-14.73 14.648l-139.68 77.514c-6.17 3.398-13.11 5-20.07 4.635-6.97-.365-13.82-2.696-19.79-6.73l-135.4-92.396c-5.99-3.808-10.94-9.324-14.29-15.949-3.36-6.636-4.99-14.087-4.73-21.603l1.43-58.447 62.63-35.558-1.41 57.448c-.02 7.746 1.8 15.464 5.25 22.3 3.46 6.838 8.48 12.66 14.53 16.842l71.92 48.838c6.23 4.205 13.35 6.634 20.6 7.019 7.24.382 14.46-1.272 20.89-4.813l74.08-42.393c6.42-3.289 11.85-8.478 15.67-14.997 3.84-6.517 5.93-14.114 6.05-21.925l2.24-91.31c.02-7.745-1.81-15.454-5.29-22.294-3.46-6.827-8.49-12.639-14.54-16.81l-71.89-48.891c-6.23-4.171-13.36-6.577-20.58-6.957-7.23-.38-14.45 1.263-20.89 4.767l-94.75 52.915-64.27 36.64-94.9 53.07c-6.17 3.398-13.1 4.988-20.08 4.621-6.97-.368-13.81-2.694-19.79-6.73l-135.55-92.134c-5.99-3.796-10.93-9.325-14.29-15.949-3.37-6.639-5-14.089-4.73-21.605l4.2-170.992c.07-7.54 2.05-14.843 5.73-21.138s8.9-11.293 15.1-14.491l139.68-77.598c6.18-3.398 13.11-5 20.08-4.635 6.96.366 13.81 2.694 19.79 6.742l133.17 92.288c5.99 3.807 10.9 9.331 14.26 15.944 3.36 6.636 4.98 14.096 4.73 21.603l-1.44 58.41-62.73 35.549 1.41-57.604c.01-7.748-1.81-15.466-5.29-22.307-3.47-6.84-8.5-12.664-14.55-16.835l-71.87-48.84c-6.23-4.194-13.35-6.623-20.59-7.005s-14.46 1.283-20.88 4.815l-74.09 41.095c-6.42 3.312-11.84 8.503-15.67 15.034s-5.9 14.118-6.02 21.941l-2.24 91.347c-.02 7.746 1.8 15.463 5.26 22.302s8.49 12.662 14.53 16.831l73.07 50.139c6.23 4.194 13.35 6.623 20.59 7.006s14.46-1.284 20.89-4.825l94.91-54.171 64.25-35.201 94.77-54.209c6.17-3.361 13.13-4.946 20.08-4.572s13.8 2.691 19.8 6.695l136.69 93.604.01.002z" fill="url(#Ag)"/><path opacity=".57" d="M1672.28 620.555l-.22 2.78-.37 2.747-.54 2.704-.69 2.651-.85 2.608-1 2.529-1.14 2.453-1.3 2.363-1.44 2.275-1.56 2.154-1.69 2.043-1.8 1.913-1.91 1.783-2.02 1.641-2.11 1.502-2.21 1.337-139.66 77.528-2.35 1.188-2.42 1.019-2.47.851-2.51.671-2.54.497-2.58.309-2.6.136-2.62-.051-2.6-.229-2.59-.408-2.56-.584-2.51-.769-2.47-.93-2.43-1.102-2.35-1.271-2.28-1.436-135.4-92.385-2.2-1.518-2.09-1.654-1.98-1.804-1.86-1.949-1.74-2.071-1.62-2.204-1.47-2.321-1.33-2.439-1.18-2.519-1.02-2.596-.85-2.648-.67-2.71-.52-2.741-.34-2.779-.16-2.803.01-2.809 1.43-58.448 62.62-35.569-1.41 57.46.08 2.897.26 2.896.41 2.864.59 2.827.74 2.796.9 2.732 1.07 2.678 1.21 2.609 1.37 2.508 1.52 2.415 1.64 2.307 1.77 2.184 1.9 2.066 1.99 1.927 2.13 1.794 2.22 1.632 71.92 48.849 2.37 1.492 2.45 1.327 2.52 1.143 2.57.974 2.61.801 2.67.605 2.69.427 2.7.248 2.72.046 2.7-.139 2.68-.337 2.66-.512 2.61-.7 2.57-.879 2.51-1.061 2.45-1.243 74.08-42.392 2.36-1.319 2.26-1.496 2.16-1.651 2.03-1.819 1.91-1.964 1.79-2.109 1.65-2.257 1.52-2.38 1.35-2.498 1.19-2.577 1.02-2.671.86-2.727.66-2.8.5-2.846.32-2.892.13-2.916 2.25-91.31-.09-2.899-.25-2.894-.42-2.867-.58-2.827-.74-2.796-.92-2.734-1.07-2.678-1.22-2.6-1.38-2.508-1.5-2.412-1.65-2.295-1.77-2.187-1.89-2.052-2.01-1.929-2.12-1.782-2.23-1.645-71.88-48.891-2.38-1.48-2.44-1.3-2.53-1.147-2.57-.973-2.62-.778-2.65-.614-2.68-.425-2.72-.239-2.7-.043-2.7.139-2.68.325-2.66.512-2.61.688-2.57.868-2.51 1.061-2.44 1.219-94.75 52.915-64.28 36.64-94.89 53.07-2.35 1.188-2.41 1.007-2.47.851-2.51.672-2.55.497-2.58.308-2.59.136-2.62-.038-2.61-.23-2.58-.419-2.55-.582-2.52-.771-2.47-.93-2.42-1.1-2.35-1.271-2.29-1.439-135.55-92.134-2.19-1.493-2.09-1.668-1.98-1.801-1.86-1.949-1.75-2.073-1.6-2.202-1.48-2.322-1.33-2.439-1.18-2.518-1.01-2.596-.85-2.66-.69-2.701-.51-2.739-.34-2.779-.17-2.793.02-2.819 4.19-170.968.12-2.811.29-2.789.47-2.741.63-2.698.81-2.628.97-2.571 1.14-2.49 1.31-2.41 1.45-2.295 1.58-2.173 1.72-2.039 1.85-1.892 1.96-1.76 2.07-1.595 2.19-1.451 2.28-1.286 139.68-77.598 2.35-1.188 2.42-1.019 2.46-.851 2.51-.674 2.55-.483 2.58-.32 2.6-.136 2.6.048 2.61.23 2.58.407 2.57.585 2.51.768 2.47.93 2.42 1.114 2.35 1.269 2.28 1.427 133.17 92.288 2.19 1.504 2.09 1.666 1.98 1.804 1.86 1.949 1.74 2.071 1.61 2.201 1.47 2.322 1.33 2.427 1.18 2.53 1.01 2.594.85 2.649.67 2.698.52 2.752.33 2.777.17 2.794-.01 2.809-1.43 58.41-62.73 35.549 1.41-57.604-.08-2.897-.26-2.885-.42-2.867-.58-2.838-.74-2.784-.91-2.744-1.08-2.68-1.21-2.598-1.37-2.52-1.52-2.414-1.64-2.307-1.78-2.187-1.9-2.054-2.01-1.929-2.11-1.792-2.22-1.644-71.87-48.84-2.38-1.494-2.45-1.312-2.52-1.158-2.57-.974-2.62-.789-2.66-.614-2.68-.428-2.72-.239-2.71-.045-2.7.141-2.69.323-2.64.526-2.62.688-2.57.88-2.5 1.061-2.45 1.242-74.09 41.083-2.35 1.333-2.27 1.495-2.15 1.663-2.04 1.83-1.91 1.965-1.8 2.121-1.64 2.245-1.51 2.382-1.35 2.499-1.19 2.588-1.02 2.671-.83 2.731-.68 2.798-.5 2.846-.31 2.894-.14 2.915-2.24 91.346.09 2.9.24 2.893.41 2.865.59 2.839.75 2.786.89 2.741 1.08 2.68 1.21 2.598 1.38 2.52 1.51 2.415 1.63 2.304 1.78 2.175 1.89 2.063 2.01 1.93 2.12 1.782 2.21 1.642 73.08 50.142 2.38 1.492 2.45 1.326 2.51 1.144 2.57.973 2.62.801 2.67.617 2.69.427 2.7.237 2.71.045 2.71-.139 2.68-.337 2.65-.511 2.61-.703 2.57-.879 2.52-1.07 2.44-1.231 94.9-54.17 64.26-35.202 94.77-54.197 2.34-1.177 2.42-1.007 2.47-.837 2.52-.671 2.54-.486 2.58-.32 2.61-.134 2.6.048 2.6.228 2.58.407 2.56.596 2.52.757 2.47.93 2.42 1.091 2.36 1.259 2.28 1.425 136.7 93.606 2.19 1.505 2.08 1.666 1.99 1.803 1.86 1.949 1.74 2.083 1.6 2.202 1.49 2.323 1.32 2.439 1.18 2.519 1.01 2.582.86 2.648.68 2.713.52 2.741.34 2.779.17 2.793-.01 2.821-4.19 170.907z" fill="url(#Ah)"/></g><g filter="url(#A)"><g filter="url(#B)"><ellipse cx="1769.03" cy="1468.36" rx="1233.54" ry="1164.77" fill="url(#Ai)"/></g><g filter="url(#C)"><ellipse cx="945.392" cy="1148.68" rx="934.392" ry="883.675" fill="#5578f8"/></g><g filter="url(#D)"><ellipse cx="1100.43" cy="1101.73" rx="799.434" ry="754.734" fill="#733ff1"/></g></g><g opacity=".2" filter="url(#E)" class="B"><path d="M1424.63 1041.76c0 341.73-115.37 556.49-762.314 787.87C337.204 1884.04 115 1383.49 115 1041.76S408.17 423 769.813 423s654.817 277.029 654.817 618.76z" fill-opacity=".9"/></g><g style="mix-blend-mode:hard-light" clip-path="url(#Ak)"><g class="B C"><path d="M1027.52 787.304l10.97 15.773c-1.34 5.315-4.04 10.366-7.87 14.677a38.6 38.6 0 0 1-3.1 3.101l-10.96-15.773c1.09-.973 2.12-2.006 3.1-3.102 3.82-4.305 6.53-9.359 7.86-14.676z"/><path d="M1016.55 805.075l10.97 15.773c-1.38 1.228-2.84 2.353-4.38 3.365l-10.96-15.773c1.54-1.012 3-2.142 4.37-3.365z"/><path d="M1012.18 808.439l10.96 15.773c-1.28.849-2.62 1.618-4 2.302l-10.96-15.773c1.38-.684 2.72-1.457 4-2.302z"/><path d="M1008.18 810.745l10.96 15.773-2.5 1.133-10.96-15.773 2.5-1.133z"/></g><path d="M1005.67 811.88l10.97 15.773-64.428 26.028-10.966-15.769 64.424-26.032z" class="B C"/><g class="B C"><path d="M941.247 837.914l10.964 15.774-1.084.413-10.964-15.773 1.084-.414z"/><path d="M940.166 838.324l10.963 15.773c-1.404.507-2.831.934-4.264 1.27l-10.964-15.774a38.22 38.22 0 0 0 4.265-1.269z"/><path d="M935.898 839.59l10.964 15.773c-1.55.364-3.114.629-4.678.788l-10.964-15.773a35.92 35.92 0 0 0 4.678-.788z"/><path d="M931.218 840.379l10.964 15.773a34.91 34.91 0 0 1-5.696.119l-10.963-15.773c1.886.117 3.789.076 5.695-.119z"/><path d="M925.523 840.495l10.964 15.773-1.151-.09c-5.589-.539-10.783-2.459-15.08-5.571l-10.963-15.773c4.296 3.112 9.49 5.032 15.079 5.571a27.72 27.72 0 0 0 1.151.09z"/></g><path d="M1041.85 723.307l10.96 15.773-14.33 63.996-10.96-15.771 14.33-63.998z" class="B C"/><g class="B C"><path d="M1095.85 677.724l10.96 15.774c-.91-1.312-1.94-2.534-3.08-3.664l-10.96-15.773c1.14 1.128 2.16 2.356 3.08 3.663"/><path d="M1092.77 674.059l10.96 15.773c-.88-.881-1.83-1.7-2.84-2.455l-10.96-15.773c1.01.757 1.96 1.576 2.84 2.455"/></g><g class="B C"><path d="M769.836 891.246l10.964 15.773c-1.338 5.313-4.046 10.368-7.872 14.679a38.03 38.03 0 0 1-3.116 3.117l-10.964-15.774a38.82 38.82 0 0 0 3.116-3.116c3.826-4.311 6.534-9.366 7.872-14.679"/><path d="M758.847 909.038l10.964 15.773c-1.379 1.232-2.852 2.359-4.392 3.38l-10.964-15.773c1.545-1.02 3.013-2.148 4.392-3.38"/><path d="M754.457 912.419l10.964 15.773c-1.286.85-2.629 1.621-4.009 2.31l-10.964-15.773c1.38-.689 2.723-1.46 4.009-2.31"/><path d="M750.447 914.729l10.964 15.773-2.459 1.117-10.964-15.774 2.459-1.116z"/></g><g class="C B"><path d="M1038.12 702.021l10.96 15.774a24.66 24.66 0 0 1 2.93 5.635c1.79 4.878 2.07 10.298.81 15.659l-10.97-15.773c1.27-5.361.98-10.781-.81-15.659-.73-2.014-1.72-3.904-2.92-5.636"/></g><path d="M747.987 915.846l10.959 15.772-64.419 26.002-10.964-15.773 64.424-26.001z" class="B C"/><g class="B C"><path d="M683.565 941.846l10.964 15.773-1.209.462-10.964-15.773 1.209-.462z"/><path d="M682.353 942.31l10.964 15.773c-1.394.507-2.807.928-4.233 1.261l-10.964-15.773c1.422-.335 2.835-.756 4.233-1.261z"/><path d="M678.125 943.572l10.964 15.773c-1.544.362-3.094.621-4.648.779l-10.964-15.773c1.554-.158 3.104-.417 4.648-.779z"/><path d="M673.478 944.35l10.964 15.773c-1.895.194-3.786.235-5.662.116l-10.964-15.773c1.871.116 3.769.073 5.662-.116z"/><path d="M667.817 944.468l10.964 15.773-1.145-.093c-5.595-.537-10.783-2.47-15.07-5.606l-10.964-15.773c4.289 3.131 9.477 5.065 15.07 5.606a40.42 40.42 0 0 0 1.145.093z"/></g><g class="B"><path d="M822.687 882.528l10.964 15.774-43.573-32.737-10.961-15.766 43.57 32.729z" class="C"/><path d="M779.117 849.799l10.961 15.766-9.284 41.452-10.959-15.771 9.282-41.447zm130.167-14.967l10.964 15.773-64.27-47.625-10.964-15.773 64.27 47.625zM651.6 938.774l10.959 15.771-50.318-37.051-10.964-15.773 50.323 37.053z" class="C"/><path d="M845.013 787.209l10.964 15.773-43.465-32.836-10.959-15.771 43.46 32.834z" class="C"/><g class="C"><path d="M601.273 901.726l10.964 15.773c-1.255-.868-2.421-1.832-3.483-2.886L597.79 898.84c1.062 1.054 2.226 2.022 3.483 2.886z"/><path d="M597.79 898.841l10.964 15.773c-1.07-1.063-2.04-2.217-2.896-3.45l-10.963-15.773a24.73 24.73 0 0 0 2.895 3.45z"/></g><path d="M1089.93 671.602l10.96 15.772-94.83-69.877-10.964-15.768 94.834 69.873z" class="C"/><g class="C"><path d="M535.083 897.039l10.964 15.773c-1.296 5.386-1.039 10.84.748 15.75.741 2.044 1.739 3.961 2.958 5.716l-10.964-15.773c-1.219-1.755-2.212-3.671-2.958-5.716-1.789-4.905-2.044-10.364-.748-15.75z"/></g><path d="M819.89 672.498l10.959 15.771-9.255 41.342-10.964-15.773 9.26-41.34zm143.245-73.849l10.964 15.773-121.396 49.248-10.964-15.773 121.396-49.248z" class="C"/><g class="C"><path d="M841.737 647.898l10.964 15.773a36.42 36.42 0 0 0-3.418 1.482l-10.964-15.773a36.42 36.42 0 0 1 3.418-1.482z"/><path d="M838.326 649.382l10.964 15.773c-1.297.647-2.558 1.368-3.768 2.167l-10.964-15.773c1.21-.799 2.467-1.523 3.768-2.167z"/><path d="M834.555 651.554l10.964 15.773a35.43 35.43 0 0 0-4.115 3.167l-10.964-15.773a36.49 36.49 0 0 1 4.115-3.167z"/><path d="M830.442 654.716l10.964 15.774c-1.025.913-1.998 1.887-2.912 2.919-3.856 4.342-6.496 9.486-7.636 14.87l-10.964-15.773c1.138-5.379 3.778-10.524 7.636-14.87.912-1.027 1.885-2.001 2.912-2.92z"/></g><path d="M801.556 754.376l10.959 15.771-64.353-47.748-10.961-15.766 64.355 47.743z" class="C"/><g class="C"><path d="M737.201 706.633l10.964 15.773c-4.287-3.136-9.479-5.06-15.072-5.602a27.52 27.52 0 0 0-1.147-.088l-10.964-15.773 1.147.088c5.595.537 10.785 2.466 15.072 5.602z"/><path d="M720.974 700.94l10.963 15.773c-1.877-.114-3.773-.076-5.667.119l-10.964-15.774c1.894-.194 3.79-.232 5.668-.118z"/><path d="M715.31 701.052l10.964 15.774a36.52 36.52 0 0 0-4.647.779l-10.964-15.773a36.7 36.7 0 0 1 4.647-.78z"/><path d="M710.662 701.83l10.964 15.773c-1.421.334-2.839.753-4.233 1.26L706.43 703.09c1.393-.507 2.811-.926 4.232-1.26"/><path d="M706.428 703.09l10.964 15.773-1.195.456-10.964-15.773 1.195-.456"/></g><path d="M561.921 777.205l10.959 15.771-26.837 119.838-10.96-15.771 26.838-119.838zm143.314-73.657l10.959 15.771-121.46 49.055-10.964-15.773 121.465-49.053z" class="C"/><g class="C"><path d="M583.771 752.603l10.964 15.773c-1.158.433-2.298.928-3.404 1.476l-10.964-15.773c1.108-.553 2.246-1.044 3.404-1.476"/><path d="M580.365 754.081l10.964 15.773c-1.296.647-2.553 1.371-3.761 2.164l-10.964-15.773a35.47 35.47 0 0 1 3.761-2.164"/><path d="M576.602 756.251l10.964 15.773c-1.446.955-2.826 2.015-4.122 3.17l-10.964-15.773a36.19 36.19 0 0 1 4.122-3.17"/><path d="M572.482 759.416l10.964 15.773c-1.027.919-2.007 1.895-2.921 2.927-3.854 4.337-6.493 9.482-7.639 14.864l-10.964-15.773c1.144-5.377 3.786-10.527 7.639-14.864a36.67 36.67 0 0 1 2.921-2.927"/></g></g><path opacity=".1" d="M666.043 1016.16c-5.595-.54-10.783-2.47-15.07-5.61l-94.816-69.924a24.9 24.9 0 0 1-9.363-12.068c-1.789-4.906-2.045-10.365-.748-15.75l26.837-119.838c1.144-5.377 3.785-10.527 7.639-14.864 3.861-4.34 8.775-7.713 14.209-9.737l121.465-49.054c5.481-2.192 11.295-3.063 16.893-2.52s10.786 2.466 15.072 5.602l64.355 47.743 43.459 32.834 64.271 47.625c4.296 3.112 9.49 5.031 15.079 5.571s11.398-.322 16.881-2.492l64.424-26.028c5.34-2.186 10.15-5.596 13.98-9.899 3.82-4.306 6.53-9.36 7.86-14.677l14.33-63.998c1.27-5.36.99-10.781-.8-15.658-1.79-4.883-5.03-9.033-9.34-11.993l-50.099-37.96c-4.287-3.136-9.472-5.063-15.066-5.604s-11.413.332-16.89 2.526l-64.446 26.003a38.06 38.06 0 0 0-13.969 9.919c-3.822 4.312-6.529 9.368-7.856 14.68l-9.26 41.341-43.489-32.724 9.26-41.34c1.139-5.38 3.779-10.524 7.636-14.871a35.85 35.85 0 0 1 14.212-9.731l121.405-49.244c5.477-2.194 11.296-3.063 16.891-2.526s10.781 2.47 15.061 5.604l94.83 69.877c4.15 3.109 7.27 7.285 9.04 12.135 1.78 4.846 2.16 10.207 1.11 15.543l-26.84 119.842c-1.15 5.376-3.8 10.516-7.66 14.859a35.77 35.77 0 0 1-14.2 9.739l-122.621 49.951c-5.483 2.169-11.288 3.033-16.882 2.492s-10.782-2.459-15.079-5.572l-64.064-48.535-43.69-31.812-64.181-48.522c-4.284-3.141-9.477-5.065-15.07-5.607s-11.407.33-16.89 2.527l-65.572 26.769a38.07 38.07 0 0 0-13.969 9.92c-3.826 4.31-6.529 9.368-7.856 14.68l-14.336 64.024c-1.266 5.365-.995 10.786.793 15.669s5.01 9.038 9.32 12.012l50.322 37.053c4.289 3.131 9.477 5.064 15.07 5.606 5.596.537 11.414-.332 16.891-2.527l64.418-26.002a38.15 38.15 0 0 0 13.976-9.922c3.826-4.311 6.534-9.366 7.872-14.68l9.282-41.447 43.568 32.735-9.255 41.314c-1.144 5.377-3.781 10.517-7.631 14.857a35.76 35.76 0 0 1-14.196 9.748l-119.636 49.416c-5.477 2.2-11.295 3.07-16.891 2.53l.02-.01z" fill="#d4edff"/></g></g><defs><filter id="A" x="-339.833" y="-85.833" width="3693.23" height="3069.79" filterUnits="userSpaceOnUse" class="D"><feFlood class="E"/><feBlend in="SourceGraphic"/><feGaussianBlur stdDeviation="175.417"/></filter><filter id="B" x="254.829" y="22.925" width="3028.4" height="2890.87" filterUnits="userSpaceOnUse" class="D"><feFlood class="E"/><feBlend in="SourceGraphic"/><feGaussianBlur stdDeviation="140.333"/></filter><filter id="C" x="-164.417" y="89.583" width="2219.62" height="2118.18" filterUnits="userSpaceOnUse" class="D"><feFlood class="E"/><feBlend in="SourceGraphic"/><feGaussianBlur stdDeviation="87.708"/></filter><filter id="D" x="-190.272" y="-144.272" width="2581.41" height="2492.01" filterUnits="userSpaceOnUse" class="D"><feFlood class="E"/><feBlend in="SourceGraphic"/><feGaussianBlur stdDeviation="245.636"/></filter><filter id="E" x="-158.65" y="149.35" width="1856.92" height="1958.02" filterUnits="userSpaceOnUse" class="D"><feFlood class="E"/><feBlend in="SourceGraphic"/><feGaussianBlur stdDeviation="136.825"/></filter><linearGradient id="F" x1="1636.77" y1="531.573" x2="1687.7" y2="541.505" xlink:href="#Aq"><stop stop-color="#dce8ff"/><stop offset="1" stop-color="#fff" stop-opacity=".8"/></linearGradient><linearGradient id="G" x1="1631.58" y1="636.198" x2="1668.33" y2="643.366" xlink:href="#Aq"><stop stop-color="#dce8ff"/><stop offset="1" stop-color="#fff" stop-opacity=".8"/></linearGradient><linearGradient id="H" x1="1579.15" y1="527.891" x2="1617.01" y2="535.275" xlink:href="#Aq"><stop stop-color="#dce8ff"/><stop offset="1" stop-color="#fff" stop-opacity=".8"/></linearGradient><linearGradient id="I" x1="1564.63" y1="461.577" x2="1613.95" y2="471.195" xlink:href="#Aq"><stop stop-color="#dce8ff"/><stop offset="1" stop-color="#fff" stop-opacity=".8"/></linearGradient><linearGradient id="J" x1="1564.63" y1="461.579" x2="1613.95" y2="471.197" xlink:href="#Aq"><stop stop-color="#dce8ff"/><stop offset="1" stop-color="#fff" stop-opacity=".8"/></linearGradient><linearGradient id="K" x1="1581.66" y1="585.813" x2="1606.93" y2="590.742" xlink:href="#Aq"><stop stop-color="#dce8ff"/><stop offset="1" stop-color="#fff" stop-opacity=".8"/></linearGradient><linearGradient id="L" x1="1567.68" y1="592.109" x2="1605.24" y2="599.434" xlink:href="#Aq"><stop stop-color="#dce8ff"/><stop offset="1" stop-color="#fff" stop-opacity=".8"/></linearGradient><linearGradient id="M" x1="1565.51" y1="603.24" x2="1600.66" y2="610.096" xlink:href="#Aq"><stop stop-color="#dce8ff"/><stop offset="1" stop-color="#fff" stop-opacity=".8"/></linearGradient><linearGradient id="N" x1="1567.68" y1="592.111" x2="1605.24" y2="599.436" xlink:href="#Aq"><stop stop-color="#dce8ff"/><stop offset="1" stop-color="#fff" stop-opacity=".8"/></linearGradient><linearGradient id="O" x1="1490.89" y1="349.927" x2="1663.02" y2="383.493" xlink:href="#Aq"><stop stop-color="#dce8ff"/><stop offset="1" stop-color="#fff" stop-opacity=".8"/></linearGradient><linearGradient id="P" x1="1492.78" y1="412.509" x2="1594.08" y2="432.263" xlink:href="#Aq"><stop stop-color="#dce8ff"/><stop offset="1" stop-color="#fff" stop-opacity=".8"/></linearGradient><linearGradient id="Q" x1="1471.06" y1="310.991" x2="1520.34" y2="320.602" xlink:href="#Aq"><stop stop-color="#dce8ff"/><stop offset="1" stop-color="#fff" stop-opacity=".8"/></linearGradient><linearGradient id="R" x1="1468.89" y1="388.756" x2="1519.23" y2="398.571" xlink:href="#Aq"><stop stop-color="#dce8ff"/><stop offset="1" stop-color="#fff" stop-opacity=".8"/></linearGradient><linearGradient id="S" x1="1468.89" y1="388.754" x2="1519.23" y2="398.569" xlink:href="#Aq"><stop stop-color="#dce8ff"/><stop offset="1" stop-color="#fff" stop-opacity=".8"/></linearGradient><linearGradient id="T" x1="1457.95" y1="312.178" x2="1493.21" y2="319.055" xlink:href="#Aq"><stop stop-color="#dce8ff"/><stop offset="1" stop-color="#fff" stop-opacity=".8"/></linearGradient><linearGradient id="U" x1="1457.95" y1="312.176" x2="1493.23" y2="319.055" xlink:href="#Aq"><stop stop-color="#dce8ff"/><stop offset="1" stop-color="#fff" stop-opacity=".8"/></linearGradient><linearGradient id="V" x1="1495.06" y1="626.951" x2="1581.34" y2="643.775" xlink:href="#Aq"><stop stop-color="#dce8ff"/><stop offset="1" stop-color="#fff" stop-opacity=".8"/></linearGradient><linearGradient id="W" x1="1455.28" y1="389.988" x2="1491.04" y2="396.961" xlink:href="#Aq"><stop stop-color="#dce8ff"/><stop offset="1" stop-color="#fff" stop-opacity=".8"/></linearGradient><linearGradient id="X" x1="1455.28" y1="389.988" x2="1491.03" y2="396.961" xlink:href="#Aq"><stop stop-color="#dce8ff"/><stop offset="1" stop-color="#fff" stop-opacity=".8"/></linearGradient><linearGradient id="Y" x1="1476.08" y1="655.375" x2="1511.9" y2="662.361" xlink:href="#Aq"><stop stop-color="#dce8ff"/><stop offset="1" stop-color="#fff" stop-opacity=".8"/></linearGradient><linearGradient id="Z" x1="1476.1" y1="655.38" x2="1511.9" y2="662.362" xlink:href="#Aq"><stop stop-color="#dce8ff"/><stop offset="1" stop-color="#fff" stop-opacity=".8"/></linearGradient><linearGradient id="a" x1="1475.09" y1="733.768" x2="1510.39" y2="740.651" xlink:href="#Aq"><stop stop-color="#dce8ff"/><stop offset="1" stop-color="#fff" stop-opacity=".8"/></linearGradient><linearGradient id="b" x1="1475.09" y1="733.77" x2="1510.39" y2="740.653" xlink:href="#Aq"><stop stop-color="#dce8ff"/><stop offset="1" stop-color="#fff" stop-opacity=".8"/></linearGradient><linearGradient id="c" x1="1448" y1="732.224" x2="1497.28" y2="741.832" xlink:href="#Aq"><stop stop-color="#dce8ff"/><stop offset="1" stop-color="#fff" stop-opacity=".8"/></linearGradient><linearGradient id="d" x1="1448" y1="732.224" x2="1497.27" y2="741.83" xlink:href="#Aq"><stop stop-color="#dce8ff"/><stop offset="1" stop-color="#fff" stop-opacity=".8"/></linearGradient><linearGradient id="e" x1="1369.36" y1="334.764" x2="1473.34" y2="355.041" xlink:href="#Aq"><stop stop-color="#dce8ff"/><stop offset="1" stop-color="#fff" stop-opacity=".8"/></linearGradient><linearGradient id="f" x1="1340.8" y1="230.836" x2="1389.02" y2="240.24" xlink:href="#Aq"><stop stop-color="#dce8ff"/><stop offset="1" stop-color="#fff" stop-opacity=".8"/></linearGradient><linearGradient id="g" x1="1366.54" y1="412.05" x2="1470.75" y2="432.372" xlink:href="#Aq"><stop stop-color="#dce8ff"/><stop offset="1" stop-color="#fff" stop-opacity=".8"/></linearGradient><linearGradient id="h" x1="1373.06" y1="620.066" x2="1474.39" y2="639.825" xlink:href="#Aq"><stop stop-color="#dce8ff"/><stop offset="1" stop-color="#fff" stop-opacity=".8"/></linearGradient><linearGradient id="i" x1="1352.53" y1="534.508" x2="1384.83" y2="540.806" xlink:href="#Aq"><stop stop-color="#dce8ff"/><stop offset="1" stop-color="#fff" stop-opacity=".8"/></linearGradient><linearGradient id="j" x1="1353.23" y1="581.153" x2="1402.51" y2="590.764" xlink:href="#Aq"><stop stop-color="#dce8ff"/><stop offset="1" stop-color="#fff" stop-opacity=".8"/></linearGradient><linearGradient id="k" x1="1353.22" y1="581.153" x2="1402.51" y2="590.764" xlink:href="#Aq"><stop stop-color="#dce8ff"/><stop offset="1" stop-color="#fff" stop-opacity=".8"/></linearGradient><linearGradient id="l" x1="1303.3" y1="323.032" x2="1379.92" y2="337.972" xlink:href="#Aq"><stop stop-color="#dce8ff"/><stop offset="1" stop-color="#fff" stop-opacity=".8"/></linearGradient><linearGradient id="m" x1="1294.79" y1="316.324" x2="1327.11" y2="322.627" xlink:href="#Aq"><stop stop-color="#dce8ff"/><stop offset="1" stop-color="#fff" stop-opacity=".8"/></linearGradient><linearGradient id="n" x1="1277.07" y1="266.296" x2="1326.4" y2="275.916" xlink:href="#Aq"><stop stop-color="#dce8ff"/><stop offset="1" stop-color="#fff" stop-opacity=".8"/></linearGradient><linearGradient id="o" x1="1277.07" y1="266.3" x2="1326.4" y2="275.92" xlink:href="#Aq"><stop stop-color="#dce8ff"/><stop offset="1" stop-color="#fff" stop-opacity=".8"/></linearGradient><linearGradient id="p" x1="1302.75" y1="381.979" x2="1380.92" y2="397.222" xlink:href="#Aq"><stop stop-color="#dce8ff"/><stop offset="1" stop-color="#fff" stop-opacity=".8"/></linearGradient><linearGradient id="q" x1="1306.71" y1="670.056" x2="1477.38" y2="703.338" xlink:href="#Aq"><stop stop-color="#dce8ff"/><stop offset="1" stop-color="#fff" stop-opacity=".8"/></linearGradient><linearGradient id="r" x1="1299.81" y1="519.25" x2="1376.32" y2="534.171" xlink:href="#Aq"><stop stop-color="#dce8ff"/><stop offset="1" stop-color="#fff" stop-opacity=".8"/></linearGradient><linearGradient id="s" x1="1289.81" y1="570.556" x2="1322.27" y2="576.887" xlink:href="#Aq"><stop stop-color="#dce8ff"/><stop offset="1" stop-color="#fff" stop-opacity=".8"/></linearGradient><linearGradient id="t" x1="1290.71" y1="617.023" x2="1338.96" y2="626.432" xlink:href="#Aq"><stop stop-color="#dce8ff"/><stop offset="1" stop-color="#fff" stop-opacity=".8"/></linearGradient><linearGradient id="u" x1="1204.59" y1="154.194" x2="1373.08" y2="187.05" xlink:href="#Aq"><stop stop-color="#dce8ff"/><stop offset="1" stop-color="#fff" stop-opacity=".8"/></linearGradient><linearGradient id="v" x1="1205.24" y1="217.238" x2="1306.53" y2="236.99" xlink:href="#Aq"><stop stop-color="#dce8ff"/><stop offset="1" stop-color="#fff" stop-opacity=".8"/></linearGradient><linearGradient id="w" x1="1184.74" y1="115.545" x2="1233.99" y2="125.149" xlink:href="#Aq"><stop stop-color="#dce8ff"/><stop offset="1" stop-color="#fff" stop-opacity=".8"/></linearGradient><linearGradient id="x" x1="1187.72" y1="194.723" x2="1231.71" y2="203.301" xlink:href="#Aq"><stop stop-color="#dce8ff"/><stop offset="1" stop-color="#fff" stop-opacity=".8"/></linearGradient><linearGradient id="y" x1="1181.41" y1="193.493" x2="1231.71" y2="203.302" xlink:href="#Aq"><stop stop-color="#dce8ff"/><stop offset="1" stop-color="#fff" stop-opacity=".8"/></linearGradient><linearGradient id="z" x1="1187.93" y1="193.448" x2="1210.83" y2="197.913" xlink:href="#Aq"><stop stop-color="#dce8ff"/><stop offset="1" stop-color="#fff" stop-opacity=".8"/></linearGradient><linearGradient id="AA" x1="1181.51" y1="192.945" x2="1210.65" y2="198.627" xlink:href="#Aq"><stop stop-color="#dce8ff"/><stop offset="1" stop-color="#fff" stop-opacity=".8"/></linearGradient><linearGradient id="AB" x1="1181.41" y1="193.489" x2="1231.71" y2="203.298" xlink:href="#Aq"><stop stop-color="#dce8ff"/><stop offset="1" stop-color="#fff" stop-opacity=".8"/></linearGradient><linearGradient id="AC" x1="1171.62" y1="116.731" x2="1206.9" y2="123.61" xlink:href="#Aq"><stop stop-color="#dce8ff"/><stop offset="1" stop-color="#fff" stop-opacity=".8"/></linearGradient><linearGradient id="AD" x1="1171.62" y1="116.735" x2="1206.91" y2="123.616" xlink:href="#Aq"><stop stop-color="#dce8ff"/><stop offset="1" stop-color="#fff" stop-opacity=".8"/></linearGradient><linearGradient id="AE" x1="1210.2" y1="424.135" x2="1314.32" y2="444.439" xlink:href="#Aq"><stop stop-color="#dce8ff"/><stop offset="1" stop-color="#fff" stop-opacity=".8"/></linearGradient><linearGradient id="AF" x1="1167.74" y1="194.701" x2="1203.54" y2="201.683" xlink:href="#Aq"><stop stop-color="#dce8ff"/><stop offset="1" stop-color="#fff" stop-opacity=".8"/></linearGradient><linearGradient id="AG" x1="1167.74" y1="194.701" x2="1203.54" y2="201.682" xlink:href="#Aq"><stop stop-color="#dce8ff"/><stop offset="1" stop-color="#fff" stop-opacity=".8"/></linearGradient><linearGradient id="AH" x1="1207.39" y1="501.664" x2="1311.71" y2="522.008" xlink:href="#Aq"><stop stop-color="#dce8ff"/><stop offset="1" stop-color="#fff" stop-opacity=".8"/></linearGradient><linearGradient id="AI" x1="1189.69" y1="460.18" x2="1225.55" y2="467.172" xlink:href="#Aq"><stop stop-color="#dce8ff"/><stop offset="1" stop-color="#fff" stop-opacity=".8"/></linearGradient><linearGradient id="AJ" x1="1189.73" y1="460.187" x2="1225.55" y2="467.173" xlink:href="#Aq"><stop stop-color="#dce8ff"/><stop offset="1" stop-color="#fff" stop-opacity=".8"/></linearGradient><linearGradient id="AK" x1="1187.59" y1="537.145" x2="1222.88" y2="544.026" xlink:href="#Aq"><stop stop-color="#dce8ff"/><stop offset="1" stop-color="#fff" stop-opacity=".8"/></linearGradient><linearGradient id="AL" x1="1180.77" y1="540.076" x2="1209.66" y2="545.71" xlink:href="#Aq"><stop stop-color="#dce8ff"/><stop offset="1" stop-color="#fff" stop-opacity=".8"/></linearGradient><linearGradient id="AM" x1="1160.49" y1="535.587" x2="1209.77" y2="545.195" xlink:href="#Aq"><stop stop-color="#dce8ff"/><stop offset="1" stop-color="#fff" stop-opacity=".8"/></linearGradient><linearGradient id="AN" x1="1180.64" y1="540.764" x2="1203.5" y2="545.223" xlink:href="#Aq"><stop stop-color="#dce8ff"/><stop offset="1" stop-color="#fff" stop-opacity=".8"/></linearGradient><linearGradient id="AO" x1="1160.49" y1="535.589" x2="1203.7" y2="544.015" xlink:href="#Aq"><stop stop-color="#dce8ff"/><stop offset="1" stop-color="#fff" stop-opacity=".8"/></linearGradient><linearGradient id="AP" x1="1160.49" y1="535.587" x2="1209.76" y2="545.195" xlink:href="#Aq"><stop stop-color="#dce8ff"/><stop offset="1" stop-color="#fff" stop-opacity=".8"/></linearGradient><linearGradient id="AQ" x1="1098.17" y1="212.608" x2="1184.69" y2="229.48" xlink:href="#Aq"><stop stop-color="#dce8ff"/><stop offset="1" stop-color="#fff" stop-opacity=".8"/></linearGradient><linearGradient id="AR" x1="1085.45" y1="424.097" x2="1188.14" y2="444.122" xlink:href="#Aq"><stop stop-color="#dce8ff"/><stop offset="1" stop-color="#fff" stop-opacity=".8"/></linearGradient><linearGradient id="AS" x1="1074.41" y1="256.346" x2="1111.95" y2="263.667" xlink:href="#Aq"><stop stop-color="#dce8ff"/><stop offset="1" stop-color="#fff" stop-opacity=".8"/></linearGradient><linearGradient id="AT" x1="1062.64" y1="320.542" x2="1100.51" y2="327.925" xlink:href="#Aq"><stop stop-color="#dce8ff"/><stop offset="1" stop-color="#fff" stop-opacity=".8"/></linearGradient><linearGradient id="AU" x1="1065.71" y1="384.663" x2="1115" y2="394.274" xlink:href="#Aq"><stop stop-color="#dce8ff"/><stop offset="1" stop-color="#fff" stop-opacity=".8"/></linearGradient><linearGradient id="AV" x1="1065.71" y1="384.665" x2="1115" y2="394.276" xlink:href="#Aq"><stop stop-color="#dce8ff"/><stop offset="1" stop-color="#fff" stop-opacity=".8"/></linearGradient><linearGradient id="AW" x1="1041.11" y1="147.245" x2="1183.97" y2="175.104" xlink:href="#Aq"><stop stop-color="#dce8ff"/><stop offset="1" stop-color="#fff" stop-opacity=".8"/></linearGradient><linearGradient id="AX" x1="1017.8" y1="203.835" x2="1052.5" y2="210.603" xlink:href="#Aq"><stop stop-color="#dce8ff"/><stop offset="1" stop-color="#fff" stop-opacity=".8"/></linearGradient><linearGradient id="AY" x1="1013.44" y1="214.111" x2="1050.41" y2="221.322" xlink:href="#Aq"><stop stop-color="#dce8ff"/><stop offset="1" stop-color="#fff" stop-opacity=".8"/></linearGradient><linearGradient id="AZ" x1="1011.79" y1="222.51" x2="1036.94" y2="227.414" xlink:href="#Aq"><stop stop-color="#dce8ff"/><stop offset="1" stop-color="#fff" stop-opacity=".8"/></linearGradient><linearGradient id="Aa" x1="1013.43" y1="214.111" x2="1050.41" y2="221.322" xlink:href="#Aq"><stop stop-color="#dce8ff"/><stop offset="1" stop-color="#fff" stop-opacity=".8"/></linearGradient><linearGradient id="Ab" x1="1019.09" y1="473.543" x2="1189.84" y2="506.841" xlink:href="#Aq"><stop stop-color="#dce8ff"/><stop offset="1" stop-color="#fff" stop-opacity=".8"/></linearGradient><linearGradient id="Ac" x1="1009.73" y1="432.292" x2="1049.36" y2="440.019" xlink:href="#Aq"><stop stop-color="#dce8ff"/><stop offset="1" stop-color="#fff" stop-opacity=".8"/></linearGradient><linearGradient id="Ad" x1="1003.05" y1="420.646" x2="1051.3" y2="430.055" xlink:href="#Aq"><stop stop-color="#dce8ff"/><stop offset="1" stop-color="#fff" stop-opacity=".8"/></linearGradient><linearGradient id="Ae" x1="994.292" y1="316.126" x2="1045.25" y2="326.062" xlink:href="#Aq"><stop stop-color="#dce8ff"/><stop offset="1" stop-color="#fff" stop-opacity=".8"/></linearGradient><linearGradient id="Af" x1="1004.29" y1="414.303" x2="1035.79" y2="420.444" xlink:href="#Aq"><stop stop-color="#dce8ff"/><stop offset="1" stop-color="#fff" stop-opacity=".8"/></linearGradient><linearGradient id="Ag" x1="1008.71" y1="360.092" x2="1697.38" y2="494.388" xlink:href="#Aq"><stop stop-color="#dce8ff"/><stop offset="1" stop-color="#fff" stop-opacity=".8"/></linearGradient><linearGradient id="Ah" x1="1062.12" y1="86.205" x2="1914.58" y2="1148.69" xlink:href="#Aq"><stop offset=".242" stop-color="#a7caff"/><stop offset="1" stop-color="#b25ff3"/></linearGradient><linearGradient id="Ai" x1="535.496" y1="303.592" x2="4696.53" y2="3268.16" xlink:href="#Aq"><stop offset=".242" stop-color="#a7caff"/><stop offset="1" stop-color="#b25ff3"/></linearGradient><clipPath id="Aj"><path d="M0 0h2200.29v1065H0z" class="B"/></clipPath><clipPath id="Ak"><path transform="matrix(.92388 .382683 -.382683 .92388 661.716 488)" d="M0 0h541.574v464.395H0z" class="B"/></clipPath><path id="Al" d="M1386.56 252.884l-24.3 2.868c.26-7.507-1.36-14.967-4.72-21.603-3.36-6.625-8.28-12.137-14.27-15.944l24.29-2.868c5.99 3.808 10.91 9.332 14.27 15.945 3.36 6.636 4.98 14.096 4.73 21.602z"/><path id="Am" d="M1232.1 201.261l-24.29 2.867c-6.23-4.194-13.35-6.623-20.59-7.006-2.19-.113-4.38-.044-6.55.211l24.29-2.867c2.17-.255 4.36-.324 6.56-.211 7.24.383 14.35 2.812 20.58 7.006z"/><path id="An" d="M1210.51 541.358l-24.29 2.867c-2.09.245-4.2.318-6.32.207-6.97-.365-13.81-2.693-19.8-6.729l24.3-2.867c5.99 4.038 12.83 6.364 19.79 6.729 2.12.111 4.23.038 6.32-.207z"/><path id="Ao" d="M1094.84 277.125l-24.29 2.868c.11-7.814 2.19-15.411 6.02-21.942s9.25-11.721 15.67-15.034l24.29-2.867c-6.42 3.312-11.84 8.504-15.67 15.034-3.82 6.531-5.9 14.119-6.02 21.941z"/><path id="Ap" d="M1048.84 442.688l-24.3 2.867c-5.99-3.796-10.93-9.324-14.29-15.948-3.36-6.639-5-14.09-4.73-21.606l24.29-2.867c-.27 7.516 1.37 14.967 4.74 21.605 3.35 6.625 8.29 12.153 14.29 15.949z"/><linearGradient id="Aq" gradientUnits="userSpaceOnUse"/></defs></svg>