<svg width="52" height="52" viewBox="0 0 52 52" fill="none" xmlns="http://www.w3.org/2000/svg">
<rect opacity="0.3" x="31" y="22" width="17" height="26" rx="3" fill="url(#paint0_linear_222_11289)"/>
<rect opacity="0.3" x="4" y="4" width="12" height="26" rx="3" fill="url(#paint1_linear_222_11289)"/>
<path fill-rule="evenodd" clip-rule="evenodd" d="M26.912 43.3346H29.0876C30.8474 43.3346 32.279 41.903 32.279 40.1435C32.279 39.7085 32.5616 39.3209 32.9685 39.1671C33.2473 39.0617 33.5226 38.9474 33.7942 38.8243C34.191 38.6446 34.6654 38.7185 34.9734 39.0265C36.2343 40.2888 38.2576 40.2581 39.4871 39.0269L41.025 37.4891C42.2543 36.2611 42.2892 34.2378 41.0254 32.9753C40.7174 32.6673 40.6431 32.1924 40.8228 31.7957C40.9458 31.5241 41.0601 31.2487 41.1655 30.97C41.3193 30.5631 41.7068 30.2805 42.1418 30.2805C43.9015 30.2805 45.3332 28.8488 45.3332 27.0892V24.9134C45.3332 23.1538 43.9015 21.7221 42.1418 21.7221C41.7068 21.7221 41.3193 21.4395 41.1655 21.0326C41.0601 20.7538 40.9458 20.4785 40.8228 20.2069C40.6431 19.8102 40.717 19.3357 41.025 19.0277C42.2895 17.7644 42.2542 15.7414 41.0254 14.5139L39.4876 12.9762C38.261 11.748 36.2372 11.7108 34.9739 12.9758C34.6659 13.2838 34.191 13.3581 33.7942 13.1783C33.5226 13.0553 33.2473 12.941 32.9686 12.8356C32.5616 12.6818 32.279 12.2943 32.279 11.8593C32.279 10.0996 30.8474 8.66797 29.0877 8.66797H26.912C25.1523 8.66797 23.7207 10.0996 23.7207 11.8593C23.7207 12.2943 23.4381 12.6817 23.0312 12.8356C22.7524 12.941 22.477 13.0553 22.2054 13.1783C21.8087 13.3581 21.3342 13.2841 21.0263 12.9762C19.7654 11.7138 17.7421 11.7446 16.5126 12.9758L14.9747 14.5136C13.7453 15.7416 13.7105 17.7649 14.9743 19.0273C15.2823 19.3353 15.3566 19.8102 15.1769 20.207C15.0539 20.4785 14.9396 20.7539 14.8342 21.0326C14.6803 21.4395 14.2929 21.7221 13.8579 21.7221C12.0982 21.7221 10.6665 23.1538 10.6665 24.9134V27.0892C10.6665 28.8488 12.0982 30.2805 13.8578 30.2805C14.2928 30.2805 14.6803 30.5631 14.8341 30.97C14.9395 31.2488 15.0538 31.5241 15.1768 31.7957C15.3565 32.1924 15.2826 32.6669 14.9746 32.9749C13.7101 34.2382 13.7454 36.2612 14.9742 37.4887L16.512 39.0264C17.7386 40.2546 19.7624 40.2918 21.0257 39.0268C21.3337 38.7188 21.8087 38.6445 22.2054 38.8243C22.477 38.9473 22.7523 39.0616 23.0311 39.167C23.438 39.3208 23.7206 39.7083 23.7206 40.1433C23.7206 41.903 25.1523 43.3346 26.912 43.3346ZM20.121 26.7157C20.121 30.8748 23.5046 34.2584 27.6638 34.2584C31.8229 34.2584 35.2065 30.8748 35.2065 26.7157C35.2065 22.5567 31.8229 19.173 27.6638 19.173C23.5046 19.173 20.121 22.5567 20.121 26.7157ZM22.1523 26.7157C22.1523 23.6767 24.6247 21.2043 27.6638 21.2043C30.7028 21.2043 33.1752 23.6767 33.1752 26.7157C33.1752 29.7547 30.7028 32.2272 27.6638 32.2272C24.6247 32.2272 22.1523 29.7547 22.1523 26.7157Z" fill="url(#paint2_linear_222_11289)"/>
<defs>
<linearGradient id="paint0_linear_222_11289" x1="31" y1="22" x2="56.9563" y2="34.4807" gradientUnits="userSpaceOnUse">
<stop offset="0.24238" stop-color="#36BEFF"/>
<stop offset="1" stop-color="#733FF1"/>
</linearGradient>
<linearGradient id="paint1_linear_222_11289" x1="4" y1="4" x2="24.2279" y2="10.8656" gradientUnits="userSpaceOnUse">
<stop offset="0.24238" stop-color="#36BEFF"/>
<stop offset="1" stop-color="#733FF1"/>
</linearGradient>
<linearGradient id="paint2_linear_222_11289" x1="10.6665" y1="8.66797" x2="52.9613" y2="39.7713" gradientUnits="userSpaceOnUse">
<stop offset="0.24238" stop-color="#36BEFF"/>
<stop offset="1" stop-color="#733FF1"/>
</linearGradient>
</defs>
</svg>
