<svg width="136" height="35" viewBox="0 0 136 35" fill="none" xmlns="http://www.w3.org/2000/svg">
<path d="M27.8929 12.6212C27.5954 12.4564 27.261 12.3699 26.9209 12.3699C26.5809 12.3699 26.2464 12.4564 25.9489 12.6212L21.4877 15.207L18.4623 16.8919L13.9944 19.476C13.6974 19.6422 13.3627 19.7294 13.0224 19.7294C12.6821 19.7294 12.3474 19.6422 12.0504 19.476L8.50348 17.4568C8.21512 17.2916 7.97425 17.0548 7.80413 16.7694C7.63401 16.4839 7.5404 16.1593 7.53234 15.8271V11.8356C7.52855 11.5009 7.61721 11.1716 7.78856 10.884C7.95991 10.5965 8.2073 10.3618 8.50348 10.2058L11.9936 8.24016C12.2906 8.074 12.6252 7.98675 12.9656 7.98675C13.3059 7.98675 13.6405 8.074 13.9375 8.24016L17.426 10.2058C17.7144 10.3711 17.9554 10.6078 18.1258 10.8933C18.2962 11.1787 18.3902 11.5032 18.3988 11.8356V14.4197L21.4292 12.678V10.1022C21.433 9.7675 21.3443 9.43824 21.173 9.15069C21.0016 8.86314 20.7542 8.62846 20.4581 8.4725L13.9944 4.75341C13.6974 4.58725 13.3627 4.5 13.0224 4.5C12.6821 4.5 12.3474 4.58725 12.0504 4.75341L5.47305 8.46414C5.17515 8.62037 4.92648 8.85623 4.75472 9.14545C4.58296 9.43466 4.49486 9.76588 4.50023 10.1022V17.5738C4.49641 17.9088 4.58525 18.2382 4.75692 18.5258C4.9286 18.8134 5.17643 19.048 5.47305 19.2035L12.0504 22.9109C12.3474 23.0771 12.6821 23.1643 13.0224 23.1643C13.3627 23.1643 13.6974 23.0771 13.9944 22.9109L18.4623 20.3753L21.4877 18.6269L25.9489 16.0979C26.2464 15.9331 26.5809 15.8467 26.9209 15.8467C27.261 15.8467 27.5954 15.9331 27.8929 16.0979L31.3813 18.0653C31.6699 18.23 31.911 18.4664 32.0814 18.7516C32.2518 19.0368 32.3458 19.3612 32.3541 19.6933V23.6832C32.3578 24.0178 32.2689 24.347 32.0973 24.6343C31.9256 24.9216 31.6778 25.1559 31.3813 25.3112L27.8929 27.3337C27.5959 27.4999 27.2612 27.5871 26.9209 27.5871C26.5806 27.5871 26.2459 27.4999 25.9489 27.3337L22.4588 25.368C22.1705 25.2028 21.9296 24.9661 21.7595 24.6806C21.5894 24.3951 21.4958 24.0706 21.4877 23.7383V21.1609L18.4623 22.9026V25.48C18.4583 25.815 18.547 26.1445 18.7187 26.4322C18.8904 26.7198 19.1384 26.9543 19.4351 27.1097L26.0058 30.8288C26.3028 30.995 26.6374 31.0822 26.9778 31.0822C27.3181 31.0822 27.6527 30.995 27.9497 30.8288L34.5271 27.1214C34.8157 26.9563 35.0568 26.7196 35.2272 26.4341C35.3976 26.1487 35.4915 25.8241 35.4999 25.4917V18.0201C35.5033 17.6853 35.4144 17.356 35.2427 17.0684C35.0711 16.7809 34.8235 16.5463 34.5271 16.3904L27.8929 12.6212Z" fill="#8247E5"/>
<path d="M44.9944 26.5H49.3144V20.284H53.3224C56.8984 20.284 59.1304 18.412 59.1304 14.812C59.1304 11.212 56.8984 9.34 53.3224 9.34H44.9944V26.5ZM49.3144 12.868H52.4104C53.8984 12.868 54.8104 13.372 54.8104 14.812C54.8104 16.252 53.8984 16.756 52.4104 16.756H49.3144V12.868ZM65.7259 26.884C61.6219 26.884 59.1499 24.172 59.1499 20.356C59.1499 16.54 61.6219 13.828 65.7259 13.828C69.8059 13.828 72.2779 16.54 72.2779 20.356C72.2779 24.172 69.8059 26.884 65.7259 26.884ZM65.7259 24.004C67.4059 24.004 68.4379 22.732 68.4379 20.356C68.4379 17.98 67.4059 16.708 65.7259 16.708C64.0219 16.708 62.9899 17.98 62.9899 20.356C62.9899 22.732 64.0219 24.004 65.7259 24.004ZM73.3843 9.34V26.5H77.2243V9.34H73.3843ZM90.7179 14.212H86.8779L84.5499 22.276H84.5019L81.7179 14.212H77.8779L81.8859 24.724C82.2699 25.804 82.3419 26.572 81.9819 27.124C81.5739 27.748 80.7099 27.868 79.6539 27.628H79.6059V30.508C80.3979 30.676 81.0939 30.748 81.7419 30.748C84.3339 30.748 85.4859 29.884 86.5419 26.74L90.7179 14.212ZM99.0135 14.212V15.436H98.9655C98.4855 14.788 97.4055 13.828 95.6055 13.828C92.4615 13.828 90.4455 16.324 90.4455 19.876C90.4455 23.428 92.4615 25.924 95.6055 25.924C97.4055 25.924 98.4855 24.964 98.9655 24.316H99.0135V25.036C99.0135 27.076 98.4375 27.988 96.7095 27.988C95.3655 27.988 94.7655 27.436 94.5255 26.764H90.6855C91.1175 28.732 92.9175 30.748 96.8055 30.748C100.525 30.748 102.853 29.356 102.853 25.3V14.212H99.0135ZM96.6135 23.044C95.0535 23.044 94.2855 21.868 94.2855 19.876C94.2855 17.884 95.0535 16.708 96.6135 16.708C98.1735 16.708 98.9415 17.884 98.9415 19.876C98.9415 21.868 98.1735 23.044 96.6135 23.044ZM110.516 26.884C106.412 26.884 103.94 24.172 103.94 20.356C103.94 16.54 106.412 13.828 110.516 13.828C114.596 13.828 117.068 16.54 117.068 20.356C117.068 24.172 114.596 26.884 110.516 26.884ZM110.516 24.004C112.196 24.004 113.228 22.732 113.228 20.356C113.228 17.98 112.196 16.708 110.516 16.708C108.812 16.708 107.78 17.98 107.78 20.356C107.78 22.732 108.812 24.004 110.516 24.004ZM126.07 13.828C123.886 13.828 122.686 14.86 122.038 15.988H121.99V14.212H118.15V26.5H121.99V19.396C121.99 17.692 122.83 16.948 124.294 16.948C125.566 16.948 126.214 17.572 126.214 19.42V26.5H130.054V18.196C130.054 15.388 128.446 13.828 126.07 13.828Z" fill="#020202"/>
</svg>
