<svg width="52" height="53" viewBox="0 0 52 53" fill="none" xmlns="http://www.w3.org/2000/svg">
<path opacity="0.3" d="M16.6232 11.125C22.1162 7.95364 28.8838 7.95364 34.3768 11.125C39.8697 14.2964 43.2535 20.1573 43.2535 26.5C43.2535 32.8427 39.8697 38.7036 34.3768 41.875C28.8838 45.0464 22.1162 45.0464 16.6232 41.875C11.1303 38.7036 7.74648 32.8427 7.74648 26.5C7.74648 20.1573 11.1303 14.2964 16.6232 11.125Z" fill="url(#paint0_linear_222_11276)"/>
<path opacity="0.3" d="M5.2044 24.5069C4.84971 30.635 7.31098 36.845 12.3961 41.0667C14.3555 42.6934 16.5334 43.8828 18.8113 44.6461M32.0903 6.90769C34.1654 7.67257 36.1481 8.79734 37.9466 10.2905C43.6424 15.0191 46.0463 22.2423 44.8884 29.0507" stroke="white" stroke-width="1.5" stroke-linecap="round"/>
<path d="M31.2224 24.701C30.2505 24.3062 29.066 23.9721 27.6386 23.6684C26.2111 23.395 25.1785 23.1824 24.571 23.0002C23.9332 22.8179 23.4776 22.6357 23.1739 22.3927C22.8702 22.1498 22.7487 21.8157 22.7487 21.3905C22.7487 20.7831 22.9917 20.2971 23.4776 19.963C23.9636 19.6593 24.6318 19.4771 25.4214 19.4771C26.3326 19.4771 27.0311 19.72 27.5778 20.1756C27.8245 20.3933 28.0227 20.6457 28.169 20.9294C28.45 21.4743 28.9302 21.9675 29.5434 21.9675H32.7162C33.3673 21.9675 33.9088 21.4346 33.7832 20.7957C33.5655 19.688 33.0317 18.6816 32.1943 17.7763C31.2658 16.7976 30.0885 16.0885 28.6796 15.6489C28.1498 15.4836 27.76 15.0113 27.76 14.4564V13.2454C27.76 12.5942 27.2322 12.0664 26.5811 12.0664H24.3833C23.7321 12.0664 23.2043 12.5942 23.2043 13.2454V14.4104C23.2043 14.9724 22.8047 15.4483 22.2667 15.6106C20.8666 16.0329 19.6999 16.7357 18.8004 17.6851C17.6767 18.8696 17.13 20.2364 17.13 21.8157C17.13 23.2128 17.4033 24.3365 17.9804 25.1869C18.5271 26.0373 19.2864 26.6448 20.2279 27.07C21.139 27.4952 22.3235 27.8293 23.751 28.133C25.2088 28.4367 26.2415 28.6797 26.8793 28.8619C27.5171 29.0441 28.003 29.2264 28.3067 29.4693C28.6104 29.7123 28.7623 30.0464 28.7623 30.4716C28.7623 31.1398 28.489 31.6561 27.9423 31.9902C27.3956 32.3546 26.6667 32.5065 25.7859 32.5065C24.6621 32.5065 23.7814 32.2635 23.1436 31.7472C22.7752 31.4625 22.5084 31.1317 22.3329 30.7497C22.079 30.1968 21.6157 29.7019 21.0074 29.6883L17.8493 29.6177C17.1881 29.603 16.6307 30.1394 16.7475 30.7905C16.9627 31.9905 17.5168 33.0599 18.436 34.0251C19.4518 35.0917 20.7226 35.8611 22.2659 36.3154C22.805 36.474 23.2043 36.9504 23.2043 37.5124V38.6775C23.2043 39.3286 23.7321 39.8564 24.3833 39.8564H26.5811C27.2322 39.8564 27.76 39.3286 27.76 38.6775V37.6003C27.76 37.0262 28.1761 36.5434 28.7305 36.3944C30.2444 35.9874 31.5219 35.2641 32.5284 34.2073C33.7432 32.9621 34.381 31.4739 34.381 29.773C34.381 28.4367 34.0773 27.3433 33.5003 26.5233C32.9232 25.7336 32.1639 25.1262 31.2224 24.701Z" fill="url(#paint1_linear_222_11276)"/>
<g opacity="0.9">
<path d="M8.44242 11.0664C8.44242 10.5141 8.89014 10.0664 9.44242 10.0664H11.4072C11.9595 10.0664 12.4072 10.5141 12.4072 11.0664V15.0224H8.44242V11.0664Z" fill="url(#paint2_linear_222_11276)"/>
<path d="M13.9292 14.562L10.4248 18.0664L6.92041 14.562H13.9292Z" fill="url(#paint3_linear_222_11276)"/>
</g>
<g opacity="0.9">
<path d="M20.6814 2.56641C20.6814 2.29026 20.9053 2.06641 21.1814 2.06641H22.1638C22.4399 2.06641 22.6638 2.29026 22.6638 2.56641V4.54439H20.6814V2.56641Z" fill="url(#paint4_linear_222_11276)"/>
<path d="M23.4248 4.3142L21.6726 6.06641L19.9204 4.3142H23.4248Z" fill="url(#paint5_linear_222_11276)"/>
</g>
<g opacity="0.9">
<path d="M37.4424 33.8608C37.4424 33.4221 37.7981 33.0664 38.2368 33.0664H40.6128C41.0516 33.0664 41.4072 33.4221 41.4072 33.8608V38.0224H37.4424V33.8608Z" fill="url(#paint6_linear_222_11276)"/>
<path d="M42.9292 37.562L39.4248 41.0664L35.9204 37.562H42.9292Z" fill="url(#paint7_linear_222_11276)"/>
</g>
<g opacity="0.9">
<path d="M27.8717 44.8997C27.8717 44.4395 28.2448 44.0664 28.705 44.0664H29.5163C29.9766 44.0664 30.3497 44.4395 30.3497 44.8997V47.1639H27.8717V44.8997Z" fill="url(#paint8_linear_222_11276)"/>
<path d="M31.3009 46.8762L29.1107 49.0664L26.9204 46.8762H31.3009Z" fill="url(#paint9_linear_222_11276)"/>
</g>
<g opacity="0.9">
<path d="M35.4912 46.5664C35.4912 46.2903 35.715 46.0664 35.9912 46.0664H36.478C36.7541 46.0664 36.978 46.2903 36.978 46.5664V47.9249H35.4912V46.5664Z" fill="url(#paint10_linear_222_11276)"/>
<path d="M37.5487 47.7523L36.2346 49.0664L34.9204 47.7523H37.5487Z" fill="url(#paint11_linear_222_11276)"/>
</g>
<g opacity="0.9">
<path d="M14.4912 3.56641C14.4912 3.29026 14.715 3.06641 14.9912 3.06641H15.478C15.7541 3.06641 15.978 3.29026 15.978 3.56641V4.9249H14.4912V3.56641Z" fill="url(#paint12_linear_222_11276)"/>
<path d="M16.5487 4.75226L15.2346 6.06641L13.9204 4.75226H16.5487Z" fill="url(#paint13_linear_222_11276)"/>
</g>
<defs>
<linearGradient id="paint0_linear_222_11276" x1="5" y1="6" x2="55.0217" y2="42.7857" gradientUnits="userSpaceOnUse">
<stop offset="0.24238" stop-color="#36BEFF"/>
<stop offset="1" stop-color="#733FF1"/>
</linearGradient>
<linearGradient id="paint1_linear_222_11276" x1="16.644" y1="12.0664" x2="43.9674" y2="24.8911" gradientUnits="userSpaceOnUse">
<stop offset="0.24238" stop-color="#36BEFF"/>
<stop offset="1" stop-color="#733FF1"/>
</linearGradient>
<linearGradient id="paint2_linear_222_11276" x1="6.92041" y1="10.0664" x2="16.2311" y2="16.0651" gradientUnits="userSpaceOnUse">
<stop offset="0.24238" stop-color="#36BEFF"/>
<stop offset="1" stop-color="#733FF1"/>
</linearGradient>
<linearGradient id="paint3_linear_222_11276" x1="6.92041" y1="10.0664" x2="16.2311" y2="16.0651" gradientUnits="userSpaceOnUse">
<stop offset="0.24238" stop-color="#36BEFF"/>
<stop offset="1" stop-color="#733FF1"/>
</linearGradient>
<linearGradient id="paint4_linear_222_11276" x1="19.9204" y1="2.06641" x2="24.5757" y2="5.06574" gradientUnits="userSpaceOnUse">
<stop offset="0.24238" stop-color="#36BEFF"/>
<stop offset="1" stop-color="#733FF1"/>
</linearGradient>
<linearGradient id="paint5_linear_222_11276" x1="19.9204" y1="2.06641" x2="24.5757" y2="5.06574" gradientUnits="userSpaceOnUse">
<stop offset="0.24238" stop-color="#36BEFF"/>
<stop offset="1" stop-color="#733FF1"/>
</linearGradient>
<linearGradient id="paint6_linear_222_11276" x1="35.9204" y1="33.0664" x2="45.2311" y2="39.0651" gradientUnits="userSpaceOnUse">
<stop offset="0.24238" stop-color="#36BEFF"/>
<stop offset="1" stop-color="#733FF1"/>
</linearGradient>
<linearGradient id="paint7_linear_222_11276" x1="35.9204" y1="33.0664" x2="45.2311" y2="39.0651" gradientUnits="userSpaceOnUse">
<stop offset="0.24238" stop-color="#36BEFF"/>
<stop offset="1" stop-color="#733FF1"/>
</linearGradient>
<linearGradient id="paint8_linear_222_11276" x1="26.9204" y1="44.0664" x2="32.7396" y2="47.8156" gradientUnits="userSpaceOnUse">
<stop offset="0.24238" stop-color="#36BEFF"/>
<stop offset="1" stop-color="#733FF1"/>
</linearGradient>
<linearGradient id="paint9_linear_222_11276" x1="26.9204" y1="44.0664" x2="32.7396" y2="47.8156" gradientUnits="userSpaceOnUse">
<stop offset="0.24238" stop-color="#36BEFF"/>
<stop offset="1" stop-color="#733FF1"/>
</linearGradient>
<linearGradient id="paint10_linear_222_11276" x1="34.9204" y1="46.0664" x2="38.4119" y2="48.3159" gradientUnits="userSpaceOnUse">
<stop offset="0.24238" stop-color="#36BEFF"/>
<stop offset="1" stop-color="#733FF1"/>
</linearGradient>
<linearGradient id="paint11_linear_222_11276" x1="34.9204" y1="46.0664" x2="38.4119" y2="48.3159" gradientUnits="userSpaceOnUse">
<stop offset="0.24238" stop-color="#36BEFF"/>
<stop offset="1" stop-color="#733FF1"/>
</linearGradient>
<linearGradient id="paint12_linear_222_11276" x1="13.9204" y1="3.06641" x2="17.4119" y2="5.3159" gradientUnits="userSpaceOnUse">
<stop offset="0.24238" stop-color="#36BEFF"/>
<stop offset="1" stop-color="#733FF1"/>
</linearGradient>
<linearGradient id="paint13_linear_222_11276" x1="13.9204" y1="3.06641" x2="17.4119" y2="5.3159" gradientUnits="userSpaceOnUse">
<stop offset="0.24238" stop-color="#36BEFF"/>
<stop offset="1" stop-color="#733FF1"/>
</linearGradient>
</defs>
</svg>
