<svg width="283" height="62" viewBox="0 0 283 62" fill="none" xmlns="http://www.w3.org/2000/svg">
<g clip-path="url(#clip0_228_5410)">
<path d="M110.697 19.7294C112.49 20.7704 113.932 22.3218 114.838 24.1855C115.944 26.3299 116.494 28.7171 116.438 31.1288C116.438 33.7487 115.907 35.9787 114.705 37.9436C113.664 39.8612 112.018 41.3813 110.022 42.2671C107.867 43.3359 105.486 43.8708 103.08 43.8265C101.662 43.8336 100.257 43.5689 98.9393 43.0468C97.6294 42.6373 96.4379 41.9177 95.4661 40.9494V54.5749H87.7314V18.6807H94.4085L95.0759 21.5656C98.0105 19.207 101.218 18.0257 104.555 18.0257C106.727 17.9651 108.867 18.5587 110.697 19.7294ZM106.424 35.9787C107.086 35.3893 107.609 34.6605 107.956 33.8448C108.302 33.029 108.463 32.1467 108.426 31.2614C108.461 29.463 107.79 27.7224 106.557 26.4116C105.355 25.1016 103.755 24.5792 102.018 24.5792C100.668 24.523 99.3285 24.84 98.1471 25.4954C97.0533 26.0891 96.168 27.0034 95.6105 28.1152V34.0138C96.0125 35.1276 96.7605 36.0838 97.7451 36.7428C98.8658 37.4411 100.163 37.805 101.484 37.7915C103.301 37.8349 105.067 37.1869 106.424 35.9787Z" fill="white"/>
<path d="M120.98 24.3146C122.189 22.4072 123.898 20.8663 125.92 19.8585C128.159 18.7414 130.626 18.1582 133.128 18.1548C135.639 18.0932 138.123 18.68 140.34 19.8585C142.332 20.9187 143.995 22.5044 145.148 24.4432C146.284 26.4401 146.882 28.6977 146.882 30.9948C146.882 33.2918 146.284 35.5495 145.148 37.5463C143.946 39.4956 142.478 41.0863 140.34 42.135C138.106 43.2675 135.633 43.8516 133.128 43.8387C130.637 43.8822 128.17 43.3484 125.92 42.2792C123.871 41.3127 122.153 39.7641 120.98 37.827C119.824 35.7379 119.222 33.3879 119.232 31.0006C119.239 28.6601 119.84 26.3596 120.98 24.3146ZM128.855 35.714C129.924 37.0239 131.395 37.5463 133.128 37.5463C133.93 37.5648 134.727 37.4107 135.464 37.0946C136.202 36.7784 136.862 36.3076 137.401 35.714C138.471 34.5444 139.005 32.8291 139.005 30.9967C139.005 29.0318 138.471 27.4594 137.401 26.2794C136.86 25.645 136.184 25.1404 135.421 24.8029C134.658 24.4655 133.829 24.3039 132.995 24.3302C132.195 24.3254 131.403 24.4857 130.668 24.801C129.932 25.1163 129.27 25.5798 128.722 26.1625C127.627 27.5367 127.06 29.2568 127.122 31.0123C127.07 32.7444 127.691 34.4295 128.855 35.714Z" fill="white"/>
<path d="M159.427 0.0722656V43.1828H151.692V0.0722656H159.427Z" fill="white"/>
<path d="M191.216 19.3359L175.458 54.7156H167.981L173.866 42.0023L162.646 19.3359H171.462L177.87 33.4878L184.282 19.3359H191.216Z" fill="white"/>
<path d="M220.859 19.3357V43.1833C220.868 45.3921 220.164 47.545 218.853 49.3236C217.484 51.2069 215.643 52.6978 213.515 53.6471C211.212 54.7018 208.704 55.2344 206.17 55.2065C204.413 55.2169 202.661 54.9967 200.961 54.5516C199.719 54.1314 198.515 53.6099 197.359 52.9921C196.176 52.2597 195.059 51.4276 194.018 50.5048L198.561 45.2612C199.541 46.2193 200.667 47.0155 201.897 47.6199C203.191 48.233 204.606 48.5487 206.038 48.5439C207.795 48.5881 209.522 48.0838 210.978 47.1014C211.626 46.6466 212.15 46.0361 212.5 45.3261C212.849 44.6162 213.015 43.8296 212.98 43.0391V39.6317C212.116 40.931 210.916 41.9723 209.507 42.6453C207.753 43.462 205.834 43.8623 203.899 43.8149C201.732 43.8391 199.602 43.2483 197.757 42.1112C195.87 41.0017 194.306 39.4202 193.218 37.5226C192.101 35.5664 191.504 33.3574 191.482 31.1055C191.438 28.802 192.04 26.5323 193.218 24.552C194.354 22.6088 195.966 20.9857 197.901 19.8347C199.697 18.6973 201.785 18.1055 203.911 18.131C205.722 18.1025 207.526 18.3658 209.253 18.9107C210.633 19.3169 211.878 20.0857 212.859 21.1368L213.659 19.3045L220.859 19.3357ZM212.98 34.0099V28.1114C212.466 26.9426 211.572 25.9812 210.444 25.3824C209.177 24.6825 207.751 24.3212 206.303 24.3336C204.527 24.3199 202.811 24.974 201.495 26.166C200.833 26.7553 200.31 27.4842 199.964 28.2999C199.618 29.1157 199.457 29.998 199.493 30.8833C199.487 31.7789 199.659 32.6669 199.999 33.4958C200.339 34.3246 200.84 35.0778 201.473 35.7117C202.107 36.3456 202.86 36.8476 203.689 37.1885C204.518 37.5295 205.407 37.7027 206.303 37.698C209.378 37.5459 211.646 36.3686 212.98 34.0099Z" fill="white"/>
<path d="M227.271 24.314C228.475 22.3698 230.182 20.786 232.211 19.7292C234.452 18.6111 236.922 18.028 239.427 18.0256C241.936 17.9664 244.418 18.5531 246.635 19.7292C248.628 20.7883 250.291 22.3743 251.443 24.314C252.576 26.3127 253.175 28.5701 253.179 30.8675C253.239 33.1717 252.636 35.4447 251.443 37.4171C250.365 39.4156 248.682 41.0219 246.635 42.0057C244.402 43.1378 241.931 43.7219 239.427 43.7094C236.935 43.7535 234.466 43.2197 232.215 42.15C230.165 41.1847 228.446 39.6358 227.275 37.6978C226.073 35.7485 225.538 33.5029 225.538 30.7505C225.509 28.4863 226.109 26.2583 227.271 24.314ZM235.013 35.7173C236.083 37.0273 237.55 37.5497 239.286 37.5497C240.092 37.5704 240.892 37.4175 241.633 37.1013C242.374 36.7851 243.037 36.313 243.579 35.7173C244.648 34.5478 245.183 32.8324 245.183 31C245.183 29.03 244.648 27.4575 243.579 26.2828C243.038 25.6857 242.375 25.2125 241.634 24.8956C240.893 24.5787 240.092 24.4255 239.286 24.4465C238.486 24.4416 237.693 24.6022 236.958 24.9182C236.222 25.2342 235.56 25.6988 235.013 26.2828C233.811 27.4523 233.281 29.1638 233.281 31C233.349 32.715 233.955 34.3652 235.013 35.7173Z" fill="white"/>
<path d="M280.551 20.1192C282.151 21.4291 282.818 23.1328 282.951 25.2302V43.1832H275.072V28.1113C274.939 25.7539 273.739 24.5753 271.47 24.5753C269.734 24.5753 268.262 25.355 267.177 27.0665C266.093 28.7779 265.574 30.8637 265.574 33.3549V43.1832H257.847V19.3356H264.926L265.46 23.1328C266.355 21.5977 267.647 20.3308 269.199 19.4642C270.799 18.5481 272.672 18.1543 274.807 18.1543C277.078 18.1543 279.08 18.8093 280.551 20.1192Z" fill="white"/>
<path d="M54.6153 18.9417C53.9208 18.5573 53.1399 18.3557 52.346 18.3557C51.5521 18.3557 50.7712 18.5573 50.0767 18.9417L39.6611 24.9728L32.5977 28.9026L22.1664 34.9298C21.473 35.3173 20.6917 35.5208 19.8972 35.5208C19.1026 35.5208 18.3213 35.3173 17.6279 34.9298L9.3469 30.2203C8.67367 29.835 8.11131 29.2827 7.71413 28.6168C7.31696 27.951 7.0984 27.194 7.07958 26.4192V17.1093C7.07073 16.3287 7.27773 15.5607 7.67778 14.89C8.07783 14.2193 8.65541 13.672 9.3469 13.3082L17.4952 8.72349C18.1886 8.33593 18.9699 8.13244 19.7645 8.13244C20.559 8.13244 21.3403 8.33593 22.0337 8.72349L30.1782 13.3082C30.8516 13.6936 31.4143 14.2458 31.8121 14.9116C32.2099 15.5774 32.4294 16.3342 32.4494 17.1093V23.1366L39.5245 19.0742V13.0665C39.5334 12.2858 39.3263 11.5179 38.9263 10.8472C38.5262 10.1765 37.9487 9.62916 37.2572 9.2654L22.1664 0.591046C21.473 0.203489 20.6917 0 19.8972 0C19.1026 0 18.3213 0.203489 17.6279 0.591046L2.27176 9.24591C1.57628 9.6103 0.995699 10.1604 0.594694 10.835C0.193689 11.5095 -0.0119982 12.2821 0.000540909 13.0665V30.4932C-0.00837346 31.2744 0.199029 32.0428 0.599839 32.7136C1.00065 33.3844 1.57926 33.9314 2.27176 34.2943L17.6279 42.9414C18.3213 43.3289 19.1026 43.5324 19.8972 43.5324C20.6917 43.5324 21.473 43.3289 22.1664 42.9414L32.5977 37.0272L39.6611 32.9493L50.0767 27.0507C50.7712 26.6664 51.5521 26.4648 52.346 26.4648C53.1399 26.4648 53.9208 26.6664 54.6153 27.0507L62.7597 31.6394C63.4333 32.0236 63.9963 32.5749 64.3942 33.2402C64.7921 33.9054 65.0114 34.6619 65.0309 35.4366V44.7425C65.0395 45.5231 64.832 46.2909 64.4311 46.961C64.0303 47.6311 63.4519 48.1775 62.7597 48.5397L54.6153 53.257C53.9218 53.6446 53.1405 53.8481 52.346 53.8481C51.5514 53.8481 50.7701 53.6446 50.0767 53.257L41.9284 48.6723C41.2552 48.287 40.6928 47.7347 40.2956 47.0688C39.8985 46.403 39.6799 45.646 39.6611 44.8712V38.8595L32.5977 42.9219V48.9335C32.5883 49.7147 32.7955 50.4833 33.1964 51.1542C33.5972 51.8251 34.1761 52.3721 34.8689 52.7346L50.2094 61.409C50.9028 61.7965 51.6841 62 52.4787 62C53.2732 62 54.0545 61.7965 54.7479 61.409L70.1041 52.7619C70.7778 52.3768 71.3407 51.8246 71.7385 51.1588C72.1364 50.493 72.3557 49.736 72.3753 48.9608V31.5341C72.3833 30.7531 72.1756 29.9851 71.7748 29.3144C71.3741 28.6438 70.796 28.0966 70.1041 27.733L54.6153 18.9417Z" fill="#8247E5"/>
</g>
<defs>
<clipPath id="clip0_228_5410">
<rect width="283" height="62" fill="white"/>
</clipPath>
</defs>
</svg>
