<svg width="52" height="52" viewBox="0 0 52 52" fill="none" xmlns="http://www.w3.org/2000/svg">
<path opacity="0.2" d="M48.7732 14.3493C39.0338 13.3219 36.2062 7.44509 36.0883 7.19859C35.8919 6.78752 35.4994 6.5 35.0279 6.5C34.5568 6.5 34.1639 6.78781 33.9675 7.19859C33.8497 7.44512 31.0221 13.3219 21.2826 14.3493C20.6937 14.4316 20.2222 14.9247 20.2222 15.5823V25.7329C20.2222 37.5685 33.8889 45.048 34.478 45.3767C34.635 45.459 34.8314 45.5 35.0278 45.5C35.2242 45.5 35.3812 45.459 35.5776 45.3767C36.1665 45.0479 49.8333 37.5685 49.8333 25.7329V15.5823C49.8333 14.9657 49.3622 14.4313 48.7732 14.3493Z" fill="url(#paint0_linear_140_10933)"/>
<path opacity="0.1" d="M30.7177 14.3493C20.9782 13.3219 18.1506 7.44509 18.0328 7.19859C17.8364 6.78752 17.4438 6.5 16.9724 6.5C16.5012 6.5 16.1084 6.78781 15.912 7.19859C15.7942 7.44512 12.9666 13.3219 3.22708 14.3493C2.63812 14.4316 2.16667 14.9247 2.16667 15.5823V25.7329C2.16667 37.5685 15.8334 45.048 16.4224 45.3767C16.5794 45.459 16.7758 45.5 16.9722 45.5C17.1686 45.5 17.3256 45.459 17.522 45.3767C18.111 45.0479 31.7778 37.5685 31.7778 25.7329V15.5823C31.7778 14.9657 31.3066 14.4313 30.7177 14.3493Z" fill="url(#paint1_linear_140_10933)"/>
<path d="M39.4102 15.072C29.9083 14.0446 27.1496 8.16775 27.0347 7.92125C26.8431 7.51017 26.4601 7.22266 26.0002 7.22266C25.5405 7.22266 25.1572 7.51047 24.9656 7.92125C24.8507 8.16778 22.092 14.0446 12.5901 15.072C12.0155 15.1543 11.5556 15.6473 11.5556 16.3049V26.4556C11.5556 38.2912 24.8889 45.7706 25.4636 46.0994C25.6168 46.1817 25.8084 46.2227 26 46.2227C26.1916 46.2227 26.3448 46.1817 26.5364 46.0994C27.111 45.7706 40.4444 38.2912 40.4444 26.4556V16.3049C40.4444 15.6883 39.9848 15.154 39.4102 15.072Z" fill="url(#paint2_linear_140_10933)"/>
<path d="M32.0218 24.9193L25.9604 30.6357C25.6238 30.9503 25.2307 31.0553 24.8381 31.0553C24.445 31.0553 23.9964 30.898 23.7157 30.6357L20.6853 27.8039C20.0679 27.227 20.0679 26.2832 20.6853 25.6536C21.3026 25.0767 22.3126 25.0767 22.9864 25.6536L24.8945 27.4366L29.8334 22.8214C30.4508 22.2444 31.4608 22.2444 32.1346 22.8214C32.6392 23.3986 32.6391 24.3424 32.0218 24.9193Z" fill="#020202"/>
<path d="M32.0218 24.9193L25.9604 30.6357C25.6238 30.9503 25.2307 31.0553 24.8381 31.0553C24.445 31.0553 23.9964 30.898 23.7157 30.6357L20.6853 27.8039C20.0679 27.227 20.0679 26.2832 20.6853 25.6536C21.3026 25.0767 22.3126 25.0767 22.9864 25.6536L24.8945 27.4366L29.8334 22.8214C30.4508 22.2444 31.4608 22.2444 32.1346 22.8214C32.6392 23.3986 32.6391 24.3424 32.0218 24.9193Z" fill="url(#paint3_linear_140_10933)"/>
<path d="M32.0218 24.9193L25.9604 30.6357C25.6238 30.9503 25.2307 31.0553 24.8381 31.0553C24.445 31.0553 23.9964 30.898 23.7157 30.6357L20.6853 27.8039C20.0679 27.227 20.0679 26.2832 20.6853 25.6536C21.3026 25.0767 22.3126 25.0767 22.9864 25.6536L24.8945 27.4366L29.8334 22.8214C30.4508 22.2444 31.4608 22.2444 32.1346 22.8214C32.6392 23.3986 32.6391 24.3424 32.0218 24.9193Z" fill="url(#paint4_linear_140_10933)"/>
<path d="M32.0218 24.9193L25.9604 30.6357C25.6238 30.9503 25.2307 31.0553 24.8381 31.0553C24.445 31.0553 23.9964 30.898 23.7157 30.6357L20.6853 27.8039C20.0679 27.227 20.0679 26.2832 20.6853 25.6536C21.3026 25.0767 22.3126 25.0767 22.9864 25.6536L24.8945 27.4366L29.8334 22.8214C30.4508 22.2444 31.4608 22.2444 32.1346 22.8214C32.6392 23.3986 32.6391 24.3424 32.0218 24.9193Z" fill="#F5F7FF"/>
<defs>
<linearGradient id="paint0_linear_140_10933" x1="20.2222" y1="6.5" x2="62.6571" y2="30.1937" gradientUnits="userSpaceOnUse">
<stop offset="0.24238" stop-color="#36BEFF"/>
<stop offset="1" stop-color="#733FF1"/>
</linearGradient>
<linearGradient id="paint1_linear_140_10933" x1="2.16667" y1="6.5" x2="44.6015" y2="30.1937" gradientUnits="userSpaceOnUse">
<stop offset="0.24238" stop-color="#36BEFF"/>
<stop offset="1" stop-color="#733FF1"/>
</linearGradient>
<linearGradient id="paint2_linear_140_10933" x1="11.5556" y1="7.22266" x2="53.435" y2="30.0359" gradientUnits="userSpaceOnUse">
<stop offset="0.24238" stop-color="#36BEFF"/>
<stop offset="1" stop-color="#733FF1"/>
</linearGradient>
<linearGradient id="paint3_linear_140_10933" x1="-3.9497" y1="1.58212" x2="49.2766" y2="60.6817" gradientUnits="userSpaceOnUse">
<stop stop-color="#FFA34E"/>
<stop offset="0.410355" stop-color="#CC759A"/>
<stop offset="1" stop-color="#4A4BFF"/>
</linearGradient>
<linearGradient id="paint4_linear_140_10933" x1="3.09653" y1="1.58212" x2="55.713" y2="5.2256" gradientUnits="userSpaceOnUse">
<stop stop-color="#2AA2FF"/>
<stop offset="1" stop-color="#676AFF"/>
</linearGradient>
</defs>
</svg>
