<svg width="114" height="27" viewBox="0 0 114 27" fill="none" xmlns="http://www.w3.org/2000/svg">
<g clip-path="url(#clip0_369_8547)">
<path d="M29.439 20.66L24.6516 25.7932C24.548 25.9047 24.4227 25.9937 24.2832 26.0545C24.1438 26.1154 23.9932 26.1469 23.8411 26.1471H1.14705C1.03881 26.147 0.932941 26.1154 0.842397 26.0561C0.751856 25.9968 0.680575 25.9124 0.637281 25.8132C0.593986 25.714 0.580559 25.6043 0.598644 25.4976C0.616729 25.3909 0.665537 25.2917 0.739098 25.2123L5.52106 20.0791C5.62461 19.9677 5.75 19.8787 5.88946 19.8178C6.02889 19.7569 6.1794 19.7254 6.33156 19.7252H29.0256C29.1347 19.723 29.2423 19.7531 29.3344 19.8117C29.4265 19.8704 29.4995 19.955 29.5435 20.055C29.5878 20.1549 29.6013 20.2657 29.5827 20.3733C29.564 20.481 29.5141 20.5807 29.439 20.66ZM24.6516 10.3207C24.5477 10.2097 24.4222 10.1211 24.2828 10.0602C24.1435 9.99939 23.9931 9.96759 23.8411 9.9668H1.14705C1.03881 9.96686 0.932941 9.99847 0.842397 10.0578C0.751856 10.1171 0.680575 10.2015 0.637281 10.3007C0.593986 10.3999 0.580559 10.5096 0.598644 10.6163C0.616729 10.723 0.665537 10.8222 0.739098 10.9016L5.52106 16.0375C5.62499 16.1484 5.75048 16.2371 5.88983 16.2979C6.02919 16.3588 6.17951 16.3906 6.33156 16.3913H29.0256C29.1337 16.3908 29.239 16.3588 29.3293 16.2993C29.4195 16.2398 29.4903 16.1553 29.5332 16.0562C29.5762 15.9571 29.5894 15.8476 29.5711 15.7412C29.553 15.6347 29.5043 15.5358 29.4308 15.4566L24.6516 10.3207ZM1.14705 6.63291H23.8411C23.9932 6.63278 24.1438 6.60125 24.2832 6.54036C24.4227 6.47949 24.548 6.39049 24.6516 6.279L29.439 1.14583C29.5141 1.06655 29.564 0.966797 29.5827 0.859138C29.6013 0.751479 29.5878 0.640719 29.5435 0.540795C29.4995 0.440871 29.4265 0.356249 29.3344 0.297576C29.2423 0.238902 29.1347 0.2088 29.0256 0.211056H6.33156C6.1794 0.211216 6.02889 0.242724 5.88946 0.303616C5.75 0.364508 5.62461 0.453477 5.52106 0.564975L0.739098 5.69814C0.665537 5.77754 0.616729 5.87669 0.598644 5.98341C0.580559 6.09012 0.593986 6.19978 0.637281 6.29899C0.680575 6.39819 0.751856 6.48262 0.842397 6.54192C0.932941 6.60125 1.03881 6.63286 1.14705 6.63291Z" fill="url(#paint0_linear_369_8547)"/>
<path d="M46.8092 11.844C44.6492 11.244 43.5692 10.908 43.5692 9.852C43.5692 8.892 44.5772 8.484 45.8732 8.484C47.5292 8.484 48.6332 9.252 48.8252 10.548H53.1452C53.0252 7.068 49.8812 4.956 45.8732 4.956C42.1772 4.956 39.2492 6.42 39.2492 10.164C39.2492 13.332 41.8412 14.604 44.7932 15.468C47.2172 16.188 49.0652 16.5 49.0652 17.868C49.0652 18.732 48.2012 19.356 46.5932 19.356C44.6732 19.356 43.0892 18.684 43.0892 16.86H38.7692C38.7692 20.676 42.1292 22.884 46.5932 22.884C50.8892 22.884 53.3852 20.748 53.3852 17.46C53.3852 13.788 50.0492 12.732 46.8092 11.844ZM60.7854 22.884C56.6814 22.884 54.2094 20.172 54.2094 16.356C54.2094 12.54 56.6814 9.828 60.7854 9.828C64.8654 9.828 67.3374 12.54 67.3374 16.356C67.3374 20.172 64.8654 22.884 60.7854 22.884ZM60.7854 20.004C62.4654 20.004 63.4974 18.732 63.4974 16.356C63.4974 13.98 62.4654 12.708 60.7854 12.708C59.0814 12.708 58.0494 13.98 58.0494 16.356C58.0494 18.732 59.0814 20.004 60.7854 20.004ZM68.4439 5.34V22.5H72.2839V5.34H68.4439ZM81.1935 13.62C81.1935 14.652 79.6335 14.892 78.0495 15.204C75.1695 15.78 73.3695 16.908 73.3695 19.356C73.3695 21.42 74.8095 22.884 77.4015 22.884C79.0335 22.884 80.4735 22.116 81.2655 21.204H81.3135C81.3135 22.068 81.7935 22.884 83.5215 22.884C84.2895 22.884 84.9855 22.788 85.7535 22.5V21.588C85.2735 21.588 85.0335 21.324 85.0335 20.676V15.036C85.0335 11.172 83.1135 9.828 79.6575 9.828C75.6495 9.828 73.9695 11.82 73.8495 14.172H77.4495C77.5695 12.996 78.2415 12.468 79.6335 12.468C80.6895 12.468 81.1935 12.9 81.1935 13.62ZM78.7455 20.244C77.8095 20.244 77.2095 19.812 77.2095 18.804C77.2095 18.036 77.7135 17.412 79.2255 17.076C80.1135 16.884 80.7135 16.716 81.1935 16.524V18.012C81.1935 19.188 80.4015 20.244 78.7455 20.244ZM94.8911 9.828C92.7071 9.828 91.5071 10.86 90.8591 11.988H90.8111V10.212H86.9711V22.5H90.8111V15.396C90.8111 13.692 91.6511 12.948 93.1151 12.948C94.3871 12.948 95.0351 13.572 95.0351 15.42V22.5H98.8751V14.196C98.8751 11.388 97.2671 9.828 94.8911 9.828ZM107.667 13.62C107.667 14.652 106.107 14.892 104.523 15.204C101.643 15.78 99.8426 16.908 99.8426 19.356C99.8426 21.42 101.283 22.884 103.875 22.884C105.507 22.884 106.947 22.116 107.739 21.204H107.787C107.787 22.068 108.267 22.884 109.995 22.884C110.763 22.884 111.459 22.788 112.227 22.5V21.588C111.747 21.588 111.507 21.324 111.507 20.676V15.036C111.507 11.172 109.587 9.828 106.131 9.828C102.123 9.828 100.443 11.82 100.323 14.172H103.923C104.043 12.996 104.715 12.468 106.107 12.468C107.163 12.468 107.667 12.9 107.667 13.62ZM105.219 20.244C104.283 20.244 103.683 19.812 103.683 18.804C103.683 18.036 104.187 17.412 105.699 17.076C106.587 16.884 107.187 16.716 107.667 16.524V18.012C107.667 19.188 106.875 20.244 105.219 20.244Z" fill="#020202"/>
</g>
<defs>
<linearGradient id="paint0_linear_369_8547" x1="3.03822" y1="26.7658" x2="26.8345" y2="-0.0618131" gradientUnits="userSpaceOnUse">
<stop offset="0.08" stop-color="#9945FF"/>
<stop offset="0.3" stop-color="#8752F3"/>
<stop offset="0.5" stop-color="#5497D5"/>
<stop offset="0.6" stop-color="#43B4CA"/>
<stop offset="0.72" stop-color="#28E0B9"/>
<stop offset="0.97" stop-color="#19FB9B"/>
</linearGradient>
<clipPath id="clip0_369_8547">
<rect width="112.818" height="27" fill="white" transform="translate(0.59082)"/>
</clipPath>
</defs>
</svg>
