<svg xmlns="http://www.w3.org/2000/svg" xmlns:xlink="http://www.w3.org/1999/xlink" width="2201" height="1065" fill="none" xmlns:v="https://vecta.io/nano"><style><![CDATA[.B{color-interpolation-filters:sRGB}.C{flood-opacity:0}.D{opacity:.9}.E{opacity:.7}]]></style><g clip-path="url(#h)"><path fill="url(#P)" d="M0 0h2200.29v1065H0z"/><path d="M-40 32h2200.29v1095.56H-40V32z" fill="url(#Q)"/><g opacity=".2" filter="url(#A)"><path d="M1424.63 1041.76c0 341.73-115.37 556.49-762.314 787.87C337.204 1884.04 115 1383.49 115 1041.76S408.17 423 769.813 423s654.817 277.029 654.817 618.76z" fill="#510191"/></g><g filter="url(#B)"><circle cx="1167.5" cy="616.5" r="314.5" fill="#c600f9"/></g><g clip-path="url(#i)"><g fill="#73fcc2"><path d="M1286.29 509.284l-34.76-23.052 3.17.668 34.76 23.051-3.16-.667"/><path d="M1289.46 509.952L1254.7 486.9l.91.274 34.77 23.052c-.18-.074-.45-.159-.92-.274"/><path d="M1290.37 510.225l-34.76-23.051a2.03 2.03 0 0 1 .31.162l34.77 23.052c-.08-.052-.17-.105-.31-.163"/></g><path d="M953.877 526.706l-34.766-23.052 332.419-17.42 34.76 23.051-332.413 17.421z" fill="url(#R)"/><g fill="#876cf1"><path d="M941.513 532.851L906.747 509.8c.835-.908 1.743-1.736 2.707-2.465l34.766 23.052c-.964.732-1.872 1.556-2.707 2.464z"/><path d="M944.22 530.387l-34.766-23.052a19.27 19.27 0 0 1 3.051-1.898l1.668-.729 34.766 23.052-1.668.728c-1.063.53-2.087 1.167-3.051 1.899"/><path d="M948.939 527.764l-34.766-23.052 1.261-.422 34.766 23.051-1.261.423"/><path d="M950.199 527.341l-34.766-23.052 1.238-.311 34.766 23.052-1.238.311z"/><path d="M951.434 527.031l-34.766-23.052 1.235-.211 34.766 23.051-1.235.212"/><path d="M952.669 526.814l-34.766-23.051 1.207-.114 34.766 23.051-1.207.114z"/></g><g fill="#d87dfb"><path d="M864.742 629.845l-34.763-23.051-.103-.07c-.688-.474-1.281-1.074-1.756-1.771l34.766 23.052a6.72 6.72 0 0 0 1.756 1.77l.103.071"/><path d="M862.883 628.001l-34.766-23.048a7.3 7.3 0 0 1-.511-.881l34.766 23.052c.151.31.322.602.511.88"/><path d="M862.369 627.122l-34.762-23.052c-.118-.239-.222-.487-.316-.744l34.766 23.052a7.69 7.69 0 0 0 .316.744"/><path d="M862.054 626.378l-34.763-23.052-.082-.236-.105-.358 34.766 23.052.105.358.082.236"/><path d="M861.867 625.781l-34.763-23.048-.138-.635 34.766 23.051.138.635"/><path d="M861.729 625.145l-34.763-23.052-.073-.484 34.766 23.052.073.484"/><path d="M861.659 624.659l-34.766-23.048-.065-1.029 34.766 23.052.065 1.028"/><path d="M861.594 623.634l-34.766-23.052.007-.561 34.766 23.052-.007.561"/><path d="M861.598 623.07l-34.763-23.051.007-.074 34.766 23.052-.007.073"/></g><path d="M864.302 616.681l-34.765-23.051 77.21-83.829 34.766 23.052-77.211 83.828z" fill="url(#S)"/><path d="M1290.69 510.398c1.27.847 2.22 2.111 2.73 3.637s.55 3.243.13 4.939c-.43 1.699-1.3 3.295-2.51 4.59l-77.28 83.831c-1.67 1.82-3.64 3.304-5.77 4.363s-4.37 1.667-6.6 1.785l-332.414 17.421c-1.586.081-3.092-.332-4.337-1.19s-2.171-2.116-2.668-3.635c-.155-.475-.25-.97-.316-1.476-.072-.833-.078-1.247-.054-1.664.062-.863.134-1.308.244-1.754a10.51 10.51 0 0 1 2.455-4.562l77.214-83.831c1.672-1.819 3.632-3.303 5.758-4.363s4.377-1.666 6.605-1.785l332.413-17.421c3.77.73 4.09.907 4.4 1.115z" fill="url(#T)"/><g fill="#d87dfb"><path d="M861.601 622.997l-34.767-23.049.075-.813 34.766 23.052-.075.813"/><path d="M861.678 622.188l-34.766-23.052a7.53 7.53 0 0 1 .17-.944c.125-.505.288-1.001.488-1.483l34.766 23.051a10.43 10.43 0 0 0-.488 1.484c-.07.281-.123.56-.17.944"/><path d="M862.336 619.759l-34.766-23.048c.466-1.124 1.136-2.176 1.967-3.081l34.766 23.051a10.56 10.56 0 0 0-1.967 3.081"/></g></g><g filter="url(#C)" class="D"><g filter="url(#D)"><rect x="1487.42" y="650.988" width="87.969" height="87.969" rx="43.985" transform="rotate(41.624 1487.42 650.988)" fill="url(#U)"/></g><rect x="1487.42" y="650.988" width="87.969" height="87.969" rx="43.985" transform="rotate(41.624 1487.42 650.988)" fill="url(#V)" class="E"/></g><g filter="url(#E)" class="D"><g filter="url(#F)"><rect x="1010.6" y="177.215" width="74.347" height="74.347" rx="37.173" transform="rotate(41.624 1010.6 177.215)" fill="url(#W)"/></g><rect x="1010.6" y="177.215" width="74.347" height="74.347" rx="37.173" transform="rotate(41.624 1010.6 177.215)" fill="url(#X)" class="E"/></g><g filter="url(#G)" class="D"><g filter="url(#H)"><rect x="1088.28" y="407.752" width="30.908" height="30.908" rx="15.454" transform="rotate(41.624 1088.28 407.752)" fill="url(#Y)"/></g><rect x="1088.28" y="407.752" width="30.908" height="30.908" rx="15.454" transform="rotate(41.624 1088.28 407.752)" fill="url(#Z)" class="E"/></g><g filter="url(#I)" class="D"><g filter="url(#J)"><rect x="1502.52" y="230.906" width="15.982" height="15.982" rx="7.991" transform="rotate(41.624 1502.52 230.906)" fill="url(#a)"/></g><rect x="1502.52" y="230.906" width="15.982" height="15.982" rx="7.991" transform="rotate(41.624 1502.52 230.906)" fill="url(#b)" class="E"/></g><g filter="url(#K)" class="D"><g filter="url(#L)"><rect x="1343.9" y="617.352" width="41.471" height="41.471" rx="20.735" transform="rotate(41.624 1343.9 617.352)" fill="url(#c)"/></g><rect x="1343.9" y="617.352" width="41.471" height="41.471" rx="20.735" transform="rotate(41.624 1343.9 617.352)" fill="url(#d)" class="E"/></g><g opacity=".74" filter="url(#M)"><path d="M1276.07 282.025l114 .994c.77.007 1.53.17 2.23.479s1.32.76 1.84 1.322l23.83 25.858c.37.399.61.896.7 1.43.08.534.01 1.081-.21 1.575s-.58.914-1.04 1.207-.99.446-1.53.441l-114-.995c-.77-.008-1.52-.172-2.22-.481a5.5 5.5 0 0 1-1.84-1.319l-23.84-25.859c-.37-.398-.61-.894-.7-1.428a2.75 2.75 0 0 1 .21-1.574 2.81 2.81 0 0 1 1.03-1.207c.46-.293.99-.447 1.54-.443z" fill="url(#e)"/></g><g filter="url(#N)"><path d="M608.461 370.027l128.702 1.123a6.33 6.33 0 0 1 2.51.541c.79.349 1.5.857 2.085 1.491l26.896 29.192a3.13 3.13 0 0 1 .788 1.614c.099.602.018 1.221-.231 1.779s-.658 1.031-1.175 1.361a3.15 3.15 0 0 1-1.732.498l-128.695-1.123c-.863-.009-1.715-.194-2.503-.543a6.3 6.3 0 0 1-2.078-1.489l-26.911-29.191c-.414-.45-.688-1.011-.787-1.613s-.019-1.219.229-1.777.656-1.031 1.172-1.362a3.16 3.16 0 0 1 1.73-.501z" fill="url(#f)"/></g><g filter="url(#O)"><path d="M1238.53 715.1l-142.44-1.608a7.04 7.04 0 0 1-2.78-.606c-.87-.389-1.66-.953-2.3-1.656l-29.68-32.385c-.46-.499-.76-1.121-.87-1.788s-.02-1.351.26-1.968a3.5 3.5 0 0 1 1.3-1.504c.57-.364 1.24-.554 1.92-.546l142.43 1.608a7.01 7.01 0 0 1 2.77.609c.87.389 1.65.952 2.3 1.653l29.7 32.384a3.53 3.53 0 0 1 .86 1.787 3.41 3.41 0 0 1-.26 1.967c-.27.616-.73 1.139-1.3 1.504s-1.23.555-1.91.549z" fill="url(#g)"/></g></g><defs><filter id="A" x="-158.65" y="149.35" width="1856.92" height="1958.02" filterUnits="userSpaceOnUse" class="B"><feFlood class="C"/><feBlend in="SourceGraphic"/><feGaussianBlur stdDeviation="136.825"/></filter><filter id="B" x="367.286" y="-183.714" width="1600.43" height="1600.43" filterUnits="userSpaceOnUse" class="B"><feFlood class="C"/><feBlend in="SourceGraphic"/><feGaussianBlur stdDeviation="242.857"/></filter><filter id="C" x="1433.1" y="655.1" width="115.97" height="115.969" filterUnits="userSpaceOnUse" class="B"><feFlood class="C"/><feBlend in="SourceGraphic"/><feGaussianBlur stdDeviation="7"/></filter><filter id="D" x="1431.39" y="653.388" width="126.375" height="126.374" filterUnits="userSpaceOnUse" class="B"><feFlood result="A" class="C"/><feColorMatrix in="SourceAlpha" values="0 0 0 0 0 0 0 0 0 0 0 0 0 0 0 0 0 0 127 0" result="B"/><feOffset dx="3.4914" dy="3.4914"/><feGaussianBlur stdDeviation="9.601"/><feComposite in2="B" operator="out"/><feColorMatrix values="0 0 0 0 0.552941 0 0 0 0 0.309804 0 0 0 0 0.968627 0 0 0 0.21 0"/><feBlend in2="A"/><feBlend in="SourceGraphic"/></filter><filter id="E" x="964.719" y="180.719" width="97.953" height="97.954" filterUnits="userSpaceOnUse" class="B"><feFlood class="C"/><feBlend in="SourceGraphic"/><feGaussianBlur stdDeviation="5.901"/></filter><filter id="F" x="963.243" y="179.243" width="106.805" height="106.806" filterUnits="userSpaceOnUse" class="B"><feFlood result="A" class="C"/><feColorMatrix in="SourceAlpha" values="0 0 0 0 0 0 0 0 0 0 0 0 0 0 0 0 0 0 127 0" result="B"/><feOffset dx="2.95073" dy="2.95073"/><feGaussianBlur stdDeviation="8.115"/><feComposite in2="B" operator="out"/><feColorMatrix values="0 0 0 0 0.552941 0 0 0 0 0.309804 0 0 0 0 0.968627 0 0 0 0.21 0"/><feBlend in2="A"/><feBlend in="SourceGraphic"/></filter><filter id="G" x="1069.21" y="409.209" width="40.722" height="40.722" filterUnits="userSpaceOnUse" class="B"><feFlood class="C"/><feBlend in="SourceGraphic"/><feGaussianBlur stdDeviation="2.453"/></filter><filter id="H" x="1068.6" y="408.595" width="44.402" height="44.402" filterUnits="userSpaceOnUse" class="B"><feFlood result="A" class="C"/><feColorMatrix in="SourceAlpha" values="0 0 0 0 0 0 0 0 0 0 0 0 0 0 0 0 0 0 127 0" result="B"/><feOffset dx="1.22668" dy="1.22668"/><feGaussianBlur stdDeviation="3.373"/><feComposite in2="B" operator="out"/><feColorMatrix values="0 0 0 0 0.552941 0 0 0 0 0.309804 0 0 0 0 0.968627 0 0 0 0.21 0"/><feBlend in2="A"/><feBlend in="SourceGraphic"/></filter><filter id="I" x="1490.29" y="229.291" width="25.795" height="25.794" filterUnits="userSpaceOnUse" class="B"><feFlood class="C"/><feBlend in="SourceGraphic"/><feGaussianBlur stdDeviation="2.453"/></filter><filter id="J" x="1489.68" y="228.677" width="29.475" height="29.474" filterUnits="userSpaceOnUse" class="B"><feFlood result="A" class="C"/><feColorMatrix in="SourceAlpha" values="0 0 0 0 0 0 0 0 0 0 0 0 0 0 0 0 0 0 127 0" result="B"/><feOffset dx="1.22668" dy="1.22668"/><feGaussianBlur stdDeviation="3.373"/><feComposite in2="B" operator="out"/><feColorMatrix values="0 0 0 0 0.552941 0 0 0 0 0.309804 0 0 0 0 0.968627 0 0 0 0.21 0"/><feBlend in2="A"/><feBlend in="SourceGraphic"/></filter><filter id="K" x="1310.86" y="611.863" width="69.523" height="69.522" filterUnits="userSpaceOnUse" class="B"><feFlood class="C"/><feBlend in="SourceGraphic"/><feGaussianBlur stdDeviation="7.013"/></filter><filter id="L" x="1310.56" y="611.565" width="76.486" height="76.485" filterUnits="userSpaceOnUse" class="B"><feFlood result="A" class="C"/><feColorMatrix in="SourceAlpha" values="0 0 0 0 0 0 0 0 0 0 0 0 0 0 0 0 0 0 127 0" result="B"/><feOffset dx="3.18312" dy="3.18312"/><feGaussianBlur stdDeviation="8.754"/><feComposite in2="B" operator="out"/><feColorMatrix values="0 0 0 0 0.552941 0 0 0 0 0.309804 0 0 0 0 0.968627 0 0 0 0.21 0"/><feBlend in2="A"/><feBlend in="SourceGraphic"/></filter><filter id="M" x="1255.51" y="264.275" width="180.946" height="68.805" filterUnits="userSpaceOnUse" class="B"><feFlood class="C"/><feBlend in="SourceGraphic"/><feGaussianBlur stdDeviation="8.875"/></filter><filter id="N" x="587.539" y="352.277" width="199.693" height="73.1" filterUnits="userSpaceOnUse" class="B"><feFlood class="C"/><feBlend in="SourceGraphic"/><feGaussianBlur stdDeviation="8.875"/></filter><filter id="O" x="1042.66" y="655.289" width="217.133" height="77.561" filterUnits="userSpaceOnUse" class="B"><feFlood class="C"/><feBlend in="SourceGraphic"/><feGaussianBlur stdDeviation="8.875"/></filter><linearGradient id="P" x1="0" y1="469" x2="2232" y2="532" xlink:href="#j"><stop offset=".75" stop-color="#010101"/><stop offset=".813" stop-color="#621fce"/><stop offset=".849" stop-color="#9250fb"/></linearGradient><linearGradient id="Q" x1="399.5" y1="558.28" x2="1006" y2="1075.28" xlink:href="#j"><stop/><stop offset=".806"/><stop offset=".977" stop-color="#7925fe"/><stop offset="1" stop-color="#914ffa"/></linearGradient><linearGradient id="R" x1="1179.26" y1="470.874" x2="944.139" y2="577.947" xlink:href="#j"><stop stop-color="#97ffd8"/><stop offset="1" stop-color="#bb86ff"/></linearGradient><linearGradient id="S" x1="890.326" y1="508.365" x2="880.724" y2="618.118" xlink:href="#j"><stop stop-color="#7f66ee"/><stop offset="1" stop-color="#c091ff"/></linearGradient><linearGradient id="T" x1="1264.65" y1="573.875" x2="877.357" y2="575.815" xlink:href="#j"><stop stop-color="#19fb9b"/><stop offset=".439" stop-color="#48accd"/><stop offset="1" stop-color="#9548fc"/></linearGradient><linearGradient id="U" x1="1585.35" y1="602.687" x2="1531.07" y2="785.403" xlink:href="#j"><stop stop-color="#ffc1cf"/><stop offset=".608" stop-color="#53f"/><stop offset=".885" stop-color="#19fb9b"/></linearGradient><radialGradient id="V" cx="0" cy="0" r="1" gradientTransform="translate(1540.63 667.747) rotate(111.462) scale(58.3349)" xlink:href="#j"><stop stop-color="#fff"/><stop offset="1" stop-color="#25e6b3" stop-opacity="0"/></radialGradient><linearGradient id="W" x1="1093.37" y1="136.394" x2="1047.49" y2="290.815" xlink:href="#j"><stop stop-color="#ffc1cf"/><stop offset=".608" stop-color="#53f"/><stop offset=".885" stop-color="#19fb9b"/></linearGradient><radialGradient id="X" cx="0" cy="0" r="1" gradientTransform="translate(1055.57 191.378) rotate(111.462) scale(49.3014)" xlink:href="#j"><stop stop-color="#fff"/><stop offset="1" stop-color="#25e6b3" stop-opacity="0"/></radialGradient><linearGradient id="Y" x1="1122.69" y1="390.782" x2="1103.62" y2="454.978" xlink:href="#j"><stop stop-color="#ffc1cf"/><stop offset=".608" stop-color="#53f"/><stop offset=".885" stop-color="#19fb9b"/></linearGradient><radialGradient id="Z" cx="0" cy="0" r="1" gradientTransform="translate(1106.98 413.64) rotate(111.462) scale(20.4956)" xlink:href="#j"><stop stop-color="#fff"/><stop offset="1" stop-color="#25e6b3" stop-opacity="0"/></radialGradient><linearGradient id="a" x1="1520.31" y1="222.131" x2="1510.45" y2="255.326" xlink:href="#j"><stop stop-color="#ffc1cf"/><stop offset=".608" stop-color="#53f"/><stop offset=".885" stop-color="#19fb9b"/></linearGradient><radialGradient id="b" cx="0" cy="0" r="1" gradientTransform="translate(1512.19 233.951) rotate(111.462) scale(10.5978)" xlink:href="#j"><stop stop-color="#fff"/><stop offset="1" stop-color="#25e6b3" stop-opacity="0"/></radialGradient><linearGradient id="c" x1="1390.06" y1="594.582" x2="1364.48" y2="680.718" xlink:href="#j"><stop stop-color="#ffc1cf"/><stop offset=".608" stop-color="#53f"/><stop offset=".885" stop-color="#19fb9b"/></linearGradient><radialGradient id="d" cx="0" cy="0" r="1" gradientTransform="translate(1368.98 625.252) rotate(111.462) scale(27.5003)" xlink:href="#j"><stop stop-color="#fff"/><stop offset="1" stop-color="#25e6b3" stop-opacity="0"/></radialGradient><linearGradient id="e" x1="1218.48" y1="230.494" x2="1436.56" y2="343.393" xlink:href="#j"><stop offset=".08" stop-color="#9945ff"/><stop offset=".3" stop-color="#8752f3"/><stop offset=".5" stop-color="#5497d5"/><stop offset=".6" stop-color="#43b4ca"/><stop offset=".742" stop-color="#28e0b9"/><stop offset=".97" stop-color="#19fb9b"/></linearGradient><linearGradient id="f" x1="543.452" y1="311.854" x2="789.645" y2="439.305" xlink:href="#j"><stop offset=".08" stop-color="#9945ff"/><stop offset=".3" stop-color="#8752f3"/><stop offset=".5" stop-color="#5497d5"/><stop offset=".6" stop-color="#43b4ca"/><stop offset=".742" stop-color="#28e0b9"/><stop offset=".97" stop-color="#19fb9b"/></linearGradient><linearGradient id="g" x1="1310.31" y1="779.667" x2="1038.2" y2="637.912" xlink:href="#j"><stop offset=".336" stop-color="#a927f6"/><stop offset=".5" stop-color="#5497d5"/><stop offset=".6" stop-color="#43b4ca"/><stop offset=".742" stop-color="#28e0b9"/><stop offset=".97" stop-color="#19fb9b"/></linearGradient><clipPath id="h"><path fill="#fff" d="M0 0h2200.29v1065H0z"/></clipPath><clipPath id="i"><path fill="#fff" transform="matrix(.996195 .087156 -.087156 .996195 839.358 449.264)" d="M0 0h459v179H0z"/></clipPath><linearGradient id="j" gradientUnits="userSpaceOnUse"/></defs></svg>