<svg width="621" height="627" viewBox="0 0 621 627" fill="none" xmlns="http://www.w3.org/2000/svg">
<g filter="url(#filter0_f_605_3928)">
<mask id="mask0_605_3928" style="mask-type:alpha" maskUnits="userSpaceOnUse" x="81" y="44" width="400" height="400">
<rect x="81" y="44" width="400" height="400" rx="200" fill="url(#paint0_radial_605_3928)" fill-opacity="0.8"/>
</mask>
<g mask="url(#mask0_605_3928)">
<path opacity="0.5" d="M-779 -87H661M-779 -39H661M-779 9H661M-779 57H661M-779 105H661M-779 153H661M-779 201H661M-779 249H661M-779 297H661M-779 345H661M-779 393H661M-779 441H661M-779 489H661M-779 537H661" stroke="url(#paint1_linear_605_3928)"/>
<g opacity="0.4">
<path d="M448.064 487.525L243.583 516.091L319.992 324.307L524.103 296.671L448.064 487.525Z" fill="url(#paint2_linear_605_3928)" stroke="url(#paint3_linear_605_3928)" stroke-width="1.99628" stroke-linejoin="bevel"/>
<path d="M395.216 133.03L191.294 162.899L320.108 324.254L524.19 296.628L395.216 133.03Z" fill="url(#paint4_linear_605_3928)" stroke="url(#paint5_linear_605_3928)" stroke-width="1.99628" stroke-linejoin="bevel"/>
<path d="M116.558 353.142L244.44 514.127L320.108 324.204L191.294 162.849L116.558 353.142Z" fill="url(#paint6_linear_605_3928)" stroke="url(#paint7_linear_605_3928)" stroke-width="1.99628" stroke-linejoin="bevel"/>
</g>
</g>
</g>
<g opacity="0.4">
<path d="M406.206 242.714L524.227 259.202L480.126 148.51L362.319 132.559L406.206 242.714Z" fill="url(#paint8_linear_605_3928)" stroke="url(#paint9_linear_605_3928)" stroke-width="1.99628" stroke-linejoin="bevel"/>
<path d="M436.709 38.1104L554.406 55.3497L480.059 148.479L362.269 132.534L436.709 38.1104Z" fill="url(#paint10_linear_605_3928)" stroke="url(#paint11_linear_605_3928)" stroke-width="1.99628" stroke-linejoin="bevel"/>
<path d="M597.541 165.152L523.731 258.068L480.058 148.45L554.406 55.3208L597.541 165.152Z" fill="url(#paint12_linear_605_3928)" stroke="url(#paint13_linear_605_3928)" stroke-width="1.99628" stroke-linejoin="bevel"/>
</g>
<g opacity="0.4">
<path d="M214.168 342.714L96.1472 359.202L140.248 248.51L258.055 232.559L214.168 342.714Z" fill="url(#paint14_linear_605_3928)" stroke="url(#paint15_linear_605_3928)" stroke-width="1.99628" stroke-linejoin="bevel"/>
<path d="M183.665 138.11L65.9675 155.35L140.315 248.479L258.105 232.534L183.665 138.11Z" fill="url(#paint16_linear_605_3928)" stroke="url(#paint17_linear_605_3928)" stroke-width="1.99628" stroke-linejoin="bevel"/>
<path d="M22.8317 265.152L96.6419 358.068L140.315 248.45L65.9673 155.321L22.8317 265.152Z" fill="url(#paint18_linear_605_3928)" stroke="url(#paint19_linear_605_3928)" stroke-width="1.99628" stroke-linejoin="bevel"/>
</g>
<g opacity="0.4">
<path d="M509.68 515.944L491.672 398.145L398.25 472.104L416.711 589.543L509.68 515.944Z" fill="url(#paint20_linear_605_3928)" stroke="url(#paint21_linear_605_3928)" stroke-width="1.99628" stroke-linejoin="bevel"/>
<path d="M304.913 545.323L287.718 427.62L398.241 472.177L416.703 589.599L304.913 545.323Z" fill="url(#paint22_linear_605_3928)" stroke="url(#paint23_linear_605_3928)" stroke-width="1.99628" stroke-linejoin="bevel"/>
<path d="M380.563 354.842L490.727 398.946L398.212 472.187L287.689 427.629L380.563 354.842Z" fill="url(#paint24_linear_605_3928)" stroke="url(#paint25_linear_605_3928)" stroke-width="1.99628" stroke-linejoin="bevel"/>
</g>
<rect x="110" y="113" width="400" height="400" rx="200" fill="white"/>
<g filter="url(#filter1_df_605_3928)">
<rect x="110" y="113" width="400" height="400" rx="200" fill="url(#paint26_radial_605_3928)" fill-opacity="0.5" shape-rendering="crispEdges"/>
</g>
<g filter="url(#filter2_f_605_3928)">
<mask id="mask1_605_3928" style="mask-type:alpha" maskUnits="userSpaceOnUse" x="110" y="113" width="400" height="400">
<rect x="110" y="113" width="400" height="400" rx="200" fill="url(#paint27_radial_605_3928)" fill-opacity="0.8"/>
</mask>
<g mask="url(#mask1_605_3928)">
<path opacity="0.5" d="M-750 -18H690M-750 30H690M-750 78H690M-750 126H690M-750 174H690M-750 222H690M-750 270H690M-750 318H690M-750 366H690M-750 414H690M-750 462H690M-750 510H690M-750 558H690M-750 606H690" stroke="url(#paint28_linear_605_3928)"/>
<g opacity="0.4">
<path d="M477.064 556.525L272.583 585.091L348.992 393.307L553.103 365.671L477.064 556.525Z" fill="url(#paint29_linear_605_3928)" stroke="url(#paint30_linear_605_3928)" stroke-width="1.99628" stroke-linejoin="bevel"/>
<path d="M424.216 202.03L220.294 231.899L349.108 393.254L553.19 365.628L424.216 202.03Z" fill="url(#paint31_linear_605_3928)" stroke="url(#paint32_linear_605_3928)" stroke-width="1.99628" stroke-linejoin="bevel"/>
<path d="M145.558 422.142L273.44 583.127L349.108 393.204L220.294 231.849L145.558 422.142Z" fill="url(#paint33_linear_605_3928)" stroke="url(#paint34_linear_605_3928)" stroke-width="1.99628" stroke-linejoin="bevel"/>
</g>
</g>
</g>
<defs>
<filter id="filter0_f_605_3928" x="65" y="28" width="432" height="432" filterUnits="userSpaceOnUse" color-interpolation-filters="sRGB">
<feFlood flood-opacity="0" result="BackgroundImageFix"/>
<feBlend mode="normal" in="SourceGraphic" in2="BackgroundImageFix" result="shape"/>
<feGaussianBlur stdDeviation="8" result="effect1_foregroundBlur_605_3928"/>
</filter>
<filter id="filter1_df_605_3928" x="76" y="79" width="468" height="468" filterUnits="userSpaceOnUse" color-interpolation-filters="sRGB">
<feFlood flood-opacity="0" result="BackgroundImageFix"/>
<feColorMatrix in="SourceAlpha" type="matrix" values="0 0 0 0 0 0 0 0 0 0 0 0 0 0 0 0 0 0 127 0" result="hardAlpha"/>
<feOffset/>
<feGaussianBlur stdDeviation="15"/>
<feComposite in2="hardAlpha" operator="out"/>
<feColorMatrix type="matrix" values="0 0 0 0 0.211765 0 0 0 0 0.745098 0 0 0 0 1 0 0 0 0.44 0"/>
<feBlend mode="normal" in2="BackgroundImageFix" result="effect1_dropShadow_605_3928"/>
<feBlend mode="normal" in="SourceGraphic" in2="effect1_dropShadow_605_3928" result="shape"/>
<feGaussianBlur stdDeviation="17" result="effect2_foregroundBlur_605_3928"/>
</filter>
<filter id="filter2_f_605_3928" x="94" y="97" width="432" height="432" filterUnits="userSpaceOnUse" color-interpolation-filters="sRGB">
<feFlood flood-opacity="0" result="BackgroundImageFix"/>
<feBlend mode="normal" in="SourceGraphic" in2="BackgroundImageFix" result="shape"/>
<feGaussianBlur stdDeviation="8" result="effect1_foregroundBlur_605_3928"/>
</filter>
<radialGradient id="paint0_radial_605_3928" cx="0" cy="0" r="1" gradientUnits="userSpaceOnUse" gradientTransform="translate(365.259 416.5) rotate(14.65) scale(270.842 374.681)">
<stop offset="0.24238" stop-color="#73FCC2"/>
<stop offset="1" stop-color="#50D5FF"/>
</radialGradient>
<linearGradient id="paint1_linear_605_3928" x1="-526" y1="-239.5" x2="-624.018" y2="922.868" gradientUnits="userSpaceOnUse">
<stop offset="0.193551" stop-color="#A7CAFF" stop-opacity="0.01"/>
<stop offset="0.734758" stop-color="#36BEFF"/>
</linearGradient>
<linearGradient id="paint2_linear_605_3928" x1="322.501" y1="306.575" x2="460.882" y2="520.725" gradientUnits="userSpaceOnUse">
<stop stop-color="#FFAA8F"/>
<stop offset="1" stop-color="white" stop-opacity="0.8"/>
</linearGradient>
<linearGradient id="paint3_linear_605_3928" x1="357.455" y1="230.277" x2="576.87" y2="449.169" gradientUnits="userSpaceOnUse">
<stop offset="0.24238" stop-color="#36BEFF"/>
<stop offset="1" stop-color="#733FF1"/>
</linearGradient>
<linearGradient id="paint4_linear_605_3928" x1="396.136" y1="133.397" x2="320.098" y2="324.25" gradientUnits="userSpaceOnUse">
<stop stop-color="#FFAA8F"/>
<stop offset="0.604167" stop-color="#FCF4D8" stop-opacity="0.33"/>
</linearGradient>
<linearGradient id="paint5_linear_605_3928" x1="229.499" y1="67.0068" x2="344.998" y2="464.933" gradientUnits="userSpaceOnUse">
<stop offset="0.24238" stop-color="#36BEFF"/>
<stop offset="1" stop-color="#733FF1"/>
</linearGradient>
<linearGradient id="paint6_linear_605_3928" x1="156.441" y1="238.893" x2="294.34" y2="453.021" gradientUnits="userSpaceOnUse">
<stop stop-color="#FFAA8F"/>
<stop offset="1" stop-color="#FFAA8F" stop-opacity="0.21"/>
</linearGradient>
<linearGradient id="paint7_linear_605_3928" x1="191.294" y1="162.849" x2="410.339" y2="381.889" gradientUnits="userSpaceOnUse">
<stop offset="0.24238" stop-color="#36BEFF"/>
<stop offset="1" stop-color="#733FF1"/>
</linearGradient>
<linearGradient id="paint8_linear_605_3928" x1="478.678" y1="138.275" x2="398.808" y2="261.876" gradientUnits="userSpaceOnUse">
<stop stop-color="#FFAA8F"/>
<stop offset="1" stop-color="white" stop-opacity="0.8"/>
</linearGradient>
<linearGradient id="paint9_linear_605_3928" x1="458.503" y1="94.2383" x2="331.864" y2="220.576" gradientUnits="userSpaceOnUse">
<stop offset="0.24238" stop-color="#36BEFF"/>
<stop offset="1" stop-color="#733FF1"/>
</linearGradient>
<linearGradient id="paint10_linear_605_3928" x1="436.178" y1="38.322" x2="480.065" y2="148.477" gradientUnits="userSpaceOnUse">
<stop stop-color="#FFAA8F"/>
<stop offset="0.604167" stop-color="#FCF4D8" stop-opacity="0.33"/>
</linearGradient>
<linearGradient id="paint11_linear_605_3928" x1="532.356" y1="0.00366211" x2="465.693" y2="229.675" gradientUnits="userSpaceOnUse">
<stop offset="0.24238" stop-color="#36BEFF"/>
<stop offset="1" stop-color="#733FF1"/>
</linearGradient>
<linearGradient id="paint12_linear_605_3928" x1="574.522" y1="99.2112" x2="494.93" y2="222.8" gradientUnits="userSpaceOnUse">
<stop stop-color="#FFAA8F"/>
<stop offset="1" stop-color="#FFAA8F" stop-opacity="0.21"/>
</linearGradient>
<linearGradient id="paint13_linear_605_3928" x1="554.406" y1="55.3208" x2="427.98" y2="181.744" gradientUnits="userSpaceOnUse">
<stop offset="0.24238" stop-color="#36BEFF"/>
<stop offset="1" stop-color="#733FF1"/>
</linearGradient>
<linearGradient id="paint14_linear_605_3928" x1="141.696" y1="238.275" x2="221.566" y2="361.876" gradientUnits="userSpaceOnUse">
<stop stop-color="#FFAA8F"/>
<stop offset="1" stop-color="white" stop-opacity="0.8"/>
</linearGradient>
<linearGradient id="paint15_linear_605_3928" x1="161.871" y1="194.238" x2="288.51" y2="320.576" gradientUnits="userSpaceOnUse">
<stop offset="0.24238" stop-color="#36BEFF"/>
<stop offset="1" stop-color="#733FF1"/>
</linearGradient>
<linearGradient id="paint16_linear_605_3928" x1="184.196" y1="138.322" x2="140.309" y2="248.477" gradientUnits="userSpaceOnUse">
<stop stop-color="#FFAA8F"/>
<stop offset="0.604167" stop-color="#FCF4D8" stop-opacity="0.33"/>
</linearGradient>
<linearGradient id="paint17_linear_605_3928" x1="88.0181" y1="100.004" x2="154.681" y2="329.675" gradientUnits="userSpaceOnUse">
<stop offset="0.24238" stop-color="#36BEFF"/>
<stop offset="1" stop-color="#733FF1"/>
</linearGradient>
<linearGradient id="paint18_linear_605_3928" x1="45.8511" y1="199.211" x2="125.443" y2="322.8" gradientUnits="userSpaceOnUse">
<stop stop-color="#FFAA8F"/>
<stop offset="1" stop-color="#FFAA8F" stop-opacity="0.21"/>
</linearGradient>
<linearGradient id="paint19_linear_605_3928" x1="65.9673" y1="155.321" x2="192.393" y2="281.744" gradientUnits="userSpaceOnUse">
<stop offset="0.24238" stop-color="#36BEFF"/>
<stop offset="1" stop-color="#733FF1"/>
</linearGradient>
<linearGradient id="paint20_linear_605_3928" x1="388.859" y1="476.423" x2="530.158" y2="517.543" gradientUnits="userSpaceOnUse">
<stop stop-color="#FFAA8F"/>
<stop offset="1" stop-color="white" stop-opacity="0.8"/>
</linearGradient>
<linearGradient id="paint21_linear_605_3928" x1="352.446" y1="508.366" x2="509.764" y2="593.512" gradientUnits="userSpaceOnUse">
<stop offset="0.24238" stop-color="#36BEFF"/>
<stop offset="1" stop-color="#733FF1"/>
</linearGradient>
<linearGradient id="paint22_linear_605_3928" x1="305.268" y1="545.772" x2="398.237" y2="472.172" gradientUnits="userSpaceOnUse">
<stop stop-color="#FFAA8F"/>
<stop offset="0.604167" stop-color="#FFAA8F" stop-opacity="0"/>
</linearGradient>
<linearGradient id="paint23_linear_605_3928" x1="241.007" y1="464.599" x2="480.149" y2="462.684" gradientUnits="userSpaceOnUse">
<stop offset="0.24238" stop-color="#36BEFF"/>
<stop offset="1" stop-color="#733FF1"/>
</linearGradient>
<linearGradient id="paint24_linear_605_3928" x1="323.979" y1="395.784" x2="465.186" y2="436.642" gradientUnits="userSpaceOnUse">
<stop stop-color="#FFAA8F"/>
<stop offset="1" stop-color="#FFAA8F" stop-opacity="0.21"/>
</linearGradient>
<linearGradient id="paint25_linear_605_3928" x1="287.689" y1="427.629" x2="445.028" y2="512.547" gradientUnits="userSpaceOnUse">
<stop offset="0.24238" stop-color="#36BEFF"/>
<stop offset="1" stop-color="#733FF1"/>
</linearGradient>
<radialGradient id="paint26_radial_605_3928" cx="0" cy="0" r="1" gradientUnits="userSpaceOnUse" gradientTransform="translate(397 402) rotate(30.3789) scale(300.564 415.797)">
<stop offset="0.24238" stop-color="white"/>
<stop offset="1" stop-color="#CFD9F0"/>
</radialGradient>
<radialGradient id="paint27_radial_605_3928" cx="0" cy="0" r="1" gradientUnits="userSpaceOnUse" gradientTransform="translate(394.259 485.5) rotate(14.65) scale(270.842 374.681)">
<stop offset="0.24238" stop-color="#73FCC2"/>
<stop offset="1" stop-color="#50D5FF"/>
</radialGradient>
<linearGradient id="paint28_linear_605_3928" x1="-497" y1="-170.5" x2="-595.018" y2="991.868" gradientUnits="userSpaceOnUse">
<stop offset="0.193551" stop-color="#A7CAFF" stop-opacity="0.01"/>
<stop offset="0.734758" stop-color="#36BEFF"/>
</linearGradient>
<linearGradient id="paint29_linear_605_3928" x1="351.501" y1="375.575" x2="489.882" y2="589.725" gradientUnits="userSpaceOnUse">
<stop stop-color="#FFAA8F"/>
<stop offset="1" stop-color="white" stop-opacity="0.8"/>
</linearGradient>
<linearGradient id="paint30_linear_605_3928" x1="386.455" y1="299.277" x2="605.87" y2="518.169" gradientUnits="userSpaceOnUse">
<stop offset="0.24238" stop-color="#36BEFF"/>
<stop offset="1" stop-color="#733FF1"/>
</linearGradient>
<linearGradient id="paint31_linear_605_3928" x1="425.136" y1="202.397" x2="349.098" y2="393.25" gradientUnits="userSpaceOnUse">
<stop stop-color="#FFAA8F"/>
<stop offset="0.604167" stop-color="#FCF4D8" stop-opacity="0.33"/>
</linearGradient>
<linearGradient id="paint32_linear_605_3928" x1="258.499" y1="136.007" x2="373.998" y2="533.933" gradientUnits="userSpaceOnUse">
<stop offset="0.24238" stop-color="#36BEFF"/>
<stop offset="1" stop-color="#733FF1"/>
</linearGradient>
<linearGradient id="paint33_linear_605_3928" x1="185.441" y1="307.893" x2="323.34" y2="522.021" gradientUnits="userSpaceOnUse">
<stop stop-color="#FFAA8F"/>
<stop offset="1" stop-color="#FFAA8F" stop-opacity="0.21"/>
</linearGradient>
<linearGradient id="paint34_linear_605_3928" x1="220.294" y1="231.849" x2="439.339" y2="450.889" gradientUnits="userSpaceOnUse">
<stop offset="0.24238" stop-color="#36BEFF"/>
<stop offset="1" stop-color="#733FF1"/>
</linearGradient>
</defs>
</svg>
