<svg width="648" height="450" viewBox="0 0 648 450" fill="none" xmlns="http://www.w3.org/2000/svg">
<g clip-path="url(#clip0_561_3073)">
<rect width="648" height="450" rx="32" fill="#CFD9F0"/>
<g opacity="0.4" clip-path="url(#clip1_561_3073)">
<path d="M25.0938 -191.021V846.972" stroke="url(#paint0_linear_561_3073)" stroke-width="0.911524" stroke-miterlimit="10"/>
<path d="M55.0439 -191.021V846.972" stroke="url(#paint1_linear_561_3073)" stroke-width="0.911524" stroke-miterlimit="10"/>
<path d="M84.9932 -191.021V846.972" stroke="url(#paint2_linear_561_3073)" stroke-width="0.911524" stroke-miterlimit="10"/>
<path d="M114.943 -191.021V846.972" stroke="url(#paint3_linear_561_3073)" stroke-width="0.911524" stroke-miterlimit="10"/>
<path d="M144.889 -191.021V846.972" stroke="url(#paint4_linear_561_3073)" stroke-width="0.911524" stroke-miterlimit="10"/>
<path d="M174.838 -191.021V846.972" stroke="url(#paint5_linear_561_3073)" stroke-width="0.911524" stroke-miterlimit="10"/>
<path d="M204.787 -191.021V846.972" stroke="url(#paint6_linear_561_3073)" stroke-width="0.911524" stroke-miterlimit="10"/>
<path d="M234.737 -191.021V846.972" stroke="url(#paint7_linear_561_3073)" stroke-width="0.911524" stroke-miterlimit="10"/>
<path d="M264.687 -191.021V846.972" stroke="url(#paint8_linear_561_3073)" stroke-width="0.911524" stroke-miterlimit="10"/>
<path d="M294.632 -191.021V846.972" stroke="url(#paint9_linear_561_3073)" stroke-width="0.911524" stroke-miterlimit="10"/>
<path d="M324.581 -191.021V846.972" stroke="url(#paint10_linear_561_3073)" stroke-width="0.911524" stroke-miterlimit="10"/>
<path d="M354.53 -191.021V846.972" stroke="url(#paint11_linear_561_3073)" stroke-width="0.911524" stroke-miterlimit="10"/>
<path d="M384.48 -191.021V846.972" stroke="url(#paint12_linear_561_3073)" stroke-width="0.911524" stroke-miterlimit="10"/>
<path d="M414.43 -191.021V846.972" stroke="url(#paint13_linear_561_3073)" stroke-width="0.911524" stroke-miterlimit="10"/>
<path d="M444.376 -191.021V846.972" stroke="url(#paint14_linear_561_3073)" stroke-width="0.911524" stroke-miterlimit="10"/>
<path d="M474.325 -191.021V846.972" stroke="url(#paint15_linear_561_3073)" stroke-width="0.911524" stroke-miterlimit="10"/>
<path d="M504.275 -191.021V846.972" stroke="url(#paint16_linear_561_3073)" stroke-width="0.911524" stroke-miterlimit="10"/>
<path d="M534.226 -191.021V846.972" stroke="url(#paint17_linear_561_3073)" stroke-width="0.911524" stroke-miterlimit="10"/>
<path d="M564.175 -191.021V846.972" stroke="url(#paint18_linear_561_3073)" stroke-width="0.911524" stroke-miterlimit="10"/>
<path d="M594.12 -191.021V846.972" stroke="url(#paint19_linear_561_3073)" stroke-width="0.911524" stroke-miterlimit="10"/>
<path d="M624.07 -191.021V846.972" stroke="url(#paint20_linear_561_3073)" stroke-width="0.911524" stroke-miterlimit="10"/>
<path d="M-334.525 431.583L564.406 950.58" stroke="url(#paint21_linear_561_3073)" stroke-width="0.911524" stroke-miterlimit="10"/>
<path d="M-319.551 405.647L579.381 924.644" stroke="url(#paint22_linear_561_3073)" stroke-width="0.911524" stroke-miterlimit="10"/>
<path d="M-304.575 379.711L594.357 898.708" stroke="url(#paint23_linear_561_3073)" stroke-width="0.911524" stroke-miterlimit="10"/>
<path d="M-289.601 353.776L609.327 872.773" stroke="url(#paint24_linear_561_3073)" stroke-width="0.911524" stroke-miterlimit="10"/>
<path d="M-274.626 327.841L624.301 846.837" stroke="url(#paint25_linear_561_3073)" stroke-width="0.911524" stroke-miterlimit="10"/>
<path d="M-259.65 301.905L639.277 820.897" stroke="url(#paint26_linear_561_3073)" stroke-width="0.911524" stroke-miterlimit="10"/>
<path d="M-244.677 275.965L654.251 794.961" stroke="url(#paint27_linear_561_3073)" stroke-width="0.911524" stroke-miterlimit="10"/>
<path d="M-229.702 250.029L669.225 769.025" stroke="url(#paint28_linear_561_3073)" stroke-width="0.911524" stroke-miterlimit="10"/>
<path d="M-214.727 224.094L684.201 743.091" stroke="url(#paint29_linear_561_3073)" stroke-width="0.911524" stroke-miterlimit="10"/>
<path d="M-199.752 198.158L699.175 717.155" stroke="url(#paint30_linear_561_3073)" stroke-width="0.911524" stroke-miterlimit="10"/>
<path d="M-184.781 172.222L714.151 691.219" stroke="url(#paint31_linear_561_3073)" stroke-width="0.911524" stroke-miterlimit="10"/>
<path d="M-169.807 146.285L729.125 665.282" stroke="url(#paint32_linear_561_3073)" stroke-width="0.911524" stroke-miterlimit="10"/>
<path d="M-154.831 120.345L744.096 639.342" stroke="url(#paint33_linear_561_3073)" stroke-width="0.911524" stroke-miterlimit="10"/>
<path d="M-139.856 94.4105L759.071 613.407" stroke="url(#paint34_linear_561_3073)" stroke-width="0.911524" stroke-miterlimit="10"/>
<path d="M-124.883 68.4736L774.044 587.47" stroke="url(#paint35_linear_561_3073)" stroke-width="0.911524" stroke-miterlimit="10"/>
<path d="M-109.906 42.5388L789.021 561.535" stroke="url(#paint36_linear_561_3073)" stroke-width="0.911524" stroke-miterlimit="10"/>
<path d="M-94.9326 16.604L803.995 535.601" stroke="url(#paint37_linear_561_3073)" stroke-width="0.911524" stroke-miterlimit="10"/>
<path d="M-79.958 -9.33401L818.969 509.663" stroke="url(#paint38_linear_561_3073)" stroke-width="0.911524" stroke-miterlimit="10"/>
<path d="M-64.9824 -35.2688L833.945 483.728" stroke="url(#paint39_linear_561_3073)" stroke-width="0.911524" stroke-miterlimit="10"/>
<path d="M-50.0078 -61.2078L848.92 457.789" stroke="url(#paint40_linear_561_3073)" stroke-width="0.911524" stroke-miterlimit="10"/>
<path d="M-35.0371 -87.1437L863.895 431.853" stroke="url(#paint41_linear_561_3073)" stroke-width="0.911524" stroke-miterlimit="10"/>
<path d="M-20.0625 -113.081L878.869 405.916" stroke="url(#paint42_linear_561_3073)" stroke-width="0.911524" stroke-miterlimit="10"/>
<path d="M-5.08691 -139.015L893.84 379.981" stroke="url(#paint43_linear_561_3073)" stroke-width="0.911524" stroke-miterlimit="10"/>
<path d="M9.88672 -164.951L908.814 354.045" stroke="url(#paint44_linear_561_3073)" stroke-width="0.911524" stroke-miterlimit="10"/>
<path d="M24.8613 -190.887L923.789 328.11" stroke="url(#paint45_linear_561_3073)" stroke-width="0.911524" stroke-miterlimit="10"/>
<path d="M39.8369 -216.822L938.764 302.17" stroke="url(#paint46_linear_561_3073)" stroke-width="0.911524" stroke-miterlimit="10"/>
<path d="M54.8115 -242.762L953.739 276.235" stroke="url(#paint47_linear_561_3073)" stroke-width="0.911524" stroke-miterlimit="10"/>
<path d="M69.7861 -268.699L968.713 250.298" stroke="url(#paint48_linear_561_3073)" stroke-width="0.911524" stroke-miterlimit="10"/>
<path d="M84.7617 -294.635L983.689 224.362" stroke="url(#paint49_linear_561_3073)" stroke-width="0.911524" stroke-miterlimit="10"/>
<path d="M99.7363 -320.57L998.664 198.427" stroke="url(#paint50_linear_561_3073)" stroke-width="0.911524" stroke-miterlimit="10"/>
<path d="M114.706 -346.504L1013.64 172.492" stroke="url(#paint51_linear_561_3073)" stroke-width="0.911524" stroke-miterlimit="10"/>
<path d="M129.681 -372.442L1028.61 146.554" stroke="url(#paint52_linear_561_3073)" stroke-width="0.911524" stroke-miterlimit="10"/>
<path d="M144.657 -398.381L1043.58 120.615" stroke="url(#paint53_linear_561_3073)" stroke-width="0.911524" stroke-miterlimit="10"/>
<path d="M159.631 -424.317L1058.56 94.6794" stroke="url(#paint54_linear_561_3073)" stroke-width="0.911524" stroke-miterlimit="10"/>
<path d="M983.689 431.583L84.7617 950.58" stroke="url(#paint55_linear_561_3073)" stroke-width="0.911524" stroke-miterlimit="10"/>
<path d="M968.713 405.648L69.7861 924.645" stroke="url(#paint56_linear_561_3073)" stroke-width="0.911524" stroke-miterlimit="10"/>
<path d="M953.739 379.711L54.8115 898.708" stroke="url(#paint57_linear_561_3073)" stroke-width="0.911524" stroke-miterlimit="10"/>
<path d="M938.764 353.776L39.8369 872.773" stroke="url(#paint58_linear_561_3073)" stroke-width="0.911524" stroke-miterlimit="10"/>
<path d="M923.789 327.841L24.8613 846.837" stroke="url(#paint59_linear_561_3073)" stroke-width="0.911524" stroke-miterlimit="10"/>
<path d="M908.814 301.905L9.88672 820.897" stroke="url(#paint60_linear_561_3073)" stroke-width="0.911524" stroke-miterlimit="10"/>
<path d="M893.839 275.965L-5.08789 794.961" stroke="url(#paint61_linear_561_3073)" stroke-width="0.911524" stroke-miterlimit="10"/>
<path d="M878.869 250.029L-20.0625 769.025" stroke="url(#paint62_linear_561_3073)" stroke-width="0.911524" stroke-miterlimit="10"/>
<path d="M863.895 224.094L-35.0371 743.091" stroke="url(#paint63_linear_561_3073)" stroke-width="0.911524" stroke-miterlimit="10"/>
<path d="M848.92 198.157L-50.0078 717.154" stroke="url(#paint64_linear_561_3073)" stroke-width="0.911524" stroke-miterlimit="10"/>
<path d="M833.945 172.222L-64.9824 691.219" stroke="url(#paint65_linear_561_3073)" stroke-width="0.911524" stroke-miterlimit="10"/>
<path d="M818.969 146.285L-79.958 665.282" stroke="url(#paint66_linear_561_3073)" stroke-width="0.911524" stroke-miterlimit="10"/>
<path d="M803.995 120.345L-94.9326 639.342" stroke="url(#paint67_linear_561_3073)" stroke-width="0.911524" stroke-miterlimit="10"/>
<path d="M789.021 94.4105L-109.906 613.407" stroke="url(#paint68_linear_561_3073)" stroke-width="0.911524" stroke-miterlimit="10"/>
<path d="M774.044 68.4736L-124.883 587.47" stroke="url(#paint69_linear_561_3073)" stroke-width="0.911524" stroke-miterlimit="10"/>
<path d="M759.071 42.5388L-139.856 561.535" stroke="url(#paint70_linear_561_3073)" stroke-width="0.911524" stroke-miterlimit="10"/>
<path d="M744.096 16.604L-154.831 535.601" stroke="url(#paint71_linear_561_3073)" stroke-width="0.911524" stroke-miterlimit="10"/>
<path d="M729.125 -9.33401L-169.807 509.663" stroke="url(#paint72_linear_561_3073)" stroke-width="0.911524" stroke-miterlimit="10"/>
<path d="M714.151 -35.2688L-184.781 483.728" stroke="url(#paint73_linear_561_3073)" stroke-width="0.911524" stroke-miterlimit="10"/>
<path d="M699.175 -61.2078L-199.752 457.789" stroke="url(#paint74_linear_561_3073)" stroke-width="0.911524" stroke-miterlimit="10"/>
<path d="M684.201 -87.1437L-214.727 431.853" stroke="url(#paint75_linear_561_3073)" stroke-width="0.911524" stroke-miterlimit="10"/>
<path d="M669.225 -113.08L-229.702 405.917" stroke="url(#paint76_linear_561_3073)" stroke-width="0.911524" stroke-miterlimit="10"/>
<path d="M654.251 -139.015L-244.677 379.981" stroke="url(#paint77_linear_561_3073)" stroke-width="0.911524" stroke-miterlimit="10"/>
<path d="M639.277 -164.951L-259.65 354.045" stroke="url(#paint78_linear_561_3073)" stroke-width="0.911524" stroke-miterlimit="10"/>
<path d="M624.301 -190.887L-274.626 328.11" stroke="url(#paint79_linear_561_3073)" stroke-width="0.911524" stroke-miterlimit="10"/>
<path d="M609.327 -216.822L-289.601 302.17" stroke="url(#paint80_linear_561_3073)" stroke-width="0.911524" stroke-miterlimit="10"/>
<path d="M594.357 -242.762L-304.575 276.235" stroke="url(#paint81_linear_561_3073)" stroke-width="0.911524" stroke-miterlimit="10"/>
<path d="M579.381 -268.699L-319.551 250.298" stroke="url(#paint82_linear_561_3073)" stroke-width="0.911524" stroke-miterlimit="10"/>
<path d="M564.406 -294.635L-334.525 224.362" stroke="url(#paint83_linear_561_3073)" stroke-width="0.911524" stroke-miterlimit="10"/>
<path d="M549.432 -320.57L-349.495 198.427" stroke="url(#paint84_linear_561_3073)" stroke-width="0.911524" stroke-miterlimit="10"/>
<path d="M534.458 -346.504L-364.47 172.492" stroke="url(#paint85_linear_561_3073)" stroke-width="0.911524" stroke-miterlimit="10"/>
<path d="M519.482 -372.442L-379.445 146.554" stroke="url(#paint86_linear_561_3073)" stroke-width="0.911524" stroke-miterlimit="10"/>
<path d="M504.507 -398.381L-394.42 120.615" stroke="url(#paint87_linear_561_3073)" stroke-width="0.911524" stroke-miterlimit="10"/>
<path d="M489.533 -424.317L-409.395 94.6794" stroke="url(#paint88_linear_561_3073)" stroke-width="0.911524" stroke-miterlimit="10"/>
</g>
<g filter="url(#filter0_d_561_3073)">
<rect x="32" y="32" width="584" height="386" rx="32" fill="white"/>
</g>
<path d="M128.5 366H190.5L239.5 359.5L265 361.5L285 347.5L316.5 344.5L352 324.5L367.5 321.5" stroke="#EB5D44" stroke-width="3" stroke-linecap="round"/>
<line opacity="0.6" x1="126" y1="356.5" x2="549" y2="356.5" stroke="#CFD9F0"/>
<line opacity="0.6" x1="126" y1="282.5" x2="549" y2="282.5" stroke="#CFD9F0"/>
<line opacity="0.6" x1="126" y1="208.5" x2="549" y2="208.5" stroke="#CFD9F0"/>
<line opacity="0.6" x1="126" y1="134.5" x2="549" y2="134.5" stroke="#CFD9F0"/>
<path d="M55.143 123.326C55.143 124.376 54.513 125.342 52.679 125.342V127.022C53.365 127.022 54.177 127.022 54.723 126.462V133H57.103V123.326H55.143ZM63.2945 133.224C66.1925 133.224 67.5365 130.914 67.5365 128.17C67.5365 125.426 66.1925 123.102 63.2945 123.102C60.3965 123.102 59.0385 125.426 59.0385 128.17C59.0385 130.914 60.3965 133.224 63.2945 133.224ZM63.2945 131.306C61.8805 131.306 61.4185 130.088 61.4185 128.17C61.4185 126.252 61.8805 125.02 63.2945 125.02C64.7085 125.02 65.1565 126.252 65.1565 128.17C65.1565 130.088 64.7085 131.306 63.2945 131.306ZM70.1356 133.126C70.1356 133.7 69.6456 134.26 68.9456 134.358V135.338C70.4296 135.142 71.3256 134.05 71.3256 132.426C71.3256 131.39 70.9056 130.746 70.0516 130.746C69.3516 130.746 68.8056 131.18 68.8056 131.936C68.8056 132.692 69.3516 133.126 70.1356 133.126ZM76.8625 133.224C79.7605 133.224 81.1045 130.914 81.1045 128.17C81.1045 125.426 79.7605 123.102 76.8625 123.102C73.9645 123.102 72.6065 125.426 72.6065 128.17C72.6065 130.914 73.9645 133.224 76.8625 133.224ZM76.8625 131.306C75.4485 131.306 74.9865 130.088 74.9865 128.17C74.9865 126.252 75.4485 125.02 76.8625 125.02C78.2765 125.02 78.7245 126.252 78.7245 128.17C78.7245 130.088 78.2765 131.306 76.8625 131.306ZM86.7227 133.224C89.6207 133.224 90.9647 130.914 90.9647 128.17C90.9647 125.426 89.6207 123.102 86.7227 123.102C83.8247 123.102 82.4667 125.426 82.4667 128.17C82.4667 130.914 83.8247 133.224 86.7227 133.224ZM86.7227 131.306C85.3087 131.306 84.8467 130.088 84.8467 128.17C84.8467 126.252 85.3087 125.02 86.7227 125.02C88.1367 125.02 88.5847 126.252 88.5847 128.17C88.5847 130.088 88.1367 131.306 86.7227 131.306ZM96.5828 133.224C99.4808 133.224 100.825 130.914 100.825 128.17C100.825 125.426 99.4808 123.102 96.5828 123.102C93.6848 123.102 92.3268 125.426 92.3268 128.17C92.3268 130.914 93.6848 133.224 96.5828 133.224ZM96.5828 131.306C95.1688 131.306 94.7068 130.088 94.7068 128.17C94.7068 126.252 95.1688 125.02 96.5828 125.02C97.9968 125.02 98.4448 126.252 98.4448 128.17C98.4448 130.088 97.9968 131.306 96.5828 131.306ZM102.229 125.832L104.413 129.346L101.949 133H104.469L105.757 130.788H105.785L107.073 133H109.593L107.129 129.346L109.313 125.832H106.933L105.785 127.904H105.757L104.609 125.832H102.229Z" fill="#949698"/>
<path d="M64.9706 197.326C64.9706 198.376 64.3406 199.342 62.5066 199.342V201.022C63.1926 201.022 64.0046 201.022 64.5506 200.462V207H66.9306V197.326H64.9706ZM70.3081 207.126C70.3081 207.7 69.8181 208.26 69.1181 208.358V209.338C70.6021 209.142 71.4981 208.05 71.4981 206.426C71.4981 205.39 71.0781 204.746 70.2241 204.746C69.5241 204.746 68.9781 205.18 68.9781 205.936C68.9781 206.692 69.5241 207.126 70.3081 207.126ZM77.035 207.224C79.933 207.224 81.277 204.914 81.277 202.17C81.277 199.426 79.933 197.102 77.035 197.102C74.137 197.102 72.779 199.426 72.779 202.17C72.779 204.914 74.137 207.224 77.035 207.224ZM77.035 205.306C75.621 205.306 75.159 204.088 75.159 202.17C75.159 200.252 75.621 199.02 77.035 199.02C78.449 199.02 78.897 200.252 78.897 202.17C78.897 204.088 78.449 205.306 77.035 205.306ZM86.8951 207.224C89.7931 207.224 91.1371 204.914 91.1371 202.17C91.1371 199.426 89.7931 197.102 86.8951 197.102C83.9971 197.102 82.6391 199.426 82.6391 202.17C82.6391 204.914 83.9971 207.224 86.8951 207.224ZM86.8951 205.306C85.4811 205.306 85.0191 204.088 85.0191 202.17C85.0191 200.252 85.4811 199.02 86.8951 199.02C88.3091 199.02 88.7571 200.252 88.7571 202.17C88.7571 204.088 88.3091 205.306 86.8951 205.306ZM96.7553 207.224C99.6533 207.224 100.997 204.914 100.997 202.17C100.997 199.426 99.6533 197.102 96.7553 197.102C93.8573 197.102 92.4993 199.426 92.4993 202.17C92.4993 204.914 93.8573 207.224 96.7553 207.224ZM96.7553 205.306C95.3413 205.306 94.8793 204.088 94.8793 202.17C94.8793 200.252 95.3413 199.02 96.7553 199.02C98.1693 199.02 98.6173 200.252 98.6173 202.17C98.6173 204.088 98.1693 205.306 96.7553 205.306ZM102.401 199.832L104.585 203.346L102.121 207H104.641L105.929 204.788H105.957L107.245 207H109.765L107.301 203.346L109.485 199.832H107.105L105.957 201.904H105.929L104.781 199.832H102.401Z" fill="#949698"/>
<path d="M88.2872 271.326C88.2872 272.376 87.6572 273.342 85.8232 273.342V275.022C86.5092 275.022 87.3212 275.022 87.8672 274.462V281H90.2472V271.326H88.2872ZM96.4387 281.224C99.3367 281.224 100.681 278.914 100.681 276.17C100.681 273.426 99.3367 271.102 96.4387 271.102C93.5407 271.102 92.1827 273.426 92.1827 276.17C92.1827 278.914 93.5407 281.224 96.4387 281.224ZM96.4387 279.306C95.0247 279.306 94.5627 278.088 94.5627 276.17C94.5627 274.252 95.0247 273.02 96.4387 273.02C97.8527 273.02 98.3007 274.252 98.3007 276.17C98.3007 278.088 97.8527 279.306 96.4387 279.306ZM102.085 273.832L104.269 277.346L101.805 281H104.325L105.613 278.788H105.641L106.929 281H109.449L106.985 277.346L109.169 273.832H106.789L105.641 275.904H105.613L104.465 273.832H102.085Z" fill="#949698"/>
<path d="M97.2173 345.326C97.2173 346.376 96.5873 347.342 94.7533 347.342V349.022C95.4393 349.022 96.2513 349.022 96.7973 348.462V355H99.1773V345.326H97.2173ZM101.155 347.832L103.339 351.346L100.875 355H103.395L104.683 352.788H104.711L105.999 355H108.519L106.055 351.346L108.239 347.832H105.859L104.711 349.904H104.683L103.535 347.832H101.155Z" fill="#949698"/>
<path d="M75.2102 93H77.7302V85.048H80.6282V82.99H72.2982V85.048H75.2102V93ZM82.2508 93H84.7708V89.514H86.3388C88.4808 89.514 87.5708 92.58 88.0608 93H90.6788V92.86C90.1048 92.692 91.0148 88.814 88.5088 88.38V88.352C89.7548 88.072 90.5388 87.232 90.5388 85.902C90.5388 84.012 89.1948 82.99 86.9688 82.99H82.2508V93ZM84.7708 85.048H86.4788C87.4868 85.048 88.0188 85.412 88.0188 86.252C88.0188 87.092 87.4868 87.456 86.4788 87.456H84.7708V85.048ZM98.3741 90.914L99.0181 93H101.538L97.9261 82.99H95.4061L91.7801 93H94.3001L94.9441 90.914H98.3741ZM95.5181 88.996L96.6521 85.3H96.6801L97.8141 88.996H95.5181ZM105.462 87.246V85.048H110.39V82.99H102.942V93H105.462V89.304H109.48V87.246H105.462ZM114.584 87.246V85.048H119.512V82.99H112.064V93H114.584V89.304H118.602V87.246H114.584ZM121.2 82.99V93H123.72V82.99H121.2ZM132.22 86.714H134.74C134.502 84.39 133.046 82.766 130.316 82.766C127.152 82.766 125.458 84.978 125.458 87.988C125.458 91.012 127.152 93.224 130.316 93.224C133.06 93.224 134.516 91.6 134.74 89.248H132.22C132.052 90.368 131.548 91.166 130.204 91.166C128.538 91.166 127.978 89.878 127.978 87.988C127.978 86.112 128.538 84.824 130.204 84.824C131.534 84.824 132.038 85.622 132.22 86.714Z" fill="#4E4E4E"/>
<line x1="126.5" y1="114" x2="126.5" y2="380" stroke="black"/>
<line x1="126" y1="379.5" x2="584" y2="379.5" stroke="black"/>
<path d="M188 324.5L187.878 323.005L187.487 323.037L187.161 323.257L188 324.5ZM237 320.5L237.122 321.995L237.699 321.948L238.095 321.525L237 320.5ZM281 273.5L280.806 272.013L280.273 272.082L279.905 272.475L281 273.5ZM327 267.5L327.194 268.987L327.912 268.894L328.285 268.274L327 267.5ZM356.5 218.5L356.151 217.041L355.539 217.188L355.215 217.726L356.5 218.5ZM415 204.5L415.349 205.959L415.869 205.834L416.193 205.409L415 204.5ZM447 162.5L446.788 161.015L446.179 161.102L445.807 161.591L447 162.5ZM485.5 157L485.712 158.485L486.265 158.406L486.632 157.985L485.5 157ZM520.496 118.396C520.439 117.57 519.723 116.946 518.896 117.004L505.429 117.939C504.602 117.996 503.979 118.713 504.036 119.539C504.093 120.366 504.81 120.989 505.636 120.932L517.608 120.1L518.439 132.071C518.496 132.898 519.213 133.521 520.039 133.464C520.866 133.407 521.489 132.69 521.432 131.864L520.496 118.396ZM127.339 367.243L188.839 325.743L187.161 323.257L125.661 364.757L127.339 367.243ZM188.122 325.995L237.122 321.995L236.878 319.005L187.878 323.005L188.122 325.995ZM238.095 321.525L282.095 274.525L279.905 272.475L235.905 319.475L238.095 321.525ZM281.194 274.987L327.194 268.987L326.806 266.013L280.806 272.013L281.194 274.987ZM328.285 268.274L357.785 219.274L355.215 217.726L325.715 266.726L328.285 268.274ZM356.849 219.959L415.349 205.959L414.651 203.041L356.151 217.041L356.849 219.959ZM416.193 205.409L448.193 163.409L445.807 161.591L413.807 203.591L416.193 205.409ZM447.212 163.985L485.712 158.485L485.288 155.515L446.788 161.015L447.212 163.985ZM486.632 157.985L520.132 119.485L517.868 117.515L484.368 156.015L486.632 157.985Z" fill="#73FCC2"/>
<rect x="469" y="76" width="110" height="28" rx="14" fill="url(#paint89_linear_561_3073)"/>
<g clip-path="url(#clip2_561_3073)">
<path d="M499.732 90.0786L495.193 82.2178C495.171 82.179 495.14 82.1467 495.101 82.1241C495.063 82.1015 495.019 82.0895 494.974 82.0892C494.93 82.0889 494.886 82.1004 494.847 82.1225C494.808 82.1446 494.776 82.1765 494.754 82.215L493.394 84.5705C493.35 84.6476 493.326 84.735 493.326 84.824C493.326 84.9131 493.35 85.0005 493.394 85.0776L496.354 90.2058C496.398 90.283 496.463 90.3471 496.54 90.3916C496.617 90.4361 496.704 90.4595 496.794 90.4594H499.512C499.557 90.4593 499.6 90.4475 499.639 90.4251C499.677 90.4028 499.709 90.3708 499.732 90.3323C499.754 90.2937 499.766 90.25 499.766 90.2055C499.766 90.161 499.754 90.1173 499.732 90.0786Z" fill="#020202"/>
<path d="M487.835 94.187L492.374 86.3262C492.396 86.2877 492.428 86.2557 492.466 86.2335C492.505 86.2113 492.549 86.1995 492.593 86.1995C492.638 86.1995 492.681 86.2113 492.72 86.2335C492.758 86.2557 492.79 86.2877 492.813 86.3262L494.173 88.6795C494.217 88.7567 494.241 88.8443 494.241 88.9335C494.241 89.0226 494.217 89.1102 494.173 89.1874L491.213 94.3156C491.169 94.3927 491.105 94.4568 491.028 94.5014C490.951 94.5459 490.863 94.5693 490.774 94.5692H488.055C488.01 94.5694 487.966 94.5577 487.927 94.5354C487.888 94.5131 487.856 94.4809 487.834 94.442C487.811 94.4032 487.8 94.3592 487.8 94.3144C487.8 94.2696 487.812 94.2256 487.835 94.187Z" fill="#020202"/>
<path d="M492.812 94.5675H501.889C501.934 94.5674 501.978 94.5557 502.016 94.5334C502.055 94.5111 502.087 94.479 502.109 94.4404C502.131 94.4018 502.143 94.358 502.143 94.3135C502.143 94.269 502.131 94.2253 502.109 94.1867L500.751 91.832C500.706 91.7548 500.642 91.6907 500.565 91.6462C500.488 91.6017 500.4 91.5783 500.311 91.5784H494.392C494.303 91.5783 494.215 91.6017 494.138 91.6462C494.061 91.6907 493.997 91.7548 493.952 91.832L492.593 94.1867C492.57 94.2253 492.559 94.269 492.559 94.3135C492.559 94.358 492.57 94.4018 492.592 94.4404C492.615 94.479 492.647 94.5111 492.685 94.5334C492.724 94.5557 492.767 94.5674 492.812 94.5675Z" fill="#020202"/>
</g>
<path d="M510.49 94.64C510.023 94.64 509.598 94.5467 509.216 94.36C508.833 94.1733 508.525 93.9213 508.292 93.604C508.058 93.2867 507.942 92.9273 507.942 92.526C507.942 91.882 508.203 91.3687 508.726 90.986C509.248 90.6033 509.93 90.3513 510.77 90.23L512.856 89.936V89.53C512.856 89.082 512.725 88.732 512.464 88.48C512.212 88.228 511.796 88.102 511.218 88.102C510.798 88.102 510.457 88.186 510.196 88.354C509.944 88.522 509.766 88.7367 509.664 88.998C509.608 89.138 509.51 89.208 509.37 89.208H508.74C508.637 89.208 508.558 89.18 508.502 89.124C508.455 89.0587 508.432 88.984 508.432 88.9C508.432 88.76 508.483 88.5873 508.586 88.382C508.698 88.1767 508.866 87.976 509.09 87.78C509.314 87.584 509.598 87.4207 509.944 87.29C510.298 87.15 510.728 87.08 511.232 87.08C511.792 87.08 512.263 87.1547 512.646 87.304C513.028 87.444 513.327 87.6353 513.542 87.878C513.766 88.1207 513.924 88.396 514.018 88.704C514.12 89.012 514.172 89.3247 514.172 89.642V94.178C514.172 94.2713 514.139 94.3507 514.074 94.416C514.018 94.472 513.943 94.5 513.85 94.5H513.206C513.103 94.5 513.024 94.472 512.968 94.416C512.912 94.3507 512.884 94.2713 512.884 94.178V93.576C512.762 93.744 512.599 93.912 512.394 94.08C512.188 94.2387 511.932 94.374 511.624 94.486C511.316 94.5887 510.938 94.64 510.49 94.64ZM510.784 93.59C511.166 93.59 511.516 93.5107 511.834 93.352C512.151 93.184 512.398 92.9273 512.576 92.582C512.762 92.2367 512.856 91.8027 512.856 91.28V90.888L511.232 91.126C510.569 91.2193 510.07 91.378 509.734 91.602C509.398 91.8167 509.23 92.092 509.23 92.428C509.23 92.6893 509.304 92.9087 509.454 93.086C509.612 93.254 509.808 93.38 510.042 93.464C510.284 93.548 510.532 93.59 510.784 93.59ZM516.52 94.5C516.427 94.5 516.348 94.472 516.282 94.416C516.226 94.3507 516.198 94.2713 516.198 94.178V84.882C516.198 84.7887 516.226 84.714 516.282 84.658C516.348 84.5927 516.427 84.56 516.52 84.56H517.178C517.281 84.56 517.36 84.5927 517.416 84.658C517.472 84.714 517.5 84.7887 517.5 84.882V94.178C517.5 94.2713 517.472 94.3507 517.416 94.416C517.36 94.472 517.281 94.5 517.178 94.5H516.52ZM522.529 94.64C521.866 94.64 521.292 94.514 520.807 94.262C520.331 94.0007 519.962 93.632 519.701 93.156C519.439 92.6707 519.299 92.092 519.281 91.42C519.271 91.28 519.267 91.0933 519.267 90.86C519.267 90.6267 519.271 90.44 519.281 90.3C519.299 89.628 519.439 89.054 519.701 88.578C519.962 88.0927 520.331 87.724 520.807 87.472C521.292 87.2107 521.866 87.08 522.529 87.08C523.07 87.08 523.532 87.1547 523.915 87.304C524.307 87.4533 524.629 87.6447 524.881 87.878C525.133 88.1113 525.319 88.3633 525.441 88.634C525.571 88.9047 525.641 89.1613 525.651 89.404C525.66 89.4973 525.632 89.572 525.567 89.628C525.501 89.684 525.422 89.712 525.329 89.712H524.657C524.563 89.712 524.493 89.6933 524.447 89.656C524.4 89.6093 524.353 89.5347 524.307 89.432C524.139 88.9747 523.91 88.6527 523.621 88.466C523.331 88.2793 522.972 88.186 522.543 88.186C521.983 88.186 521.525 88.3587 521.171 88.704C520.825 89.0493 520.639 89.6047 520.611 90.37C520.601 90.706 520.601 91.0327 520.611 91.35C520.639 92.1247 520.825 92.6847 521.171 93.03C521.525 93.366 521.983 93.534 522.543 93.534C522.972 93.534 523.331 93.4407 523.621 93.254C523.91 93.0673 524.139 92.7453 524.307 92.288C524.353 92.1853 524.4 92.1153 524.447 92.078C524.493 92.0313 524.563 92.008 524.657 92.008H525.329C525.422 92.008 525.501 92.036 525.567 92.092C525.632 92.148 525.66 92.2227 525.651 92.316C525.641 92.512 525.599 92.7127 525.525 92.918C525.45 93.1233 525.329 93.3333 525.161 93.548C525.002 93.7533 524.801 93.94 524.559 94.108C524.316 94.2667 524.022 94.3973 523.677 94.5C523.341 94.5933 522.958 94.64 522.529 94.64ZM527.649 94.5C527.556 94.5 527.477 94.472 527.411 94.416C527.355 94.3507 527.327 94.2713 527.327 94.178V84.882C527.327 84.7887 527.355 84.714 527.411 84.658C527.477 84.5927 527.556 84.56 527.649 84.56H528.349C528.452 84.56 528.531 84.5927 528.587 84.658C528.643 84.714 528.671 84.7887 528.671 84.882V88.144C528.923 87.8267 529.231 87.57 529.595 87.374C529.959 87.178 530.421 87.08 530.981 87.08C531.588 87.08 532.101 87.2153 532.521 87.486C532.951 87.7473 533.273 88.116 533.487 88.592C533.711 89.0587 533.823 89.6047 533.823 90.23V94.178C533.823 94.2713 533.795 94.3507 533.739 94.416C533.683 94.472 533.604 94.5 533.501 94.5H532.801C532.708 94.5 532.629 94.472 532.563 94.416C532.507 94.3507 532.479 94.2713 532.479 94.178V90.3C532.479 89.6467 532.321 89.138 532.003 88.774C531.686 88.4007 531.219 88.214 530.603 88.214C530.025 88.214 529.558 88.4007 529.203 88.774C528.849 89.138 528.671 89.6467 528.671 90.3V94.178C528.671 94.2713 528.643 94.3507 528.587 94.416C528.531 94.472 528.452 94.5 528.349 94.5H527.649ZM538.743 94.64C537.781 94.64 537.016 94.346 536.447 93.758C535.877 93.1607 535.565 92.3487 535.509 91.322C535.499 91.2007 535.495 91.0467 535.495 90.86C535.495 90.664 535.499 90.5053 535.509 90.384C535.546 89.7213 535.7 89.1427 535.971 88.648C536.241 88.144 536.61 87.7567 537.077 87.486C537.553 87.2153 538.108 87.08 538.743 87.08C539.452 87.08 540.045 87.2293 540.521 87.528C541.006 87.8267 541.375 88.2513 541.627 88.802C541.879 89.3527 542.005 89.9967 542.005 90.734V90.972C542.005 91.0747 541.972 91.154 541.907 91.21C541.851 91.266 541.776 91.294 541.683 91.294H536.839C536.839 91.3033 536.839 91.322 536.839 91.35C536.839 91.378 536.839 91.4013 536.839 91.42C536.857 91.8027 536.941 92.162 537.091 92.498C537.24 92.8247 537.455 93.0907 537.735 93.296C538.015 93.5013 538.351 93.604 538.743 93.604C539.079 93.604 539.359 93.5527 539.583 93.45C539.807 93.3473 539.989 93.2353 540.129 93.114C540.269 92.9833 540.362 92.8853 540.409 92.82C540.493 92.6987 540.558 92.6287 540.605 92.61C540.651 92.582 540.726 92.568 540.829 92.568H541.501C541.594 92.568 541.669 92.596 541.725 92.652C541.79 92.6987 541.818 92.7687 541.809 92.862C541.799 93.002 541.725 93.1747 541.585 93.38C541.445 93.576 541.244 93.772 540.983 93.968C540.721 94.164 540.404 94.3273 540.031 94.458C539.657 94.5793 539.228 94.64 538.743 94.64ZM536.839 90.328H540.675V90.286C540.675 89.866 540.595 89.4927 540.437 89.166C540.287 88.8393 540.068 88.5827 539.779 88.396C539.489 88.2 539.144 88.102 538.743 88.102C538.341 88.102 537.996 88.2 537.707 88.396C537.427 88.5827 537.212 88.8393 537.063 89.166C536.913 89.4927 536.839 89.866 536.839 90.286V90.328ZM544.001 94.5C543.907 94.5 543.828 94.472 543.763 94.416C543.707 94.3507 543.679 94.2713 543.679 94.178V87.542C543.679 87.4487 543.707 87.374 543.763 87.318C543.828 87.2527 543.907 87.22 544.001 87.22H544.631C544.724 87.22 544.799 87.2527 544.855 87.318C544.92 87.374 544.953 87.4487 544.953 87.542V88.032C545.167 87.7427 545.438 87.514 545.765 87.346C546.091 87.1687 546.483 87.08 546.941 87.08C547.995 87.0707 548.742 87.5 549.181 88.368C549.395 87.976 549.708 87.6633 550.119 87.43C550.529 87.1967 550.996 87.08 551.519 87.08C552.004 87.08 552.443 87.192 552.835 87.416C553.236 87.64 553.549 87.9807 553.773 88.438C554.006 88.886 554.123 89.4507 554.123 90.132V94.178C554.123 94.2713 554.09 94.3507 554.025 94.416C553.969 94.472 553.894 94.5 553.801 94.5H553.143C553.049 94.5 552.97 94.472 552.905 94.416C552.849 94.3507 552.821 94.2713 552.821 94.178V90.258C552.821 89.7353 552.746 89.3247 552.597 89.026C552.447 88.7273 552.247 88.5173 551.995 88.396C551.743 88.2747 551.467 88.214 551.169 88.214C550.926 88.214 550.679 88.2747 550.427 88.396C550.175 88.5173 549.965 88.7273 549.797 89.026C549.638 89.3247 549.559 89.7353 549.559 90.258V94.178C549.559 94.2713 549.526 94.3507 549.461 94.416C549.405 94.472 549.33 94.5 549.237 94.5H548.579C548.485 94.5 548.406 94.472 548.341 94.416C548.285 94.3507 548.257 94.2713 548.257 94.178V90.258C548.257 89.7353 548.177 89.3247 548.019 89.026C547.86 88.7273 547.655 88.5173 547.403 88.396C547.151 88.2747 546.885 88.214 546.605 88.214C546.362 88.214 546.115 88.2747 545.863 88.396C545.611 88.5173 545.401 88.7273 545.233 89.026C545.074 89.3247 544.995 89.7307 544.995 90.244V94.178C544.995 94.2713 544.962 94.3507 544.897 94.416C544.841 94.472 544.766 94.5 544.673 94.5H544.001ZM557.175 97.16C557.101 97.16 557.035 97.132 556.979 97.076C556.923 97.02 556.895 96.9547 556.895 96.88C556.895 96.8427 556.9 96.8053 556.909 96.768C556.919 96.7307 556.937 96.684 556.965 96.628L558.043 94.066L555.369 87.752C555.323 87.64 555.299 87.5607 555.299 87.514C555.299 87.43 555.327 87.36 555.383 87.304C555.439 87.248 555.509 87.22 555.593 87.22H556.279C556.373 87.22 556.447 87.2433 556.503 87.29C556.559 87.3367 556.597 87.3927 556.615 87.458L558.743 92.554L560.927 87.458C560.955 87.3927 560.993 87.3367 561.039 87.29C561.095 87.2433 561.175 87.22 561.277 87.22H561.935C562.019 87.22 562.089 87.248 562.145 87.304C562.201 87.36 562.229 87.4253 562.229 87.5C562.229 87.5467 562.206 87.6307 562.159 87.752L558.183 96.922C558.155 96.9873 558.113 97.0433 558.057 97.09C558.011 97.1367 557.936 97.16 557.833 97.16H557.175Z" fill="#020202"/>
<path d="M439.278 236.224C442.428 236.224 444.234 234.012 444.234 230.988C444.234 227.978 442.428 225.766 439.278 225.766C436.1 225.766 434.322 227.978 434.322 230.988C434.322 234.012 436.1 236.224 439.278 236.224ZM439.278 234.166C437.444 234.166 436.842 232.738 436.842 230.988C436.842 229.252 437.444 227.824 439.278 227.824C441.098 227.824 441.714 229.252 441.714 230.988C441.714 232.738 441.098 234.166 439.278 234.166ZM449.285 230.512V228.832H448.039V226.83H445.799V228.832H444.805V230.512H445.799V233.648C445.799 235.258 446.261 236.126 447.899 236.126C448.529 236.126 448.879 236.056 449.285 235.972V234.292C448.333 234.292 448.039 234.292 448.039 233.48V230.512H449.285ZM454.6 228.608C453.452 228.608 452.752 229.21 452.374 229.868H452.346V225.99H450.106V236H452.346V231.856C452.346 230.862 452.934 230.428 453.648 230.428C454.46 230.428 454.81 230.792 454.81 231.87V236H457.05V231.156C457.05 229.518 456.112 228.608 454.6 228.608ZM461.548 234.544C460.75 234.544 460.008 234.012 460.008 233.004H465.16C465.16 230.4 463.914 228.608 461.464 228.608C459.182 228.608 457.768 230.232 457.768 232.416C457.768 234.656 459.21 236.224 461.59 236.224C463.536 236.224 464.656 235.272 465.048 233.83H462.822C462.682 234.18 462.318 234.544 461.548 234.544ZM461.464 230.148C462.318 230.148 462.92 230.652 462.92 231.646H460.008C460.008 230.652 460.61 230.148 461.464 230.148ZM469.942 228.706C469.158 228.706 468.542 229.21 468.192 230.008H468.164V228.832H465.924V236H468.164V232.668C468.164 231.142 469.382 230.512 470.53 230.722H470.558V228.762C470.306 228.706 470.138 228.706 469.942 228.706ZM479.696 233.914L480.34 236H482.86L479.248 225.99H476.728L473.102 236H475.622L476.266 233.914H479.696ZM476.84 231.996L477.974 228.3H478.002L479.136 231.996H476.84ZM483.564 236H486.084V232.374H488.422C490.508 232.374 491.81 231.282 491.81 229.182C491.81 227.082 490.508 225.99 488.422 225.99H483.564V236ZM486.084 228.048H487.89C488.758 228.048 489.29 228.342 489.29 229.182C489.29 230.022 488.758 230.316 487.89 230.316H486.084V228.048ZM492.711 225.99V236H495.231V225.99H492.711ZM503.2 229.784C501.94 229.434 501.31 229.238 501.31 228.622C501.31 228.062 501.898 227.824 502.654 227.824C503.62 227.824 504.264 228.272 504.376 229.028H506.896C506.826 226.998 504.992 225.766 502.654 225.766C500.498 225.766 498.79 226.62 498.79 228.804C498.79 230.652 500.302 231.394 502.024 231.898C503.438 232.318 504.516 232.5 504.516 233.298C504.516 233.802 504.012 234.166 503.074 234.166C501.954 234.166 501.03 233.774 501.03 232.71H498.51C498.51 234.936 500.47 236.224 503.074 236.224C505.58 236.224 507.036 234.978 507.036 233.06C507.036 230.918 505.09 230.302 503.2 229.784ZM511.437 234.544C510.639 234.544 509.897 234.012 509.897 233.004H515.049C515.049 230.4 513.803 228.608 511.353 228.608C509.071 228.608 507.657 230.232 507.657 232.416C507.657 234.656 509.099 236.224 511.479 236.224C513.425 236.224 514.545 235.272 514.937 233.83H512.711C512.571 234.18 512.207 234.544 511.437 234.544ZM511.353 230.148C512.207 230.148 512.809 230.652 512.809 231.646H509.897C509.897 230.652 510.499 230.148 511.353 230.148ZM519.831 228.706C519.047 228.706 518.431 229.21 518.081 230.008H518.053V228.832H515.813V236H518.053V232.668C518.053 231.142 519.271 230.512 520.419 230.722H520.447V228.762C520.195 228.706 520.027 228.706 519.831 228.706ZM520.789 228.832L523.267 236H525.731L528.209 228.832H525.969L524.513 233.508H524.485L523.029 228.832H520.789ZM529.839 227.978C530.469 227.978 530.959 227.642 530.959 226.984C530.959 226.34 530.469 225.99 529.839 225.99C529.209 225.99 528.719 226.34 528.719 226.984C528.719 227.642 529.209 227.978 529.839 227.978ZM528.719 228.832V236H530.959V228.832H528.719ZM536.689 231.506H538.887C538.705 229.84 537.459 228.608 535.373 228.608C533.161 228.608 531.733 230.19 531.733 232.416C531.733 234.656 533.161 236.224 535.429 236.224C537.487 236.224 538.775 234.992 538.887 233.298H536.689C536.619 233.942 536.311 234.544 535.415 234.544C534.477 234.544 533.973 233.76 533.973 232.416C533.973 231.072 534.491 230.288 535.415 230.288C536.311 230.288 536.619 230.932 536.689 231.506ZM543.073 234.544C542.275 234.544 541.533 234.012 541.533 233.004H546.685C546.685 230.4 545.439 228.608 542.989 228.608C540.707 228.608 539.293 230.232 539.293 232.416C539.293 234.656 540.735 236.224 543.115 236.224C545.061 236.224 546.181 235.272 546.573 233.83H544.347C544.207 234.18 543.843 234.544 543.073 234.544ZM542.989 230.148C543.843 230.148 544.445 230.652 544.445 231.646H541.533C541.533 230.652 542.135 230.148 542.989 230.148ZM550.949 231.478C549.843 231.24 549.395 231.226 549.395 230.722C549.395 230.372 549.717 230.148 550.347 230.148C551.075 230.148 551.383 230.456 551.453 231.03H553.553C553.483 229.77 552.587 228.608 550.291 228.608C548.275 228.608 547.155 229.602 547.155 230.904C547.155 232.402 548.499 232.85 549.717 233.116C550.851 233.368 551.523 233.452 551.523 234.068C551.523 234.474 551.173 234.684 550.543 234.684C549.661 234.684 549.185 234.334 549.115 233.62H547.015C547.085 235.076 548.065 236.224 550.627 236.224C552.615 236.224 553.763 235.398 553.763 233.886C553.763 232.262 552.363 231.786 550.949 231.478Z" fill="#EB5D44"/>
<rect x="418.5" y="219.5" width="151" height="22" rx="11" stroke="#EB5D44"/>
<path d="M420.028 305.784C418.768 305.434 418.138 305.238 418.138 304.622C418.138 304.062 418.726 303.824 419.482 303.824C420.448 303.824 421.092 304.272 421.204 305.028H423.724C423.654 302.998 421.82 301.766 419.482 301.766C417.326 301.766 415.618 302.62 415.618 304.804C415.618 306.652 417.13 307.394 418.852 307.898C420.266 308.318 421.344 308.5 421.344 309.298C421.344 309.802 420.84 310.166 419.902 310.166C418.782 310.166 417.858 309.774 417.858 308.71H415.338C415.338 310.936 417.298 312.224 419.902 312.224C422.408 312.224 423.864 310.978 423.864 309.06C423.864 306.918 421.918 306.302 420.028 305.784ZM428.69 306.512V304.832H427.444V302.83H425.204V304.832H424.21V306.512H425.204V309.648C425.204 311.258 425.666 312.126 427.304 312.126C427.934 312.126 428.284 312.056 428.69 311.972V310.292C427.738 310.292 427.444 310.292 427.444 309.48V306.512H428.69ZM433.875 306.82C433.875 307.422 432.965 307.562 432.041 307.744C430.361 308.08 429.311 308.738 429.311 310.166C429.311 311.37 430.151 312.224 431.663 312.224C432.615 312.224 433.455 311.776 433.917 311.244H433.945C433.945 311.748 434.225 312.224 435.233 312.224C435.681 312.224 436.087 312.168 436.535 312V311.468C436.255 311.468 436.115 311.314 436.115 310.936V307.646C436.115 305.392 434.995 304.608 432.979 304.608C430.641 304.608 429.661 305.77 429.591 307.142H431.691C431.761 306.456 432.153 306.148 432.965 306.148C433.581 306.148 433.875 306.4 433.875 306.82ZM432.447 310.684C431.901 310.684 431.551 310.432 431.551 309.844C431.551 309.396 431.845 309.032 432.727 308.836C433.245 308.724 433.595 308.626 433.875 308.514V309.382C433.875 310.068 433.413 310.684 432.447 310.684ZM442.005 304.608C440.731 304.608 440.031 305.21 439.653 305.868H439.625V304.832H437.385V312H439.625V307.856C439.625 306.862 440.115 306.428 440.969 306.428C441.711 306.428 442.089 306.792 442.089 307.87V312H444.329V307.156C444.329 305.518 443.391 304.608 442.005 304.608ZM450.269 301.99V305.546H450.241C449.961 305.168 449.205 304.608 448.169 304.608C446.265 304.608 445.047 306.064 445.047 308.416C445.047 310.768 446.265 312.224 448.169 312.224C449.205 312.224 449.961 311.664 450.241 311.286H450.269V312H452.509V301.99H450.269ZM448.757 310.544C447.847 310.544 447.287 309.816 447.287 308.416C447.287 307.016 447.847 306.288 448.757 306.288C449.667 306.288 450.227 307.016 450.227 308.416C450.227 309.816 449.667 310.544 448.757 310.544ZM457.828 306.82C457.828 307.422 456.918 307.562 455.994 307.744C454.314 308.08 453.264 308.738 453.264 310.166C453.264 311.37 454.104 312.224 455.616 312.224C456.568 312.224 457.408 311.776 457.87 311.244H457.898C457.898 311.748 458.178 312.224 459.186 312.224C459.634 312.224 460.04 312.168 460.488 312V311.468C460.208 311.468 460.068 311.314 460.068 310.936V307.646C460.068 305.392 458.948 304.608 456.932 304.608C454.594 304.608 453.614 305.77 453.544 307.142H455.644C455.714 306.456 456.106 306.148 456.918 306.148C457.534 306.148 457.828 306.4 457.828 306.82ZM456.4 310.684C455.854 310.684 455.504 310.432 455.504 309.844C455.504 309.396 455.798 309.032 456.68 308.836C457.198 308.724 457.548 308.626 457.828 308.514V309.382C457.828 310.068 457.366 310.684 456.4 310.684ZM465.356 304.706C464.572 304.706 463.956 305.21 463.606 306.008H463.578V304.832H461.338V312H463.578V308.668C463.578 307.142 464.796 306.512 465.944 306.722H465.972V304.762C465.72 304.706 465.552 304.706 465.356 304.706ZM471.461 301.99V305.546H471.433C471.153 305.168 470.397 304.608 469.361 304.608C467.457 304.608 466.239 306.064 466.239 308.416C466.239 310.768 467.457 312.224 469.361 312.224C470.397 312.224 471.153 311.664 471.433 311.286H471.461V312H473.701V301.99H471.461ZM469.949 310.544C469.039 310.544 468.479 309.816 468.479 308.416C468.479 307.016 469.039 306.288 469.949 306.288C470.859 306.288 471.419 307.016 471.419 308.416C471.419 309.816 470.859 310.544 469.949 310.544ZM477.31 312H479.83V306.05H479.858L483.358 312H485.878V301.99H483.358V307.94H483.33L479.83 301.99H477.31V312ZM490.76 312.224C488.366 312.224 486.924 310.642 486.924 308.416C486.924 306.19 488.366 304.608 490.76 304.608C493.14 304.608 494.582 306.19 494.582 308.416C494.582 310.642 493.14 312.224 490.76 312.224ZM490.76 310.544C491.74 310.544 492.342 309.802 492.342 308.416C492.342 307.03 491.74 306.288 490.76 306.288C489.766 306.288 489.164 307.03 489.164 308.416C489.164 309.802 489.766 310.544 490.76 310.544ZM500.254 301.99V305.546H500.226C499.946 305.168 499.19 304.608 498.154 304.608C496.25 304.608 495.032 306.064 495.032 308.416C495.032 310.768 496.25 312.224 498.154 312.224C499.19 312.224 499.946 311.664 500.226 311.286H500.254V312H502.494V301.99H500.254ZM498.742 310.544C497.832 310.544 497.272 309.816 497.272 308.416C497.272 307.016 497.832 306.288 498.742 306.288C499.652 306.288 500.212 307.016 500.212 308.416C500.212 309.816 499.652 310.544 498.742 310.544ZM507.042 310.544C506.244 310.544 505.502 310.012 505.502 309.004H510.654C510.654 306.4 509.408 304.608 506.958 304.608C504.676 304.608 503.262 306.232 503.262 308.416C503.262 310.656 504.704 312.224 507.084 312.224C509.03 312.224 510.15 311.272 510.542 309.83H508.316C508.176 310.18 507.812 310.544 507.042 310.544ZM506.958 306.148C507.812 306.148 508.414 306.652 508.414 307.646H505.502C505.502 306.652 506.104 306.148 506.958 306.148Z" fill="#EB5D44"/>
<rect x="399.5" y="295.5" width="127" height="22" rx="11" stroke="#EB5D44"/>
<rect x="402" y="242" width="24" height="24" rx="12" fill="#EB5D44"/>
<path d="M417.6 250.4L410.4 257.6" stroke="white" stroke-width="1.2" stroke-linecap="round" stroke-linejoin="round"/>
<path d="M410.4 250.4L417.6 257.6" stroke="white" stroke-width="1.2" stroke-linecap="round" stroke-linejoin="round"/>
<rect x="370" y="302" width="24" height="24" rx="12" fill="#EB5D44"/>
<path d="M385.6 310.4L378.4 317.6" stroke="white" stroke-width="1.2" stroke-linecap="round" stroke-linejoin="round"/>
<path d="M378.4 310.4L385.6 317.6" stroke="white" stroke-width="1.2" stroke-linecap="round" stroke-linejoin="round"/>
<path d="M128 366L184.5 353L217.5 355.5L258.5 341L291.5 336L312 306.5L351 303L362.5 272.5L395.5 260" stroke="#EB5D44" stroke-width="3" stroke-linecap="round"/>
</g>
<defs>
<filter id="filter0_d_561_3073" x="12" y="16" width="624" height="426" filterUnits="userSpaceOnUse" color-interpolation-filters="sRGB">
<feFlood flood-opacity="0" result="BackgroundImageFix"/>
<feColorMatrix in="SourceAlpha" type="matrix" values="0 0 0 0 0 0 0 0 0 0 0 0 0 0 0 0 0 0 127 0" result="hardAlpha"/>
<feOffset dy="4"/>
<feGaussianBlur stdDeviation="10"/>
<feComposite in2="hardAlpha" operator="out"/>
<feColorMatrix type="matrix" values="0 0 0 0 0.211765 0 0 0 0 0.745098 0 0 0 0 1 0 0 0 0.5 0"/>
<feBlend mode="normal" in2="BackgroundImageFix" result="effect1_dropShadow_561_3073"/>
<feBlend mode="normal" in="SourceGraphic" in2="effect1_dropShadow_561_3073" result="shape"/>
</filter>
<linearGradient id="paint0_linear_561_3073" x1="25.0938" y1="-191.021" x2="27.6365" y2="-191.02" gradientUnits="userSpaceOnUse">
<stop offset="0.24238" stop-color="#A7CAFF"/>
<stop offset="1" stop-color="#B25FF3"/>
</linearGradient>
<linearGradient id="paint1_linear_561_3073" x1="55.0439" y1="-191.021" x2="57.5867" y2="-191.02" gradientUnits="userSpaceOnUse">
<stop offset="0.24238" stop-color="#A7CAFF"/>
<stop offset="1" stop-color="#B25FF3"/>
</linearGradient>
<linearGradient id="paint2_linear_561_3073" x1="84.9932" y1="-191.021" x2="87.5359" y2="-191.02" gradientUnits="userSpaceOnUse">
<stop offset="0.24238" stop-color="#A7CAFF"/>
<stop offset="1" stop-color="#B25FF3"/>
</linearGradient>
<linearGradient id="paint3_linear_561_3073" x1="114.943" y1="-191.021" x2="117.486" y2="-191.02" gradientUnits="userSpaceOnUse">
<stop offset="0.24238" stop-color="#A7CAFF"/>
<stop offset="1" stop-color="#B25FF3"/>
</linearGradient>
<linearGradient id="paint4_linear_561_3073" x1="144.889" y1="-191.021" x2="147.431" y2="-191.02" gradientUnits="userSpaceOnUse">
<stop offset="0.24238" stop-color="#A7CAFF"/>
<stop offset="1" stop-color="#B25FF3"/>
</linearGradient>
<linearGradient id="paint5_linear_561_3073" x1="174.838" y1="-191.021" x2="177.381" y2="-191.02" gradientUnits="userSpaceOnUse">
<stop offset="0.24238" stop-color="#A7CAFF"/>
<stop offset="1" stop-color="#B25FF3"/>
</linearGradient>
<linearGradient id="paint6_linear_561_3073" x1="204.787" y1="-191.021" x2="207.33" y2="-191.02" gradientUnits="userSpaceOnUse">
<stop offset="0.24238" stop-color="#A7CAFF"/>
<stop offset="1" stop-color="#B25FF3"/>
</linearGradient>
<linearGradient id="paint7_linear_561_3073" x1="234.737" y1="-191.021" x2="237.28" y2="-191.02" gradientUnits="userSpaceOnUse">
<stop offset="0.24238" stop-color="#A7CAFF"/>
<stop offset="1" stop-color="#B25FF3"/>
</linearGradient>
<linearGradient id="paint8_linear_561_3073" x1="264.687" y1="-191.021" x2="267.229" y2="-191.02" gradientUnits="userSpaceOnUse">
<stop offset="0.24238" stop-color="#A7CAFF"/>
<stop offset="1" stop-color="#B25FF3"/>
</linearGradient>
<linearGradient id="paint9_linear_561_3073" x1="294.632" y1="-191.021" x2="297.175" y2="-191.02" gradientUnits="userSpaceOnUse">
<stop offset="0.24238" stop-color="#A7CAFF"/>
<stop offset="1" stop-color="#B25FF3"/>
</linearGradient>
<linearGradient id="paint10_linear_561_3073" x1="324.581" y1="-191.021" x2="327.124" y2="-191.02" gradientUnits="userSpaceOnUse">
<stop offset="0.24238" stop-color="#A7CAFF"/>
<stop offset="1" stop-color="#B25FF3"/>
</linearGradient>
<linearGradient id="paint11_linear_561_3073" x1="354.53" y1="-191.021" x2="357.073" y2="-191.02" gradientUnits="userSpaceOnUse">
<stop offset="0.24238" stop-color="#A7CAFF"/>
<stop offset="1" stop-color="#B25FF3"/>
</linearGradient>
<linearGradient id="paint12_linear_561_3073" x1="384.48" y1="-191.021" x2="387.023" y2="-191.02" gradientUnits="userSpaceOnUse">
<stop offset="0.24238" stop-color="#A7CAFF"/>
<stop offset="1" stop-color="#B25FF3"/>
</linearGradient>
<linearGradient id="paint13_linear_561_3073" x1="414.43" y1="-191.021" x2="416.972" y2="-191.02" gradientUnits="userSpaceOnUse">
<stop offset="0.24238" stop-color="#A7CAFF"/>
<stop offset="1" stop-color="#B25FF3"/>
</linearGradient>
<linearGradient id="paint14_linear_561_3073" x1="444.376" y1="-191.021" x2="446.919" y2="-191.02" gradientUnits="userSpaceOnUse">
<stop offset="0.24238" stop-color="#A7CAFF"/>
<stop offset="1" stop-color="#B25FF3"/>
</linearGradient>
<linearGradient id="paint15_linear_561_3073" x1="474.325" y1="-191.021" x2="476.868" y2="-191.02" gradientUnits="userSpaceOnUse">
<stop offset="0.24238" stop-color="#A7CAFF"/>
<stop offset="1" stop-color="#B25FF3"/>
</linearGradient>
<linearGradient id="paint16_linear_561_3073" x1="504.275" y1="-191.021" x2="506.818" y2="-191.02" gradientUnits="userSpaceOnUse">
<stop offset="0.24238" stop-color="#A7CAFF"/>
<stop offset="1" stop-color="#B25FF3"/>
</linearGradient>
<linearGradient id="paint17_linear_561_3073" x1="534.226" y1="-191.021" x2="536.768" y2="-191.02" gradientUnits="userSpaceOnUse">
<stop offset="0.24238" stop-color="#A7CAFF"/>
<stop offset="1" stop-color="#B25FF3"/>
</linearGradient>
<linearGradient id="paint18_linear_561_3073" x1="564.175" y1="-191.021" x2="566.718" y2="-191.02" gradientUnits="userSpaceOnUse">
<stop offset="0.24238" stop-color="#A7CAFF"/>
<stop offset="1" stop-color="#B25FF3"/>
</linearGradient>
<linearGradient id="paint19_linear_561_3073" x1="594.12" y1="-191.021" x2="596.663" y2="-191.02" gradientUnits="userSpaceOnUse">
<stop offset="0.24238" stop-color="#A7CAFF"/>
<stop offset="1" stop-color="#B25FF3"/>
</linearGradient>
<linearGradient id="paint20_linear_561_3073" x1="624.07" y1="-191.021" x2="626.613" y2="-191.02" gradientUnits="userSpaceOnUse">
<stop offset="0.24238" stop-color="#A7CAFF"/>
<stop offset="1" stop-color="#B25FF3"/>
</linearGradient>
<linearGradient id="paint21_linear_561_3073" x1="-334.525" y1="431.583" x2="634.943" y2="1561.23" gradientUnits="userSpaceOnUse">
<stop offset="0.24238" stop-color="#A7CAFF"/>
<stop offset="1" stop-color="#B25FF3"/>
</linearGradient>
<linearGradient id="paint22_linear_561_3073" x1="-319.551" y1="405.647" x2="649.918" y2="1535.3" gradientUnits="userSpaceOnUse">
<stop offset="0.24238" stop-color="#A7CAFF"/>
<stop offset="1" stop-color="#B25FF3"/>
</linearGradient>
<linearGradient id="paint23_linear_561_3073" x1="-304.575" y1="379.711" x2="664.894" y2="1509.36" gradientUnits="userSpaceOnUse">
<stop offset="0.24238" stop-color="#A7CAFF"/>
<stop offset="1" stop-color="#B25FF3"/>
</linearGradient>
<linearGradient id="paint24_linear_561_3073" x1="-289.601" y1="353.776" x2="679.869" y2="1483.42" gradientUnits="userSpaceOnUse">
<stop offset="0.24238" stop-color="#A7CAFF"/>
<stop offset="1" stop-color="#B25FF3"/>
</linearGradient>
<linearGradient id="paint25_linear_561_3073" x1="-274.626" y1="327.841" x2="694.843" y2="1457.49" gradientUnits="userSpaceOnUse">
<stop offset="0.24238" stop-color="#A7CAFF"/>
<stop offset="1" stop-color="#B25FF3"/>
</linearGradient>
<linearGradient id="paint26_linear_561_3073" x1="-259.65" y1="301.905" x2="709.809" y2="1431.55" gradientUnits="userSpaceOnUse">
<stop offset="0.24238" stop-color="#A7CAFF"/>
<stop offset="1" stop-color="#B25FF3"/>
</linearGradient>
<linearGradient id="paint27_linear_561_3073" x1="-244.677" y1="275.965" x2="724.793" y2="1405.61" gradientUnits="userSpaceOnUse">
<stop offset="0.24238" stop-color="#A7CAFF"/>
<stop offset="1" stop-color="#B25FF3"/>
</linearGradient>
<linearGradient id="paint28_linear_561_3073" x1="-229.702" y1="250.029" x2="739.767" y2="1379.68" gradientUnits="userSpaceOnUse">
<stop offset="0.24238" stop-color="#A7CAFF"/>
<stop offset="1" stop-color="#B25FF3"/>
</linearGradient>
<linearGradient id="paint29_linear_561_3073" x1="-214.727" y1="224.094" x2="754.743" y2="1353.74" gradientUnits="userSpaceOnUse">
<stop offset="0.24238" stop-color="#A7CAFF"/>
<stop offset="1" stop-color="#B25FF3"/>
</linearGradient>
<linearGradient id="paint30_linear_561_3073" x1="-199.752" y1="198.158" x2="769.718" y2="1327.8" gradientUnits="userSpaceOnUse">
<stop offset="0.24238" stop-color="#A7CAFF"/>
<stop offset="1" stop-color="#B25FF3"/>
</linearGradient>
<linearGradient id="paint31_linear_561_3073" x1="-184.781" y1="172.222" x2="784.688" y2="1301.87" gradientUnits="userSpaceOnUse">
<stop offset="0.24238" stop-color="#A7CAFF"/>
<stop offset="1" stop-color="#B25FF3"/>
</linearGradient>
<linearGradient id="paint32_linear_561_3073" x1="-169.807" y1="146.285" x2="799.662" y2="1275.94" gradientUnits="userSpaceOnUse">
<stop offset="0.24238" stop-color="#A7CAFF"/>
<stop offset="1" stop-color="#B25FF3"/>
</linearGradient>
<linearGradient id="paint33_linear_561_3073" x1="-154.831" y1="120.345" x2="814.639" y2="1249.99" gradientUnits="userSpaceOnUse">
<stop offset="0.24238" stop-color="#A7CAFF"/>
<stop offset="1" stop-color="#B25FF3"/>
</linearGradient>
<linearGradient id="paint34_linear_561_3073" x1="-139.856" y1="94.4105" x2="829.613" y2="1224.06" gradientUnits="userSpaceOnUse">
<stop offset="0.24238" stop-color="#A7CAFF"/>
<stop offset="1" stop-color="#B25FF3"/>
</linearGradient>
<linearGradient id="paint35_linear_561_3073" x1="-124.883" y1="68.4736" x2="844.587" y2="1198.12" gradientUnits="userSpaceOnUse">
<stop offset="0.24238" stop-color="#A7CAFF"/>
<stop offset="1" stop-color="#B25FF3"/>
</linearGradient>
<linearGradient id="paint36_linear_561_3073" x1="-109.906" y1="42.5388" x2="859.563" y2="1172.19" gradientUnits="userSpaceOnUse">
<stop offset="0.24238" stop-color="#A7CAFF"/>
<stop offset="1" stop-color="#B25FF3"/>
</linearGradient>
<linearGradient id="paint37_linear_561_3073" x1="-94.9326" y1="16.604" x2="874.537" y2="1146.25" gradientUnits="userSpaceOnUse">
<stop offset="0.24238" stop-color="#A7CAFF"/>
<stop offset="1" stop-color="#B25FF3"/>
</linearGradient>
<linearGradient id="paint38_linear_561_3073" x1="-79.958" y1="-9.33401" x2="889.511" y2="1120.31" gradientUnits="userSpaceOnUse">
<stop offset="0.24238" stop-color="#A7CAFF"/>
<stop offset="1" stop-color="#B25FF3"/>
</linearGradient>
<linearGradient id="paint39_linear_561_3073" x1="-64.9824" y1="-35.2688" x2="904.487" y2="1094.38" gradientUnits="userSpaceOnUse">
<stop offset="0.24238" stop-color="#A7CAFF"/>
<stop offset="1" stop-color="#B25FF3"/>
</linearGradient>
<linearGradient id="paint40_linear_561_3073" x1="-50.0078" y1="-61.2078" x2="919.462" y2="1068.44" gradientUnits="userSpaceOnUse">
<stop offset="0.24238" stop-color="#A7CAFF"/>
<stop offset="1" stop-color="#B25FF3"/>
</linearGradient>
<linearGradient id="paint41_linear_561_3073" x1="-35.0371" y1="-87.1437" x2="934.432" y2="1042.51" gradientUnits="userSpaceOnUse">
<stop offset="0.24238" stop-color="#A7CAFF"/>
<stop offset="1" stop-color="#B25FF3"/>
</linearGradient>
<linearGradient id="paint42_linear_561_3073" x1="-20.0625" y1="-113.081" x2="949.406" y2="1016.57" gradientUnits="userSpaceOnUse">
<stop offset="0.24238" stop-color="#A7CAFF"/>
<stop offset="1" stop-color="#B25FF3"/>
</linearGradient>
<linearGradient id="paint43_linear_561_3073" x1="-5.08691" y1="-139.015" x2="964.383" y2="990.631" gradientUnits="userSpaceOnUse">
<stop offset="0.24238" stop-color="#A7CAFF"/>
<stop offset="1" stop-color="#B25FF3"/>
</linearGradient>
<linearGradient id="paint44_linear_561_3073" x1="9.88672" y1="-164.951" x2="979.356" y2="964.695" gradientUnits="userSpaceOnUse">
<stop offset="0.24238" stop-color="#A7CAFF"/>
<stop offset="1" stop-color="#B25FF3"/>
</linearGradient>
<linearGradient id="paint45_linear_561_3073" x1="24.8613" y1="-190.887" x2="994.331" y2="938.76" gradientUnits="userSpaceOnUse">
<stop offset="0.24238" stop-color="#A7CAFF"/>
<stop offset="1" stop-color="#B25FF3"/>
</linearGradient>
<linearGradient id="paint46_linear_561_3073" x1="39.8369" y1="-216.822" x2="1009.3" y2="912.823" gradientUnits="userSpaceOnUse">
<stop offset="0.24238" stop-color="#A7CAFF"/>
<stop offset="1" stop-color="#B25FF3"/>
</linearGradient>
<linearGradient id="paint47_linear_561_3073" x1="54.8115" y1="-242.762" x2="1024.28" y2="886.885" gradientUnits="userSpaceOnUse">
<stop offset="0.24238" stop-color="#A7CAFF"/>
<stop offset="1" stop-color="#B25FF3"/>
</linearGradient>
<linearGradient id="paint48_linear_561_3073" x1="69.7861" y1="-268.699" x2="1039.26" y2="860.948" gradientUnits="userSpaceOnUse">
<stop offset="0.24238" stop-color="#A7CAFF"/>
<stop offset="1" stop-color="#B25FF3"/>
</linearGradient>
<linearGradient id="paint49_linear_561_3073" x1="84.7617" y1="-294.635" x2="1054.23" y2="835.012" gradientUnits="userSpaceOnUse">
<stop offset="0.24238" stop-color="#A7CAFF"/>
<stop offset="1" stop-color="#B25FF3"/>
</linearGradient>
<linearGradient id="paint50_linear_561_3073" x1="99.7363" y1="-320.57" x2="1069.21" y2="809.077" gradientUnits="userSpaceOnUse">
<stop offset="0.24238" stop-color="#A7CAFF"/>
<stop offset="1" stop-color="#B25FF3"/>
</linearGradient>
<linearGradient id="paint51_linear_561_3073" x1="114.706" y1="-346.504" x2="1084.17" y2="783.147" gradientUnits="userSpaceOnUse">
<stop offset="0.24238" stop-color="#A7CAFF"/>
<stop offset="1" stop-color="#B25FF3"/>
</linearGradient>
<linearGradient id="paint52_linear_561_3073" x1="129.681" y1="-372.442" x2="1099.15" y2="757.209" gradientUnits="userSpaceOnUse">
<stop offset="0.24238" stop-color="#A7CAFF"/>
<stop offset="1" stop-color="#B25FF3"/>
</linearGradient>
<linearGradient id="paint53_linear_561_3073" x1="144.657" y1="-398.381" x2="1114.13" y2="731.265" gradientUnits="userSpaceOnUse">
<stop offset="0.24238" stop-color="#A7CAFF"/>
<stop offset="1" stop-color="#B25FF3"/>
</linearGradient>
<linearGradient id="paint54_linear_561_3073" x1="159.631" y1="-424.317" x2="1129.1" y2="705.33" gradientUnits="userSpaceOnUse">
<stop offset="0.24238" stop-color="#A7CAFF"/>
<stop offset="1" stop-color="#B25FF3"/>
</linearGradient>
<linearGradient id="paint55_linear_561_3073" x1="84.7617" y1="431.583" x2="1054.23" y2="1561.23" gradientUnits="userSpaceOnUse">
<stop offset="0.24238" stop-color="#A7CAFF"/>
<stop offset="1" stop-color="#B25FF3"/>
</linearGradient>
<linearGradient id="paint56_linear_561_3073" x1="69.7861" y1="405.648" x2="1039.26" y2="1535.29" gradientUnits="userSpaceOnUse">
<stop offset="0.24238" stop-color="#A7CAFF"/>
<stop offset="1" stop-color="#B25FF3"/>
</linearGradient>
<linearGradient id="paint57_linear_561_3073" x1="54.8115" y1="379.711" x2="1024.28" y2="1509.36" gradientUnits="userSpaceOnUse">
<stop offset="0.24238" stop-color="#A7CAFF"/>
<stop offset="1" stop-color="#B25FF3"/>
</linearGradient>
<linearGradient id="paint58_linear_561_3073" x1="39.8369" y1="353.776" x2="1009.31" y2="1483.42" gradientUnits="userSpaceOnUse">
<stop offset="0.24238" stop-color="#A7CAFF"/>
<stop offset="1" stop-color="#B25FF3"/>
</linearGradient>
<linearGradient id="paint59_linear_561_3073" x1="24.8613" y1="327.841" x2="994.331" y2="1457.49" gradientUnits="userSpaceOnUse">
<stop offset="0.24238" stop-color="#A7CAFF"/>
<stop offset="1" stop-color="#B25FF3"/>
</linearGradient>
<linearGradient id="paint60_linear_561_3073" x1="9.88672" y1="301.905" x2="979.346" y2="1431.55" gradientUnits="userSpaceOnUse">
<stop offset="0.24238" stop-color="#A7CAFF"/>
<stop offset="1" stop-color="#B25FF3"/>
</linearGradient>
<linearGradient id="paint61_linear_561_3073" x1="-5.08789" y1="275.965" x2="964.382" y2="1405.61" gradientUnits="userSpaceOnUse">
<stop offset="0.24238" stop-color="#A7CAFF"/>
<stop offset="1" stop-color="#B25FF3"/>
</linearGradient>
<linearGradient id="paint62_linear_561_3073" x1="-20.0625" y1="250.029" x2="949.406" y2="1379.68" gradientUnits="userSpaceOnUse">
<stop offset="0.24238" stop-color="#A7CAFF"/>
<stop offset="1" stop-color="#B25FF3"/>
</linearGradient>
<linearGradient id="paint63_linear_561_3073" x1="-35.0371" y1="224.094" x2="934.432" y2="1353.75" gradientUnits="userSpaceOnUse">
<stop offset="0.24238" stop-color="#A7CAFF"/>
<stop offset="1" stop-color="#B25FF3"/>
</linearGradient>
<linearGradient id="paint64_linear_561_3073" x1="-50.0078" y1="198.157" x2="919.462" y2="1327.8" gradientUnits="userSpaceOnUse">
<stop offset="0.24238" stop-color="#A7CAFF"/>
<stop offset="1" stop-color="#B25FF3"/>
</linearGradient>
<linearGradient id="paint65_linear_561_3073" x1="-64.9824" y1="172.222" x2="904.487" y2="1301.87" gradientUnits="userSpaceOnUse">
<stop offset="0.24238" stop-color="#A7CAFF"/>
<stop offset="1" stop-color="#B25FF3"/>
</linearGradient>
<linearGradient id="paint66_linear_561_3073" x1="-79.958" y1="146.285" x2="889.511" y2="1275.93" gradientUnits="userSpaceOnUse">
<stop offset="0.24238" stop-color="#A7CAFF"/>
<stop offset="1" stop-color="#B25FF3"/>
</linearGradient>
<linearGradient id="paint67_linear_561_3073" x1="-94.9326" y1="120.345" x2="874.537" y2="1249.99" gradientUnits="userSpaceOnUse">
<stop offset="0.24238" stop-color="#A7CAFF"/>
<stop offset="1" stop-color="#B25FF3"/>
</linearGradient>
<linearGradient id="paint68_linear_561_3073" x1="-109.906" y1="94.4105" x2="859.563" y2="1224.06" gradientUnits="userSpaceOnUse">
<stop offset="0.24238" stop-color="#A7CAFF"/>
<stop offset="1" stop-color="#B25FF3"/>
</linearGradient>
<linearGradient id="paint69_linear_561_3073" x1="-124.883" y1="68.4736" x2="844.587" y2="1198.12" gradientUnits="userSpaceOnUse">
<stop offset="0.24238" stop-color="#A7CAFF"/>
<stop offset="1" stop-color="#B25FF3"/>
</linearGradient>
<linearGradient id="paint70_linear_561_3073" x1="-139.856" y1="42.5388" x2="829.613" y2="1172.19" gradientUnits="userSpaceOnUse">
<stop offset="0.24238" stop-color="#A7CAFF"/>
<stop offset="1" stop-color="#B25FF3"/>
</linearGradient>
<linearGradient id="paint71_linear_561_3073" x1="-154.831" y1="16.604" x2="814.638" y2="1146.25" gradientUnits="userSpaceOnUse">
<stop offset="0.24238" stop-color="#A7CAFF"/>
<stop offset="1" stop-color="#B25FF3"/>
</linearGradient>
<linearGradient id="paint72_linear_561_3073" x1="-169.807" y1="-9.33401" x2="799.662" y2="1120.32" gradientUnits="userSpaceOnUse">
<stop offset="0.24238" stop-color="#A7CAFF"/>
<stop offset="1" stop-color="#B25FF3"/>
</linearGradient>
<linearGradient id="paint73_linear_561_3073" x1="-184.781" y1="-35.2688" x2="784.687" y2="1094.38" gradientUnits="userSpaceOnUse">
<stop offset="0.24238" stop-color="#A7CAFF"/>
<stop offset="1" stop-color="#B25FF3"/>
</linearGradient>
<linearGradient id="paint74_linear_561_3073" x1="-199.752" y1="-61.2078" x2="769.717" y2="1068.44" gradientUnits="userSpaceOnUse">
<stop offset="0.24238" stop-color="#A7CAFF"/>
<stop offset="1" stop-color="#B25FF3"/>
</linearGradient>
<linearGradient id="paint75_linear_561_3073" x1="-214.727" y1="-87.1437" x2="754.743" y2="1042.5" gradientUnits="userSpaceOnUse">
<stop offset="0.24238" stop-color="#A7CAFF"/>
<stop offset="1" stop-color="#B25FF3"/>
</linearGradient>
<linearGradient id="paint76_linear_561_3073" x1="-229.702" y1="-113.08" x2="739.767" y2="1016.57" gradientUnits="userSpaceOnUse">
<stop offset="0.24238" stop-color="#A7CAFF"/>
<stop offset="1" stop-color="#B25FF3"/>
</linearGradient>
<linearGradient id="paint77_linear_561_3073" x1="-244.677" y1="-139.015" x2="724.793" y2="990.631" gradientUnits="userSpaceOnUse">
<stop offset="0.24238" stop-color="#A7CAFF"/>
<stop offset="1" stop-color="#B25FF3"/>
</linearGradient>
<linearGradient id="paint78_linear_561_3073" x1="-259.65" y1="-164.951" x2="709.819" y2="964.696" gradientUnits="userSpaceOnUse">
<stop offset="0.24238" stop-color="#A7CAFF"/>
<stop offset="1" stop-color="#B25FF3"/>
</linearGradient>
<linearGradient id="paint79_linear_561_3073" x1="-274.626" y1="-190.887" x2="694.844" y2="938.76" gradientUnits="userSpaceOnUse">
<stop offset="0.24238" stop-color="#A7CAFF"/>
<stop offset="1" stop-color="#B25FF3"/>
</linearGradient>
<linearGradient id="paint80_linear_561_3073" x1="-289.601" y1="-216.822" x2="679.859" y2="912.823" gradientUnits="userSpaceOnUse">
<stop offset="0.24238" stop-color="#A7CAFF"/>
<stop offset="1" stop-color="#B25FF3"/>
</linearGradient>
<linearGradient id="paint81_linear_561_3073" x1="-304.575" y1="-242.762" x2="664.893" y2="886.89" gradientUnits="userSpaceOnUse">
<stop offset="0.24238" stop-color="#A7CAFF"/>
<stop offset="1" stop-color="#B25FF3"/>
</linearGradient>
<linearGradient id="paint82_linear_561_3073" x1="-319.551" y1="-268.699" x2="649.918" y2="860.953" gradientUnits="userSpaceOnUse">
<stop offset="0.24238" stop-color="#A7CAFF"/>
<stop offset="1" stop-color="#B25FF3"/>
</linearGradient>
<linearGradient id="paint83_linear_561_3073" x1="-334.525" y1="-294.635" x2="634.943" y2="835.017" gradientUnits="userSpaceOnUse">
<stop offset="0.24238" stop-color="#A7CAFF"/>
<stop offset="1" stop-color="#B25FF3"/>
</linearGradient>
<linearGradient id="paint84_linear_561_3073" x1="-349.495" y1="-320.57" x2="619.974" y2="809.077" gradientUnits="userSpaceOnUse">
<stop offset="0.24238" stop-color="#A7CAFF"/>
<stop offset="1" stop-color="#B25FF3"/>
</linearGradient>
<linearGradient id="paint85_linear_561_3073" x1="-364.47" y1="-346.504" x2="605" y2="783.142" gradientUnits="userSpaceOnUse">
<stop offset="0.24238" stop-color="#A7CAFF"/>
<stop offset="1" stop-color="#B25FF3"/>
</linearGradient>
<linearGradient id="paint86_linear_561_3073" x1="-379.445" y1="-372.442" x2="590.024" y2="757.204" gradientUnits="userSpaceOnUse">
<stop offset="0.24238" stop-color="#A7CAFF"/>
<stop offset="1" stop-color="#B25FF3"/>
</linearGradient>
<linearGradient id="paint87_linear_561_3073" x1="-394.42" y1="-398.381" x2="575.05" y2="731.265" gradientUnits="userSpaceOnUse">
<stop offset="0.24238" stop-color="#A7CAFF"/>
<stop offset="1" stop-color="#B25FF3"/>
</linearGradient>
<linearGradient id="paint88_linear_561_3073" x1="-409.395" y1="-424.317" x2="560.075" y2="705.33" gradientUnits="userSpaceOnUse">
<stop offset="0.24238" stop-color="#A7CAFF"/>
<stop offset="1" stop-color="#B25FF3"/>
</linearGradient>
<linearGradient id="paint89_linear_561_3073" x1="469" y1="76" x2="491.124" y2="139.917" gradientUnits="userSpaceOnUse">
<stop offset="0.24238" stop-color="#36BEFF"/>
<stop offset="1" stop-color="#733FF1"/>
</linearGradient>
<clipPath id="clip0_561_3073">
<rect width="648" height="450" rx="32" fill="white"/>
</clipPath>
<clipPath id="clip1_561_3073">
<rect width="648" height="450" fill="white"/>
</clipPath>
<clipPath id="clip2_561_3073">
<rect width="20" height="20" fill="white" transform="translate(485 80)"/>
</clipPath>
</defs>
</svg>
