<svg width="648" height="450" viewBox="0 0 648 450" fill="none" xmlns="http://www.w3.org/2000/svg">
<g clip-path="url(#clip0_561_3028)">
<rect width="648" height="450" rx="32" fill="url(#paint0_linear_561_3028)"/>
<path opacity="0.4" d="M1328.93 493C725.119 337.047 725.119 125.947 1328.93 -30M1259.65 493C697.475 337.047 697.475 125.947 1259.65 -30M1190.4 493C669.865 337.047 669.865 125.947 1190.4 -30M1121.11 493C642.221 337.047 642.221 125.947 1121.11 -30M1051.86 493C614.611 337.047 614.611 125.947 1051.86 -30M982.58 493C586.966 337.047 586.966 125.947 982.58 -30M913.296 493C559.357 337.047 559.357 125.947 913.296 -30M844.046 493C531.712 337.047 531.712 125.947 844.046 -30M774.761 493C504.102 337.047 504.102 125.947 774.761 -30M705.512 493C476.458 337.047 476.458 125.947 705.512 -30M636.228 493C448.848 337.047 448.848 125.947 636.228 -30M566.943 493C421.204 337.047 421.204 125.947 566.943 -30M497.694 493C393.594 337.047 393.594 125.947 497.694 -30M428.41 493C366.054 337.047 366.054 125.947 428.41 -30M359.16 493C338.375 337.047 338.375 125.947 359.16 -30M289.876 493C310.661 337.047 310.661 125.947 289.875 -30M220.591 493C282.947 337.047 282.947 125.947 220.591 -30M151.341 493C255.441 337.047 255.441 125.947 151.341 -30M82.0567 493C227.831 337.047 227.831 125.947 82.0567 -30M12.8071 493C200.187 337.047 200.187 125.947 12.8071 -30M-56.4772 493C172.542 337.047 172.542 125.947 -56.4772 -30M-125.762 493C144.933 337.047 144.933 125.947 -125.762 -30M-195.011 493C117.288 337.047 117.288 125.947 -195.011 -30M-264.295 493C89.6784 337.047 89.6784 125.947 -264.295 -30M-333.545 493C62.034 337.047 62.034 125.947 -333.545 -30M-402.83 493C34.4237 337.047 34.4237 125.947 -402.83 -30M-472.114 493C6.77935 337.047 6.77935 125.947 -472.114 -30M-541.364 493C-20.8304 337.047 -20.8304 125.947 -541.364 -30M-610.648 493C-48.4748 337.047 -48.4748 125.947 -610.648 -29.9999M-679.899 493C-76.0855 337.047 -76.0855 125.947 -679.899 -29.9999M-702 -18.2031L1351 -18.2032M-657.347 -6.21177L1306.24 -6.21186M-614.84 5.96765L1263.87 5.96757M-574.898 18.3293L1223.93 18.3293M-537.38 30.8487L1186.42 30.8486M-502.288 43.5261L1151.32 43.5261M-469.62 56.3489L1118.65 56.3489M-439.377 69.3058L1088.34 69.3057M-411.387 82.3838L1060.56 82.3838M-386.098 95.5772L1035.13 95.5771M-363.13 108.874L1012.17 108.874M-342.552 122.267L991.622 122.267M-324.4 135.74L973.4 135.74M-308.672 149.286L957.673 149.286M-295.336 162.862L944.37 162.861M-284.458 176.553L933.493 176.553M-275.971 190.25L925.005 190.25M-269.943 203.984L918.873 203.984M-266.305 217.736L915.409 217.736M-265.092 231.47L914.128 231.47M-266.305 245.264L915.409 245.264M-269.943 259.016L918.873 259.016M-275.971 272.756L925.005 272.756M-284.458 286.447L933.493 286.447M-295.336 300.078L944.37 300.078M-308.672 313.714L957.673 313.714M-324.4 327.26L973.4 327.26M-342.552 340.757L991.622 340.757M-363.13 354.114L1012.17 354.114M-386.098 367.417L1035.13 367.417M-411.387 380.616L1060.56 380.616M-439.377 393.694L1088.34 393.694M-469.62 406.651L1118.65 406.651M-502.288 419.474L1151.32 419.474M-537.38 432.151L1186.42 432.151M-574.898 444.671L1223.93 444.671M-614.84 457.026L1263.87 457.026M-657.347 469.206L1306.24 469.206M-702 481.203L1351 481.203" stroke="url(#paint1_linear_561_3028)" stroke-miterlimit="10"/>
<g filter="url(#filter0_d_561_3028)">
<rect x="340" y="51" width="276" height="348" rx="24" fill="white" fill-opacity="0.9" shape-rendering="crispEdges"/>
<rect x="340.5" y="51.5" width="275" height="347" rx="23.5" stroke="#5578F8" shape-rendering="crispEdges"/>
</g>
<path d="M375 289H387.098L396.877 318.625L406.489 289H415.604L424.72 293.688L433.669 289H452.563L461.181 325L471.125 289H480.074L489.355 301.938L498.471 289H508.249L517.033 310.938L526.645 289H553.494L561.283 295L567.913 289H582" stroke="#EB5D44" stroke-width="3" stroke-linecap="round" stroke-linejoin="round"/>
<path d="M449.412 352.808V341.84H445.092V352.808C445.092 355.04 444.132 355.856 442.236 355.856C440.34 355.856 439.38 355.04 439.38 352.808V341.84H435.06V352.808C435.06 357.08 437.052 359.384 442.236 359.384C447.42 359.384 449.412 357.08 449.412 352.808ZM451.633 359H455.953V352.784H459.961C463.537 352.784 465.769 350.912 465.769 347.312C465.769 343.712 463.537 341.84 459.961 341.84H451.633V359ZM455.953 345.368H459.049C460.537 345.368 461.449 345.872 461.449 347.312C461.449 348.752 460.537 349.256 459.049 349.256H455.953V345.368ZM471.513 359H475.833V345.368H480.801V341.84H466.521V345.368H471.513V359ZM482.407 341.84V359H486.727V341.84H482.407ZM489.086 359H493.166V348.32H493.214L496.406 359H499.43L502.622 348.32H502.67V359H506.75V341.84H501.47L497.942 352.784H497.894L494.366 341.84H489.086V359ZM513.422 348.416V345.368H522.11V341.84H509.102V359H522.254V355.472H513.422V351.944H520.91V348.416H513.422Z" fill="#5578F8"/>
<path d="M431.562 148.832V155.408H447.258V155.504C441.354 160.544 436.842 171.392 436.842 182H445.482C445.482 171.776 448.362 161.024 455.898 154.928V148.832H431.562ZM465.169 160.928C465.169 156.368 467.233 154.64 470.353 154.64C472.945 154.64 474.385 156.176 474.385 158.72C474.385 163.088 468.769 165.68 462.817 170.624C459.889 173.072 457.009 176.48 457.009 182H482.545V175.424H468.481V175.328C472.753 171.104 482.545 166.88 482.545 158.144C482.545 151.808 477.745 148.064 470.593 148.064C461.617 148.064 457.489 153.152 457.489 160.928H465.169ZM494.375 167.312C500.423 167.312 503.159 162.896 503.159 157.712C503.159 152.48 500.423 148.064 494.375 148.064C488.375 148.064 485.543 152.48 485.543 157.712C485.543 162.896 488.375 167.312 494.375 167.312ZM516.551 148.832H511.751L494.327 182H499.127L516.551 148.832ZM494.375 162.992C492.407 162.992 491.783 161.36 491.783 157.712C491.783 154.064 492.407 152.384 494.375 152.384C496.343 152.384 496.919 154.064 496.919 157.712C496.919 161.36 496.343 162.992 494.375 162.992ZM516.551 182.768C522.599 182.768 525.335 178.352 525.335 173.168C525.335 167.936 522.599 163.52 516.551 163.52C510.551 163.52 507.719 167.936 507.719 173.168C507.719 178.352 510.551 182.768 516.551 182.768ZM516.551 178.448C514.583 178.448 513.959 176.816 513.959 173.168C513.959 169.52 514.583 167.84 516.551 167.84C518.519 167.84 519.095 169.52 519.095 173.168C519.095 176.816 518.519 178.448 516.551 178.448Z" fill="#4E4E4E"/>
<path d="M433.499 222.24C432.643 222.24 431.803 222.132 430.979 221.916C430.155 221.7 429.403 221.376 428.723 220.944C428.043 220.512 427.479 219.972 427.031 219.324C426.591 218.676 426.327 217.916 426.239 217.044H429.827C429.947 217.572 430.175 218.016 430.511 218.376C430.847 218.736 431.271 219.012 431.783 219.204C432.295 219.396 432.863 219.492 433.487 219.492C434.127 219.492 434.711 219.412 435.239 219.252C435.767 219.092 436.191 218.852 436.511 218.532C436.831 218.204 436.991 217.796 436.991 217.308C436.991 216.868 436.859 216.508 436.595 216.228C436.339 215.948 435.991 215.72 435.551 215.544C435.111 215.368 434.611 215.224 434.051 215.112L431.051 214.5C429.739 214.252 428.699 213.732 427.931 212.94C427.163 212.14 426.767 211.076 426.743 209.748C426.735 208.66 427.023 207.72 427.607 206.928C428.199 206.128 428.999 205.512 430.007 205.08C431.023 204.648 432.159 204.432 433.415 204.432C434.911 204.432 436.167 204.668 437.183 205.14C438.207 205.604 438.983 206.236 439.511 207.036C440.047 207.828 440.323 208.712 440.339 209.688H436.823C436.759 209.08 436.575 208.596 436.271 208.236C435.967 207.876 435.575 207.616 435.095 207.456C434.623 207.296 434.083 207.216 433.475 207.216C433.011 207.216 432.587 207.268 432.203 207.372C431.827 207.476 431.507 207.624 431.243 207.816C430.979 208 430.775 208.22 430.631 208.476C430.487 208.732 430.415 209.02 430.415 209.34C430.415 209.844 430.583 210.252 430.919 210.564C431.255 210.876 431.883 211.132 432.803 211.332L435.779 211.944C436.843 212.152 437.687 212.46 438.311 212.868C438.943 213.276 439.415 213.736 439.727 214.248C440.047 214.76 440.255 215.284 440.351 215.82C440.455 216.348 440.507 216.836 440.507 217.284C440.507 218.22 440.211 219.064 439.619 219.816C439.035 220.56 438.219 221.152 437.171 221.592C436.123 222.024 434.899 222.24 433.499 222.24ZM450.388 212.028H447.628L447.652 218.64C447.652 218.944 447.688 219.172 447.76 219.324C447.84 219.468 447.96 219.564 448.12 219.612C448.288 219.652 448.5 219.672 448.756 219.672H450.424V221.832C450.264 221.904 450.012 221.972 449.668 222.036C449.332 222.1 448.86 222.132 448.252 222.132C447.164 222.132 446.32 221.992 445.72 221.712C445.128 221.432 444.716 221.04 444.484 220.536C444.252 220.032 444.136 219.448 444.136 218.784V212.028H442.12V209.592H444.256L445.132 205.848H447.628V209.58H450.388V212.028ZM456.553 222.24C455.761 222.24 455.049 222.092 454.417 221.796C453.785 221.5 453.285 221.072 452.917 220.512C452.549 219.944 452.365 219.256 452.365 218.448C452.365 217.088 452.873 216.056 453.889 215.352C454.905 214.64 456.509 214.272 458.701 214.248L460.249 214.224V213.48C460.249 212.912 460.081 212.476 459.745 212.172C459.417 211.86 458.905 211.708 458.209 211.716C457.697 211.724 457.209 211.844 456.745 212.076C456.289 212.308 455.977 212.712 455.809 213.288H452.893C452.941 212.392 453.201 211.656 453.673 211.08C454.145 210.496 454.785 210.064 455.593 209.784C456.409 209.496 457.333 209.352 458.365 209.352C459.637 209.352 460.657 209.512 461.425 209.832C462.193 210.144 462.749 210.596 463.093 211.188C463.437 211.772 463.609 212.468 463.609 213.276V222H460.681L460.393 219.864C459.969 220.76 459.437 221.38 458.797 221.724C458.165 222.068 457.417 222.24 456.553 222.24ZM457.729 219.936C458.049 219.936 458.357 219.88 458.653 219.768C458.957 219.648 459.225 219.492 459.457 219.3C459.697 219.1 459.889 218.876 460.033 218.628C460.177 218.38 460.249 218.124 460.249 217.86V216.024L458.989 216.048C458.405 216.056 457.861 216.128 457.357 216.264C456.853 216.392 456.445 216.604 456.133 216.9C455.829 217.196 455.677 217.596 455.677 218.1C455.677 218.676 455.877 219.128 456.277 219.456C456.677 219.776 457.161 219.936 457.729 219.936ZM466.711 222V209.592H470.155V211.344C470.347 211.04 470.595 210.748 470.899 210.468C471.211 210.18 471.603 209.944 472.075 209.76C472.547 209.576 473.107 209.484 473.755 209.484C474.515 209.484 475.223 209.632 475.879 209.928C476.543 210.224 477.079 210.692 477.487 211.332C477.895 211.964 478.099 212.792 478.099 213.816V222H474.595V214.248C474.595 213.576 474.395 213.072 473.995 212.736C473.595 212.4 473.107 212.232 472.531 212.232C472.147 212.232 471.775 212.3 471.415 212.436C471.063 212.572 470.775 212.776 470.551 213.048C470.327 213.32 470.215 213.656 470.215 214.056V222H466.711ZM485.546 222.24C483.882 222.24 482.586 221.668 481.658 220.524C480.73 219.372 480.266 217.772 480.266 215.724C480.266 214.428 480.454 213.304 480.83 212.352C481.206 211.4 481.762 210.664 482.498 210.144C483.234 209.616 484.134 209.352 485.198 209.352C485.646 209.352 486.062 209.404 486.446 209.508C486.838 209.604 487.194 209.74 487.514 209.916C487.834 210.092 488.114 210.296 488.354 210.528C488.594 210.76 488.79 211.008 488.942 211.272V204.168H492.458V222H489.914L489.518 219.456C489.406 219.8 489.25 220.136 489.05 220.464C488.85 220.792 488.594 221.092 488.282 221.364C487.97 221.628 487.586 221.84 487.13 222C486.682 222.16 486.154 222.24 485.546 222.24ZM486.314 219.72C487.194 219.72 487.85 219.412 488.282 218.796C488.722 218.18 488.942 217.14 488.942 215.676C488.934 214.828 488.834 214.124 488.642 213.564C488.45 213.004 488.162 212.588 487.778 212.316C487.402 212.036 486.922 211.896 486.338 211.896C485.578 211.896 484.946 212.188 484.442 212.772C483.938 213.348 483.686 214.316 483.686 215.676C483.686 217.06 483.922 218.08 484.394 218.736C484.866 219.392 485.506 219.72 486.314 219.72ZM499.069 222.24C498.277 222.24 497.565 222.092 496.933 221.796C496.301 221.5 495.801 221.072 495.433 220.512C495.065 219.944 494.881 219.256 494.881 218.448C494.881 217.088 495.389 216.056 496.405 215.352C497.421 214.64 499.025 214.272 501.217 214.248L502.765 214.224V213.48C502.765 212.912 502.597 212.476 502.261 212.172C501.933 211.86 501.421 211.708 500.725 211.716C500.213 211.724 499.725 211.844 499.261 212.076C498.805 212.308 498.493 212.712 498.325 213.288H495.409C495.457 212.392 495.717 211.656 496.189 211.08C496.661 210.496 497.301 210.064 498.109 209.784C498.925 209.496 499.849 209.352 500.881 209.352C502.153 209.352 503.173 209.512 503.941 209.832C504.709 210.144 505.265 210.596 505.609 211.188C505.953 211.772 506.125 212.468 506.125 213.276V222H503.197L502.909 219.864C502.485 220.76 501.953 221.38 501.313 221.724C500.681 222.068 499.933 222.24 499.069 222.24ZM500.245 219.936C500.565 219.936 500.873 219.88 501.169 219.768C501.473 219.648 501.741 219.492 501.973 219.3C502.213 219.1 502.405 218.876 502.549 218.628C502.693 218.38 502.765 218.124 502.765 217.86V216.024L501.505 216.048C500.921 216.056 500.377 216.128 499.873 216.264C499.369 216.392 498.961 216.604 498.649 216.9C498.345 217.196 498.193 217.596 498.193 218.1C498.193 218.676 498.393 219.128 498.793 219.456C499.193 219.776 499.677 219.936 500.245 219.936ZM509.227 222V209.592H512.599V212.532C512.799 211.9 513.079 211.348 513.439 210.876C513.807 210.396 514.251 210.024 514.771 209.76C515.291 209.488 515.879 209.352 516.535 209.352C516.647 209.352 516.751 209.36 516.847 209.376C516.951 209.384 517.027 209.4 517.075 209.424V212.76C517.003 212.728 516.915 212.708 516.811 212.7C516.715 212.692 516.627 212.684 516.547 212.676C515.859 212.62 515.271 212.64 514.783 212.736C514.295 212.832 513.899 212.996 513.595 213.228C513.291 213.46 513.071 213.744 512.935 214.08C512.799 214.416 512.731 214.792 512.731 215.208V222H509.227ZM523.538 222.24C521.874 222.24 520.578 221.668 519.65 220.524C518.722 219.372 518.258 217.772 518.258 215.724C518.258 214.428 518.446 213.304 518.822 212.352C519.198 211.4 519.754 210.664 520.49 210.144C521.226 209.616 522.126 209.352 523.19 209.352C523.638 209.352 524.054 209.404 524.438 209.508C524.83 209.604 525.186 209.74 525.506 209.916C525.826 210.092 526.106 210.296 526.346 210.528C526.586 210.76 526.782 211.008 526.934 211.272V204.168H530.45V222H527.906L527.51 219.456C527.398 219.8 527.242 220.136 527.042 220.464C526.842 220.792 526.586 221.092 526.274 221.364C525.962 221.628 525.578 221.84 525.122 222C524.674 222.16 524.146 222.24 523.538 222.24ZM524.306 219.72C525.186 219.72 525.842 219.412 526.274 218.796C526.714 218.18 526.934 217.14 526.934 215.676C526.926 214.828 526.826 214.124 526.634 213.564C526.442 213.004 526.154 212.588 525.77 212.316C525.394 212.036 524.914 211.896 524.33 211.896C523.57 211.896 522.938 212.188 522.434 212.772C521.93 213.348 521.678 214.316 521.678 215.676C521.678 217.06 521.914 218.08 522.386 218.736C522.858 219.392 523.498 219.72 524.306 219.72ZM461.691 240.648H465.195V258H462.039L453.795 246.06V258H450.303V240.648H453.771L461.691 252.132V240.648ZM473.633 258.24C472.417 258.24 471.357 257.98 470.453 257.46C469.557 256.94 468.861 256.204 468.365 255.252C467.877 254.3 467.633 253.172 467.633 251.868C467.633 250.564 467.877 249.424 468.365 248.448C468.861 247.472 469.557 246.712 470.453 246.168C471.357 245.624 472.421 245.352 473.645 245.352C474.869 245.352 475.929 245.62 476.825 246.156C477.721 246.684 478.413 247.436 478.901 248.412C479.389 249.388 479.633 250.54 479.633 251.868C479.633 253.116 479.393 254.22 478.913 255.18C478.441 256.132 477.757 256.88 476.861 257.424C475.973 257.968 474.897 258.24 473.633 258.24ZM473.645 255.636C474.261 255.636 474.757 255.456 475.133 255.096C475.509 254.736 475.781 254.264 475.949 253.68C476.125 253.088 476.213 252.444 476.213 251.748C476.213 251.092 476.133 250.472 475.973 249.888C475.821 249.304 475.557 248.832 475.181 248.472C474.805 248.112 474.293 247.932 473.645 247.932C473.029 247.932 472.529 248.104 472.145 248.448C471.769 248.784 471.493 249.244 471.317 249.828C471.141 250.404 471.053 251.044 471.053 251.748C471.053 252.396 471.133 253.02 471.293 253.62C471.453 254.212 471.721 254.696 472.097 255.072C472.473 255.448 472.989 255.636 473.645 255.636ZM486.577 258.24C484.913 258.24 483.617 257.668 482.689 256.524C481.761 255.372 481.297 253.772 481.297 251.724C481.297 250.428 481.485 249.304 481.861 248.352C482.237 247.4 482.793 246.664 483.529 246.144C484.265 245.616 485.165 245.352 486.229 245.352C486.677 245.352 487.093 245.404 487.477 245.508C487.869 245.604 488.225 245.74 488.545 245.916C488.865 246.092 489.145 246.296 489.385 246.528C489.625 246.76 489.821 247.008 489.973 247.272V240.168H493.489V258H490.945L490.549 255.456C490.437 255.8 490.281 256.136 490.081 256.464C489.881 256.792 489.625 257.092 489.313 257.364C489.001 257.628 488.617 257.84 488.161 258C487.713 258.16 487.185 258.24 486.577 258.24ZM487.345 255.72C488.225 255.72 488.881 255.412 489.313 254.796C489.753 254.18 489.973 253.14 489.973 251.676C489.965 250.828 489.865 250.124 489.673 249.564C489.481 249.004 489.193 248.588 488.809 248.316C488.433 248.036 487.953 247.896 487.369 247.896C486.609 247.896 485.977 248.188 485.473 248.772C484.969 249.348 484.717 250.316 484.717 251.676C484.717 253.06 484.953 254.08 485.425 254.736C485.897 255.392 486.537 255.72 487.345 255.72ZM499.38 252.6C499.372 253.232 499.472 253.784 499.68 254.256C499.888 254.72 500.188 255.08 500.58 255.336C500.98 255.584 501.46 255.708 502.02 255.708C502.62 255.708 503.144 255.58 503.592 255.324C504.048 255.068 504.364 254.648 504.54 254.064H507.696C507.56 254.944 507.208 255.696 506.64 256.32C506.08 256.944 505.4 257.42 504.6 257.748C503.8 258.076 502.968 258.24 502.104 258.24C500.88 258.24 499.8 257.984 498.864 257.472C497.936 256.952 497.212 256.22 496.692 255.276C496.172 254.332 495.912 253.22 495.912 251.94C495.912 250.7 496.148 249.584 496.62 248.592C497.092 247.592 497.776 246.804 498.672 246.228C499.576 245.644 500.66 245.352 501.924 245.352C503.188 245.352 504.248 245.62 505.104 246.156C505.968 246.684 506.616 247.424 507.048 248.376C507.488 249.32 507.708 250.412 507.708 251.652V252.6H499.38ZM499.368 250.512H504.432C504.432 250.016 504.34 249.56 504.156 249.144C503.972 248.728 503.692 248.4 503.316 248.16C502.948 247.92 502.484 247.8 501.924 247.8C501.38 247.8 500.916 247.932 500.532 248.196C500.156 248.452 499.868 248.788 499.668 249.204C499.468 249.62 499.368 250.056 499.368 250.512Z" fill="#4E4E4E"/>
<rect x="458" y="75" width="40" height="40" rx="20" fill="#EB5D44"/>
<path d="M484 89L472 101" stroke="white" stroke-width="2" stroke-linecap="round" stroke-linejoin="round"/>
<path d="M472 89L484 101" stroke="white" stroke-width="2" stroke-linecap="round" stroke-linejoin="round"/>
<g filter="url(#filter1_d_561_3028)">
<rect x="32" y="51" width="276" height="348" rx="24" fill="white" fill-opacity="0.9" shape-rendering="crispEdges"/>
<rect x="32.5" y="51.5" width="275" height="347" rx="23.5" stroke="#5578F8" shape-rendering="crispEdges"/>
</g>
<path d="M141.412 352.808V341.84H137.092V352.808C137.092 355.04 136.132 355.856 134.236 355.856C132.34 355.856 131.38 355.04 131.38 352.808V341.84H127.06V352.808C127.06 357.08 129.052 359.384 134.236 359.384C139.42 359.384 141.412 357.08 141.412 352.808ZM143.633 359H147.953V352.784H151.961C155.537 352.784 157.769 350.912 157.769 347.312C157.769 343.712 155.537 341.84 151.961 341.84H143.633V359ZM147.953 345.368H151.049C152.537 345.368 153.449 345.872 153.449 347.312C153.449 348.752 152.537 349.256 151.049 349.256H147.953V345.368ZM163.513 359H167.833V345.368H172.801V341.84H158.521V345.368H163.513V359ZM174.407 341.84V359H178.727V341.84H174.407ZM181.086 359H185.166V348.32H185.214L188.406 359H191.43L194.622 348.32H194.67V359H198.75V341.84H193.47L189.942 352.784H189.894L186.366 341.84H181.086V359ZM205.422 348.416V345.368H214.11V341.84H201.102V359H214.254V355.472H205.422V351.944H212.91V348.416H205.422Z" fill="#5578F8"/>
<path d="M121.312 168.416V168.512C121.216 173.264 119.536 176.672 115.408 176.672C112.384 176.672 111.328 174.752 111.088 173.6H102.928C103.984 178.928 108.832 182.768 115.264 182.768C123.76 182.768 129.472 176.96 129.472 164.96C129.472 156.32 125.92 148.064 114.976 148.064C107.008 148.064 101.968 152.864 101.968 160.208C101.968 166.544 106.528 171.44 113.392 171.44C117.184 171.44 119.536 170.096 121.312 168.416ZM115.456 154.16C119.056 154.16 121.312 156.56 121.312 159.776C121.312 162.944 119.056 165.344 115.456 165.344C111.904 165.344 109.648 162.944 109.648 159.776C109.648 156.56 111.904 154.16 115.456 154.16ZM150.504 168.416V168.512C150.408 173.264 148.728 176.672 144.6 176.672C141.576 176.672 140.52 174.752 140.28 173.6H132.12C133.176 178.928 138.024 182.768 144.456 182.768C152.952 182.768 158.664 176.96 158.664 164.96C158.664 156.32 155.112 148.064 144.168 148.064C136.2 148.064 131.16 152.864 131.16 160.208C131.16 166.544 135.72 171.44 142.584 171.44C146.376 171.44 148.728 170.096 150.504 168.416ZM144.648 154.16C148.248 154.16 150.504 156.56 150.504 159.776C150.504 162.944 148.248 165.344 144.648 165.344C141.096 165.344 138.84 162.944 138.84 159.776C138.84 156.56 141.096 154.16 144.648 154.16ZM164.725 182.432C166.981 182.432 168.805 180.848 168.805 178.352C168.805 175.904 166.981 174.272 164.725 174.272C162.421 174.272 160.645 175.904 160.645 178.352C160.645 180.848 162.421 182.432 164.725 182.432ZM189.528 168.416V168.512C189.432 173.264 187.752 176.672 183.624 176.672C180.6 176.672 179.544 174.752 179.304 173.6H171.144C172.2 178.928 177.048 182.768 183.48 182.768C191.976 182.768 197.688 176.96 197.688 164.96C197.688 156.32 194.136 148.064 183.192 148.064C175.224 148.064 170.184 152.864 170.184 160.208C170.184 166.544 174.744 171.44 181.608 171.44C185.4 171.44 187.752 170.096 189.528 168.416ZM183.672 154.16C187.272 154.16 189.528 156.56 189.528 159.776C189.528 162.944 187.272 165.344 183.672 165.344C180.12 165.344 177.864 162.944 177.864 159.776C177.864 156.56 180.12 154.16 183.672 154.16ZM208.16 167.312C214.208 167.312 216.944 162.896 216.944 157.712C216.944 152.48 214.208 148.064 208.16 148.064C202.16 148.064 199.328 152.48 199.328 157.712C199.328 162.896 202.16 167.312 208.16 167.312ZM230.336 148.832H225.536L208.112 182H212.912L230.336 148.832ZM208.16 162.992C206.192 162.992 205.568 161.36 205.568 157.712C205.568 154.064 206.192 152.384 208.16 152.384C210.128 152.384 210.704 154.064 210.704 157.712C210.704 161.36 210.128 162.992 208.16 162.992ZM230.336 182.768C236.384 182.768 239.12 178.352 239.12 173.168C239.12 167.936 236.384 163.52 230.336 163.52C224.336 163.52 221.504 167.936 221.504 173.168C221.504 178.352 224.336 182.768 230.336 182.768ZM230.336 178.448C228.368 178.448 227.744 176.816 227.744 173.168C227.744 169.52 228.368 167.84 230.336 167.84C232.304 167.84 232.88 169.52 232.88 173.168C232.88 176.816 232.304 178.448 230.336 178.448Z" fill="url(#paint2_linear_561_3028)"/>
<path d="M121.004 222L127.22 204.648H130.916L137.12 222H133.628L132.212 217.98H125.972L124.52 222H121.004ZM126.752 214.92H131.372L129.08 208.032L126.752 214.92ZM143.241 222.216C142.329 222.216 141.605 222.108 141.069 221.892C140.533 221.676 140.137 221.392 139.881 221.04C139.625 220.68 139.461 220.284 139.389 219.852C139.317 219.412 139.281 218.968 139.281 218.52V204.168H142.713V218.088C142.713 218.544 142.809 218.916 143.001 219.204C143.201 219.484 143.573 219.656 144.117 219.72L144.705 219.756V221.916C144.465 221.996 144.221 222.064 143.973 222.12C143.725 222.184 143.481 222.216 143.241 222.216ZM152.261 209.352C153.301 209.352 154.197 209.564 154.949 209.988C155.709 210.412 156.305 210.984 156.737 211.704C157.177 212.424 157.429 213.228 157.493 214.116H154.577C154.521 213.788 154.405 213.464 154.229 213.144C154.053 212.816 153.805 212.548 153.485 212.34C153.165 212.124 152.765 212.016 152.285 212.016C151.469 212.016 150.805 212.332 150.293 212.964C149.789 213.588 149.537 214.54 149.537 215.82C149.537 217.028 149.785 217.988 150.281 218.7C150.777 219.404 151.469 219.756 152.357 219.756C152.829 219.756 153.221 219.64 153.533 219.408C153.853 219.176 154.101 218.9 154.277 218.58C154.453 218.252 154.565 217.948 154.613 217.668H157.457C157.401 218.524 157.153 219.3 156.713 219.996C156.273 220.684 155.673 221.232 154.913 221.64C154.161 222.04 153.277 222.24 152.261 222.24C151.109 222.24 150.081 221.984 149.177 221.472C148.273 220.96 147.561 220.228 147.041 219.276C146.529 218.316 146.273 217.172 146.273 215.844C146.273 214.564 146.521 213.436 147.017 212.46C147.513 211.484 148.209 210.724 149.105 210.18C150.009 209.628 151.061 209.352 152.261 209.352ZM159.906 222V204.168H163.386V211.38C163.586 211.092 163.838 210.808 164.142 210.528C164.446 210.24 164.826 210 165.282 209.808C165.738 209.616 166.294 209.52 166.95 209.52C167.742 209.52 168.462 209.676 169.11 209.988C169.766 210.292 170.29 210.736 170.682 211.32C171.082 211.904 171.282 212.616 171.282 213.456V222H167.766V213.972C167.766 213.412 167.562 212.984 167.154 212.688C166.754 212.384 166.266 212.232 165.69 212.232C165.314 212.232 164.95 212.3 164.598 212.436C164.246 212.572 163.958 212.78 163.734 213.06C163.518 213.332 163.41 213.672 163.41 214.08V222H159.906ZM177.013 216.6C177.005 217.232 177.105 217.784 177.313 218.256C177.521 218.72 177.821 219.08 178.213 219.336C178.613 219.584 179.093 219.708 179.653 219.708C180.253 219.708 180.777 219.58 181.225 219.324C181.681 219.068 181.997 218.648 182.173 218.064H185.329C185.193 218.944 184.841 219.696 184.273 220.32C183.713 220.944 183.033 221.42 182.233 221.748C181.433 222.076 180.601 222.24 179.737 222.24C178.513 222.24 177.433 221.984 176.497 221.472C175.569 220.952 174.845 220.22 174.325 219.276C173.805 218.332 173.545 217.22 173.545 215.94C173.545 214.7 173.781 213.584 174.253 212.592C174.725 211.592 175.409 210.804 176.305 210.228C177.209 209.644 178.293 209.352 179.557 209.352C180.821 209.352 181.881 209.62 182.737 210.156C183.601 210.684 184.249 211.424 184.681 212.376C185.121 213.32 185.341 214.412 185.341 215.652V216.6H177.013ZM177.001 214.512H182.065C182.065 214.016 181.973 213.56 181.789 213.144C181.605 212.728 181.325 212.4 180.949 212.16C180.581 211.92 180.117 211.8 179.557 211.8C179.013 211.8 178.549 211.932 178.165 212.196C177.789 212.452 177.501 212.788 177.301 213.204C177.101 213.62 177.001 214.056 177.001 214.512ZM187.773 222V209.592H191.205V211.344C191.581 210.8 192.085 210.332 192.717 209.94C193.357 209.548 194.161 209.352 195.129 209.352C195.553 209.352 195.985 209.428 196.425 209.58C196.865 209.732 197.277 209.956 197.661 210.252C198.053 210.54 198.369 210.904 198.609 211.344C199.009 210.776 199.533 210.304 200.181 209.928C200.837 209.544 201.565 209.352 202.365 209.352C202.829 209.352 203.297 209.428 203.769 209.58C204.249 209.732 204.689 209.98 205.089 210.324C205.489 210.668 205.809 211.128 206.049 211.704C206.297 212.272 206.421 212.976 206.421 213.816V222H202.917V214.248C202.917 213.752 202.817 213.356 202.617 213.06C202.425 212.756 202.177 212.54 201.873 212.412C201.577 212.276 201.261 212.208 200.925 212.208C200.613 212.208 200.297 212.272 199.977 212.4C199.657 212.52 199.385 212.716 199.161 212.988C198.937 213.26 198.825 213.616 198.825 214.056V222H195.333V213.936C195.333 213.56 195.233 213.244 195.033 212.988C194.833 212.732 194.581 212.54 194.277 212.412C193.981 212.276 193.677 212.208 193.365 212.208C193.045 212.208 192.725 212.276 192.405 212.412C192.085 212.54 191.817 212.744 191.601 213.024C191.385 213.296 191.277 213.64 191.277 214.056V222H187.773ZM210.752 225.96C209.904 225.96 209.304 225.888 208.952 225.744C208.608 225.608 208.436 225.54 208.436 225.54V223.308L209.66 223.356C210.196 223.388 210.628 223.36 210.956 223.272C211.284 223.192 211.532 223.084 211.7 222.948C211.876 222.812 212 222.668 212.072 222.516C212.144 222.372 212.196 222.256 212.228 222.168L212.456 221.484L207.632 209.592H211.1L214.076 217.68L217.088 209.592H220.508L215.48 222.072C215.048 223.128 214.592 223.936 214.112 224.496C213.632 225.056 213.112 225.44 212.552 225.648C212 225.856 211.4 225.96 210.752 225.96ZM116.569 258.24C115.713 258.24 114.873 258.132 114.049 257.916C113.225 257.7 112.473 257.376 111.793 256.944C111.113 256.512 110.549 255.972 110.101 255.324C109.661 254.676 109.397 253.916 109.309 253.044H112.897C113.017 253.572 113.245 254.016 113.581 254.376C113.917 254.736 114.341 255.012 114.853 255.204C115.365 255.396 115.933 255.492 116.557 255.492C117.197 255.492 117.781 255.412 118.309 255.252C118.837 255.092 119.261 254.852 119.581 254.532C119.901 254.204 120.061 253.796 120.061 253.308C120.061 252.868 119.929 252.508 119.665 252.228C119.409 251.948 119.061 251.72 118.621 251.544C118.181 251.368 117.681 251.224 117.121 251.112L114.121 250.5C112.809 250.252 111.769 249.732 111.001 248.94C110.233 248.14 109.837 247.076 109.813 245.748C109.805 244.66 110.093 243.72 110.677 242.928C111.269 242.128 112.069 241.512 113.077 241.08C114.093 240.648 115.229 240.432 116.485 240.432C117.981 240.432 119.237 240.668 120.253 241.14C121.277 241.604 122.053 242.236 122.581 243.036C123.117 243.828 123.393 244.712 123.409 245.688H119.893C119.829 245.08 119.645 244.596 119.341 244.236C119.037 243.876 118.645 243.616 118.165 243.456C117.693 243.296 117.153 243.216 116.545 243.216C116.081 243.216 115.657 243.268 115.273 243.372C114.897 243.476 114.577 243.624 114.313 243.816C114.049 244 113.845 244.22 113.701 244.476C113.557 244.732 113.485 245.02 113.485 245.34C113.485 245.844 113.653 246.252 113.989 246.564C114.325 246.876 114.953 247.132 115.873 247.332L118.849 247.944C119.913 248.152 120.757 248.46 121.381 248.868C122.013 249.276 122.485 249.736 122.797 250.248C123.117 250.76 123.325 251.284 123.421 251.82C123.525 252.348 123.577 252.836 123.577 253.284C123.577 254.22 123.281 255.064 122.689 255.816C122.105 256.56 121.289 257.152 120.241 257.592C119.193 258.024 117.969 258.24 116.569 258.24ZM130.822 258.24C130.246 258.24 129.678 258.152 129.118 257.976C128.566 257.8 128.062 257.54 127.606 257.196C127.15 256.852 126.782 256.428 126.502 255.924C126.23 255.42 126.094 254.836 126.094 254.172V245.592H129.598V253.728C129.598 254.304 129.786 254.776 130.162 255.144C130.538 255.512 131.09 255.696 131.818 255.696C132.506 255.696 133.05 255.52 133.45 255.168C133.858 254.808 134.062 254.308 134.062 253.668V245.592H137.53V258H134.89L134.482 255.54C134.338 256.268 134.066 256.828 133.666 257.22C133.274 257.604 132.822 257.868 132.31 258.012C131.806 258.164 131.31 258.24 130.822 258.24ZM140.453 261.864V245.592H143.969L143.981 247.38C144.165 247.084 144.389 246.816 144.653 246.576C144.925 246.328 145.225 246.112 145.553 245.928C145.881 245.744 146.237 245.604 146.621 245.508C147.005 245.404 147.409 245.352 147.833 245.352C148.753 245.352 149.573 245.58 150.293 246.036C151.013 246.484 151.577 247.18 151.985 248.124C152.401 249.06 152.609 250.252 152.609 251.7C152.609 253.204 152.385 254.44 151.937 255.408C151.497 256.368 150.889 257.08 150.113 257.544C149.337 258.008 148.461 258.24 147.485 258.24C147.085 258.24 146.709 258.184 146.357 258.072C146.005 257.968 145.677 257.82 145.373 257.628C145.077 257.436 144.809 257.216 144.569 256.968C144.337 256.712 144.133 256.436 143.957 256.14V261.864H140.453ZM146.645 255.672C147.405 255.672 148.041 255.356 148.553 254.724C149.073 254.092 149.333 253.092 149.333 251.724C149.333 250.524 149.085 249.588 148.589 248.916C148.101 248.236 147.453 247.896 146.645 247.896C145.741 247.896 145.065 248.264 144.617 249C144.177 249.728 143.957 250.636 143.957 251.724C143.957 252.42 144.053 253.068 144.245 253.668C144.445 254.268 144.741 254.752 145.133 255.12C145.533 255.488 146.037 255.672 146.645 255.672ZM157.818 252.6C157.81 253.232 157.91 253.784 158.118 254.256C158.326 254.72 158.626 255.08 159.018 255.336C159.418 255.584 159.898 255.708 160.458 255.708C161.058 255.708 161.582 255.58 162.03 255.324C162.486 255.068 162.802 254.648 162.978 254.064H166.134C165.998 254.944 165.646 255.696 165.078 256.32C164.518 256.944 163.838 257.42 163.038 257.748C162.238 258.076 161.406 258.24 160.542 258.24C159.318 258.24 158.238 257.984 157.302 257.472C156.374 256.952 155.65 256.22 155.13 255.276C154.61 254.332 154.35 253.22 154.35 251.94C154.35 250.7 154.586 249.584 155.058 248.592C155.53 247.592 156.214 246.804 157.11 246.228C158.014 245.644 159.098 245.352 160.362 245.352C161.626 245.352 162.686 245.62 163.542 246.156C164.406 246.684 165.054 247.424 165.486 248.376C165.926 249.32 166.146 250.412 166.146 251.652V252.6H157.818ZM157.806 250.512H162.87C162.87 250.016 162.778 249.56 162.594 249.144C162.41 248.728 162.13 248.4 161.754 248.16C161.386 247.92 160.922 247.8 160.362 247.8C159.818 247.8 159.354 247.932 158.97 248.196C158.594 248.452 158.306 248.788 158.106 249.204C157.906 249.62 157.806 250.056 157.806 250.512ZM168.578 258V245.592H171.95V248.532C172.15 247.9 172.43 247.348 172.79 246.876C173.158 246.396 173.602 246.024 174.122 245.76C174.642 245.488 175.23 245.352 175.886 245.352C175.998 245.352 176.102 245.36 176.198 245.376C176.302 245.384 176.378 245.4 176.426 245.424V248.76C176.354 248.728 176.266 248.708 176.162 248.7C176.066 248.692 175.978 248.684 175.898 248.676C175.21 248.62 174.622 248.64 174.134 248.736C173.646 248.832 173.25 248.996 172.946 249.228C172.642 249.46 172.422 249.744 172.286 250.08C172.15 250.416 172.082 250.792 172.082 251.208V258H168.578ZM178.328 258V245.592H181.772V247.344C181.964 247.04 182.212 246.748 182.516 246.468C182.828 246.18 183.22 245.944 183.692 245.76C184.164 245.576 184.724 245.484 185.372 245.484C186.132 245.484 186.84 245.632 187.496 245.928C188.16 246.224 188.696 246.692 189.104 247.332C189.512 247.964 189.716 248.792 189.716 249.816V258H186.212V250.248C186.212 249.576 186.012 249.072 185.612 248.736C185.212 248.4 184.724 248.232 184.148 248.232C183.764 248.232 183.392 248.3 183.032 248.436C182.68 248.572 182.392 248.776 182.168 249.048C181.944 249.32 181.832 249.656 181.832 250.056V258H178.328ZM197.883 258.24C196.667 258.24 195.607 257.98 194.703 257.46C193.807 256.94 193.111 256.204 192.615 255.252C192.127 254.3 191.883 253.172 191.883 251.868C191.883 250.564 192.127 249.424 192.615 248.448C193.111 247.472 193.807 246.712 194.703 246.168C195.607 245.624 196.671 245.352 197.895 245.352C199.119 245.352 200.179 245.62 201.075 246.156C201.971 246.684 202.663 247.436 203.151 248.412C203.639 249.388 203.883 250.54 203.883 251.868C203.883 253.116 203.643 254.22 203.163 255.18C202.691 256.132 202.007 256.88 201.111 257.424C200.223 257.968 199.147 258.24 197.883 258.24ZM197.895 255.636C198.511 255.636 199.007 255.456 199.383 255.096C199.759 254.736 200.031 254.264 200.199 253.68C200.375 253.088 200.463 252.444 200.463 251.748C200.463 251.092 200.383 250.472 200.223 249.888C200.071 249.304 199.807 248.832 199.431 248.472C199.055 248.112 198.543 247.932 197.895 247.932C197.279 247.932 196.779 248.104 196.395 248.448C196.019 248.784 195.743 249.244 195.567 249.828C195.391 250.404 195.303 251.044 195.303 251.748C195.303 252.396 195.383 253.02 195.543 253.62C195.703 254.212 195.971 254.696 196.347 255.072C196.723 255.448 197.239 255.636 197.895 255.636ZM210.827 258.24C209.163 258.24 207.867 257.668 206.939 256.524C206.011 255.372 205.547 253.772 205.547 251.724C205.547 250.428 205.735 249.304 206.111 248.352C206.487 247.4 207.043 246.664 207.779 246.144C208.515 245.616 209.415 245.352 210.479 245.352C210.927 245.352 211.343 245.404 211.727 245.508C212.119 245.604 212.475 245.74 212.795 245.916C213.115 246.092 213.395 246.296 213.635 246.528C213.875 246.76 214.071 247.008 214.223 247.272V240.168H217.739V258H215.195L214.799 255.456C214.687 255.8 214.531 256.136 214.331 256.464C214.131 256.792 213.875 257.092 213.563 257.364C213.251 257.628 212.867 257.84 212.411 258C211.963 258.16 211.435 258.24 210.827 258.24ZM211.595 255.72C212.475 255.72 213.131 255.412 213.563 254.796C214.003 254.18 214.223 253.14 214.223 251.676C214.215 250.828 214.115 250.124 213.923 249.564C213.731 249.004 213.443 248.588 213.059 248.316C212.683 248.036 212.203 247.896 211.619 247.896C210.859 247.896 210.227 248.188 209.723 248.772C209.219 249.348 208.967 250.316 208.967 251.676C208.967 253.06 209.203 254.08 209.675 254.736C210.147 255.392 210.787 255.72 211.595 255.72ZM223.63 252.6C223.622 253.232 223.722 253.784 223.93 254.256C224.138 254.72 224.438 255.08 224.83 255.336C225.23 255.584 225.71 255.708 226.27 255.708C226.87 255.708 227.394 255.58 227.842 255.324C228.298 255.068 228.614 254.648 228.79 254.064H231.946C231.81 254.944 231.458 255.696 230.89 256.32C230.33 256.944 229.65 257.42 228.85 257.748C228.05 258.076 227.218 258.24 226.354 258.24C225.13 258.24 224.05 257.984 223.114 257.472C222.186 256.952 221.462 256.22 220.942 255.276C220.422 254.332 220.162 253.22 220.162 251.94C220.162 250.7 220.398 249.584 220.87 248.592C221.342 247.592 222.026 246.804 222.922 246.228C223.826 245.644 224.91 245.352 226.174 245.352C227.438 245.352 228.498 245.62 229.354 246.156C230.218 246.684 230.866 247.424 231.298 248.376C231.738 249.32 231.958 250.412 231.958 251.652V252.6H223.63ZM223.618 250.512H228.682C228.682 250.016 228.59 249.56 228.406 249.144C228.222 248.728 227.942 248.4 227.566 248.16C227.198 247.92 226.734 247.8 226.174 247.8C225.63 247.8 225.166 247.932 224.782 248.196C224.406 248.452 224.118 248.788 223.918 249.204C223.718 249.62 223.618 250.056 223.618 250.512Z" fill="url(#paint3_linear_561_3028)"/>
<line x1="73.5" y1="287.5" x2="274.5" y2="287.5" stroke="#73FCC2" stroke-width="3" stroke-linecap="round"/>
<rect x="150" y="75" width="40" height="40" rx="20" fill="#46CD92"/>
<path d="M178 89L167 100L162 95" stroke="white" stroke-width="2" stroke-linecap="round" stroke-linejoin="round"/>
</g>
<defs>
<filter id="filter0_d_561_3028" x="321.087" y="32.087" width="313.826" height="385.826" filterUnits="userSpaceOnUse" color-interpolation-filters="sRGB">
<feFlood flood-opacity="0" result="BackgroundImageFix"/>
<feColorMatrix in="SourceAlpha" type="matrix" values="0 0 0 0 0 0 0 0 0 0 0 0 0 0 0 0 0 0 127 0" result="hardAlpha"/>
<feOffset/>
<feGaussianBlur stdDeviation="9.45652"/>
<feComposite in2="hardAlpha" operator="out"/>
<feColorMatrix type="matrix" values="0 0 0 0 0.197708 0 0 0 0 0.387559 0 0 0 0 0.65 0 0 0 0.1 0"/>
<feBlend mode="normal" in2="BackgroundImageFix" result="effect1_dropShadow_561_3028"/>
<feBlend mode="normal" in="SourceGraphic" in2="effect1_dropShadow_561_3028" result="shape"/>
</filter>
<filter id="filter1_d_561_3028" x="13.087" y="32.087" width="313.826" height="385.826" filterUnits="userSpaceOnUse" color-interpolation-filters="sRGB">
<feFlood flood-opacity="0" result="BackgroundImageFix"/>
<feColorMatrix in="SourceAlpha" type="matrix" values="0 0 0 0 0 0 0 0 0 0 0 0 0 0 0 0 0 0 127 0" result="hardAlpha"/>
<feOffset/>
<feGaussianBlur stdDeviation="9.45652"/>
<feComposite in2="hardAlpha" operator="out"/>
<feColorMatrix type="matrix" values="0 0 0 0 0.197708 0 0 0 0 0.387559 0 0 0 0 0.65 0 0 0 0.1 0"/>
<feBlend mode="normal" in2="BackgroundImageFix" result="effect1_dropShadow_561_3028"/>
<feBlend mode="normal" in="SourceGraphic" in2="effect1_dropShadow_561_3028" result="shape"/>
</filter>
<linearGradient id="paint0_linear_561_3028" x1="306" y1="-82.5" x2="75.4197" y2="495.02" gradientUnits="userSpaceOnUse">
<stop offset="0.24238" stop-color="#36BEFF"/>
<stop offset="1" stop-color="#5578F8"/>
</linearGradient>
<linearGradient id="paint1_linear_561_3028" x1="474.303" y1="488.844" x2="474.303" y2="170.887" gradientUnits="userSpaceOnUse">
<stop offset="0.0629205" stop-color="white" stop-opacity="0"/>
<stop offset="0.219364" stop-color="white"/>
<stop offset="0.435002" stop-color="white" stop-opacity="0.69"/>
<stop offset="1" stop-color="white" stop-opacity="0"/>
</linearGradient>
<linearGradient id="paint2_linear_561_3028" x1="100.5" y1="138" x2="155.633" y2="245.099" gradientUnits="userSpaceOnUse">
<stop offset="0.24238" stop-color="#36BEFF"/>
<stop offset="1" stop-color="#733FF1"/>
</linearGradient>
<linearGradient id="paint3_linear_561_3028" x1="80" y1="195" x2="157.02" y2="337.388" gradientUnits="userSpaceOnUse">
<stop offset="0.24238" stop-color="#36BEFF"/>
<stop offset="1" stop-color="#733FF1"/>
</linearGradient>
<clipPath id="clip0_561_3028">
<rect width="648" height="450" rx="32" fill="white"/>
</clipPath>
</defs>
</svg>
