<svg width="150" height="42" viewBox="0 0 150 42" fill="none" xmlns="http://www.w3.org/2000/svg">
<g clip-path="url(#clip0_1027_7085)">
<path fill-rule="evenodd" clip-rule="evenodd" d="M5 13.294C5 10.185 5 8.63057 5.60504 7.4431C6.13726 6.39858 6.98647 5.54937 8.03099 5.01715C9.21846 4.41211 10.7729 4.41211 13.8819 4.41211H29.417C32.5259 4.41211 34.0804 4.41211 35.2679 5.01715C36.3124 5.54937 37.1616 6.39858 37.6938 7.4431C38.2989 8.63057 38.2989 10.185 38.2989 13.294V28.7067C38.2989 31.8156 38.2989 33.3701 37.6938 34.5576C37.1616 35.6021 36.3124 36.4513 35.2679 36.9835C34.0804 37.5886 32.5259 37.5886 29.417 37.5886H13.8819C10.7729 37.5886 9.21846 37.5886 8.03099 36.9835C6.98647 36.4513 6.13726 35.6021 5.60504 34.5576C5 33.3701 5 31.8156 5 28.7067V13.294ZM12.2222 12.7078C11.6515 12.7078 11.4316 13.4108 11.9105 13.7045L23.8895 20.9008C24.188 21.0839 24.5863 21.0116 24.7919 20.7368L30.0587 13.8478C30.4168 13.3692 30.055 12.7078 29.4352 12.7078H12.2222ZM31.3673 28.2956C31.846 28.5892 31.6205 29.2961 31.0498 29.2961H13.8499C13.2302 29.2961 12.8571 28.6395 13.2151 28.161L18.4921 21.2733C18.6977 20.9986 19.0862 20.917 19.3848 21.1002L31.3673 28.2956Z" fill="#020202"/>
<path d="M49.3547 28.5958L57.1053 15.7715H50.2185V12.9316H62.3102V13.3599L54.7188 26.1842H62.0374V29.0466H49.3547V28.5958Z" fill="#020202"/>
<path d="M66.3256 12.9316H76.9172V15.7715H69.9849V19.5354H75.5308V22.1949H69.9849V26.2068H77.2808V29.0466H66.3256V12.9316Z" fill="#020202"/>
<path d="M81.5409 12.9316H87.3595C88.3143 12.9316 89.1777 13.0293 89.9507 13.2247C90.7237 13.42 91.3823 13.7205 91.928 14.1262C92.4738 14.5319 92.8902 15.0427 93.178 15.6588C93.4807 16.2748 93.6325 16.9961 93.6325 17.8225V17.9127C93.6325 18.5287 93.5495 19.0696 93.3828 19.5354C93.2161 20.0012 92.9814 20.4069 92.6778 20.7525C92.3751 21.0981 92.0193 21.3911 91.6095 21.6315C91.2006 21.8719 90.761 22.0597 90.2916 22.1949L94.5871 29.0466H90.6781L86.7912 22.826H85.2003V29.0466H81.5409V12.9316ZM87.2686 20.3468C88.1932 20.3468 88.8824 20.1514 89.3369 19.7608C89.8064 19.3701 90.0411 18.7917 90.0411 18.0253V17.9352C90.0411 17.1088 89.7989 16.5378 89.3146 16.2222C88.8443 15.8917 88.1625 15.7264 87.2686 15.7264H85.2003V20.3468H87.2686Z" fill="#020202"/>
<path d="M98.4597 12.9316H102.165V29.0466H98.4597V12.9316Z" fill="#020202"/>
<path d="M114.372 26.3869C115.054 26.3869 115.667 26.2591 116.213 26.0037C116.774 25.7482 117.251 25.3877 117.645 24.9219C118.024 24.4711 118.319 23.9151 118.531 23.254C118.744 22.5929 118.849 21.8566 118.849 21.0452V20.865C118.849 20.0836 118.744 19.3699 118.531 18.7238C118.334 18.0777 118.046 17.5218 117.667 17.056C117.273 16.5902 116.796 16.2296 116.236 15.9741C115.675 15.7186 115.039 15.591 114.326 15.591C113.615 15.591 112.978 15.7186 112.417 15.9741C111.872 16.2145 111.402 16.5601 111.008 17.0109C110.614 17.4767 110.311 18.0402 110.099 18.7013C109.902 19.3473 109.804 20.0761 109.804 20.8875V21.0678C109.804 21.8942 109.917 22.6379 110.144 23.2991C110.372 23.9452 110.69 24.4937 111.099 24.9444C111.493 25.4102 111.97 25.7708 112.531 26.0262C113.091 26.2666 113.705 26.3869 114.372 26.3869ZM114.304 29.2943C113.031 29.2943 111.88 29.0914 110.849 28.6858C109.818 28.2651 108.948 27.6866 108.235 26.9503C107.508 26.229 106.947 25.3651 106.553 24.3584C106.159 23.3516 105.963 22.2623 105.963 21.0903V20.91C105.963 19.7079 106.167 18.6036 106.576 17.5968C107 16.5902 107.591 15.7262 108.349 15.0049C109.091 14.2838 109.97 13.7203 110.985 13.3146C112.001 12.9089 113.115 12.7061 114.326 12.7061C115.554 12.7061 116.675 12.9014 117.69 13.292C118.721 13.6827 119.607 14.2312 120.35 14.9373C121.077 15.6586 121.645 16.515 122.054 17.5067C122.479 18.4984 122.691 19.6028 122.691 20.8199V21.0002C122.691 22.2022 122.486 23.3141 122.077 24.3358C121.683 25.3426 121.123 26.214 120.395 26.9503C119.668 27.6866 118.789 28.2651 117.758 28.6858C116.728 29.0914 115.576 29.2943 114.304 29.2943Z" fill="#020202"/>
<path d="M126.678 12.9316H130.951L137.134 23.5473V12.9316H140.406V29.0466H136.725L129.951 17.5746V29.0466H126.678V12.9316Z" fill="#020202"/>
</g>
<defs>
<clipPath id="clip0_1027_7085">
<rect width="141" height="33.1765" fill="white" transform="translate(5 4.41211)"/>
</clipPath>
</defs>
</svg>
