<svg width="72" height="72" viewBox="0 0 72 72" fill="none" xmlns="http://www.w3.org/2000/svg">
<path opacity="0.6" d="M56.5 22.5774C57.1188 22.2201 57.8812 22.2201 58.5 22.5774L66.4593 27.1726C67.0781 27.5299 67.4593 28.1902 67.4593 28.9047V38.0953C67.4593 38.8098 67.0781 39.4701 66.4593 39.8274L58.5 44.4226C57.8812 44.7799 57.1188 44.7799 56.5 44.4226L48.5407 39.8274C47.9219 39.4701 47.5407 38.8098 47.5407 38.0953V28.9047C47.5407 28.1902 47.9219 27.5299 48.5407 27.1726L56.5 22.5774Z" fill="url(#paint0_linear_561_3428)"/>
<path opacity="0.3" d="M14.0873 19.125C17.4367 17.1912 21.5633 17.1912 24.9127 19.125V19.125C28.262 21.0588 30.3253 24.6325 30.3253 28.5V28.5C30.3253 32.3675 28.262 35.9412 24.9127 37.875V37.875C21.5633 39.8088 17.4367 39.8088 14.0873 37.875V37.875C10.738 35.9412 8.67468 32.3675 8.67468 28.5V28.5C8.67468 24.6325 10.738 21.0588 14.0873 19.125V19.125Z" fill="url(#paint1_linear_561_3428)"/>
<path fill-rule="evenodd" clip-rule="evenodd" d="M30.5673 10C30.5673 8.89543 31.4627 8 32.5673 8H38.5995C39.7041 8 40.5995 8.89543 40.5995 10V16.0322C40.5995 17.1368 39.704 18.0322 38.5995 18.0322H36.8374V24.7355C37.2678 24.8471 37.6868 25.0171 38.0823 25.2454L48.2865 31.1369C49.8335 32.03 50.7865 33.6806 50.7865 35.467V47.2499C50.7865 47.7068 50.7242 48.1549 50.6055 48.5837L61.27 54.7409L62.1783 53.1677C62.7306 52.2111 63.9538 51.8833 64.9103 52.4356L70.1344 55.4517C71.091 56.004 71.4187 57.2272 70.8664 58.1838L67.8503 63.4078C67.2981 64.3644 66.0749 64.6922 65.1183 64.1399L59.8942 61.1238C58.9376 60.5715 58.6099 59.3483 59.1622 58.3917L60.016 56.9129L49.3516 50.7558C49.0395 51.0732 48.6825 51.3514 48.2865 51.58L38.0823 57.4714C36.5353 58.3646 34.6293 58.3646 33.0823 57.4714L22.878 51.58C22.482 51.3514 22.1249 51.0731 21.8128 50.7556L11.1264 56.9254L11.973 58.3917C12.5253 59.3483 12.1976 60.5715 11.241 61.1238L6.01693 64.1399C5.06035 64.6922 3.83717 64.3644 3.28488 63.4078L0.268771 58.1838C-0.283513 57.2272 0.0442373 56.004 1.00082 55.4517L6.22488 52.4356C7.18147 51.8833 8.40465 52.2111 8.95693 53.1677L9.87241 54.7533L20.559 48.5834C20.4403 48.1547 20.378 47.7067 20.378 47.2499V35.467C20.378 33.6806 21.331 32.03 22.878 31.1369L33.0823 25.2454C33.4784 25.0167 33.8981 24.8465 34.3293 24.7349V18.0322H32.5673C31.4627 18.0322 30.5673 17.1368 30.5673 16.0322V10Z" fill="url(#paint2_linear_561_3428)"/>
<path d="M41.4936 38.92L35.0758 45.5158C34.7193 45.8789 34.3031 46 33.8874 46C33.4712 46 32.9962 45.8185 32.699 45.5158L29.4903 42.2483C28.8366 41.5827 28.8366 40.4937 29.4903 39.7672C30.144 39.1015 31.2134 39.1015 31.9268 39.7672L33.9471 41.8245L39.1766 36.4993C39.8303 35.8336 40.8997 35.8336 41.6131 36.4993C42.1474 37.1653 42.1473 38.2544 41.4936 38.92Z" fill="#020202"/>
<path d="M41.4936 38.92L35.0758 45.5158C34.7193 45.8789 34.3031 46 33.8874 46C33.4712 46 32.9962 45.8185 32.699 45.5158L29.4903 42.2483C28.8366 41.5827 28.8366 40.4937 29.4903 39.7672C30.144 39.1015 31.2134 39.1015 31.9268 39.7672L33.9471 41.8245L39.1766 36.4993C39.8303 35.8336 40.8997 35.8336 41.6131 36.4993C42.1474 37.1653 42.1473 38.2544 41.4936 38.92Z" fill="url(#paint3_linear_561_3428)"/>
<path d="M41.4936 38.92L35.0758 45.5158C34.7193 45.8789 34.3031 46 33.8874 46C33.4712 46 32.9962 45.8185 32.699 45.5158L29.4903 42.2483C28.8366 41.5827 28.8366 40.4937 29.4903 39.7672C30.144 39.1015 31.2134 39.1015 31.9268 39.7672L33.9471 41.8245L39.1766 36.4993C39.8303 35.8336 40.8997 35.8336 41.6131 36.4993C42.1474 37.1653 42.1473 38.2544 41.4936 38.92Z" fill="url(#paint4_linear_561_3428)"/>
<path d="M41.4936 38.92L35.0758 45.5158C34.7193 45.8789 34.3031 46 33.8874 46C33.4712 46 32.9962 45.8185 32.699 45.5158L29.4903 42.2483C28.8366 41.5827 28.8366 40.4937 29.4903 39.7672C30.144 39.1015 31.2134 39.1015 31.9268 39.7672L33.9471 41.8245L39.1766 36.4993C39.8303 35.8336 40.8997 35.8336 41.6131 36.4993C42.1474 37.1653 42.1473 38.2544 41.4936 38.92Z" fill="#F5F7FF"/>
<defs>
<linearGradient id="paint0_linear_561_3428" x1="46" y1="22" x2="74.061" y2="42.6359" gradientUnits="userSpaceOnUse">
<stop offset="0.24238" stop-color="#36BEFF"/>
<stop offset="1" stop-color="#733FF1"/>
</linearGradient>
<linearGradient id="paint1_linear_561_3428" x1="7" y1="16" x2="37.5011" y2="38.4303" gradientUnits="userSpaceOnUse">
<stop offset="0.24238" stop-color="#36BEFF"/>
<stop offset="1" stop-color="#733FF1"/>
</linearGradient>
<linearGradient id="paint2_linear_561_3428" x1="0.000488281" y1="8" x2="71.8926" y2="74.6711" gradientUnits="userSpaceOnUse">
<stop offset="0.24238" stop-color="#36BEFF"/>
<stop offset="1" stop-color="#733FF1"/>
</linearGradient>
<linearGradient id="paint3_linear_561_3428" x1="3.4062" y1="11.9924" x2="65.1471" y2="74.9005" gradientUnits="userSpaceOnUse">
<stop stop-color="#FFA34E"/>
<stop offset="0.410355" stop-color="#CC759A"/>
<stop offset="1" stop-color="#4A4BFF"/>
</linearGradient>
<linearGradient id="paint4_linear_561_3428" x1="10.8669" y1="11.9924" x2="66.6205" y2="15.5352" gradientUnits="userSpaceOnUse">
<stop stop-color="#2AA2FF"/>
<stop offset="1" stop-color="#676AFF"/>
</linearGradient>
</defs>
</svg>
