<svg width="72" height="18" viewBox="0 0 72 18" fill="none" xmlns="http://www.w3.org/2000/svg">
<path d="M72 9L57 0.339746V17.6603L72 9ZM58.4975 7.5C58.4591 7.5 58.4207 7.5 58.3822 7.5C58.3437 7.5 58.3052 7.5 58.2666 7.5C58.2281 7.5 58.1894 7.5 58.1508 7.5C58.1121 7.5 58.0733 7.5 58.0346 7.5C57.9958 7.5 57.9569 7.5 57.918 7.5C57.8792 7.5 57.8402 7.5 57.8012 7.5C57.7622 7.5 57.7232 7.5 57.6841 7.5C57.645 7.5 57.6058 7.5 57.5666 7.5C57.5274 7.5 57.4882 7.5 57.4489 7.5C57.4096 7.5 57.3702 7.5 57.3308 7.5C57.2914 7.5 57.252 7.5 57.2125 7.5C57.173 7.5 57.1334 7.5 57.0938 7.5C57.0542 7.5 57.0146 7.5 56.9749 7.5C56.9352 7.5 56.8954 7.5 56.8556 7.5C56.8158 7.5 56.776 7.5 56.7361 7.5C56.6962 7.5 56.6562 7.5 56.6162 7.5C56.5763 7.5 56.5362 7.5 56.4961 7.5C56.456 7.5 56.4159 7.5 56.3757 7.5C56.3355 7.5 56.2953 7.5 56.255 7.5C56.2147 7.5 56.1744 7.5 56.134 7.5C56.0936 7.5 56.0532 7.5 56.0128 7.5C55.9723 7.5 55.9318 7.5 55.8912 7.5C55.8506 7.5 55.81 7.5 55.7694 7.5C55.7287 7.5 55.688 7.5 55.6473 7.5C55.6065 7.5 55.5657 7.5 55.5249 7.5C55.484 7.5 55.4432 7.5 55.4022 7.5C55.3613 7.5 55.3203 7.5 55.2793 7.5C55.2383 7.5 55.1972 7.5 55.1561 7.5C55.115 7.5 55.0738 7.5 55.0326 7.5C54.9914 7.5 54.9502 7.5 54.9089 7.5C54.8676 7.5 54.8263 7.5 54.7849 7.5C54.7435 7.5 54.7021 7.5 54.6607 7.5C54.6192 7.5 54.5777 7.5 54.5361 7.5C54.4946 7.5 54.453 7.5 54.4114 7.5C54.3697 7.5 54.3281 7.5 54.2863 7.5C54.2446 7.5 54.2029 7.5 54.1611 7.5C54.1192 7.5 54.0774 7.5 54.0355 7.5C53.9936 7.5 53.9517 7.5 53.9097 7.5C53.8678 7.5 53.8257 7.5 53.7837 7.5C53.7416 7.5 53.6995 7.5 53.6574 7.5C53.6153 7.5 53.5731 7.5 53.5309 7.5C53.4887 7.5 53.4464 7.5 53.4041 7.5C53.3618 7.5 53.3195 7.5 53.2771 7.5C53.2347 7.5 53.1923 7.5 53.1498 7.5C53.1074 7.5 53.0649 7.5 53.0224 7.5C52.9798 7.5 52.9372 7.5 52.8946 7.5C52.852 7.5 52.8094 7.5 52.7667 7.5C52.724 7.5 52.6812 7.5 52.6385 7.5C52.5957 7.5 52.5529 7.5 52.5101 7.5C52.4672 7.5 52.4243 7.5 52.3814 7.5C52.3385 7.5 52.2955 7.5 52.2525 7.5C52.2095 7.5 52.1665 7.5 52.1234 7.5C52.0804 7.5 52.0373 7.5 51.9941 7.5C51.951 7.5 51.9078 7.5 51.8646 7.5C51.8214 7.5 51.7781 7.5 51.7348 7.5C51.6915 7.5 51.6482 7.5 51.6048 7.5C51.5615 7.5 51.5181 7.5 51.4746 7.5C51.4312 7.5 51.3877 7.5 51.3442 7.5C51.3007 7.5 51.2572 7.5 51.2136 7.5C51.1701 7.5 51.1265 7.5 51.0828 7.5C51.0392 7.5 50.9955 7.5 50.9518 7.5C50.9081 7.5 50.8643 7.5 50.8205 7.5C50.7768 7.5 50.733 7.5 50.6891 7.5C50.6453 7.5 50.6014 7.5 50.5575 7.5C50.5136 7.5 50.4696 7.5 50.4256 7.5C50.3817 7.5 50.3376 7.5 50.2936 7.5C50.2496 7.5 50.2055 7.5 50.1614 7.5C50.1173 7.5 50.0731 7.5 50.0289 7.5C49.9848 7.5 49.9406 7.5 49.8963 7.5C49.8521 7.5 49.8078 7.5 49.7635 7.5C49.7192 7.5 49.6749 7.5 49.6305 7.5C49.5862 7.5 49.5418 7.5 49.4973 7.5C49.4529 7.5 49.4085 7.5 49.364 7.5C49.3195 7.5 49.275 7.5 49.2304 7.5C49.1859 7.5 49.1413 7.5 49.0967 7.5C49.0521 7.5 49.0075 7.5 48.9628 7.5C48.9181 7.5 48.8734 7.5 48.8287 7.5C48.784 7.5 48.7392 7.5 48.6945 7.5C48.6497 7.5 48.6049 7.5 48.56 7.5C48.5152 7.5 48.4703 7.5 48.4254 7.5C48.3805 7.5 48.3356 7.5 48.2907 7.5C48.2457 7.5 48.2007 7.5 48.1557 7.5C48.1107 7.5 48.0657 7.5 48.0206 7.5C47.9756 7.5 47.9305 7.5 47.8854 7.5C47.8402 7.5 47.7951 7.5 47.7499 7.5C47.7048 7.5 47.6596 7.5 47.6143 7.5C47.5691 7.5 47.5239 7.5 47.4786 7.5C47.4333 7.5 47.388 7.5 47.3427 7.5C47.2974 7.5 47.252 7.5 47.2067 7.5C47.1613 7.5 47.1159 7.5 47.0704 7.5C47.025 7.5 46.9796 7.5 46.9341 7.5C46.8886 7.5 46.8431 7.5 46.7976 7.5C46.7521 7.5 46.7065 7.5 46.6609 7.5C46.6154 7.5 46.5698 7.5 46.5241 7.5C46.4785 7.5 46.4329 7.5 46.3872 7.5C46.3415 7.5 46.2959 7.5 46.2501 7.5C46.2044 7.5 46.1587 7.5 46.1129 7.5C46.0672 7.5 46.0214 7.5 45.9756 7.5C45.9298 7.5 45.8839 7.5 45.8381 7.5C45.7922 7.5 45.7464 7.5 45.7005 7.5C45.6546 7.5 45.6087 7.5 45.5627 7.5C45.5168 7.5 45.4708 7.5 45.4248 7.5C45.3789 7.5 45.3329 7.5 45.2868 7.5C45.2408 7.5 45.1948 7.5 45.1487 7.5C45.1026 7.5 45.0565 7.5 45.0104 7.5C44.9643 7.5 44.9182 7.5 44.8721 7.5C44.8259 7.5 44.7798 7.5 44.7336 7.5C44.6874 7.5 44.6412 7.5 44.595 7.5C44.5487 7.5 44.5025 7.5 44.4562 7.5C44.41 7.5 44.3637 7.5 44.3174 7.5C44.2711 7.5 44.2248 7.5 44.1784 7.5C44.1321 7.5 44.0857 7.5 44.0394 7.5C43.993 7.5 43.9466 7.5 43.9002 7.5C43.8538 7.5 43.8074 7.5 43.7609 7.5C43.7145 7.5 43.668 7.5 43.6215 7.5C43.5751 7.5 43.5286 7.5 43.482 7.5C43.4355 7.5 43.389 7.5 43.3425 7.5C43.2959 7.5 43.2494 7.5 43.2028 7.5C43.1562 7.5 43.1096 7.5 43.063 7.5C43.0164 7.5 42.9698 7.5 42.9231 7.5C42.8765 7.5 42.8298 7.5 42.7831 7.5C42.7365 7.5 42.6898 7.5 42.6431 7.5C42.5964 7.5 42.5497 7.5 42.5029 7.5C42.4562 7.5 42.4095 7.5 42.3627 7.5C42.3159 7.5 42.2692 7.5 42.2224 7.5C42.1756 7.5 42.1288 7.5 42.082 7.5C42.0351 7.5 41.9883 7.5 41.9415 7.5C41.8946 7.5 41.8478 7.5 41.8009 7.5C41.754 7.5 41.7072 7.5 41.6603 7.5C41.6134 7.5 41.5665 7.5 41.5195 7.5C41.4726 7.5 41.4257 7.5 41.3787 7.5C41.3318 7.5 41.2848 7.5 41.2379 7.5C41.1909 7.5 41.1439 7.5 41.0969 7.5C41.0499 7.5 41.0029 7.5 40.9559 7.5C40.9089 7.5 40.8619 7.5 40.8149 7.5C40.7678 7.5 40.7208 7.5 40.6737 7.5C40.6267 7.5 40.5796 7.5 40.5325 7.5C40.4854 7.5 40.4384 7.5 40.3913 7.5C40.3442 7.5 40.2971 7.5 40.2499 7.5C40.2028 7.5 40.1557 7.5 40.1086 7.5C40.0614 7.5 40.0143 7.5 39.9671 7.5C39.92 7.5 39.8728 7.5 39.8256 7.5C39.7785 7.5 39.7313 7.5 39.6841 7.5C39.6369 7.5 39.5897 7.5 39.5425 7.5C39.4953 7.5 39.4481 7.5 39.4009 7.5C39.3537 7.5 39.3065 7.5 39.2592 7.5C39.212 7.5 39.1647 7.5 39.1175 7.5C39.0703 7.5 39.023 7.5 38.9757 7.5C38.9285 7.5 38.8812 7.5 38.8339 7.5C38.7867 7.5 38.7394 7.5 38.6921 7.5C38.6448 7.5 38.5975 7.5 38.5502 7.5C38.5029 7.5 38.4556 7.5 38.4083 7.5C38.361 7.5 38.3137 7.5 38.2664 7.5C38.219 7.5 38.1717 7.5 38.1244 7.5C38.0771 7.5 38.0297 7.5 37.9824 7.5C37.9351 7.5 37.8877 7.5 37.8404 7.5C37.793 7.5 37.7457 7.5 37.6983 7.5C37.651 7.5 37.6036 7.5 37.5562 7.5C37.5089 7.5 37.4615 7.5 37.4141 7.5C37.3668 7.5 37.3194 7.5 37.272 7.5C37.2246 7.5 37.1773 7.5 37.1299 7.5C37.0825 7.5 37.0351 7.5 36.9877 7.5C36.9404 7.5 36.893 7.5 36.8456 7.5C36.7982 7.5 36.7508 7.5 36.7034 7.5C36.656 7.5 36.6086 7.5 36.5612 7.5C36.5138 7.5 36.4664 7.5 36.419 7.5C36.3716 7.5 36.3242 7.5 36.2768 7.5C36.2295 7.5 36.1821 7.5 36.1347 7.5C36.0873 7.5 36.0399 7.5 35.9925 7.5C35.9451 7.5 35.8977 7.5 35.8503 7.5C35.8029 7.5 35.7555 7.5 35.7081 7.5C35.6607 7.5 35.6133 7.5 35.5659 7.5C35.5185 7.5 35.4711 7.5 35.4237 7.5C35.3763 7.5 35.3289 7.5 35.2815 7.5C35.2341 7.5 35.1867 7.5 35.1393 7.5C35.0919 7.5 35.0445 7.5 34.9972 7.5C34.9498 7.5 34.9024 7.5 34.855 7.5C34.8076 7.5 34.7603 7.5 34.7129 7.5C34.6655 7.5 34.6181 7.5 34.5708 7.5C34.5234 7.5 34.476 7.5 34.4287 7.5C34.3813 7.5 34.334 7.5 34.2866 7.5C34.2393 7.5 34.1919 7.5 34.1446 7.5C34.0972 7.5 34.0499 7.5 34.0025 7.5C33.9552 7.5 33.9079 7.5 33.8605 7.5C33.8132 7.5 33.7659 7.5 33.7186 7.5C33.6712 7.5 33.6239 7.5 33.5766 7.5C33.5293 7.5 33.482 7.5 33.4347 7.5C33.3874 7.5 33.3401 7.5 33.2928 7.5C33.2456 7.5 33.1983 7.5 33.151 7.5C33.1037 7.5 33.0565 7.5 33.0092 7.5C32.962 7.5 32.9147 7.5 32.8675 7.5C32.8202 7.5 32.773 7.5 32.7257 7.5C32.6785 7.5 32.6313 7.5 32.5841 7.5C32.5368 7.5 32.4896 7.5 32.4424 7.5C32.3952 7.5 32.348 7.5 32.3009 7.5C32.2537 7.5 32.2065 7.5 32.1593 7.5C32.1122 7.5 32.065 7.5 32.0178 7.5C31.9707 7.5 31.9236 7.5 31.8764 7.5C31.8293 7.5 31.7822 7.5 31.7351 7.5C31.6879 7.5 31.6408 7.5 31.5937 7.5C31.5466 7.5 31.4996 7.5 31.4525 7.5C31.4054 7.5 31.3583 7.5 31.3113 7.5C31.2642 7.5 31.2172 7.5 31.1702 7.5C31.1231 7.5 31.0761 7.5 31.0291 7.5C30.9821 7.5 30.9351 7.5 30.8881 7.5C30.8411 7.5 30.7941 7.5 30.7472 7.5C30.7002 7.5 30.6532 7.5 30.6063 7.5C30.5594 7.5 30.5124 7.5 30.4655 7.5C30.4186 7.5 30.3717 7.5 30.3248 7.5C30.2779 7.5 30.231 7.5 30.1842 7.5C30.1373 7.5 30.0904 7.5 30.0436 7.5C29.9968 7.5 29.9499 7.5 29.9031 7.5C29.8563 7.5 29.8095 7.5 29.7627 7.5C29.7159 7.5 29.6692 7.5 29.6224 7.5C29.5757 7.5 29.5289 7.5 29.4822 7.5C29.4355 7.5 29.3887 7.5 29.342 7.5C29.2953 7.5 29.2487 7.5 29.202 7.5C29.1553 7.5 29.1087 7.5 29.062 7.5C29.0154 7.5 28.9688 7.5 28.9222 7.5C28.8756 7.5 28.829 7.5 28.7824 7.5C28.7358 7.5 28.6893 7.5 28.6427 7.5C28.5962 7.5 28.5497 7.5 28.5031 7.5C28.4566 7.5 28.4101 7.5 28.3637 7.5C28.3172 7.5 28.2707 7.5 28.2243 7.5C28.1779 7.5 28.1314 7.5 28.085 7.5C28.0386 7.5 27.9922 7.5 27.9459 7.5C27.8995 7.5 27.8531 7.5 27.8068 7.5C27.7605 7.5 27.7142 7.5 27.6679 7.5C27.6216 7.5 27.5753 7.5 27.529 7.5C27.4828 7.5 27.4365 7.5 27.3903 7.5C27.3441 7.5 27.2979 7.5 27.2517 7.5C27.2055 7.5 27.1594 7.5 27.1132 7.5C27.0671 7.5 27.021 7.5 26.9749 7.5C26.9288 7.5 26.8827 7.5 26.8366 7.5C26.7906 7.5 26.7445 7.5 26.6985 7.5C26.6525 7.5 26.6065 7.5 26.5605 7.5C26.5145 7.5 26.4686 7.5 26.4227 7.5C26.3767 7.5 26.3308 7.5 26.2849 7.5C26.239 7.5 26.1932 7.5 26.1473 7.5C26.1015 7.5 26.0556 7.5 26.0098 7.5C25.964 7.5 25.9183 7.5 25.8725 7.5C25.8267 7.5 25.781 7.5 25.7353 7.5C25.6896 7.5 25.6439 7.5 25.5982 7.5C25.5526 7.5 25.5069 7.5 25.4613 7.5C25.4157 7.5 25.3701 7.5 25.3245 7.5C25.279 7.5 25.2334 7.5 25.1879 7.5C25.1424 7.5 25.0969 7.5 25.0514 7.5C25.006 7.5 24.9605 7.5 24.9151 7.5C24.8697 7.5 24.8243 7.5 24.7789 7.5C24.7335 7.5 24.6882 7.5 24.6429 7.5C24.5975 7.5 24.5522 7.5 24.507 7.5C24.4617 7.5 24.4165 7.5 24.3713 7.5C24.326 7.5 24.2808 7.5 24.2357 7.5C24.1905 7.5 24.1454 7.5 24.1003 7.5C24.0552 7.5 24.0101 7.5 23.965 7.5C23.92 7.5 23.8749 7.5 23.8299 7.5C23.7849 7.5 23.74 7.5 23.695 7.5C23.6501 7.5 23.6052 7.5 23.5603 7.5C23.5154 7.5 23.4705 7.5 23.4257 7.5C23.3809 7.5 23.3361 7.5 23.2913 7.5C23.2465 7.5 23.2018 7.5 23.157 7.5C23.1123 7.5 23.0676 7.5 23.023 7.5C22.9783 7.5 22.9337 7.5 22.8891 7.5C22.8445 7.5 22.7999 7.5 22.7554 7.5C22.7108 7.5 22.6663 7.5 22.6219 7.5C22.5774 7.5 22.5329 7.5 22.4885 7.5C22.4441 7.5 22.3997 7.5 22.3553 7.5C22.311 7.5 22.2667 7.5 22.2224 7.5C22.1781 7.5 22.1338 7.5 22.0896 7.5C22.0454 7.5 22.0012 7.5 21.957 7.5C21.9128 7.5 21.8687 7.5 21.8246 7.5C21.7805 7.5 21.7364 7.5 21.6924 7.5C21.6483 7.5 21.6043 7.5 21.5604 7.5C21.5164 7.5 21.4725 7.5 21.4285 7.5C21.3846 7.5 21.3408 7.5 21.2969 7.5C21.2531 7.5 21.2093 7.5 21.1655 7.5C21.1217 7.5 21.078 7.5 21.0343 7.5C20.9906 7.5 20.9469 7.5 20.9033 7.5C20.8597 7.5 20.8161 7.5 20.7725 7.5C20.7289 7.5 20.6854 7.5 20.6419 7.5C20.5984 7.5 20.5549 7.5 20.5115 7.5C20.4681 7.5 20.4247 7.5 20.3814 7.5C20.338 7.5 20.2947 7.5 20.2514 7.5C20.2081 7.5 20.1649 7.5 20.1217 7.5C20.0785 7.5 20.0353 7.5 19.9921 7.5C19.949 7.5 19.9059 7.5 19.8629 7.5C19.8198 7.5 19.7768 7.5 19.7338 7.5C19.6908 7.5 19.6478 7.5 19.6049 7.5C19.562 7.5 19.5191 7.5 19.4763 7.5C19.4335 7.5 19.3907 7.5 19.3479 7.5C19.3051 7.5 19.2624 7.5 19.2197 7.5C19.1771 7.5 19.1344 7.5 19.0918 7.5C19.0492 7.5 19.0066 7.5 18.9641 7.5C18.9216 7.5 18.8791 7.5 18.8366 7.5C18.7942 7.5 18.7518 7.5 18.7094 7.5C18.667 7.5 18.6247 7.5 18.5824 7.5C18.5401 7.5 18.4979 7.5 18.4557 7.5C18.4135 7.5 18.3713 7.5 18.3292 7.5C18.2871 7.5 18.245 7.5 18.2029 7.5C18.1609 7.5 18.1189 7.5 18.0769 7.5C18.0349 7.5 17.993 7.5 17.9511 7.5C17.9093 7.5 17.8674 7.5 17.8256 7.5C17.7838 7.5 17.7421 7.5 17.7004 7.5C17.6587 7.5 17.617 7.5 17.5754 7.5C17.5337 7.5 17.4922 7.5 17.4506 7.5C17.4091 7.5 17.3676 7.5 17.3261 7.5C17.2847 7.5 17.2433 7.5 17.2019 7.5C17.1605 7.5 17.1192 7.5 17.0779 7.5C17.0367 7.5 16.9954 7.5 16.9542 7.5C16.913 7.5 16.8719 7.5 16.8308 7.5C16.7897 7.5 16.7486 7.5 16.7076 7.5C16.6666 7.5 16.6257 7.5 16.5847 7.5C16.5438 7.5 16.5029 7.5 16.4621 7.5C16.4213 7.5 16.3805 7.5 16.3398 7.5C16.299 7.5 16.2583 7.5 16.2177 7.5C16.177 7.5 16.1364 7.5 16.0959 7.5C16.0553 7.5 16.0148 7.5 15.9744 7.5C15.9339 7.5 15.8935 7.5 15.8531 7.5C15.8128 7.5 15.7724 7.5 15.7322 7.5C15.6919 7.5 15.6517 7.5 15.6115 7.5C15.5713 7.5 15.5312 7.5 15.4911 7.5C15.451 7.5 15.411 7.5 15.371 7.5C15.331 7.5 15.2911 7.5 15.2512 7.5C15.2113 7.5 15.1715 7.5 15.1317 7.5C15.0919 7.5 15.0522 7.5 15.0125 7.5C14.9728 7.5 14.9332 7.5 14.8936 7.5C14.854 7.5 14.8144 7.5 14.7749 7.5C14.7354 7.5 14.696 7.5 14.6566 7.5C14.6172 7.5 14.5779 7.5 14.5386 7.5C14.4993 7.5 14.4601 7.5 14.4209 7.5C14.3817 7.5 14.3426 7.5 14.3035 7.5C14.2644 7.5 14.2254 7.5 14.1864 7.5C14.1474 7.5 14.1085 7.5 14.0696 7.5C14.0307 7.5 13.9919 7.5 13.9531 7.5C13.9143 7.5 13.8756 7.5 13.8369 7.5C13.7983 7.5 13.7596 7.5 13.7211 7.5C13.6825 7.5 13.644 7.5 13.6055 7.5C13.5671 7.5 13.5287 7.5 13.4903 7.5C13.452 7.5 13.4137 7.5 13.3754 7.5C13.3372 7.5 13.299 7.5 13.2609 7.5C13.2227 7.5 13.1846 7.5 13.1466 7.5C13.1086 7.5 13.0706 7.5 13.0327 7.5C12.9948 7.5 12.9569 7.5 12.9191 7.5C12.8813 7.5 12.8435 7.5 12.8058 7.5C12.7681 7.5 12.7305 7.5 12.6929 7.5C12.6553 7.5 12.6178 7.5 12.5803 7.5C12.5428 7.5 12.5054 7.5 12.4681 7.5C12.4307 7.5 12.3934 7.5 12.3561 7.5C12.3189 7.5 12.2817 7.5 12.2446 7.5C12.2074 7.5 12.1704 7.5 12.1333 7.5C12.0963 7.5 12.0593 7.5 12.0224 7.5C11.9855 7.5 11.9487 7.5 11.9119 7.5C11.8751 7.5 11.8384 7.5 11.8017 7.5C11.765 7.5 11.7284 7.5 11.6918 7.5C11.6553 7.5 11.6188 7.5 11.5823 7.5C11.5459 7.5 11.5095 7.5 11.4732 7.5C11.4369 7.5 11.4006 7.5 11.3644 7.5C11.3282 7.5 11.2921 7.5 11.256 7.5C11.2199 7.5 11.1839 7.5 11.1479 7.5C11.1119 7.5 11.076 7.5 11.0402 7.5C11.0044 7.5 10.9686 7.5 10.9329 7.5C10.8971 7.5 10.8615 7.5 10.8259 7.5C10.7903 7.5 10.7547 7.5 10.7193 7.5C10.6838 7.5 10.6484 7.5 10.613 7.5C10.5776 7.5 10.5424 7.5 10.5071 7.5C10.4719 7.5 10.4367 7.5 10.4016 7.5C10.3665 7.5 10.3315 7.5 10.2965 7.5C10.2615 7.5 10.2266 7.5 10.1917 7.5C10.1569 7.5 10.1221 7.5 10.0874 7.5C10.0526 7.5 10.018 7.5 9.98336 7.5C9.94876 7.5 9.91422 7.5 9.87975 7.5C9.84527 7.5 9.81086 7.5 9.77651 7.5C9.74217 7.5 9.70789 7.5 9.67367 7.5C9.63945 7.5 9.6053 7.5 9.57121 7.5C9.53712 7.5 9.5031 7.5 9.46914 7.5C9.43519 7.5 9.40129 7.5 9.36747 7.5C9.33364 7.5 9.29988 7.5 9.26618 7.5C9.23249 7.5 9.19886 7.5 9.16529 7.5C9.13173 7.5 9.09823 7.5 9.0648 7.5C9.03137 7.5 8.99801 7.5 8.96471 7.5C8.93141 7.5 8.89818 7.5 8.86502 7.5C8.83186 7.5 8.79876 7.5 8.76573 7.5C8.7327 7.5 8.69974 7.5 8.66685 7.5C8.63396 7.5 8.60113 7.5 8.56837 7.5C8.53561 7.5 8.50292 7.5 8.4703 7.5C8.43768 7.5 8.40513 7.5 8.37265 7.5C8.34016 7.5 8.30775 7.5 8.2754 7.5C8.24305 7.5 8.21078 7.5 8.17857 7.5C8.14636 7.5 8.11422 7.5 8.08215 7.5C8.05009 7.5 8.01809 7.5 7.98616 7.5C7.95423 7.5 7.92237 7.5 7.89058 7.5C7.85879 7.5 7.82707 7.5 7.79542 7.5C7.76378 7.5 7.7322 7.5 7.70069 7.5C7.66919 7.5 7.63775 7.5 7.60639 7.5C7.57502 7.5 7.54373 7.5 7.51251 7.5C7.48129 7.5 7.45014 7.5 7.41906 7.5C7.38798 7.5 7.35697 7.5 7.32604 7.5C7.29511 7.5 7.26424 7.5 7.23345 7.5C7.20267 7.5 7.17195 7.5 7.1413 7.5C7.11066 7.5 7.08009 7.5 7.04959 7.5C7.01909 7.5 6.98867 7.5 6.95832 7.5C6.92797 7.5 6.89769 7.5 6.86749 7.5C6.83728 7.5 6.80715 7.5 6.7771 7.5C6.74704 7.5 6.71706 7.5 6.68715 7.5C6.65724 7.5 6.62741 7.5 6.59765 7.5C6.56789 7.5 6.53821 7.5 6.5086 7.5C6.47899 7.5 6.44946 7.5 6.42 7.5C6.39054 7.5 6.36116 7.5 6.33185 7.5C6.30254 7.5 6.27331 7.5 6.24416 7.5C6.215 7.5 6.18592 7.5 6.15692 7.5C6.12792 7.5 6.09899 7.5 6.07014 7.5C6.04129 7.5 6.01252 7.5 5.98382 7.5C5.95512 7.5 5.9265 7.5 5.89796 7.5C5.86942 7.5 5.84095 7.5 5.81257 7.5C5.78418 7.5 5.75587 7.5 5.72764 7.5C5.6994 7.5 5.67125 7.5 5.64317 7.5C5.6151 7.5 5.5871 7.5 5.55918 7.5C5.53126 7.5 5.50342 7.5 5.47566 7.5C5.4479 7.5 5.42022 7.5 5.39261 7.5C5.36501 7.5 5.33748 7.5 5.31004 7.5C5.28259 7.5 5.25523 7.5 5.22794 7.5C5.20066 7.5 5.17345 7.5 5.14632 7.5C5.1192 7.5 5.09215 7.5 5.06519 7.5C5.03822 7.5 5.01134 7.5 4.98453 7.5C4.95773 7.5 4.93101 7.5 4.90436 7.5C4.87772 7.5 4.85116 7.5 4.82468 7.5C4.7982 7.5 4.7718 7.5 4.74548 7.5C4.71917 7.5 4.69293 7.5 4.66678 7.5C4.64063 7.5 4.61456 7.5 4.58857 7.5C4.56258 7.5 4.53667 7.5 4.51085 7.5C4.48502 7.5 4.45928 7.5 4.43362 7.5C4.40797 7.5 4.38239 7.5 4.3569 7.5C4.33141 7.5 4.306 7.5 4.28067 7.5C4.25535 7.5 4.23011 7.5 4.20495 7.5C4.17979 7.5 4.15472 7.5 4.12973 7.5C4.10474 7.5 4.07984 7.5 4.05502 7.5C4.03019 7.5 4.00546 7.5 3.98081 7.5C3.95616 7.5 3.93159 7.5 3.90711 7.5C3.88263 7.5 3.85823 7.5 3.83392 7.5C3.80961 7.5 3.78539 7.5 3.76125 7.5C3.73711 7.5 3.71306 7.5 3.68909 7.5C3.66512 7.5 3.64124 7.5 3.61745 7.5C3.59365 7.5 3.56994 7.5 3.54632 7.5C3.5227 7.5 3.49917 7.5 3.47572 7.5C3.45227 7.5 3.42891 7.5 3.40564 7.5C3.38236 7.5 3.35918 7.5 3.33608 7.5C3.31298 7.5 3.28997 7.5 3.26705 7.5C3.24413 7.5 3.22129 7.5 3.19855 7.5C3.1758 7.5 3.15315 7.5 3.13058 7.5C3.10801 7.5 3.08553 7.5 3.06314 7.5C3.04075 7.5 3.01844 7.5 2.99623 7.5C2.97402 7.5 2.95189 7.5 2.92986 7.5C2.90783 7.5 2.88588 7.5 2.86403 7.5C2.84217 7.5 2.82041 7.5 2.79874 7.5C2.77706 7.5 2.75548 7.5 2.73398 7.5C2.71249 7.5 2.69109 7.5 2.66978 7.5C2.64846 7.5 2.62724 7.5 2.60611 7.5C2.58498 7.5 2.56395 7.5 2.543 7.5C2.52205 7.5 2.5012 7.5 2.48043 7.5C2.45967 7.5 2.439 7.5 2.41842 7.5C2.39784 7.5 2.37735 7.5 2.35695 7.5C2.33656 7.5 2.31626 7.5 2.29605 7.5C2.27584 7.5 2.25572 7.5 2.23569 7.5C2.21567 7.5 2.19574 7.5 2.1759 7.5C2.15606 7.5 2.13632 7.5 2.11667 7.5C2.09702 7.5 2.07746 7.5 2.058 7.5C2.03854 7.5 2.01917 7.5 1.9999 7.5C1.98062 7.5 1.96144 7.5 1.94236 7.5C1.92327 7.5 1.90428 7.5 1.88539 7.5C1.86649 7.5 1.84769 7.5 1.82898 7.5C1.81028 7.5 1.79167 7.5 1.77316 7.5C1.75464 7.5 1.73622 7.5 1.7179 7.5C1.69958 7.5 1.68135 7.5 1.66322 7.5C1.64509 7.5 1.62706 7.5 1.60912 7.5C1.59118 7.5 1.57334 7.5 1.5556 7.5C1.53785 7.5 1.5202 7.5 1.50265 7.5C1.4851 7.5 1.46765 7.5 1.4503 7.5C1.43294 7.5 1.41568 7.5 1.39852 7.5C1.38136 7.5 1.3643 7.5 1.34734 7.5C1.33037 7.5 1.31351 7.5 1.29674 7.5C1.27997 7.5 1.26331 7.5 1.24674 7.5C1.23017 7.5 1.21369 7.5 1.19732 7.5C1.18095 7.5 1.16468 7.5 1.1485 7.5C1.13233 7.5 1.11626 7.5 1.10028 7.5C1.08431 7.5 1.06843 7.5 1.05266 7.5C1.03689 7.5 1.02121 7.5 1.00564 7.5C0.990063 7.5 0.974589 7.5 0.959216 7.5C0.943843 7.5 0.928571 7.5 0.9134 7.5C0.898228 7.5 0.883158 7.5 0.868189 7.5C0.853221 7.5 0.838353 7.5 0.823587 7.5C0.808821 7.5 0.794157 7.5 0.779595 7.5C0.765032 7.5 0.750572 7.5 0.736214 7.5C0.721856 7.5 0.7076 7.5 0.693447 7.5C0.679294 7.5 0.665243 7.5 0.651296 7.5C0.637348 7.5 0.623503 7.5 0.609762 7.5C0.59602 7.5 0.582382 7.5 0.568847 7.5C0.555312 7.5 0.541881 7.5 0.528554 7.5C0.515226 7.5 0.502003 7.5 0.488884 7.5C0.475764 7.5 0.462749 7.5 0.449839 7.5C0.436928 7.5 0.424122 7.5 0.411421 7.5C0.398719 7.5 0.386123 7.5 0.373632 7.5C0.36114 7.5 0.348754 7.5 0.336473 7.5C0.324192 7.5 0.312017 7.5 0.299947 7.5C0.287878 7.5 0.275914 7.5 0.264056 7.5C0.252199 7.5 0.240447 7.5 0.228802 7.5C0.217156 7.5 0.205618 7.5 0.194185 7.5C0.182753 7.5 0.171428 7.5 0.160209 7.5C0.148991 7.5 0.13788 7.5 0.126876 7.5C0.115872 7.5 0.104975 7.5 0.0941858 7.5C0.0833968 7.5 0.0727154 7.5 0.062142 7.5C0.0515687 7.5 0.0411032 7.5 0.0307461 7.5C0.020389 7.5 0.0101402 7.5 0 7.5L0 10.5C0.0101402 10.5 0.020389 10.5 0.0307461 10.5C0.0411032 10.5 0.0515687 10.5 0.062142 10.5C0.0727154 10.5 0.0833968 10.5 0.0941858 10.5C0.104975 10.5 0.115872 10.5 0.126876 10.5C0.13788 10.5 0.148991 10.5 0.160209 10.5C0.171428 10.5 0.182753 10.5 0.194185 10.5C0.205618 10.5 0.217156 10.5 0.228802 10.5C0.240447 10.5 0.252199 10.5 0.264056 10.5C0.275914 10.5 0.287878 10.5 0.299947 10.5C0.312017 10.5 0.324192 10.5 0.336473 10.5C0.348754 10.5 0.36114 10.5 0.373632 10.5C0.386123 10.5 0.398719 10.5 0.411421 10.5C0.424122 10.5 0.436928 10.5 0.449839 10.5C0.462749 10.5 0.475764 10.5 0.488884 10.5C0.502003 10.5 0.515226 10.5 0.528554 10.5C0.541881 10.5 0.555312 10.5 0.568847 10.5C0.582382 10.5 0.59602 10.5 0.609762 10.5C0.623503 10.5 0.637348 10.5 0.651296 10.5C0.665243 10.5 0.679294 10.5 0.693447 10.5C0.7076 10.5 0.721856 10.5 0.736214 10.5C0.750572 10.5 0.765032 10.5 0.779595 10.5C0.794157 10.5 0.808821 10.5 0.823587 10.5C0.838353 10.5 0.853221 10.5 0.868189 10.5C0.883158 10.5 0.898228 10.5 0.9134 10.5C0.928571 10.5 0.943843 10.5 0.959216 10.5C0.974589 10.5 0.990063 10.5 1.00564 10.5C1.02121 10.5 1.03689 10.5 1.05266 10.5C1.06843 10.5 1.08431 10.5 1.10028 10.5C1.11626 10.5 1.13233 10.5 1.1485 10.5C1.16468 10.5 1.18095 10.5 1.19732 10.5C1.21369 10.5 1.23017 10.5 1.24674 10.5C1.26331 10.5 1.27997 10.5 1.29674 10.5C1.31351 10.5 1.33037 10.5 1.34734 10.5C1.3643 10.5 1.38136 10.5 1.39852 10.5C1.41568 10.5 1.43294 10.5 1.4503 10.5C1.46765 10.5 1.4851 10.5 1.50265 10.5C1.5202 10.5 1.53785 10.5 1.5556 10.5C1.57334 10.5 1.59118 10.5 1.60912 10.5C1.62706 10.5 1.64509 10.5 1.66322 10.5C1.68135 10.5 1.69958 10.5 1.7179 10.5C1.73622 10.5 1.75464 10.5 1.77316 10.5C1.79167 10.5 1.81028 10.5 1.82898 10.5C1.84769 10.5 1.86649 10.5 1.88539 10.5C1.90428 10.5 1.92327 10.5 1.94236 10.5C1.96144 10.5 1.98062 10.5 1.9999 10.5C2.01917 10.5 2.03854 10.5 2.058 10.5C2.07746 10.5 2.09702 10.5 2.11667 10.5C2.13632 10.5 2.15606 10.5 2.1759 10.5C2.19574 10.5 2.21567 10.5 2.23569 10.5C2.25572 10.5 2.27584 10.5 2.29605 10.5C2.31626 10.5 2.33656 10.5 2.35695 10.5C2.37735 10.5 2.39784 10.5 2.41842 10.5C2.439 10.5 2.45967 10.5 2.48043 10.5C2.5012 10.5 2.52205 10.5 2.543 10.5C2.56395 10.5 2.58498 10.5 2.60611 10.5C2.62724 10.5 2.64846 10.5 2.66978 10.5C2.69109 10.5 2.71249 10.5 2.73398 10.5C2.75548 10.5 2.77706 10.5 2.79874 10.5C2.82041 10.5 2.84217 10.5 2.86403 10.5C2.88588 10.5 2.90783 10.5 2.92986 10.5C2.95189 10.5 2.97402 10.5 2.99623 10.5C3.01844 10.5 3.04075 10.5 3.06314 10.5C3.08553 10.5 3.10801 10.5 3.13058 10.5C3.15315 10.5 3.1758 10.5 3.19855 10.5C3.22129 10.5 3.24413 10.5 3.26705 10.5C3.28997 10.5 3.31298 10.5 3.33608 10.5C3.35918 10.5 3.38236 10.5 3.40564 10.5C3.42891 10.5 3.45227 10.5 3.47572 10.5C3.49917 10.5 3.5227 10.5 3.54632 10.5C3.56994 10.5 3.59365 10.5 3.61745 10.5C3.64124 10.5 3.66512 10.5 3.68909 10.5C3.71306 10.5 3.73711 10.5 3.76125 10.5C3.78539 10.5 3.80961 10.5 3.83392 10.5C3.85823 10.5 3.88263 10.5 3.90711 10.5C3.93159 10.5 3.95616 10.5 3.98081 10.5C4.00546 10.5 4.03019 10.5 4.05502 10.5C4.07984 10.5 4.10474 10.5 4.12973 10.5C4.15472 10.5 4.17979 10.5 4.20495 10.5C4.23011 10.5 4.25535 10.5 4.28067 10.5C4.306 10.5 4.33141 10.5 4.3569 10.5C4.38239 10.5 4.40797 10.5 4.43362 10.5C4.45928 10.5 4.48502 10.5 4.51085 10.5C4.53667 10.5 4.56258 10.5 4.58857 10.5C4.61456 10.5 4.64063 10.5 4.66678 10.5C4.69293 10.5 4.71917 10.5 4.74548 10.5C4.7718 10.5 4.7982 10.5 4.82468 10.5C4.85116 10.5 4.87772 10.5 4.90436 10.5C4.93101 10.5 4.95773 10.5 4.98453 10.5C5.01134 10.5 5.03822 10.5 5.06519 10.5C5.09215 10.5 5.1192 10.5 5.14632 10.5C5.17345 10.5 5.20066 10.5 5.22794 10.5C5.25523 10.5 5.28259 10.5 5.31004 10.5C5.33748 10.5 5.36501 10.5 5.39261 10.5C5.42022 10.5 5.4479 10.5 5.47566 10.5C5.50342 10.5 5.53126 10.5 5.55918 10.5C5.5871 10.5 5.6151 10.5 5.64317 10.5C5.67125 10.5 5.6994 10.5 5.72764 10.5C5.75587 10.5 5.78418 10.5 5.81257 10.5C5.84095 10.5 5.86942 10.5 5.89796 10.5C5.9265 10.5 5.95512 10.5 5.98382 10.5C6.01252 10.5 6.04129 10.5 6.07014 10.5C6.09899 10.5 6.12792 10.5 6.15692 10.5C6.18592 10.5 6.215 10.5 6.24416 10.5C6.27331 10.5 6.30254 10.5 6.33185 10.5C6.36116 10.5 6.39054 10.5 6.42 10.5C6.44946 10.5 6.47899 10.5 6.5086 10.5C6.53821 10.5 6.56789 10.5 6.59765 10.5C6.62741 10.5 6.65724 10.5 6.68715 10.5C6.71706 10.5 6.74704 10.5 6.7771 10.5C6.80715 10.5 6.83728 10.5 6.86749 10.5C6.89769 10.5 6.92797 10.5 6.95832 10.5C6.98867 10.5 7.01909 10.5 7.04959 10.5C7.08009 10.5 7.11066 10.5 7.1413 10.5C7.17195 10.5 7.20267 10.5 7.23345 10.5C7.26424 10.5 7.29511 10.5 7.32604 10.5C7.35697 10.5 7.38798 10.5 7.41906 10.5C7.45014 10.5 7.48129 10.5 7.51251 10.5C7.54373 10.5 7.57502 10.5 7.60639 10.5C7.63775 10.5 7.66919 10.5 7.70069 10.5C7.7322 10.5 7.76378 10.5 7.79542 10.5C7.82707 10.5 7.85879 10.5 7.89058 10.5C7.92237 10.5 7.95423 10.5 7.98616 10.5C8.01809 10.5 8.05009 10.5 8.08215 10.5C8.11422 10.5 8.14636 10.5 8.17857 10.5C8.21078 10.5 8.24305 10.5 8.2754 10.5C8.30775 10.5 8.34016 10.5 8.37265 10.5C8.40513 10.5 8.43768 10.5 8.4703 10.5C8.50292 10.5 8.53561 10.5 8.56837 10.5C8.60113 10.5 8.63396 10.5 8.66685 10.5C8.69974 10.5 8.7327 10.5 8.76573 10.5C8.79876 10.5 8.83186 10.5 8.86502 10.5C8.89818 10.5 8.93141 10.5 8.96471 10.5C8.99801 10.5 9.03137 10.5 9.0648 10.5C9.09823 10.5 9.13173 10.5 9.16529 10.5C9.19886 10.5 9.23249 10.5 9.26618 10.5C9.29988 10.5 9.33364 10.5 9.36747 10.5C9.40129 10.5 9.43519 10.5 9.46914 10.5C9.5031 10.5 9.53712 10.5 9.57121 10.5C9.6053 10.5 9.63945 10.5 9.67367 10.5C9.70789 10.5 9.74217 10.5 9.77651 10.5C9.81086 10.5 9.84527 10.5 9.87975 10.5C9.91422 10.5 9.94876 10.5 9.98336 10.5C10.018 10.5 10.0526 10.5 10.0874 10.5C10.1221 10.5 10.1569 10.5 10.1917 10.5C10.2266 10.5 10.2615 10.5 10.2965 10.5C10.3315 10.5 10.3665 10.5 10.4016 10.5C10.4367 10.5 10.4719 10.5 10.5071 10.5C10.5424 10.5 10.5776 10.5 10.613 10.5C10.6484 10.5 10.6838 10.5 10.7193 10.5C10.7547 10.5 10.7903 10.5 10.8259 10.5C10.8615 10.5 10.8971 10.5 10.9329 10.5C10.9686 10.5 11.0044 10.5 11.0402 10.5C11.076 10.5 11.1119 10.5 11.1479 10.5C11.1839 10.5 11.2199 10.5 11.256 10.5C11.2921 10.5 11.3282 10.5 11.3644 10.5C11.4006 10.5 11.4369 10.5 11.4732 10.5C11.5095 10.5 11.5459 10.5 11.5823 10.5C11.6188 10.5 11.6553 10.5 11.6918 10.5C11.7284 10.5 11.765 10.5 11.8017 10.5C11.8384 10.5 11.8751 10.5 11.9119 10.5C11.9487 10.5 11.9855 10.5 12.0224 10.5C12.0593 10.5 12.0963 10.5 12.1333 10.5C12.1704 10.5 12.2074 10.5 12.2446 10.5C12.2817 10.5 12.3189 10.5 12.3561 10.5C12.3934 10.5 12.4307 10.5 12.4681 10.5C12.5054 10.5 12.5428 10.5 12.5803 10.5C12.6178 10.5 12.6553 10.5 12.6929 10.5C12.7305 10.5 12.7681 10.5 12.8058 10.5C12.8435 10.5 12.8813 10.5 12.9191 10.5C12.9569 10.5 12.9948 10.5 13.0327 10.5C13.0706 10.5 13.1086 10.5 13.1466 10.5C13.1846 10.5 13.2227 10.5 13.2609 10.5C13.299 10.5 13.3372 10.5 13.3754 10.5C13.4137 10.5 13.452 10.5 13.4903 10.5C13.5287 10.5 13.5671 10.5 13.6055 10.5C13.644 10.5 13.6825 10.5 13.7211 10.5C13.7596 10.5 13.7983 10.5 13.8369 10.5C13.8756 10.5 13.9143 10.5 13.9531 10.5C13.9919 10.5 14.0307 10.5 14.0696 10.5C14.1085 10.5 14.1474 10.5 14.1864 10.5C14.2254 10.5 14.2644 10.5 14.3035 10.5C14.3426 10.5 14.3817 10.5 14.4209 10.5C14.4601 10.5 14.4993 10.5 14.5386 10.5C14.5779 10.5 14.6172 10.5 14.6566 10.5C14.696 10.5 14.7354 10.5 14.7749 10.5C14.8144 10.5 14.854 10.5 14.8936 10.5C14.9332 10.5 14.9728 10.5 15.0125 10.5C15.0522 10.5 15.0919 10.5 15.1317 10.5C15.1715 10.5 15.2113 10.5 15.2512 10.5C15.2911 10.5 15.331 10.5 15.371 10.5C15.411 10.5 15.451 10.5 15.4911 10.5C15.5312 10.5 15.5713 10.5 15.6115 10.5C15.6517 10.5 15.6919 10.5 15.7322 10.5C15.7724 10.5 15.8128 10.5 15.8531 10.5C15.8935 10.5 15.9339 10.5 15.9744 10.5C16.0148 10.5 16.0553 10.5 16.0959 10.5C16.1364 10.5 16.177 10.5 16.2177 10.5C16.2583 10.5 16.299 10.5 16.3398 10.5C16.3805 10.5 16.4213 10.5 16.4621 10.5C16.5029 10.5 16.5438 10.5 16.5847 10.5C16.6257 10.5 16.6666 10.5 16.7076 10.5C16.7486 10.5 16.7897 10.5 16.8308 10.5C16.8719 10.5 16.913 10.5 16.9542 10.5C16.9954 10.5 17.0367 10.5 17.0779 10.5C17.1192 10.5 17.1605 10.5 17.2019 10.5C17.2433 10.5 17.2847 10.5 17.3261 10.5C17.3676 10.5 17.4091 10.5 17.4506 10.5C17.4922 10.5 17.5337 10.5 17.5754 10.5C17.617 10.5 17.6587 10.5 17.7004 10.5C17.7421 10.5 17.7838 10.5 17.8256 10.5C17.8674 10.5 17.9093 10.5 17.9511 10.5C17.993 10.5 18.0349 10.5 18.0769 10.5C18.1189 10.5 18.1609 10.5 18.2029 10.5C18.245 10.5 18.2871 10.5 18.3292 10.5C18.3713 10.5 18.4135 10.5 18.4557 10.5C18.4979 10.5 18.5401 10.5 18.5824 10.5C18.6247 10.5 18.667 10.5 18.7094 10.5C18.7518 10.5 18.7942 10.5 18.8366 10.5C18.8791 10.5 18.9216 10.5 18.9641 10.5C19.0066 10.5 19.0492 10.5 19.0918 10.5C19.1344 10.5 19.1771 10.5 19.2197 10.5C19.2624 10.5 19.3051 10.5 19.3479 10.5C19.3907 10.5 19.4335 10.5 19.4763 10.5C19.5191 10.5 19.562 10.5 19.6049 10.5C19.6478 10.5 19.6908 10.5 19.7338 10.5C19.7768 10.5 19.8198 10.5 19.8629 10.5C19.9059 10.5 19.949 10.5 19.9921 10.5C20.0353 10.5 20.0785 10.5 20.1217 10.5C20.1649 10.5 20.2081 10.5 20.2514 10.5C20.2947 10.5 20.338 10.5 20.3814 10.5C20.4247 10.5 20.4681 10.5 20.5115 10.5C20.5549 10.5 20.5984 10.5 20.6419 10.5C20.6854 10.5 20.7289 10.5 20.7725 10.5C20.8161 10.5 20.8597 10.5 20.9033 10.5C20.9469 10.5 20.9906 10.5 21.0343 10.5C21.078 10.5 21.1217 10.5 21.1655 10.5C21.2093 10.5 21.2531 10.5 21.2969 10.5C21.3408 10.5 21.3846 10.5 21.4285 10.5C21.4725 10.5 21.5164 10.5 21.5604 10.5C21.6043 10.5 21.6483 10.5 21.6924 10.5C21.7364 10.5 21.7805 10.5 21.8246 10.5C21.8687 10.5 21.9128 10.5 21.957 10.5C22.0012 10.5 22.0454 10.5 22.0896 10.5C22.1338 10.5 22.1781 10.5 22.2224 10.5C22.2667 10.5 22.311 10.5 22.3553 10.5C22.3997 10.5 22.4441 10.5 22.4885 10.5C22.5329 10.5 22.5774 10.5 22.6219 10.5C22.6663 10.5 22.7108 10.5 22.7554 10.5C22.7999 10.5 22.8445 10.5 22.8891 10.5C22.9337 10.5 22.9783 10.5 23.023 10.5C23.0676 10.5 23.1123 10.5 23.157 10.5C23.2018 10.5 23.2465 10.5 23.2913 10.5C23.3361 10.5 23.3809 10.5 23.4257 10.5C23.4705 10.5 23.5154 10.5 23.5603 10.5C23.6052 10.5 23.6501 10.5 23.695 10.5C23.74 10.5 23.7849 10.5 23.8299 10.5C23.8749 10.5 23.92 10.5 23.965 10.5C24.0101 10.5 24.0552 10.5 24.1003 10.5C24.1454 10.5 24.1905 10.5 24.2357 10.5C24.2808 10.5 24.326 10.5 24.3713 10.5C24.4165 10.5 24.4617 10.5 24.507 10.5C24.5522 10.5 24.5975 10.5 24.6429 10.5C24.6882 10.5 24.7335 10.5 24.7789 10.5C24.8243 10.5 24.8697 10.5 24.9151 10.5C24.9605 10.5 25.006 10.5 25.0514 10.5C25.0969 10.5 25.1424 10.5 25.1879 10.5C25.2334 10.5 25.279 10.5 25.3245 10.5C25.3701 10.5 25.4157 10.5 25.4613 10.5C25.5069 10.5 25.5526 10.5 25.5982 10.5C25.6439 10.5 25.6896 10.5 25.7353 10.5C25.781 10.5 25.8267 10.5 25.8725 10.5C25.9183 10.5 25.964 10.5 26.0098 10.5C26.0556 10.5 26.1015 10.5 26.1473 10.5C26.1932 10.5 26.239 10.5 26.2849 10.5C26.3308 10.5 26.3767 10.5 26.4227 10.5C26.4686 10.5 26.5145 10.5 26.5605 10.5C26.6065 10.5 26.6525 10.5 26.6985 10.5C26.7445 10.5 26.7906 10.5 26.8366 10.5C26.8827 10.5 26.9288 10.5 26.9749 10.5C27.021 10.5 27.0671 10.5 27.1132 10.5C27.1594 10.5 27.2055 10.5 27.2517 10.5C27.2979 10.5 27.3441 10.5 27.3903 10.5C27.4365 10.5 27.4828 10.5 27.529 10.5C27.5753 10.5 27.6216 10.5 27.6679 10.5C27.7142 10.5 27.7605 10.5 27.8068 10.5C27.8531 10.5 27.8995 10.5 27.9459 10.5C27.9922 10.5 28.0386 10.5 28.085 10.5C28.1314 10.5 28.1779 10.5 28.2243 10.5C28.2707 10.5 28.3172 10.5 28.3637 10.5C28.4101 10.5 28.4566 10.5 28.5031 10.5C28.5497 10.5 28.5962 10.5 28.6427 10.5C28.6893 10.5 28.7358 10.5 28.7824 10.5C28.829 10.5 28.8756 10.5 28.9222 10.5C28.9688 10.5 29.0154 10.5 29.062 10.5C29.1087 10.5 29.1553 10.5 29.202 10.5C29.2487 10.5 29.2953 10.5 29.342 10.5C29.3887 10.5 29.4355 10.5 29.4822 10.5C29.5289 10.5 29.5757 10.5 29.6224 10.5C29.6692 10.5 29.7159 10.5 29.7627 10.5C29.8095 10.5 29.8563 10.5 29.9031 10.5C29.9499 10.5 29.9968 10.5 30.0436 10.5C30.0904 10.5 30.1373 10.5 30.1842 10.5C30.231 10.5 30.2779 10.5 30.3248 10.5C30.3717 10.5 30.4186 10.5 30.4655 10.5C30.5124 10.5 30.5594 10.5 30.6063 10.5C30.6532 10.5 30.7002 10.5 30.7472 10.5C30.7941 10.5 30.8411 10.5 30.8881 10.5C30.9351 10.5 30.9821 10.5 31.0291 10.5C31.0761 10.5 31.1231 10.5 31.1702 10.5C31.2172 10.5 31.2642 10.5 31.3113 10.5C31.3583 10.5 31.4054 10.5 31.4525 10.5C31.4996 10.5 31.5466 10.5 31.5937 10.5C31.6408 10.5 31.6879 10.5 31.7351 10.5C31.7822 10.5 31.8293 10.5 31.8764 10.5C31.9236 10.5 31.9707 10.5 32.0178 10.5C32.065 10.5 32.1122 10.5 32.1593 10.5C32.2065 10.5 32.2537 10.5 32.3009 10.5C32.348 10.5 32.3952 10.5 32.4424 10.5C32.4896 10.5 32.5368 10.5 32.5841 10.5C32.6313 10.5 32.6785 10.5 32.7257 10.5C32.773 10.5 32.8202 10.5 32.8675 10.5C32.9147 10.5 32.962 10.5 33.0092 10.5C33.0565 10.5 33.1037 10.5 33.151 10.5C33.1983 10.5 33.2456 10.5 33.2928 10.5C33.3401 10.5 33.3874 10.5 33.4347 10.5C33.482 10.5 33.5293 10.5 33.5766 10.5C33.6239 10.5 33.6712 10.5 33.7186 10.5C33.7659 10.5 33.8132 10.5 33.8605 10.5C33.9079 10.5 33.9552 10.5 34.0025 10.5C34.0499 10.5 34.0972 10.5 34.1446 10.5C34.1919 10.5 34.2393 10.5 34.2866 10.5C34.334 10.5 34.3813 10.5 34.4287 10.5C34.476 10.5 34.5234 10.5 34.5708 10.5C34.6181 10.5 34.6655 10.5 34.7129 10.5C34.7603 10.5 34.8076 10.5 34.855 10.5C34.9024 10.5 34.9498 10.5 34.9972 10.5C35.0445 10.5 35.0919 10.5 35.1393 10.5C35.1867 10.5 35.2341 10.5 35.2815 10.5C35.3289 10.5 35.3763 10.5 35.4237 10.5C35.4711 10.5 35.5185 10.5 35.5659 10.5C35.6133 10.5 35.6607 10.5 35.7081 10.5C35.7555 10.5 35.8029 10.5 35.8503 10.5C35.8977 10.5 35.9451 10.5 35.9925 10.5C36.0399 10.5 36.0873 10.5 36.1347 10.5C36.1821 10.5 36.2295 10.5 36.2768 10.5C36.3242 10.5 36.3716 10.5 36.419 10.5C36.4664 10.5 36.5138 10.5 36.5612 10.5C36.6086 10.5 36.656 10.5 36.7034 10.5C36.7508 10.5 36.7982 10.5 36.8456 10.5C36.893 10.5 36.9404 10.5 36.9877 10.5C37.0351 10.5 37.0825 10.5 37.1299 10.5C37.1773 10.5 37.2246 10.5 37.272 10.5C37.3194 10.5 37.3668 10.5 37.4141 10.5C37.4615 10.5 37.5089 10.5 37.5562 10.5C37.6036 10.5 37.651 10.5 37.6983 10.5C37.7457 10.5 37.793 10.5 37.8404 10.5C37.8877 10.5 37.9351 10.5 37.9824 10.5C38.0297 10.5 38.0771 10.5 38.1244 10.5C38.1717 10.5 38.219 10.5 38.2664 10.5C38.3137 10.5 38.361 10.5 38.4083 10.5C38.4556 10.5 38.5029 10.5 38.5502 10.5C38.5975 10.5 38.6448 10.5 38.6921 10.5C38.7394 10.5 38.7867 10.5 38.8339 10.5C38.8812 10.5 38.9285 10.5 38.9757 10.5C39.023 10.5 39.0703 10.5 39.1175 10.5C39.1647 10.5 39.212 10.5 39.2592 10.5C39.3065 10.5 39.3537 10.5 39.4009 10.5C39.4481 10.5 39.4953 10.5 39.5425 10.5C39.5897 10.5 39.6369 10.5 39.6841 10.5C39.7313 10.5 39.7785 10.5 39.8256 10.5C39.8728 10.5 39.92 10.5 39.9671 10.5C40.0143 10.5 40.0614 10.5 40.1086 10.5C40.1557 10.5 40.2028 10.5 40.2499 10.5C40.2971 10.5 40.3442 10.5 40.3913 10.5C40.4384 10.5 40.4854 10.5 40.5325 10.5C40.5796 10.5 40.6267 10.5 40.6737 10.5C40.7208 10.5 40.7678 10.5 40.8149 10.5C40.8619 10.5 40.9089 10.5 40.9559 10.5C41.0029 10.5 41.0499 10.5 41.0969 10.5C41.1439 10.5 41.1909 10.5 41.2379 10.5C41.2848 10.5 41.3318 10.5 41.3787 10.5C41.4257 10.5 41.4726 10.5 41.5195 10.5C41.5665 10.5 41.6134 10.5 41.6603 10.5C41.7072 10.5 41.754 10.5 41.8009 10.5C41.8478 10.5 41.8946 10.5 41.9415 10.5C41.9883 10.5 42.0351 10.5 42.082 10.5C42.1288 10.5 42.1756 10.5 42.2224 10.5C42.2692 10.5 42.3159 10.5 42.3627 10.5C42.4095 10.5 42.4562 10.5 42.5029 10.5C42.5497 10.5 42.5964 10.5 42.6431 10.5C42.6898 10.5 42.7365 10.5 42.7831 10.5C42.8298 10.5 42.8765 10.5 42.9231 10.5C42.9698 10.5 43.0164 10.5 43.063 10.5C43.1096 10.5 43.1562 10.5 43.2028 10.5C43.2494 10.5 43.2959 10.5 43.3425 10.5C43.389 10.5 43.4355 10.5 43.482 10.5C43.5286 10.5 43.5751 10.5 43.6215 10.5C43.668 10.5 43.7145 10.5 43.7609 10.5C43.8074 10.5 43.8538 10.5 43.9002 10.5C43.9466 10.5 43.993 10.5 44.0394 10.5C44.0857 10.5 44.1321 10.5 44.1784 10.5C44.2248 10.5 44.2711 10.5 44.3174 10.5C44.3637 10.5 44.41 10.5 44.4562 10.5C44.5025 10.5 44.5487 10.5 44.595 10.5C44.6412 10.5 44.6874 10.5 44.7336 10.5C44.7798 10.5 44.8259 10.5 44.8721 10.5C44.9182 10.5 44.9643 10.5 45.0104 10.5C45.0565 10.5 45.1026 10.5 45.1487 10.5C45.1948 10.5 45.2408 10.5 45.2868 10.5C45.3329 10.5 45.3789 10.5 45.4248 10.5C45.4708 10.5 45.5168 10.5 45.5627 10.5C45.6087 10.5 45.6546 10.5 45.7005 10.5C45.7464 10.5 45.7922 10.5 45.8381 10.5C45.8839 10.5 45.9298 10.5 45.9756 10.5C46.0214 10.5 46.0672 10.5 46.1129 10.5C46.1587 10.5 46.2044 10.5 46.2501 10.5C46.2959 10.5 46.3415 10.5 46.3872 10.5C46.4329 10.5 46.4785 10.5 46.5241 10.5C46.5698 10.5 46.6154 10.5 46.6609 10.5C46.7065 10.5 46.7521 10.5 46.7976 10.5C46.8431 10.5 46.8886 10.5 46.9341 10.5C46.9796 10.5 47.025 10.5 47.0704 10.5C47.1159 10.5 47.1613 10.5 47.2067 10.5C47.252 10.5 47.2974 10.5 47.3427 10.5C47.388 10.5 47.4333 10.5 47.4786 10.5C47.5239 10.5 47.5691 10.5 47.6143 10.5C47.6596 10.5 47.7048 10.5 47.7499 10.5C47.7951 10.5 47.8402 10.5 47.8854 10.5C47.9305 10.5 47.9756 10.5 48.0206 10.5C48.0657 10.5 48.1107 10.5 48.1557 10.5C48.2007 10.5 48.2457 10.5 48.2907 10.5C48.3356 10.5 48.3805 10.5 48.4254 10.5C48.4703 10.5 48.5152 10.5 48.56 10.5C48.6049 10.5 48.6497 10.5 48.6945 10.5C48.7392 10.5 48.784 10.5 48.8287 10.5C48.8734 10.5 48.9181 10.5 48.9628 10.5C49.0075 10.5 49.0521 10.5 49.0967 10.5C49.1413 10.5 49.1859 10.5 49.2304 10.5C49.275 10.5 49.3195 10.5 49.364 10.5C49.4085 10.5 49.4529 10.5 49.4973 10.5C49.5418 10.5 49.5862 10.5 49.6305 10.5C49.6749 10.5 49.7192 10.5 49.7635 10.5C49.8078 10.5 49.8521 10.5 49.8963 10.5C49.9406 10.5 49.9848 10.5 50.0289 10.5C50.0731 10.5 50.1173 10.5 50.1614 10.5C50.2055 10.5 50.2496 10.5 50.2936 10.5C50.3376 10.5 50.3817 10.5 50.4256 10.5C50.4696 10.5 50.5136 10.5 50.5575 10.5C50.6014 10.5 50.6453 10.5 50.6891 10.5C50.733 10.5 50.7768 10.5 50.8205 10.5C50.8643 10.5 50.9081 10.5 50.9518 10.5C50.9955 10.5 51.0392 10.5 51.0828 10.5C51.1265 10.5 51.1701 10.5 51.2136 10.5C51.2572 10.5 51.3007 10.5 51.3442 10.5C51.3877 10.5 51.4312 10.5 51.4746 10.5C51.5181 10.5 51.5615 10.5 51.6048 10.5C51.6482 10.5 51.6915 10.5 51.7348 10.5C51.7781 10.5 51.8214 10.5 51.8646 10.5C51.9078 10.5 51.951 10.5 51.9941 10.5C52.0373 10.5 52.0804 10.5 52.1234 10.5C52.1665 10.5 52.2095 10.5 52.2525 10.5C52.2955 10.5 52.3385 10.5 52.3814 10.5C52.4243 10.5 52.4672 10.5 52.5101 10.5C52.5529 10.5 52.5957 10.5 52.6385 10.5C52.6812 10.5 52.724 10.5 52.7667 10.5C52.8094 10.5 52.852 10.5 52.8946 10.5C52.9372 10.5 52.9798 10.5 53.0224 10.5C53.0649 10.5 53.1074 10.5 53.1498 10.5C53.1923 10.5 53.2347 10.5 53.2771 10.5C53.3195 10.5 53.3618 10.5 53.4041 10.5C53.4464 10.5 53.4887 10.5 53.5309 10.5C53.5731 10.5 53.6153 10.5 53.6574 10.5C53.6995 10.5 53.7416 10.5 53.7837 10.5C53.8257 10.5 53.8678 10.5 53.9097 10.5C53.9517 10.5 53.9936 10.5 54.0355 10.5C54.0774 10.5 54.1192 10.5 54.1611 10.5C54.2029 10.5 54.2446 10.5 54.2863 10.5C54.3281 10.5 54.3697 10.5 54.4114 10.5C54.453 10.5 54.4946 10.5 54.5361 10.5C54.5777 10.5 54.6192 10.5 54.6607 10.5C54.7021 10.5 54.7435 10.5 54.7849 10.5C54.8263 10.5 54.8676 10.5 54.9089 10.5C54.9502 10.5 54.9914 10.5 55.0326 10.5C55.0738 10.5 55.115 10.5 55.1561 10.5C55.1972 10.5 55.2383 10.5 55.2793 10.5C55.3203 10.5 55.3613 10.5 55.4022 10.5C55.4432 10.5 55.484 10.5 55.5249 10.5C55.5657 10.5 55.6065 10.5 55.6473 10.5C55.688 10.5 55.7287 10.5 55.7694 10.5C55.81 10.5 55.8506 10.5 55.8912 10.5C55.9318 10.5 55.9723 10.5 56.0128 10.5C56.0532 10.5 56.0936 10.5 56.134 10.5C56.1744 10.5 56.2147 10.5 56.255 10.5C56.2953 10.5 56.3355 10.5 56.3757 10.5C56.4159 10.5 56.456 10.5 56.4961 10.5C56.5362 10.5 56.5763 10.5 56.6162 10.5C56.6562 10.5 56.6962 10.5 56.7361 10.5C56.776 10.5 56.8158 10.5 56.8556 10.5C56.8954 10.5 56.9352 10.5 56.9749 10.5C57.0146 10.5 57.0542 10.5 57.0938 10.5C57.1334 10.5 57.173 10.5 57.2125 10.5C57.252 10.5 57.2914 10.5 57.3308 10.5C57.3702 10.5 57.4096 10.5 57.4489 10.5C57.4882 10.5 57.5274 10.5 57.5666 10.5C57.6058 10.5 57.645 10.5 57.6841 10.5C57.7232 10.5 57.7622 10.5 57.8012 10.5C57.8402 10.5 57.8792 10.5 57.918 10.5C57.9569 10.5 57.9958 10.5 58.0346 10.5C58.0733 10.5 58.1121 10.5 58.1508 10.5C58.1894 10.5 58.2281 10.5 58.2666 10.5C58.3052 10.5 58.3437 10.5 58.3822 10.5C58.4207 10.5 58.4591 10.5 58.4975 10.5V7.5Z" fill="#CFD9F0"/>
</svg>
