<svg width="155" height="38" viewBox="0 0 155 38" fill="none" xmlns="http://www.w3.org/2000/svg">
<g clip-path="url(#clip0_1493_10174)">
<path fill-rule="evenodd" clip-rule="evenodd" d="M0.475586 10.5603C0.475586 7.15526 0.475586 5.45274 1.13825 4.15218C1.72115 3.00818 2.65125 2.07809 3.79525 1.49519C5.09581 0.83252 6.79833 0.83252 10.2034 0.83252H27.218C30.623 0.83252 32.3256 0.83252 33.6261 1.49519C34.7702 2.07809 35.7002 3.00818 36.2831 4.15218C36.9458 5.45274 36.9458 7.15526 36.9458 10.5603V27.4408C36.9458 30.8459 36.9458 32.5484 36.2831 33.849C35.7002 34.993 34.7702 35.9231 33.6261 36.506C32.3256 37.1687 30.623 37.1687 27.218 37.1687H10.2034C6.79833 37.1687 5.09581 37.1687 3.79525 36.506C2.65125 35.9231 1.72115 34.993 1.13825 33.849C0.475586 32.5484 0.475586 30.8459 0.475586 27.4408V10.5603ZM8.3856 9.91824C7.76058 9.91824 7.51977 10.6882 8.04421 11.0099L21.164 18.8915C21.4911 19.0921 21.9272 19.0129 22.1524 18.7119L27.9208 11.1668C28.313 10.6427 27.9168 9.91824 27.2379 9.91824H8.3856ZM29.354 26.9906C29.8783 27.3122 29.6313 28.0864 29.0064 28.0864H10.1684C9.48958 28.0864 9.08094 27.3672 9.47304 26.8432L15.2527 19.2995C15.4778 18.9987 15.9034 18.9094 16.2304 19.1099L29.354 26.9906Z" fill="#020202"/>
<path d="M49.0557 27.3196L57.5444 13.2739H50.0017V10.1636H63.245V10.6326L54.9306 24.6783H62.9462V27.8133H49.0557V27.3196Z" fill="#020202"/>
<path d="M67.6426 10.1636H79.243V13.2739H71.6505V17.3963H77.7245V20.3091H71.6505V24.703H79.6412V27.8133H67.6426V10.1636Z" fill="#020202"/>
<path d="M84.3066 10.1636H90.6794C91.7251 10.1636 92.6708 10.2706 93.5174 10.4845C94.364 10.6984 95.0853 11.0276 95.683 11.4719C96.2808 11.9162 96.7368 12.4757 97.052 13.1505C97.3836 13.8252 97.5498 14.6151 97.5498 15.5202V15.619C97.5498 16.2937 97.459 16.8861 97.2764 17.3963C97.0938 17.9064 96.8367 18.3507 96.5042 18.7293C96.1727 19.1078 95.783 19.4287 95.3342 19.692C94.8864 19.9553 94.4049 20.161 93.8907 20.3091L98.5954 27.8133H94.3141L90.057 21.0003H88.3145V27.8133H84.3066V10.1636ZM90.5798 18.285C91.5925 18.285 92.3474 18.071 92.8452 17.6431C93.3593 17.2152 93.6164 16.5817 93.6164 15.7424V15.6436C93.6164 14.7386 93.3512 14.1132 92.8206 13.7676C92.3056 13.4056 91.5589 13.2245 90.5798 13.2245H88.3145V18.285H90.5798Z" fill="#020202"/>
<path d="M102.838 10.1636H106.896V27.8133H102.838V10.1636Z" fill="#020202"/>
<path d="M120.265 24.9C121.012 24.9 121.684 24.7601 122.282 24.4803C122.896 24.2005 123.418 23.8057 123.85 23.2955C124.265 22.8018 124.588 22.1929 124.821 21.4688C125.053 20.7447 125.169 19.9383 125.169 19.0496V18.8522C125.169 17.9964 125.053 17.2147 124.821 16.5071C124.604 15.7994 124.289 15.1906 123.874 14.6805C123.443 14.1703 122.92 13.7753 122.306 13.4956C121.692 13.2158 120.995 13.076 120.215 13.076C119.436 13.076 118.738 13.2158 118.124 13.4956C117.527 13.7589 117.012 14.1373 116.581 14.6311C116.149 15.1412 115.817 15.7584 115.585 16.4825C115.37 17.19 115.262 17.9882 115.262 18.8768V19.0743C115.262 19.9795 115.386 20.794 115.635 21.5181C115.884 22.2258 116.233 22.8265 116.68 23.3201C117.112 23.8303 117.634 24.2252 118.248 24.505C118.862 24.7683 119.535 24.9 120.265 24.9ZM120.191 28.0843C118.796 28.0843 117.535 27.8621 116.406 27.4178C115.278 26.9571 114.324 26.3235 113.544 25.5171C112.747 24.7271 112.133 23.7809 111.701 22.6783C111.27 21.5757 111.055 20.3826 111.055 19.099V18.9016C111.055 17.585 111.278 16.3755 111.727 15.2728C112.191 14.1703 112.839 13.224 113.668 12.4341C114.481 11.6442 115.444 11.0271 116.556 10.5828C117.668 10.1385 118.888 9.91626 120.215 9.91626C121.559 9.91626 122.788 10.1302 123.9 10.558C125.028 10.9859 125.999 11.5866 126.812 12.36C127.609 13.15 128.231 14.088 128.679 15.1741C129.144 16.2603 129.376 17.4698 129.376 18.8028V19.0003C129.376 20.3168 129.152 21.5346 128.704 22.6536C128.273 23.7562 127.658 24.7107 126.862 25.5171C126.065 26.3235 125.102 26.9571 123.974 27.4178C122.846 27.8621 121.584 28.0843 120.191 28.0843Z" fill="#020202"/>
<path d="M133.742 10.1636H138.422L145.193 21.7902V10.1636H148.778V27.8133H144.745L137.327 15.2487V27.8133H133.742V10.1636Z" fill="#020202"/>
</g>
<defs>
<clipPath id="clip0_1493_10174">
<rect width="154.429" height="36.3361" fill="white" transform="translate(0.475586 0.83252)"/>
</clipPath>
</defs>
</svg>
