<svg width="144" height="46" viewBox="0 0 144 46" fill="none" xmlns="http://www.w3.org/2000/svg">
<path fill-rule="evenodd" clip-rule="evenodd" d="M21.6948 2.93799C32.6787 2.93799 41.583 11.8422 41.583 22.8262C41.583 33.8101 32.6787 42.7143 21.6948 42.7143C10.7109 42.7143 1.80664 33.8101 1.80664 22.8262C1.80664 11.8422 10.7109 2.93799 21.6948 2.93799ZM28.1071 17.8141L14.0845 17.8832L10.7164 22.8733L18.612 22.8763L15.2018 27.9003L29.3152 27.81L32.6729 22.8353L24.7498 22.8737L28.1071 17.8141Z" fill="#774FFF"/>
<path d="M55.4531 30.6927V27.0298L63.7938 16.7586H55.6511V13.1699H69.0902V16.5606L60.5516 27.0298H69.2635V30.6927H55.4531ZM78.7686 25.322H78.2489C77.8034 25.322 77.3496 25.3468 76.8876 25.3963C76.4421 25.4293 76.0378 25.5036 75.6749 25.619C75.3284 25.7345 75.0395 25.9077 74.8086 26.1388C74.5776 26.3532 74.4622 26.6421 74.4622 27.005C74.4622 27.2361 74.5116 27.4341 74.6106 27.599C74.7261 27.7639 74.8663 27.896 75.0314 27.995C75.1963 28.094 75.386 28.1683 75.6006 28.2178C75.8151 28.2508 76.0214 28.2673 76.2194 28.2673C77.0443 28.2673 77.6713 28.0445 78.1004 27.599C78.5459 27.1371 78.7686 26.5183 78.7686 25.7428V25.322ZM71.3189 20.0503C72.0448 19.3574 72.8863 18.8376 73.8434 18.4911C74.8168 18.1446 75.8068 17.9714 76.8134 17.9714C77.8529 17.9714 78.7272 18.1034 79.4368 18.3674C80.1627 18.6149 80.7486 19.0109 81.1941 19.5554C81.6396 20.0834 81.9613 20.7598 82.1593 21.5848C82.3738 22.3933 82.4811 23.3585 82.4811 24.4805V30.6927H78.7686V29.381H78.6944C78.3807 29.8924 77.9024 30.2884 77.2589 30.569C76.6318 30.8495 75.9471 30.9897 75.2046 30.9897C74.7097 30.9897 74.198 30.9238 73.6702 30.7917C73.1421 30.6597 72.6554 30.4452 72.2099 30.1482C71.7809 29.8512 71.4261 29.4552 71.1457 28.9602C70.8651 28.4653 70.7249 27.8548 70.7249 27.1288C70.7249 26.2378 70.9641 25.52 71.4427 24.9755C71.9377 24.431 72.5646 24.0103 73.3237 23.7133C74.099 23.4163 74.9571 23.2183 75.8976 23.1193C76.8381 23.0203 77.7539 22.9708 78.6449 22.9708V22.7728C78.6449 22.1624 78.4302 21.7169 78.0014 21.4363C77.5723 21.1393 77.0443 20.9908 76.4174 20.9908C75.8398 20.9908 75.2789 21.1146 74.7344 21.3621C74.2063 21.6096 73.7525 21.9066 73.3732 22.2531L71.3189 20.0503ZM99.2218 24.4805C99.2218 25.3385 99.0899 26.1635 98.8258 26.9555C98.5618 27.7475 98.1742 28.4488 97.6625 29.0592C97.1675 29.6532 96.5571 30.1318 95.8311 30.4947C95.1052 30.8577 94.2801 31.0392 93.3561 31.0392C92.5972 31.0392 91.8794 30.8907 91.2029 30.5937C90.5265 30.2803 89.9984 29.8595 89.6189 29.3315H89.5694V36.6327H85.5104V18.3674H89.3714V19.8771H89.4456C89.8252 19.3821 90.3449 18.9531 91.0049 18.5901C91.6814 18.2106 92.4734 18.0209 93.3808 18.0209C94.2718 18.0209 95.0804 18.1941 95.8063 18.5406C96.5324 18.8871 97.1428 19.3574 97.6378 19.9513C98.1494 20.5453 98.5371 21.2383 98.801 22.0303C99.0816 22.8059 99.2218 23.6226 99.2218 24.4805ZM95.2866 24.4805C95.2866 24.0845 95.2206 23.6969 95.0886 23.3173C94.9731 22.9378 94.7916 22.6079 94.5441 22.3273C94.3132 22.0303 94.0162 21.7911 93.6531 21.6096C93.2902 21.428 92.8694 21.3373 92.3909 21.3373C91.9289 21.3373 91.5165 21.428 91.1534 21.6096C90.7904 21.7911 90.477 22.0303 90.2129 22.3273C89.9654 22.6243 89.7674 22.9625 89.6189 23.3421C89.487 23.7216 89.4209 24.1093 89.4209 24.5053C89.4209 24.9013 89.487 25.289 89.6189 25.6685C89.7674 26.0481 89.9654 26.3863 90.2129 26.6833C90.477 26.9803 90.7904 27.2195 91.1534 27.401C91.5165 27.5826 91.9289 27.6733 92.3909 27.6733C92.8694 27.6733 93.2902 27.5826 93.6531 27.401C94.0162 27.2195 94.3132 26.9803 94.5441 26.6833C94.7916 26.3863 94.9731 26.0481 95.0886 25.6685C95.2206 25.2725 95.2866 24.8765 95.2866 24.4805ZM115.488 24.4805C115.488 25.3385 115.356 26.1635 115.092 26.9555C114.828 27.7475 114.44 28.4488 113.929 29.0592C113.434 29.6532 112.823 30.1318 112.097 30.4947C111.371 30.8577 110.546 31.0392 109.622 31.0392C108.863 31.0392 108.146 30.8907 107.469 30.5937C106.793 30.2803 106.265 29.8595 105.885 29.3315H105.836V36.6327H101.777V18.3674H105.638V19.8771H105.712C106.091 19.3821 106.611 18.9531 107.271 18.5901C107.948 18.2106 108.74 18.0209 109.647 18.0209C110.538 18.0209 111.346 18.1941 112.073 18.5406C112.799 18.8871 113.409 19.3574 113.904 19.9513C114.415 20.5453 114.803 21.2383 115.067 22.0303C115.348 22.8059 115.488 23.6226 115.488 24.4805ZM111.553 24.4805C111.553 24.0845 111.487 23.6969 111.355 23.3173C111.239 22.9378 111.058 22.6079 110.81 22.3273C110.579 22.0303 110.282 21.7911 109.919 21.6096C109.556 21.428 109.136 21.3373 108.657 21.3373C108.195 21.3373 107.783 21.428 107.42 21.6096C107.057 21.7911 106.743 22.0303 106.479 22.3273C106.232 22.6243 106.034 22.9625 105.885 23.3421C105.753 23.7216 105.687 24.1093 105.687 24.5053C105.687 24.9013 105.753 25.289 105.885 25.6685C106.034 26.0481 106.232 26.3863 106.479 26.6833C106.743 26.9803 107.057 27.2195 107.42 27.401C107.783 27.5826 108.195 27.6733 108.657 27.6733C109.136 27.6733 109.556 27.5826 109.919 27.401C110.282 27.2195 110.579 26.9803 110.81 26.6833C111.058 26.3863 111.239 26.0481 111.355 25.6685C111.487 25.2725 111.553 24.8765 111.553 24.4805ZM126.532 23.1193C126.532 22.4758 126.326 21.923 125.913 21.4611C125.517 20.9991 124.915 20.7681 124.107 20.7681C123.711 20.7681 123.348 20.834 123.018 20.9661C122.688 21.0815 122.399 21.2466 122.151 21.4611C121.904 21.6755 121.706 21.9313 121.557 22.2283C121.409 22.5089 121.326 22.8059 121.31 23.1193H126.532ZM130.269 24.6785C130.269 24.8435 130.269 25.0086 130.269 25.1735C130.269 25.3385 130.261 25.4953 130.244 25.6438H121.31C121.343 25.9903 121.442 26.3037 121.607 26.5843C121.788 26.8648 122.011 27.1123 122.275 27.3268C122.556 27.5248 122.861 27.6816 123.191 27.797C123.537 27.9124 123.892 27.9703 124.255 27.9703C124.899 27.9703 125.443 27.8548 125.889 27.6238C126.334 27.3763 126.697 27.0628 126.978 26.6833L129.799 28.4652C129.221 29.3067 128.454 29.9585 127.497 30.4205C126.557 30.866 125.459 31.0887 124.206 31.0887C123.282 31.0887 122.407 30.9485 121.582 30.668C120.757 30.371 120.031 29.9502 119.404 29.4057C118.794 28.8448 118.307 28.1599 117.944 27.3515C117.597 26.5431 117.424 25.619 117.424 24.5795C117.424 23.5731 117.597 22.6655 117.944 21.8571C118.29 21.032 118.761 20.3391 119.355 19.7781C119.949 19.2006 120.65 18.7551 121.458 18.4416C122.267 18.1281 123.141 17.9714 124.082 17.9714C124.989 17.9714 125.823 18.1281 126.582 18.4416C127.34 18.7386 127.992 19.1758 128.537 19.7533C129.081 20.3308 129.502 21.032 129.799 21.8571C130.112 22.6821 130.269 23.6226 130.269 24.6785ZM140.78 21.6838C140.599 21.6343 140.418 21.6013 140.236 21.5848C140.071 21.5684 139.906 21.5601 139.741 21.5601C139.196 21.5601 138.735 21.6591 138.355 21.8571C137.992 22.0551 137.695 22.2943 137.464 22.5748C137.25 22.8554 137.093 23.1605 136.994 23.4906C136.895 23.8206 136.845 24.1093 136.845 24.3568V30.6927H132.786V18.3674H136.697V20.1493H136.746C137.06 19.5223 137.505 19.0109 138.083 18.6149C138.66 18.2189 139.329 18.0209 140.087 18.0209C140.253 18.0209 140.409 18.0291 140.558 18.0456C140.723 18.0621 140.855 18.0869 140.954 18.1199L140.78 21.6838Z" fill="#020202"/>
</svg>
