<svg width="16" height="24" viewBox="0 0 16 24" fill="none" xmlns="http://www.w3.org/2000/svg">
<path d="M13 12.0002L13.6 12.8002C13.8518 12.6114 14 12.315 14 12.0002C14 11.6855 13.8518 11.3891 13.6 11.2002L13 12.0002ZM5.60001 5.20001C5.15819 4.86863 4.53139 4.95816 4.20001 5.39999C3.86863 5.84181 3.95816 6.46861 4.39999 6.79999L5.60001 5.20001ZM4.40002 17.2C3.95819 17.5314 3.86864 18.1582 4.2 18.6C4.53136 19.0418 5.15816 19.1314 5.6 18.8L4.40002 17.2ZM4.39999 6.79999L12.4 12.8002L13.6 11.2002L5.60001 5.20001L4.39999 6.79999ZM12.4 11.2002L4.40002 17.2L5.6 18.8L13.6 12.8002L12.4 11.2002Z" fill="#949698"/>
<path opacity="0.01" d="M7 12H3" stroke="#949698" stroke-width="2.25" stroke-linecap="round"/>
</svg>
