<svg width="100" height="46" viewBox="0 0 100 46" fill="none" xmlns="http://www.w3.org/2000/svg">
<g clip-path="url(#clip0_1705_14718)">
<path d="M37.7618 30.8566C39.3552 32.972 40.9984 35.1366 42.6416 37.3012C39.3552 41.1385 35.2722 43.5982 30.3426 44.6314C24.8654 45.7629 19.6869 44.9265 14.6578 42.1716C19.1392 38.8755 23.521 35.6285 27.9526 32.3816C28.9484 33.3163 29.8945 34.2511 30.8406 35.1366C31.8862 36.1205 31.4879 36.1697 32.8323 35.4318C34.6746 34.3987 36.2182 32.972 37.4133 31.2501C37.4631 31.1517 37.5626 31.0533 37.6124 30.955C37.5626 30.955 37.6124 30.955 37.7618 30.8566ZM18.1931 35.1858C16.9483 36.1205 15.803 36.9568 14.6578 37.8424C13.8113 38.4819 12.9648 39.0722 12.1183 39.7118C11.7698 40.007 11.5208 40.007 11.1225 39.6626C7.33819 36.3173 4.94811 32.1848 4.05184 27.2653C3.15556 22.2965 3.95225 17.5737 6.34232 13.0969C6.39212 12.9985 6.4917 12.8509 6.5415 12.7526C6.5415 12.7034 6.59129 12.7034 6.69087 12.6542C9.97722 16.9342 13.3134 21.2142 16.5997 25.4942C16.5001 25.6418 16.4503 25.7402 16.3508 25.8386C15.3549 26.8717 14.359 27.9048 13.3134 28.8887C13.0146 29.1839 12.9648 29.4299 13.164 29.7743C14.2096 31.7421 15.6536 33.3655 17.4462 34.6938C17.6952 34.8414 17.8943 34.989 18.1931 35.1858ZM36.766 4.63527C35.1726 5.76677 33.5792 6.89827 31.9858 7.98058C29.2472 9.89921 26.5086 11.867 23.8197 13.7857C23.4712 14.0316 23.2222 14.0808 22.9235 13.7365C22.0272 12.8018 21.0811 11.9654 20.1848 11.0307C19.9359 10.7847 19.6869 10.7355 19.3383 10.8831C17.1972 11.9654 15.5043 13.4905 14.1101 15.4091C14.0105 15.5075 13.9109 15.6551 13.8113 15.8027C13.0146 14.7696 12.2677 13.8349 11.5208 12.851C10.7241 11.8178 9.97723 10.7847 9.23033 9.80082C8.98136 9.45645 8.93157 9.21047 9.28012 8.8661C13.1142 4.68447 17.8446 2.22468 23.521 1.63434C28.0024 1.14238 32.2846 2.0279 36.268 4.14332C36.4174 4.24171 36.5668 4.2909 36.7162 4.38929C36.7162 4.53688 36.7162 4.58608 36.766 4.63527ZM44.8822 34.1527C43.8366 32.8244 42.8905 31.5945 41.9445 30.3646C39.7536 27.5113 37.5626 24.6087 35.322 21.7554C35.0232 21.3618 35.0232 21.1158 35.3717 20.7715C36.3178 19.8367 37.2141 18.902 38.1602 17.9673C38.4091 17.7213 38.5087 17.4753 38.3095 17.131C37.2141 15.0648 35.7203 13.3429 33.7784 11.9654C33.629 11.867 33.4796 11.7194 33.2804 11.6211C33.4298 11.4735 33.5792 11.3751 33.6788 11.2767C35.5709 9.85001 37.4631 8.47253 39.3552 7.04586C39.654 6.79988 39.9029 6.70149 40.2515 7.04586C44.9818 11.2767 47.5213 16.5406 47.7703 22.8869C47.8698 26.5765 47.0234 30.0694 45.3304 33.3655C45.181 33.5623 45.0316 33.8083 44.8822 34.1527Z" fill="#020202"/>
</g>
<path d="M78.8021 23.846C78.7979 25.7891 78.6172 27.7096 78.0543 29.579C77.7282 30.6614 77.2805 31.6883 76.6335 32.6207C75.3334 34.495 73.5558 35.5781 71.2843 35.8379C70.078 35.9758 68.8883 35.9009 67.7255 35.5401C65.9293 34.9827 64.59 33.8439 63.6134 32.258C62.8445 31.0092 62.387 29.6413 62.1012 28.2118C61.6979 26.195 61.632 24.1585 61.7576 22.1112C61.8501 20.6058 62.082 19.126 62.5525 17.69C62.9808 16.3831 63.591 15.1745 64.5212 14.146C65.7574 12.7785 67.3056 12.0254 69.1264 11.81C70.2656 11.675 71.393 11.7325 72.5007 12.0374C74.2047 12.5066 75.545 13.4945 76.5605 14.9315C77.4479 16.1868 77.977 17.5956 78.318 19.0828C78.6775 20.6502 78.8002 22.2423 78.8021 23.846ZM73.1609 15.3945C73.1181 15.3432 73.1012 15.3147 73.0769 15.2952C73.0091 15.2417 72.9397 15.1901 72.8683 15.1418C72.1811 14.6746 71.417 14.427 70.5923 14.3751C69.1514 14.2842 67.878 14.6713 66.8478 15.7261C66.2645 16.3234 65.8583 17.0323 65.5465 17.8C65.0621 18.9926 64.8226 20.2437 64.7084 21.5175C64.5401 23.3967 64.5495 25.2755 64.8288 27.1457C64.9842 28.1855 65.2373 29.2007 65.6701 30.164C65.7025 30.2367 65.7509 30.3022 65.8171 30.4135C68.2816 25.3735 70.7237 20.3793 73.1609 15.3945ZM67.3053 32.3689C67.4348 32.4582 67.5302 32.5266 67.6285 32.5909C68.3831 33.0834 69.2179 33.3079 70.1121 33.3244C71.735 33.3546 73.0562 32.7495 74.0444 31.4472C74.3864 30.9969 74.6557 30.5047 74.8766 29.9862C75.3987 28.7604 75.6543 27.4688 75.7737 26.1512C75.9418 24.2938 75.9311 22.4366 75.654 20.5876C75.4999 19.5578 75.2433 18.5549 74.8166 17.6011C74.7835 17.5274 74.7391 17.4586 74.6693 17.3324C72.2029 22.3685 69.7627 27.3514 67.3056 32.3689H67.3053Z" fill="black"/>
<path d="M92.6373 26.802C94.3621 29.6886 96.0778 32.5596 97.8188 35.4735H94.6369C93.2668 33.1644 91.8785 30.8251 90.4856 28.4771H89.2897C87.8783 30.8073 86.4628 33.1443 85.0466 35.4826H82.0273C82.0191 35.4624 82.014 35.4527 82.0117 35.4423C82.0094 35.4323 82.0062 35.419 82.0107 35.4115C83.7215 32.5823 85.4327 29.7535 87.1561 26.9045C85.6079 24.2019 84.058 21.4963 82.4847 18.7498H85.493C86.7639 20.9519 88.038 23.1591 89.3134 25.3692H90.5278C91.8249 23.1721 93.1311 20.9593 94.4358 18.7495H97.3785C95.7874 21.4518 94.2213 24.1117 92.6377 26.8016L92.6373 26.802Z" fill="black"/>
<defs>
<clipPath id="clip0_1705_14718">
<rect width="44.7143" height="44.7143" fill="white" transform="translate(3.1582 1.09521)"/>
</clipPath>
</defs>
</svg>
