<svg width="123" height="32" viewBox="0 0 123 32" fill="none" xmlns="http://www.w3.org/2000/svg">
<path d="M44.955 25.9661V16.4186C44.8833 15.6307 45.0167 14.8378 45.3422 14.1168C45.6677 13.3957 46.1742 12.7712 46.8126 12.304C48.0438 11.4572 49.5469 11.101 51.0272 11.3052V5.59268C49.7282 5.58859 48.4519 5.93354 47.3319 6.59148C46.2209 7.23481 45.3776 8.25532 44.955 9.46761V5.9922H39.7617V25.9661H44.955ZM61.7232 26.5254C63.1156 26.5455 64.498 26.2867 65.7888 25.7643C67.0796 25.2419 68.2529 24.4665 69.2394 23.4837C70.2259 22.5009 71.0058 21.3306 71.533 20.0417C72.0603 18.7529 72.3244 17.3716 72.3096 15.9792C72.3214 14.4039 71.9829 12.8457 71.3184 11.4173C70.6539 9.98896 69.6802 8.72622 68.4677 7.72049C67.2552 6.71476 65.8342 5.9912 64.3077 5.60219C62.7811 5.21317 61.1872 5.16844 59.6412 5.47123C58.0953 5.77401 56.636 6.41674 55.369 7.35289C54.102 8.28903 53.0589 9.49517 52.3154 10.884C51.5719 12.2728 51.1465 13.8096 51.0699 15.3831C50.9934 16.9566 51.2677 18.5274 51.8729 19.9818C52.6824 21.9273 54.0521 23.5881 55.8079 24.7533C57.5636 25.9184 59.6262 26.5353 61.7334 26.5254H61.7232ZM61.7232 21.5319C61.0052 21.5509 60.2908 21.4225 59.6243 21.1545C58.9578 20.8865 58.3534 20.4847 57.8483 19.9739C56.8651 18.8914 56.3204 17.4814 56.3204 16.0191C56.3204 14.5567 56.8651 13.1467 57.8483 12.0642C58.3485 11.5415 58.9526 11.1293 59.6217 10.8541C60.2908 10.5789 61.0101 10.4469 61.7334 10.4664C62.4468 10.4447 63.1572 10.568 63.8215 10.829C64.4859 11.0899 65.0903 11.483 65.5983 11.9844C66.5986 13.0584 67.1548 14.4715 67.1548 15.9392C67.1548 17.4069 66.5986 18.82 65.5983 19.894C65.0971 20.4098 64.4957 20.8176 63.831 21.0924C63.1663 21.3672 62.4525 21.5032 61.7334 21.4919L61.7232 21.5319V21.5319ZM74.8063 31.9583C77.0641 32.1656 79.3253 31.5986 81.2181 30.3504C83.1419 28.8697 84.5813 26.8498 85.3528 24.548L92.6233 5.99206H87.1104L82.7062 18.4459L77.483 5.9922H71.8502L80.0397 23.9687C79.686 25.0561 79.0103 26.0104 78.1021 26.7052C77.1176 27.3194 75.9638 27.6061 74.8063 27.524V31.9583V31.9583ZM101.881 26.5453C103.12 26.609 104.356 26.3778 105.488 25.8709C106.62 25.3639 107.616 24.5956 108.393 23.6291V25.9661H113.546V5.9922H108.393V8.34913C107.616 7.38265 106.62 6.61438 105.488 6.10743C104.356 5.60049 103.12 5.36933 101.881 5.43296C100.587 5.42274 99.306 5.69024 98.1241 6.21742C96.9422 6.74461 95.8871 7.51919 95.0301 8.4889C93.1897 10.5498 92.1725 13.2161 92.1725 15.9792C92.1725 18.7422 93.1897 21.4085 95.0301 23.4694C95.8872 24.439 96.9423 25.2136 98.1242 25.7408C99.306 26.2679 100.587 26.5355 101.881 26.5254V26.5453V26.5453ZM102.88 21.6318C102.143 21.6608 101.408 21.5373 100.72 21.2693C100.033 21.0012 99.4082 20.5942 98.8853 20.0738C98.3663 19.5333 97.961 18.8942 97.6933 18.1943C97.4257 17.4944 97.3012 16.748 97.3272 15.9991C97.2994 15.253 97.4231 14.5091 97.6909 13.8121C97.9587 13.1152 98.365 12.4798 98.8853 11.9444C99.4053 11.4188 100.029 11.0071 100.717 10.7355C101.404 10.4639 102.141 10.3382 102.88 10.3665C103.618 10.3419 104.354 10.4692 105.041 10.7406C105.729 11.012 106.353 11.4217 106.875 11.9444C107.891 13.0502 108.455 14.4973 108.455 15.9991C108.455 17.501 107.891 18.948 106.875 20.0538C106.346 20.5778 105.715 20.9868 105.02 21.2549C104.326 21.523 103.584 21.6445 102.84 21.6117L102.88 21.6318ZM122.325 25.9661V0H117.172V25.9661H122.325Z" fill="#020202"/>
<path d="M25.4258 1.75586C25.5703 1.75586 25.7132 1.78689 25.8443 1.84673C25.9754 1.90643 26.0921 1.99375 26.1862 2.10274L32.9891 10.0314C33.1548 10.2129 33.2468 10.4497 33.2469 10.6954C33.2467 10.9412 33.1548 11.178 32.9891 11.3595L18.5629 26.414V1.75586H25.4258ZM14.684 1.7855V26.414L0.258218 11.3479C0.0923132 11.1668 0.000196752 10.9302 0 10.6846C0 10.4397 0.0919831 10.2033 0.258218 10.0215L7.07522 2.10232C7.16963 1.99343 7.28644 1.9062 7.41766 1.8466C7.5494 1.78675 7.69243 1.75581 7.83713 1.75586L14.684 1.7855Z" fill="#020202"/>
</svg>
