<svg width="216" height="46" viewBox="0 0 216 46" fill="none" xmlns="http://www.w3.org/2000/svg">
<path d="M59.4104 40.5055C59.185 40.5055 59.0004 40.4255 58.8569 40.2657C58.7134 40.1059 58.6416 39.9004 58.6416 39.6493V17.3905C58.6416 17.1393 58.7134 16.9339 58.8569 16.7741C59.0004 16.6142 59.185 16.5343 59.4104 16.5343H73.3403C73.5657 16.5343 73.7502 16.6142 73.8937 16.7741C74.0372 16.9339 74.109 17.1393 74.109 17.3905V20.13C74.109 20.3583 74.0372 20.5523 73.8937 20.7121C73.7502 20.8719 73.5657 20.9519 73.3403 20.9519H63.3771V26.3283H72.6637C72.8892 26.3283 73.0737 26.4081 73.2173 26.5679C73.3608 26.7277 73.4324 26.9333 73.4324 27.1843V29.7185C73.4324 29.9467 73.3608 30.1408 73.2173 30.3006C73.0737 30.4605 72.8892 30.5403 72.6637 30.5403H63.3771V36.0879H73.5863C73.8117 36.0879 73.9962 36.1678 74.1397 36.3276C74.2833 36.4875 74.355 36.6929 74.355 36.944V39.6493C74.355 39.9004 74.2833 40.1059 74.1397 40.2657C73.9962 40.4255 73.8117 40.5055 73.5863 40.5055H59.4104ZM78.7487 40.5055C78.5232 40.5055 78.3386 40.4255 78.1951 40.2657C78.0516 40.1059 77.9799 39.9004 77.9799 39.6493V17.048C77.9799 16.7969 78.0516 16.5915 78.1951 16.4316C78.3386 16.2718 78.5232 16.1919 78.7487 16.1919H81.8237C82.0286 16.1919 82.2029 16.2718 82.3464 16.4316C82.4899 16.5915 82.5617 16.7969 82.5617 17.048V39.6493C82.5617 39.9004 82.4899 40.1059 82.3464 40.2657C82.2029 40.4255 82.0286 40.5055 81.8237 40.5055H78.7487ZM93.8894 40.8479C91.5323 40.8479 89.6565 40.1173 88.2625 38.6563C86.8886 37.1951 86.1615 35.0719 86.0791 32.2867C86.0791 32.1041 86.0791 31.8645 86.0791 31.5677C86.0791 31.2481 86.0791 30.9969 86.0791 30.8143C86.1615 29.0564 86.5196 27.5497 87.1554 26.294C87.7912 25.0155 88.6829 24.0452 89.8303 23.3832C90.9785 22.6983 92.3217 22.3559 93.859 22.3559C95.5813 22.3559 97.0165 22.7554 98.1637 23.5545C99.3321 24.3307 100.203 25.4037 100.777 26.7734C101.372 28.1203 101.67 29.6728 101.67 31.4307V32.2183C101.67 32.4466 101.587 32.6406 101.423 32.8005C101.28 32.9603 101.106 33.0401 100.901 33.0401H90.8451C90.8451 33.063 90.8451 33.1087 90.8451 33.1771C90.8451 33.2227 90.8451 33.2685 90.8451 33.3141C90.8663 34.0446 90.9895 34.7181 91.214 35.3345C91.4606 35.9281 91.7991 36.4075 92.2288 36.7728C92.6805 37.1381 93.2132 37.3207 93.8287 37.3207C94.3411 37.3207 94.7606 37.2408 95.0891 37.081C95.4175 36.9211 95.6834 36.7271 95.8885 36.4989C96.1139 36.2705 96.2786 36.0765 96.3807 35.9167C96.5647 35.6884 96.7092 35.5514 96.8113 35.5057C96.9337 35.4373 97.1186 35.403 97.3642 35.403H100.562C100.767 35.403 100.931 35.4715 101.054 35.6085C101.198 35.7226 101.26 35.8938 101.239 36.1221C101.218 36.4875 101.044 36.944 100.717 37.4919C100.409 38.017 99.9476 38.5421 99.3321 39.0671C98.7175 39.5695 97.9484 39.9917 97.0266 40.3342C96.1241 40.6767 95.0789 40.8479 93.8894 40.8479ZM90.8451 29.9239H96.872V29.8554C96.872 29.0335 96.7497 28.3258 96.5031 27.7323C96.2786 27.1159 95.9401 26.6365 95.4883 26.294C95.0375 25.9515 94.4947 25.7803 93.859 25.7803C93.2233 25.7803 92.6805 25.9515 92.2288 26.294C91.778 26.6365 91.4293 27.1159 91.1837 27.7323C90.9583 28.3258 90.8451 29.0335 90.8451 29.8554V29.9239ZM105.789 40.5055C105.584 40.5055 105.41 40.4255 105.266 40.2657C105.123 40.1059 105.051 39.9004 105.051 39.6493V23.5545C105.051 23.3033 105.123 23.0979 105.266 22.9381C105.41 22.7782 105.584 22.6983 105.789 22.6983H108.648C108.853 22.6983 109.028 22.7782 109.171 22.9381C109.335 23.0979 109.417 23.3033 109.417 23.5545V24.7187C109.827 24.0795 110.391 23.5316 111.108 23.075C111.846 22.6185 112.718 22.3787 113.722 22.3559C116.101 22.3103 117.73 23.3147 118.612 25.3694C119.084 24.4791 119.76 23.7599 120.641 23.212C121.544 22.6412 122.527 22.3559 123.592 22.3559C124.659 22.3559 125.622 22.6299 126.483 23.1777C127.344 23.7028 128.02 24.5247 128.513 25.6433C129.026 26.7391 129.282 28.1546 129.282 29.8897V39.6493C129.282 39.9004 129.21 40.1059 129.066 40.2657C128.923 40.4255 128.749 40.5055 128.544 40.5055H125.5C125.294 40.5055 125.121 40.4255 124.976 40.2657C124.834 40.1059 124.761 39.9004 124.761 39.6493V30.1636C124.761 29.2276 124.639 28.497 124.392 27.9719C124.146 27.4241 123.819 27.0359 123.409 26.8077C123.019 26.5793 122.578 26.4652 122.086 26.4652C121.656 26.4652 121.235 26.5793 120.825 26.8077C120.436 27.0359 120.108 27.4241 119.842 27.9719C119.595 28.497 119.473 29.2276 119.473 30.1636V39.6493C119.473 39.9004 119.401 40.1059 119.257 40.2657C119.114 40.4255 118.93 40.5055 118.704 40.5055H115.69C115.465 40.5055 115.28 40.4255 115.137 40.2657C114.993 40.1059 114.922 39.9004 114.922 39.6493V30.1636C114.922 29.2276 114.798 28.497 114.553 27.9719C114.306 27.4241 113.979 27.0359 113.568 26.8077C113.179 26.5793 112.748 26.4652 112.277 26.4652C111.846 26.4652 111.426 26.5908 111.016 26.8419C110.607 27.0703 110.268 27.4469 110.001 27.9719C109.756 28.497 109.632 29.2162 109.632 30.1293V39.6493C109.632 39.9004 109.561 40.1059 109.417 40.2657C109.274 40.4255 109.1 40.5055 108.895 40.5055H105.789ZM140.45 40.8479C138.093 40.8479 136.217 40.1173 134.823 38.6563C133.449 37.1951 132.721 35.0719 132.64 32.2867C132.64 32.1041 132.64 31.8645 132.64 31.5677C132.64 31.2481 132.64 30.9969 132.64 30.8143C132.721 29.0564 133.08 27.5497 133.716 26.294C134.351 25.0155 135.242 24.0452 136.391 23.3832C137.539 22.6983 138.882 22.3559 140.419 22.3559C142.142 22.3559 143.576 22.7554 144.724 23.5545C145.893 24.3307 146.764 25.4037 147.338 26.7734C147.932 28.1203 148.23 29.6728 148.23 31.4307V32.2183C148.23 32.4466 148.147 32.6406 147.984 32.8005C147.84 32.9603 147.665 33.0401 147.461 33.0401H137.405C137.405 33.063 137.405 33.1087 137.405 33.1771C137.405 33.2227 137.405 33.2685 137.405 33.3141C137.426 34.0446 137.549 34.7181 137.775 35.3345C138.021 35.9281 138.359 36.4075 138.79 36.7728C139.24 37.1381 139.773 37.3207 140.389 37.3207C140.9 37.3207 141.321 37.2408 141.649 37.081C141.977 36.9211 142.244 36.7271 142.449 36.4989C142.674 36.2705 142.838 36.0765 142.941 35.9167C143.125 35.6884 143.269 35.5514 143.372 35.5057C143.494 35.4373 143.679 35.403 143.925 35.403H147.122C147.328 35.403 147.492 35.4715 147.615 35.6085C147.758 35.7226 147.82 35.8938 147.8 36.1221C147.778 36.4875 147.604 36.944 147.277 37.4919C146.969 38.017 146.508 38.5421 145.893 39.0671C145.278 39.5695 144.509 39.9917 143.587 40.3342C142.684 40.6767 141.638 40.8479 140.45 40.8479ZM137.405 29.9239H143.433V29.8554C143.433 29.0335 143.31 28.3258 143.063 27.7323C142.838 27.1159 142.499 26.6365 142.05 26.294C141.598 25.9515 141.054 25.7803 140.419 25.7803C139.784 25.7803 139.24 25.9515 138.79 26.294C138.338 26.6365 137.991 27.1159 137.744 27.7323C137.518 28.3258 137.405 29.0335 137.405 29.8554V29.9239ZM152.349 40.5055C152.144 40.5055 151.97 40.4255 151.826 40.2657C151.682 40.1059 151.611 39.9004 151.611 39.6493V23.5545C151.611 23.3033 151.682 23.0979 151.826 22.9381C151.97 22.7782 152.144 22.6983 152.349 22.6983H155.362C155.587 22.6983 155.772 22.7782 155.916 22.9381C156.059 23.0979 156.131 23.3033 156.131 23.5545V24.8899C156.664 24.1595 157.351 23.5545 158.191 23.075C159.032 22.5956 160.057 22.3559 161.266 22.3559C162.475 22.3559 163.532 22.6641 164.434 23.2805C165.356 23.874 166.073 24.753 166.586 25.9173C167.119 27.0588 167.385 28.4514 167.385 30.0951V39.6493C167.385 39.9004 167.304 40.1059 167.14 40.2657C166.996 40.4255 166.822 40.5055 166.617 40.5055H163.358C163.132 40.5055 162.947 40.4255 162.804 40.2657C162.66 40.1059 162.589 39.9004 162.589 39.6493V30.3006C162.589 29.0907 162.322 28.1546 161.789 27.4925C161.277 26.8077 160.519 26.4652 159.514 26.4652C158.551 26.4652 157.782 26.8077 157.207 27.4925C156.633 28.1546 156.346 29.0907 156.346 30.3006V39.6493C156.346 39.9004 156.275 40.1059 156.131 40.2657C155.988 40.4255 155.814 40.5055 155.609 40.5055H152.349ZM178.885 40.5055C177.614 40.5055 176.527 40.2771 175.625 39.8205C174.723 39.3411 174.037 38.6106 173.565 37.6289C173.114 36.6472 172.889 35.4144 172.889 33.9305V26.7391H170.49C170.265 26.7391 170.08 26.6593 169.937 26.4995C169.793 26.3396 169.721 26.1341 169.721 25.8831V23.5545C169.721 23.3033 169.793 23.0979 169.937 22.9381C170.08 22.7782 170.265 22.6983 170.49 22.6983H172.889V17.048C172.889 16.7969 172.961 16.5915 173.103 16.4316C173.268 16.2718 173.453 16.1919 173.657 16.1919H176.671C176.896 16.1919 177.081 16.2718 177.224 16.4316C177.368 16.5915 177.439 16.7969 177.439 17.048V22.6983H181.283C181.488 22.6983 181.663 22.7782 181.806 22.9381C181.95 23.0979 182.021 23.3033 182.021 23.5545V25.8831C182.021 26.1341 181.95 26.3396 181.806 26.4995C181.663 26.6593 181.488 26.7391 181.283 26.7391H177.439V33.5195C177.439 34.3871 177.574 35.072 177.839 35.5743C178.126 36.0537 178.619 36.2933 179.315 36.2933H181.56C181.765 36.2933 181.94 36.3732 182.082 36.5331C182.227 36.6929 182.298 36.8869 182.298 37.1153V39.6493C182.298 39.9004 182.227 40.1059 182.082 40.2657C181.94 40.4255 181.765 40.5055 181.56 40.5055H178.885Z" fill="#1B2428"/>
<path d="M187.791 40.7009C187.57 40.7009 187.389 40.6239 187.248 40.4697C187.106 40.3156 187.036 40.1174 187.036 39.8753V18.4094C187.036 18.1673 187.106 17.9691 187.248 17.8149C187.389 17.6608 187.57 17.5838 187.791 17.5838H201.266C201.487 17.5838 201.668 17.6608 201.809 17.8149C201.95 17.9691 202.021 18.1673 202.021 18.4094V21.2165C202.021 21.4586 201.95 21.6568 201.809 21.811C201.668 21.9651 201.487 22.0421 201.266 22.0421H191.749V27.6232H200.661C200.882 27.6232 201.064 27.7002 201.205 27.8543C201.347 28.0085 201.417 28.2067 201.417 28.4489V31.2559C201.417 31.4761 201.347 31.6631 201.205 31.8173C201.064 31.9714 200.882 32.0484 200.661 32.0484H191.749V39.8753C191.749 40.1174 191.678 40.3156 191.538 40.4697C191.396 40.6239 191.215 40.7009 190.994 40.7009H187.791ZM206.554 40.7009C206.352 40.7009 206.18 40.6239 206.041 40.4697C205.899 40.3156 205.829 40.1174 205.829 39.8753V24.3538C205.829 24.1117 205.899 23.9135 206.041 23.7593C206.18 23.6052 206.352 23.5282 206.554 23.5282H209.575C209.796 23.5282 209.977 23.6052 210.119 23.7593C210.26 23.9135 210.331 24.1117 210.331 24.3538V39.8753C210.331 40.1174 210.26 40.3156 210.119 40.4697C209.977 40.6239 209.796 40.7009 209.575 40.7009H206.554ZM206.463 20.8863C206.261 20.8863 206.09 20.8093 205.949 20.6551C205.809 20.501 205.738 20.3028 205.738 20.0607V17.4187C205.738 17.1766 205.809 16.9784 205.949 16.8243C206.09 16.6482 206.261 16.5601 206.463 16.5601H209.635C209.857 16.5601 210.038 16.6482 210.18 16.8243C210.34 16.9784 210.421 17.1766 210.421 17.4187V20.0607C210.421 20.3028 210.34 20.501 210.18 20.6551C210.038 20.8093 209.857 20.8863 209.635 20.8863H206.463Z" fill="#8FD8E7"/>
<mask id="mask0_1493_10210" style="mask-type:alpha" maskUnits="userSpaceOnUse" x="2" y="1" width="45" height="43">
<path d="M19.6009 33.2728C13.4057 36.2997 6.13932 33.2623 3.37092 26.4887C0.602517 19.7151 3.38049 11.7701 9.57568 8.74323C15.7709 5.71634 23.0372 8.75372 25.8057 15.5273C28.574 22.301 25.7961 30.2459 19.6009 33.2728Z" fill="black"/>
<path d="M41.9178 19.4566C37.6288 21.5522 32.5982 19.4494 30.6817 14.7599C28.7651 10.0705 30.6883 4.57019 34.9772 2.47462C39.2663 0.37904 44.2968 2.48188 46.2134 7.17131C48.13 11.8608 46.2068 17.3611 41.9178 19.4566Z" fill="black"/>
<path d="M38.9099 42.5886C35.455 44.2766 31.4026 42.5827 29.8586 38.8051C28.3148 35.0275 29.8639 30.5966 33.319 28.9086C36.774 27.2205 40.8264 28.9144 42.3702 32.692C43.9142 36.4696 42.3649 40.9005 38.9099 42.5886Z" fill="black"/>
</mask>
<g mask="url(#mask0_1493_10210)">
<path d="M4.16826 31.292C10.2842 43.814 26.337 49.429 40.0235 43.8333C53.7099 38.2377 59.8468 23.5506 53.7309 11.0285C47.615 -1.49341 31.5621 -7.10834 17.8757 -1.51273C4.18938 4.0828 -1.94767 18.77 4.16826 31.292Z" fill="#1B2428"/>
<path d="M13.591 28.5787C16.8518 36.5244 25.4109 40.0873 32.7082 36.5367C40.0055 32.9859 43.2776 23.6663 40.0168 15.7207C36.7559 7.775 28.1968 4.21202 20.8994 7.76276C13.6022 11.3133 10.33 20.6329 13.591 28.5787Z" fill="#6ACDE2"/>
</g>
</svg>
