<svg width="13" height="16" viewBox="0 0 13 16" fill="none" xmlns="http://www.w3.org/2000/svg">
<path d="M11 8.00025L11.675 8.90027C11.9583 8.68781 12.125 8.35438 12.125 8.00027C12.125 7.64617 11.9583 7.31273 11.675 7.10027L11 8.00025ZM2.67502 0.350012C2.17797 -0.022789 1.47281 0.0779343 1.10001 0.574984C0.727211 1.07203 0.827934 1.77719 1.32498 2.14999L2.67502 0.350012ZM1.32503 13.85C0.827964 14.2228 0.727216 14.9279 1.1 15.425C1.47278 15.922 2.17793 16.0228 2.675 15.65L1.32503 13.85ZM1.32498 2.14999L10.325 8.90024L11.675 7.10027L2.67502 0.350012L1.32498 2.14999ZM10.325 7.10024L1.32503 13.85L2.675 15.65L11.675 8.90027L10.325 7.10024Z" fill="url(#paint0_linear_619_1106)"/>
<defs>
<linearGradient id="paint0_linear_619_1106" x1="2" y1="1.25" x2="15.6401" y2="7.93723" gradientUnits="userSpaceOnUse">
<stop offset="0.24238" stop-color="#36BEFF"/>
<stop offset="1" stop-color="#733FF1"/>
</linearGradient>
</defs>
</svg>
