<svg width="202" height="156" viewBox="0 0 202 156" fill="none" xmlns="http://www.w3.org/2000/svg">
<rect x="200.935" y="1.06451" width="117.051" height="199.871" rx="18.9355" transform="rotate(90 200.935 1.06451)" fill="white" stroke="#FFAA8F" stroke-width="2.12901"/>
<g filter="url(#filter0_f_442_5983)">
<rect x="76" y="19" width="56" height="56" rx="12" transform="rotate(90 76 19)" fill="white"/>
<rect x="74.75" y="20.25" width="53.5" height="53.5" rx="10.75" transform="rotate(90 74.75 20.25)" stroke="#FFAA8F" stroke-width="2.5"/>
</g>
<g filter="url(#filter1_f_442_5983)">
<rect x="101" y="98" width="56" height="56" rx="12" transform="rotate(90 101 98)" fill="white"/>
<rect x="99.75" y="99.25" width="53.5" height="53.5" rx="10.75" transform="rotate(90 99.75 99.25)" stroke="#FFAA8F" stroke-width="2.5"/>
</g>
<g filter="url(#filter2_f_442_5983)">
<rect x="177" y="35" width="56" height="56" rx="12" transform="rotate(90 177 35)" fill="white"/>
<rect x="175.75" y="36.25" width="53.5" height="53.5" rx="10.75" transform="rotate(90 175.75 36.25)" stroke="#FFAA8F" stroke-width="2.5"/>
</g>
<g opacity="0.6">
<rect x="32" y="31" width="32" height="16" rx="8" fill="#FFAA8F"/>
<ellipse opacity="0.5" cx="40.8888" cy="39" rx="3.55556" ry="3.55556" transform="rotate(-90 40.8888 39)" fill="white"/>
<ellipse opacity="0.5" cx="47.9999" cy="39" rx="3.55556" ry="3.55556" transform="rotate(-90 47.9999 39)" fill="white"/>
<ellipse opacity="0.5" cx="55.1112" cy="39" rx="3.55556" ry="3.55556" transform="rotate(-90 55.1112 39)" fill="white"/>
<rect x="32.4444" y="31.4444" width="31.1111" height="15.1111" rx="7.55556" stroke="white" stroke-opacity="0.5" stroke-width="0.888889"/>
<rect x="32" y="47" width="32" height="16" rx="8" fill="#FFAA8F"/>
<ellipse opacity="0.5" cx="40.8888" cy="55" rx="3.55556" ry="3.55556" transform="rotate(-90 40.8888 55)" fill="white"/>
<ellipse opacity="0.5" cx="47.9999" cy="55" rx="3.55556" ry="3.55556" transform="rotate(-90 47.9999 55)" fill="white"/>
<ellipse opacity="0.5" cx="55.1112" cy="55" rx="3.55556" ry="3.55556" transform="rotate(-90 55.1112 55)" fill="white"/>
<rect x="32.4444" y="47.4444" width="31.1111" height="15.1111" rx="7.55556" stroke="white" stroke-opacity="0.5" stroke-width="0.888889"/>
</g>
<g opacity="0.6">
<rect x="57" y="110" width="32" height="16" rx="8" fill="#FFAA8F"/>
<ellipse opacity="0.5" cx="65.8888" cy="118" rx="3.55556" ry="3.55556" transform="rotate(-90 65.8888 118)" fill="white"/>
<ellipse opacity="0.5" cx="72.9999" cy="118" rx="3.55556" ry="3.55556" transform="rotate(-90 72.9999 118)" fill="white"/>
<ellipse opacity="0.5" cx="80.1112" cy="118" rx="3.55556" ry="3.55556" transform="rotate(-90 80.1112 118)" fill="white"/>
<rect x="57.4444" y="110.444" width="31.1111" height="15.1111" rx="7.55556" stroke="white" stroke-opacity="0.5" stroke-width="0.888889"/>
<rect x="57" y="126" width="32" height="16" rx="8" fill="#FFAA8F"/>
<ellipse opacity="0.5" cx="65.8888" cy="134" rx="3.55556" ry="3.55556" transform="rotate(-90 65.8888 134)" fill="white"/>
<ellipse opacity="0.5" cx="72.9999" cy="134" rx="3.55556" ry="3.55556" transform="rotate(-90 72.9999 134)" fill="white"/>
<ellipse opacity="0.5" cx="80.1112" cy="134" rx="3.55556" ry="3.55556" transform="rotate(-90 80.1112 134)" fill="white"/>
<rect x="57.4444" y="126.444" width="31.1111" height="15.1111" rx="7.55556" stroke="white" stroke-opacity="0.5" stroke-width="0.888889"/>
</g>
<g opacity="0.6">
<rect x="133" y="47" width="32" height="16" rx="8" fill="#FFAA8F"/>
<ellipse opacity="0.5" cx="141.889" cy="55" rx="3.55556" ry="3.55556" transform="rotate(-90 141.889 55)" fill="white"/>
<ellipse opacity="0.5" cx="149" cy="55" rx="3.55556" ry="3.55556" transform="rotate(-90 149 55)" fill="white"/>
<ellipse opacity="0.5" cx="156.111" cy="55" rx="3.55556" ry="3.55556" transform="rotate(-90 156.111 55)" fill="white"/>
<rect x="133.444" y="47.4444" width="31.1111" height="15.1111" rx="7.55556" stroke="white" stroke-opacity="0.5" stroke-width="0.888889"/>
<rect x="133" y="63" width="32" height="16" rx="8" fill="#FFAA8F"/>
<ellipse opacity="0.5" cx="141.889" cy="71" rx="3.55556" ry="3.55556" transform="rotate(-90 141.889 71)" fill="white"/>
<ellipse opacity="0.5" cx="149" cy="71" rx="3.55556" ry="3.55556" transform="rotate(-90 149 71)" fill="white"/>
<ellipse opacity="0.5" cx="156.111" cy="71" rx="3.55556" ry="3.55556" transform="rotate(-90 156.111 71)" fill="white"/>
<rect x="133.444" y="63.4444" width="31.1111" height="15.1111" rx="7.55556" stroke="white" stroke-opacity="0.5" stroke-width="0.888889"/>
</g>
<mask id="mask0_442_5983" style="mask-type:alpha" maskUnits="userSpaceOnUse" x="58" y="38" width="86" height="86">
<circle cx="101" cy="81" r="43" fill="#D9D9D9"/>
</mask>
<g mask="url(#mask0_442_5983)">
<rect x="93.4598" y="12.5402" width="65.9196" height="65.9196" rx="13.2455" transform="rotate(90 93.4598 12.5402)" fill="white" stroke="#FFAA8F" stroke-width="3.08036"/>
<rect x="40.7856" y="25.7856" width="39.4286" height="19.7143" rx="9.85714" fill="#FFAA8F"/>
<ellipse opacity="0.5" cx="60.4998" cy="35.6429" rx="4.38095" ry="4.38095" transform="rotate(-90 60.4998 35.6429)" fill="white"/>
<ellipse opacity="0.5" cx="69.2618" cy="35.6429" rx="4.38095" ry="4.38095" transform="rotate(-90 69.2618 35.6429)" fill="white"/>
<rect x="41.3333" y="26.3333" width="38.3333" height="18.619" rx="9.30952" stroke="white" stroke-opacity="0.5" stroke-width="1.09524"/>
<rect x="40.7856" y="45.5" width="39.4286" height="19.7143" rx="9.85714" fill="#FFAA8F"/>
<ellipse opacity="0.5" cx="60.4998" cy="55.3572" rx="4.38095" ry="4.38095" transform="rotate(-90 60.4998 55.3572)" fill="white"/>
<ellipse opacity="0.5" cx="69.2618" cy="55.3572" rx="4.38095" ry="4.38095" transform="rotate(-90 69.2618 55.3572)" fill="white"/>
<rect x="41.3333" y="46.0476" width="38.3333" height="18.619" rx="9.30952" stroke="white" stroke-opacity="0.5" stroke-width="1.09524"/>
<rect x="102.594" y="91.4062" width="60.1875" height="60.1875" rx="12.0938" transform="rotate(90 102.594 91.4062)" fill="white" stroke="#FFAA8F" stroke-width="2.8125"/>
<rect x="54.5" y="103.5" width="36" height="18" rx="9" fill="#FFAA8F"/>
<ellipse opacity="0.5" cx="64.5" cy="112.5" rx="4" ry="4" transform="rotate(-90 64.5 112.5)" fill="white"/>
<ellipse opacity="0.5" cx="72.5" cy="112.5" rx="4" ry="4" transform="rotate(-90 72.5 112.5)" fill="white"/>
<ellipse opacity="0.5" cx="80.5" cy="112.5" rx="4" ry="4" transform="rotate(-90 80.5 112.5)" fill="white"/>
<rect x="55" y="104" width="35" height="17" rx="8.5" stroke="white" stroke-opacity="0.5"/>
<rect x="54.5" y="121.5" width="36" height="18" rx="9" fill="#FFAA8F"/>
<rect x="55" y="122" width="35" height="17" rx="8.5" stroke="white" stroke-opacity="0.5"/>
<rect x="170.571" y="33.4286" width="61.1429" height="61.1429" rx="12.2857" transform="rotate(90 170.571 33.4286)" fill="white" stroke="#FFAA8F" stroke-width="2.85714"/>
<rect x="121.714" y="45.7144" width="36.5714" height="18.2857" rx="9.14286" fill="#FFAA8F"/>
<ellipse opacity="0.5" cx="131.873" cy="54.8572" rx="4.06349" ry="4.06349" transform="rotate(-90 131.873 54.8572)" fill="white"/>
<ellipse opacity="0.5" cx="140" cy="54.8572" rx="4.06349" ry="4.06349" transform="rotate(-90 140 54.8572)" fill="white"/>
<rect x="122.222" y="46.2223" width="35.5556" height="17.2698" rx="8.63492" stroke="white" stroke-opacity="0.5" stroke-width="1.01587"/>
<rect x="121.714" y="64" width="36.5714" height="18.2857" rx="9.14286" fill="#FFAA8F"/>
<ellipse opacity="0.5" cx="131.873" cy="73.1429" rx="4.06349" ry="4.06349" transform="rotate(-90 131.873 73.1429)" fill="white"/>
<ellipse opacity="0.5" cx="140" cy="73.1429" rx="4.06349" ry="4.06349" transform="rotate(-90 140 73.1429)" fill="white"/>
<rect x="122.222" y="64.5079" width="35.5556" height="17.2698" rx="8.63492" stroke="white" stroke-opacity="0.5" stroke-width="1.01587"/>
</g>
<defs>
<filter id="filter0_f_442_5983" x="18" y="17" width="60" height="60" filterUnits="userSpaceOnUse" color-interpolation-filters="sRGB">
<feFlood flood-opacity="0" result="BackgroundImageFix"/>
<feBlend mode="normal" in="SourceGraphic" in2="BackgroundImageFix" result="shape"/>
<feGaussianBlur stdDeviation="1" result="effect1_foregroundBlur_442_5983"/>
</filter>
<filter id="filter1_f_442_5983" x="43" y="96" width="60" height="60" filterUnits="userSpaceOnUse" color-interpolation-filters="sRGB">
<feFlood flood-opacity="0" result="BackgroundImageFix"/>
<feBlend mode="normal" in="SourceGraphic" in2="BackgroundImageFix" result="shape"/>
<feGaussianBlur stdDeviation="1" result="effect1_foregroundBlur_442_5983"/>
</filter>
<filter id="filter2_f_442_5983" x="119" y="33" width="60" height="60" filterUnits="userSpaceOnUse" color-interpolation-filters="sRGB">
<feFlood flood-opacity="0" result="BackgroundImageFix"/>
<feBlend mode="normal" in="SourceGraphic" in2="BackgroundImageFix" result="shape"/>
<feGaussianBlur stdDeviation="1" result="effect1_foregroundBlur_442_5983"/>
</filter>
</defs>
</svg>
