<svg width="210" height="186" viewBox="0 0 210 186" fill="none" xmlns="http://www.w3.org/2000/svg">
<rect x="78.75" y="54.25" width="77.5" height="77.5" rx="10.75" transform="rotate(90 78.75 54.25)" fill="white" stroke="#36BEFF" stroke-width="2.5"/>
<rect x="208.75" y="1.25" width="77.5" height="77.5" rx="10.75" transform="rotate(90 208.75 1.25)" fill="white" stroke="#36BEFF" stroke-width="2.5"/>
<rect x="208.75" y="107.25" width="77.5" height="77.5" rx="10.75" transform="rotate(90 208.75 107.25)" fill="white" stroke="#36BEFF" stroke-width="2.5"/>
<path d="M130 40L114 40C111.791 40 110 41.7909 110 44L110 93M130 146L114 146C111.791 146 110 144.209 110 142L110 93M110 93L79 93" stroke="#36BEFF" stroke-width="2.5" stroke-linecap="square"/>
<rect x="20" y="63" width="40" height="20" rx="10" fill="#36BEFF"/>
<ellipse opacity="0.5" cx="31.1112" cy="73" rx="4.44444" ry="4.44444" transform="rotate(-90 31.1112 73)" fill="white"/>
<ellipse opacity="0.5" cx="40.0001" cy="73" rx="4.44444" ry="4.44444" transform="rotate(-90 40.0001 73)" fill="white"/>
<ellipse opacity="0.5" cx="48.8888" cy="73" rx="4.44444" ry="4.44444" transform="rotate(-90 48.8888 73)" fill="white"/>
<rect x="20.5556" y="63.5556" width="38.8889" height="18.8889" rx="9.44444" stroke="white" stroke-opacity="0.5" stroke-width="1.11111"/>
<rect x="20" y="83" width="40" height="20" rx="10" fill="#36BEFF"/>
<ellipse opacity="0.5" cx="31.1112" cy="93" rx="4.44444" ry="4.44444" transform="rotate(-90 31.1112 93)" fill="white"/>
<ellipse opacity="0.5" cx="40.0001" cy="93" rx="4.44444" ry="4.44444" transform="rotate(-90 40.0001 93)" fill="white"/>
<ellipse opacity="0.5" cx="48.8888" cy="93" rx="4.44444" ry="4.44444" transform="rotate(-90 48.8888 93)" fill="#36BEFF"/>
<rect x="20.5556" y="83.5556" width="38.8889" height="18.8889" rx="9.44444" stroke="white" stroke-opacity="0.5" stroke-width="1.11111"/>
<rect x="20" y="103" width="40" height="20" rx="10" fill="#36BEFF"/>
<ellipse opacity="0.5" cx="31.1112" cy="113" rx="4.44444" ry="4.44444" transform="rotate(-90 31.1112 113)" fill="white"/>
<ellipse opacity="0.5" cx="40.0001" cy="113" rx="4.44444" ry="4.44444" transform="rotate(-90 40.0001 113)" fill="white"/>
<ellipse opacity="0.5" cx="48.8888" cy="113" rx="4.44444" ry="4.44444" transform="rotate(-90 48.8888 113)" fill="white"/>
<rect x="20.5556" y="103.556" width="38.8889" height="18.8889" rx="9.44444" stroke="white" stroke-opacity="0.5" stroke-width="1.11111"/>
<rect x="150" y="116" width="40" height="20" rx="10" fill="#36BEFF"/>
<ellipse opacity="0.5" cx="161.111" cy="126" rx="4.44444" ry="4.44444" transform="rotate(-90 161.111 126)" fill="white"/>
<ellipse opacity="0.5" cx="170" cy="126" rx="4.44444" ry="4.44444" transform="rotate(-90 170 126)" fill="white"/>
<ellipse opacity="0.5" cx="178.889" cy="126" rx="4.44444" ry="4.44444" transform="rotate(-90 178.889 126)" fill="white"/>
<rect x="150.556" y="116.556" width="38.8889" height="18.8889" rx="9.44444" stroke="white" stroke-opacity="0.5" stroke-width="1.11111"/>
<rect x="150" y="136" width="40" height="20" rx="10" fill="#36BEFF"/>
<ellipse opacity="0.5" cx="161.111" cy="146" rx="4.44444" ry="4.44444" transform="rotate(-90 161.111 146)" fill="white"/>
<ellipse opacity="0.5" cx="170" cy="146" rx="4.44444" ry="4.44444" transform="rotate(-90 170 146)" fill="white"/>
<ellipse opacity="0.5" cx="178.889" cy="146" rx="4.44444" ry="4.44444" transform="rotate(-90 178.889 146)" fill="white"/>
<rect x="150.556" y="136.556" width="38.8889" height="18.8889" rx="9.44444" stroke="white" stroke-opacity="0.5" stroke-width="1.11111"/>
<rect x="150" y="156" width="40" height="20" rx="10" fill="#36BEFF"/>
<ellipse opacity="0.5" cx="161.111" cy="166" rx="4.44444" ry="4.44444" transform="rotate(-90 161.111 166)" fill="white"/>
<ellipse opacity="0.5" cx="170" cy="166" rx="4.44444" ry="4.44444" transform="rotate(-90 170 166)" fill="white"/>
<ellipse opacity="0.5" cx="178.889" cy="166" rx="4.44444" ry="4.44444" transform="rotate(-90 178.889 166)" fill="white"/>
<rect x="150.556" y="156.556" width="38.8889" height="18.8889" rx="9.44444" stroke="white" stroke-opacity="0.5" stroke-width="1.11111"/>
<rect x="150" y="10" width="40" height="20" rx="10" fill="#36BEFF"/>
<ellipse opacity="0.5" cx="161.111" cy="20" rx="4.44444" ry="4.44444" transform="rotate(-90 161.111 20)" fill="white"/>
<ellipse opacity="0.5" cx="170" cy="20" rx="4.44444" ry="4.44444" transform="rotate(-90 170 20)" fill="white"/>
<ellipse opacity="0.5" cx="178.889" cy="20" rx="4.44444" ry="4.44444" transform="rotate(-90 178.889 20)" fill="white"/>
<rect x="150.556" y="10.5556" width="38.8889" height="18.8889" rx="9.44444" stroke="white" stroke-opacity="0.5" stroke-width="1.11111"/>
<rect x="150" y="30" width="40" height="20" rx="10" fill="#36BEFF"/>
<ellipse opacity="0.5" cx="161.111" cy="40" rx="4.44444" ry="4.44444" transform="rotate(-90 161.111 40)" fill="white"/>
<ellipse opacity="0.5" cx="170" cy="40" rx="4.44444" ry="4.44444" transform="rotate(-90 170 40)" fill="white"/>
<ellipse opacity="0.5" cx="178.889" cy="40" rx="4.44444" ry="4.44444" transform="rotate(-90 178.889 40)" fill="white"/>
<rect x="150.556" y="30.5556" width="38.8889" height="18.8889" rx="9.44444" stroke="white" stroke-opacity="0.5" stroke-width="1.11111"/>
<rect x="150" y="50" width="40" height="20" rx="10" fill="#36BEFF"/>
<ellipse opacity="0.5" cx="161.111" cy="60" rx="4.44444" ry="4.44444" transform="rotate(-90 161.111 60)" fill="white"/>
<ellipse opacity="0.5" cx="170" cy="60" rx="4.44444" ry="4.44444" transform="rotate(-90 170 60)" fill="white"/>
<ellipse opacity="0.5" cx="178.889" cy="60" rx="4.44444" ry="4.44444" transform="rotate(-90 178.889 60)" fill="white"/>
<rect x="150.556" y="50.5556" width="38.8889" height="18.8889" rx="9.44444" stroke="white" stroke-opacity="0.5" stroke-width="1.11111"/>
<ellipse cx="94" cy="93" rx="6" ry="6" transform="rotate(-90 94 93)" fill="#36BEFF"/>
</svg>
