<svg width="154" height="154" viewBox="0 0 154 154" fill="none" xmlns="http://www.w3.org/2000/svg">
<rect x="152.75" y="59.25" width="93.5" height="93.5" rx="14.75" transform="rotate(90 152.75 59.25)" fill="white" stroke="#D87DFB" stroke-width="2.5"/>
<rect x="94.75" y="1.25" width="93.5" height="93.5" rx="14.75" transform="rotate(90 94.75 1.25)" fill="white" stroke="#D87DFB" stroke-width="2.5"/>
<rect x="41" y="41" width="72" height="36" rx="18" fill="#D87DFB"/>
<ellipse opacity="0.5" cx="61" cy="59" rx="8" ry="8" transform="rotate(-90 61 59)" fill="white"/>
<ellipse opacity="0.5" cx="77" cy="59" rx="8" ry="8" transform="rotate(-90 77 59)" fill="white"/>
<ellipse opacity="0.5" cx="93" cy="59" rx="8" ry="8" transform="rotate(-90 93 59)" fill="white"/>
<rect x="42" y="42" width="70" height="34" rx="17" stroke="white" stroke-opacity="0.5" stroke-width="2"/>
<rect x="41" y="77" width="72" height="36" rx="18" fill="#D87DFB"/>
<ellipse opacity="0.5" cx="61" cy="95" rx="8" ry="8" transform="rotate(-90 61 95)" fill="white"/>
<ellipse opacity="0.5" cx="77" cy="95" rx="8" ry="8" transform="rotate(-90 77 95)" fill="white"/>
<ellipse opacity="0.5" cx="93" cy="95" rx="8" ry="8" transform="rotate(-90 93 95)" fill="white"/>
<rect x="42" y="78" width="70" height="34" rx="17" stroke="white" stroke-opacity="0.5" stroke-width="2"/>
<path d="M131.704 81.6548C131.279 81.3024 130.649 81.3614 130.296 81.7866L124.553 88.7157C124.2 89.1409 124.259 89.7713 124.684 90.1237C125.11 90.4762 125.74 90.4172 126.092 89.992L131.198 83.8328L137.357 88.9381C137.782 89.2906 138.413 89.2316 138.765 88.8064C139.117 88.3812 139.058 87.7508 138.633 87.3983L131.704 81.6548ZM130.07 82.5179C131.63 99.1916 126.702 113.265 116.553 121.782L117.838 123.314C128.615 114.271 133.666 99.4796 132.062 82.3316L130.07 82.5179ZM116.553 121.782C106.403 130.298 91.6876 132.707 75.5381 128.276L75.0088 130.205C91.6177 134.762 107.062 132.357 117.838 123.314L116.553 121.782Z" fill="#D87DFB"/>
<path d="M22.2959 72.3449C22.7211 72.6974 23.3515 72.6384 23.7039 72.2132L29.4474 65.2841C29.7999 64.8589 29.7409 64.2285 29.3157 63.876C28.8905 63.5236 28.2601 63.5826 27.9076 64.0078L22.8023 70.167L16.6431 65.0616C16.2179 64.7092 15.5875 64.7682 15.235 65.1934C14.8826 65.6186 14.9415 66.249 15.3668 66.6014L22.2959 72.3449ZM23.9297 71.4819C22.3697 54.8082 27.2975 40.7343 37.4471 32.2178L36.1615 30.6857C25.3848 39.7284 20.334 54.5201 21.9384 71.6682L23.9297 71.4819ZM37.4471 32.2178C47.5967 23.7013 62.3124 21.2923 78.4619 25.7239L78.9912 23.7952C62.3823 19.2375 46.9382 21.643 36.1615 30.6857L37.4471 32.2178Z" fill="#D87DFB"/>
</svg>
