<svg width="648" height="450" viewBox="0 0 648 450" fill="none" xmlns="http://www.w3.org/2000/svg">
<rect width="648" height="450" rx="32" fill="white"/>
<path d="M401 0H616C633.673 0 648 14.3269 648 32V394H401V0Z" fill="#C7FFE7" fill-opacity="0.5"/>
<path d="M154 0H401V394H154V0Z" fill="#ECF0F9"/>
<line opacity="0.6" y1="92.5" x2="648" y2="92.5" stroke="#CFD9F0"/>
<line opacity="0.6" y1="243.5" x2="648" y2="243.5" stroke="#CFD9F0"/>
<line opacity="0.6" y1="394.5" x2="648" y2="394.5" stroke="#CFD9F0"/>
<g filter="url(#filter0_d_950_11579)">
<path d="M444 138C444 126.954 452.954 118 464 118H584C595.046 118 604 126.954 604 138V198C604 209.046 595.046 218 584 218H464C452.954 218 444 209.046 444 198V138Z" fill="white" fill-opacity="0.9" shape-rendering="crispEdges"/>
<path d="M464 118.429H584C594.809 118.429 603.571 127.191 603.571 138V198C603.571 208.809 594.809 217.571 584 217.571H464C453.191 217.571 444.429 208.809 444.429 198V138C444.429 127.191 453.191 118.429 464 118.429Z" stroke="#5578F8" stroke-width="0.857143" shape-rendering="crispEdges"/>
</g>
<path d="M481.12 154.36C481.12 157.36 479.32 160.12 474.08 160.12V164.92C476.04 164.92 478.36 164.92 479.92 163.32V182H486.72V154.36H481.12ZM501.61 182.64C509.89 182.64 513.73 176.04 513.73 168.2C513.73 160.36 509.89 153.72 501.61 153.72C493.33 153.72 489.45 160.36 489.45 168.2C489.45 176.04 493.33 182.64 501.61 182.64ZM501.61 177.16C497.57 177.16 496.25 173.68 496.25 168.2C496.25 162.72 497.57 159.2 501.61 159.2C505.65 159.2 506.93 162.72 506.93 168.2C506.93 173.68 505.65 177.16 501.61 177.16ZM526.982 182.64C535.262 182.64 539.102 176.04 539.102 168.2C539.102 160.36 535.262 153.72 526.982 153.72C518.702 153.72 514.822 160.36 514.822 168.2C514.822 176.04 518.702 182.64 526.982 182.64ZM526.982 177.16C522.942 177.16 521.622 173.68 521.622 168.2C521.622 162.72 522.942 159.2 526.982 159.2C531.022 159.2 532.302 162.72 532.302 168.2C532.302 173.68 531.022 177.16 526.982 177.16ZM547.394 169.76C552.434 169.76 554.714 166.08 554.714 161.76C554.714 157.4 552.434 153.72 547.394 153.72C542.394 153.72 540.034 157.4 540.034 161.76C540.034 166.08 542.394 169.76 547.394 169.76ZM565.874 154.36H561.874L547.354 182H551.354L565.874 154.36ZM547.394 166.16C545.754 166.16 545.234 164.8 545.234 161.76C545.234 158.72 545.754 157.32 547.394 157.32C549.034 157.32 549.514 158.72 549.514 161.76C549.514 164.8 549.034 166.16 547.394 166.16ZM565.874 182.64C570.914 182.64 573.194 178.96 573.194 174.64C573.194 170.28 570.914 166.6 565.874 166.6C560.874 166.6 558.514 170.28 558.514 174.64C558.514 178.96 560.874 182.64 565.874 182.64ZM565.874 179.04C564.234 179.04 563.714 177.68 563.714 174.64C563.714 171.6 564.234 170.2 565.874 170.2C567.514 170.2 567.994 171.6 567.994 174.64C567.994 177.68 567.514 179.04 565.874 179.04Z" fill="url(#paint0_linear_950_11579)"/>
<g filter="url(#filter1_d_950_11579)">
<path d="M444 289C444 277.954 452.954 269 464 269H584C595.046 269 604 277.954 604 289V349C604 360.046 595.046 369 584 369H464C452.954 369 444 360.046 444 349V289Z" fill="white" fill-opacity="0.9" shape-rendering="crispEdges"/>
<path d="M464 269.429H584C594.809 269.429 603.571 278.191 603.571 289V349C603.571 359.809 594.809 368.571 584 368.571H464C453.191 368.571 444.429 359.809 444.429 349V289C444.429 278.191 453.191 269.429 464 269.429Z" stroke="#5578F8" stroke-width="0.857143" shape-rendering="crispEdges"/>
</g>
<path d="M487.939 295.36V300.84H501.019V300.92C496.099 305.12 492.339 314.16 492.339 323H499.539C499.539 314.48 501.939 305.52 508.219 300.44V295.36H487.939ZM510.123 323.36C512.003 323.36 513.523 322.04 513.523 319.96C513.523 317.92 512.003 316.56 510.123 316.56C508.203 316.56 506.723 317.92 506.723 319.96C506.723 322.04 508.203 323.36 510.123 323.36ZM530.392 311.68V311.76C530.312 315.72 528.912 318.56 525.472 318.56C522.952 318.56 522.072 316.96 521.872 316H515.072C515.952 320.44 519.992 323.64 525.352 323.64C532.432 323.64 537.192 318.8 537.192 308.8C537.192 301.6 534.232 294.72 525.112 294.72C518.472 294.72 514.272 298.72 514.272 304.84C514.272 310.12 518.072 314.2 523.792 314.2C526.952 314.2 528.912 313.08 530.392 311.68ZM525.512 299.8C528.512 299.8 530.392 301.8 530.392 304.48C530.392 307.12 528.512 309.12 525.512 309.12C522.552 309.12 520.672 307.12 520.672 304.48C520.672 301.8 522.552 299.8 525.512 299.8ZM538.439 302.52L544.679 312.56L537.639 323H544.839L548.519 316.68H548.599L552.279 323H559.479L552.439 312.56L558.679 302.52H551.879L548.599 308.44H548.519L545.239 302.52H538.439Z" fill="url(#paint1_linear_950_11579)"/>
<path d="M502.134 330.878H509.022L509.015 332.586H504.192V335.127H508.371V336.8H504.192V341H502.134V330.878ZM512.424 341.14C511.962 341.14 511.547 341.054 511.178 340.881C510.81 340.708 510.518 340.459 510.303 340.132C510.089 339.801 509.981 339.399 509.981 338.928C509.981 338.135 510.278 337.533 510.87 337.122C511.463 336.707 512.399 336.492 513.677 336.478L514.58 336.464V336.03C514.58 335.699 514.482 335.444 514.286 335.267C514.095 335.085 513.796 334.996 513.39 335.001C513.092 335.006 512.807 335.076 512.536 335.211C512.27 335.346 512.088 335.582 511.99 335.918H510.289C510.317 335.395 510.469 334.966 510.744 334.63C511.02 334.289 511.393 334.037 511.864 333.874C512.34 333.706 512.879 333.622 513.481 333.622C514.223 333.622 514.818 333.715 515.266 333.902C515.714 334.084 516.039 334.348 516.239 334.693C516.44 335.034 516.54 335.44 516.54 335.911V341H514.832L514.664 339.754C514.417 340.277 514.107 340.638 513.733 340.839C513.365 341.04 512.928 341.14 512.424 341.14ZM513.11 339.796C513.297 339.796 513.477 339.763 513.649 339.698C513.827 339.628 513.983 339.537 514.118 339.425C514.258 339.308 514.37 339.178 514.454 339.033C514.538 338.888 514.58 338.739 514.58 338.585V337.514L513.845 337.528C513.505 337.533 513.187 337.575 512.893 337.654C512.599 337.729 512.361 337.852 512.179 338.025C512.002 338.198 511.913 338.431 511.913 338.725C511.913 339.061 512.03 339.325 512.263 339.516C512.497 339.703 512.779 339.796 513.11 339.796ZM521.131 341.14C520.627 341.14 520.141 341.058 519.675 340.895C519.208 340.727 518.814 340.466 518.492 340.111C518.17 339.752 517.964 339.287 517.876 338.718H519.647C519.707 338.975 519.817 339.178 519.976 339.327C520.139 339.476 520.323 339.584 520.529 339.649C520.734 339.71 520.93 339.74 521.117 339.74C521.509 339.74 521.824 339.679 522.062 339.558C522.304 339.432 522.426 339.241 522.426 338.984C522.426 338.788 522.353 338.632 522.209 338.515C522.069 338.398 521.835 338.31 521.509 338.249L520.235 337.983C519.595 337.848 519.082 337.619 518.695 337.297C518.307 336.97 518.109 336.508 518.1 335.911C518.1 335.477 518.214 335.087 518.443 334.742C518.676 334.397 519.019 334.124 519.472 333.923C519.924 333.722 520.48 333.622 521.138 333.622C522.029 333.622 522.741 333.818 523.273 334.21C523.809 334.602 524.082 335.155 524.092 335.869H522.384C522.332 335.589 522.192 335.374 521.964 335.225C521.74 335.071 521.457 334.994 521.117 334.994C520.762 334.994 520.47 335.057 520.242 335.183C520.013 335.309 519.899 335.5 519.899 335.757C519.899 335.948 519.992 336.1 520.179 336.212C520.365 336.319 520.655 336.413 521.047 336.492L522.223 336.758C522.629 336.856 522.958 336.991 523.21 337.164C523.466 337.332 523.665 337.516 523.805 337.717C523.945 337.918 524.04 338.121 524.092 338.326C524.148 338.527 524.176 338.709 524.176 338.872C524.176 339.353 524.047 339.763 523.791 340.104C523.534 340.44 523.177 340.697 522.72 340.874C522.262 341.051 521.733 341.14 521.131 341.14ZM529.937 335.183H528.327L528.341 339.04C528.341 339.217 528.362 339.35 528.404 339.439C528.451 339.523 528.521 339.579 528.614 339.607C528.712 339.63 528.836 339.642 528.985 339.642H529.958V340.902C529.865 340.944 529.718 340.984 529.517 341.021C529.321 341.058 529.046 341.077 528.691 341.077C528.057 341.077 527.564 340.995 527.214 340.832C526.869 340.669 526.629 340.44 526.493 340.146C526.358 339.852 526.29 339.511 526.29 339.124V335.183H525.114V333.762H526.36L526.871 331.578H528.327V333.755H529.937V335.183ZM532.895 337.85C532.89 338.219 532.949 338.541 533.07 338.816C533.191 339.087 533.366 339.297 533.595 339.446C533.828 339.591 534.108 339.663 534.435 339.663C534.785 339.663 535.091 339.588 535.352 339.439C535.618 339.29 535.802 339.045 535.905 338.704H537.746C537.667 339.217 537.461 339.656 537.13 340.02C536.803 340.384 536.407 340.662 535.94 340.853C535.473 341.044 534.988 341.14 534.484 341.14C533.77 341.14 533.14 340.991 532.594 340.692C532.053 340.389 531.63 339.962 531.327 339.411C531.024 338.86 530.872 338.212 530.872 337.465C530.872 336.742 531.01 336.091 531.285 335.512C531.56 334.929 531.959 334.469 532.482 334.133C533.009 333.792 533.642 333.622 534.379 333.622C535.116 333.622 535.735 333.778 536.234 334.091C536.738 334.399 537.116 334.831 537.368 335.386C537.625 335.937 537.753 336.574 537.753 337.297V337.85H532.895ZM532.888 336.632H535.842C535.842 336.343 535.788 336.077 535.681 335.834C535.574 335.591 535.41 335.4 535.191 335.26C534.976 335.12 534.706 335.05 534.379 335.05C534.062 335.05 533.791 335.127 533.567 335.281C533.348 335.43 533.18 335.626 533.063 335.869C532.946 336.112 532.888 336.366 532.888 336.632ZM539.172 341V333.762H541.139V335.477C541.256 335.108 541.419 334.786 541.629 334.511C541.844 334.231 542.103 334.014 542.406 333.86C542.709 333.701 543.052 333.622 543.435 333.622C543.5 333.622 543.561 333.627 543.617 333.636C543.678 333.641 543.722 333.65 543.75 333.664V335.61C543.708 335.591 543.657 335.58 543.596 335.575C543.54 335.57 543.489 335.566 543.442 335.561C543.041 335.528 542.698 335.54 542.413 335.596C542.128 335.652 541.897 335.748 541.72 335.883C541.543 336.018 541.414 336.184 541.335 336.38C541.256 336.576 541.216 336.795 541.216 337.038V341H539.172Z" fill="url(#paint2_linear_950_11579)"/>
<g filter="url(#filter2_d_950_11579)">
<path d="M198 138C198 126.954 206.954 118 218 118H338C349.046 118 358 126.954 358 138V198C358 209.046 349.046 218 338 218H218C206.954 218 198 209.046 198 198V138Z" fill="white" fill-opacity="0.9" shape-rendering="crispEdges"/>
<path d="M218 118.429H338C348.809 118.429 357.571 127.191 357.571 138V198C357.571 208.809 348.809 217.571 338 217.571H218C207.191 217.571 198.429 208.809 198.429 198V138C198.429 127.191 207.191 118.429 218 118.429Z" stroke="#EB5D44" stroke-width="0.857143" shape-rendering="crispEdges"/>
</g>
<path d="M227.943 165.68V165.6C228.023 161.64 229.423 158.8 232.863 158.8C235.383 158.8 236.263 160.4 236.463 161.36H243.263C242.383 156.92 238.343 153.72 232.983 153.72C225.903 153.72 221.143 158.56 221.143 168.56C221.143 175.76 224.103 182.64 233.223 182.64C239.863 182.64 244.063 178.64 244.063 172.52C244.063 167.24 240.263 163.16 234.543 163.16C231.383 163.16 229.423 164.28 227.943 165.68ZM232.823 177.56C229.823 177.56 227.943 175.56 227.943 172.88C227.943 170.24 229.823 168.24 232.823 168.24C235.783 168.24 237.663 170.24 237.663 172.88C237.663 175.56 235.783 177.56 232.823 177.56ZM244.83 174.08C244.83 179.76 249.95 182.64 256.27 182.64C262.59 182.64 267.71 179.76 267.71 174.08C267.71 170.36 265.11 168.28 262.51 167.12V167.04C264.43 166 266.51 164.32 266.51 161.2C266.51 156.44 261.95 153.72 256.27 153.72C250.59 153.72 246.03 156.44 246.03 161.2C246.03 164.32 248.07 166 250.03 167.04V167.12C247.39 168.28 244.83 170.36 244.83 174.08ZM256.27 165.24C253.47 165.24 252.03 163.68 252.03 161.8C252.03 160 253.47 158.4 256.27 158.4C259.07 158.4 260.51 160 260.51 161.8C260.51 163.68 259.07 165.24 256.27 165.24ZM256.27 177.56C253.35 177.56 251.63 175.68 251.63 173.44C251.63 171.28 253.35 169.4 256.27 169.4C259.19 169.4 260.91 171.28 260.91 173.44C260.91 175.68 259.19 177.56 256.27 177.56ZM272.325 182.36C274.205 182.36 275.725 181.04 275.725 178.96C275.725 176.92 274.205 175.56 272.325 175.56C270.405 175.56 268.925 176.92 268.925 178.96C268.925 181.04 270.405 182.36 272.325 182.36ZM283.004 165.68V165.6C283.084 161.64 284.484 158.8 287.924 158.8C290.444 158.8 291.324 160.4 291.524 161.36H298.324C297.444 156.92 293.404 153.72 288.044 153.72C280.964 153.72 276.204 158.56 276.204 168.56C276.204 175.76 279.164 182.64 288.284 182.64C294.924 182.64 299.124 178.64 299.124 172.52C299.124 167.24 295.324 163.16 289.604 163.16C286.444 163.16 284.484 164.28 283.004 165.68ZM287.884 177.56C284.884 177.56 283.004 175.56 283.004 172.88C283.004 170.24 284.884 168.24 287.884 168.24C290.844 168.24 292.724 170.24 292.724 172.88C292.724 175.56 290.844 177.56 287.884 177.56ZM307.29 169.76C312.33 169.76 314.61 166.08 314.61 161.76C314.61 157.4 312.33 153.72 307.29 153.72C302.29 153.72 299.93 157.4 299.93 161.76C299.93 166.08 302.29 169.76 307.29 169.76ZM325.77 154.36H321.77L307.25 182H311.25L325.77 154.36ZM307.29 166.16C305.65 166.16 305.13 164.8 305.13 161.76C305.13 158.72 305.65 157.32 307.29 157.32C308.93 157.32 309.41 158.72 309.41 161.76C309.41 164.8 308.93 166.16 307.29 166.16ZM325.77 182.64C330.81 182.64 333.09 178.96 333.09 174.64C333.09 170.28 330.81 166.6 325.77 166.6C320.77 166.6 318.41 170.28 318.41 174.64C318.41 178.96 320.77 182.64 325.77 182.64ZM325.77 179.04C324.13 179.04 323.61 177.68 323.61 174.64C323.61 171.6 324.13 170.2 325.77 170.2C327.41 170.2 327.89 171.6 327.89 174.64C327.89 177.68 327.41 179.04 325.77 179.04Z" fill="#EB5D44"/>
<g filter="url(#filter3_d_950_11579)">
<path d="M198 289C198 277.954 206.954 269 218 269H338C349.046 269 358 277.954 358 289V349C358 360.046 349.046 369 338 369H218C206.954 369 198 360.046 198 349V289Z" fill="white" fill-opacity="0.9" shape-rendering="crispEdges"/>
<path d="M218 269.429H338C348.809 269.429 357.571 278.191 357.571 289V349C357.571 359.809 348.809 368.571 338 368.571H218C207.191 368.571 198.429 359.809 198.429 349V289C198.429 278.191 207.191 269.429 218 269.429Z" stroke="#EB5D44" stroke-width="0.857143" shape-rendering="crispEdges"/>
</g>
<path d="M266.164 305.36C266.164 308.36 264.364 311.12 259.124 311.12V315.92C261.084 315.92 263.404 315.92 264.964 314.32V333H271.764V305.36H266.164ZM274.614 312.52L280.854 322.56L273.814 333H281.014L284.694 326.68H284.774L288.454 333H295.654L288.614 322.56L294.854 312.52H288.054L284.774 318.44H284.694L281.414 312.52H274.614Z" fill="#EB5D44"/>
<rect x="417.5" y="32.5" width="214" height="28" rx="14" fill="white"/>
<path d="M437.588 51H439.748V48.012H441.092C442.928 48.012 442.148 50.64 442.568 51H444.812V50.88C444.32 50.736 445.1 47.412 442.952 47.04V47.016C444.02 46.776 444.692 46.056 444.692 44.916C444.692 43.296 443.54 42.42 441.632 42.42H437.588V51ZM439.748 44.184H441.212C442.076 44.184 442.532 44.496 442.532 45.216C442.532 45.936 442.076 46.248 441.212 46.248H439.748V44.184ZM448.399 45.708V44.184H452.743V42.42H446.239V51H452.815V49.236H448.399V47.472H452.143V45.708H448.399ZM454.386 42.42V51H456.546V42.42H454.386ZM458.325 51H460.485V45.9H460.509L463.509 51H465.669V42.42H463.509V47.52H463.485L460.485 42.42H458.325V51ZM469.605 46.068V44.184H473.829V42.42H467.445V51H469.605V47.832H473.049V46.068H469.605ZM478.929 51.192C481.629 51.192 483.177 49.296 483.177 46.704C483.177 44.124 481.629 42.228 478.929 42.228C476.205 42.228 474.681 44.124 474.681 46.704C474.681 49.296 476.205 51.192 478.929 51.192ZM478.929 49.428C477.357 49.428 476.841 48.204 476.841 46.704C476.841 45.216 477.357 43.992 478.929 43.992C480.489 43.992 481.017 45.216 481.017 46.704C481.017 48.204 480.489 49.428 478.929 49.428ZM484.606 51H486.766V48.012H488.11C489.946 48.012 489.166 50.64 489.586 51H491.83V50.88C491.338 50.736 492.118 47.412 489.97 47.04V47.016C491.038 46.776 491.71 46.056 491.71 44.916C491.71 43.296 490.558 42.42 488.65 42.42H484.606V51ZM486.766 44.184H488.23C489.094 44.184 489.55 44.496 489.55 45.216C489.55 45.936 489.094 46.248 488.23 46.248H486.766V44.184ZM498.705 45.612H500.865C500.661 43.62 499.413 42.228 497.073 42.228C494.361 42.228 492.909 44.124 492.909 46.704C492.909 49.296 494.361 51.192 497.073 51.192C499.425 51.192 500.673 49.8 500.865 47.784H498.705C498.561 48.744 498.129 49.428 496.977 49.428C495.549 49.428 495.069 48.324 495.069 46.704C495.069 45.096 495.549 43.992 496.977 43.992C498.117 43.992 498.549 44.676 498.705 45.612ZM504.384 45.708V44.184H508.728V42.42H502.224V51H508.8V49.236H504.384V47.472H508.128V45.708H504.384ZM515.11 51H517.27V44.184H519.754V42.42H512.614V44.184H515.11V51ZM521.145 51H523.305V48.012H524.649C526.485 48.012 525.705 50.64 526.125 51H528.369V50.88C527.877 50.736 528.657 47.412 526.509 47.04V47.016C527.577 46.776 528.249 46.056 528.249 44.916C528.249 43.296 527.097 42.42 525.189 42.42H521.145V51ZM523.305 44.184H524.769C525.633 44.184 526.089 44.496 526.089 45.216C526.089 45.936 525.633 46.248 524.769 46.248H523.305V44.184ZM534.965 49.212L535.517 51H537.677L534.581 42.42H532.421L529.313 51H531.473L532.025 49.212H534.965ZM532.517 47.568L533.489 44.4H533.513L534.485 47.568H532.517ZM538.88 51H541.04V45.9H541.064L544.064 51H546.224V42.42H544.064V47.52H544.04L541.04 42.42H538.88V51ZM551.729 45.672C550.649 45.372 550.109 45.204 550.109 44.676C550.109 44.196 550.613 43.992 551.261 43.992C552.089 43.992 552.641 44.376 552.737 45.024H554.897C554.837 43.284 553.265 42.228 551.261 42.228C549.413 42.228 547.949 42.96 547.949 44.832C547.949 46.416 549.245 47.052 550.721 47.484C551.933 47.844 552.857 48 552.857 48.684C552.857 49.116 552.425 49.428 551.621 49.428C550.661 49.428 549.869 49.092 549.869 48.18H547.709C547.709 50.088 549.389 51.192 551.621 51.192C553.769 51.192 555.017 50.124 555.017 48.48C555.017 46.644 553.349 46.116 551.729 45.672ZM561.363 49.212L561.915 51H564.075L560.979 42.42H558.819L555.711 51H557.871L558.423 49.212H561.363ZM558.915 47.568L559.887 44.4H559.911L560.883 47.568H558.915ZM570.187 45.612H572.347C572.143 43.62 570.895 42.228 568.555 42.228C565.843 42.228 564.391 44.124 564.391 46.704C564.391 49.296 565.843 51.192 568.555 51.192C570.907 51.192 572.155 49.8 572.347 47.784H570.187C570.043 48.744 569.611 49.428 568.459 49.428C567.031 49.428 566.551 48.324 566.551 46.704C566.551 45.096 567.031 43.992 568.459 43.992C569.599 43.992 570.031 44.676 570.187 45.612ZM575.642 51H577.802V44.184H580.286V42.42H573.146V44.184H575.642V51ZM581.689 42.42V51H583.849V42.42H581.689ZM589.587 51.192C592.287 51.192 593.835 49.296 593.835 46.704C593.835 44.124 592.287 42.228 589.587 42.228C586.863 42.228 585.339 44.124 585.339 46.704C585.339 49.296 586.863 51.192 589.587 51.192ZM589.587 49.428C588.015 49.428 587.499 48.204 587.499 46.704C587.499 45.216 588.015 43.992 589.587 43.992C591.147 43.992 591.675 45.216 591.675 46.704C591.675 48.204 591.147 49.428 589.587 49.428ZM595.264 51H597.424V45.9H597.448L600.448 51H602.608V42.42H600.448V47.52H600.424L597.424 42.42H595.264V51ZM608.113 45.672C607.033 45.372 606.493 45.204 606.493 44.676C606.493 44.196 606.997 43.992 607.645 43.992C608.473 43.992 609.025 44.376 609.121 45.024H611.281C611.221 43.284 609.649 42.228 607.645 42.228C605.797 42.228 604.333 42.96 604.333 44.832C604.333 46.416 605.629 47.052 607.105 47.484C608.317 47.844 609.241 48 609.241 48.684C609.241 49.116 608.809 49.428 608.005 49.428C607.045 49.428 606.253 49.092 606.253 48.18H604.093C604.093 50.088 605.773 51.192 608.005 51.192C610.153 51.192 611.401 50.124 611.401 48.48C611.401 46.644 609.733 46.116 608.113 45.672Z" fill="url(#paint3_linear_950_11579)"/>
<rect x="417.5" y="32.5" width="214" height="28" rx="14" stroke="#5578F8"/>
<rect x="170.5" y="32.5" width="214" height="28" rx="14" fill="white"/>
<path d="M196.534 45.672C195.454 45.372 194.914 45.204 194.914 44.676C194.914 44.196 195.418 43.992 196.066 43.992C196.894 43.992 197.446 44.376 197.542 45.024H199.702C199.642 43.284 198.07 42.228 196.066 42.228C194.218 42.228 192.754 42.96 192.754 44.832C192.754 46.416 194.05 47.052 195.526 47.484C196.738 47.844 197.662 48 197.662 48.684C197.662 49.116 197.23 49.428 196.426 49.428C195.466 49.428 194.674 49.092 194.674 48.18H192.514C192.514 50.088 194.194 51.192 196.426 51.192C198.574 51.192 199.822 50.124 199.822 48.48C199.822 46.644 198.154 46.116 196.534 45.672ZM203.099 51H205.259V44.184H207.743V42.42H200.603V44.184H203.099V51ZM213.108 49.212L213.66 51H215.82L212.724 42.42H210.564L207.456 51H209.616L210.168 49.212H213.108ZM210.66 47.568L211.632 44.4H211.656L212.628 47.568H210.66ZM217.023 51H219.183V45.9H219.207L222.207 51H224.367V42.42H222.207V47.52H222.183L219.183 42.42H217.023V51ZM226.142 51H230.066C232.454 51 233.774 49.476 233.774 46.716C233.774 43.956 232.334 42.42 229.946 42.42H226.142V51ZM228.302 44.184H229.73C231.074 44.184 231.614 45.156 231.614 46.716C231.614 48.276 231.074 49.236 229.73 49.236H228.302V44.184ZM239.716 49.212L240.268 51H242.428L239.332 42.42H237.172L234.064 51H236.224L236.776 49.212H239.716ZM237.268 47.568L238.24 44.4H238.264L239.236 47.568H237.268ZM243.631 51H245.791V48.012H247.135C248.971 48.012 248.191 50.64 248.611 51H250.855V50.88C250.363 50.736 251.143 47.412 248.995 47.04V47.016C250.063 46.776 250.735 46.056 250.735 44.916C250.735 43.296 249.583 42.42 247.675 42.42H243.631V51ZM245.791 44.184H247.255C248.119 44.184 248.575 44.496 248.575 45.216C248.575 45.936 248.119 46.248 247.255 46.248H245.791V44.184ZM252.282 51H256.206C258.594 51 259.914 49.476 259.914 46.716C259.914 43.956 258.474 42.42 256.086 42.42H252.282V51ZM254.442 44.184H255.87C257.214 44.184 257.754 45.156 257.754 46.716C257.754 48.276 257.214 49.236 255.87 49.236H254.442V44.184ZM266.094 51H268.254V44.184H270.738V42.42H263.598V44.184H266.094V51ZM272.129 51H274.289V48.012H275.633C277.469 48.012 276.689 50.64 277.109 51H279.353V50.88C278.861 50.736 279.641 47.412 277.493 47.04V47.016C278.561 46.776 279.233 46.056 279.233 44.916C279.233 43.296 278.081 42.42 276.173 42.42H272.129V51ZM274.289 44.184H275.753C276.617 44.184 277.073 44.496 277.073 45.216C277.073 45.936 276.617 46.248 275.753 46.248H274.289V44.184ZM285.949 49.212L286.501 51H288.661L285.565 42.42H283.405L280.297 51H282.457L283.009 49.212H285.949ZM283.501 47.568L284.473 44.4H284.497L285.469 47.568H283.501ZM289.864 51H292.024V45.9H292.048L295.048 51H297.208V42.42H295.048V47.52H295.024L292.024 42.42H289.864V51ZM302.713 45.672C301.633 45.372 301.093 45.204 301.093 44.676C301.093 44.196 301.597 43.992 302.245 43.992C303.073 43.992 303.625 44.376 303.721 45.024H305.881C305.821 43.284 304.249 42.228 302.245 42.228C300.397 42.228 298.933 42.96 298.933 44.832C298.933 46.416 300.229 47.052 301.705 47.484C302.917 47.844 303.841 48 303.841 48.684C303.841 49.116 303.409 49.428 302.605 49.428C301.645 49.428 300.853 49.092 300.853 48.18H298.693C298.693 50.088 300.373 51.192 302.605 51.192C304.753 51.192 306.001 50.124 306.001 48.48C306.001 46.644 304.333 46.116 302.713 45.672ZM312.347 49.212L312.899 51H315.059L311.963 42.42H309.803L306.695 51H308.855L309.407 49.212H312.347ZM309.899 47.568L310.871 44.4H310.895L311.867 47.568H309.899ZM321.171 45.612H323.331C323.127 43.62 321.879 42.228 319.539 42.228C316.827 42.228 315.375 44.124 315.375 46.704C315.375 49.296 316.827 51.192 319.539 51.192C321.891 51.192 323.139 49.8 323.331 47.784H321.171C321.027 48.744 320.595 49.428 319.443 49.428C318.015 49.428 317.535 48.324 317.535 46.704C317.535 45.096 318.015 43.992 319.443 43.992C320.583 43.992 321.015 44.676 321.171 45.612ZM326.626 51H328.786V44.184H331.27V42.42H324.13V44.184H326.626V51ZM332.673 42.42V51H334.833V42.42H332.673ZM340.571 51.192C343.271 51.192 344.819 49.296 344.819 46.704C344.819 44.124 343.271 42.228 340.571 42.228C337.847 42.228 336.323 44.124 336.323 46.704C336.323 49.296 337.847 51.192 340.571 51.192ZM340.571 49.428C338.999 49.428 338.483 48.204 338.483 46.704C338.483 45.216 338.999 43.992 340.571 43.992C342.131 43.992 342.659 45.216 342.659 46.704C342.659 48.204 342.131 49.428 340.571 49.428ZM346.248 51H348.408V45.9H348.432L351.432 51H353.592V42.42H351.432V47.52H351.408L348.408 42.42H346.248V51ZM359.096 45.672C358.016 45.372 357.476 45.204 357.476 44.676C357.476 44.196 357.98 43.992 358.628 43.992C359.456 43.992 360.008 44.376 360.104 45.024H362.264C362.204 43.284 360.632 42.228 358.628 42.228C356.78 42.228 355.316 42.96 355.316 44.832C355.316 46.416 356.612 47.052 358.088 47.484C359.3 47.844 360.224 48 360.224 48.684C360.224 49.116 359.792 49.428 358.988 49.428C358.028 49.428 357.236 49.092 357.236 48.18H355.076C355.076 50.088 356.756 51.192 358.988 51.192C361.136 51.192 362.384 50.124 362.384 48.48C362.384 46.644 360.716 46.116 359.096 45.672Z" fill="#4E4E4E"/>
<rect x="170.5" y="32.5" width="214" height="28" rx="14" stroke="#4E4E4E"/>
<path d="M153.422 420.41L152.762 419.96L153.896 418.55L152.318 418.106L152.57 417.404L154.076 418.01L153.968 416.324H154.784L154.676 418.016L156.2 417.356L156.428 418.058L154.886 418.544L155.99 419.9L155.324 420.374L154.388 418.856L153.422 420.41ZM157.749 425V416.324H161.109C161.733 416.324 162.255 416.42 162.675 416.612C163.095 416.8 163.409 417.072 163.617 417.428C163.825 417.78 163.929 418.202 163.929 418.694C163.929 419.166 163.845 419.558 163.677 419.87C163.513 420.182 163.303 420.434 163.047 420.626C162.791 420.814 162.525 420.96 162.249 421.064L163.953 425H162.777L161.193 421.262H158.859V425H157.749ZM158.859 420.344H160.749C161.401 420.344 161.905 420.212 162.261 419.948C162.617 419.68 162.795 419.284 162.795 418.76C162.795 418.248 162.635 417.866 162.315 417.614C161.999 417.358 161.565 417.23 161.013 417.23H158.859V420.344ZM167.145 425.12C166.741 425.12 166.385 425.05 166.077 424.91C165.773 424.766 165.533 424.56 165.357 424.292C165.185 424.024 165.099 423.7 165.099 423.32C165.099 422.632 165.339 422.12 165.819 421.784C166.299 421.448 167.069 421.268 168.129 421.244L169.233 421.214V420.728C169.233 420.348 169.119 420.048 168.891 419.828C168.663 419.604 168.311 419.492 167.835 419.492C167.479 419.496 167.165 419.58 166.893 419.744C166.621 419.908 166.447 420.176 166.371 420.548H165.393C165.417 420.144 165.529 419.804 165.729 419.528C165.933 419.248 166.219 419.036 166.587 418.892C166.955 418.748 167.389 418.676 167.889 418.676C168.429 418.676 168.877 418.752 169.233 418.904C169.593 419.056 169.861 419.28 170.037 419.576C170.217 419.872 170.307 420.236 170.307 420.668V425H169.359L169.275 423.836C169.039 424.32 168.735 424.656 168.363 424.844C167.995 425.028 167.589 425.12 167.145 425.12ZM167.475 424.322C167.687 424.322 167.895 424.284 168.099 424.208C168.307 424.132 168.495 424.03 168.663 423.902C168.835 423.77 168.973 423.624 169.077 423.464C169.181 423.3 169.233 423.132 169.233 422.96V421.898L168.315 421.916C167.839 421.924 167.443 421.972 167.127 422.06C166.811 422.148 166.573 422.286 166.413 422.474C166.253 422.662 166.173 422.908 166.173 423.212C166.173 423.56 166.295 423.832 166.539 424.028C166.783 424.224 167.095 424.322 167.475 424.322ZM173.934 425.03C173.506 425.03 173.174 424.972 172.938 424.856C172.702 424.74 172.536 424.568 172.44 424.34C172.348 424.112 172.302 423.832 172.302 423.5V419.606H171.294V418.796H172.332L172.602 416.99H173.418V418.79H174.816V419.606H173.418V423.464C173.418 423.684 173.44 423.846 173.484 423.95C173.532 424.05 173.61 424.114 173.718 424.142C173.826 424.17 173.978 424.184 174.174 424.184H174.852V424.928C174.776 424.956 174.66 424.98 174.504 425C174.352 425.02 174.162 425.03 173.934 425.03ZM178.662 425.12C178.086 425.12 177.578 424.994 177.138 424.742C176.698 424.49 176.354 424.128 176.106 423.656C175.858 423.184 175.734 422.618 175.734 421.958C175.734 421.306 175.846 420.734 176.07 420.242C176.294 419.75 176.618 419.366 177.042 419.09C177.47 418.814 177.984 418.676 178.584 418.676C179.168 418.676 179.662 418.802 180.066 419.054C180.47 419.306 180.776 419.662 180.984 420.122C181.196 420.578 181.302 421.12 181.302 421.748V422.156H176.856C176.856 422.548 176.92 422.904 177.048 423.224C177.18 423.54 177.378 423.792 177.642 423.98C177.906 424.168 178.24 424.262 178.644 424.262C179.04 424.262 179.38 424.17 179.664 423.986C179.952 423.802 180.136 423.536 180.216 423.188H181.26C181.188 423.608 181.02 423.962 180.756 424.25C180.496 424.538 180.182 424.756 179.814 424.904C179.45 425.048 179.066 425.12 178.662 425.12ZM176.862 421.406H180.234C180.234 421.05 180.174 420.73 180.054 420.446C179.934 420.158 179.75 419.932 179.502 419.768C179.258 419.6 178.95 419.516 178.578 419.516C178.19 419.516 177.868 419.61 177.612 419.798C177.356 419.982 177.166 420.22 177.042 420.512C176.918 420.8 176.858 421.098 176.862 421.406ZM184.902 425.12C184.47 425.12 184.068 425.054 183.696 424.922C183.328 424.786 183.022 424.576 182.778 424.292C182.534 424.004 182.382 423.638 182.322 423.194H183.33C183.382 423.438 183.482 423.642 183.63 423.806C183.778 423.966 183.96 424.088 184.176 424.172C184.396 424.252 184.636 424.292 184.896 424.292C185.316 424.292 185.654 424.214 185.91 424.058C186.166 423.902 186.294 423.662 186.294 423.338C186.294 423.11 186.226 422.928 186.09 422.792C185.958 422.652 185.75 422.55 185.466 422.486L184.182 422.168C183.682 422.048 183.282 421.86 182.982 421.604C182.686 421.348 182.536 420.99 182.532 420.53C182.532 420.166 182.62 419.846 182.796 419.57C182.972 419.294 183.234 419.076 183.582 418.916C183.934 418.756 184.372 418.676 184.896 418.676C185.572 418.676 186.116 418.828 186.528 419.132C186.94 419.432 187.156 419.874 187.176 420.458H186.192C186.152 420.162 186.02 419.928 185.796 419.756C185.572 419.58 185.268 419.492 184.884 419.492C184.492 419.492 184.17 419.572 183.918 419.732C183.67 419.888 183.546 420.132 183.546 420.464C183.546 420.684 183.634 420.858 183.81 420.986C183.99 421.11 184.25 421.214 184.59 421.298L185.838 421.61C186.122 421.686 186.358 421.786 186.546 421.91C186.734 422.034 186.882 422.172 186.99 422.324C187.098 422.476 187.174 422.636 187.218 422.804C187.266 422.968 187.29 423.126 187.29 423.278C187.29 423.658 187.196 423.986 187.008 424.262C186.82 424.534 186.548 424.746 186.192 424.898C185.836 425.046 185.406 425.12 184.902 425.12ZM194.437 425.12C194.073 425.12 193.765 425.072 193.513 424.976C193.265 424.88 193.061 424.758 192.901 424.61C192.741 424.458 192.617 424.304 192.529 424.148C192.441 423.988 192.377 423.848 192.337 423.728L192.217 425H191.371V416.084H192.487V419.78C192.539 419.676 192.617 419.562 192.721 419.438C192.829 419.314 192.967 419.194 193.135 419.078C193.303 418.962 193.501 418.866 193.729 418.79C193.961 418.714 194.225 418.676 194.521 418.676C195.297 418.676 195.913 418.946 196.369 419.486C196.829 420.026 197.059 420.822 197.059 421.874C197.059 422.526 196.961 423.096 196.765 423.584C196.569 424.068 196.277 424.446 195.889 424.718C195.501 424.986 195.017 425.12 194.437 425.12ZM194.239 424.268C194.743 424.268 195.153 424.074 195.469 423.686C195.785 423.294 195.943 422.672 195.943 421.82C195.943 421.096 195.795 420.536 195.499 420.14C195.207 419.74 194.779 419.54 194.215 419.54C193.803 419.54 193.471 419.63 193.219 419.81C192.971 419.986 192.787 420.244 192.667 420.584C192.551 420.924 192.491 421.336 192.487 421.82C192.487 422.688 192.621 423.314 192.889 423.698C193.161 424.078 193.611 424.268 194.239 424.268ZM200.069 425.12C199.665 425.12 199.309 425.05 199.001 424.91C198.697 424.766 198.457 424.56 198.281 424.292C198.109 424.024 198.023 423.7 198.023 423.32C198.023 422.632 198.263 422.12 198.743 421.784C199.223 421.448 199.993 421.268 201.053 421.244L202.157 421.214V420.728C202.157 420.348 202.043 420.048 201.815 419.828C201.587 419.604 201.235 419.492 200.759 419.492C200.403 419.496 200.089 419.58 199.817 419.744C199.545 419.908 199.371 420.176 199.295 420.548H198.317C198.341 420.144 198.453 419.804 198.653 419.528C198.857 419.248 199.143 419.036 199.511 418.892C199.879 418.748 200.313 418.676 200.813 418.676C201.353 418.676 201.801 418.752 202.157 418.904C202.517 419.056 202.785 419.28 202.961 419.576C203.141 419.872 203.231 420.236 203.231 420.668V425H202.283L202.199 423.836C201.963 424.32 201.659 424.656 201.287 424.844C200.919 425.028 200.513 425.12 200.069 425.12ZM200.399 424.322C200.611 424.322 200.819 424.284 201.023 424.208C201.231 424.132 201.419 424.03 201.587 423.902C201.759 423.77 201.897 423.624 202.001 423.464C202.105 423.3 202.157 423.132 202.157 422.96V421.898L201.239 421.916C200.763 421.924 200.367 421.972 200.051 422.06C199.735 422.148 199.497 422.286 199.337 422.474C199.177 422.662 199.097 422.908 199.097 423.212C199.097 423.56 199.219 423.832 199.463 424.028C199.707 424.224 200.019 424.322 200.399 424.322ZM207.015 425.12C206.583 425.12 206.181 425.054 205.809 424.922C205.441 424.786 205.135 424.576 204.891 424.292C204.647 424.004 204.495 423.638 204.435 423.194H205.443C205.495 423.438 205.595 423.642 205.743 423.806C205.891 423.966 206.073 424.088 206.289 424.172C206.509 424.252 206.749 424.292 207.009 424.292C207.429 424.292 207.767 424.214 208.023 424.058C208.279 423.902 208.407 423.662 208.407 423.338C208.407 423.11 208.339 422.928 208.203 422.792C208.071 422.652 207.863 422.55 207.579 422.486L206.295 422.168C205.795 422.048 205.395 421.86 205.095 421.604C204.799 421.348 204.649 420.99 204.645 420.53C204.645 420.166 204.733 419.846 204.909 419.57C205.085 419.294 205.347 419.076 205.695 418.916C206.047 418.756 206.485 418.676 207.009 418.676C207.685 418.676 208.229 418.828 208.641 419.132C209.053 419.432 209.269 419.874 209.289 420.458H208.305C208.265 420.162 208.133 419.928 207.909 419.756C207.685 419.58 207.381 419.492 206.997 419.492C206.605 419.492 206.283 419.572 206.031 419.732C205.783 419.888 205.659 420.132 205.659 420.464C205.659 420.684 205.747 420.858 205.923 420.986C206.103 421.11 206.363 421.214 206.703 421.298L207.951 421.61C208.235 421.686 208.471 421.786 208.659 421.91C208.847 422.034 208.995 422.172 209.103 422.324C209.211 422.476 209.287 422.636 209.331 422.804C209.379 422.968 209.403 423.126 209.403 423.278C209.403 423.658 209.309 423.986 209.121 424.262C208.933 424.534 208.661 424.746 208.305 424.898C207.949 425.046 207.519 425.12 207.015 425.12ZM213.356 425.12C212.78 425.12 212.272 424.994 211.832 424.742C211.392 424.49 211.048 424.128 210.8 423.656C210.552 423.184 210.428 422.618 210.428 421.958C210.428 421.306 210.54 420.734 210.764 420.242C210.988 419.75 211.312 419.366 211.736 419.09C212.164 418.814 212.678 418.676 213.278 418.676C213.862 418.676 214.356 418.802 214.76 419.054C215.164 419.306 215.47 419.662 215.678 420.122C215.89 420.578 215.996 421.12 215.996 421.748V422.156H211.55C211.55 422.548 211.614 422.904 211.742 423.224C211.874 423.54 212.072 423.792 212.336 423.98C212.6 424.168 212.934 424.262 213.338 424.262C213.734 424.262 214.074 424.17 214.358 423.986C214.646 423.802 214.83 423.536 214.91 423.188H215.954C215.882 423.608 215.714 423.962 215.45 424.25C215.19 424.538 214.876 424.756 214.508 424.904C214.144 425.048 213.76 425.12 213.356 425.12ZM211.556 421.406H214.928C214.928 421.05 214.868 420.73 214.748 420.446C214.628 420.158 214.444 419.932 214.196 419.768C213.952 419.6 213.644 419.516 213.272 419.516C212.884 419.516 212.562 419.61 212.306 419.798C212.05 419.982 211.86 420.22 211.736 420.512C211.612 420.8 211.552 421.098 211.556 421.406ZM219.673 425.12C218.865 425.12 218.225 424.844 217.753 424.292C217.285 423.74 217.051 422.934 217.051 421.874C217.051 421.23 217.145 420.668 217.333 420.188C217.521 419.708 217.803 419.336 218.179 419.072C218.555 418.808 219.023 418.676 219.583 418.676C219.883 418.676 220.147 418.714 220.375 418.79C220.603 418.866 220.801 418.962 220.969 419.078C221.137 419.194 221.273 419.314 221.377 419.438C221.485 419.562 221.565 419.676 221.617 419.78V416.084H222.739V425H221.887L221.767 423.728C221.727 423.848 221.663 423.988 221.575 424.148C221.487 424.304 221.363 424.458 221.203 424.61C221.047 424.758 220.843 424.88 220.591 424.976C220.339 425.072 220.033 425.12 219.673 425.12ZM219.871 424.268C220.495 424.268 220.941 424.078 221.209 423.698C221.481 423.314 221.617 422.688 221.617 421.82C221.613 421.336 221.553 420.924 221.437 420.584C221.321 420.244 221.137 419.986 220.885 419.81C220.637 419.63 220.305 419.54 219.889 419.54C219.381 419.54 218.967 419.722 218.647 420.086C218.327 420.45 218.167 421.028 218.167 421.82C218.167 422.596 218.311 423.198 218.599 423.626C218.887 424.054 219.311 424.268 219.871 424.268ZM229.58 425.12C229.008 425.12 228.508 424.998 228.08 424.754C227.656 424.506 227.326 424.144 227.09 423.668C226.854 423.192 226.736 422.61 226.736 421.922C226.736 421.274 226.846 420.706 227.066 420.218C227.286 419.73 227.608 419.352 228.032 419.084C228.456 418.812 228.974 418.676 229.586 418.676C230.158 418.676 230.654 418.802 231.074 419.054C231.494 419.302 231.82 419.668 232.052 420.152C232.288 420.636 232.406 421.226 232.406 421.922C232.406 422.554 232.298 423.11 232.082 423.59C231.866 424.07 231.548 424.446 231.128 424.718C230.712 424.986 230.196 425.12 229.58 425.12ZM229.586 424.244C229.954 424.244 230.266 424.15 230.522 423.962C230.778 423.774 230.972 423.504 231.104 423.152C231.24 422.8 231.308 422.382 231.308 421.898C231.308 421.454 231.248 421.056 231.128 420.704C231.012 420.348 230.828 420.066 230.576 419.858C230.324 419.65 229.994 419.546 229.586 419.546C229.21 419.546 228.892 419.64 228.632 419.828C228.372 420.012 228.174 420.28 228.038 420.632C227.906 420.984 227.84 421.406 227.84 421.898C227.84 422.334 227.898 422.73 228.014 423.086C228.134 423.442 228.322 423.724 228.578 423.932C228.838 424.14 229.174 424.244 229.586 424.244ZM233.761 425V418.796H234.835V419.696C234.935 419.524 235.073 419.362 235.249 419.21C235.429 419.058 235.645 418.936 235.897 418.844C236.153 418.752 236.447 418.706 236.779 418.706C237.171 418.706 237.531 418.784 237.859 418.94C238.191 419.096 238.455 419.34 238.651 419.672C238.851 420 238.951 420.424 238.951 420.944V425H237.841V421.052C237.841 420.568 237.713 420.21 237.457 419.978C237.205 419.742 236.877 419.624 236.473 419.624C236.193 419.624 235.931 419.67 235.687 419.762C235.443 419.85 235.245 419.986 235.093 420.17C234.941 420.35 234.865 420.578 234.865 420.854V425H233.761ZM243.365 426.932V418.796H244.469L244.481 419.876C244.553 419.748 244.645 419.614 244.757 419.474C244.873 419.334 245.013 419.204 245.177 419.084C245.345 418.964 245.539 418.866 245.759 418.79C245.983 418.714 246.237 418.676 246.521 418.676C247.017 418.676 247.453 418.79 247.829 419.018C248.209 419.242 248.505 419.586 248.717 420.05C248.929 420.514 249.035 421.102 249.035 421.814C249.035 422.526 248.931 423.128 248.723 423.62C248.519 424.108 248.223 424.48 247.835 424.736C247.447 424.992 246.979 425.12 246.431 425.12C246.155 425.12 245.909 425.08 245.693 425C245.481 424.924 245.295 424.824 245.135 424.7C244.979 424.572 244.847 424.436 244.739 424.292C244.635 424.148 244.549 424.01 244.481 423.878V426.932H243.365ZM246.221 424.256C246.733 424.256 247.151 424.062 247.475 423.674C247.799 423.282 247.961 422.674 247.961 421.85C247.961 421.142 247.813 420.58 247.517 420.164C247.221 419.748 246.789 419.54 246.221 419.54C245.645 419.54 245.209 419.754 244.913 420.182C244.617 420.606 244.469 421.162 244.469 421.85C244.469 422.294 244.535 422.698 244.667 423.062C244.799 423.426 244.995 423.716 245.255 423.932C245.515 424.148 245.837 424.256 246.221 424.256ZM253.016 425.12C252.44 425.12 251.932 424.994 251.492 424.742C251.052 424.49 250.708 424.128 250.46 423.656C250.212 423.184 250.088 422.618 250.088 421.958C250.088 421.306 250.2 420.734 250.424 420.242C250.648 419.75 250.972 419.366 251.396 419.09C251.824 418.814 252.338 418.676 252.938 418.676C253.522 418.676 254.016 418.802 254.42 419.054C254.824 419.306 255.13 419.662 255.338 420.122C255.55 420.578 255.656 421.12 255.656 421.748V422.156H251.21C251.21 422.548 251.274 422.904 251.402 423.224C251.534 423.54 251.732 423.792 251.996 423.98C252.26 424.168 252.594 424.262 252.998 424.262C253.394 424.262 253.734 424.17 254.018 423.986C254.306 423.802 254.49 423.536 254.57 423.188H255.614C255.542 423.608 255.374 423.962 255.11 424.25C254.85 424.538 254.536 424.756 254.168 424.904C253.804 425.048 253.42 425.12 253.016 425.12ZM251.216 421.406H254.588C254.588 421.05 254.528 420.73 254.408 420.446C254.288 420.158 254.104 419.932 253.856 419.768C253.612 419.6 253.304 419.516 252.932 419.516C252.544 419.516 252.222 419.61 251.966 419.798C251.71 419.982 251.52 420.22 251.396 420.512C251.272 420.8 251.212 421.098 251.216 421.406ZM257.07 425V418.796H258.126V419.99C258.23 419.694 258.376 419.45 258.564 419.258C258.752 419.062 258.966 418.916 259.206 418.82C259.45 418.724 259.702 418.676 259.962 418.676C260.054 418.676 260.144 418.682 260.232 418.694C260.32 418.706 260.388 418.726 260.436 418.754V419.828C260.376 419.8 260.298 419.782 260.202 419.774C260.11 419.762 260.032 419.756 259.968 419.756C259.72 419.74 259.488 419.756 259.272 419.804C259.056 419.848 258.866 419.926 258.702 420.038C258.538 420.15 258.408 420.298 258.312 420.482C258.22 420.662 258.174 420.882 258.174 421.142V425H257.07ZM262.571 425V419.606H261.257V418.796H262.571V417.836C262.571 417.344 262.695 416.97 262.943 416.714C263.195 416.454 263.571 416.324 264.071 416.324H265.241L265.247 417.11H264.323C264.067 417.11 263.893 417.178 263.801 417.314C263.709 417.45 263.663 417.656 263.663 417.932V418.796H265.187V419.606H263.681V425H262.571ZM268.772 425.12C268.2 425.12 267.7 424.998 267.272 424.754C266.848 424.506 266.518 424.144 266.282 423.668C266.046 423.192 265.928 422.61 265.928 421.922C265.928 421.274 266.038 420.706 266.258 420.218C266.478 419.73 266.8 419.352 267.224 419.084C267.648 418.812 268.166 418.676 268.778 418.676C269.35 418.676 269.846 418.802 270.266 419.054C270.686 419.302 271.012 419.668 271.244 420.152C271.48 420.636 271.598 421.226 271.598 421.922C271.598 422.554 271.49 423.11 271.274 423.59C271.058 424.07 270.74 424.446 270.32 424.718C269.904 424.986 269.388 425.12 268.772 425.12ZM268.778 424.244C269.146 424.244 269.458 424.15 269.714 423.962C269.97 423.774 270.164 423.504 270.296 423.152C270.432 422.8 270.5 422.382 270.5 421.898C270.5 421.454 270.44 421.056 270.32 420.704C270.204 420.348 270.02 420.066 269.768 419.858C269.516 419.65 269.186 419.546 268.778 419.546C268.402 419.546 268.084 419.64 267.824 419.828C267.564 420.012 267.366 420.28 267.23 420.632C267.098 420.984 267.032 421.406 267.032 421.898C267.032 422.334 267.09 422.73 267.206 423.086C267.326 423.442 267.514 423.724 267.77 423.932C268.03 424.14 268.366 424.244 268.778 424.244ZM272.953 425V418.796H274.009V419.99C274.113 419.694 274.259 419.45 274.447 419.258C274.635 419.062 274.849 418.916 275.089 418.82C275.333 418.724 275.585 418.676 275.845 418.676C275.937 418.676 276.027 418.682 276.115 418.694C276.203 418.706 276.271 418.726 276.319 418.754V419.828C276.259 419.8 276.181 419.782 276.085 419.774C275.993 419.762 275.915 419.756 275.851 419.756C275.603 419.74 275.371 419.756 275.155 419.804C274.939 419.848 274.749 419.926 274.585 420.038C274.421 420.15 274.291 420.298 274.195 420.482C274.103 420.662 274.057 420.882 274.057 421.142V425H272.953ZM277.52 425V418.796H278.588V419.696C278.76 419.424 278.996 419.186 279.296 418.982C279.596 418.778 279.986 418.676 280.466 418.676C280.69 418.676 280.918 418.714 281.15 418.79C281.386 418.866 281.602 418.98 281.798 419.132C281.994 419.284 282.146 419.47 282.254 419.69C282.446 419.386 282.706 419.142 283.034 418.958C283.362 418.77 283.732 418.676 284.144 418.676C284.36 418.676 284.586 418.71 284.822 418.778C285.058 418.842 285.276 418.958 285.476 419.126C285.68 419.29 285.846 419.52 285.974 419.816C286.102 420.108 286.166 420.484 286.166 420.944V425H285.05V421.052C285.05 420.676 284.99 420.386 284.87 420.182C284.75 419.974 284.592 419.828 284.396 419.744C284.204 419.66 283.998 419.618 283.778 419.618C283.586 419.618 283.382 419.656 283.166 419.732C282.95 419.808 282.766 419.936 282.614 420.116C282.462 420.296 282.386 420.542 282.386 420.854V425H281.282V420.728C281.282 420.484 281.216 420.28 281.084 420.116C280.956 419.952 280.794 419.828 280.598 419.744C280.406 419.66 280.214 419.618 280.022 419.618C279.81 419.618 279.596 419.66 279.38 419.744C279.168 419.828 278.988 419.962 278.84 420.146C278.696 420.326 278.624 420.562 278.624 420.854V425H277.52ZM289.5 425.12C289.096 425.12 288.74 425.05 288.432 424.91C288.128 424.766 287.888 424.56 287.712 424.292C287.54 424.024 287.454 423.7 287.454 423.32C287.454 422.632 287.694 422.12 288.174 421.784C288.654 421.448 289.424 421.268 290.484 421.244L291.588 421.214V420.728C291.588 420.348 291.474 420.048 291.246 419.828C291.018 419.604 290.666 419.492 290.19 419.492C289.834 419.496 289.52 419.58 289.248 419.744C288.976 419.908 288.802 420.176 288.726 420.548H287.748C287.772 420.144 287.884 419.804 288.084 419.528C288.288 419.248 288.574 419.036 288.942 418.892C289.31 418.748 289.744 418.676 290.244 418.676C290.784 418.676 291.232 418.752 291.588 418.904C291.948 419.056 292.216 419.28 292.392 419.576C292.572 419.872 292.662 420.236 292.662 420.668V425H291.714L291.63 423.836C291.394 424.32 291.09 424.656 290.718 424.844C290.35 425.028 289.944 425.12 289.5 425.12ZM289.83 424.322C290.042 424.322 290.25 424.284 290.454 424.208C290.662 424.132 290.85 424.03 291.018 423.902C291.19 423.77 291.328 423.624 291.432 423.464C291.536 423.3 291.588 423.132 291.588 422.96V421.898L290.67 421.916C290.194 421.924 289.798 421.972 289.482 422.06C289.166 422.148 288.928 422.286 288.768 422.474C288.608 422.662 288.528 422.908 288.528 423.212C288.528 423.56 288.65 423.832 288.894 424.028C289.138 424.224 289.45 424.322 289.83 424.322ZM294.272 425V418.796H295.346V419.696C295.446 419.524 295.584 419.362 295.76 419.21C295.94 419.058 296.156 418.936 296.408 418.844C296.664 418.752 296.958 418.706 297.29 418.706C297.682 418.706 298.042 418.784 298.37 418.94C298.702 419.096 298.966 419.34 299.162 419.672C299.362 420 299.462 420.424 299.462 420.944V425H298.352V421.052C298.352 420.568 298.224 420.21 297.968 419.978C297.716 419.742 297.388 419.624 296.984 419.624C296.704 419.624 296.442 419.67 296.198 419.762C295.954 419.85 295.756 419.986 295.604 420.17C295.452 420.35 295.376 420.578 295.376 420.854V425H294.272ZM303.574 425.12C303.014 425.12 302.518 424.998 302.086 424.754C301.658 424.51 301.322 424.15 301.078 423.674C300.838 423.198 300.718 422.614 300.718 421.922C300.718 421.274 300.828 420.708 301.048 420.224C301.272 419.736 301.596 419.356 302.02 419.084C302.448 418.812 302.966 418.676 303.574 418.676C304.018 418.676 304.416 418.762 304.768 418.934C305.124 419.102 305.416 419.342 305.644 419.654C305.872 419.966 306.012 420.334 306.064 420.758H305.08C305.044 420.542 304.96 420.344 304.828 420.164C304.7 419.984 304.53 419.84 304.318 419.732C304.11 419.624 303.864 419.57 303.58 419.57C303.048 419.57 302.614 419.762 302.278 420.146C301.946 420.53 301.78 421.118 301.78 421.91C301.78 422.626 301.932 423.2 302.236 423.632C302.544 424.06 302.996 424.274 303.592 424.274C303.876 424.274 304.124 424.22 304.336 424.112C304.548 424 304.718 423.854 304.846 423.674C304.974 423.49 305.056 423.294 305.092 423.086H306.058C306.006 423.502 305.864 423.862 305.632 424.166C305.404 424.47 305.112 424.706 304.756 424.874C304.404 425.038 304.01 425.12 303.574 425.12ZM310.061 425.12C309.485 425.12 308.977 424.994 308.537 424.742C308.097 424.49 307.753 424.128 307.505 423.656C307.257 423.184 307.133 422.618 307.133 421.958C307.133 421.306 307.245 420.734 307.469 420.242C307.693 419.75 308.017 419.366 308.441 419.09C308.869 418.814 309.383 418.676 309.983 418.676C310.567 418.676 311.061 418.802 311.465 419.054C311.869 419.306 312.175 419.662 312.383 420.122C312.595 420.578 312.701 421.12 312.701 421.748V422.156H308.255C308.255 422.548 308.319 422.904 308.447 423.224C308.579 423.54 308.777 423.792 309.041 423.98C309.305 424.168 309.639 424.262 310.043 424.262C310.439 424.262 310.779 424.17 311.063 423.986C311.351 423.802 311.535 423.536 311.615 423.188H312.659C312.587 423.608 312.419 423.962 312.155 424.25C311.895 424.538 311.581 424.756 311.213 424.904C310.849 425.048 310.465 425.12 310.061 425.12ZM308.261 421.406H311.633C311.633 421.05 311.573 420.73 311.453 420.446C311.333 420.158 311.149 419.932 310.901 419.768C310.657 419.6 310.349 419.516 309.977 419.516C309.589 419.516 309.267 419.61 309.011 419.798C308.755 419.982 308.565 420.22 308.441 420.512C308.317 420.8 308.257 421.098 308.261 421.406ZM318.941 425.12C318.133 425.12 317.493 424.844 317.021 424.292C316.553 423.74 316.319 422.934 316.319 421.874C316.319 421.23 316.413 420.668 316.601 420.188C316.789 419.708 317.071 419.336 317.447 419.072C317.823 418.808 318.291 418.676 318.851 418.676C319.151 418.676 319.415 418.714 319.643 418.79C319.871 418.866 320.069 418.962 320.237 419.078C320.405 419.194 320.541 419.314 320.645 419.438C320.753 419.562 320.833 419.676 320.885 419.78V416.084H322.007V425H321.155L321.035 423.728C320.995 423.848 320.931 423.988 320.843 424.148C320.755 424.304 320.631 424.458 320.471 424.61C320.315 424.758 320.111 424.88 319.859 424.976C319.607 425.072 319.301 425.12 318.941 425.12ZM319.139 424.268C319.763 424.268 320.209 424.078 320.477 423.698C320.749 423.314 320.885 422.688 320.885 421.82C320.881 421.336 320.821 420.924 320.705 420.584C320.589 420.244 320.405 419.986 320.153 419.81C319.905 419.63 319.573 419.54 319.157 419.54C318.649 419.54 318.235 419.722 317.915 420.086C317.595 420.45 317.435 421.028 317.435 421.82C317.435 422.596 317.579 423.198 317.867 423.626C318.155 424.054 318.579 424.268 319.139 424.268ZM325.999 425.12C325.675 425.116 325.369 425.07 325.081 424.982C324.797 424.89 324.545 424.756 324.325 424.58C324.105 424.404 323.931 424.186 323.803 423.926C323.679 423.662 323.617 423.356 323.617 423.008V418.796H324.727V422.894C324.727 423.298 324.851 423.626 325.099 423.878C325.351 424.13 325.729 424.256 326.233 424.256C326.689 424.256 327.055 424.138 327.331 423.902C327.611 423.662 327.751 423.306 327.751 422.834V418.796H328.855V425H327.973L327.859 423.812C327.783 424.124 327.653 424.376 327.469 424.568C327.289 424.76 327.071 424.902 326.815 424.994C326.563 425.082 326.291 425.124 325.999 425.12ZM330.642 425V418.796H331.698V419.99C331.802 419.694 331.948 419.45 332.136 419.258C332.324 419.062 332.538 418.916 332.778 418.82C333.022 418.724 333.274 418.676 333.534 418.676C333.626 418.676 333.716 418.682 333.804 418.694C333.892 418.706 333.96 418.726 334.008 418.754V419.828C333.948 419.8 333.87 419.782 333.774 419.774C333.682 419.762 333.604 419.756 333.54 419.756C333.292 419.74 333.06 419.756 332.844 419.804C332.628 419.848 332.438 419.926 332.274 420.038C332.11 420.15 331.98 420.298 331.884 420.482C331.792 420.662 331.746 420.882 331.746 421.142V425H330.642ZM335.24 425V418.796H336.314V425H335.24ZM335.21 417.482V416.33H336.344V417.482H335.21ZM338.137 425V418.796H339.211V419.696C339.311 419.524 339.449 419.362 339.625 419.21C339.805 419.058 340.021 418.936 340.273 418.844C340.529 418.752 340.823 418.706 341.155 418.706C341.547 418.706 341.907 418.784 342.235 418.94C342.567 419.096 342.831 419.34 343.027 419.672C343.227 420 343.327 420.424 343.327 420.944V425H342.217V421.052C342.217 420.568 342.089 420.21 341.833 419.978C341.581 419.742 341.253 419.624 340.849 419.624C340.569 419.624 340.307 419.67 340.063 419.762C339.819 419.85 339.621 419.986 339.469 420.17C339.317 420.35 339.241 420.578 339.241 420.854V425H338.137ZM347.564 427.052C346.592 427.052 345.834 426.91 345.29 426.626C344.746 426.346 344.474 425.944 344.474 425.42C344.474 425.196 344.526 425.006 344.63 424.85C344.734 424.69 344.858 424.558 345.002 424.454C345.146 424.35 345.28 424.268 345.404 424.208C345.528 424.144 345.61 424.098 345.65 424.07C345.578 424.03 345.492 423.98 345.392 423.92C345.292 423.86 345.202 423.78 345.122 423.68C345.046 423.58 345.008 423.45 345.008 423.29C345.008 423.094 345.1 422.914 345.284 422.75C345.468 422.586 345.742 422.464 346.106 422.384C345.742 422.2 345.458 421.956 345.254 421.652C345.05 421.348 344.948 421.018 344.948 420.662C344.948 420.262 345.056 419.914 345.272 419.618C345.488 419.322 345.798 419.096 346.202 418.94C346.606 418.78 347.088 418.7 347.648 418.7C348.052 418.7 348.39 418.748 348.662 418.844C348.938 418.936 349.194 419.068 349.43 419.24C349.494 419.212 349.596 419.17 349.736 419.114C349.876 419.054 350.028 418.99 350.192 418.922C350.36 418.854 350.516 418.79 350.66 418.73C350.808 418.666 350.926 418.618 351.014 418.586L351.008 419.612L349.922 419.816C349.986 419.944 350.036 420.084 350.072 420.236C350.108 420.388 350.126 420.53 350.126 420.662C350.126 421.026 350.03 421.356 349.838 421.652C349.65 421.948 349.364 422.184 348.98 422.36C348.596 422.536 348.116 422.624 347.54 422.624C347.492 422.624 347.43 422.624 347.354 422.624C347.282 422.62 347.22 422.616 347.168 422.612C346.744 422.624 346.452 422.672 346.292 422.756C346.136 422.836 346.058 422.926 346.058 423.026C346.058 423.142 346.148 423.222 346.328 423.266C346.508 423.31 346.812 423.348 347.24 423.38C347.396 423.388 347.588 423.398 347.816 423.41C348.048 423.422 348.306 423.438 348.59 423.458C349.238 423.498 349.738 423.664 350.09 423.956C350.442 424.248 350.618 424.642 350.618 425.138C350.618 425.702 350.366 426.162 349.862 426.518C349.362 426.874 348.596 427.052 347.564 427.052ZM347.762 426.338C348.334 426.338 348.772 426.252 349.076 426.08C349.384 425.908 349.538 425.648 349.538 425.3C349.538 425.052 349.444 424.85 349.256 424.694C349.068 424.534 348.784 424.442 348.404 424.418L346.664 424.304C346.508 424.296 346.346 424.336 346.178 424.424C346.01 424.508 345.868 424.626 345.752 424.778C345.636 424.93 345.578 425.102 345.578 425.294C345.578 425.622 345.756 425.878 346.112 426.062C346.468 426.246 347.018 426.338 347.762 426.338ZM347.576 421.91C348.02 421.91 348.378 421.806 348.65 421.598C348.926 421.39 349.064 421.082 349.064 420.674C349.064 420.254 348.926 419.934 348.65 419.714C348.378 419.494 348.02 419.384 347.576 419.384C347.12 419.384 346.752 419.496 346.472 419.72C346.196 419.94 346.058 420.258 346.058 420.674C346.058 421.066 346.19 421.37 346.454 421.586C346.722 421.802 347.096 421.91 347.576 421.91ZM355.085 426.932V418.796H356.189L356.201 419.876C356.273 419.748 356.365 419.614 356.477 419.474C356.593 419.334 356.733 419.204 356.897 419.084C357.065 418.964 357.259 418.866 357.479 418.79C357.703 418.714 357.957 418.676 358.241 418.676C358.737 418.676 359.173 418.79 359.549 419.018C359.929 419.242 360.225 419.586 360.437 420.05C360.649 420.514 360.755 421.102 360.755 421.814C360.755 422.526 360.651 423.128 360.443 423.62C360.239 424.108 359.943 424.48 359.555 424.736C359.167 424.992 358.699 425.12 358.151 425.12C357.875 425.12 357.629 425.08 357.413 425C357.201 424.924 357.015 424.824 356.855 424.7C356.699 424.572 356.567 424.436 356.459 424.292C356.355 424.148 356.269 424.01 356.201 423.878V426.932H355.085ZM357.941 424.256C358.453 424.256 358.871 424.062 359.195 423.674C359.519 423.282 359.681 422.674 359.681 421.85C359.681 421.142 359.533 420.58 359.237 420.164C358.941 419.748 358.509 419.54 357.941 419.54C357.365 419.54 356.929 419.754 356.633 420.182C356.337 420.606 356.189 421.162 356.189 421.85C356.189 422.294 356.255 422.698 356.387 423.062C356.519 423.426 356.715 423.716 356.975 423.932C357.235 424.148 357.557 424.256 357.941 424.256ZM364.736 425.12C364.16 425.12 363.652 424.994 363.212 424.742C362.772 424.49 362.428 424.128 362.18 423.656C361.932 423.184 361.808 422.618 361.808 421.958C361.808 421.306 361.92 420.734 362.144 420.242C362.368 419.75 362.692 419.366 363.116 419.09C363.544 418.814 364.058 418.676 364.658 418.676C365.242 418.676 365.736 418.802 366.14 419.054C366.544 419.306 366.85 419.662 367.058 420.122C367.27 420.578 367.376 421.12 367.376 421.748V422.156H362.93C362.93 422.548 362.994 422.904 363.122 423.224C363.254 423.54 363.452 423.792 363.716 423.98C363.98 424.168 364.314 424.262 364.718 424.262C365.114 424.262 365.454 424.17 365.738 423.986C366.026 423.802 366.21 423.536 366.29 423.188H367.334C367.262 423.608 367.094 423.962 366.83 424.25C366.57 424.538 366.256 424.756 365.888 424.904C365.524 425.048 365.14 425.12 364.736 425.12ZM362.936 421.406H366.308C366.308 421.05 366.248 420.73 366.128 420.446C366.008 420.158 365.824 419.932 365.576 419.768C365.332 419.6 365.024 419.516 364.652 419.516C364.264 419.516 363.942 419.61 363.686 419.798C363.43 419.982 363.24 420.22 363.116 420.512C362.992 420.8 362.932 421.098 362.936 421.406ZM370.448 425.12C370.044 425.12 369.688 425.05 369.38 424.91C369.076 424.766 368.836 424.56 368.66 424.292C368.488 424.024 368.402 423.7 368.402 423.32C368.402 422.632 368.642 422.12 369.122 421.784C369.602 421.448 370.372 421.268 371.432 421.244L372.536 421.214V420.728C372.536 420.348 372.422 420.048 372.194 419.828C371.966 419.604 371.614 419.492 371.138 419.492C370.782 419.496 370.468 419.58 370.196 419.744C369.924 419.908 369.75 420.176 369.674 420.548H368.696C368.72 420.144 368.832 419.804 369.032 419.528C369.236 419.248 369.522 419.036 369.89 418.892C370.258 418.748 370.692 418.676 371.192 418.676C371.732 418.676 372.18 418.752 372.536 418.904C372.896 419.056 373.164 419.28 373.34 419.576C373.52 419.872 373.61 420.236 373.61 420.668V425H372.662L372.578 423.836C372.342 424.32 372.038 424.656 371.666 424.844C371.298 425.028 370.892 425.12 370.448 425.12ZM370.778 424.322C370.99 424.322 371.198 424.284 371.402 424.208C371.61 424.132 371.798 424.03 371.966 423.902C372.138 423.77 372.276 423.624 372.38 423.464C372.484 423.3 372.536 423.132 372.536 422.96V421.898L371.618 421.916C371.142 421.924 370.746 421.972 370.43 422.06C370.114 422.148 369.876 422.286 369.716 422.474C369.556 422.662 369.476 422.908 369.476 423.212C369.476 423.56 369.598 423.832 369.842 424.028C370.086 424.224 370.398 424.322 370.778 424.322ZM375.221 425V416.084H376.325V421.898L379.241 418.796H380.513L378.275 421.16L380.669 425H379.493L377.549 421.886L376.325 423.152V425H375.221ZM384.638 425V418.796H385.712V419.696C385.812 419.524 385.95 419.362 386.126 419.21C386.306 419.058 386.522 418.936 386.774 418.844C387.03 418.752 387.324 418.706 387.656 418.706C388.048 418.706 388.408 418.784 388.736 418.94C389.068 419.096 389.332 419.34 389.528 419.672C389.728 420 389.828 420.424 389.828 420.944V425H388.718V421.052C388.718 420.568 388.59 420.21 388.334 419.978C388.082 419.742 387.754 419.624 387.35 419.624C387.07 419.624 386.808 419.67 386.564 419.762C386.32 419.85 386.122 419.986 385.97 420.17C385.818 420.35 385.742 420.578 385.742 420.854V425H384.638ZM394.065 425.12C393.489 425.12 392.981 424.994 392.541 424.742C392.101 424.49 391.757 424.128 391.509 423.656C391.261 423.184 391.137 422.618 391.137 421.958C391.137 421.306 391.249 420.734 391.473 420.242C391.697 419.75 392.021 419.366 392.445 419.09C392.873 418.814 393.387 418.676 393.987 418.676C394.571 418.676 395.065 418.802 395.469 419.054C395.873 419.306 396.179 419.662 396.387 420.122C396.599 420.578 396.705 421.12 396.705 421.748V422.156H392.259C392.259 422.548 392.323 422.904 392.451 423.224C392.583 423.54 392.781 423.792 393.045 423.98C393.309 424.168 393.643 424.262 394.047 424.262C394.443 424.262 394.783 424.17 395.067 423.986C395.355 423.802 395.539 423.536 395.619 423.188H396.663C396.591 423.608 396.423 423.962 396.159 424.25C395.899 424.538 395.585 424.756 395.217 424.904C394.853 425.048 394.469 425.12 394.065 425.12ZM392.265 421.406H395.637C395.637 421.05 395.577 420.73 395.457 420.446C395.337 420.158 395.153 419.932 394.905 419.768C394.661 419.6 394.353 419.516 393.981 419.516C393.593 419.516 393.271 419.61 393.015 419.798C392.759 419.982 392.569 420.22 392.445 420.512C392.321 420.8 392.261 421.098 392.265 421.406ZM400.113 425.03C399.685 425.03 399.353 424.972 399.117 424.856C398.881 424.74 398.715 424.568 398.619 424.34C398.527 424.112 398.481 423.832 398.481 423.5V419.606H397.473V418.796H398.511L398.781 416.99H399.597V418.79H400.995V419.606H399.597V423.464C399.597 423.684 399.619 423.846 399.663 423.95C399.711 424.05 399.789 424.114 399.897 424.142C400.005 424.17 400.157 424.184 400.353 424.184H401.031V424.928C400.955 424.956 400.839 424.98 400.683 425C400.531 425.02 400.341 425.03 400.113 425.03ZM403.697 425L401.777 418.796H402.809L404.225 423.566H404.321L405.719 418.796H406.559L408.011 423.554H408.113L409.469 418.796H410.513L408.629 425H407.537L406.127 420.422L404.777 425H403.697ZM413.993 425.12C413.421 425.12 412.921 424.998 412.493 424.754C412.069 424.506 411.739 424.144 411.503 423.668C411.267 423.192 411.149 422.61 411.149 421.922C411.149 421.274 411.259 420.706 411.479 420.218C411.699 419.73 412.021 419.352 412.445 419.084C412.869 418.812 413.387 418.676 413.999 418.676C414.571 418.676 415.067 418.802 415.487 419.054C415.907 419.302 416.233 419.668 416.465 420.152C416.701 420.636 416.819 421.226 416.819 421.922C416.819 422.554 416.711 423.11 416.495 423.59C416.279 424.07 415.961 424.446 415.541 424.718C415.125 424.986 414.609 425.12 413.993 425.12ZM413.999 424.244C414.367 424.244 414.679 424.15 414.935 423.962C415.191 423.774 415.385 423.504 415.517 423.152C415.653 422.8 415.721 422.382 415.721 421.898C415.721 421.454 415.661 421.056 415.541 420.704C415.425 420.348 415.241 420.066 414.989 419.858C414.737 419.65 414.407 419.546 413.999 419.546C413.623 419.546 413.305 419.64 413.045 419.828C412.785 420.012 412.587 420.28 412.451 420.632C412.319 420.984 412.253 421.406 412.253 421.898C412.253 422.334 412.311 422.73 412.427 423.086C412.547 423.442 412.735 423.724 412.991 423.932C413.251 424.14 413.587 424.244 413.999 424.244ZM418.174 425V418.796H419.23V419.99C419.334 419.694 419.48 419.45 419.668 419.258C419.856 419.062 420.07 418.916 420.31 418.82C420.554 418.724 420.806 418.676 421.066 418.676C421.158 418.676 421.248 418.682 421.336 418.694C421.424 418.706 421.492 418.726 421.54 418.754V419.828C421.48 419.8 421.402 419.782 421.306 419.774C421.214 419.762 421.136 419.756 421.072 419.756C420.824 419.74 420.592 419.756 420.376 419.804C420.16 419.848 419.97 419.926 419.806 420.038C419.642 420.15 419.512 420.298 419.416 420.482C419.324 420.662 419.278 420.882 419.278 421.142V425H418.174ZM422.742 425V416.084H423.846V421.898L426.762 418.796H428.034L425.796 421.16L428.19 425H427.014L425.07 421.886L423.846 423.152V425H422.742ZM434.502 425.12C433.942 425.12 433.446 424.998 433.014 424.754C432.586 424.51 432.25 424.15 432.006 423.674C431.766 423.198 431.646 422.614 431.646 421.922C431.646 421.274 431.756 420.708 431.976 420.224C432.2 419.736 432.524 419.356 432.948 419.084C433.376 418.812 433.894 418.676 434.502 418.676C434.946 418.676 435.344 418.762 435.696 418.934C436.052 419.102 436.344 419.342 436.572 419.654C436.8 419.966 436.94 420.334 436.992 420.758H436.008C435.972 420.542 435.888 420.344 435.756 420.164C435.628 419.984 435.458 419.84 435.246 419.732C435.038 419.624 434.792 419.57 434.508 419.57C433.976 419.57 433.542 419.762 433.206 420.146C432.874 420.53 432.708 421.118 432.708 421.91C432.708 422.626 432.86 423.2 433.164 423.632C433.472 424.06 433.924 424.274 434.52 424.274C434.804 424.274 435.052 424.22 435.264 424.112C435.476 424 435.646 423.854 435.774 423.674C435.902 423.49 435.984 423.294 436.02 423.086H436.986C436.934 423.502 436.792 423.862 436.56 424.166C436.332 424.47 436.04 424.706 435.684 424.874C435.332 425.038 434.938 425.12 434.502 425.12ZM440.85 425.12C440.278 425.12 439.778 424.998 439.35 424.754C438.926 424.506 438.596 424.144 438.36 423.668C438.124 423.192 438.006 422.61 438.006 421.922C438.006 421.274 438.116 420.706 438.336 420.218C438.556 419.73 438.878 419.352 439.302 419.084C439.726 418.812 440.244 418.676 440.856 418.676C441.428 418.676 441.924 418.802 442.344 419.054C442.764 419.302 443.09 419.668 443.322 420.152C443.558 420.636 443.676 421.226 443.676 421.922C443.676 422.554 443.568 423.11 443.352 423.59C443.136 424.07 442.818 424.446 442.398 424.718C441.982 424.986 441.466 425.12 440.85 425.12ZM440.856 424.244C441.224 424.244 441.536 424.15 441.792 423.962C442.048 423.774 442.242 423.504 442.374 423.152C442.51 422.8 442.578 422.382 442.578 421.898C442.578 421.454 442.518 421.056 442.398 420.704C442.282 420.348 442.098 420.066 441.846 419.858C441.594 419.65 441.264 419.546 440.856 419.546C440.48 419.546 440.162 419.64 439.902 419.828C439.642 420.012 439.444 420.28 439.308 420.632C439.176 420.984 439.11 421.406 439.11 421.898C439.11 422.334 439.168 422.73 439.284 423.086C439.404 423.442 439.592 423.724 439.848 423.932C440.108 424.14 440.444 424.244 440.856 424.244ZM445.031 425V418.796H446.105V419.696C446.205 419.524 446.343 419.362 446.519 419.21C446.699 419.058 446.915 418.936 447.167 418.844C447.423 418.752 447.717 418.706 448.049 418.706C448.441 418.706 448.801 418.784 449.129 418.94C449.461 419.096 449.725 419.34 449.921 419.672C450.121 420 450.221 420.424 450.221 420.944V425H449.111V421.052C449.111 420.568 448.983 420.21 448.727 419.978C448.475 419.742 448.147 419.624 447.743 419.624C447.463 419.624 447.201 419.67 446.957 419.762C446.713 419.85 446.515 419.986 446.363 420.17C446.211 420.35 446.135 420.578 446.135 420.854V425H445.031ZM454.459 427.052C453.487 427.052 452.729 426.91 452.185 426.626C451.641 426.346 451.369 425.944 451.369 425.42C451.369 425.196 451.421 425.006 451.525 424.85C451.629 424.69 451.753 424.558 451.897 424.454C452.041 424.35 452.175 424.268 452.299 424.208C452.423 424.144 452.505 424.098 452.545 424.07C452.473 424.03 452.387 423.98 452.287 423.92C452.187 423.86 452.097 423.78 452.017 423.68C451.941 423.58 451.903 423.45 451.903 423.29C451.903 423.094 451.995 422.914 452.179 422.75C452.363 422.586 452.637 422.464 453.001 422.384C452.637 422.2 452.353 421.956 452.149 421.652C451.945 421.348 451.843 421.018 451.843 420.662C451.843 420.262 451.951 419.914 452.167 419.618C452.383 419.322 452.693 419.096 453.097 418.94C453.501 418.78 453.983 418.7 454.543 418.7C454.947 418.7 455.285 418.748 455.557 418.844C455.833 418.936 456.089 419.068 456.325 419.24C456.389 419.212 456.491 419.17 456.631 419.114C456.771 419.054 456.923 418.99 457.087 418.922C457.255 418.854 457.411 418.79 457.555 418.73C457.703 418.666 457.821 418.618 457.909 418.586L457.903 419.612L456.817 419.816C456.881 419.944 456.931 420.084 456.967 420.236C457.003 420.388 457.021 420.53 457.021 420.662C457.021 421.026 456.925 421.356 456.733 421.652C456.545 421.948 456.259 422.184 455.875 422.36C455.491 422.536 455.011 422.624 454.435 422.624C454.387 422.624 454.325 422.624 454.249 422.624C454.177 422.62 454.115 422.616 454.063 422.612C453.639 422.624 453.347 422.672 453.187 422.756C453.031 422.836 452.953 422.926 452.953 423.026C452.953 423.142 453.043 423.222 453.223 423.266C453.403 423.31 453.707 423.348 454.135 423.38C454.291 423.388 454.483 423.398 454.711 423.41C454.943 423.422 455.201 423.438 455.485 423.458C456.133 423.498 456.633 423.664 456.985 423.956C457.337 424.248 457.513 424.642 457.513 425.138C457.513 425.702 457.261 426.162 456.757 426.518C456.257 426.874 455.491 427.052 454.459 427.052ZM454.657 426.338C455.229 426.338 455.667 426.252 455.971 426.08C456.279 425.908 456.433 425.648 456.433 425.3C456.433 425.052 456.339 424.85 456.151 424.694C455.963 424.534 455.679 424.442 455.299 424.418L453.559 424.304C453.403 424.296 453.241 424.336 453.073 424.424C452.905 424.508 452.763 424.626 452.647 424.778C452.531 424.93 452.473 425.102 452.473 425.294C452.473 425.622 452.651 425.878 453.007 426.062C453.363 426.246 453.913 426.338 454.657 426.338ZM454.471 421.91C454.915 421.91 455.273 421.806 455.545 421.598C455.821 421.39 455.959 421.082 455.959 420.674C455.959 420.254 455.821 419.934 455.545 419.714C455.273 419.494 454.915 419.384 454.471 419.384C454.015 419.384 453.647 419.496 453.367 419.72C453.091 419.94 452.953 420.258 452.953 420.674C452.953 421.066 453.085 421.37 453.349 421.586C453.617 421.802 453.991 421.91 454.471 421.91ZM461.605 425.12C461.029 425.12 460.521 424.994 460.081 424.742C459.641 424.49 459.297 424.128 459.049 423.656C458.801 423.184 458.677 422.618 458.677 421.958C458.677 421.306 458.789 420.734 459.013 420.242C459.237 419.75 459.561 419.366 459.985 419.09C460.413 418.814 460.927 418.676 461.527 418.676C462.111 418.676 462.605 418.802 463.009 419.054C463.413 419.306 463.719 419.662 463.927 420.122C464.139 420.578 464.245 421.12 464.245 421.748V422.156H459.799C459.799 422.548 459.863 422.904 459.991 423.224C460.123 423.54 460.321 423.792 460.585 423.98C460.849 424.168 461.183 424.262 461.587 424.262C461.983 424.262 462.323 424.17 462.607 423.986C462.895 423.802 463.079 423.536 463.159 423.188H464.203C464.131 423.608 463.963 423.962 463.699 424.25C463.439 424.538 463.125 424.756 462.757 424.904C462.393 425.048 462.009 425.12 461.605 425.12ZM459.805 421.406H463.177C463.177 421.05 463.117 420.73 462.997 420.446C462.877 420.158 462.693 419.932 462.445 419.768C462.201 419.6 461.893 419.516 461.521 419.516C461.133 419.516 460.811 419.61 460.555 419.798C460.299 419.982 460.109 420.22 459.985 420.512C459.861 420.8 459.801 421.098 459.805 421.406ZM467.845 425.12C467.413 425.12 467.011 425.054 466.639 424.922C466.271 424.786 465.965 424.576 465.721 424.292C465.477 424.004 465.325 423.638 465.265 423.194H466.273C466.325 423.438 466.425 423.642 466.573 423.806C466.721 423.966 466.903 424.088 467.119 424.172C467.339 424.252 467.579 424.292 467.839 424.292C468.259 424.292 468.597 424.214 468.853 424.058C469.109 423.902 469.237 423.662 469.237 423.338C469.237 423.11 469.169 422.928 469.033 422.792C468.901 422.652 468.693 422.55 468.409 422.486L467.125 422.168C466.625 422.048 466.225 421.86 465.925 421.604C465.629 421.348 465.479 420.99 465.475 420.53C465.475 420.166 465.563 419.846 465.739 419.57C465.915 419.294 466.177 419.076 466.525 418.916C466.877 418.756 467.315 418.676 467.839 418.676C468.515 418.676 469.059 418.828 469.471 419.132C469.883 419.432 470.099 419.874 470.119 420.458H469.135C469.095 420.162 468.963 419.928 468.739 419.756C468.515 419.58 468.211 419.492 467.827 419.492C467.435 419.492 467.113 419.572 466.861 419.732C466.613 419.888 466.489 420.132 466.489 420.464C466.489 420.684 466.577 420.858 466.753 420.986C466.933 421.11 467.193 421.214 467.533 421.298L468.781 421.61C469.065 421.686 469.301 421.786 469.489 421.91C469.677 422.034 469.825 422.172 469.933 422.324C470.041 422.476 470.117 422.636 470.161 422.804C470.209 422.968 470.233 423.126 470.233 423.278C470.233 423.658 470.139 423.986 469.951 424.262C469.763 424.534 469.491 424.746 469.135 424.898C468.779 425.046 468.349 425.12 467.845 425.12ZM473.696 425.03C473.268 425.03 472.936 424.972 472.7 424.856C472.464 424.74 472.298 424.568 472.202 424.34C472.11 424.112 472.064 423.832 472.064 423.5V419.606H471.056V418.796H472.094L472.364 416.99H473.18V418.79H474.578V419.606H473.18V423.464C473.18 423.684 473.202 423.846 473.246 423.95C473.294 424.05 473.372 424.114 473.48 424.142C473.588 424.17 473.74 424.184 473.936 424.184H474.614V424.928C474.538 424.956 474.422 424.98 474.266 425C474.114 425.02 473.924 425.03 473.696 425.03ZM475.996 425V418.796H477.07V425H475.996ZM475.966 417.482V416.33H477.1V417.482H475.966ZM481.295 425.12C480.723 425.12 480.223 424.998 479.795 424.754C479.371 424.506 479.041 424.144 478.805 423.668C478.569 423.192 478.451 422.61 478.451 421.922C478.451 421.274 478.561 420.706 478.781 420.218C479.001 419.73 479.323 419.352 479.747 419.084C480.171 418.812 480.689 418.676 481.301 418.676C481.873 418.676 482.369 418.802 482.789 419.054C483.209 419.302 483.535 419.668 483.767 420.152C484.003 420.636 484.121 421.226 484.121 421.922C484.121 422.554 484.013 423.11 483.797 423.59C483.581 424.07 483.263 424.446 482.843 424.718C482.427 424.986 481.911 425.12 481.295 425.12ZM481.301 424.244C481.669 424.244 481.981 424.15 482.237 423.962C482.493 423.774 482.687 423.504 482.819 423.152C482.955 422.8 483.023 422.382 483.023 421.898C483.023 421.454 482.963 421.056 482.843 420.704C482.727 420.348 482.543 420.066 482.291 419.858C482.039 419.65 481.709 419.546 481.301 419.546C480.925 419.546 480.607 419.64 480.347 419.828C480.087 420.012 479.889 420.28 479.753 420.632C479.621 420.984 479.555 421.406 479.555 421.898C479.555 422.334 479.613 422.73 479.729 423.086C479.849 423.442 480.037 423.724 480.293 423.932C480.553 424.14 480.889 424.244 481.301 424.244ZM485.476 425V418.796H486.55V419.696C486.65 419.524 486.788 419.362 486.964 419.21C487.144 419.058 487.36 418.936 487.612 418.844C487.868 418.752 488.162 418.706 488.494 418.706C488.886 418.706 489.246 418.784 489.574 418.94C489.906 419.096 490.17 419.34 490.366 419.672C490.566 420 490.666 420.424 490.666 420.944V425H489.556V421.052C489.556 420.568 489.428 420.21 489.172 419.978C488.92 419.742 488.592 419.624 488.188 419.624C487.908 419.624 487.646 419.67 487.402 419.762C487.158 419.85 486.96 419.986 486.808 420.17C486.656 420.35 486.58 420.578 486.58 420.854V425H485.476ZM492.024 425V423.584H493.344V425H492.024Z" fill="black"/>
<path d="M35.325 165V156.698H32.266V154.878H40.365V156.698H37.376V165H35.325ZM41.2832 165V157.762H43.2502V159.477C43.3669 159.108 43.5302 158.786 43.7402 158.511C43.9549 158.231 44.2139 158.014 44.5172 157.86C44.8205 157.701 45.1635 157.622 45.5462 157.622C45.6115 157.622 45.6722 157.627 45.7282 157.636C45.7889 157.641 45.8332 157.65 45.8612 157.664V159.61C45.8192 159.591 45.7679 159.58 45.7072 159.575C45.6512 159.57 45.5999 159.566 45.5532 159.561C45.1519 159.528 44.8089 159.54 44.5242 159.596C44.2395 159.652 44.0085 159.748 43.8312 159.883C43.6539 160.018 43.5255 160.184 43.4462 160.38C43.3669 160.576 43.3272 160.795 43.3272 161.038V165H41.2832ZM49.0513 165.14C48.594 165.14 48.1787 165.054 47.8053 164.881C47.4367 164.708 47.145 164.459 46.9303 164.132C46.7157 163.801 46.6083 163.399 46.6083 162.928C46.6083 162.135 46.9047 161.533 47.4973 161.122C48.09 160.707 49.0257 160.492 50.3043 160.478L51.2143 160.464V160.03C51.2143 159.699 51.1163 159.444 50.9203 159.267C50.729 159.085 50.428 158.996 50.0173 159.001C49.7233 159.006 49.441 159.076 49.1703 159.211C48.9043 159.346 48.72 159.582 48.6173 159.918H46.9163C46.9443 159.395 47.096 158.966 47.3713 158.63C47.6513 158.289 48.027 158.037 48.4983 157.874C48.9697 157.706 49.5087 157.622 50.1153 157.622C50.8527 157.622 51.4453 157.715 51.8933 157.902C52.3413 158.084 52.6657 158.348 52.8663 158.693C53.0717 159.034 53.1743 159.44 53.1743 159.911V165H51.4663L51.2983 163.754C51.051 164.277 50.7407 164.638 50.3673 164.839C49.9987 165.04 49.56 165.14 49.0513 165.14ZM49.7443 163.796C49.9263 163.796 50.1037 163.763 50.2763 163.698C50.4537 163.628 50.6123 163.537 50.7523 163.425C50.8923 163.308 51.002 163.178 51.0813 163.033C51.1653 162.888 51.2097 162.739 51.2143 162.585V161.514L50.4793 161.528C50.1387 161.533 49.8213 161.575 49.5273 161.654C49.2333 161.729 48.9953 161.852 48.8133 162.025C48.636 162.198 48.5473 162.431 48.5473 162.725C48.5473 163.061 48.6617 163.325 48.8903 163.516C49.1237 163.703 49.4083 163.796 49.7443 163.796ZM54.832 165V157.762H56.841V158.784C56.953 158.607 57.0977 158.436 57.275 158.273C57.457 158.105 57.6857 157.967 57.961 157.86C58.2364 157.753 58.563 157.699 58.941 157.699C59.3844 157.699 59.7974 157.785 60.18 157.958C60.5674 158.131 60.88 158.404 61.118 158.777C61.356 159.146 61.475 159.629 61.475 160.226V165H59.431V160.478C59.431 160.086 59.3144 159.792 59.081 159.596C58.8477 159.4 58.563 159.302 58.227 159.302C58.003 159.302 57.786 159.342 57.576 159.421C57.3707 159.5 57.2027 159.619 57.072 159.778C56.9414 159.937 56.876 160.133 56.876 160.366V165H54.832ZM65.9745 165.14C65.4705 165.14 64.9852 165.058 64.5185 164.895C64.0565 164.727 63.6622 164.466 63.3355 164.111C63.0135 163.752 62.8105 163.287 62.7265 162.718H64.4905C64.5558 162.975 64.6678 163.178 64.8265 163.327C64.9898 163.476 65.1742 163.584 65.3795 163.649C65.5848 163.71 65.7808 163.74 65.9675 163.74C66.3595 163.74 66.6745 163.679 66.9125 163.558C67.1552 163.432 67.2765 163.241 67.2765 162.984C67.2765 162.788 67.2042 162.632 67.0595 162.515C66.9195 162.398 66.6862 162.31 66.3595 162.249L65.0855 161.983C64.4462 161.848 63.9305 161.619 63.5385 161.297C63.1512 160.97 62.9552 160.508 62.9505 159.911C62.9458 159.477 63.0578 159.087 63.2865 158.742C63.5198 158.397 63.8628 158.124 64.3155 157.923C64.7728 157.722 65.3305 157.622 65.9885 157.622C66.8798 157.622 67.5915 157.818 68.1235 158.21C68.6602 158.602 68.9332 159.155 68.9425 159.869H67.2345C67.1832 159.589 67.0432 159.374 66.8145 159.225C66.5905 159.071 66.3058 158.994 65.9605 158.994C65.6105 158.994 65.3212 159.057 65.0925 159.183C64.8638 159.309 64.7495 159.5 64.7495 159.757C64.7495 159.948 64.8428 160.1 65.0295 160.212C65.2162 160.319 65.5055 160.413 65.8975 160.492L67.0735 160.758C67.4795 160.856 67.8085 160.991 68.0605 161.164C68.3172 161.332 68.5155 161.516 68.6555 161.717C68.7955 161.918 68.8912 162.121 68.9425 162.326C68.9985 162.527 69.0265 162.709 69.0265 162.872C69.0265 163.353 68.8982 163.763 68.6415 164.104C68.3848 164.44 68.0278 164.697 67.5705 164.874C67.1132 165.051 66.5812 165.14 65.9745 165.14ZM72.649 165.14C72.1917 165.14 71.7763 165.054 71.403 164.881C71.0343 164.708 70.7427 164.459 70.528 164.132C70.3133 163.801 70.206 163.399 70.206 162.928C70.206 162.135 70.5023 161.533 71.095 161.122C71.6877 160.707 72.6233 160.492 73.902 160.478L74.812 160.464V160.03C74.812 159.699 74.714 159.444 74.518 159.267C74.3267 159.085 74.0257 158.996 73.615 159.001C73.321 159.006 73.0387 159.076 72.768 159.211C72.502 159.346 72.3177 159.582 72.215 159.918H70.514C70.542 159.395 70.6937 158.966 70.969 158.63C71.249 158.289 71.6247 158.037 72.096 157.874C72.5673 157.706 73.1063 157.622 73.713 157.622C74.4503 157.622 75.043 157.715 75.491 157.902C75.939 158.084 76.2633 158.348 76.464 158.693C76.6693 159.034 76.772 159.44 76.772 159.911V165H75.064L74.896 163.754C74.6487 164.277 74.3383 164.638 73.965 164.839C73.5963 165.04 73.1577 165.14 72.649 165.14ZM73.342 163.796C73.524 163.796 73.7013 163.763 73.874 163.698C74.0513 163.628 74.21 163.537 74.35 163.425C74.49 163.308 74.5997 163.178 74.679 163.033C74.763 162.888 74.8073 162.739 74.812 162.585V161.514L74.077 161.528C73.7363 161.533 73.419 161.575 73.125 161.654C72.831 161.729 72.593 161.852 72.411 162.025C72.2337 162.198 72.145 162.431 72.145 162.725C72.145 163.061 72.2593 163.325 72.488 163.516C72.7213 163.703 73.006 163.796 73.342 163.796ZM81.5797 165.14C80.9077 165.14 80.308 164.991 79.7807 164.692C79.2534 164.393 78.838 163.966 78.5347 163.411C78.236 162.851 78.0867 162.184 78.0867 161.409C78.0867 160.662 78.2314 160.004 78.5207 159.435C78.81 158.866 79.216 158.422 79.7387 158.105C80.266 157.783 80.8797 157.622 81.5797 157.622C82.1864 157.622 82.709 157.746 83.1477 157.993C83.591 158.24 83.9387 158.574 84.1907 158.994C84.4474 159.414 84.5944 159.883 84.6317 160.401H82.9307C82.898 160.21 82.8304 160.021 82.7277 159.834C82.625 159.643 82.4804 159.486 82.2937 159.365C82.107 159.239 81.8737 159.176 81.5937 159.176C81.1177 159.176 80.7304 159.36 80.4317 159.729C80.1377 160.093 79.9907 160.648 79.9907 161.395C79.9907 162.1 80.1354 162.66 80.4247 163.075C80.714 163.486 81.1177 163.691 81.6357 163.691C81.911 163.691 82.1397 163.623 82.3217 163.488C82.5084 163.353 82.653 163.192 82.7557 163.005C82.8584 162.814 82.9237 162.636 82.9517 162.473H84.6107C84.578 162.972 84.4334 163.425 84.1767 163.831C83.92 164.232 83.57 164.552 83.1267 164.79C82.688 165.023 82.1724 165.14 81.5797 165.14ZM88.9892 165.077C88.3499 165.077 87.8552 164.995 87.5052 164.832C87.1599 164.669 86.9195 164.44 86.7842 164.146C86.6535 163.852 86.5882 163.511 86.5882 163.124V159.183H85.4122V157.762H86.6512L87.1692 155.578H88.6252V157.755H90.2352V159.183H88.6252L88.6392 163.04C88.6392 163.217 88.6602 163.35 88.7022 163.439C88.7489 163.523 88.8189 163.579 88.9122 163.607C89.0102 163.63 89.1339 163.642 89.2832 163.642H90.2562V164.902C90.1582 164.944 90.0112 164.984 89.8152 165.021C89.6192 165.058 89.3439 165.077 88.9892 165.077ZM91.7124 165V157.762H93.6654V165H91.7124ZM91.6914 156.726V154.885H93.6794V156.726H91.6914ZM98.5808 165.14C97.8715 165.14 97.2532 164.988 96.7258 164.685C96.2032 164.382 95.7972 163.952 95.5078 163.397C95.2232 162.842 95.0808 162.184 95.0808 161.423C95.0808 160.662 95.2232 159.997 95.5078 159.428C95.7972 158.859 96.2032 158.415 96.7258 158.098C97.2532 157.781 97.8738 157.622 98.5878 157.622C99.3018 157.622 99.9202 157.778 100.443 158.091C100.965 158.399 101.369 158.838 101.654 159.407C101.938 159.976 102.081 160.648 102.081 161.423C102.081 162.151 101.941 162.795 101.661 163.355C101.385 163.91 100.986 164.347 100.464 164.664C99.9458 164.981 99.3182 165.14 98.5808 165.14ZM98.5878 163.621C98.9472 163.621 99.2365 163.516 99.4558 163.306C99.6752 163.096 99.8338 162.821 99.9318 162.48C100.03 162.135 100.079 161.759 100.079 161.353C100.079 160.97 100.034 160.609 99.9458 160.268C99.8572 159.927 99.7032 159.652 99.4838 159.442C99.2645 159.232 98.9658 159.127 98.5878 159.127C98.2285 159.127 97.9368 159.227 97.7128 159.428C97.4935 159.624 97.3325 159.892 97.2298 160.233C97.1272 160.569 97.0758 160.942 97.0758 161.353C97.0758 161.731 97.1225 162.095 97.2158 162.445C97.3092 162.79 97.4655 163.073 97.6848 163.292C97.9042 163.511 98.2052 163.621 98.5878 163.621ZM103.477 165V157.762H105.486V158.784C105.598 158.607 105.742 158.436 105.92 158.273C106.102 158.105 106.33 157.967 106.606 157.86C106.881 157.753 107.208 157.699 107.586 157.699C108.029 157.699 108.442 157.785 108.825 157.958C109.212 158.131 109.525 158.404 109.763 158.777C110.001 159.146 110.12 159.629 110.12 160.226V165H108.076V160.478C108.076 160.086 107.959 159.792 107.726 159.596C107.492 159.4 107.208 159.302 106.872 159.302C106.648 159.302 106.431 159.342 106.221 159.421C106.015 159.5 105.847 159.619 105.717 159.778C105.586 159.937 105.521 160.133 105.521 160.366V165H103.477ZM33.134 182V171.878H36.102L38.419 179.095L40.757 171.878H43.718V182H41.653V174.258L39.217 182H37.614L35.192 174.293V182H33.134ZM45.7476 182V174.762H47.7006V182H45.7476ZM45.7266 173.726V171.885H47.7146V173.726H45.7266ZM49.5 182V174.762H51.509V175.784C51.621 175.607 51.7657 175.436 51.943 175.273C52.125 175.105 52.3537 174.967 52.629 174.86C52.9043 174.753 53.231 174.699 53.609 174.699C54.0523 174.699 54.4653 174.785 54.848 174.958C55.2353 175.131 55.548 175.404 55.786 175.777C56.024 176.146 56.143 176.629 56.143 177.226V182H54.099V177.478C54.099 177.086 53.9823 176.792 53.749 176.596C53.5157 176.4 53.231 176.302 52.895 176.302C52.671 176.302 52.454 176.342 52.244 176.421C52.0387 176.5 51.8707 176.619 51.74 176.778C51.6093 176.937 51.544 177.133 51.544 177.366V182H49.5ZM61.1238 182.14C60.4052 182.14 59.7728 181.991 59.2268 181.692C58.6855 181.389 58.2632 180.962 57.9598 180.411C57.6565 179.86 57.5048 179.212 57.5048 178.465C57.5048 177.742 57.6425 177.091 57.9178 176.512C58.1978 175.929 58.5992 175.469 59.1218 175.133C59.6445 174.792 60.2768 174.622 61.0188 174.622C61.7562 174.622 62.3745 174.778 62.8738 175.091C63.3732 175.399 63.7512 175.831 64.0078 176.386C64.2645 176.937 64.3928 177.574 64.3928 178.297V178.85H59.5278C59.5278 179.219 59.5885 179.541 59.7098 179.816C59.8312 180.087 60.0062 180.297 60.2348 180.446C60.4682 180.591 60.7482 180.663 61.0748 180.663C61.4248 180.663 61.7305 180.588 61.9918 180.439C62.2532 180.29 62.4375 180.045 62.5448 179.704H64.3858C64.3018 180.217 64.0965 180.656 63.7698 181.02C63.4432 181.384 63.0465 181.662 62.5798 181.853C62.1132 182.044 61.6278 182.14 61.1238 182.14ZM59.5278 177.632H62.4818C62.4818 177.343 62.4258 177.077 62.3138 176.834C62.2065 176.591 62.0432 176.4 61.8238 176.26C61.6092 176.12 61.3385 176.05 61.0118 176.05C60.6992 176.05 60.4308 176.127 60.2068 176.281C59.9875 176.43 59.8172 176.626 59.6958 176.869C59.5792 177.112 59.5232 177.366 59.5278 177.632ZM69.2414 182V171.878H73.5114C74.3188 171.878 74.9791 172.006 75.4924 172.263C76.0058 172.52 76.3838 172.877 76.6264 173.334C76.8691 173.787 76.9904 174.309 76.9904 174.902C76.9904 175.434 76.9064 175.884 76.7384 176.253C76.5751 176.617 76.3581 176.92 76.0874 177.163C75.8214 177.406 75.5298 177.604 75.2124 177.758L77.0954 182H74.9744L73.3294 178.101H71.2784V182H69.2414ZM71.2784 176.526H73.1474C73.6934 176.526 74.1251 176.379 74.4424 176.085C74.7644 175.791 74.9254 175.413 74.9254 174.951C74.9254 174.484 74.7714 174.116 74.4634 173.845C74.1554 173.574 73.7658 173.439 73.2944 173.439H71.2784V176.526ZM80.7428 182.14C80.2854 182.14 79.8701 182.054 79.4968 181.881C79.1281 181.708 78.8364 181.459 78.6218 181.132C78.4071 180.801 78.2998 180.399 78.2998 179.928C78.2998 179.135 78.5961 178.533 79.1888 178.122C79.7814 177.707 80.7171 177.492 81.9958 177.478L82.9058 177.464V177.03C82.9058 176.699 82.8078 176.444 82.6118 176.267C82.4204 176.085 82.1194 175.996 81.7088 176.001C81.4148 176.006 81.1324 176.076 80.8618 176.211C80.5958 176.346 80.4114 176.582 80.3088 176.918H78.6078C78.6358 176.395 78.7874 175.966 79.0628 175.63C79.3428 175.289 79.7184 175.037 80.1898 174.874C80.6611 174.706 81.2001 174.622 81.8068 174.622C82.5441 174.622 83.1368 174.715 83.5848 174.902C84.0328 175.084 84.3571 175.348 84.5578 175.693C84.7631 176.034 84.8658 176.44 84.8658 176.911V182H83.1578L82.9898 180.754C82.7424 181.277 82.4321 181.638 82.0588 181.839C81.6901 182.04 81.2514 182.14 80.7428 182.14ZM81.4358 180.796C81.6178 180.796 81.7951 180.763 81.9678 180.698C82.1451 180.628 82.3038 180.537 82.4438 180.425C82.5838 180.308 82.6934 180.178 82.7728 180.033C82.8568 179.888 82.9011 179.739 82.9058 179.585V178.514L82.1708 178.528C81.8301 178.533 81.5128 178.575 81.2188 178.654C80.9248 178.729 80.6868 178.852 80.5048 179.025C80.3274 179.198 80.2388 179.431 80.2388 179.725C80.2388 180.061 80.3531 180.325 80.5818 180.516C80.8151 180.703 81.0998 180.796 81.4358 180.796ZM89.3993 182.077C88.76 182.077 88.2653 181.995 87.9153 181.832C87.57 181.669 87.3297 181.44 87.1943 181.146C87.0637 180.852 86.9983 180.511 86.9983 180.124V176.183H85.8223V174.762H87.0613L87.5793 172.578H89.0353V174.755H90.6453V176.183H89.0353L89.0493 180.04C89.0493 180.217 89.0703 180.35 89.1123 180.439C89.159 180.523 89.229 180.579 89.3223 180.607C89.4203 180.63 89.544 180.642 89.6933 180.642H90.6663V181.902C90.5683 181.944 90.4213 181.984 90.2253 182.021C90.0293 182.058 89.754 182.077 89.3993 182.077ZM95.1941 182.14C94.4755 182.14 93.8431 181.991 93.2971 181.692C92.7558 181.389 92.3335 180.962 92.0301 180.411C91.7268 179.86 91.5751 179.212 91.5751 178.465C91.5751 177.742 91.7128 177.091 91.9881 176.512C92.2681 175.929 92.6695 175.469 93.1921 175.133C93.7148 174.792 94.3471 174.622 95.0891 174.622C95.8265 174.622 96.4448 174.778 96.9441 175.091C97.4435 175.399 97.8215 175.831 98.0781 176.386C98.3348 176.937 98.4631 177.574 98.4631 178.297V178.85H93.5981C93.5981 179.219 93.6588 179.541 93.7801 179.816C93.9015 180.087 94.0765 180.297 94.3051 180.446C94.5385 180.591 94.8185 180.663 95.1451 180.663C95.4951 180.663 95.8008 180.588 96.0621 180.439C96.3235 180.29 96.5078 180.045 96.6151 179.704H98.4561C98.3721 180.217 98.1668 180.656 97.8401 181.02C97.5135 181.384 97.1168 181.662 96.6501 181.853C96.1835 182.044 95.6981 182.14 95.1941 182.14ZM93.5981 177.632H96.5521C96.5521 177.343 96.4961 177.077 96.3841 176.834C96.2768 176.591 96.1135 176.4 95.8941 176.26C95.6795 176.12 95.4088 176.05 95.0821 176.05C94.7695 176.05 94.5011 176.127 94.2771 176.281C94.0578 176.43 93.8875 176.626 93.7661 176.869C93.6495 177.112 93.5935 177.366 93.5981 177.632Z" fill="#4E4E4E"/>
<path d="M36.928 325.14C36.424 325.14 35.9317 325.077 35.451 324.951C34.9703 324.825 34.5317 324.636 34.135 324.384C33.7383 324.132 33.4117 323.817 33.155 323.439C32.903 323.061 32.7513 322.618 32.7 322.109H34.793C34.863 322.417 34.996 322.676 35.192 322.886C35.3927 323.096 35.6493 323.257 35.962 323.369C36.2793 323.481 36.641 323.537 37.047 323.537C37.369 323.537 37.6747 323.49 37.964 323.397C38.2533 323.304 38.489 323.161 38.671 322.97C38.853 322.779 38.944 322.538 38.944 322.249C38.944 321.904 38.818 321.645 38.566 321.472C38.314 321.295 37.971 321.155 37.537 321.052L35.64 320.639C35.1033 320.527 34.6343 320.354 34.233 320.121C33.8363 319.883 33.5307 319.575 33.316 319.197C33.1013 318.814 32.994 318.35 32.994 317.804C32.994 317.174 33.1667 316.63 33.512 316.173C33.862 315.716 34.3357 315.366 34.933 315.123C35.535 314.876 36.2093 314.752 36.956 314.752C37.8007 314.752 38.5123 314.89 39.091 315.165C39.6743 315.436 40.12 315.804 40.428 316.271C40.736 316.733 40.8923 317.249 40.897 317.818H38.853C38.8157 317.468 38.7083 317.188 38.531 316.978C38.3537 316.763 38.125 316.609 37.845 316.516C37.5697 316.418 37.2547 316.369 36.9 316.369C36.2887 316.369 35.843 316.493 35.563 316.74C35.283 316.987 35.143 317.274 35.143 317.601C35.143 317.909 35.248 318.159 35.458 318.35C35.6727 318.537 36.0157 318.679 36.487 318.777L38.244 319.155C38.8973 319.281 39.427 319.482 39.833 319.757C40.239 320.028 40.5353 320.357 40.722 320.744C40.9087 321.131 41.002 321.565 41.002 322.046C41.002 322.657 40.827 323.196 40.477 323.663C40.1317 324.125 39.6533 324.487 39.042 324.748C38.4307 325.009 37.726 325.14 36.928 325.14ZM42.5684 327.254V317.762H44.6194L44.6264 318.805C44.7337 318.632 44.8644 318.476 45.0184 318.336C45.177 318.191 45.352 318.065 45.5434 317.958C45.7347 317.851 45.9424 317.769 46.1664 317.713C46.3904 317.652 46.626 317.622 46.8734 317.622C47.41 317.622 47.8884 317.755 48.3084 318.021C48.7284 318.282 49.0574 318.688 49.2954 319.239C49.538 319.785 49.6594 320.48 49.6594 321.325C49.6594 322.202 49.5287 322.923 49.2674 323.488C49.0107 324.048 48.656 324.463 48.2034 324.734C47.7507 325.005 47.2397 325.14 46.6704 325.14C46.437 325.14 46.2177 325.107 46.0124 325.042C45.807 324.981 45.6157 324.895 45.4384 324.783C45.2657 324.671 45.1094 324.543 44.9694 324.398C44.834 324.249 44.715 324.088 44.6124 323.915V327.254H42.5684ZM46.1804 323.642C46.6237 323.642 46.9947 323.458 47.2934 323.089C47.5967 322.72 47.7484 322.137 47.7484 321.339C47.7484 320.639 47.6037 320.093 47.3144 319.701C47.0297 319.304 46.6517 319.106 46.1804 319.106C45.653 319.106 45.2587 319.321 44.9974 319.75C44.7407 320.175 44.6124 320.704 44.6124 321.339C44.6124 321.745 44.6684 322.123 44.7804 322.473C44.897 322.823 45.0697 323.105 45.2984 323.32C45.5317 323.535 45.8257 323.642 46.1804 323.642ZM54.3973 325.14C53.6786 325.14 53.0463 324.991 52.5003 324.692C51.9589 324.389 51.5366 323.962 51.2333 323.411C50.9299 322.86 50.7783 322.212 50.7783 321.465C50.7783 320.742 50.9159 320.091 51.1913 319.512C51.4713 318.929 51.8726 318.469 52.3953 318.133C52.9179 317.792 53.5503 317.622 54.2923 317.622C55.0296 317.622 55.6479 317.778 56.1473 318.091C56.6466 318.399 57.0246 318.831 57.2813 319.386C57.5379 319.937 57.6663 320.574 57.6663 321.297V321.85H52.8013C52.8013 322.219 52.8619 322.541 52.9833 322.816C53.1046 323.087 53.2796 323.297 53.5083 323.446C53.7416 323.591 54.0216 323.663 54.3483 323.663C54.6983 323.663 55.0039 323.588 55.2653 323.439C55.5266 323.29 55.7109 323.045 55.8183 322.704H57.6593C57.5753 323.217 57.3699 323.656 57.0433 324.02C56.7166 324.384 56.3199 324.662 55.8533 324.853C55.3866 325.044 54.9013 325.14 54.3973 325.14ZM52.8013 320.632H55.7553C55.7553 320.343 55.6993 320.077 55.5873 319.834C55.4799 319.591 55.3166 319.4 55.0973 319.26C54.8826 319.12 54.6119 319.05 54.2853 319.05C53.9726 319.05 53.7043 319.127 53.4803 319.281C53.2609 319.43 53.0906 319.626 52.9693 319.869C52.8526 320.112 52.7966 320.366 52.8013 320.632ZM62.4637 325.14C61.745 325.14 61.1127 324.991 60.5667 324.692C60.0253 324.389 59.603 323.962 59.2997 323.411C58.9963 322.86 58.8447 322.212 58.8447 321.465C58.8447 320.742 58.9823 320.091 59.2577 319.512C59.5377 318.929 59.939 318.469 60.4617 318.133C60.9843 317.792 61.6167 317.622 62.3587 317.622C63.096 317.622 63.7143 317.778 64.2137 318.091C64.713 318.399 65.091 318.831 65.3477 319.386C65.6043 319.937 65.7327 320.574 65.7327 321.297V321.85H60.8677C60.8677 322.219 60.9283 322.541 61.0497 322.816C61.171 323.087 61.346 323.297 61.5747 323.446C61.808 323.591 62.088 323.663 62.4147 323.663C62.7647 323.663 63.0703 323.588 63.3317 323.439C63.593 323.29 63.7773 323.045 63.8847 322.704H65.7257C65.6417 323.217 65.4363 323.656 65.1097 324.02C64.783 324.384 64.3863 324.662 63.9197 324.853C63.453 325.044 62.9677 325.14 62.4637 325.14ZM60.8677 320.632H63.8217C63.8217 320.343 63.7657 320.077 63.6537 319.834C63.5463 319.591 63.383 319.4 63.1637 319.26C62.949 319.12 62.6783 319.05 62.3517 319.05C62.039 319.05 61.7707 319.127 61.5467 319.281C61.3273 319.43 61.157 319.626 61.0357 319.869C60.919 320.112 60.863 320.366 60.8677 320.632ZM69.9421 325.14C68.9714 325.14 68.2154 324.806 67.6741 324.139C67.1327 323.467 66.8621 322.534 66.8621 321.339C66.8621 320.583 66.9717 319.927 67.1911 319.372C67.4104 318.817 67.7347 318.387 68.1641 318.084C68.5934 317.776 69.1184 317.622 69.7391 317.622C70.0004 317.622 70.2431 317.652 70.4671 317.713C70.6957 317.769 70.9034 317.848 71.0901 317.951C71.2767 318.054 71.4401 318.173 71.5801 318.308C71.7201 318.443 71.8344 318.588 71.9231 318.742V314.598H73.9741V325H72.4901L72.2591 323.516C72.1891 323.717 72.0957 323.913 71.9791 324.104C71.8671 324.295 71.7201 324.47 71.5381 324.629C71.3561 324.783 71.1321 324.907 70.8661 325C70.6047 325.093 70.2967 325.14 69.9421 325.14ZM70.3901 323.67C70.9034 323.67 71.2861 323.49 71.5381 323.131C71.7947 322.772 71.9231 322.165 71.9231 321.311C71.9184 320.816 71.8601 320.406 71.7481 320.079C71.6361 319.752 71.4681 319.51 71.2441 319.351C71.0247 319.188 70.7447 319.106 70.4041 319.106C69.9607 319.106 69.5921 319.276 69.2981 319.617C69.0041 319.953 68.8571 320.518 68.8571 321.311C68.8571 322.118 68.9947 322.713 69.2701 323.096C69.5454 323.479 69.9187 323.67 70.3901 323.67Z" fill="#4E4E4E"/>
<rect x="1" y="1" width="646" height="448" rx="31" stroke="#5578F8" stroke-opacity="0.5" stroke-width="2"/>
<defs>
<filter id="filter0_d_950_11579" x="427.789" y="101.789" width="192.422" height="132.422" filterUnits="userSpaceOnUse" color-interpolation-filters="sRGB">
<feFlood flood-opacity="0" result="BackgroundImageFix"/>
<feColorMatrix in="SourceAlpha" type="matrix" values="0 0 0 0 0 0 0 0 0 0 0 0 0 0 0 0 0 0 127 0" result="hardAlpha"/>
<feOffset/>
<feGaussianBlur stdDeviation="8.10559"/>
<feComposite in2="hardAlpha" operator="out"/>
<feColorMatrix type="matrix" values="0 0 0 0 0.197708 0 0 0 0 0.387559 0 0 0 0 0.65 0 0 0 0.1 0"/>
<feBlend mode="normal" in2="BackgroundImageFix" result="effect1_dropShadow_950_11579"/>
<feBlend mode="normal" in="SourceGraphic" in2="effect1_dropShadow_950_11579" result="shape"/>
</filter>
<filter id="filter1_d_950_11579" x="427.789" y="252.789" width="192.422" height="132.422" filterUnits="userSpaceOnUse" color-interpolation-filters="sRGB">
<feFlood flood-opacity="0" result="BackgroundImageFix"/>
<feColorMatrix in="SourceAlpha" type="matrix" values="0 0 0 0 0 0 0 0 0 0 0 0 0 0 0 0 0 0 127 0" result="hardAlpha"/>
<feOffset/>
<feGaussianBlur stdDeviation="8.10559"/>
<feComposite in2="hardAlpha" operator="out"/>
<feColorMatrix type="matrix" values="0 0 0 0 0.197708 0 0 0 0 0.387559 0 0 0 0 0.65 0 0 0 0.1 0"/>
<feBlend mode="normal" in2="BackgroundImageFix" result="effect1_dropShadow_950_11579"/>
<feBlend mode="normal" in="SourceGraphic" in2="effect1_dropShadow_950_11579" result="shape"/>
</filter>
<filter id="filter2_d_950_11579" x="181.789" y="101.789" width="192.422" height="132.422" filterUnits="userSpaceOnUse" color-interpolation-filters="sRGB">
<feFlood flood-opacity="0" result="BackgroundImageFix"/>
<feColorMatrix in="SourceAlpha" type="matrix" values="0 0 0 0 0 0 0 0 0 0 0 0 0 0 0 0 0 0 127 0" result="hardAlpha"/>
<feOffset/>
<feGaussianBlur stdDeviation="8.10559"/>
<feComposite in2="hardAlpha" operator="out"/>
<feColorMatrix type="matrix" values="0 0 0 0 0.197708 0 0 0 0 0.387559 0 0 0 0 0.65 0 0 0 0.1 0"/>
<feBlend mode="normal" in2="BackgroundImageFix" result="effect1_dropShadow_950_11579"/>
<feBlend mode="normal" in="SourceGraphic" in2="effect1_dropShadow_950_11579" result="shape"/>
</filter>
<filter id="filter3_d_950_11579" x="181.789" y="252.789" width="192.422" height="132.422" filterUnits="userSpaceOnUse" color-interpolation-filters="sRGB">
<feFlood flood-opacity="0" result="BackgroundImageFix"/>
<feColorMatrix in="SourceAlpha" type="matrix" values="0 0 0 0 0 0 0 0 0 0 0 0 0 0 0 0 0 0 127 0" result="hardAlpha"/>
<feOffset/>
<feGaussianBlur stdDeviation="8.10559"/>
<feComposite in2="hardAlpha" operator="out"/>
<feColorMatrix type="matrix" values="0 0 0 0 0.197708 0 0 0 0 0.387559 0 0 0 0 0.65 0 0 0 0.1 0"/>
<feBlend mode="normal" in2="BackgroundImageFix" result="effect1_dropShadow_950_11579"/>
<feBlend mode="normal" in="SourceGraphic" in2="effect1_dropShadow_950_11579" result="shape"/>
</filter>
<linearGradient id="paint0_linear_950_11579" x1="473" y1="147" x2="515.686" y2="226.262" gradientUnits="userSpaceOnUse">
<stop offset="0.24238" stop-color="#36BEFF"/>
<stop offset="1" stop-color="#733FF1"/>
</linearGradient>
<linearGradient id="paint1_linear_950_11579" x1="487" y1="288" x2="535.989" y2="353.748" gradientUnits="userSpaceOnUse">
<stop offset="0.24238" stop-color="#36BEFF"/>
<stop offset="1" stop-color="#733FF1"/>
</linearGradient>
<linearGradient id="paint2_linear_950_11579" x1="501" y1="327" x2="519.124" y2="360.713" gradientUnits="userSpaceOnUse">
<stop offset="0.24238" stop-color="#36BEFF"/>
<stop offset="1" stop-color="#733FF1"/>
</linearGradient>
<linearGradient id="paint3_linear_950_11579" x1="437" y1="40" x2="440.323" y2="72.8955" gradientUnits="userSpaceOnUse">
<stop offset="0.24238" stop-color="#36BEFF"/>
<stop offset="1" stop-color="#733FF1"/>
</linearGradient>
</defs>
</svg>
