<svg width="144" height="108" viewBox="0 0 144 108" fill="none" xmlns="http://www.w3.org/2000/svg">
<rect width="72" height="36" rx="18" fill="#5578F8"/>
<ellipse opacity="0.5" cx="20" cy="18" rx="8" ry="8" transform="rotate(-90 20 18)" fill="white"/>
<ellipse opacity="0.5" cx="36" cy="18" rx="8" ry="8" transform="rotate(-90 36 18)" fill="white"/>
<ellipse opacity="0.5" cx="52" cy="18" rx="8" ry="8" transform="rotate(-90 52 18)" fill="white"/>
<rect x="1" y="1" width="70" height="34" rx="17" stroke="white" stroke-opacity="0.5" stroke-width="2"/>
<rect y="36" width="72" height="36" rx="18" fill="#5578F8"/>
<ellipse opacity="0.5" cx="20" cy="54" rx="8" ry="8" transform="rotate(-90 20 54)" fill="white"/>
<ellipse opacity="0.5" cx="36" cy="54" rx="8" ry="8" transform="rotate(-90 36 54)" fill="white"/>
<ellipse opacity="0.5" cx="52" cy="54" rx="8" ry="8" transform="rotate(-90 52 54)" fill="white"/>
<rect x="1" y="37" width="70" height="34" rx="17" stroke="white" stroke-opacity="0.5" stroke-width="2"/>
<rect y="72" width="72" height="36" rx="18" fill="#5578F8"/>
<ellipse opacity="0.5" cx="20" cy="90" rx="8" ry="8" transform="rotate(-90 20 90)" fill="white"/>
<ellipse opacity="0.5" cx="36" cy="90" rx="8" ry="8" transform="rotate(-90 36 90)" fill="white"/>
<ellipse opacity="0.5" cx="52" cy="90" rx="8" ry="8" transform="rotate(-90 52 90)" fill="white"/>
<rect x="1" y="73" width="70" height="34" rx="17" stroke="white" stroke-opacity="0.5" stroke-width="2"/>
<rect x="72" width="72" height="36" rx="18" fill="#5578F8"/>
<ellipse opacity="0.5" cx="92" cy="18" rx="8" ry="8" transform="rotate(-90 92 18)" fill="white"/>
<ellipse opacity="0.5" cx="108" cy="18" rx="8" ry="8" transform="rotate(-90 108 18)" fill="white"/>
<ellipse opacity="0.5" cx="124" cy="18" rx="8" ry="8" transform="rotate(-90 124 18)" fill="white"/>
<rect x="73" y="1" width="70" height="34" rx="17" stroke="white" stroke-opacity="0.5" stroke-width="2"/>
<rect x="72" y="36" width="72" height="36" rx="18" fill="#5578F8"/>
<ellipse opacity="0.5" cx="92" cy="54" rx="8" ry="8" transform="rotate(-90 92 54)" fill="white"/>
<ellipse opacity="0.5" cx="108" cy="54" rx="8" ry="8" transform="rotate(-90 108 54)" fill="white"/>
<ellipse opacity="0.5" cx="124" cy="54" rx="8" ry="8" transform="rotate(-90 124 54)" fill="white"/>
<rect x="73" y="37" width="70" height="34" rx="17" stroke="white" stroke-opacity="0.5" stroke-width="2"/>
<rect x="72" y="72" width="72" height="36" rx="18" fill="#5578F8"/>
<ellipse opacity="0.5" cx="92" cy="90" rx="8" ry="8" transform="rotate(-90 92 90)" fill="white"/>
<ellipse opacity="0.5" cx="108" cy="90" rx="8" ry="8" transform="rotate(-90 108 90)" fill="white"/>
<ellipse opacity="0.5" cx="124" cy="90" rx="8" ry="8" transform="rotate(-90 124 90)" fill="white"/>
<rect x="73" y="73" width="70" height="34" rx="17" stroke="white" stroke-opacity="0.5" stroke-width="2"/>
</svg>
