<svg width="20" height="20" viewBox="0 0 20 20" fill="none" xmlns="http://www.w3.org/2000/svg">
<path d="M17.375 8V12H18.625V8H17.375ZM2.625 12V8H1.375V12H2.625ZM14 15.375H6V16.625H14V15.375ZM6 4.625H14V3.375H6V4.625ZM1.375 12C1.375 14.5543 3.44568 16.625 6 16.625V15.375C4.13604 15.375 2.625 13.864 2.625 12H1.375ZM17.375 12C17.375 13.864 15.864 15.375 14 15.375V16.625C16.5543 16.625 18.625 14.5543 18.625 12H17.375ZM18.625 8C18.625 5.44568 16.5543 3.375 14 3.375V4.625C15.864 4.625 17.375 6.13604 17.375 8H18.625ZM2.625 8C2.625 6.13604 4.13604 4.625 6 4.625V3.375C3.44568 3.375 1.375 5.44568 1.375 8H2.625Z" fill="#36BEFF"/>
<path d="M8.00004 7.44157C8.00002 7.24724 8.21201 7.1272 8.37865 7.22718L12.6427 9.78542C12.8046 9.88252 12.8046 10.1171 12.6427 10.2142L8.37911 12.7728C8.21248 12.8728 8.00048 12.7528 8.00047 12.5585L8.00004 7.44157Z" fill="#36BEFF"/>
<path d="M8.00004 7.44157C8.00002 7.24724 8.21201 7.1272 8.37865 7.22718L12.6427 9.78542C12.8046 9.88252 12.8046 10.1171 12.6427 10.2142L8.37911 12.7728C8.21248 12.8728 8.00048 12.7528 8.00047 12.5585L8.00004 7.44157Z" fill="#36BEFF"/>
</svg>
